M48
;DRILL file {KiCad (5.0.0-rc2-dev-311-g1dd4af297)} date 04/22/18 13:53:38
;FORMAT={2:4/ absolute / inch / suppress leading zeros}
FMAT,2
INCH,TZ
T1C0.0157
T2C0.0236
T3C0.0315
T4C0.0320
T5C0.0350
T6C0.0354
T7C0.0472
T8C0.0630
T9C0.0810
T10C0.0866
%
G90
G05
M72
T1
X49896Y-19205
X50117Y-28508
X50164Y-42323
X50687Y-21402
X50700Y-22764
X51191Y-23697
X51991Y-40004
X51991Y-34315
X52700Y-31000
X53128Y-18055
X53518Y-42772
X53676Y-36567
X54097Y-16205
X54109Y-20894
X55203Y-42276
X55219Y-32402
X55644Y-26201
X56065Y-22811
X56093Y-17169
X56770Y-42744
X57136Y-18000
X57400Y-37100
X57500Y-41900
X58200Y-37100
X58274Y-23681
X58754Y-40004
X59100Y-43300
X59227Y-19555
X59300Y-30000
X59600Y-36300
X59908Y-16150
X60369Y-16917
X60459Y-20957
X60800Y-30000
X60800Y-35700
X60800Y-40831
X61420Y-43189
X62700Y-36600
X63963Y-51600
X64100Y-43200
X64400Y-34900
X64700Y-31000
X65664Y-36232
X66600Y-43600
T2
X49400Y-20900
X49900Y-20400
X49900Y-21400
T3
X54109Y-19200
X61131Y-16700
X63100Y-16700
X58243Y-26200
X53124Y-19200
X59227Y-26200
X50500Y-52750
X50500Y-54000
X50500Y-55250
X50500Y-56500
X50500Y-57750
X50500Y-59000
X52750Y-52750
X52750Y-54000
X52750Y-55250
X52750Y-56500
X52750Y-57750
X52750Y-59000
X53500Y-44750
X53500Y-47750
X54500Y-44750
X55000Y-59000
X55500Y-44750
X56500Y-44750
X66000Y-55300
X54500Y-47750
X55000Y-52750
X55000Y-54000
X55000Y-55250
X55000Y-56500
X55000Y-57750
X55500Y-47750
X56500Y-47750
X57250Y-52750
X57250Y-54000
X57250Y-55250
X57250Y-56500
X57250Y-57750
X57500Y-44750
X57500Y-47750
X58500Y-44750
X58500Y-47750
X59500Y-44750
X59500Y-47750
X66000Y-57800
X57250Y-59000
X59500Y-52750
X59500Y-54000
X66000Y-54050
X59500Y-55250
X59500Y-56500
X59500Y-57750
X59500Y-59000
X61750Y-52750
X61750Y-54000
X66000Y-52800
X66000Y-56550
X56743Y-37831
X58243Y-21000
X59227Y-21000
X53124Y-22800
X54109Y-22800
X56743Y-40831
X57743Y-37831
X57743Y-40831
X58743Y-37831
X58743Y-40831
X59743Y-37831
X59743Y-40831
X61750Y-55250
X61750Y-56500
X61750Y-57750
X61750Y-59000
X64000Y-59000
X66000Y-59000
T4
X62648Y-24700
X65648Y-24700
X67200Y-48600
X62648Y-19200
X65648Y-19200
X62648Y-26400
X65648Y-26400
X67200Y-51600
X62648Y-30020
X62648Y-31800
X65648Y-31800
X49400Y-43300
X49400Y-46300
X65648Y-30020
X62648Y-21000
X65648Y-21000
X62648Y-28300
X65648Y-28300
X62648Y-22800
X65648Y-22800
T5
X51337Y-41107
X52337Y-41107
X53337Y-41107
X63148Y-41107
X64148Y-41107
X65148Y-41107
X57100Y-34961
X58100Y-34961
X59100Y-34961
T6
X50700Y-34300
X53700Y-34300
X50700Y-32400
X53700Y-32400
X50172Y-47976
X50172Y-48976
X63200Y-47976
X63200Y-48976
T7
X50100Y-24600
X50100Y-25600
X50172Y-16193
X50172Y-17193
X66300Y-16193
X57743Y-16799
X66300Y-17193
X58743Y-16799
T8
X49100Y-24600
X49100Y-25600
X49172Y-16193
X49172Y-17193
X57743Y-15799
X67300Y-16193
X67300Y-17193
X58743Y-15799
T9
X50607Y-38347
X54067Y-38347
X62418Y-38347
X65878Y-38347
X56370Y-32201
X59830Y-32201
T10
X52337Y-28504
X54187Y-28504
X62298Y-45300
X64148Y-45300
X65998Y-45300
T0
M30
