G04 #@! TF.GenerationSoftware,KiCad,Pcbnew,(5.0.0-rc2-dev-311-g1dd4af297)*
G04 #@! TF.CreationDate,2018-04-22T13:53:34-07:00*
G04 #@! TF.ProjectId,workshop_drum1.2,776F726B73686F705F6472756D312E32,rev?*
G04 #@! TF.SameCoordinates,Original*
G04 #@! TF.FileFunction,Legend,Top*
G04 #@! TF.FilePolarity,Positive*
%FSLAX46Y46*%
G04 Gerber Fmt 4.6, Leading zero omitted, Abs format (unit mm)*
G04 Created by KiCad (PCBNEW (5.0.0-rc2-dev-311-g1dd4af297)) date 04/22/18 13:53:34*
%MOMM*%
%LPD*%
G01*
G04 APERTURE LIST*
%ADD10C,0.375000*%
%ADD11C,0.125000*%
%ADD12C,0.150000*%
%ADD13C,0.250000*%
%ADD14C,0.120000*%
%ADD15C,0.350000*%
%ADD16C,0.127000*%
%ADD17C,0.300000*%
%ADD18C,0.062500*%
%ADD19C,0.312500*%
G04 APERTURE END LIST*
D10*
X123809238Y-130850857D02*
X125809238Y-130850857D01*
X124380666Y-131350857D01*
X125809238Y-131850857D01*
X123809238Y-131850857D01*
X125809238Y-132850857D02*
X125809238Y-133136571D01*
X125714000Y-133279428D01*
X125523523Y-133422285D01*
X125142571Y-133493714D01*
X124475904Y-133493714D01*
X124094952Y-133422285D01*
X123904476Y-133279428D01*
X123809238Y-133136571D01*
X123809238Y-132850857D01*
X123904476Y-132708000D01*
X124094952Y-132565142D01*
X124475904Y-132493714D01*
X125142571Y-132493714D01*
X125523523Y-132565142D01*
X125714000Y-132708000D01*
X125809238Y-132850857D01*
X123904476Y-134065142D02*
X123809238Y-134279428D01*
X123809238Y-134636571D01*
X123904476Y-134779428D01*
X123999714Y-134850857D01*
X124190190Y-134922285D01*
X124380666Y-134922285D01*
X124571142Y-134850857D01*
X124666380Y-134779428D01*
X124761619Y-134636571D01*
X124856857Y-134350857D01*
X124952095Y-134208000D01*
X125047333Y-134136571D01*
X125237809Y-134065142D01*
X125428285Y-134065142D01*
X125618761Y-134136571D01*
X125714000Y-134208000D01*
X125809238Y-134350857D01*
X125809238Y-134708000D01*
X125714000Y-134922285D01*
X123904476Y-135493714D02*
X123809238Y-135708000D01*
X123809238Y-136065142D01*
X123904476Y-136208000D01*
X123999714Y-136279428D01*
X124190190Y-136350857D01*
X124380666Y-136350857D01*
X124571142Y-136279428D01*
X124666380Y-136208000D01*
X124761619Y-136065142D01*
X124856857Y-135779428D01*
X124952095Y-135636571D01*
X125047333Y-135565142D01*
X125237809Y-135493714D01*
X125428285Y-135493714D01*
X125618761Y-135565142D01*
X125714000Y-135636571D01*
X125809238Y-135779428D01*
X125809238Y-136136571D01*
X125714000Y-136350857D01*
X123809238Y-138136571D02*
X125809238Y-138136571D01*
X125809238Y-138493714D01*
X125714000Y-138708000D01*
X125523523Y-138850857D01*
X125333047Y-138922285D01*
X124952095Y-138993714D01*
X124666380Y-138993714D01*
X124285428Y-138922285D01*
X124094952Y-138850857D01*
X123904476Y-138708000D01*
X123809238Y-138493714D01*
X123809238Y-138136571D01*
X123809238Y-140493714D02*
X124761619Y-139993714D01*
X123809238Y-139636571D02*
X125809238Y-139636571D01*
X125809238Y-140208000D01*
X125714000Y-140350857D01*
X125618761Y-140422285D01*
X125428285Y-140493714D01*
X125142571Y-140493714D01*
X124952095Y-140422285D01*
X124856857Y-140350857D01*
X124761619Y-140208000D01*
X124761619Y-139636571D01*
X125809238Y-141136571D02*
X124190190Y-141136571D01*
X123999714Y-141208000D01*
X123904476Y-141279428D01*
X123809238Y-141422285D01*
X123809238Y-141708000D01*
X123904476Y-141850857D01*
X123999714Y-141922285D01*
X124190190Y-141993714D01*
X125809238Y-141993714D01*
X123809238Y-142708000D02*
X125809238Y-142708000D01*
X124380666Y-143208000D01*
X125809238Y-143708000D01*
X123809238Y-143708000D01*
X125142571Y-145422285D02*
X123809238Y-145779428D01*
X125142571Y-146136571D01*
X123809238Y-147493714D02*
X123809238Y-146636571D01*
X123809238Y-147065142D02*
X125809238Y-147065142D01*
X125523523Y-146922285D01*
X125333047Y-146779428D01*
X125237809Y-146636571D01*
X123999714Y-148136571D02*
X123904476Y-148208000D01*
X123809238Y-148136571D01*
X123904476Y-148065142D01*
X123999714Y-148136571D01*
X123809238Y-148136571D01*
X125618761Y-148779428D02*
X125714000Y-148850857D01*
X125809238Y-148993714D01*
X125809238Y-149350857D01*
X125714000Y-149493714D01*
X125618761Y-149565142D01*
X125428285Y-149636571D01*
X125237809Y-149636571D01*
X124952095Y-149565142D01*
X123809238Y-148708000D01*
X123809238Y-149636571D01*
D11*
X169540000Y-118935500D02*
G75*
G02X169413000Y-119062500I-127000J0D01*
G01*
X156332000Y-111188500D02*
G75*
G02X156459000Y-111061500I127000J0D01*
G01*
X169413000Y-111061500D02*
G75*
G02X169540000Y-111188500I0J-127000D01*
G01*
X156459000Y-119062500D02*
G75*
G02X156332000Y-118935500I0J127000D01*
G01*
X165936000Y-115062000D02*
G75*
G03X165936000Y-115062000I-3000000J0D01*
G01*
X169436000Y-119062000D02*
X156436000Y-119062000D01*
X169536000Y-111162000D02*
X169536000Y-118962000D01*
X156436000Y-111062000D02*
X169436000Y-111062000D01*
X156336000Y-118962000D02*
X156336000Y-111162000D01*
X126332000Y-68526500D02*
G75*
G02X126459000Y-68399500I127000J0D01*
G01*
X139540000Y-76273500D02*
G75*
G02X139413000Y-76400500I-127000J0D01*
G01*
X126459000Y-76400500D02*
G75*
G02X126332000Y-76273500I0J127000D01*
G01*
X139413000Y-68399500D02*
G75*
G02X139540000Y-68526500I0J-127000D01*
G01*
X135936000Y-72400000D02*
G75*
G03X135936000Y-72400000I-3000000J0D01*
G01*
X126436000Y-68400000D02*
X139436000Y-68400000D01*
X126336000Y-76300000D02*
X126336000Y-68500000D01*
X139436000Y-76400000D02*
X126436000Y-76400000D01*
X139536000Y-68500000D02*
X139536000Y-76300000D01*
D12*
X145396000Y-43940000D02*
X145396000Y-38860000D01*
X146031000Y-44575000D02*
X145396000Y-43940000D01*
X149841000Y-44575000D02*
X146031000Y-44575000D01*
X150476000Y-43940000D02*
X149841000Y-44575000D01*
X150476000Y-38860000D02*
X150476000Y-43940000D01*
X145396000Y-38860000D02*
X150476000Y-38860000D01*
X123444000Y-61214000D02*
X123444000Y-66294000D01*
X123444000Y-66294000D02*
X128524000Y-66294000D01*
X128524000Y-66294000D02*
X129159000Y-65659000D01*
X129159000Y-65659000D02*
X129159000Y-61849000D01*
X129159000Y-61849000D02*
X128524000Y-61214000D01*
X128524000Y-61214000D02*
X123444000Y-61214000D01*
X138557000Y-124841000D02*
X138557000Y-125984000D01*
X142875000Y-124841000D02*
X141732000Y-125603000D01*
X148717000Y-124841000D02*
X148717000Y-125984000D01*
X136652000Y-124079000D02*
X137795000Y-124841000D01*
X136017000Y-124841000D02*
X136652000Y-124841000D01*
X141732000Y-124841000D02*
X141732000Y-124079000D01*
X143129000Y-124841000D02*
G75*
G03X143129000Y-124841000I-127000J0D01*
G01*
X146177000Y-125984000D02*
X146177000Y-124841000D01*
X148209000Y-124841000D02*
G75*
G03X148209000Y-124841000I-127000J0D01*
G01*
X148209000Y-124841000D02*
X148717000Y-124841000D01*
X141732000Y-125603000D02*
X141732000Y-124841000D01*
X143129000Y-124841000D02*
X143637000Y-124841000D01*
X136652000Y-124841000D02*
X136652000Y-124079000D01*
X137795000Y-124841000D02*
X136652000Y-125603000D01*
X136652000Y-125603000D02*
X136652000Y-124841000D01*
X138049000Y-124841000D02*
X138557000Y-124841000D01*
X143637000Y-124841000D02*
X143637000Y-125984000D01*
X146812000Y-124841000D02*
X146812000Y-124079000D01*
X141732000Y-124079000D02*
X142875000Y-124841000D01*
X136017000Y-125984000D02*
X136017000Y-124841000D01*
X138049000Y-124841000D02*
G75*
G03X138049000Y-124841000I-127000J0D01*
G01*
X141097000Y-124841000D02*
X141732000Y-124841000D01*
X141097000Y-125984000D02*
X141097000Y-124841000D01*
X146177000Y-124841000D02*
X146812000Y-124841000D01*
X146812000Y-124079000D02*
X147955000Y-124841000D01*
X146812000Y-125603000D02*
X146812000Y-124841000D01*
X147955000Y-124841000D02*
X146812000Y-125603000D01*
X150939500Y-125349000D02*
X151447500Y-125349000D01*
X151257000Y-125730000D02*
X151130000Y-125730000D01*
X151193500Y-124968000D02*
X151193500Y-124206000D01*
X151828500Y-124968000D02*
X150558500Y-124968000D01*
D13*
X133985000Y-118745000D02*
X133985000Y-121285000D01*
X133985000Y-116205000D02*
X133985000Y-113665000D01*
X133985000Y-113665000D02*
X134620000Y-113665000D01*
X133985000Y-116205000D02*
G75*
G02X133985000Y-118745000I0J-1270000D01*
G01*
X134620000Y-121285000D02*
X133985000Y-121285000D01*
X153035000Y-113665000D02*
X152400000Y-113665000D01*
X153035000Y-121285000D02*
X153035000Y-113665000D01*
X152400000Y-121285000D02*
X153035000Y-121285000D01*
D12*
X165798500Y-149733000D02*
X164528500Y-149733000D01*
X164909500Y-150114000D02*
X165417500Y-150114000D01*
X165163500Y-149733000D02*
X165163500Y-148971000D01*
X165227000Y-150495000D02*
X165100000Y-150495000D01*
X154051000Y-150495000D02*
X153924000Y-150495000D01*
X154622500Y-149733000D02*
X153352500Y-149733000D01*
X153733500Y-150114000D02*
X154241500Y-150114000D01*
X153987500Y-149733000D02*
X153987500Y-148971000D01*
X142621000Y-150495000D02*
X142494000Y-150495000D01*
X143192500Y-149733000D02*
X141922500Y-149733000D01*
X142303500Y-150114000D02*
X142811500Y-150114000D01*
X142557500Y-149733000D02*
X142557500Y-148971000D01*
X131064000Y-149796500D02*
X131064000Y-149034500D01*
X131127500Y-150558500D02*
X131000500Y-150558500D01*
X130810000Y-150177500D02*
X131318000Y-150177500D01*
X131699000Y-149796500D02*
X130429000Y-149796500D01*
D13*
X168910000Y-148590000D02*
X168910000Y-151130000D01*
X168910000Y-151130000D02*
X132080000Y-151130000D01*
X134620000Y-148590000D02*
X168910000Y-148590000D01*
D12*
X156845000Y-145669000D02*
X156845000Y-144907000D01*
X139446000Y-145161000D02*
X139700000Y-144907000D01*
X151130000Y-144907000D02*
X151384000Y-145161000D01*
X156845000Y-145669000D02*
X156591000Y-145415000D01*
X145669000Y-145415000D02*
X145415000Y-145669000D01*
X145415000Y-145669000D02*
X145415000Y-144907000D01*
X145415000Y-145669000D02*
X145161000Y-145415000D01*
X157099000Y-145415000D02*
X156845000Y-145669000D01*
X151130000Y-144907000D02*
X151130000Y-145669000D01*
X145161000Y-145415000D02*
X145669000Y-145415000D01*
X150876000Y-145161000D02*
X151130000Y-144907000D01*
X151384000Y-145161000D02*
X150876000Y-145161000D01*
X139700000Y-144907000D02*
X139700000Y-145669000D01*
X139700000Y-144907000D02*
X139954000Y-145161000D01*
X156591000Y-145415000D02*
X157099000Y-145415000D01*
X139954000Y-145161000D02*
X139446000Y-145161000D01*
X157099000Y-142240000D02*
X156845000Y-142494000D01*
X145669000Y-142240000D02*
X145415000Y-142494000D01*
X145415000Y-142494000D02*
X145415000Y-141732000D01*
X139700000Y-141732000D02*
X139954000Y-141986000D01*
X151130000Y-141732000D02*
X151130000Y-142494000D01*
X156845000Y-142494000D02*
X156845000Y-141732000D01*
X139446000Y-141986000D02*
X139700000Y-141732000D01*
X139954000Y-141986000D02*
X139446000Y-141986000D01*
X151384000Y-141986000D02*
X150876000Y-141986000D01*
X145161000Y-142240000D02*
X145669000Y-142240000D01*
X145415000Y-142494000D02*
X145161000Y-142240000D01*
X139700000Y-141732000D02*
X139700000Y-142494000D01*
X151130000Y-141732000D02*
X151384000Y-141986000D01*
X150876000Y-141986000D02*
X151130000Y-141732000D01*
X156845000Y-142494000D02*
X156591000Y-142240000D01*
X156591000Y-142240000D02*
X157099000Y-142240000D01*
X139954000Y-138811000D02*
X139446000Y-138811000D01*
X145669000Y-139065000D02*
X145415000Y-139319000D01*
X151384000Y-138811000D02*
X150876000Y-138811000D01*
X139700000Y-138557000D02*
X139954000Y-138811000D01*
X145161000Y-139065000D02*
X145669000Y-139065000D01*
X139446000Y-138811000D02*
X139700000Y-138557000D01*
X145415000Y-139319000D02*
X145161000Y-139065000D01*
X139700000Y-138557000D02*
X139700000Y-139319000D01*
X145415000Y-139319000D02*
X145415000Y-138557000D01*
X151130000Y-138557000D02*
X151384000Y-138811000D01*
X150876000Y-138811000D02*
X151130000Y-138557000D01*
X151130000Y-138557000D02*
X151130000Y-139319000D01*
X157099000Y-139065000D02*
X156845000Y-139319000D01*
X156845000Y-139319000D02*
X156845000Y-138557000D01*
X156845000Y-139319000D02*
X156591000Y-139065000D01*
X156591000Y-139065000D02*
X157099000Y-139065000D01*
X145415000Y-136144000D02*
X145161000Y-135890000D01*
X151130000Y-135382000D02*
X151384000Y-135636000D01*
X151384000Y-135636000D02*
X150876000Y-135636000D01*
X139446000Y-135636000D02*
X139700000Y-135382000D01*
X139954000Y-135636000D02*
X139446000Y-135636000D01*
X139700000Y-135382000D02*
X139954000Y-135636000D01*
X139700000Y-135382000D02*
X139700000Y-136144000D01*
X145161000Y-135890000D02*
X145669000Y-135890000D01*
X145415000Y-136144000D02*
X145415000Y-135382000D01*
X145669000Y-135890000D02*
X145415000Y-136144000D01*
X150876000Y-135636000D02*
X151130000Y-135382000D01*
X151130000Y-135382000D02*
X151130000Y-136144000D01*
X157099000Y-135890000D02*
X156845000Y-136144000D01*
X156845000Y-136144000D02*
X156845000Y-135382000D01*
X156845000Y-136144000D02*
X156591000Y-135890000D01*
X156591000Y-135890000D02*
X157099000Y-135890000D01*
X133985000Y-135763000D02*
X133731000Y-135509000D01*
X133985000Y-135763000D02*
X133985000Y-135001000D01*
X133731000Y-135509000D02*
X134239000Y-135509000D01*
X134239000Y-135509000D02*
X133985000Y-135763000D01*
X133985000Y-138938000D02*
X133731000Y-138684000D01*
X134239000Y-138684000D02*
X133985000Y-138938000D01*
X133985000Y-138938000D02*
X133985000Y-138176000D01*
X133731000Y-138684000D02*
X134239000Y-138684000D01*
X133985000Y-142113000D02*
X133985000Y-141351000D01*
X133985000Y-142113000D02*
X133731000Y-141859000D01*
X133731000Y-141859000D02*
X134239000Y-141859000D01*
X134239000Y-141859000D02*
X133985000Y-142113000D01*
X133985000Y-145288000D02*
X133985000Y-144526000D01*
X134239000Y-145034000D02*
X133985000Y-145288000D01*
X133985000Y-145288000D02*
X133731000Y-145034000D01*
X133731000Y-145034000D02*
X134239000Y-145034000D01*
X128524000Y-145161000D02*
X128016000Y-145161000D01*
X128016000Y-145161000D02*
X128270000Y-144907000D01*
X128270000Y-144907000D02*
X128524000Y-145161000D01*
X128270000Y-144907000D02*
X128270000Y-145669000D01*
X128270000Y-141732000D02*
X128524000Y-141986000D01*
X128016000Y-141986000D02*
X128270000Y-141732000D01*
X128270000Y-141732000D02*
X128270000Y-142494000D01*
X128524000Y-141986000D02*
X128016000Y-141986000D01*
X128270000Y-138557000D02*
X128524000Y-138811000D01*
X128524000Y-138811000D02*
X128016000Y-138811000D01*
X128016000Y-138811000D02*
X128270000Y-138557000D01*
X128270000Y-138557000D02*
X128270000Y-139319000D01*
X128270000Y-135382000D02*
X128270000Y-136144000D01*
X128270000Y-135382000D02*
X128524000Y-135636000D01*
X128524000Y-135636000D02*
X128016000Y-135636000D01*
X128016000Y-135636000D02*
X128270000Y-135382000D01*
D13*
X127000000Y-148590000D02*
X161290000Y-148590000D01*
X127000000Y-151130000D02*
X127000000Y-148590000D01*
X163830000Y-151130000D02*
X127000000Y-151130000D01*
X128270000Y-128905000D02*
X129349500Y-128905000D01*
X133985000Y-128905000D02*
X133350000Y-128905000D01*
D12*
X133159500Y-128905000D02*
X133350000Y-128905000D01*
D13*
X133159500Y-128905000D02*
G75*
G03X133159500Y-128905000I-317500J0D01*
G01*
X132524500Y-128905000D02*
X129349500Y-130810000D01*
X129349500Y-127000000D02*
X132524500Y-128905000D01*
X129349500Y-130810000D02*
X129349500Y-127000000D01*
X132715000Y-132715000D02*
X132715000Y-147955000D01*
X135255000Y-147955000D02*
X135255000Y-132715000D01*
X132715000Y-147955000D02*
X135255000Y-147955000D01*
X135255000Y-132715000D02*
X132715000Y-132715000D01*
X129540000Y-132715000D02*
X127000000Y-132715000D01*
X129540000Y-147955000D02*
X129540000Y-132715000D01*
X127000000Y-147955000D02*
X129540000Y-147955000D01*
X127000000Y-132715000D02*
X127000000Y-147955000D01*
D12*
X133985000Y-132334000D02*
X133731000Y-132080000D01*
X133731000Y-132080000D02*
X134239000Y-132080000D01*
X134239000Y-132080000D02*
X133985000Y-132334000D01*
X133985000Y-132334000D02*
X133985000Y-131572000D01*
X128016000Y-131826000D02*
X128270000Y-131572000D01*
X128270000Y-131572000D02*
X128270000Y-132334000D01*
X128524000Y-131826000D02*
X128016000Y-131826000D01*
X128270000Y-131572000D02*
X128524000Y-131826000D01*
D13*
X128270000Y-128905000D02*
X128270000Y-131191000D01*
X133985000Y-128905000D02*
X133985000Y-131191000D01*
X145415000Y-128905000D02*
X144780000Y-128905000D01*
X146685000Y-147955000D02*
X146685000Y-132715000D01*
D12*
X144589500Y-128905000D02*
X144780000Y-128905000D01*
D13*
X139700000Y-128905000D02*
X140779500Y-128905000D01*
X140779500Y-130810000D02*
X140779500Y-127000000D01*
X140970000Y-132715000D02*
X138430000Y-132715000D01*
X140779500Y-127000000D02*
X143954500Y-128905000D01*
X138430000Y-147955000D02*
X140970000Y-147955000D01*
X144145000Y-132715000D02*
X144145000Y-147955000D01*
X138430000Y-132715000D02*
X138430000Y-147955000D01*
D12*
X145415000Y-132334000D02*
X145161000Y-132080000D01*
D13*
X144589500Y-128905000D02*
G75*
G03X144589500Y-128905000I-317500J0D01*
G01*
X143954500Y-128905000D02*
X140779500Y-130810000D01*
X144145000Y-147955000D02*
X146685000Y-147955000D01*
X146685000Y-132715000D02*
X144145000Y-132715000D01*
X140970000Y-147955000D02*
X140970000Y-132715000D01*
D12*
X139446000Y-131826000D02*
X139700000Y-131572000D01*
D13*
X139700000Y-128905000D02*
X139700000Y-131191000D01*
D12*
X139954000Y-131826000D02*
X139446000Y-131826000D01*
D13*
X145415000Y-128905000D02*
X145415000Y-131191000D01*
D12*
X139700000Y-131572000D02*
X139954000Y-131826000D01*
X139700000Y-131572000D02*
X139700000Y-132334000D01*
X145161000Y-132080000D02*
X145669000Y-132080000D01*
X145669000Y-132080000D02*
X145415000Y-132334000D01*
X145415000Y-132334000D02*
X145415000Y-131572000D01*
D13*
X155575000Y-147955000D02*
X158115000Y-147955000D01*
D12*
X150876000Y-131826000D02*
X151130000Y-131572000D01*
D13*
X152400000Y-147955000D02*
X152400000Y-132715000D01*
D12*
X151130000Y-131572000D02*
X151130000Y-132334000D01*
X157099000Y-132080000D02*
X156845000Y-132334000D01*
X156845000Y-132334000D02*
X156845000Y-131572000D01*
D13*
X151130000Y-128905000D02*
X151130000Y-131191000D01*
X155384500Y-128905000D02*
X152209500Y-130810000D01*
X156845000Y-128905000D02*
X156845000Y-131191000D01*
D12*
X151130000Y-131572000D02*
X151384000Y-131826000D01*
X156591000Y-132080000D02*
X157099000Y-132080000D01*
D13*
X158115000Y-132715000D02*
X155575000Y-132715000D01*
X149860000Y-132715000D02*
X149860000Y-147955000D01*
D12*
X156845000Y-132334000D02*
X156591000Y-132080000D01*
D13*
X156019500Y-128905000D02*
G75*
G03X156019500Y-128905000I-317500J0D01*
G01*
D12*
X151384000Y-131826000D02*
X150876000Y-131826000D01*
D13*
X152209500Y-130810000D02*
X152209500Y-127000000D01*
X151130000Y-128905000D02*
X152209500Y-128905000D01*
X152400000Y-132715000D02*
X149860000Y-132715000D01*
X149860000Y-147955000D02*
X152400000Y-147955000D01*
X152209500Y-127000000D02*
X155384500Y-128905000D01*
D12*
X156019500Y-128905000D02*
X156210000Y-128905000D01*
D13*
X158115000Y-147955000D02*
X158115000Y-132715000D01*
X155575000Y-132715000D02*
X155575000Y-147955000D01*
X156845000Y-128905000D02*
X156210000Y-128905000D01*
X162560000Y-127635000D02*
X162560000Y-128714500D01*
X160591500Y-128714500D02*
X164401500Y-128714500D01*
X161226500Y-129667000D02*
X163766500Y-129667000D01*
X161734500Y-130683000D02*
X163258500Y-130683000D01*
X162486500Y-131445000D02*
X162506500Y-131445000D01*
D12*
X135890000Y-120396000D02*
X135890000Y-119253000D01*
X135890000Y-119253000D02*
X136525000Y-119253000D01*
X136525000Y-119253000D02*
X136525000Y-118491000D01*
X136525000Y-118491000D02*
X137668000Y-119253000D01*
X137668000Y-119253000D02*
X136525000Y-120015000D01*
X136525000Y-120015000D02*
X136525000Y-119253000D01*
X137922000Y-119253000D02*
G75*
G03X137922000Y-119253000I-127000J0D01*
G01*
X137922000Y-119253000D02*
X138430000Y-119253000D01*
X138430000Y-119253000D02*
X138430000Y-120396000D01*
X143510000Y-119253000D02*
X143510000Y-120396000D01*
X142748000Y-119253000D02*
X141605000Y-120015000D01*
X140970000Y-119253000D02*
X141605000Y-119253000D01*
X140970000Y-120396000D02*
X140970000Y-119253000D01*
X141605000Y-119253000D02*
X141605000Y-118491000D01*
X141605000Y-118491000D02*
X142748000Y-119253000D01*
X143002000Y-119253000D02*
G75*
G03X143002000Y-119253000I-127000J0D01*
G01*
X143002000Y-119253000D02*
X143510000Y-119253000D01*
X141605000Y-120015000D02*
X141605000Y-119253000D01*
X146050000Y-119253000D02*
X146685000Y-119253000D01*
X148082000Y-119253000D02*
X148590000Y-119253000D01*
X148590000Y-119253000D02*
X148590000Y-120396000D01*
X148082000Y-119253000D02*
G75*
G03X148082000Y-119253000I-127000J0D01*
G01*
X146050000Y-120396000D02*
X146050000Y-119253000D01*
X146685000Y-119253000D02*
X146685000Y-118491000D01*
X146685000Y-118491000D02*
X147828000Y-119253000D01*
X146685000Y-120015000D02*
X146685000Y-119253000D01*
X147828000Y-119253000D02*
X146685000Y-120015000D01*
X149245304Y-115920836D02*
X149245304Y-116682836D01*
X148610304Y-115920836D02*
X149245304Y-115920836D01*
X151150304Y-115920836D02*
X151150304Y-114777836D01*
X148610304Y-114777836D02*
X148610304Y-115920836D01*
X149245304Y-116682836D02*
X150388304Y-115920836D01*
X149245304Y-115158836D02*
X149245304Y-115920836D01*
X150642304Y-115920836D02*
X151150304Y-115920836D01*
X150388304Y-115920836D02*
X149245304Y-115158836D01*
X150642304Y-115920836D02*
G75*
G03X150642304Y-115920836I-127000J0D01*
G01*
X144165304Y-116682836D02*
X145308304Y-115920836D01*
X145562304Y-115920836D02*
X146070304Y-115920836D01*
X145308304Y-115920836D02*
X144165304Y-115158836D01*
X144165304Y-115158836D02*
X144165304Y-115920836D01*
X144165304Y-115920836D02*
X144165304Y-116682836D01*
X143530304Y-115920836D02*
X144165304Y-115920836D01*
X145562304Y-115920836D02*
G75*
G03X145562304Y-115920836I-127000J0D01*
G01*
X143530304Y-114777836D02*
X143530304Y-115920836D01*
X146070304Y-115920836D02*
X146070304Y-114777836D01*
X139085304Y-115158836D02*
X139085304Y-115920836D01*
X138450304Y-115920836D02*
X139085304Y-115920836D01*
X140482304Y-115920836D02*
X140990304Y-115920836D01*
X140482304Y-115920836D02*
G75*
G03X140482304Y-115920836I-127000J0D01*
G01*
X138450304Y-114777836D02*
X138450304Y-115920836D01*
X139085304Y-116682836D02*
X140228304Y-115920836D01*
X139085304Y-115920836D02*
X139085304Y-116682836D01*
X140228304Y-115920836D02*
X139085304Y-115158836D01*
X140990304Y-115920836D02*
X140990304Y-114777836D01*
X150939500Y-119507000D02*
X151447500Y-119507000D01*
X151193500Y-119126000D02*
X151193500Y-118364000D01*
X151828500Y-119126000D02*
X150558500Y-119126000D01*
X151257000Y-119888000D02*
X151130000Y-119888000D01*
X123626000Y-39860000D02*
X123626000Y-44940000D01*
X123626000Y-44940000D02*
X128706000Y-44940000D01*
X128706000Y-44940000D02*
X129341000Y-44305000D01*
X129341000Y-44305000D02*
X129341000Y-40495000D01*
X129341000Y-40495000D02*
X128706000Y-39860000D01*
X128706000Y-39860000D02*
X123626000Y-39860000D01*
X167132000Y-39860000D02*
X172212000Y-39860000D01*
X166497000Y-40495000D02*
X167132000Y-39860000D01*
X166497000Y-44305000D02*
X166497000Y-40495000D01*
X167132000Y-44940000D02*
X166497000Y-44305000D01*
X172212000Y-44940000D02*
X167132000Y-44940000D01*
X172212000Y-39860000D02*
X172212000Y-44940000D01*
X159126000Y-71882000D02*
X159634000Y-71882000D01*
X166746000Y-71882000D02*
X166238000Y-71882000D01*
X166238000Y-71882000D02*
X166238000Y-70866000D01*
X166238000Y-70866000D02*
X159634000Y-70866000D01*
X159634000Y-70866000D02*
X159634000Y-72898000D01*
X159634000Y-72898000D02*
X166238000Y-72898000D01*
X166238000Y-72898000D02*
X166238000Y-71882000D01*
X159634000Y-71374000D02*
X160142000Y-70866000D01*
D14*
X142736000Y-100900000D02*
X142736000Y-102670000D01*
X142736000Y-102670000D02*
X153136000Y-102670000D01*
X153136000Y-102670000D02*
X153136000Y-97130000D01*
X153136000Y-97130000D02*
X142736000Y-97130000D01*
X142736000Y-97130000D02*
X142736000Y-98900000D01*
X142736000Y-98900000D02*
G75*
G02X142736000Y-100900000I0J-1000000D01*
G01*
D12*
X165328940Y-139000290D02*
X165582940Y-139254290D01*
X165074940Y-140016290D02*
X165582940Y-139254290D01*
X165582940Y-139254290D02*
X165836940Y-139508290D01*
X165836940Y-139000290D02*
X165328940Y-139000290D01*
X165836940Y-139508290D02*
X165836940Y-139000290D01*
X165735000Y-143129000D02*
X165481000Y-143383000D01*
X165735000Y-143637000D02*
X165735000Y-143129000D01*
X165227000Y-143637000D02*
X165735000Y-143637000D01*
X165481000Y-143383000D02*
X165227000Y-143637000D01*
X164719000Y-142875000D02*
X165481000Y-143383000D01*
D15*
X168910000Y-148082000D02*
X166370000Y-148082000D01*
X168910000Y-132842000D02*
X166370000Y-132842000D01*
X168910000Y-148082000D02*
X168910000Y-132842000D01*
X166370000Y-132842000D02*
X166370000Y-148082000D01*
D14*
X127436462Y-120140000D02*
G75*
G03X125891170Y-125690000I-462J-2990000D01*
G01*
X127435538Y-120140000D02*
G75*
G02X128980830Y-125690000I462J-2990000D01*
G01*
X129936000Y-123130000D02*
G75*
G03X129936000Y-123130000I-2500000J0D01*
G01*
X125891000Y-125690000D02*
X128981000Y-125690000D01*
X158983000Y-125690000D02*
X162073000Y-125690000D01*
X163028000Y-123130000D02*
G75*
G03X163028000Y-123130000I-2500000J0D01*
G01*
X160527538Y-120140000D02*
G75*
G02X162072830Y-125690000I462J-2990000D01*
G01*
X160528462Y-120140000D02*
G75*
G03X158983170Y-125690000I-462J-2990000D01*
G01*
X161334000Y-43728000D02*
X154214000Y-43728000D01*
X161334000Y-41108000D02*
X154214000Y-41108000D01*
X161334000Y-43728000D02*
X161334000Y-41108000D01*
X154214000Y-43728000D02*
X154214000Y-41108000D01*
X139274440Y-58891357D02*
G75*
G03X139274236Y-56932000I-3088440J979357D01*
G01*
X139274440Y-58891357D02*
G75*
G02X133097764Y-58892000I-3088440J979357D01*
G01*
X139274440Y-56932643D02*
G75*
G03X133097764Y-56932000I-3088440J-979357D01*
G01*
X133336000Y-57262000D02*
X133336000Y-58562000D01*
X132736000Y-57912000D02*
X133936000Y-57912000D01*
X139387000Y-57444000D02*
X139387000Y-58380000D01*
X139347000Y-57236000D02*
X139347000Y-58588000D01*
X139307000Y-57078000D02*
X139307000Y-58746000D01*
X139267000Y-56946000D02*
X139267000Y-58878000D01*
X139227000Y-56831000D02*
X139227000Y-58993000D01*
X139187000Y-56728000D02*
X139187000Y-59096000D01*
X139147000Y-56634000D02*
X139147000Y-59190000D01*
X139107000Y-56548000D02*
X139107000Y-59276000D01*
X139067000Y-56467000D02*
X139067000Y-59357000D01*
X139027000Y-56392000D02*
X139027000Y-59432000D01*
X138987000Y-56321000D02*
X138987000Y-59503000D01*
X138947000Y-56254000D02*
X138947000Y-59570000D01*
X138907000Y-56191000D02*
X138907000Y-59633000D01*
X138867000Y-56131000D02*
X138867000Y-59693000D01*
X138827000Y-56073000D02*
X138827000Y-59751000D01*
X138787000Y-56018000D02*
X138787000Y-59806000D01*
X138747000Y-55966000D02*
X138747000Y-59858000D01*
X138707000Y-55915000D02*
X138707000Y-59909000D01*
X138667000Y-55867000D02*
X138667000Y-59957000D01*
X138627000Y-55820000D02*
X138627000Y-60004000D01*
X138587000Y-55775000D02*
X138587000Y-60049000D01*
X138547000Y-55732000D02*
X138547000Y-60092000D01*
X138507000Y-55690000D02*
X138507000Y-60134000D01*
X138467000Y-55650000D02*
X138467000Y-60174000D01*
X138427000Y-55611000D02*
X138427000Y-60213000D01*
X138387000Y-58892000D02*
X138387000Y-60251000D01*
X138387000Y-55573000D02*
X138387000Y-56932000D01*
X138347000Y-58892000D02*
X138347000Y-60287000D01*
X138347000Y-55537000D02*
X138347000Y-56932000D01*
X138307000Y-58892000D02*
X138307000Y-60323000D01*
X138307000Y-55501000D02*
X138307000Y-56932000D01*
X138267000Y-58892000D02*
X138267000Y-60357000D01*
X138267000Y-55467000D02*
X138267000Y-56932000D01*
X138227000Y-58892000D02*
X138227000Y-60390000D01*
X138227000Y-55434000D02*
X138227000Y-56932000D01*
X138187000Y-58892000D02*
X138187000Y-60422000D01*
X138187000Y-55402000D02*
X138187000Y-56932000D01*
X138147000Y-58892000D02*
X138147000Y-60452000D01*
X138147000Y-55372000D02*
X138147000Y-56932000D01*
X138107000Y-58892000D02*
X138107000Y-60482000D01*
X138107000Y-55342000D02*
X138107000Y-56932000D01*
X138067000Y-58892000D02*
X138067000Y-60511000D01*
X138067000Y-55313000D02*
X138067000Y-56932000D01*
X138027000Y-58892000D02*
X138027000Y-60539000D01*
X138027000Y-55285000D02*
X138027000Y-56932000D01*
X137987000Y-58892000D02*
X137987000Y-60566000D01*
X137987000Y-55258000D02*
X137987000Y-56932000D01*
X137947000Y-58892000D02*
X137947000Y-60593000D01*
X137947000Y-55231000D02*
X137947000Y-56932000D01*
X137907000Y-58892000D02*
X137907000Y-60618000D01*
X137907000Y-55206000D02*
X137907000Y-56932000D01*
X137867000Y-58892000D02*
X137867000Y-60643000D01*
X137867000Y-55181000D02*
X137867000Y-56932000D01*
X137827000Y-58892000D02*
X137827000Y-60667000D01*
X137827000Y-55157000D02*
X137827000Y-56932000D01*
X137787000Y-58892000D02*
X137787000Y-60690000D01*
X137787000Y-55134000D02*
X137787000Y-56932000D01*
X137747000Y-58892000D02*
X137747000Y-60712000D01*
X137747000Y-55112000D02*
X137747000Y-56932000D01*
X137707000Y-58892000D02*
X137707000Y-60734000D01*
X137707000Y-55090000D02*
X137707000Y-56932000D01*
X137667000Y-58892000D02*
X137667000Y-60755000D01*
X137667000Y-55069000D02*
X137667000Y-56932000D01*
X137627000Y-58892000D02*
X137627000Y-60775000D01*
X137627000Y-55049000D02*
X137627000Y-56932000D01*
X137587000Y-58892000D02*
X137587000Y-60794000D01*
X137587000Y-55030000D02*
X137587000Y-56932000D01*
X137547000Y-58892000D02*
X137547000Y-60813000D01*
X137547000Y-55011000D02*
X137547000Y-56932000D01*
X137507000Y-58892000D02*
X137507000Y-60831000D01*
X137507000Y-54993000D02*
X137507000Y-56932000D01*
X137467000Y-58892000D02*
X137467000Y-60849000D01*
X137467000Y-54975000D02*
X137467000Y-56932000D01*
X137427000Y-58892000D02*
X137427000Y-60866000D01*
X137427000Y-54958000D02*
X137427000Y-56932000D01*
X137387000Y-58892000D02*
X137387000Y-60882000D01*
X137387000Y-54942000D02*
X137387000Y-56932000D01*
X137347000Y-58892000D02*
X137347000Y-60898000D01*
X137347000Y-54926000D02*
X137347000Y-56932000D01*
X137307000Y-58892000D02*
X137307000Y-60913000D01*
X137307000Y-54911000D02*
X137307000Y-56932000D01*
X137267000Y-58892000D02*
X137267000Y-60927000D01*
X137267000Y-54897000D02*
X137267000Y-56932000D01*
X137227000Y-58892000D02*
X137227000Y-60941000D01*
X137227000Y-54883000D02*
X137227000Y-56932000D01*
X137187000Y-58892000D02*
X137187000Y-60954000D01*
X137187000Y-54870000D02*
X137187000Y-56932000D01*
X137147000Y-58892000D02*
X137147000Y-60967000D01*
X137147000Y-54857000D02*
X137147000Y-56932000D01*
X137107000Y-58892000D02*
X137107000Y-60979000D01*
X137107000Y-54845000D02*
X137107000Y-56932000D01*
X137067000Y-58892000D02*
X137067000Y-60991000D01*
X137067000Y-54833000D02*
X137067000Y-56932000D01*
X137027000Y-58892000D02*
X137027000Y-61002000D01*
X137027000Y-54822000D02*
X137027000Y-56932000D01*
X136987000Y-58892000D02*
X136987000Y-61012000D01*
X136987000Y-54812000D02*
X136987000Y-56932000D01*
X136947000Y-58892000D02*
X136947000Y-61022000D01*
X136947000Y-54802000D02*
X136947000Y-56932000D01*
X136907000Y-58892000D02*
X136907000Y-61031000D01*
X136907000Y-54793000D02*
X136907000Y-56932000D01*
X136866000Y-58892000D02*
X136866000Y-61040000D01*
X136866000Y-54784000D02*
X136866000Y-56932000D01*
X136826000Y-58892000D02*
X136826000Y-61049000D01*
X136826000Y-54775000D02*
X136826000Y-56932000D01*
X136786000Y-58892000D02*
X136786000Y-61056000D01*
X136786000Y-54768000D02*
X136786000Y-56932000D01*
X136746000Y-58892000D02*
X136746000Y-61064000D01*
X136746000Y-54760000D02*
X136746000Y-56932000D01*
X136706000Y-58892000D02*
X136706000Y-61070000D01*
X136706000Y-54754000D02*
X136706000Y-56932000D01*
X136666000Y-58892000D02*
X136666000Y-61077000D01*
X136666000Y-54747000D02*
X136666000Y-56932000D01*
X136626000Y-58892000D02*
X136626000Y-61082000D01*
X136626000Y-54742000D02*
X136626000Y-56932000D01*
X136586000Y-58892000D02*
X136586000Y-61088000D01*
X136586000Y-54736000D02*
X136586000Y-56932000D01*
X136546000Y-58892000D02*
X136546000Y-61092000D01*
X136546000Y-54732000D02*
X136546000Y-56932000D01*
X136506000Y-58892000D02*
X136506000Y-61097000D01*
X136506000Y-54727000D02*
X136506000Y-56932000D01*
X136466000Y-58892000D02*
X136466000Y-61100000D01*
X136466000Y-54724000D02*
X136466000Y-56932000D01*
X136426000Y-54720000D02*
X136426000Y-61104000D01*
X136386000Y-54718000D02*
X136386000Y-61106000D01*
X136346000Y-54715000D02*
X136346000Y-61109000D01*
X136306000Y-54714000D02*
X136306000Y-61110000D01*
X136266000Y-54712000D02*
X136266000Y-61112000D01*
X136226000Y-54712000D02*
X136226000Y-61112000D01*
X136186000Y-54712000D02*
X136186000Y-61112000D01*
X149186000Y-50140000D02*
X149186000Y-56540000D01*
X149226000Y-50140000D02*
X149226000Y-56540000D01*
X149266000Y-50140000D02*
X149266000Y-56540000D01*
X149306000Y-50142000D02*
X149306000Y-56538000D01*
X149346000Y-50143000D02*
X149346000Y-56537000D01*
X149386000Y-50146000D02*
X149386000Y-56534000D01*
X149426000Y-50148000D02*
X149426000Y-56532000D01*
X149466000Y-50152000D02*
X149466000Y-52360000D01*
X149466000Y-54320000D02*
X149466000Y-56528000D01*
X149506000Y-50155000D02*
X149506000Y-52360000D01*
X149506000Y-54320000D02*
X149506000Y-56525000D01*
X149546000Y-50160000D02*
X149546000Y-52360000D01*
X149546000Y-54320000D02*
X149546000Y-56520000D01*
X149586000Y-50164000D02*
X149586000Y-52360000D01*
X149586000Y-54320000D02*
X149586000Y-56516000D01*
X149626000Y-50170000D02*
X149626000Y-52360000D01*
X149626000Y-54320000D02*
X149626000Y-56510000D01*
X149666000Y-50175000D02*
X149666000Y-52360000D01*
X149666000Y-54320000D02*
X149666000Y-56505000D01*
X149706000Y-50182000D02*
X149706000Y-52360000D01*
X149706000Y-54320000D02*
X149706000Y-56498000D01*
X149746000Y-50188000D02*
X149746000Y-52360000D01*
X149746000Y-54320000D02*
X149746000Y-56492000D01*
X149786000Y-50196000D02*
X149786000Y-52360000D01*
X149786000Y-54320000D02*
X149786000Y-56484000D01*
X149826000Y-50203000D02*
X149826000Y-52360000D01*
X149826000Y-54320000D02*
X149826000Y-56477000D01*
X149866000Y-50212000D02*
X149866000Y-52360000D01*
X149866000Y-54320000D02*
X149866000Y-56468000D01*
X149907000Y-50221000D02*
X149907000Y-52360000D01*
X149907000Y-54320000D02*
X149907000Y-56459000D01*
X149947000Y-50230000D02*
X149947000Y-52360000D01*
X149947000Y-54320000D02*
X149947000Y-56450000D01*
X149987000Y-50240000D02*
X149987000Y-52360000D01*
X149987000Y-54320000D02*
X149987000Y-56440000D01*
X150027000Y-50250000D02*
X150027000Y-52360000D01*
X150027000Y-54320000D02*
X150027000Y-56430000D01*
X150067000Y-50261000D02*
X150067000Y-52360000D01*
X150067000Y-54320000D02*
X150067000Y-56419000D01*
X150107000Y-50273000D02*
X150107000Y-52360000D01*
X150107000Y-54320000D02*
X150107000Y-56407000D01*
X150147000Y-50285000D02*
X150147000Y-52360000D01*
X150147000Y-54320000D02*
X150147000Y-56395000D01*
X150187000Y-50298000D02*
X150187000Y-52360000D01*
X150187000Y-54320000D02*
X150187000Y-56382000D01*
X150227000Y-50311000D02*
X150227000Y-52360000D01*
X150227000Y-54320000D02*
X150227000Y-56369000D01*
X150267000Y-50325000D02*
X150267000Y-52360000D01*
X150267000Y-54320000D02*
X150267000Y-56355000D01*
X150307000Y-50339000D02*
X150307000Y-52360000D01*
X150307000Y-54320000D02*
X150307000Y-56341000D01*
X150347000Y-50354000D02*
X150347000Y-52360000D01*
X150347000Y-54320000D02*
X150347000Y-56326000D01*
X150387000Y-50370000D02*
X150387000Y-52360000D01*
X150387000Y-54320000D02*
X150387000Y-56310000D01*
X150427000Y-50386000D02*
X150427000Y-52360000D01*
X150427000Y-54320000D02*
X150427000Y-56294000D01*
X150467000Y-50403000D02*
X150467000Y-52360000D01*
X150467000Y-54320000D02*
X150467000Y-56277000D01*
X150507000Y-50421000D02*
X150507000Y-52360000D01*
X150507000Y-54320000D02*
X150507000Y-56259000D01*
X150547000Y-50439000D02*
X150547000Y-52360000D01*
X150547000Y-54320000D02*
X150547000Y-56241000D01*
X150587000Y-50458000D02*
X150587000Y-52360000D01*
X150587000Y-54320000D02*
X150587000Y-56222000D01*
X150627000Y-50477000D02*
X150627000Y-52360000D01*
X150627000Y-54320000D02*
X150627000Y-56203000D01*
X150667000Y-50497000D02*
X150667000Y-52360000D01*
X150667000Y-54320000D02*
X150667000Y-56183000D01*
X150707000Y-50518000D02*
X150707000Y-52360000D01*
X150707000Y-54320000D02*
X150707000Y-56162000D01*
X150747000Y-50540000D02*
X150747000Y-52360000D01*
X150747000Y-54320000D02*
X150747000Y-56140000D01*
X150787000Y-50562000D02*
X150787000Y-52360000D01*
X150787000Y-54320000D02*
X150787000Y-56118000D01*
X150827000Y-50585000D02*
X150827000Y-52360000D01*
X150827000Y-54320000D02*
X150827000Y-56095000D01*
X150867000Y-50609000D02*
X150867000Y-52360000D01*
X150867000Y-54320000D02*
X150867000Y-56071000D01*
X150907000Y-50634000D02*
X150907000Y-52360000D01*
X150907000Y-54320000D02*
X150907000Y-56046000D01*
X150947000Y-50659000D02*
X150947000Y-52360000D01*
X150947000Y-54320000D02*
X150947000Y-56021000D01*
X150987000Y-50686000D02*
X150987000Y-52360000D01*
X150987000Y-54320000D02*
X150987000Y-55994000D01*
X151027000Y-50713000D02*
X151027000Y-52360000D01*
X151027000Y-54320000D02*
X151027000Y-55967000D01*
X151067000Y-50741000D02*
X151067000Y-52360000D01*
X151067000Y-54320000D02*
X151067000Y-55939000D01*
X151107000Y-50770000D02*
X151107000Y-52360000D01*
X151107000Y-54320000D02*
X151107000Y-55910000D01*
X151147000Y-50800000D02*
X151147000Y-52360000D01*
X151147000Y-54320000D02*
X151147000Y-55880000D01*
X151187000Y-50830000D02*
X151187000Y-52360000D01*
X151187000Y-54320000D02*
X151187000Y-55850000D01*
X151227000Y-50862000D02*
X151227000Y-52360000D01*
X151227000Y-54320000D02*
X151227000Y-55818000D01*
X151267000Y-50895000D02*
X151267000Y-52360000D01*
X151267000Y-54320000D02*
X151267000Y-55785000D01*
X151307000Y-50929000D02*
X151307000Y-52360000D01*
X151307000Y-54320000D02*
X151307000Y-55751000D01*
X151347000Y-50965000D02*
X151347000Y-52360000D01*
X151347000Y-54320000D02*
X151347000Y-55715000D01*
X151387000Y-51001000D02*
X151387000Y-52360000D01*
X151387000Y-54320000D02*
X151387000Y-55679000D01*
X151427000Y-51039000D02*
X151427000Y-55641000D01*
X151467000Y-51078000D02*
X151467000Y-55602000D01*
X151507000Y-51118000D02*
X151507000Y-55562000D01*
X151547000Y-51160000D02*
X151547000Y-55520000D01*
X151587000Y-51203000D02*
X151587000Y-55477000D01*
X151627000Y-51248000D02*
X151627000Y-55432000D01*
X151667000Y-51295000D02*
X151667000Y-55385000D01*
X151707000Y-51343000D02*
X151707000Y-55337000D01*
X151747000Y-51394000D02*
X151747000Y-55286000D01*
X151787000Y-51446000D02*
X151787000Y-55234000D01*
X151827000Y-51501000D02*
X151827000Y-55179000D01*
X151867000Y-51559000D02*
X151867000Y-55121000D01*
X151907000Y-51619000D02*
X151907000Y-55061000D01*
X151947000Y-51682000D02*
X151947000Y-54998000D01*
X151987000Y-51749000D02*
X151987000Y-54931000D01*
X152027000Y-51820000D02*
X152027000Y-54860000D01*
X152067000Y-51895000D02*
X152067000Y-54785000D01*
X152107000Y-51976000D02*
X152107000Y-54704000D01*
X152147000Y-52062000D02*
X152147000Y-54618000D01*
X152187000Y-52156000D02*
X152187000Y-54524000D01*
X152227000Y-52259000D02*
X152227000Y-54421000D01*
X152267000Y-52374000D02*
X152267000Y-54306000D01*
X152307000Y-52506000D02*
X152307000Y-54174000D01*
X152347000Y-52664000D02*
X152347000Y-54016000D01*
X152387000Y-52872000D02*
X152387000Y-53808000D01*
X145736000Y-53340000D02*
X146936000Y-53340000D01*
X146336000Y-52690000D02*
X146336000Y-53990000D01*
X152274440Y-52360643D02*
G75*
G03X146097764Y-52360000I-3088440J-979357D01*
G01*
X152274440Y-54319357D02*
G75*
G02X146097764Y-54320000I-3088440J979357D01*
G01*
X152274440Y-54319357D02*
G75*
G03X152274236Y-52360000I-3088440J979357D01*
G01*
X139274440Y-49747357D02*
G75*
G03X139274236Y-47788000I-3088440J979357D01*
G01*
X139274440Y-49747357D02*
G75*
G02X133097764Y-49748000I-3088440J979357D01*
G01*
X139274440Y-47788643D02*
G75*
G03X133097764Y-47788000I-3088440J-979357D01*
G01*
X133336000Y-48118000D02*
X133336000Y-49418000D01*
X132736000Y-48768000D02*
X133936000Y-48768000D01*
X139387000Y-48300000D02*
X139387000Y-49236000D01*
X139347000Y-48092000D02*
X139347000Y-49444000D01*
X139307000Y-47934000D02*
X139307000Y-49602000D01*
X139267000Y-47802000D02*
X139267000Y-49734000D01*
X139227000Y-47687000D02*
X139227000Y-49849000D01*
X139187000Y-47584000D02*
X139187000Y-49952000D01*
X139147000Y-47490000D02*
X139147000Y-50046000D01*
X139107000Y-47404000D02*
X139107000Y-50132000D01*
X139067000Y-47323000D02*
X139067000Y-50213000D01*
X139027000Y-47248000D02*
X139027000Y-50288000D01*
X138987000Y-47177000D02*
X138987000Y-50359000D01*
X138947000Y-47110000D02*
X138947000Y-50426000D01*
X138907000Y-47047000D02*
X138907000Y-50489000D01*
X138867000Y-46987000D02*
X138867000Y-50549000D01*
X138827000Y-46929000D02*
X138827000Y-50607000D01*
X138787000Y-46874000D02*
X138787000Y-50662000D01*
X138747000Y-46822000D02*
X138747000Y-50714000D01*
X138707000Y-46771000D02*
X138707000Y-50765000D01*
X138667000Y-46723000D02*
X138667000Y-50813000D01*
X138627000Y-46676000D02*
X138627000Y-50860000D01*
X138587000Y-46631000D02*
X138587000Y-50905000D01*
X138547000Y-46588000D02*
X138547000Y-50948000D01*
X138507000Y-46546000D02*
X138507000Y-50990000D01*
X138467000Y-46506000D02*
X138467000Y-51030000D01*
X138427000Y-46467000D02*
X138427000Y-51069000D01*
X138387000Y-49748000D02*
X138387000Y-51107000D01*
X138387000Y-46429000D02*
X138387000Y-47788000D01*
X138347000Y-49748000D02*
X138347000Y-51143000D01*
X138347000Y-46393000D02*
X138347000Y-47788000D01*
X138307000Y-49748000D02*
X138307000Y-51179000D01*
X138307000Y-46357000D02*
X138307000Y-47788000D01*
X138267000Y-49748000D02*
X138267000Y-51213000D01*
X138267000Y-46323000D02*
X138267000Y-47788000D01*
X138227000Y-49748000D02*
X138227000Y-51246000D01*
X138227000Y-46290000D02*
X138227000Y-47788000D01*
X138187000Y-49748000D02*
X138187000Y-51278000D01*
X138187000Y-46258000D02*
X138187000Y-47788000D01*
X138147000Y-49748000D02*
X138147000Y-51308000D01*
X138147000Y-46228000D02*
X138147000Y-47788000D01*
X138107000Y-49748000D02*
X138107000Y-51338000D01*
X138107000Y-46198000D02*
X138107000Y-47788000D01*
X138067000Y-49748000D02*
X138067000Y-51367000D01*
X138067000Y-46169000D02*
X138067000Y-47788000D01*
X138027000Y-49748000D02*
X138027000Y-51395000D01*
X138027000Y-46141000D02*
X138027000Y-47788000D01*
X137987000Y-49748000D02*
X137987000Y-51422000D01*
X137987000Y-46114000D02*
X137987000Y-47788000D01*
X137947000Y-49748000D02*
X137947000Y-51449000D01*
X137947000Y-46087000D02*
X137947000Y-47788000D01*
X137907000Y-49748000D02*
X137907000Y-51474000D01*
X137907000Y-46062000D02*
X137907000Y-47788000D01*
X137867000Y-49748000D02*
X137867000Y-51499000D01*
X137867000Y-46037000D02*
X137867000Y-47788000D01*
X137827000Y-49748000D02*
X137827000Y-51523000D01*
X137827000Y-46013000D02*
X137827000Y-47788000D01*
X137787000Y-49748000D02*
X137787000Y-51546000D01*
X137787000Y-45990000D02*
X137787000Y-47788000D01*
X137747000Y-49748000D02*
X137747000Y-51568000D01*
X137747000Y-45968000D02*
X137747000Y-47788000D01*
X137707000Y-49748000D02*
X137707000Y-51590000D01*
X137707000Y-45946000D02*
X137707000Y-47788000D01*
X137667000Y-49748000D02*
X137667000Y-51611000D01*
X137667000Y-45925000D02*
X137667000Y-47788000D01*
X137627000Y-49748000D02*
X137627000Y-51631000D01*
X137627000Y-45905000D02*
X137627000Y-47788000D01*
X137587000Y-49748000D02*
X137587000Y-51650000D01*
X137587000Y-45886000D02*
X137587000Y-47788000D01*
X137547000Y-49748000D02*
X137547000Y-51669000D01*
X137547000Y-45867000D02*
X137547000Y-47788000D01*
X137507000Y-49748000D02*
X137507000Y-51687000D01*
X137507000Y-45849000D02*
X137507000Y-47788000D01*
X137467000Y-49748000D02*
X137467000Y-51705000D01*
X137467000Y-45831000D02*
X137467000Y-47788000D01*
X137427000Y-49748000D02*
X137427000Y-51722000D01*
X137427000Y-45814000D02*
X137427000Y-47788000D01*
X137387000Y-49748000D02*
X137387000Y-51738000D01*
X137387000Y-45798000D02*
X137387000Y-47788000D01*
X137347000Y-49748000D02*
X137347000Y-51754000D01*
X137347000Y-45782000D02*
X137347000Y-47788000D01*
X137307000Y-49748000D02*
X137307000Y-51769000D01*
X137307000Y-45767000D02*
X137307000Y-47788000D01*
X137267000Y-49748000D02*
X137267000Y-51783000D01*
X137267000Y-45753000D02*
X137267000Y-47788000D01*
X137227000Y-49748000D02*
X137227000Y-51797000D01*
X137227000Y-45739000D02*
X137227000Y-47788000D01*
X137187000Y-49748000D02*
X137187000Y-51810000D01*
X137187000Y-45726000D02*
X137187000Y-47788000D01*
X137147000Y-49748000D02*
X137147000Y-51823000D01*
X137147000Y-45713000D02*
X137147000Y-47788000D01*
X137107000Y-49748000D02*
X137107000Y-51835000D01*
X137107000Y-45701000D02*
X137107000Y-47788000D01*
X137067000Y-49748000D02*
X137067000Y-51847000D01*
X137067000Y-45689000D02*
X137067000Y-47788000D01*
X137027000Y-49748000D02*
X137027000Y-51858000D01*
X137027000Y-45678000D02*
X137027000Y-47788000D01*
X136987000Y-49748000D02*
X136987000Y-51868000D01*
X136987000Y-45668000D02*
X136987000Y-47788000D01*
X136947000Y-49748000D02*
X136947000Y-51878000D01*
X136947000Y-45658000D02*
X136947000Y-47788000D01*
X136907000Y-49748000D02*
X136907000Y-51887000D01*
X136907000Y-45649000D02*
X136907000Y-47788000D01*
X136866000Y-49748000D02*
X136866000Y-51896000D01*
X136866000Y-45640000D02*
X136866000Y-47788000D01*
X136826000Y-49748000D02*
X136826000Y-51905000D01*
X136826000Y-45631000D02*
X136826000Y-47788000D01*
X136786000Y-49748000D02*
X136786000Y-51912000D01*
X136786000Y-45624000D02*
X136786000Y-47788000D01*
X136746000Y-49748000D02*
X136746000Y-51920000D01*
X136746000Y-45616000D02*
X136746000Y-47788000D01*
X136706000Y-49748000D02*
X136706000Y-51926000D01*
X136706000Y-45610000D02*
X136706000Y-47788000D01*
X136666000Y-49748000D02*
X136666000Y-51933000D01*
X136666000Y-45603000D02*
X136666000Y-47788000D01*
X136626000Y-49748000D02*
X136626000Y-51938000D01*
X136626000Y-45598000D02*
X136626000Y-47788000D01*
X136586000Y-49748000D02*
X136586000Y-51944000D01*
X136586000Y-45592000D02*
X136586000Y-47788000D01*
X136546000Y-49748000D02*
X136546000Y-51948000D01*
X136546000Y-45588000D02*
X136546000Y-47788000D01*
X136506000Y-49748000D02*
X136506000Y-51953000D01*
X136506000Y-45583000D02*
X136506000Y-47788000D01*
X136466000Y-49748000D02*
X136466000Y-51956000D01*
X136466000Y-45580000D02*
X136466000Y-47788000D01*
X136426000Y-45576000D02*
X136426000Y-51960000D01*
X136386000Y-45574000D02*
X136386000Y-51962000D01*
X136346000Y-45571000D02*
X136346000Y-51965000D01*
X136306000Y-45570000D02*
X136306000Y-51966000D01*
X136266000Y-45568000D02*
X136266000Y-51968000D01*
X136226000Y-45568000D02*
X136226000Y-51968000D01*
X136186000Y-45568000D02*
X136186000Y-51968000D01*
X149186000Y-63348000D02*
X149186000Y-69748000D01*
X149226000Y-63348000D02*
X149226000Y-69748000D01*
X149266000Y-63348000D02*
X149266000Y-69748000D01*
X149306000Y-63350000D02*
X149306000Y-69746000D01*
X149346000Y-63351000D02*
X149346000Y-69745000D01*
X149386000Y-63354000D02*
X149386000Y-69742000D01*
X149426000Y-63356000D02*
X149426000Y-69740000D01*
X149466000Y-63360000D02*
X149466000Y-65568000D01*
X149466000Y-67528000D02*
X149466000Y-69736000D01*
X149506000Y-63363000D02*
X149506000Y-65568000D01*
X149506000Y-67528000D02*
X149506000Y-69733000D01*
X149546000Y-63368000D02*
X149546000Y-65568000D01*
X149546000Y-67528000D02*
X149546000Y-69728000D01*
X149586000Y-63372000D02*
X149586000Y-65568000D01*
X149586000Y-67528000D02*
X149586000Y-69724000D01*
X149626000Y-63378000D02*
X149626000Y-65568000D01*
X149626000Y-67528000D02*
X149626000Y-69718000D01*
X149666000Y-63383000D02*
X149666000Y-65568000D01*
X149666000Y-67528000D02*
X149666000Y-69713000D01*
X149706000Y-63390000D02*
X149706000Y-65568000D01*
X149706000Y-67528000D02*
X149706000Y-69706000D01*
X149746000Y-63396000D02*
X149746000Y-65568000D01*
X149746000Y-67528000D02*
X149746000Y-69700000D01*
X149786000Y-63404000D02*
X149786000Y-65568000D01*
X149786000Y-67528000D02*
X149786000Y-69692000D01*
X149826000Y-63411000D02*
X149826000Y-65568000D01*
X149826000Y-67528000D02*
X149826000Y-69685000D01*
X149866000Y-63420000D02*
X149866000Y-65568000D01*
X149866000Y-67528000D02*
X149866000Y-69676000D01*
X149907000Y-63429000D02*
X149907000Y-65568000D01*
X149907000Y-67528000D02*
X149907000Y-69667000D01*
X149947000Y-63438000D02*
X149947000Y-65568000D01*
X149947000Y-67528000D02*
X149947000Y-69658000D01*
X149987000Y-63448000D02*
X149987000Y-65568000D01*
X149987000Y-67528000D02*
X149987000Y-69648000D01*
X150027000Y-63458000D02*
X150027000Y-65568000D01*
X150027000Y-67528000D02*
X150027000Y-69638000D01*
X150067000Y-63469000D02*
X150067000Y-65568000D01*
X150067000Y-67528000D02*
X150067000Y-69627000D01*
X150107000Y-63481000D02*
X150107000Y-65568000D01*
X150107000Y-67528000D02*
X150107000Y-69615000D01*
X150147000Y-63493000D02*
X150147000Y-65568000D01*
X150147000Y-67528000D02*
X150147000Y-69603000D01*
X150187000Y-63506000D02*
X150187000Y-65568000D01*
X150187000Y-67528000D02*
X150187000Y-69590000D01*
X150227000Y-63519000D02*
X150227000Y-65568000D01*
X150227000Y-67528000D02*
X150227000Y-69577000D01*
X150267000Y-63533000D02*
X150267000Y-65568000D01*
X150267000Y-67528000D02*
X150267000Y-69563000D01*
X150307000Y-63547000D02*
X150307000Y-65568000D01*
X150307000Y-67528000D02*
X150307000Y-69549000D01*
X150347000Y-63562000D02*
X150347000Y-65568000D01*
X150347000Y-67528000D02*
X150347000Y-69534000D01*
X150387000Y-63578000D02*
X150387000Y-65568000D01*
X150387000Y-67528000D02*
X150387000Y-69518000D01*
X150427000Y-63594000D02*
X150427000Y-65568000D01*
X150427000Y-67528000D02*
X150427000Y-69502000D01*
X150467000Y-63611000D02*
X150467000Y-65568000D01*
X150467000Y-67528000D02*
X150467000Y-69485000D01*
X150507000Y-63629000D02*
X150507000Y-65568000D01*
X150507000Y-67528000D02*
X150507000Y-69467000D01*
X150547000Y-63647000D02*
X150547000Y-65568000D01*
X150547000Y-67528000D02*
X150547000Y-69449000D01*
X150587000Y-63666000D02*
X150587000Y-65568000D01*
X150587000Y-67528000D02*
X150587000Y-69430000D01*
X150627000Y-63685000D02*
X150627000Y-65568000D01*
X150627000Y-67528000D02*
X150627000Y-69411000D01*
X150667000Y-63705000D02*
X150667000Y-65568000D01*
X150667000Y-67528000D02*
X150667000Y-69391000D01*
X150707000Y-63726000D02*
X150707000Y-65568000D01*
X150707000Y-67528000D02*
X150707000Y-69370000D01*
X150747000Y-63748000D02*
X150747000Y-65568000D01*
X150747000Y-67528000D02*
X150747000Y-69348000D01*
X150787000Y-63770000D02*
X150787000Y-65568000D01*
X150787000Y-67528000D02*
X150787000Y-69326000D01*
X150827000Y-63793000D02*
X150827000Y-65568000D01*
X150827000Y-67528000D02*
X150827000Y-69303000D01*
X150867000Y-63817000D02*
X150867000Y-65568000D01*
X150867000Y-67528000D02*
X150867000Y-69279000D01*
X150907000Y-63842000D02*
X150907000Y-65568000D01*
X150907000Y-67528000D02*
X150907000Y-69254000D01*
X150947000Y-63867000D02*
X150947000Y-65568000D01*
X150947000Y-67528000D02*
X150947000Y-69229000D01*
X150987000Y-63894000D02*
X150987000Y-65568000D01*
X150987000Y-67528000D02*
X150987000Y-69202000D01*
X151027000Y-63921000D02*
X151027000Y-65568000D01*
X151027000Y-67528000D02*
X151027000Y-69175000D01*
X151067000Y-63949000D02*
X151067000Y-65568000D01*
X151067000Y-67528000D02*
X151067000Y-69147000D01*
X151107000Y-63978000D02*
X151107000Y-65568000D01*
X151107000Y-67528000D02*
X151107000Y-69118000D01*
X151147000Y-64008000D02*
X151147000Y-65568000D01*
X151147000Y-67528000D02*
X151147000Y-69088000D01*
X151187000Y-64038000D02*
X151187000Y-65568000D01*
X151187000Y-67528000D02*
X151187000Y-69058000D01*
X151227000Y-64070000D02*
X151227000Y-65568000D01*
X151227000Y-67528000D02*
X151227000Y-69026000D01*
X151267000Y-64103000D02*
X151267000Y-65568000D01*
X151267000Y-67528000D02*
X151267000Y-68993000D01*
X151307000Y-64137000D02*
X151307000Y-65568000D01*
X151307000Y-67528000D02*
X151307000Y-68959000D01*
X151347000Y-64173000D02*
X151347000Y-65568000D01*
X151347000Y-67528000D02*
X151347000Y-68923000D01*
X151387000Y-64209000D02*
X151387000Y-65568000D01*
X151387000Y-67528000D02*
X151387000Y-68887000D01*
X151427000Y-64247000D02*
X151427000Y-68849000D01*
X151467000Y-64286000D02*
X151467000Y-68810000D01*
X151507000Y-64326000D02*
X151507000Y-68770000D01*
X151547000Y-64368000D02*
X151547000Y-68728000D01*
X151587000Y-64411000D02*
X151587000Y-68685000D01*
X151627000Y-64456000D02*
X151627000Y-68640000D01*
X151667000Y-64503000D02*
X151667000Y-68593000D01*
X151707000Y-64551000D02*
X151707000Y-68545000D01*
X151747000Y-64602000D02*
X151747000Y-68494000D01*
X151787000Y-64654000D02*
X151787000Y-68442000D01*
X151827000Y-64709000D02*
X151827000Y-68387000D01*
X151867000Y-64767000D02*
X151867000Y-68329000D01*
X151907000Y-64827000D02*
X151907000Y-68269000D01*
X151947000Y-64890000D02*
X151947000Y-68206000D01*
X151987000Y-64957000D02*
X151987000Y-68139000D01*
X152027000Y-65028000D02*
X152027000Y-68068000D01*
X152067000Y-65103000D02*
X152067000Y-67993000D01*
X152107000Y-65184000D02*
X152107000Y-67912000D01*
X152147000Y-65270000D02*
X152147000Y-67826000D01*
X152187000Y-65364000D02*
X152187000Y-67732000D01*
X152227000Y-65467000D02*
X152227000Y-67629000D01*
X152267000Y-65582000D02*
X152267000Y-67514000D01*
X152307000Y-65714000D02*
X152307000Y-67382000D01*
X152347000Y-65872000D02*
X152347000Y-67224000D01*
X152387000Y-66080000D02*
X152387000Y-67016000D01*
X145736000Y-66548000D02*
X146936000Y-66548000D01*
X146336000Y-65898000D02*
X146336000Y-67198000D01*
X152274440Y-65568643D02*
G75*
G03X146097764Y-65568000I-3088440J-979357D01*
G01*
X152274440Y-67527357D02*
G75*
G02X146097764Y-67528000I-3088440J979357D01*
G01*
X152274440Y-67527357D02*
G75*
G03X152274236Y-65568000I-3088440J979357D01*
G01*
X130768000Y-85712000D02*
X130768000Y-88532000D01*
X135318000Y-87122000D02*
X135248000Y-87122000D01*
X129858000Y-87122000D02*
X129928000Y-87122000D01*
X135248000Y-85712000D02*
X129928000Y-85712000D01*
X135248000Y-88532000D02*
X135248000Y-85712000D01*
X129928000Y-88532000D02*
X135248000Y-88532000D01*
X129928000Y-85712000D02*
X129928000Y-88532000D01*
X129928000Y-80886000D02*
X129928000Y-83706000D01*
X129928000Y-83706000D02*
X135248000Y-83706000D01*
X135248000Y-83706000D02*
X135248000Y-80886000D01*
X135248000Y-80886000D02*
X129928000Y-80886000D01*
X129858000Y-82296000D02*
X129928000Y-82296000D01*
X135318000Y-82296000D02*
X135248000Y-82296000D01*
X130768000Y-80886000D02*
X130768000Y-83706000D01*
D12*
X170180000Y-130556000D02*
X169672000Y-130048000D01*
X171704000Y-123952000D02*
X170688000Y-123952000D01*
X171704000Y-130556000D02*
X171704000Y-123952000D01*
X169672000Y-130556000D02*
X171704000Y-130556000D01*
X169672000Y-123952000D02*
X169672000Y-130556000D01*
X170688000Y-123952000D02*
X169672000Y-123952000D01*
X170688000Y-123444000D02*
X170688000Y-123952000D01*
X170688000Y-131064000D02*
X170688000Y-130556000D01*
X159126000Y-48768000D02*
X159634000Y-48768000D01*
X166746000Y-48768000D02*
X166238000Y-48768000D01*
X166238000Y-48768000D02*
X166238000Y-47752000D01*
X166238000Y-47752000D02*
X159634000Y-47752000D01*
X159634000Y-47752000D02*
X159634000Y-49784000D01*
X159634000Y-49784000D02*
X166238000Y-49784000D01*
X166238000Y-49784000D02*
X166238000Y-48768000D01*
X159634000Y-48260000D02*
X160142000Y-47752000D01*
X159634000Y-66548000D02*
X160142000Y-66040000D01*
X166238000Y-68072000D02*
X166238000Y-67056000D01*
X159634000Y-68072000D02*
X166238000Y-68072000D01*
X159634000Y-66040000D02*
X159634000Y-68072000D01*
X166238000Y-66040000D02*
X159634000Y-66040000D01*
X166238000Y-67056000D02*
X166238000Y-66040000D01*
X166746000Y-67056000D02*
X166238000Y-67056000D01*
X159126000Y-67056000D02*
X159634000Y-67056000D01*
X166746000Y-62738000D02*
X166238000Y-62738000D01*
X159126000Y-62738000D02*
X159634000Y-62738000D01*
X159634000Y-62738000D02*
X159634000Y-63754000D01*
X159634000Y-63754000D02*
X166238000Y-63754000D01*
X166238000Y-63754000D02*
X166238000Y-61722000D01*
X166238000Y-61722000D02*
X159634000Y-61722000D01*
X159634000Y-61722000D02*
X159634000Y-62738000D01*
X166238000Y-63246000D02*
X165730000Y-63754000D01*
X159634000Y-80264000D02*
X160142000Y-79756000D01*
X166238000Y-81788000D02*
X166238000Y-80772000D01*
X159634000Y-81788000D02*
X166238000Y-81788000D01*
X159634000Y-79756000D02*
X159634000Y-81788000D01*
X166238000Y-79756000D02*
X159634000Y-79756000D01*
X166238000Y-80772000D02*
X166238000Y-79756000D01*
X166746000Y-80772000D02*
X166238000Y-80772000D01*
X159126000Y-80772000D02*
X159634000Y-80772000D01*
X125476000Y-117602000D02*
X125476000Y-117094000D01*
X125476000Y-109982000D02*
X125476000Y-110490000D01*
X125476000Y-110490000D02*
X124460000Y-110490000D01*
X124460000Y-110490000D02*
X124460000Y-117094000D01*
X124460000Y-117094000D02*
X126492000Y-117094000D01*
X126492000Y-117094000D02*
X126492000Y-110490000D01*
X126492000Y-110490000D02*
X125476000Y-110490000D01*
X124968000Y-117094000D02*
X124460000Y-116586000D01*
X166238000Y-76758000D02*
X165730000Y-77266000D01*
X159634000Y-75234000D02*
X159634000Y-76250000D01*
X166238000Y-75234000D02*
X159634000Y-75234000D01*
X166238000Y-77266000D02*
X166238000Y-75234000D01*
X159634000Y-77266000D02*
X166238000Y-77266000D01*
X159634000Y-76250000D02*
X159634000Y-77266000D01*
X159126000Y-76250000D02*
X159634000Y-76250000D01*
X166746000Y-76250000D02*
X166238000Y-76250000D01*
X166746000Y-53340000D02*
X166238000Y-53340000D01*
X159126000Y-53340000D02*
X159634000Y-53340000D01*
X159634000Y-53340000D02*
X159634000Y-54356000D01*
X159634000Y-54356000D02*
X166238000Y-54356000D01*
X166238000Y-54356000D02*
X166238000Y-52324000D01*
X166238000Y-52324000D02*
X159634000Y-52324000D01*
X159634000Y-52324000D02*
X159634000Y-53340000D01*
X166238000Y-53848000D02*
X165730000Y-54356000D01*
X166238000Y-58420000D02*
X165730000Y-58928000D01*
X159634000Y-56896000D02*
X159634000Y-57912000D01*
X166238000Y-56896000D02*
X159634000Y-56896000D01*
X166238000Y-58928000D02*
X166238000Y-56896000D01*
X159634000Y-58928000D02*
X166238000Y-58928000D01*
X159634000Y-57912000D02*
X159634000Y-58928000D01*
X159126000Y-57912000D02*
X159634000Y-57912000D01*
X166746000Y-57912000D02*
X166238000Y-57912000D01*
D14*
X128584478Y-51247522D02*
G75*
G03X124146000Y-53086000I-1838478J-1838478D01*
G01*
X128584478Y-54924478D02*
G75*
G02X124146000Y-53086000I-1838478J1838478D01*
G01*
X128596000Y-54886000D02*
X128596000Y-51286000D01*
D16*
X166436163Y-97401843D02*
G75*
G03X166436163Y-97401843I-3500000J0D01*
G01*
X167790163Y-102391943D02*
G75*
G02X167026263Y-102901843I-636900J127000D01*
G01*
X158846063Y-102901843D02*
X167026263Y-102901843D01*
X158846063Y-102901843D02*
G75*
G02X158082163Y-102391943I-127000J636900D01*
G01*
X158082163Y-92411743D02*
X158082163Y-102391943D01*
X158082163Y-92411743D02*
G75*
G02X158846063Y-91901843I636900J-127000D01*
G01*
X167026263Y-91901843D02*
X158846063Y-91901843D01*
X167026263Y-91901843D02*
G75*
G02X167790163Y-92411743I127000J-636900D01*
G01*
X167790163Y-102391943D02*
X167790163Y-92411743D01*
D12*
X164587000Y-99559000D02*
G75*
G03X161285000Y-99559000I-1651000J2159000D01*
G01*
X161285000Y-99559000D02*
X164587000Y-99559000D01*
X131285000Y-99559000D02*
X134587000Y-99559000D01*
X134587000Y-99559000D02*
G75*
G03X131285000Y-99559000I-1651000J2159000D01*
G01*
D16*
X137790163Y-102391943D02*
X137790163Y-92411743D01*
X137026263Y-91901843D02*
G75*
G02X137790163Y-92411743I127000J-636900D01*
G01*
X137026263Y-91901843D02*
X128846063Y-91901843D01*
X128082163Y-92411743D02*
G75*
G02X128846063Y-91901843I636900J-127000D01*
G01*
X128082163Y-92411743D02*
X128082163Y-102391943D01*
X128846063Y-102901843D02*
G75*
G02X128082163Y-102391943I-127000J636900D01*
G01*
X128846063Y-102901843D02*
X137026263Y-102901843D01*
X137790163Y-102391943D02*
G75*
G02X137026263Y-102901843I-636900J127000D01*
G01*
X136436163Y-97401843D02*
G75*
G03X136436163Y-97401843I-3500000J0D01*
G01*
X151074163Y-81789843D02*
G75*
G03X151074163Y-81789843I-3500000J0D01*
G01*
X152428163Y-86779943D02*
G75*
G02X151664263Y-87289843I-636900J127000D01*
G01*
X143484063Y-87289843D02*
X151664263Y-87289843D01*
X143484063Y-87289843D02*
G75*
G02X142720163Y-86779943I-127000J636900D01*
G01*
X142720163Y-76799743D02*
X142720163Y-86779943D01*
X142720163Y-76799743D02*
G75*
G02X143484063Y-76289843I636900J-127000D01*
G01*
X151664263Y-76289843D02*
X143484063Y-76289843D01*
X151664263Y-76289843D02*
G75*
G02X152428163Y-76799743I127000J-636900D01*
G01*
X152428163Y-86779943D02*
X152428163Y-76799743D01*
D12*
X149225000Y-83947000D02*
G75*
G03X145923000Y-83947000I-1651000J2159000D01*
G01*
X145923000Y-83947000D02*
X149225000Y-83947000D01*
X155855761Y-116806023D02*
X155903380Y-116663166D01*
X155903380Y-116425071D01*
X155855761Y-116329833D01*
X155808142Y-116282214D01*
X155712904Y-116234595D01*
X155617666Y-116234595D01*
X155522428Y-116282214D01*
X155474809Y-116329833D01*
X155427190Y-116425071D01*
X155379571Y-116615547D01*
X155331952Y-116710785D01*
X155284333Y-116758404D01*
X155189095Y-116806023D01*
X155093857Y-116806023D01*
X154998619Y-116758404D01*
X154951000Y-116710785D01*
X154903380Y-116615547D01*
X154903380Y-116377452D01*
X154951000Y-116234595D01*
X154903380Y-115901261D02*
X155903380Y-115663166D01*
X155189095Y-115472690D01*
X155903380Y-115282214D01*
X154903380Y-115044119D01*
X154998619Y-114710785D02*
X154951000Y-114663166D01*
X154903380Y-114567928D01*
X154903380Y-114329833D01*
X154951000Y-114234595D01*
X154998619Y-114186976D01*
X155093857Y-114139357D01*
X155189095Y-114139357D01*
X155331952Y-114186976D01*
X155903380Y-114758404D01*
X155903380Y-114139357D01*
X169988380Y-115865928D02*
X169988380Y-115675452D01*
X170036000Y-115580214D01*
X170131238Y-115484976D01*
X170321714Y-115437357D01*
X170655047Y-115437357D01*
X170845523Y-115484976D01*
X170940761Y-115580214D01*
X170988380Y-115675452D01*
X170988380Y-115865928D01*
X170940761Y-115961166D01*
X170845523Y-116056404D01*
X170655047Y-116104023D01*
X170321714Y-116104023D01*
X170131238Y-116056404D01*
X170036000Y-115961166D01*
X169988380Y-115865928D01*
X170940761Y-115056404D02*
X170988380Y-114913547D01*
X170988380Y-114675452D01*
X170940761Y-114580214D01*
X170893142Y-114532595D01*
X170797904Y-114484976D01*
X170702666Y-114484976D01*
X170607428Y-114532595D01*
X170559809Y-114580214D01*
X170512190Y-114675452D01*
X170464571Y-114865928D01*
X170416952Y-114961166D01*
X170369333Y-115008785D01*
X170274095Y-115056404D01*
X170178857Y-115056404D01*
X170083619Y-115008785D01*
X170036000Y-114961166D01*
X169988380Y-114865928D01*
X169988380Y-114627833D01*
X170036000Y-114484976D01*
X170893142Y-113484976D02*
X170940761Y-113532595D01*
X170988380Y-113675452D01*
X170988380Y-113770690D01*
X170940761Y-113913547D01*
X170845523Y-114008785D01*
X170750285Y-114056404D01*
X170559809Y-114104023D01*
X170416952Y-114104023D01*
X170226476Y-114056404D01*
X170131238Y-114008785D01*
X170036000Y-113913547D01*
X169988380Y-113770690D01*
X169988380Y-113675452D01*
X170036000Y-113532595D01*
X170083619Y-113484976D01*
X170988380Y-113056404D02*
X169988380Y-113056404D01*
X170988380Y-112104023D02*
X170988380Y-112580214D01*
X169988380Y-112580214D01*
X170988380Y-111294500D02*
X170988380Y-111770690D01*
X169988380Y-111770690D01*
X170702666Y-111008785D02*
X170702666Y-110532595D01*
X170988380Y-111104023D02*
X169988380Y-110770690D01*
X170988380Y-110437357D01*
X169988380Y-110246880D02*
X169988380Y-109675452D01*
X170988380Y-109961166D02*
X169988380Y-109961166D01*
X169988380Y-109151642D02*
X169988380Y-108961166D01*
X170036000Y-108865928D01*
X170131238Y-108770690D01*
X170321714Y-108723071D01*
X170655047Y-108723071D01*
X170845523Y-108770690D01*
X170940761Y-108865928D01*
X170988380Y-108961166D01*
X170988380Y-109151642D01*
X170940761Y-109246880D01*
X170845523Y-109342119D01*
X170655047Y-109389738D01*
X170321714Y-109389738D01*
X170131238Y-109342119D01*
X170036000Y-109246880D01*
X169988380Y-109151642D01*
X170988380Y-107723071D02*
X170512190Y-108056404D01*
X170988380Y-108294500D02*
X169988380Y-108294500D01*
X169988380Y-107913547D01*
X170036000Y-107818309D01*
X170083619Y-107770690D01*
X170178857Y-107723071D01*
X170321714Y-107723071D01*
X170416952Y-107770690D01*
X170464571Y-107818309D01*
X170512190Y-107913547D01*
X170512190Y-108294500D01*
X170940761Y-106580214D02*
X170988380Y-106437357D01*
X170988380Y-106199261D01*
X170940761Y-106104023D01*
X170893142Y-106056404D01*
X170797904Y-106008785D01*
X170702666Y-106008785D01*
X170607428Y-106056404D01*
X170559809Y-106104023D01*
X170512190Y-106199261D01*
X170464571Y-106389738D01*
X170416952Y-106484976D01*
X170369333Y-106532595D01*
X170274095Y-106580214D01*
X170178857Y-106580214D01*
X170083619Y-106532595D01*
X170036000Y-106484976D01*
X169988380Y-106389738D01*
X169988380Y-106151642D01*
X170036000Y-106008785D01*
X170464571Y-105580214D02*
X170464571Y-105246880D01*
X170988380Y-105104023D02*
X170988380Y-105580214D01*
X169988380Y-105580214D01*
X169988380Y-105104023D01*
X170988380Y-104199261D02*
X170988380Y-104675452D01*
X169988380Y-104675452D01*
X170464571Y-103865928D02*
X170464571Y-103532595D01*
X170988380Y-103389738D02*
X170988380Y-103865928D01*
X169988380Y-103865928D01*
X169988380Y-103389738D01*
X170893142Y-102389738D02*
X170940761Y-102437357D01*
X170988380Y-102580214D01*
X170988380Y-102675452D01*
X170940761Y-102818309D01*
X170845523Y-102913547D01*
X170750285Y-102961166D01*
X170559809Y-103008785D01*
X170416952Y-103008785D01*
X170226476Y-102961166D01*
X170131238Y-102913547D01*
X170036000Y-102818309D01*
X169988380Y-102675452D01*
X169988380Y-102580214D01*
X170036000Y-102437357D01*
X170083619Y-102389738D01*
X169988380Y-102104023D02*
X169988380Y-101532595D01*
X170988380Y-101818309D02*
X169988380Y-101818309D01*
X139825761Y-70080023D02*
X139873380Y-69937166D01*
X139873380Y-69699071D01*
X139825761Y-69603833D01*
X139778142Y-69556214D01*
X139682904Y-69508595D01*
X139587666Y-69508595D01*
X139492428Y-69556214D01*
X139444809Y-69603833D01*
X139397190Y-69699071D01*
X139349571Y-69889547D01*
X139301952Y-69984785D01*
X139254333Y-70032404D01*
X139159095Y-70080023D01*
X139063857Y-70080023D01*
X138968619Y-70032404D01*
X138921000Y-69984785D01*
X138873380Y-69889547D01*
X138873380Y-69651452D01*
X138921000Y-69508595D01*
X138873380Y-69175261D02*
X139873380Y-68937166D01*
X139159095Y-68746690D01*
X139873380Y-68556214D01*
X138873380Y-68318119D01*
X139873380Y-67413357D02*
X139873380Y-67984785D01*
X139873380Y-67699071D02*
X138873380Y-67699071D01*
X139016238Y-67794309D01*
X139111476Y-67889547D01*
X139159095Y-67984785D01*
X130741595Y-67812380D02*
X130741595Y-66812380D01*
X131122547Y-66812380D01*
X131217785Y-66860000D01*
X131265404Y-66907619D01*
X131313023Y-67002857D01*
X131313023Y-67145714D01*
X131265404Y-67240952D01*
X131217785Y-67288571D01*
X131122547Y-67336190D01*
X130741595Y-67336190D01*
X131932071Y-66812380D02*
X132122547Y-66812380D01*
X132217785Y-66860000D01*
X132313023Y-66955238D01*
X132360642Y-67145714D01*
X132360642Y-67479047D01*
X132313023Y-67669523D01*
X132217785Y-67764761D01*
X132122547Y-67812380D01*
X131932071Y-67812380D01*
X131836833Y-67764761D01*
X131741595Y-67669523D01*
X131693976Y-67479047D01*
X131693976Y-67145714D01*
X131741595Y-66955238D01*
X131836833Y-66860000D01*
X131932071Y-66812380D01*
X132693976Y-66812380D02*
X132932071Y-67812380D01*
X133122547Y-67098095D01*
X133313023Y-67812380D01*
X133551119Y-66812380D01*
X133932071Y-67288571D02*
X134265404Y-67288571D01*
X134408261Y-67812380D02*
X133932071Y-67812380D01*
X133932071Y-66812380D01*
X134408261Y-66812380D01*
X135408261Y-67812380D02*
X135074928Y-67336190D01*
X134836833Y-67812380D02*
X134836833Y-66812380D01*
X135217785Y-66812380D01*
X135313023Y-66860000D01*
X135360642Y-66907619D01*
X135408261Y-67002857D01*
X135408261Y-67145714D01*
X135360642Y-67240952D01*
X135313023Y-67288571D01*
X135217785Y-67336190D01*
X134836833Y-67336190D01*
D17*
X145254619Y-46120857D02*
X145433190Y-46192285D01*
X145492714Y-46263714D01*
X145552238Y-46406571D01*
X145552238Y-46620857D01*
X145492714Y-46763714D01*
X145433190Y-46835142D01*
X145314142Y-46906571D01*
X144837952Y-46906571D01*
X144837952Y-45406571D01*
X145254619Y-45406571D01*
X145373666Y-45478000D01*
X145433190Y-45549428D01*
X145492714Y-45692285D01*
X145492714Y-45835142D01*
X145433190Y-45978000D01*
X145373666Y-46049428D01*
X145254619Y-46120857D01*
X144837952Y-46120857D01*
X146087952Y-45406571D02*
X146087952Y-46620857D01*
X146147476Y-46763714D01*
X146207000Y-46835142D01*
X146326047Y-46906571D01*
X146564142Y-46906571D01*
X146683190Y-46835142D01*
X146742714Y-46763714D01*
X146802238Y-46620857D01*
X146802238Y-45406571D01*
X147218904Y-45406571D02*
X147933190Y-45406571D01*
X147576047Y-46906571D02*
X147576047Y-45406571D01*
X148171285Y-45406571D02*
X148885571Y-45406571D01*
X148528428Y-46906571D02*
X148528428Y-45406571D01*
X149540333Y-45406571D02*
X149778428Y-45406571D01*
X149897476Y-45478000D01*
X150016523Y-45620857D01*
X150076047Y-45906571D01*
X150076047Y-46406571D01*
X150016523Y-46692285D01*
X149897476Y-46835142D01*
X149778428Y-46906571D01*
X149540333Y-46906571D01*
X149421285Y-46835142D01*
X149302238Y-46692285D01*
X149242714Y-46406571D01*
X149242714Y-45906571D01*
X149302238Y-45620857D01*
X149421285Y-45478000D01*
X149540333Y-45406571D01*
X150611761Y-46906571D02*
X150611761Y-45406571D01*
X151326047Y-46906571D01*
X151326047Y-45406571D01*
D18*
X147346714Y-41501190D02*
X147382428Y-41513095D01*
X147441952Y-41513095D01*
X147465761Y-41501190D01*
X147477666Y-41489285D01*
X147489571Y-41465476D01*
X147489571Y-41441666D01*
X147477666Y-41417857D01*
X147465761Y-41405952D01*
X147441952Y-41394047D01*
X147394333Y-41382142D01*
X147370523Y-41370238D01*
X147358619Y-41358333D01*
X147346714Y-41334523D01*
X147346714Y-41310714D01*
X147358619Y-41286904D01*
X147370523Y-41275000D01*
X147394333Y-41263095D01*
X147453857Y-41263095D01*
X147489571Y-41275000D01*
X147561000Y-41263095D02*
X147703857Y-41263095D01*
X147632428Y-41513095D02*
X147632428Y-41263095D01*
X147930047Y-41513095D02*
X147846714Y-41394047D01*
X147787190Y-41513095D02*
X147787190Y-41263095D01*
X147882428Y-41263095D01*
X147906238Y-41275000D01*
X147918142Y-41286904D01*
X147930047Y-41310714D01*
X147930047Y-41346428D01*
X147918142Y-41370238D01*
X147906238Y-41382142D01*
X147882428Y-41394047D01*
X147787190Y-41394047D01*
X148025285Y-41441666D02*
X148144333Y-41441666D01*
X148001476Y-41513095D02*
X148084809Y-41263095D01*
X148168142Y-41513095D01*
X148251476Y-41513095D02*
X148251476Y-41263095D01*
X148370523Y-41513095D02*
X148370523Y-41263095D01*
X148513380Y-41513095D01*
X148513380Y-41263095D01*
D12*
X124642666Y-59402380D02*
X124642666Y-60116666D01*
X124595047Y-60259523D01*
X124499809Y-60354761D01*
X124356952Y-60402380D01*
X124261714Y-60402380D01*
X125642666Y-60402380D02*
X125071238Y-60402380D01*
X125356952Y-60402380D02*
X125356952Y-59402380D01*
X125261714Y-59545238D01*
X125166476Y-59640476D01*
X125071238Y-59688095D01*
D17*
X123999714Y-68383476D02*
X124237809Y-68383476D01*
X124356857Y-68323952D01*
X124416380Y-68264428D01*
X124535428Y-68085857D01*
X124594952Y-67847761D01*
X124594952Y-67371571D01*
X124535428Y-67252523D01*
X124475904Y-67193000D01*
X124356857Y-67133476D01*
X124118761Y-67133476D01*
X123999714Y-67193000D01*
X123940190Y-67252523D01*
X123880666Y-67371571D01*
X123880666Y-67669190D01*
X123940190Y-67788238D01*
X123999714Y-67847761D01*
X124118761Y-67907285D01*
X124356857Y-67907285D01*
X124475904Y-67847761D01*
X124535428Y-67788238D01*
X124594952Y-67669190D01*
X125011619Y-67550142D02*
X125309238Y-68383476D01*
X125606857Y-67550142D01*
D12*
X128577571Y-65309714D02*
X128577571Y-64738285D01*
X128863285Y-65024000D02*
X128291857Y-65024000D01*
X128577571Y-62769714D02*
X128577571Y-62198285D01*
D18*
X125882809Y-63164714D02*
X125870904Y-63200428D01*
X125870904Y-63259952D01*
X125882809Y-63283761D01*
X125894714Y-63295666D01*
X125918523Y-63307571D01*
X125942333Y-63307571D01*
X125966142Y-63295666D01*
X125978047Y-63283761D01*
X125989952Y-63259952D01*
X126001857Y-63212333D01*
X126013761Y-63188523D01*
X126025666Y-63176619D01*
X126049476Y-63164714D01*
X126073285Y-63164714D01*
X126097095Y-63176619D01*
X126109000Y-63188523D01*
X126120904Y-63212333D01*
X126120904Y-63271857D01*
X126109000Y-63307571D01*
X126120904Y-63379000D02*
X126120904Y-63521857D01*
X125870904Y-63450428D02*
X126120904Y-63450428D01*
X125870904Y-63748047D02*
X125989952Y-63664714D01*
X125870904Y-63605190D02*
X126120904Y-63605190D01*
X126120904Y-63700428D01*
X126109000Y-63724238D01*
X126097095Y-63736142D01*
X126073285Y-63748047D01*
X126037571Y-63748047D01*
X126013761Y-63736142D01*
X126001857Y-63724238D01*
X125989952Y-63700428D01*
X125989952Y-63605190D01*
X125942333Y-63843285D02*
X125942333Y-63962333D01*
X125870904Y-63819476D02*
X126120904Y-63902809D01*
X125870904Y-63986142D01*
X125870904Y-64069476D02*
X126120904Y-64069476D01*
X125870904Y-64188523D02*
X126120904Y-64188523D01*
X125870904Y-64331380D01*
X126120904Y-64331380D01*
D12*
X139700095Y-110704380D02*
X139700095Y-111513904D01*
X139747714Y-111609142D01*
X139795333Y-111656761D01*
X139890571Y-111704380D01*
X140081047Y-111704380D01*
X140176285Y-111656761D01*
X140223904Y-111609142D01*
X140271523Y-111513904D01*
X140271523Y-110704380D01*
X140700095Y-110799619D02*
X140747714Y-110752000D01*
X140842952Y-110704380D01*
X141081047Y-110704380D01*
X141176285Y-110752000D01*
X141223904Y-110799619D01*
X141271523Y-110894857D01*
X141271523Y-110990095D01*
X141223904Y-111132952D01*
X140652476Y-111704380D01*
X141271523Y-111704380D01*
X146320095Y-110704380D02*
X146986761Y-110704380D01*
X146558190Y-111704380D01*
X147796285Y-111037714D02*
X147796285Y-111704380D01*
X147558190Y-110656761D02*
X147320095Y-111371047D01*
X147939142Y-111371047D01*
X148843904Y-111704380D02*
X148272476Y-111704380D01*
X148558190Y-111704380D02*
X148558190Y-110704380D01*
X148462952Y-110847238D01*
X148367714Y-110942476D01*
X148272476Y-110990095D01*
X149701047Y-111037714D02*
X149701047Y-111704380D01*
X149462952Y-110656761D02*
X149224857Y-111371047D01*
X149843904Y-111371047D01*
X151431666Y-123277380D02*
X152098333Y-123277380D01*
X151669761Y-124277380D01*
X148780476Y-123277380D02*
X148590000Y-123277380D01*
X148494761Y-123325000D01*
X148447142Y-123372619D01*
X148351904Y-123515476D01*
X148304285Y-123705952D01*
X148304285Y-124086904D01*
X148351904Y-124182142D01*
X148399523Y-124229761D01*
X148494761Y-124277380D01*
X148685238Y-124277380D01*
X148780476Y-124229761D01*
X148828095Y-124182142D01*
X148875714Y-124086904D01*
X148875714Y-123848809D01*
X148828095Y-123753571D01*
X148780476Y-123705952D01*
X148685238Y-123658333D01*
X148494761Y-123658333D01*
X148399523Y-123705952D01*
X148351904Y-123753571D01*
X148304285Y-123848809D01*
X146288095Y-123277380D02*
X145811904Y-123277380D01*
X145764285Y-123753571D01*
X145811904Y-123705952D01*
X145907142Y-123658333D01*
X146145238Y-123658333D01*
X146240476Y-123705952D01*
X146288095Y-123753571D01*
X146335714Y-123848809D01*
X146335714Y-124086904D01*
X146288095Y-124182142D01*
X146240476Y-124229761D01*
X146145238Y-124277380D01*
X145907142Y-124277380D01*
X145811904Y-124229761D01*
X145764285Y-124182142D01*
X143700476Y-123610714D02*
X143700476Y-124277380D01*
X143462380Y-123229761D02*
X143224285Y-123944047D01*
X143843333Y-123944047D01*
X140636666Y-123277380D02*
X141255714Y-123277380D01*
X140922380Y-123658333D01*
X141065238Y-123658333D01*
X141160476Y-123705952D01*
X141208095Y-123753571D01*
X141255714Y-123848809D01*
X141255714Y-124086904D01*
X141208095Y-124182142D01*
X141160476Y-124229761D01*
X141065238Y-124277380D01*
X140779523Y-124277380D01*
X140684285Y-124229761D01*
X140636666Y-124182142D01*
X138144285Y-123372619D02*
X138191904Y-123325000D01*
X138287142Y-123277380D01*
X138525238Y-123277380D01*
X138620476Y-123325000D01*
X138668095Y-123372619D01*
X138715714Y-123467857D01*
X138715714Y-123563095D01*
X138668095Y-123705952D01*
X138096666Y-124277380D01*
X138715714Y-124277380D01*
X136175714Y-124277380D02*
X135604285Y-124277380D01*
X135890000Y-124277380D02*
X135890000Y-123277380D01*
X135794761Y-123420238D01*
X135699523Y-123515476D01*
X135604285Y-123563095D01*
X161798095Y-132723000D02*
X161702857Y-132675380D01*
X161560000Y-132675380D01*
X161417142Y-132723000D01*
X161321904Y-132818238D01*
X161274285Y-132913476D01*
X161226666Y-133103952D01*
X161226666Y-133246809D01*
X161274285Y-133437285D01*
X161321904Y-133532523D01*
X161417142Y-133627761D01*
X161560000Y-133675380D01*
X161655238Y-133675380D01*
X161798095Y-133627761D01*
X161845714Y-133580142D01*
X161845714Y-133246809D01*
X161655238Y-133246809D01*
X162274285Y-133675380D02*
X162274285Y-132675380D01*
X162845714Y-133675380D01*
X162845714Y-132675380D01*
X163321904Y-133675380D02*
X163321904Y-132675380D01*
X163560000Y-132675380D01*
X163702857Y-132723000D01*
X163798095Y-132818238D01*
X163845714Y-132913476D01*
X163893333Y-133103952D01*
X163893333Y-133246809D01*
X163845714Y-133437285D01*
X163798095Y-133532523D01*
X163702857Y-133627761D01*
X163560000Y-133675380D01*
X163321904Y-133675380D01*
X164766666Y-128357380D02*
X165433333Y-128357380D01*
X165004761Y-129357380D01*
X157797476Y-128103380D02*
X157607000Y-128103380D01*
X157511761Y-128151000D01*
X157464142Y-128198619D01*
X157368904Y-128341476D01*
X157321285Y-128531952D01*
X157321285Y-128912904D01*
X157368904Y-129008142D01*
X157416523Y-129055761D01*
X157511761Y-129103380D01*
X157702238Y-129103380D01*
X157797476Y-129055761D01*
X157845095Y-129008142D01*
X157892714Y-128912904D01*
X157892714Y-128674809D01*
X157845095Y-128579571D01*
X157797476Y-128531952D01*
X157702238Y-128484333D01*
X157511761Y-128484333D01*
X157416523Y-128531952D01*
X157368904Y-128579571D01*
X157321285Y-128674809D01*
X150606095Y-128103380D02*
X150129904Y-128103380D01*
X150082285Y-128579571D01*
X150129904Y-128531952D01*
X150225142Y-128484333D01*
X150463238Y-128484333D01*
X150558476Y-128531952D01*
X150606095Y-128579571D01*
X150653714Y-128674809D01*
X150653714Y-128912904D01*
X150606095Y-129008142D01*
X150558476Y-129055761D01*
X150463238Y-129103380D01*
X150225142Y-129103380D01*
X150129904Y-129055761D01*
X150082285Y-129008142D01*
X146367476Y-128500214D02*
X146367476Y-129166880D01*
X146129380Y-128119261D02*
X145891285Y-128833547D01*
X146510333Y-128833547D01*
X138604666Y-128293880D02*
X139223714Y-128293880D01*
X138890380Y-128674833D01*
X139033238Y-128674833D01*
X139128476Y-128722452D01*
X139176095Y-128770071D01*
X139223714Y-128865309D01*
X139223714Y-129103404D01*
X139176095Y-129198642D01*
X139128476Y-129246261D01*
X139033238Y-129293880D01*
X138747523Y-129293880D01*
X138652285Y-129246261D01*
X138604666Y-129198642D01*
X134461285Y-128325619D02*
X134508904Y-128278000D01*
X134604142Y-128230380D01*
X134842238Y-128230380D01*
X134937476Y-128278000D01*
X134985095Y-128325619D01*
X135032714Y-128420857D01*
X135032714Y-128516095D01*
X134985095Y-128658952D01*
X134413666Y-129230380D01*
X135032714Y-129230380D01*
X127730214Y-129357380D02*
X127158785Y-129357380D01*
X127444500Y-129357380D02*
X127444500Y-128357380D01*
X127349261Y-128500238D01*
X127254023Y-128595476D01*
X127158785Y-128643095D01*
X158940595Y-149360000D02*
X158845357Y-149312380D01*
X158702500Y-149312380D01*
X158559642Y-149360000D01*
X158464404Y-149455238D01*
X158416785Y-149550476D01*
X158369166Y-149740952D01*
X158369166Y-149883809D01*
X158416785Y-150074285D01*
X158464404Y-150169523D01*
X158559642Y-150264761D01*
X158702500Y-150312380D01*
X158797738Y-150312380D01*
X158940595Y-150264761D01*
X158988214Y-150217142D01*
X158988214Y-149883809D01*
X158797738Y-149883809D01*
X159416785Y-150312380D02*
X159416785Y-149312380D01*
X159988214Y-150312380D01*
X159988214Y-149312380D01*
X160464404Y-150312380D02*
X160464404Y-149312380D01*
X160702500Y-149312380D01*
X160845357Y-149360000D01*
X160940595Y-149455238D01*
X160988214Y-149550476D01*
X161035833Y-149740952D01*
X161035833Y-149883809D01*
X160988214Y-150074285D01*
X160940595Y-150169523D01*
X160845357Y-150264761D01*
X160702500Y-150312380D01*
X160464404Y-150312380D01*
X147447095Y-149360000D02*
X147351857Y-149312380D01*
X147209000Y-149312380D01*
X147066142Y-149360000D01*
X146970904Y-149455238D01*
X146923285Y-149550476D01*
X146875666Y-149740952D01*
X146875666Y-149883809D01*
X146923285Y-150074285D01*
X146970904Y-150169523D01*
X147066142Y-150264761D01*
X147209000Y-150312380D01*
X147304238Y-150312380D01*
X147447095Y-150264761D01*
X147494714Y-150217142D01*
X147494714Y-149883809D01*
X147304238Y-149883809D01*
X147923285Y-150312380D02*
X147923285Y-149312380D01*
X148494714Y-150312380D01*
X148494714Y-149312380D01*
X148970904Y-150312380D02*
X148970904Y-149312380D01*
X149209000Y-149312380D01*
X149351857Y-149360000D01*
X149447095Y-149455238D01*
X149494714Y-149550476D01*
X149542333Y-149740952D01*
X149542333Y-149883809D01*
X149494714Y-150074285D01*
X149447095Y-150169523D01*
X149351857Y-150264761D01*
X149209000Y-150312380D01*
X148970904Y-150312380D01*
X136017095Y-149360000D02*
X135921857Y-149312380D01*
X135779000Y-149312380D01*
X135636142Y-149360000D01*
X135540904Y-149455238D01*
X135493285Y-149550476D01*
X135445666Y-149740952D01*
X135445666Y-149883809D01*
X135493285Y-150074285D01*
X135540904Y-150169523D01*
X135636142Y-150264761D01*
X135779000Y-150312380D01*
X135874238Y-150312380D01*
X136017095Y-150264761D01*
X136064714Y-150217142D01*
X136064714Y-149883809D01*
X135874238Y-149883809D01*
X136493285Y-150312380D02*
X136493285Y-149312380D01*
X137064714Y-150312380D01*
X137064714Y-149312380D01*
X137540904Y-150312380D02*
X137540904Y-149312380D01*
X137779000Y-149312380D01*
X137921857Y-149360000D01*
X138017095Y-149455238D01*
X138064714Y-149550476D01*
X138112333Y-149740952D01*
X138112333Y-149883809D01*
X138064714Y-150074285D01*
X138017095Y-150169523D01*
X137921857Y-150264761D01*
X137779000Y-150312380D01*
X137540904Y-150312380D01*
X134556666Y-115895380D02*
X134556666Y-114895380D01*
X134937619Y-114895380D01*
X135032857Y-114943000D01*
X135080476Y-114990619D01*
X135128095Y-115085857D01*
X135128095Y-115228714D01*
X135080476Y-115323952D01*
X135032857Y-115371571D01*
X134937619Y-115419190D01*
X134556666Y-115419190D01*
X135461428Y-114895380D02*
X135699523Y-115895380D01*
X135890000Y-115181095D01*
X136080476Y-115895380D01*
X136318571Y-114895380D01*
X137270952Y-115895380D02*
X136937619Y-115419190D01*
X136699523Y-115895380D02*
X136699523Y-114895380D01*
X137080476Y-114895380D01*
X137175714Y-114943000D01*
X137223333Y-114990619D01*
X137270952Y-115085857D01*
X137270952Y-115228714D01*
X137223333Y-115323952D01*
X137175714Y-115371571D01*
X137080476Y-115419190D01*
X136699523Y-115419190D01*
X124126666Y-45680380D02*
X124126666Y-46394666D01*
X124079047Y-46537523D01*
X123983809Y-46632761D01*
X123840952Y-46680380D01*
X123745714Y-46680380D01*
X124555238Y-45775619D02*
X124602857Y-45728000D01*
X124698095Y-45680380D01*
X124936190Y-45680380D01*
X125031428Y-45728000D01*
X125079047Y-45775619D01*
X125126666Y-45870857D01*
X125126666Y-45966095D01*
X125079047Y-46108952D01*
X124507619Y-46680380D01*
X125126666Y-46680380D01*
D17*
X123599142Y-39173476D02*
X123599142Y-37923476D01*
X124313428Y-39173476D02*
X124313428Y-37923476D01*
X125170571Y-39173476D01*
X125170571Y-37923476D01*
X125884857Y-39173476D02*
X125884857Y-37923476D01*
X126456285Y-37923476D01*
X126599142Y-37983000D01*
X126670571Y-38042523D01*
X126742000Y-38161571D01*
X126742000Y-38340142D01*
X126670571Y-38459190D01*
X126599142Y-38518714D01*
X126456285Y-38578238D01*
X125884857Y-38578238D01*
X127384857Y-37923476D02*
X127384857Y-38935380D01*
X127456285Y-39054428D01*
X127527714Y-39113952D01*
X127670571Y-39173476D01*
X127956285Y-39173476D01*
X128099142Y-39113952D01*
X128170571Y-39054428D01*
X128242000Y-38935380D01*
X128242000Y-37923476D01*
X128742000Y-37923476D02*
X129599142Y-37923476D01*
X129170571Y-39173476D02*
X129170571Y-37923476D01*
D11*
X128979809Y-43527142D02*
X128979809Y-43812857D01*
X128479809Y-43670000D02*
X128979809Y-43670000D01*
X128503619Y-40987142D02*
X128479809Y-41058571D01*
X128479809Y-41177619D01*
X128503619Y-41225238D01*
X128527428Y-41249047D01*
X128575047Y-41272857D01*
X128622666Y-41272857D01*
X128670285Y-41249047D01*
X128694095Y-41225238D01*
X128717904Y-41177619D01*
X128741714Y-41082380D01*
X128765523Y-41034761D01*
X128789333Y-41010952D01*
X128836952Y-40987142D01*
X128884571Y-40987142D01*
X128932190Y-41010952D01*
X128956000Y-41034761D01*
X128979809Y-41082380D01*
X128979809Y-41201428D01*
X128956000Y-41272857D01*
D18*
X126064809Y-41810714D02*
X126052904Y-41846428D01*
X126052904Y-41905952D01*
X126064809Y-41929761D01*
X126076714Y-41941666D01*
X126100523Y-41953571D01*
X126124333Y-41953571D01*
X126148142Y-41941666D01*
X126160047Y-41929761D01*
X126171952Y-41905952D01*
X126183857Y-41858333D01*
X126195761Y-41834523D01*
X126207666Y-41822619D01*
X126231476Y-41810714D01*
X126255285Y-41810714D01*
X126279095Y-41822619D01*
X126291000Y-41834523D01*
X126302904Y-41858333D01*
X126302904Y-41917857D01*
X126291000Y-41953571D01*
X126302904Y-42025000D02*
X126302904Y-42167857D01*
X126052904Y-42096428D02*
X126302904Y-42096428D01*
X126052904Y-42394047D02*
X126171952Y-42310714D01*
X126052904Y-42251190D02*
X126302904Y-42251190D01*
X126302904Y-42346428D01*
X126291000Y-42370238D01*
X126279095Y-42382142D01*
X126255285Y-42394047D01*
X126219571Y-42394047D01*
X126195761Y-42382142D01*
X126183857Y-42370238D01*
X126171952Y-42346428D01*
X126171952Y-42251190D01*
X126124333Y-42489285D02*
X126124333Y-42608333D01*
X126052904Y-42465476D02*
X126302904Y-42548809D01*
X126052904Y-42632142D01*
X126052904Y-42715476D02*
X126302904Y-42715476D01*
X126052904Y-42834523D02*
X126302904Y-42834523D01*
X126052904Y-42977380D01*
X126302904Y-42977380D01*
D12*
X171370666Y-45426380D02*
X171370666Y-46140666D01*
X171323047Y-46283523D01*
X171227809Y-46378761D01*
X171084952Y-46426380D01*
X170989714Y-46426380D01*
X171751619Y-45426380D02*
X172370666Y-45426380D01*
X172037333Y-45807333D01*
X172180190Y-45807333D01*
X172275428Y-45854952D01*
X172323047Y-45902571D01*
X172370666Y-45997809D01*
X172370666Y-46235904D01*
X172323047Y-46331142D01*
X172275428Y-46378761D01*
X172180190Y-46426380D01*
X171894476Y-46426380D01*
X171799238Y-46378761D01*
X171751619Y-46331142D01*
D17*
X164540857Y-37923476D02*
X164826571Y-37923476D01*
X164969428Y-37983000D01*
X165112285Y-38102047D01*
X165183714Y-38340142D01*
X165183714Y-38756809D01*
X165112285Y-38994904D01*
X164969428Y-39113952D01*
X164826571Y-39173476D01*
X164540857Y-39173476D01*
X164398000Y-39113952D01*
X164255142Y-38994904D01*
X164183714Y-38756809D01*
X164183714Y-38340142D01*
X164255142Y-38102047D01*
X164398000Y-37983000D01*
X164540857Y-37923476D01*
X165826571Y-37923476D02*
X165826571Y-38935380D01*
X165898000Y-39054428D01*
X165969428Y-39113952D01*
X166112285Y-39173476D01*
X166398000Y-39173476D01*
X166540857Y-39113952D01*
X166612285Y-39054428D01*
X166683714Y-38935380D01*
X166683714Y-37923476D01*
X167183714Y-37923476D02*
X168040857Y-37923476D01*
X167612285Y-39173476D02*
X167612285Y-37923476D01*
X168540857Y-39173476D02*
X168540857Y-37923476D01*
X169112285Y-37923476D01*
X169255142Y-37983000D01*
X169326571Y-38042523D01*
X169398000Y-38161571D01*
X169398000Y-38340142D01*
X169326571Y-38459190D01*
X169255142Y-38518714D01*
X169112285Y-38578238D01*
X168540857Y-38578238D01*
X170040857Y-37923476D02*
X170040857Y-38935380D01*
X170112285Y-39054428D01*
X170183714Y-39113952D01*
X170326571Y-39173476D01*
X170612285Y-39173476D01*
X170755142Y-39113952D01*
X170826571Y-39054428D01*
X170898000Y-38935380D01*
X170898000Y-37923476D01*
X171398000Y-37923476D02*
X172255142Y-37923476D01*
X171826571Y-39173476D02*
X171826571Y-37923476D01*
D18*
X169773190Y-42989285D02*
X169785095Y-42953571D01*
X169785095Y-42894047D01*
X169773190Y-42870238D01*
X169761285Y-42858333D01*
X169737476Y-42846428D01*
X169713666Y-42846428D01*
X169689857Y-42858333D01*
X169677952Y-42870238D01*
X169666047Y-42894047D01*
X169654142Y-42941666D01*
X169642238Y-42965476D01*
X169630333Y-42977380D01*
X169606523Y-42989285D01*
X169582714Y-42989285D01*
X169558904Y-42977380D01*
X169547000Y-42965476D01*
X169535095Y-42941666D01*
X169535095Y-42882142D01*
X169547000Y-42846428D01*
X169535095Y-42775000D02*
X169535095Y-42632142D01*
X169785095Y-42703571D02*
X169535095Y-42703571D01*
X169785095Y-42405952D02*
X169666047Y-42489285D01*
X169785095Y-42548809D02*
X169535095Y-42548809D01*
X169535095Y-42453571D01*
X169547000Y-42429761D01*
X169558904Y-42417857D01*
X169582714Y-42405952D01*
X169618428Y-42405952D01*
X169642238Y-42417857D01*
X169654142Y-42429761D01*
X169666047Y-42453571D01*
X169666047Y-42548809D01*
X169713666Y-42310714D02*
X169713666Y-42191666D01*
X169785095Y-42334523D02*
X169535095Y-42251190D01*
X169785095Y-42167857D01*
X169785095Y-42084523D02*
X169535095Y-42084523D01*
X169785095Y-41965476D02*
X169535095Y-41965476D01*
X169785095Y-41822619D01*
X169535095Y-41822619D01*
D11*
X167334380Y-41272857D02*
X167358190Y-41201428D01*
X167358190Y-41082380D01*
X167334380Y-41034761D01*
X167310571Y-41010952D01*
X167262952Y-40987142D01*
X167215333Y-40987142D01*
X167167714Y-41010952D01*
X167143904Y-41034761D01*
X167120095Y-41082380D01*
X167096285Y-41177619D01*
X167072476Y-41225238D01*
X167048666Y-41249047D01*
X167001047Y-41272857D01*
X166953428Y-41272857D01*
X166905809Y-41249047D01*
X166882000Y-41225238D01*
X166858190Y-41177619D01*
X166858190Y-41058571D01*
X166882000Y-40987142D01*
X166858190Y-43812857D02*
X166858190Y-43527142D01*
X167358190Y-43670000D02*
X166858190Y-43670000D01*
D12*
X162293142Y-70584380D02*
X161959809Y-70108190D01*
X161721714Y-70584380D02*
X161721714Y-69584380D01*
X162102666Y-69584380D01*
X162197904Y-69632000D01*
X162245523Y-69679619D01*
X162293142Y-69774857D01*
X162293142Y-69917714D01*
X162245523Y-70012952D01*
X162197904Y-70060571D01*
X162102666Y-70108190D01*
X161721714Y-70108190D01*
X163245523Y-70584380D02*
X162674095Y-70584380D01*
X162959809Y-70584380D02*
X162959809Y-69584380D01*
X162864571Y-69727238D01*
X162769333Y-69822476D01*
X162674095Y-69870095D01*
X164197904Y-70584380D02*
X163626476Y-70584380D01*
X163912190Y-70584380D02*
X163912190Y-69584380D01*
X163816952Y-69727238D01*
X163721714Y-69822476D01*
X163626476Y-69870095D01*
X169316952Y-72334380D02*
X168745523Y-72334380D01*
X169031238Y-72334380D02*
X169031238Y-71334380D01*
X168936000Y-71477238D01*
X168840761Y-71572476D01*
X168745523Y-71620095D01*
X169745523Y-72334380D02*
X169745523Y-71334380D01*
X169840761Y-71953428D02*
X170126476Y-72334380D01*
X170126476Y-71667714D02*
X169745523Y-72048666D01*
X140970095Y-99352380D02*
X140970095Y-100161904D01*
X141017714Y-100257142D01*
X141065333Y-100304761D01*
X141160571Y-100352380D01*
X141351047Y-100352380D01*
X141446285Y-100304761D01*
X141493904Y-100257142D01*
X141541523Y-100161904D01*
X141541523Y-99352380D01*
X142541523Y-100352380D02*
X141970095Y-100352380D01*
X142255809Y-100352380D02*
X142255809Y-99352380D01*
X142160571Y-99495238D01*
X142065333Y-99590476D01*
X141970095Y-99638095D01*
X146391523Y-106116380D02*
X145915333Y-106116380D01*
X145915333Y-105116380D01*
X146724857Y-106116380D02*
X146724857Y-105116380D01*
X147058190Y-105830666D01*
X147391523Y-105116380D01*
X147391523Y-106116380D01*
X147772476Y-105116380D02*
X148391523Y-105116380D01*
X148058190Y-105497333D01*
X148201047Y-105497333D01*
X148296285Y-105544952D01*
X148343904Y-105592571D01*
X148391523Y-105687809D01*
X148391523Y-105925904D01*
X148343904Y-106021142D01*
X148296285Y-106068761D01*
X148201047Y-106116380D01*
X147915333Y-106116380D01*
X147820095Y-106068761D01*
X147772476Y-106021142D01*
X149296285Y-105116380D02*
X148820095Y-105116380D01*
X148772476Y-105592571D01*
X148820095Y-105544952D01*
X148915333Y-105497333D01*
X149153428Y-105497333D01*
X149248666Y-105544952D01*
X149296285Y-105592571D01*
X149343904Y-105687809D01*
X149343904Y-105925904D01*
X149296285Y-106021142D01*
X149248666Y-106068761D01*
X149153428Y-106116380D01*
X148915333Y-106116380D01*
X148820095Y-106068761D01*
X148772476Y-106021142D01*
X149915333Y-105544952D02*
X149820095Y-105497333D01*
X149772476Y-105449714D01*
X149724857Y-105354476D01*
X149724857Y-105306857D01*
X149772476Y-105211619D01*
X149820095Y-105164000D01*
X149915333Y-105116380D01*
X150105809Y-105116380D01*
X150201047Y-105164000D01*
X150248666Y-105211619D01*
X150296285Y-105306857D01*
X150296285Y-105354476D01*
X150248666Y-105449714D01*
X150201047Y-105497333D01*
X150105809Y-105544952D01*
X149915333Y-105544952D01*
X149820095Y-105592571D01*
X149772476Y-105640190D01*
X149724857Y-105735428D01*
X149724857Y-105925904D01*
X149772476Y-106021142D01*
X149820095Y-106068761D01*
X149915333Y-106116380D01*
X150105809Y-106116380D01*
X150201047Y-106068761D01*
X150248666Y-106021142D01*
X150296285Y-105925904D01*
X150296285Y-105735428D01*
X150248666Y-105640190D01*
X150201047Y-105592571D01*
X150105809Y-105544952D01*
D13*
X171112571Y-146073142D02*
X169612571Y-146073142D01*
X169612571Y-145692190D01*
X169684000Y-145596952D01*
X169755428Y-145549333D01*
X169898285Y-145501714D01*
X170112571Y-145501714D01*
X170255428Y-145549333D01*
X170326857Y-145596952D01*
X170398285Y-145692190D01*
X170398285Y-146073142D01*
X171112571Y-144644571D02*
X170326857Y-144644571D01*
X170184000Y-144692190D01*
X170112571Y-144787428D01*
X170112571Y-144977904D01*
X170184000Y-145073142D01*
X171041142Y-144644571D02*
X171112571Y-144739809D01*
X171112571Y-144977904D01*
X171041142Y-145073142D01*
X170898285Y-145120761D01*
X170755428Y-145120761D01*
X170612571Y-145073142D01*
X170541142Y-144977904D01*
X170541142Y-144739809D01*
X170469714Y-144644571D01*
X170112571Y-144311238D02*
X170112571Y-143930285D01*
X169612571Y-144168380D02*
X170898285Y-144168380D01*
X171041142Y-144120761D01*
X171112571Y-144025523D01*
X171112571Y-143930285D01*
X171112571Y-143596952D02*
X169612571Y-143596952D01*
X171112571Y-143168380D02*
X170326857Y-143168380D01*
X170184000Y-143216000D01*
X170112571Y-143311238D01*
X170112571Y-143454095D01*
X170184000Y-143549333D01*
X170255428Y-143596952D01*
X170112571Y-142073142D02*
X170112571Y-141692190D01*
X169612571Y-141930285D02*
X170898285Y-141930285D01*
X171041142Y-141882666D01*
X171112571Y-141787428D01*
X171112571Y-141692190D01*
X171112571Y-141216000D02*
X171041142Y-141311238D01*
X170969714Y-141358857D01*
X170826857Y-141406476D01*
X170398285Y-141406476D01*
X170255428Y-141358857D01*
X170184000Y-141311238D01*
X170112571Y-141216000D01*
X170112571Y-141073142D01*
X170184000Y-140977904D01*
X170255428Y-140930285D01*
X170398285Y-140882666D01*
X170826857Y-140882666D01*
X170969714Y-140930285D01*
X171041142Y-140977904D01*
X171112571Y-141073142D01*
X171112571Y-141216000D01*
X171041142Y-139739809D02*
X171112571Y-139596952D01*
X171112571Y-139358857D01*
X171041142Y-139263619D01*
X170969714Y-139216000D01*
X170826857Y-139168380D01*
X170684000Y-139168380D01*
X170541142Y-139216000D01*
X170469714Y-139263619D01*
X170398285Y-139358857D01*
X170326857Y-139549333D01*
X170255428Y-139644571D01*
X170184000Y-139692190D01*
X170041142Y-139739809D01*
X169898285Y-139739809D01*
X169755428Y-139692190D01*
X169684000Y-139644571D01*
X169612571Y-139549333D01*
X169612571Y-139311238D01*
X169684000Y-139168380D01*
X170112571Y-138835047D02*
X171112571Y-138644571D01*
X170398285Y-138454095D01*
X171112571Y-138263619D01*
X170112571Y-138073142D01*
X171112571Y-137692190D02*
X170112571Y-137692190D01*
X169612571Y-137692190D02*
X169684000Y-137739809D01*
X169755428Y-137692190D01*
X169684000Y-137644571D01*
X169612571Y-137692190D01*
X169755428Y-137692190D01*
X170112571Y-137358857D02*
X170112571Y-136977904D01*
X169612571Y-137216000D02*
X170898285Y-137216000D01*
X171041142Y-137168380D01*
X171112571Y-137073142D01*
X171112571Y-136977904D01*
X171041142Y-136216000D02*
X171112571Y-136311238D01*
X171112571Y-136501714D01*
X171041142Y-136596952D01*
X170969714Y-136644571D01*
X170826857Y-136692190D01*
X170398285Y-136692190D01*
X170255428Y-136644571D01*
X170184000Y-136596952D01*
X170112571Y-136501714D01*
X170112571Y-136311238D01*
X170184000Y-136216000D01*
X171112571Y-135787428D02*
X169612571Y-135787428D01*
X171112571Y-135358857D02*
X170326857Y-135358857D01*
X170184000Y-135406476D01*
X170112571Y-135501714D01*
X170112571Y-135644571D01*
X170184000Y-135739809D01*
X170255428Y-135787428D01*
D12*
X162026428Y-141301476D02*
X162169285Y-141301476D01*
X162240714Y-141361000D01*
X162312142Y-141480047D01*
X162347857Y-141718142D01*
X162347857Y-142134809D01*
X162312142Y-142372904D01*
X162240714Y-142491952D01*
X162169285Y-142551476D01*
X162026428Y-142551476D01*
X161955000Y-142491952D01*
X161883571Y-142372904D01*
X161847857Y-142134809D01*
X161847857Y-141718142D01*
X161883571Y-141480047D01*
X161955000Y-141361000D01*
X162026428Y-141301476D01*
X162669285Y-141301476D02*
X162669285Y-142313380D01*
X162705000Y-142432428D01*
X162740714Y-142491952D01*
X162812142Y-142551476D01*
X162955000Y-142551476D01*
X163026428Y-142491952D01*
X163062142Y-142432428D01*
X163097857Y-142313380D01*
X163097857Y-141301476D01*
X163347857Y-141301476D02*
X163776428Y-141301476D01*
X163562142Y-142551476D02*
X163562142Y-141301476D01*
X164026428Y-142551476D02*
X164026428Y-141301476D01*
X164312142Y-141301476D01*
X164383571Y-141361000D01*
X164419285Y-141420523D01*
X164455000Y-141539571D01*
X164455000Y-141718142D01*
X164419285Y-141837190D01*
X164383571Y-141896714D01*
X164312142Y-141956238D01*
X164026428Y-141956238D01*
X164776428Y-141301476D02*
X164776428Y-142313380D01*
X164812142Y-142432428D01*
X164847857Y-142491952D01*
X164919285Y-142551476D01*
X165062142Y-142551476D01*
X165133571Y-142491952D01*
X165169285Y-142432428D01*
X165205000Y-142313380D01*
X165205000Y-141301476D01*
X165455000Y-141301476D02*
X165883571Y-141301476D01*
X165669285Y-142551476D02*
X165669285Y-141301476D01*
X167195547Y-145232428D02*
X167957452Y-145232428D01*
X167576500Y-145613380D02*
X167576500Y-144851476D01*
X167259047Y-142057428D02*
X168020952Y-142057428D01*
X167640000Y-142438380D02*
X167640000Y-141676476D01*
X167259047Y-138882428D02*
X168020952Y-138882428D01*
X167640000Y-139263380D02*
X167640000Y-138501476D01*
X167259047Y-135707428D02*
X168020952Y-135707428D01*
X167640000Y-136088380D02*
X167640000Y-135326476D01*
X163349857Y-139523476D02*
X163778428Y-139523476D01*
X163564142Y-140773476D02*
X163564142Y-139523476D01*
X164171285Y-139523476D02*
X164314142Y-139523476D01*
X164385571Y-139583000D01*
X164457000Y-139702047D01*
X164492714Y-139940142D01*
X164492714Y-140356809D01*
X164457000Y-140594904D01*
X164385571Y-140713952D01*
X164314142Y-140773476D01*
X164171285Y-140773476D01*
X164099857Y-140713952D01*
X164028428Y-140594904D01*
X163992714Y-140356809D01*
X163992714Y-139940142D01*
X164028428Y-139702047D01*
X164099857Y-139583000D01*
X164171285Y-139523476D01*
X127658952Y-119578380D02*
X127182761Y-119578380D01*
X127182761Y-118578380D01*
X127992285Y-119054571D02*
X128325619Y-119054571D01*
X128468476Y-119578380D02*
X127992285Y-119578380D01*
X127992285Y-118578380D01*
X128468476Y-118578380D01*
X128897047Y-119578380D02*
X128897047Y-118578380D01*
X129135142Y-118578380D01*
X129278000Y-118626000D01*
X129373238Y-118721238D01*
X129420857Y-118816476D01*
X129468476Y-119006952D01*
X129468476Y-119149809D01*
X129420857Y-119340285D01*
X129373238Y-119435523D01*
X129278000Y-119530761D01*
X129135142Y-119578380D01*
X128897047Y-119578380D01*
X130420857Y-119578380D02*
X129849428Y-119578380D01*
X130135142Y-119578380D02*
X130135142Y-118578380D01*
X130039904Y-118721238D01*
X129944666Y-118816476D01*
X129849428Y-118864095D01*
D19*
X124150571Y-126569476D02*
X124388666Y-126569476D01*
X124507714Y-126629000D01*
X124626761Y-126748047D01*
X124686285Y-126986142D01*
X124686285Y-127402809D01*
X124626761Y-127640904D01*
X124507714Y-127759952D01*
X124388666Y-127819476D01*
X124150571Y-127819476D01*
X124031523Y-127759952D01*
X123912476Y-127640904D01*
X123852952Y-127402809D01*
X123852952Y-126986142D01*
X123912476Y-126748047D01*
X124031523Y-126629000D01*
X124150571Y-126569476D01*
X125222000Y-127819476D02*
X125222000Y-126569476D01*
X125936285Y-127819476D01*
X125936285Y-126569476D01*
X126531523Y-127700428D02*
X126591047Y-127759952D01*
X126531523Y-127819476D01*
X126472000Y-127759952D01*
X126531523Y-127700428D01*
X126531523Y-127819476D01*
X126531523Y-127343285D02*
X126472000Y-126629000D01*
X126531523Y-126569476D01*
X126591047Y-126629000D01*
X126531523Y-127343285D01*
X126531523Y-126569476D01*
D12*
X164234952Y-121610380D02*
X163758761Y-121610380D01*
X163758761Y-120610380D01*
X164568285Y-121086571D02*
X164901619Y-121086571D01*
X165044476Y-121610380D02*
X164568285Y-121610380D01*
X164568285Y-120610380D01*
X165044476Y-120610380D01*
X165473047Y-121610380D02*
X165473047Y-120610380D01*
X165711142Y-120610380D01*
X165854000Y-120658000D01*
X165949238Y-120753238D01*
X165996857Y-120848476D01*
X166044476Y-121038952D01*
X166044476Y-121181809D01*
X165996857Y-121372285D01*
X165949238Y-121467523D01*
X165854000Y-121562761D01*
X165711142Y-121610380D01*
X165473047Y-121610380D01*
X166425428Y-120705619D02*
X166473047Y-120658000D01*
X166568285Y-120610380D01*
X166806380Y-120610380D01*
X166901619Y-120658000D01*
X166949238Y-120705619D01*
X166996857Y-120800857D01*
X166996857Y-120896095D01*
X166949238Y-121038952D01*
X166377809Y-121610380D01*
X166996857Y-121610380D01*
D13*
X163989047Y-123695952D02*
X164131904Y-123755476D01*
X164370000Y-123755476D01*
X164465238Y-123695952D01*
X164512857Y-123636428D01*
X164560476Y-123517380D01*
X164560476Y-123398333D01*
X164512857Y-123279285D01*
X164465238Y-123219761D01*
X164370000Y-123160238D01*
X164179523Y-123100714D01*
X164084285Y-123041190D01*
X164036666Y-122981666D01*
X163989047Y-122862619D01*
X163989047Y-122743571D01*
X164036666Y-122624523D01*
X164084285Y-122565000D01*
X164179523Y-122505476D01*
X164417619Y-122505476D01*
X164560476Y-122565000D01*
X164989047Y-123755476D02*
X164989047Y-122505476D01*
X165989047Y-122565000D02*
X165893809Y-122505476D01*
X165750952Y-122505476D01*
X165608095Y-122565000D01*
X165512857Y-122684047D01*
X165465238Y-122803095D01*
X165417619Y-123041190D01*
X165417619Y-123219761D01*
X165465238Y-123457857D01*
X165512857Y-123576904D01*
X165608095Y-123695952D01*
X165750952Y-123755476D01*
X165846190Y-123755476D01*
X165989047Y-123695952D01*
X166036666Y-123636428D01*
X166036666Y-123219761D01*
X165846190Y-123219761D01*
X166465238Y-123755476D02*
X166465238Y-122505476D01*
X167036666Y-123755476D01*
X167036666Y-122505476D01*
X167465238Y-123398333D02*
X167941428Y-123398333D01*
X167370000Y-123755476D02*
X167703333Y-122505476D01*
X168036666Y-123755476D01*
X168846190Y-123755476D02*
X168370000Y-123755476D01*
X168370000Y-122505476D01*
D12*
X157567333Y-40489142D02*
X157519714Y-40536761D01*
X157376857Y-40584380D01*
X157281619Y-40584380D01*
X157138761Y-40536761D01*
X157043523Y-40441523D01*
X156995904Y-40346285D01*
X156948285Y-40155809D01*
X156948285Y-40012952D01*
X156995904Y-39822476D01*
X157043523Y-39727238D01*
X157138761Y-39632000D01*
X157281619Y-39584380D01*
X157376857Y-39584380D01*
X157519714Y-39632000D01*
X157567333Y-39679619D01*
X158472095Y-39584380D02*
X157995904Y-39584380D01*
X157948285Y-40060571D01*
X157995904Y-40012952D01*
X158091142Y-39965333D01*
X158329238Y-39965333D01*
X158424476Y-40012952D01*
X158472095Y-40060571D01*
X158519714Y-40155809D01*
X158519714Y-40393904D01*
X158472095Y-40489142D01*
X158424476Y-40536761D01*
X158329238Y-40584380D01*
X158091142Y-40584380D01*
X157995904Y-40536761D01*
X157948285Y-40489142D01*
X156329238Y-45410380D02*
X155757809Y-45410380D01*
X156043523Y-45410380D02*
X156043523Y-44410380D01*
X155948285Y-44553238D01*
X155853047Y-44648476D01*
X155757809Y-44696095D01*
X156948285Y-44410380D02*
X157043523Y-44410380D01*
X157138761Y-44458000D01*
X157186380Y-44505619D01*
X157234000Y-44600857D01*
X157281619Y-44791333D01*
X157281619Y-45029428D01*
X157234000Y-45219904D01*
X157186380Y-45315142D01*
X157138761Y-45362761D01*
X157043523Y-45410380D01*
X156948285Y-45410380D01*
X156853047Y-45362761D01*
X156805428Y-45315142D01*
X156757809Y-45219904D01*
X156710190Y-45029428D01*
X156710190Y-44791333D01*
X156757809Y-44600857D01*
X156805428Y-44505619D01*
X156853047Y-44458000D01*
X156948285Y-44410380D01*
X157900666Y-44410380D02*
X157995904Y-44410380D01*
X158091142Y-44458000D01*
X158138761Y-44505619D01*
X158186380Y-44600857D01*
X158234000Y-44791333D01*
X158234000Y-45029428D01*
X158186380Y-45219904D01*
X158138761Y-45315142D01*
X158091142Y-45362761D01*
X157995904Y-45410380D01*
X157900666Y-45410380D01*
X157805428Y-45362761D01*
X157757809Y-45315142D01*
X157710190Y-45219904D01*
X157662571Y-45029428D01*
X157662571Y-44791333D01*
X157710190Y-44600857D01*
X157757809Y-44505619D01*
X157805428Y-44458000D01*
X157900666Y-44410380D01*
X158662571Y-44743714D02*
X158662571Y-45410380D01*
X158662571Y-44838952D02*
X158710190Y-44791333D01*
X158805428Y-44743714D01*
X158948285Y-44743714D01*
X159043523Y-44791333D01*
X159091142Y-44886571D01*
X159091142Y-45410380D01*
X159424476Y-44743714D02*
X159805428Y-44743714D01*
X159567333Y-45410380D02*
X159567333Y-44553238D01*
X159614952Y-44458000D01*
X159710190Y-44410380D01*
X159805428Y-44410380D01*
X140295333Y-56745142D02*
X140247714Y-56792761D01*
X140104857Y-56840380D01*
X140009619Y-56840380D01*
X139866761Y-56792761D01*
X139771523Y-56697523D01*
X139723904Y-56602285D01*
X139676285Y-56411809D01*
X139676285Y-56268952D01*
X139723904Y-56078476D01*
X139771523Y-55983238D01*
X139866761Y-55888000D01*
X140009619Y-55840380D01*
X140104857Y-55840380D01*
X140247714Y-55888000D01*
X140295333Y-55935619D01*
X141247714Y-56840380D02*
X140676285Y-56840380D01*
X140962000Y-56840380D02*
X140962000Y-55840380D01*
X140866761Y-55983238D01*
X140771523Y-56078476D01*
X140676285Y-56126095D01*
X140406571Y-59888380D02*
X139835142Y-59888380D01*
X140120857Y-59888380D02*
X140120857Y-58888380D01*
X140025619Y-59031238D01*
X139930380Y-59126476D01*
X139835142Y-59174095D01*
X141025619Y-58888380D02*
X141120857Y-58888380D01*
X141216095Y-58936000D01*
X141263714Y-58983619D01*
X141311333Y-59078857D01*
X141358952Y-59269333D01*
X141358952Y-59507428D01*
X141311333Y-59697904D01*
X141263714Y-59793142D01*
X141216095Y-59840761D01*
X141120857Y-59888380D01*
X141025619Y-59888380D01*
X140930380Y-59840761D01*
X140882761Y-59793142D01*
X140835142Y-59697904D01*
X140787523Y-59507428D01*
X140787523Y-59269333D01*
X140835142Y-59078857D01*
X140882761Y-58983619D01*
X140930380Y-58936000D01*
X141025619Y-58888380D01*
X142216095Y-59221714D02*
X142216095Y-59888380D01*
X141787523Y-59221714D02*
X141787523Y-59745523D01*
X141835142Y-59840761D01*
X141930380Y-59888380D01*
X142073238Y-59888380D01*
X142168476Y-59840761D01*
X142216095Y-59793142D01*
X143025619Y-59364571D02*
X142692285Y-59364571D01*
X142692285Y-59888380D02*
X142692285Y-58888380D01*
X143168476Y-58888380D01*
X153249333Y-52427142D02*
X153201714Y-52474761D01*
X153058857Y-52522380D01*
X152963619Y-52522380D01*
X152820761Y-52474761D01*
X152725523Y-52379523D01*
X152677904Y-52284285D01*
X152630285Y-52093809D01*
X152630285Y-51950952D01*
X152677904Y-51760476D01*
X152725523Y-51665238D01*
X152820761Y-51570000D01*
X152963619Y-51522380D01*
X153058857Y-51522380D01*
X153201714Y-51570000D01*
X153249333Y-51617619D01*
X153630285Y-51617619D02*
X153677904Y-51570000D01*
X153773142Y-51522380D01*
X154011238Y-51522380D01*
X154106476Y-51570000D01*
X154154095Y-51617619D01*
X154201714Y-51712857D01*
X154201714Y-51808095D01*
X154154095Y-51950952D01*
X153582666Y-52522380D01*
X154201714Y-52522380D01*
X153328761Y-54808380D02*
X152757333Y-54808380D01*
X153043047Y-54808380D02*
X153043047Y-53808380D01*
X152947809Y-53951238D01*
X152852571Y-54046476D01*
X152757333Y-54094095D01*
X154185904Y-54141714D02*
X154185904Y-54808380D01*
X153757333Y-54141714D02*
X153757333Y-54665523D01*
X153804952Y-54760761D01*
X153900190Y-54808380D01*
X154043047Y-54808380D01*
X154138285Y-54760761D01*
X154185904Y-54713142D01*
X154995428Y-54284571D02*
X154662095Y-54284571D01*
X154662095Y-54808380D02*
X154662095Y-53808380D01*
X155138285Y-53808380D01*
X140549333Y-47855142D02*
X140501714Y-47902761D01*
X140358857Y-47950380D01*
X140263619Y-47950380D01*
X140120761Y-47902761D01*
X140025523Y-47807523D01*
X139977904Y-47712285D01*
X139930285Y-47521809D01*
X139930285Y-47378952D01*
X139977904Y-47188476D01*
X140025523Y-47093238D01*
X140120761Y-46998000D01*
X140263619Y-46950380D01*
X140358857Y-46950380D01*
X140501714Y-46998000D01*
X140549333Y-47045619D01*
X140882666Y-46950380D02*
X141501714Y-46950380D01*
X141168380Y-47331333D01*
X141311238Y-47331333D01*
X141406476Y-47378952D01*
X141454095Y-47426571D01*
X141501714Y-47521809D01*
X141501714Y-47759904D01*
X141454095Y-47855142D01*
X141406476Y-47902761D01*
X141311238Y-47950380D01*
X141025523Y-47950380D01*
X140930285Y-47902761D01*
X140882666Y-47855142D01*
X140914571Y-49474380D02*
X140343142Y-49474380D01*
X140628857Y-49474380D02*
X140628857Y-48474380D01*
X140533619Y-48617238D01*
X140438380Y-48712476D01*
X140343142Y-48760095D01*
X141533619Y-48474380D02*
X141628857Y-48474380D01*
X141724095Y-48522000D01*
X141771714Y-48569619D01*
X141819333Y-48664857D01*
X141866952Y-48855333D01*
X141866952Y-49093428D01*
X141819333Y-49283904D01*
X141771714Y-49379142D01*
X141724095Y-49426761D01*
X141628857Y-49474380D01*
X141533619Y-49474380D01*
X141438380Y-49426761D01*
X141390761Y-49379142D01*
X141343142Y-49283904D01*
X141295523Y-49093428D01*
X141295523Y-48855333D01*
X141343142Y-48664857D01*
X141390761Y-48569619D01*
X141438380Y-48522000D01*
X141533619Y-48474380D01*
X142724095Y-48807714D02*
X142724095Y-49474380D01*
X142295523Y-48807714D02*
X142295523Y-49331523D01*
X142343142Y-49426761D01*
X142438380Y-49474380D01*
X142581238Y-49474380D01*
X142676476Y-49426761D01*
X142724095Y-49379142D01*
X143533619Y-48950571D02*
X143200285Y-48950571D01*
X143200285Y-49474380D02*
X143200285Y-48474380D01*
X143676476Y-48474380D01*
X153249333Y-65635142D02*
X153201714Y-65682761D01*
X153058857Y-65730380D01*
X152963619Y-65730380D01*
X152820761Y-65682761D01*
X152725523Y-65587523D01*
X152677904Y-65492285D01*
X152630285Y-65301809D01*
X152630285Y-65158952D01*
X152677904Y-64968476D01*
X152725523Y-64873238D01*
X152820761Y-64778000D01*
X152963619Y-64730380D01*
X153058857Y-64730380D01*
X153201714Y-64778000D01*
X153249333Y-64825619D01*
X154106476Y-65063714D02*
X154106476Y-65730380D01*
X153868380Y-64682761D02*
X153630285Y-65397047D01*
X154249333Y-65397047D01*
X153836761Y-67000380D02*
X153265333Y-67000380D01*
X153551047Y-67000380D02*
X153551047Y-66000380D01*
X153455809Y-66143238D01*
X153360571Y-66238476D01*
X153265333Y-66286095D01*
X154693904Y-66333714D02*
X154693904Y-67000380D01*
X154265333Y-66333714D02*
X154265333Y-66857523D01*
X154312952Y-66952761D01*
X154408190Y-67000380D01*
X154551047Y-67000380D01*
X154646285Y-66952761D01*
X154693904Y-66905142D01*
X155503428Y-66476571D02*
X155170095Y-66476571D01*
X155170095Y-67000380D02*
X155170095Y-66000380D01*
X155646285Y-66000380D01*
X125499904Y-86558380D02*
X125499904Y-85558380D01*
X125738000Y-85558380D01*
X125880857Y-85606000D01*
X125976095Y-85701238D01*
X126023714Y-85796476D01*
X126071333Y-85986952D01*
X126071333Y-86129809D01*
X126023714Y-86320285D01*
X125976095Y-86415523D01*
X125880857Y-86510761D01*
X125738000Y-86558380D01*
X125499904Y-86558380D01*
X126452285Y-85653619D02*
X126499904Y-85606000D01*
X126595142Y-85558380D01*
X126833238Y-85558380D01*
X126928476Y-85606000D01*
X126976095Y-85653619D01*
X127023714Y-85748857D01*
X127023714Y-85844095D01*
X126976095Y-85986952D01*
X126404666Y-86558380D01*
X127023714Y-86558380D01*
X123983904Y-87669714D02*
X123983904Y-88336380D01*
X123745809Y-87288761D02*
X123507714Y-88003047D01*
X124126761Y-88003047D01*
X125031523Y-88336380D02*
X124460095Y-88336380D01*
X124745809Y-88336380D02*
X124745809Y-87336380D01*
X124650571Y-87479238D01*
X124555333Y-87574476D01*
X124460095Y-87622095D01*
X125888666Y-87669714D02*
X125888666Y-88336380D01*
X125650571Y-87288761D02*
X125412476Y-88003047D01*
X126031523Y-88003047D01*
X126555333Y-87764952D02*
X126460095Y-87717333D01*
X126412476Y-87669714D01*
X126364857Y-87574476D01*
X126364857Y-87526857D01*
X126412476Y-87431619D01*
X126460095Y-87384000D01*
X126555333Y-87336380D01*
X126745809Y-87336380D01*
X126841047Y-87384000D01*
X126888666Y-87431619D01*
X126936285Y-87526857D01*
X126936285Y-87574476D01*
X126888666Y-87669714D01*
X126841047Y-87717333D01*
X126745809Y-87764952D01*
X126555333Y-87764952D01*
X126460095Y-87812571D01*
X126412476Y-87860190D01*
X126364857Y-87955428D01*
X126364857Y-88145904D01*
X126412476Y-88241142D01*
X126460095Y-88288761D01*
X126555333Y-88336380D01*
X126745809Y-88336380D01*
X126841047Y-88288761D01*
X126888666Y-88241142D01*
X126936285Y-88145904D01*
X126936285Y-87955428D01*
X126888666Y-87860190D01*
X126841047Y-87812571D01*
X126745809Y-87764952D01*
X125245904Y-81986380D02*
X125245904Y-80986380D01*
X125484000Y-80986380D01*
X125626857Y-81034000D01*
X125722095Y-81129238D01*
X125769714Y-81224476D01*
X125817333Y-81414952D01*
X125817333Y-81557809D01*
X125769714Y-81748285D01*
X125722095Y-81843523D01*
X125626857Y-81938761D01*
X125484000Y-81986380D01*
X125245904Y-81986380D01*
X126769714Y-81986380D02*
X126198285Y-81986380D01*
X126484000Y-81986380D02*
X126484000Y-80986380D01*
X126388761Y-81129238D01*
X126293523Y-81224476D01*
X126198285Y-81272095D01*
X123983904Y-83097714D02*
X123983904Y-83764380D01*
X123745809Y-82716761D02*
X123507714Y-83431047D01*
X124126761Y-83431047D01*
X124698190Y-82764380D02*
X124793428Y-82764380D01*
X124888666Y-82812000D01*
X124936285Y-82859619D01*
X124983904Y-82954857D01*
X125031523Y-83145333D01*
X125031523Y-83383428D01*
X124983904Y-83573904D01*
X124936285Y-83669142D01*
X124888666Y-83716761D01*
X124793428Y-83764380D01*
X124698190Y-83764380D01*
X124602952Y-83716761D01*
X124555333Y-83669142D01*
X124507714Y-83573904D01*
X124460095Y-83383428D01*
X124460095Y-83145333D01*
X124507714Y-82954857D01*
X124555333Y-82859619D01*
X124602952Y-82812000D01*
X124698190Y-82764380D01*
X125650571Y-82764380D02*
X125745809Y-82764380D01*
X125841047Y-82812000D01*
X125888666Y-82859619D01*
X125936285Y-82954857D01*
X125983904Y-83145333D01*
X125983904Y-83383428D01*
X125936285Y-83573904D01*
X125888666Y-83669142D01*
X125841047Y-83716761D01*
X125745809Y-83764380D01*
X125650571Y-83764380D01*
X125555333Y-83716761D01*
X125507714Y-83669142D01*
X125460095Y-83573904D01*
X125412476Y-83383428D01*
X125412476Y-83145333D01*
X125460095Y-82954857D01*
X125507714Y-82859619D01*
X125555333Y-82812000D01*
X125650571Y-82764380D01*
X126364857Y-82859619D02*
X126412476Y-82812000D01*
X126507714Y-82764380D01*
X126745809Y-82764380D01*
X126841047Y-82812000D01*
X126888666Y-82859619D01*
X126936285Y-82954857D01*
X126936285Y-83050095D01*
X126888666Y-83192952D01*
X126317238Y-83764380D01*
X126936285Y-83764380D01*
X168235333Y-130500380D02*
X167902000Y-130024190D01*
X167663904Y-130500380D02*
X167663904Y-129500380D01*
X168044857Y-129500380D01*
X168140095Y-129548000D01*
X168187714Y-129595619D01*
X168235333Y-129690857D01*
X168235333Y-129833714D01*
X168187714Y-129928952D01*
X168140095Y-129976571D01*
X168044857Y-130024190D01*
X167663904Y-130024190D01*
X168806761Y-129928952D02*
X168711523Y-129881333D01*
X168663904Y-129833714D01*
X168616285Y-129738476D01*
X168616285Y-129690857D01*
X168663904Y-129595619D01*
X168711523Y-129548000D01*
X168806761Y-129500380D01*
X168997238Y-129500380D01*
X169092476Y-129548000D01*
X169140095Y-129595619D01*
X169187714Y-129690857D01*
X169187714Y-129738476D01*
X169140095Y-129833714D01*
X169092476Y-129881333D01*
X168997238Y-129928952D01*
X168806761Y-129928952D01*
X168711523Y-129976571D01*
X168663904Y-130024190D01*
X168616285Y-130119428D01*
X168616285Y-130309904D01*
X168663904Y-130405142D01*
X168711523Y-130452761D01*
X168806761Y-130500380D01*
X168997238Y-130500380D01*
X169092476Y-130452761D01*
X169140095Y-130405142D01*
X169187714Y-130309904D01*
X169187714Y-130119428D01*
X169140095Y-130024190D01*
X169092476Y-129976571D01*
X168997238Y-129928952D01*
X168282952Y-128976380D02*
X167711523Y-128976380D01*
X167997238Y-128976380D02*
X167997238Y-127976380D01*
X167902000Y-128119238D01*
X167806761Y-128214476D01*
X167711523Y-128262095D01*
X168711523Y-128976380D02*
X168711523Y-127976380D01*
X168806761Y-128595428D02*
X169092476Y-128976380D01*
X169092476Y-128309714D02*
X168711523Y-128690666D01*
X162769333Y-47470380D02*
X162436000Y-46994190D01*
X162197904Y-47470380D02*
X162197904Y-46470380D01*
X162578857Y-46470380D01*
X162674095Y-46518000D01*
X162721714Y-46565619D01*
X162769333Y-46660857D01*
X162769333Y-46803714D01*
X162721714Y-46898952D01*
X162674095Y-46946571D01*
X162578857Y-46994190D01*
X162197904Y-46994190D01*
X163102666Y-46470380D02*
X163769333Y-46470380D01*
X163340761Y-47470380D01*
X169316952Y-49220380D02*
X168745523Y-49220380D01*
X169031238Y-49220380D02*
X169031238Y-48220380D01*
X168936000Y-48363238D01*
X168840761Y-48458476D01*
X168745523Y-48506095D01*
X169745523Y-49220380D02*
X169745523Y-48220380D01*
X169840761Y-48839428D02*
X170126476Y-49220380D01*
X170126476Y-48553714D02*
X169745523Y-48934666D01*
X162769333Y-65758380D02*
X162436000Y-65282190D01*
X162197904Y-65758380D02*
X162197904Y-64758380D01*
X162578857Y-64758380D01*
X162674095Y-64806000D01*
X162721714Y-64853619D01*
X162769333Y-64948857D01*
X162769333Y-65091714D01*
X162721714Y-65186952D01*
X162674095Y-65234571D01*
X162578857Y-65282190D01*
X162197904Y-65282190D01*
X163626476Y-64758380D02*
X163436000Y-64758380D01*
X163340761Y-64806000D01*
X163293142Y-64853619D01*
X163197904Y-64996476D01*
X163150285Y-65186952D01*
X163150285Y-65567904D01*
X163197904Y-65663142D01*
X163245523Y-65710761D01*
X163340761Y-65758380D01*
X163531238Y-65758380D01*
X163626476Y-65710761D01*
X163674095Y-65663142D01*
X163721714Y-65567904D01*
X163721714Y-65329809D01*
X163674095Y-65234571D01*
X163626476Y-65186952D01*
X163531238Y-65139333D01*
X163340761Y-65139333D01*
X163245523Y-65186952D01*
X163197904Y-65234571D01*
X163150285Y-65329809D01*
X169316952Y-67508380D02*
X168745523Y-67508380D01*
X169031238Y-67508380D02*
X169031238Y-66508380D01*
X168936000Y-66651238D01*
X168840761Y-66746476D01*
X168745523Y-66794095D01*
X169745523Y-67508380D02*
X169745523Y-66508380D01*
X169840761Y-67127428D02*
X170126476Y-67508380D01*
X170126476Y-66841714D02*
X169745523Y-67222666D01*
X162769333Y-61440380D02*
X162436000Y-60964190D01*
X162197904Y-61440380D02*
X162197904Y-60440380D01*
X162578857Y-60440380D01*
X162674095Y-60488000D01*
X162721714Y-60535619D01*
X162769333Y-60630857D01*
X162769333Y-60773714D01*
X162721714Y-60868952D01*
X162674095Y-60916571D01*
X162578857Y-60964190D01*
X162197904Y-60964190D01*
X163674095Y-60440380D02*
X163197904Y-60440380D01*
X163150285Y-60916571D01*
X163197904Y-60868952D01*
X163293142Y-60821333D01*
X163531238Y-60821333D01*
X163626476Y-60868952D01*
X163674095Y-60916571D01*
X163721714Y-61011809D01*
X163721714Y-61249904D01*
X163674095Y-61345142D01*
X163626476Y-61392761D01*
X163531238Y-61440380D01*
X163293142Y-61440380D01*
X163197904Y-61392761D01*
X163150285Y-61345142D01*
X169316952Y-63190380D02*
X168745523Y-63190380D01*
X169031238Y-63190380D02*
X169031238Y-62190380D01*
X168936000Y-62333238D01*
X168840761Y-62428476D01*
X168745523Y-62476095D01*
X169745523Y-63190380D02*
X169745523Y-62190380D01*
X169840761Y-62809428D02*
X170126476Y-63190380D01*
X170126476Y-62523714D02*
X169745523Y-62904666D01*
X162769333Y-79474380D02*
X162436000Y-78998190D01*
X162197904Y-79474380D02*
X162197904Y-78474380D01*
X162578857Y-78474380D01*
X162674095Y-78522000D01*
X162721714Y-78569619D01*
X162769333Y-78664857D01*
X162769333Y-78807714D01*
X162721714Y-78902952D01*
X162674095Y-78950571D01*
X162578857Y-78998190D01*
X162197904Y-78998190D01*
X163626476Y-78807714D02*
X163626476Y-79474380D01*
X163388380Y-78426761D02*
X163150285Y-79141047D01*
X163769333Y-79141047D01*
X168364571Y-81224380D02*
X167793142Y-81224380D01*
X168078857Y-81224380D02*
X168078857Y-80224380D01*
X167983619Y-80367238D01*
X167888380Y-80462476D01*
X167793142Y-80510095D01*
X168983619Y-80224380D02*
X169078857Y-80224380D01*
X169174095Y-80272000D01*
X169221714Y-80319619D01*
X169269333Y-80414857D01*
X169316952Y-80605333D01*
X169316952Y-80843428D01*
X169269333Y-81033904D01*
X169221714Y-81129142D01*
X169174095Y-81176761D01*
X169078857Y-81224380D01*
X168983619Y-81224380D01*
X168888380Y-81176761D01*
X168840761Y-81129142D01*
X168793142Y-81033904D01*
X168745523Y-80843428D01*
X168745523Y-80605333D01*
X168793142Y-80414857D01*
X168840761Y-80319619D01*
X168888380Y-80272000D01*
X168983619Y-80224380D01*
X169936000Y-80224380D02*
X170031238Y-80224380D01*
X170126476Y-80272000D01*
X170174095Y-80319619D01*
X170221714Y-80414857D01*
X170269333Y-80605333D01*
X170269333Y-80843428D01*
X170221714Y-81033904D01*
X170174095Y-81129142D01*
X170126476Y-81176761D01*
X170031238Y-81224380D01*
X169936000Y-81224380D01*
X169840761Y-81176761D01*
X169793142Y-81129142D01*
X169745523Y-81033904D01*
X169697904Y-80843428D01*
X169697904Y-80605333D01*
X169745523Y-80414857D01*
X169793142Y-80319619D01*
X169840761Y-80272000D01*
X169936000Y-80224380D01*
X170697904Y-81224380D02*
X170697904Y-80224380D01*
X170793142Y-80843428D02*
X171078857Y-81224380D01*
X171078857Y-80557714D02*
X170697904Y-80938666D01*
X127595333Y-111958380D02*
X127262000Y-111482190D01*
X127023904Y-111958380D02*
X127023904Y-110958380D01*
X127404857Y-110958380D01*
X127500095Y-111006000D01*
X127547714Y-111053619D01*
X127595333Y-111148857D01*
X127595333Y-111291714D01*
X127547714Y-111386952D01*
X127500095Y-111434571D01*
X127404857Y-111482190D01*
X127023904Y-111482190D01*
X127928666Y-110958380D02*
X128547714Y-110958380D01*
X128214380Y-111339333D01*
X128357238Y-111339333D01*
X128452476Y-111386952D01*
X128500095Y-111434571D01*
X128547714Y-111529809D01*
X128547714Y-111767904D01*
X128500095Y-111863142D01*
X128452476Y-111910761D01*
X128357238Y-111958380D01*
X128071523Y-111958380D01*
X127976285Y-111910761D01*
X127928666Y-111863142D01*
X127420761Y-113482380D02*
X126849333Y-113482380D01*
X127135047Y-113482380D02*
X127135047Y-112482380D01*
X127039809Y-112625238D01*
X126944571Y-112720476D01*
X126849333Y-112768095D01*
X128039809Y-112482380D02*
X128135047Y-112482380D01*
X128230285Y-112530000D01*
X128277904Y-112577619D01*
X128325523Y-112672857D01*
X128373142Y-112863333D01*
X128373142Y-113101428D01*
X128325523Y-113291904D01*
X128277904Y-113387142D01*
X128230285Y-113434761D01*
X128135047Y-113482380D01*
X128039809Y-113482380D01*
X127944571Y-113434761D01*
X127896952Y-113387142D01*
X127849333Y-113291904D01*
X127801714Y-113101428D01*
X127801714Y-112863333D01*
X127849333Y-112672857D01*
X127896952Y-112577619D01*
X127944571Y-112530000D01*
X128039809Y-112482380D01*
X128801714Y-113482380D02*
X128801714Y-112482380D01*
X128896952Y-113101428D02*
X129182666Y-113482380D01*
X129182666Y-112815714D02*
X128801714Y-113196666D01*
X162769333Y-74952380D02*
X162436000Y-74476190D01*
X162197904Y-74952380D02*
X162197904Y-73952380D01*
X162578857Y-73952380D01*
X162674095Y-74000000D01*
X162721714Y-74047619D01*
X162769333Y-74142857D01*
X162769333Y-74285714D01*
X162721714Y-74380952D01*
X162674095Y-74428571D01*
X162578857Y-74476190D01*
X162197904Y-74476190D01*
X163150285Y-74047619D02*
X163197904Y-74000000D01*
X163293142Y-73952380D01*
X163531238Y-73952380D01*
X163626476Y-74000000D01*
X163674095Y-74047619D01*
X163721714Y-74142857D01*
X163721714Y-74238095D01*
X163674095Y-74380952D01*
X163102666Y-74952380D01*
X163721714Y-74952380D01*
X169316952Y-76702380D02*
X168745523Y-76702380D01*
X169031238Y-76702380D02*
X169031238Y-75702380D01*
X168936000Y-75845238D01*
X168840761Y-75940476D01*
X168745523Y-75988095D01*
X169745523Y-76702380D02*
X169745523Y-75702380D01*
X169840761Y-76321428D02*
X170126476Y-76702380D01*
X170126476Y-76035714D02*
X169745523Y-76416666D01*
X162769333Y-52042380D02*
X162436000Y-51566190D01*
X162197904Y-52042380D02*
X162197904Y-51042380D01*
X162578857Y-51042380D01*
X162674095Y-51090000D01*
X162721714Y-51137619D01*
X162769333Y-51232857D01*
X162769333Y-51375714D01*
X162721714Y-51470952D01*
X162674095Y-51518571D01*
X162578857Y-51566190D01*
X162197904Y-51566190D01*
X163721714Y-52042380D02*
X163150285Y-52042380D01*
X163436000Y-52042380D02*
X163436000Y-51042380D01*
X163340761Y-51185238D01*
X163245523Y-51280476D01*
X163150285Y-51328095D01*
X169316952Y-53792380D02*
X168745523Y-53792380D01*
X169031238Y-53792380D02*
X169031238Y-52792380D01*
X168936000Y-52935238D01*
X168840761Y-53030476D01*
X168745523Y-53078095D01*
X169745523Y-53792380D02*
X169745523Y-52792380D01*
X169840761Y-53411428D02*
X170126476Y-53792380D01*
X170126476Y-53125714D02*
X169745523Y-53506666D01*
X162769333Y-56614380D02*
X162436000Y-56138190D01*
X162197904Y-56614380D02*
X162197904Y-55614380D01*
X162578857Y-55614380D01*
X162674095Y-55662000D01*
X162721714Y-55709619D01*
X162769333Y-55804857D01*
X162769333Y-55947714D01*
X162721714Y-56042952D01*
X162674095Y-56090571D01*
X162578857Y-56138190D01*
X162197904Y-56138190D01*
X163245523Y-56614380D02*
X163436000Y-56614380D01*
X163531238Y-56566761D01*
X163578857Y-56519142D01*
X163674095Y-56376285D01*
X163721714Y-56185809D01*
X163721714Y-55804857D01*
X163674095Y-55709619D01*
X163626476Y-55662000D01*
X163531238Y-55614380D01*
X163340761Y-55614380D01*
X163245523Y-55662000D01*
X163197904Y-55709619D01*
X163150285Y-55804857D01*
X163150285Y-56042952D01*
X163197904Y-56138190D01*
X163245523Y-56185809D01*
X163340761Y-56233428D01*
X163531238Y-56233428D01*
X163626476Y-56185809D01*
X163674095Y-56138190D01*
X163721714Y-56042952D01*
X169316952Y-58364380D02*
X168745523Y-58364380D01*
X169031238Y-58364380D02*
X169031238Y-57364380D01*
X168936000Y-57507238D01*
X168840761Y-57602476D01*
X168745523Y-57650095D01*
X169745523Y-58364380D02*
X169745523Y-57364380D01*
X169840761Y-57983428D02*
X170126476Y-58364380D01*
X170126476Y-57697714D02*
X169745523Y-58078666D01*
X125984095Y-56094380D02*
X125984095Y-56903904D01*
X126031714Y-56999142D01*
X126079333Y-57046761D01*
X126174571Y-57094380D01*
X126365047Y-57094380D01*
X126460285Y-57046761D01*
X126507904Y-56999142D01*
X126555523Y-56903904D01*
X126555523Y-56094380D01*
X126936476Y-56094380D02*
X127555523Y-56094380D01*
X127222190Y-56475333D01*
X127365047Y-56475333D01*
X127460285Y-56522952D01*
X127507904Y-56570571D01*
X127555523Y-56665809D01*
X127555523Y-56903904D01*
X127507904Y-56999142D01*
X127460285Y-57046761D01*
X127365047Y-57094380D01*
X127079333Y-57094380D01*
X126984095Y-57046761D01*
X126936476Y-56999142D01*
X124579333Y-48982380D02*
X125246000Y-48982380D01*
X124817428Y-49982380D01*
X125769809Y-49410952D02*
X125674571Y-49363333D01*
X125626952Y-49315714D01*
X125579333Y-49220476D01*
X125579333Y-49172857D01*
X125626952Y-49077619D01*
X125674571Y-49030000D01*
X125769809Y-48982380D01*
X125960285Y-48982380D01*
X126055523Y-49030000D01*
X126103142Y-49077619D01*
X126150761Y-49172857D01*
X126150761Y-49220476D01*
X126103142Y-49315714D01*
X126055523Y-49363333D01*
X125960285Y-49410952D01*
X125769809Y-49410952D01*
X125674571Y-49458571D01*
X125626952Y-49506190D01*
X125579333Y-49601428D01*
X125579333Y-49791904D01*
X125626952Y-49887142D01*
X125674571Y-49934761D01*
X125769809Y-49982380D01*
X125960285Y-49982380D01*
X126055523Y-49934761D01*
X126103142Y-49887142D01*
X126150761Y-49791904D01*
X126150761Y-49601428D01*
X126103142Y-49506190D01*
X126055523Y-49458571D01*
X125960285Y-49410952D01*
X127055523Y-49982380D02*
X126579333Y-49982380D01*
X126579333Y-48982380D01*
X127579333Y-48982380D02*
X127674571Y-48982380D01*
X127769809Y-49030000D01*
X127817428Y-49077619D01*
X127865047Y-49172857D01*
X127912666Y-49363333D01*
X127912666Y-49601428D01*
X127865047Y-49791904D01*
X127817428Y-49887142D01*
X127769809Y-49934761D01*
X127674571Y-49982380D01*
X127579333Y-49982380D01*
X127484095Y-49934761D01*
X127436476Y-49887142D01*
X127388857Y-49791904D01*
X127341238Y-49601428D01*
X127341238Y-49363333D01*
X127388857Y-49172857D01*
X127436476Y-49077619D01*
X127484095Y-49030000D01*
X127579333Y-48982380D01*
X128817428Y-48982380D02*
X128341238Y-48982380D01*
X128293619Y-49458571D01*
X128341238Y-49410952D01*
X128436476Y-49363333D01*
X128674571Y-49363333D01*
X128769809Y-49410952D01*
X128817428Y-49458571D01*
X128865047Y-49553809D01*
X128865047Y-49791904D01*
X128817428Y-49887142D01*
X128769809Y-49934761D01*
X128674571Y-49982380D01*
X128436476Y-49982380D01*
X128341238Y-49934761D01*
X128293619Y-49887142D01*
D17*
X159556142Y-107624571D02*
X159556142Y-106124571D01*
X159913285Y-106124571D01*
X160127571Y-106196000D01*
X160270428Y-106338857D01*
X160341857Y-106481714D01*
X160413285Y-106767428D01*
X160413285Y-106981714D01*
X160341857Y-107267428D01*
X160270428Y-107410285D01*
X160127571Y-107553142D01*
X159913285Y-107624571D01*
X159556142Y-107624571D01*
X161056142Y-106838857D02*
X161556142Y-106838857D01*
X161770428Y-107624571D02*
X161056142Y-107624571D01*
X161056142Y-106124571D01*
X161770428Y-106124571D01*
X163270428Y-107481714D02*
X163199000Y-107553142D01*
X162984714Y-107624571D01*
X162841857Y-107624571D01*
X162627571Y-107553142D01*
X162484714Y-107410285D01*
X162413285Y-107267428D01*
X162341857Y-106981714D01*
X162341857Y-106767428D01*
X162413285Y-106481714D01*
X162484714Y-106338857D01*
X162627571Y-106196000D01*
X162841857Y-106124571D01*
X162984714Y-106124571D01*
X163199000Y-106196000D01*
X163270428Y-106267428D01*
X163841857Y-107196000D02*
X164556142Y-107196000D01*
X163699000Y-107624571D02*
X164199000Y-106124571D01*
X164699000Y-107624571D01*
X165484714Y-106910285D02*
X165484714Y-107624571D01*
X164984714Y-106124571D02*
X165484714Y-106910285D01*
X165984714Y-106124571D01*
X167270428Y-107624571D02*
X166413285Y-107624571D01*
X166841857Y-107624571D02*
X166841857Y-106124571D01*
X166699000Y-106338857D01*
X166556142Y-106481714D01*
X166413285Y-106553142D01*
D12*
X161831976Y-109140666D02*
X162308166Y-109140666D01*
X161736738Y-109426380D02*
X162070071Y-108426380D01*
X162403404Y-109426380D01*
X163260547Y-109426380D02*
X162689119Y-109426380D01*
X162974833Y-109426380D02*
X162974833Y-108426380D01*
X162879595Y-108569238D01*
X162784357Y-108664476D01*
X162689119Y-108712095D01*
X163689119Y-109426380D02*
X163689119Y-108426380D01*
X164022452Y-109140666D01*
X164355785Y-108426380D01*
X164355785Y-109426380D01*
D17*
X130286619Y-107382476D02*
X130286619Y-106132476D01*
X130762809Y-106132476D01*
X130881857Y-106192000D01*
X130941380Y-106251523D01*
X131000904Y-106370571D01*
X131000904Y-106549142D01*
X130941380Y-106668190D01*
X130881857Y-106727714D01*
X130762809Y-106787238D01*
X130286619Y-106787238D01*
X131536619Y-107382476D02*
X131536619Y-106132476D01*
X131953285Y-106132476D02*
X132667571Y-106132476D01*
X132310428Y-107382476D02*
X132310428Y-106132476D01*
X133798523Y-107263428D02*
X133739000Y-107322952D01*
X133560428Y-107382476D01*
X133441380Y-107382476D01*
X133262809Y-107322952D01*
X133143761Y-107203904D01*
X133084238Y-107084857D01*
X133024714Y-106846761D01*
X133024714Y-106668190D01*
X133084238Y-106430095D01*
X133143761Y-106311047D01*
X133262809Y-106192000D01*
X133441380Y-106132476D01*
X133560428Y-106132476D01*
X133739000Y-106192000D01*
X133798523Y-106251523D01*
X134334238Y-107382476D02*
X134334238Y-106132476D01*
X134334238Y-106727714D02*
X135048523Y-106727714D01*
X135048523Y-107382476D02*
X135048523Y-106132476D01*
X136298523Y-107382476D02*
X135584238Y-107382476D01*
X135941380Y-107382476D02*
X135941380Y-106132476D01*
X135822333Y-106311047D01*
X135703285Y-106430095D01*
X135584238Y-106489619D01*
D12*
X131478928Y-108648571D02*
X131621785Y-108696190D01*
X131669404Y-108743809D01*
X131717023Y-108839047D01*
X131717023Y-108981904D01*
X131669404Y-109077142D01*
X131621785Y-109124761D01*
X131526547Y-109172380D01*
X131145595Y-109172380D01*
X131145595Y-108172380D01*
X131478928Y-108172380D01*
X131574166Y-108220000D01*
X131621785Y-108267619D01*
X131669404Y-108362857D01*
X131669404Y-108458095D01*
X131621785Y-108553333D01*
X131574166Y-108600952D01*
X131478928Y-108648571D01*
X131145595Y-108648571D01*
X132621785Y-108172380D02*
X132145595Y-108172380D01*
X132097976Y-108648571D01*
X132145595Y-108600952D01*
X132240833Y-108553333D01*
X132478928Y-108553333D01*
X132574166Y-108600952D01*
X132621785Y-108648571D01*
X132669404Y-108743809D01*
X132669404Y-108981904D01*
X132621785Y-109077142D01*
X132574166Y-109124761D01*
X132478928Y-109172380D01*
X132240833Y-109172380D01*
X132145595Y-109124761D01*
X132097976Y-109077142D01*
X133288452Y-108172380D02*
X133383690Y-108172380D01*
X133478928Y-108220000D01*
X133526547Y-108267619D01*
X133574166Y-108362857D01*
X133621785Y-108553333D01*
X133621785Y-108791428D01*
X133574166Y-108981904D01*
X133526547Y-109077142D01*
X133478928Y-109124761D01*
X133383690Y-109172380D01*
X133288452Y-109172380D01*
X133193214Y-109124761D01*
X133145595Y-109077142D01*
X133097976Y-108981904D01*
X133050357Y-108791428D01*
X133050357Y-108553333D01*
X133097976Y-108362857D01*
X133145595Y-108267619D01*
X133193214Y-108220000D01*
X133288452Y-108172380D01*
X134050357Y-109172380D02*
X134050357Y-108172380D01*
X134145595Y-108791428D02*
X134431309Y-109172380D01*
X134431309Y-108505714D02*
X134050357Y-108886666D01*
D17*
X142165095Y-91828952D02*
X142343666Y-91888476D01*
X142641285Y-91888476D01*
X142760333Y-91828952D01*
X142819857Y-91769428D01*
X142879380Y-91650380D01*
X142879380Y-91531333D01*
X142819857Y-91412285D01*
X142760333Y-91352761D01*
X142641285Y-91293238D01*
X142403190Y-91233714D01*
X142284142Y-91174190D01*
X142224619Y-91114666D01*
X142165095Y-90995619D01*
X142165095Y-90876571D01*
X142224619Y-90757523D01*
X142284142Y-90698000D01*
X142403190Y-90638476D01*
X142700809Y-90638476D01*
X142879380Y-90698000D01*
X143415095Y-91233714D02*
X143831761Y-91233714D01*
X144010333Y-91888476D02*
X143415095Y-91888476D01*
X143415095Y-90638476D01*
X144010333Y-90638476D01*
X144546047Y-91888476D02*
X144546047Y-90638476D01*
X145260333Y-91888476D01*
X145260333Y-90638476D01*
X145796047Y-91828952D02*
X145974619Y-91888476D01*
X146272238Y-91888476D01*
X146391285Y-91828952D01*
X146450809Y-91769428D01*
X146510333Y-91650380D01*
X146510333Y-91531333D01*
X146450809Y-91412285D01*
X146391285Y-91352761D01*
X146272238Y-91293238D01*
X146034142Y-91233714D01*
X145915095Y-91174190D01*
X145855571Y-91114666D01*
X145796047Y-90995619D01*
X145796047Y-90876571D01*
X145855571Y-90757523D01*
X145915095Y-90698000D01*
X146034142Y-90638476D01*
X146331761Y-90638476D01*
X146510333Y-90698000D01*
X147046047Y-91888476D02*
X147046047Y-90638476D01*
X147462714Y-90638476D02*
X148177000Y-90638476D01*
X147819857Y-91888476D02*
X147819857Y-90638476D01*
X148593666Y-91888476D02*
X148593666Y-90638476D01*
X149010333Y-90638476D02*
X149427000Y-91888476D01*
X149843666Y-90638476D01*
X150260333Y-91888476D02*
X150260333Y-90638476D01*
X150677000Y-90638476D02*
X151391285Y-90638476D01*
X151034142Y-91888476D02*
X151034142Y-90638476D01*
X152046047Y-91293238D02*
X152046047Y-91888476D01*
X151629380Y-90638476D02*
X152046047Y-91293238D01*
X152462714Y-90638476D01*
X153534142Y-91888476D02*
X152819857Y-91888476D01*
X153177000Y-91888476D02*
X153177000Y-90638476D01*
X153057952Y-90817047D01*
X152938904Y-90936095D01*
X152819857Y-90995619D01*
D12*
X145956928Y-92900571D02*
X146099785Y-92948190D01*
X146147404Y-92995809D01*
X146195023Y-93091047D01*
X146195023Y-93233904D01*
X146147404Y-93329142D01*
X146099785Y-93376761D01*
X146004547Y-93424380D01*
X145623595Y-93424380D01*
X145623595Y-92424380D01*
X145956928Y-92424380D01*
X146052166Y-92472000D01*
X146099785Y-92519619D01*
X146147404Y-92614857D01*
X146147404Y-92710095D01*
X146099785Y-92805333D01*
X146052166Y-92852952D01*
X145956928Y-92900571D01*
X145623595Y-92900571D01*
X147147404Y-93424380D02*
X146575976Y-93424380D01*
X146861690Y-93424380D02*
X146861690Y-92424380D01*
X146766452Y-92567238D01*
X146671214Y-92662476D01*
X146575976Y-92710095D01*
X147766452Y-92424380D02*
X147861690Y-92424380D01*
X147956928Y-92472000D01*
X148004547Y-92519619D01*
X148052166Y-92614857D01*
X148099785Y-92805333D01*
X148099785Y-93043428D01*
X148052166Y-93233904D01*
X148004547Y-93329142D01*
X147956928Y-93376761D01*
X147861690Y-93424380D01*
X147766452Y-93424380D01*
X147671214Y-93376761D01*
X147623595Y-93329142D01*
X147575976Y-93233904D01*
X147528357Y-93043428D01*
X147528357Y-92805333D01*
X147575976Y-92614857D01*
X147623595Y-92519619D01*
X147671214Y-92472000D01*
X147766452Y-92424380D01*
X148718833Y-92424380D02*
X148814071Y-92424380D01*
X148909309Y-92472000D01*
X148956928Y-92519619D01*
X149004547Y-92614857D01*
X149052166Y-92805333D01*
X149052166Y-93043428D01*
X149004547Y-93233904D01*
X148956928Y-93329142D01*
X148909309Y-93376761D01*
X148814071Y-93424380D01*
X148718833Y-93424380D01*
X148623595Y-93376761D01*
X148575976Y-93329142D01*
X148528357Y-93233904D01*
X148480738Y-93043428D01*
X148480738Y-92805333D01*
X148528357Y-92614857D01*
X148575976Y-92519619D01*
X148623595Y-92472000D01*
X148718833Y-92424380D01*
X149480738Y-93424380D02*
X149480738Y-92424380D01*
X149575976Y-93043428D02*
X149861690Y-93424380D01*
X149861690Y-92757714D02*
X149480738Y-93138666D01*
M02*
