G04 #@! TF.GenerationSoftware,KiCad,Pcbnew,(5.0.0-rc2-dev-311-g1dd4af297)*
G04 #@! TF.CreationDate,2018-03-30T01:51:19-07:00*
G04 #@! TF.ProjectId,workshop_drum1.1,776F726B73686F705F6472756D312E31,rev?*
G04 #@! TF.SameCoordinates,Original*
G04 #@! TF.FileFunction,Legend,Top*
G04 #@! TF.FilePolarity,Positive*
%FSLAX46Y46*%
G04 Gerber Fmt 4.6, Leading zero omitted, Abs format (unit mm)*
G04 Created by KiCad (PCBNEW (5.0.0-rc2-dev-311-g1dd4af297)) date 03/30/18 01:51:19*
%MOMM*%
%LPD*%
G01*
G04 APERTURE LIST*
%ADD10C,0.150000*%
%ADD11C,0.250000*%
%ADD12C,0.120000*%
%ADD13C,0.350000*%
%ADD14C,0.127000*%
%ADD15C,0.125000*%
%ADD16C,0.190500*%
%ADD17C,0.062500*%
%ADD18C,0.100000*%
%ADD19C,0.152400*%
%ADD20C,0.050000*%
G04 APERTURE END LIST*
D10*
X138557000Y-124841000D02*
X138557000Y-125984000D01*
X142875000Y-124841000D02*
X141732000Y-125603000D01*
X148717000Y-124841000D02*
X148717000Y-125984000D01*
X136652000Y-124079000D02*
X137795000Y-124841000D01*
X136017000Y-124841000D02*
X136652000Y-124841000D01*
X141732000Y-124841000D02*
X141732000Y-124079000D01*
X143129000Y-124841000D02*
G75*
G03X143129000Y-124841000I-127000J0D01*
G01*
X146177000Y-125984000D02*
X146177000Y-124841000D01*
X148209000Y-124841000D02*
G75*
G03X148209000Y-124841000I-127000J0D01*
G01*
X148209000Y-124841000D02*
X148717000Y-124841000D01*
X141732000Y-125603000D02*
X141732000Y-124841000D01*
X143129000Y-124841000D02*
X143637000Y-124841000D01*
X136652000Y-124841000D02*
X136652000Y-124079000D01*
X137795000Y-124841000D02*
X136652000Y-125603000D01*
X136652000Y-125603000D02*
X136652000Y-124841000D01*
X138049000Y-124841000D02*
X138557000Y-124841000D01*
X143637000Y-124841000D02*
X143637000Y-125984000D01*
X146812000Y-124841000D02*
X146812000Y-124079000D01*
X141732000Y-124079000D02*
X142875000Y-124841000D01*
X136017000Y-125984000D02*
X136017000Y-124841000D01*
X138049000Y-124841000D02*
G75*
G03X138049000Y-124841000I-127000J0D01*
G01*
X141097000Y-124841000D02*
X141732000Y-124841000D01*
X141097000Y-125984000D02*
X141097000Y-124841000D01*
X146177000Y-124841000D02*
X146812000Y-124841000D01*
X146812000Y-124079000D02*
X147955000Y-124841000D01*
X146812000Y-125603000D02*
X146812000Y-124841000D01*
X147955000Y-124841000D02*
X146812000Y-125603000D01*
X150939500Y-125349000D02*
X151447500Y-125349000D01*
X151257000Y-125730000D02*
X151130000Y-125730000D01*
X151193500Y-124968000D02*
X151193500Y-124206000D01*
X151828500Y-124968000D02*
X150558500Y-124968000D01*
D11*
X133985000Y-118745000D02*
X133985000Y-121285000D01*
X133985000Y-116205000D02*
X133985000Y-113665000D01*
X133985000Y-113665000D02*
X134620000Y-113665000D01*
X133985000Y-116205000D02*
G75*
G02X133985000Y-118745000I0J-1270000D01*
G01*
X134620000Y-121285000D02*
X133985000Y-121285000D01*
X153035000Y-113665000D02*
X152400000Y-113665000D01*
X153035000Y-121285000D02*
X153035000Y-113665000D01*
X152400000Y-121285000D02*
X153035000Y-121285000D01*
D10*
X165798500Y-149733000D02*
X164528500Y-149733000D01*
X164909500Y-150114000D02*
X165417500Y-150114000D01*
X165163500Y-149733000D02*
X165163500Y-148971000D01*
X165227000Y-150495000D02*
X165100000Y-150495000D01*
X154051000Y-150495000D02*
X153924000Y-150495000D01*
X154622500Y-149733000D02*
X153352500Y-149733000D01*
X153733500Y-150114000D02*
X154241500Y-150114000D01*
X153987500Y-149733000D02*
X153987500Y-148971000D01*
X142621000Y-150495000D02*
X142494000Y-150495000D01*
X143192500Y-149733000D02*
X141922500Y-149733000D01*
X142303500Y-150114000D02*
X142811500Y-150114000D01*
X142557500Y-149733000D02*
X142557500Y-148971000D01*
X131064000Y-149796500D02*
X131064000Y-149034500D01*
X131127500Y-150558500D02*
X131000500Y-150558500D01*
X130810000Y-150177500D02*
X131318000Y-150177500D01*
X131699000Y-149796500D02*
X130429000Y-149796500D01*
D11*
X168910000Y-148590000D02*
X168910000Y-151130000D01*
X168910000Y-151130000D02*
X132080000Y-151130000D01*
X134620000Y-148590000D02*
X168910000Y-148590000D01*
D10*
X156845000Y-145669000D02*
X156845000Y-144907000D01*
X139446000Y-145161000D02*
X139700000Y-144907000D01*
X151130000Y-144907000D02*
X151384000Y-145161000D01*
X156845000Y-145669000D02*
X156591000Y-145415000D01*
X145669000Y-145415000D02*
X145415000Y-145669000D01*
X145415000Y-145669000D02*
X145415000Y-144907000D01*
X145415000Y-145669000D02*
X145161000Y-145415000D01*
X157099000Y-145415000D02*
X156845000Y-145669000D01*
X151130000Y-144907000D02*
X151130000Y-145669000D01*
X145161000Y-145415000D02*
X145669000Y-145415000D01*
X150876000Y-145161000D02*
X151130000Y-144907000D01*
X151384000Y-145161000D02*
X150876000Y-145161000D01*
X139700000Y-144907000D02*
X139700000Y-145669000D01*
X139700000Y-144907000D02*
X139954000Y-145161000D01*
X156591000Y-145415000D02*
X157099000Y-145415000D01*
X139954000Y-145161000D02*
X139446000Y-145161000D01*
X157099000Y-142240000D02*
X156845000Y-142494000D01*
X145669000Y-142240000D02*
X145415000Y-142494000D01*
X145415000Y-142494000D02*
X145415000Y-141732000D01*
X139700000Y-141732000D02*
X139954000Y-141986000D01*
X151130000Y-141732000D02*
X151130000Y-142494000D01*
X156845000Y-142494000D02*
X156845000Y-141732000D01*
X139446000Y-141986000D02*
X139700000Y-141732000D01*
X139954000Y-141986000D02*
X139446000Y-141986000D01*
X151384000Y-141986000D02*
X150876000Y-141986000D01*
X145161000Y-142240000D02*
X145669000Y-142240000D01*
X145415000Y-142494000D02*
X145161000Y-142240000D01*
X139700000Y-141732000D02*
X139700000Y-142494000D01*
X151130000Y-141732000D02*
X151384000Y-141986000D01*
X150876000Y-141986000D02*
X151130000Y-141732000D01*
X156845000Y-142494000D02*
X156591000Y-142240000D01*
X156591000Y-142240000D02*
X157099000Y-142240000D01*
X139954000Y-138811000D02*
X139446000Y-138811000D01*
X145669000Y-139065000D02*
X145415000Y-139319000D01*
X151384000Y-138811000D02*
X150876000Y-138811000D01*
X139700000Y-138557000D02*
X139954000Y-138811000D01*
X145161000Y-139065000D02*
X145669000Y-139065000D01*
X139446000Y-138811000D02*
X139700000Y-138557000D01*
X145415000Y-139319000D02*
X145161000Y-139065000D01*
X139700000Y-138557000D02*
X139700000Y-139319000D01*
X145415000Y-139319000D02*
X145415000Y-138557000D01*
X151130000Y-138557000D02*
X151384000Y-138811000D01*
X150876000Y-138811000D02*
X151130000Y-138557000D01*
X151130000Y-138557000D02*
X151130000Y-139319000D01*
X157099000Y-139065000D02*
X156845000Y-139319000D01*
X156845000Y-139319000D02*
X156845000Y-138557000D01*
X156845000Y-139319000D02*
X156591000Y-139065000D01*
X156591000Y-139065000D02*
X157099000Y-139065000D01*
X145415000Y-136144000D02*
X145161000Y-135890000D01*
X151130000Y-135382000D02*
X151384000Y-135636000D01*
X151384000Y-135636000D02*
X150876000Y-135636000D01*
X139446000Y-135636000D02*
X139700000Y-135382000D01*
X139954000Y-135636000D02*
X139446000Y-135636000D01*
X139700000Y-135382000D02*
X139954000Y-135636000D01*
X139700000Y-135382000D02*
X139700000Y-136144000D01*
X145161000Y-135890000D02*
X145669000Y-135890000D01*
X145415000Y-136144000D02*
X145415000Y-135382000D01*
X145669000Y-135890000D02*
X145415000Y-136144000D01*
X150876000Y-135636000D02*
X151130000Y-135382000D01*
X151130000Y-135382000D02*
X151130000Y-136144000D01*
X157099000Y-135890000D02*
X156845000Y-136144000D01*
X156845000Y-136144000D02*
X156845000Y-135382000D01*
X156845000Y-136144000D02*
X156591000Y-135890000D01*
X156591000Y-135890000D02*
X157099000Y-135890000D01*
X133985000Y-135763000D02*
X133731000Y-135509000D01*
X133985000Y-135763000D02*
X133985000Y-135001000D01*
X133731000Y-135509000D02*
X134239000Y-135509000D01*
X134239000Y-135509000D02*
X133985000Y-135763000D01*
X133985000Y-138938000D02*
X133731000Y-138684000D01*
X134239000Y-138684000D02*
X133985000Y-138938000D01*
X133985000Y-138938000D02*
X133985000Y-138176000D01*
X133731000Y-138684000D02*
X134239000Y-138684000D01*
X133985000Y-142113000D02*
X133985000Y-141351000D01*
X133985000Y-142113000D02*
X133731000Y-141859000D01*
X133731000Y-141859000D02*
X134239000Y-141859000D01*
X134239000Y-141859000D02*
X133985000Y-142113000D01*
X133985000Y-145288000D02*
X133985000Y-144526000D01*
X134239000Y-145034000D02*
X133985000Y-145288000D01*
X133985000Y-145288000D02*
X133731000Y-145034000D01*
X133731000Y-145034000D02*
X134239000Y-145034000D01*
X128524000Y-145161000D02*
X128016000Y-145161000D01*
X128016000Y-145161000D02*
X128270000Y-144907000D01*
X128270000Y-144907000D02*
X128524000Y-145161000D01*
X128270000Y-144907000D02*
X128270000Y-145669000D01*
X128270000Y-141732000D02*
X128524000Y-141986000D01*
X128016000Y-141986000D02*
X128270000Y-141732000D01*
X128270000Y-141732000D02*
X128270000Y-142494000D01*
X128524000Y-141986000D02*
X128016000Y-141986000D01*
X128270000Y-138557000D02*
X128524000Y-138811000D01*
X128524000Y-138811000D02*
X128016000Y-138811000D01*
X128016000Y-138811000D02*
X128270000Y-138557000D01*
X128270000Y-138557000D02*
X128270000Y-139319000D01*
X128270000Y-135382000D02*
X128270000Y-136144000D01*
X128270000Y-135382000D02*
X128524000Y-135636000D01*
X128524000Y-135636000D02*
X128016000Y-135636000D01*
X128016000Y-135636000D02*
X128270000Y-135382000D01*
D11*
X127000000Y-148590000D02*
X161290000Y-148590000D01*
X127000000Y-151130000D02*
X127000000Y-148590000D01*
X163830000Y-151130000D02*
X127000000Y-151130000D01*
X128270000Y-128905000D02*
X129349500Y-128905000D01*
X133985000Y-128905000D02*
X133350000Y-128905000D01*
D10*
X133159500Y-128905000D02*
X133350000Y-128905000D01*
D11*
X133159500Y-128905000D02*
G75*
G03X133159500Y-128905000I-317500J0D01*
G01*
X132524500Y-128905000D02*
X129349500Y-130810000D01*
X129349500Y-127000000D02*
X132524500Y-128905000D01*
X129349500Y-130810000D02*
X129349500Y-127000000D01*
X132715000Y-132715000D02*
X132715000Y-147955000D01*
X135255000Y-147955000D02*
X135255000Y-132715000D01*
X132715000Y-147955000D02*
X135255000Y-147955000D01*
X135255000Y-132715000D02*
X132715000Y-132715000D01*
X129540000Y-132715000D02*
X127000000Y-132715000D01*
X129540000Y-147955000D02*
X129540000Y-132715000D01*
X127000000Y-147955000D02*
X129540000Y-147955000D01*
X127000000Y-132715000D02*
X127000000Y-147955000D01*
D10*
X133985000Y-132334000D02*
X133731000Y-132080000D01*
X133731000Y-132080000D02*
X134239000Y-132080000D01*
X134239000Y-132080000D02*
X133985000Y-132334000D01*
X133985000Y-132334000D02*
X133985000Y-131572000D01*
X128016000Y-131826000D02*
X128270000Y-131572000D01*
X128270000Y-131572000D02*
X128270000Y-132334000D01*
X128524000Y-131826000D02*
X128016000Y-131826000D01*
X128270000Y-131572000D02*
X128524000Y-131826000D01*
D11*
X128270000Y-128905000D02*
X128270000Y-131191000D01*
X133985000Y-128905000D02*
X133985000Y-131191000D01*
X145415000Y-128905000D02*
X144780000Y-128905000D01*
X146685000Y-147955000D02*
X146685000Y-132715000D01*
D10*
X144589500Y-128905000D02*
X144780000Y-128905000D01*
D11*
X139700000Y-128905000D02*
X140779500Y-128905000D01*
X140779500Y-130810000D02*
X140779500Y-127000000D01*
X140970000Y-132715000D02*
X138430000Y-132715000D01*
X140779500Y-127000000D02*
X143954500Y-128905000D01*
X138430000Y-147955000D02*
X140970000Y-147955000D01*
X144145000Y-132715000D02*
X144145000Y-147955000D01*
X138430000Y-132715000D02*
X138430000Y-147955000D01*
D10*
X145415000Y-132334000D02*
X145161000Y-132080000D01*
D11*
X144589500Y-128905000D02*
G75*
G03X144589500Y-128905000I-317500J0D01*
G01*
X143954500Y-128905000D02*
X140779500Y-130810000D01*
X144145000Y-147955000D02*
X146685000Y-147955000D01*
X146685000Y-132715000D02*
X144145000Y-132715000D01*
X140970000Y-147955000D02*
X140970000Y-132715000D01*
D10*
X139446000Y-131826000D02*
X139700000Y-131572000D01*
D11*
X139700000Y-128905000D02*
X139700000Y-131191000D01*
D10*
X139954000Y-131826000D02*
X139446000Y-131826000D01*
D11*
X145415000Y-128905000D02*
X145415000Y-131191000D01*
D10*
X139700000Y-131572000D02*
X139954000Y-131826000D01*
X139700000Y-131572000D02*
X139700000Y-132334000D01*
X145161000Y-132080000D02*
X145669000Y-132080000D01*
X145669000Y-132080000D02*
X145415000Y-132334000D01*
X145415000Y-132334000D02*
X145415000Y-131572000D01*
D11*
X155575000Y-147955000D02*
X158115000Y-147955000D01*
D10*
X150876000Y-131826000D02*
X151130000Y-131572000D01*
D11*
X152400000Y-147955000D02*
X152400000Y-132715000D01*
D10*
X151130000Y-131572000D02*
X151130000Y-132334000D01*
X157099000Y-132080000D02*
X156845000Y-132334000D01*
X156845000Y-132334000D02*
X156845000Y-131572000D01*
D11*
X151130000Y-128905000D02*
X151130000Y-131191000D01*
X155384500Y-128905000D02*
X152209500Y-130810000D01*
X156845000Y-128905000D02*
X156845000Y-131191000D01*
D10*
X151130000Y-131572000D02*
X151384000Y-131826000D01*
X156591000Y-132080000D02*
X157099000Y-132080000D01*
D11*
X158115000Y-132715000D02*
X155575000Y-132715000D01*
X149860000Y-132715000D02*
X149860000Y-147955000D01*
D10*
X156845000Y-132334000D02*
X156591000Y-132080000D01*
D11*
X156019500Y-128905000D02*
G75*
G03X156019500Y-128905000I-317500J0D01*
G01*
D10*
X151384000Y-131826000D02*
X150876000Y-131826000D01*
D11*
X152209500Y-130810000D02*
X152209500Y-127000000D01*
X151130000Y-128905000D02*
X152209500Y-128905000D01*
X152400000Y-132715000D02*
X149860000Y-132715000D01*
X149860000Y-147955000D02*
X152400000Y-147955000D01*
X152209500Y-127000000D02*
X155384500Y-128905000D01*
D10*
X156019500Y-128905000D02*
X156210000Y-128905000D01*
D11*
X158115000Y-147955000D02*
X158115000Y-132715000D01*
X155575000Y-132715000D02*
X155575000Y-147955000D01*
X156845000Y-128905000D02*
X156210000Y-128905000D01*
X162560000Y-127635000D02*
X162560000Y-128714500D01*
X160591500Y-128714500D02*
X164401500Y-128714500D01*
X161226500Y-129667000D02*
X163766500Y-129667000D01*
X161734500Y-130683000D02*
X163258500Y-130683000D01*
X162486500Y-131445000D02*
X162506500Y-131445000D01*
D10*
X135890000Y-120396000D02*
X135890000Y-119253000D01*
X135890000Y-119253000D02*
X136525000Y-119253000D01*
X136525000Y-119253000D02*
X136525000Y-118491000D01*
X136525000Y-118491000D02*
X137668000Y-119253000D01*
X137668000Y-119253000D02*
X136525000Y-120015000D01*
X136525000Y-120015000D02*
X136525000Y-119253000D01*
X137922000Y-119253000D02*
G75*
G03X137922000Y-119253000I-127000J0D01*
G01*
X137922000Y-119253000D02*
X138430000Y-119253000D01*
X138430000Y-119253000D02*
X138430000Y-120396000D01*
X143510000Y-119253000D02*
X143510000Y-120396000D01*
X142748000Y-119253000D02*
X141605000Y-120015000D01*
X140970000Y-119253000D02*
X141605000Y-119253000D01*
X140970000Y-120396000D02*
X140970000Y-119253000D01*
X141605000Y-119253000D02*
X141605000Y-118491000D01*
X141605000Y-118491000D02*
X142748000Y-119253000D01*
X143002000Y-119253000D02*
G75*
G03X143002000Y-119253000I-127000J0D01*
G01*
X143002000Y-119253000D02*
X143510000Y-119253000D01*
X141605000Y-120015000D02*
X141605000Y-119253000D01*
X146050000Y-119253000D02*
X146685000Y-119253000D01*
X148082000Y-119253000D02*
X148590000Y-119253000D01*
X148590000Y-119253000D02*
X148590000Y-120396000D01*
X148082000Y-119253000D02*
G75*
G03X148082000Y-119253000I-127000J0D01*
G01*
X146050000Y-120396000D02*
X146050000Y-119253000D01*
X146685000Y-119253000D02*
X146685000Y-118491000D01*
X146685000Y-118491000D02*
X147828000Y-119253000D01*
X146685000Y-120015000D02*
X146685000Y-119253000D01*
X147828000Y-119253000D02*
X146685000Y-120015000D01*
X149245304Y-115920836D02*
X149245304Y-116682836D01*
X148610304Y-115920836D02*
X149245304Y-115920836D01*
X151150304Y-115920836D02*
X151150304Y-114777836D01*
X148610304Y-114777836D02*
X148610304Y-115920836D01*
X149245304Y-116682836D02*
X150388304Y-115920836D01*
X149245304Y-115158836D02*
X149245304Y-115920836D01*
X150642304Y-115920836D02*
X151150304Y-115920836D01*
X150388304Y-115920836D02*
X149245304Y-115158836D01*
X150642304Y-115920836D02*
G75*
G03X150642304Y-115920836I-127000J0D01*
G01*
X144165304Y-116682836D02*
X145308304Y-115920836D01*
X145562304Y-115920836D02*
X146070304Y-115920836D01*
X145308304Y-115920836D02*
X144165304Y-115158836D01*
X144165304Y-115158836D02*
X144165304Y-115920836D01*
X144165304Y-115920836D02*
X144165304Y-116682836D01*
X143530304Y-115920836D02*
X144165304Y-115920836D01*
X145562304Y-115920836D02*
G75*
G03X145562304Y-115920836I-127000J0D01*
G01*
X143530304Y-114777836D02*
X143530304Y-115920836D01*
X146070304Y-115920836D02*
X146070304Y-114777836D01*
X139085304Y-115158836D02*
X139085304Y-115920836D01*
X138450304Y-115920836D02*
X139085304Y-115920836D01*
X140482304Y-115920836D02*
X140990304Y-115920836D01*
X140482304Y-115920836D02*
G75*
G03X140482304Y-115920836I-127000J0D01*
G01*
X138450304Y-114777836D02*
X138450304Y-115920836D01*
X139085304Y-116682836D02*
X140228304Y-115920836D01*
X139085304Y-115920836D02*
X139085304Y-116682836D01*
X140228304Y-115920836D02*
X139085304Y-115158836D01*
X140990304Y-115920836D02*
X140990304Y-114777836D01*
X150939500Y-119507000D02*
X151447500Y-119507000D01*
X151193500Y-119126000D02*
X151193500Y-118364000D01*
X151828500Y-119126000D02*
X150558500Y-119126000D01*
X151257000Y-119888000D02*
X151130000Y-119888000D01*
X123626000Y-39860000D02*
X123626000Y-44940000D01*
X123626000Y-44940000D02*
X128706000Y-44940000D01*
X128706000Y-44940000D02*
X129341000Y-44305000D01*
X129341000Y-44305000D02*
X129341000Y-40495000D01*
X129341000Y-40495000D02*
X128706000Y-39860000D01*
X128706000Y-39860000D02*
X123626000Y-39860000D01*
X145396000Y-43940000D02*
X145396000Y-38860000D01*
X146031000Y-44575000D02*
X145396000Y-43940000D01*
X149841000Y-44575000D02*
X146031000Y-44575000D01*
X150476000Y-43940000D02*
X149841000Y-44575000D01*
X150476000Y-38860000D02*
X150476000Y-43940000D01*
X145396000Y-38860000D02*
X150476000Y-38860000D01*
X167132000Y-39860000D02*
X172212000Y-39860000D01*
X166497000Y-40495000D02*
X167132000Y-39860000D01*
X166497000Y-44305000D02*
X166497000Y-40495000D01*
X167132000Y-44940000D02*
X166497000Y-44305000D01*
X172212000Y-44940000D02*
X167132000Y-44940000D01*
X172212000Y-39860000D02*
X172212000Y-44940000D01*
X159126000Y-71882000D02*
X159634000Y-71882000D01*
X166746000Y-71882000D02*
X166238000Y-71882000D01*
X166238000Y-71882000D02*
X166238000Y-70866000D01*
X166238000Y-70866000D02*
X159634000Y-70866000D01*
X159634000Y-70866000D02*
X159634000Y-72898000D01*
X159634000Y-72898000D02*
X166238000Y-72898000D01*
X166238000Y-72898000D02*
X166238000Y-71882000D01*
X159634000Y-71374000D02*
X160142000Y-70866000D01*
D12*
X142736000Y-100900000D02*
X142736000Y-102670000D01*
X142736000Y-102670000D02*
X153136000Y-102670000D01*
X153136000Y-102670000D02*
X153136000Y-97130000D01*
X153136000Y-97130000D02*
X142736000Y-97130000D01*
X142736000Y-97130000D02*
X142736000Y-98900000D01*
X142736000Y-98900000D02*
G75*
G02X142736000Y-100900000I0J-1000000D01*
G01*
D10*
X123444000Y-61214000D02*
X123444000Y-66294000D01*
X123444000Y-66294000D02*
X128524000Y-66294000D01*
X128524000Y-66294000D02*
X129159000Y-65659000D01*
X129159000Y-65659000D02*
X129159000Y-61849000D01*
X129159000Y-61849000D02*
X128524000Y-61214000D01*
X128524000Y-61214000D02*
X123444000Y-61214000D01*
X165328940Y-139000290D02*
X165582940Y-139254290D01*
X165074940Y-140016290D02*
X165582940Y-139254290D01*
X165582940Y-139254290D02*
X165836940Y-139508290D01*
X165836940Y-139000290D02*
X165328940Y-139000290D01*
X165836940Y-139508290D02*
X165836940Y-139000290D01*
X165735000Y-143129000D02*
X165481000Y-143383000D01*
X165735000Y-143637000D02*
X165735000Y-143129000D01*
X165227000Y-143637000D02*
X165735000Y-143637000D01*
X165481000Y-143383000D02*
X165227000Y-143637000D01*
X164719000Y-142875000D02*
X165481000Y-143383000D01*
D13*
X168910000Y-148082000D02*
X166370000Y-148082000D01*
X168910000Y-132842000D02*
X166370000Y-132842000D01*
X168910000Y-148082000D02*
X168910000Y-132842000D01*
X166370000Y-132842000D02*
X166370000Y-148082000D01*
D12*
X127436462Y-120140000D02*
G75*
G03X125891170Y-125690000I-462J-2990000D01*
G01*
X127435538Y-120140000D02*
G75*
G02X128980830Y-125690000I462J-2990000D01*
G01*
X129936000Y-123130000D02*
G75*
G03X129936000Y-123130000I-2500000J0D01*
G01*
X125891000Y-125690000D02*
X128981000Y-125690000D01*
X158983000Y-125690000D02*
X162073000Y-125690000D01*
X163028000Y-123130000D02*
G75*
G03X163028000Y-123130000I-2500000J0D01*
G01*
X160527538Y-120140000D02*
G75*
G02X162072830Y-125690000I462J-2990000D01*
G01*
X160528462Y-120140000D02*
G75*
G03X158983170Y-125690000I-462J-2990000D01*
G01*
X161334000Y-43728000D02*
X154214000Y-43728000D01*
X161334000Y-41108000D02*
X154214000Y-41108000D01*
X161334000Y-43728000D02*
X161334000Y-41108000D01*
X154214000Y-43728000D02*
X154214000Y-41108000D01*
X139274440Y-58891357D02*
G75*
G03X139274236Y-56932000I-3088440J979357D01*
G01*
X139274440Y-58891357D02*
G75*
G02X133097764Y-58892000I-3088440J979357D01*
G01*
X139274440Y-56932643D02*
G75*
G03X133097764Y-56932000I-3088440J-979357D01*
G01*
X133336000Y-57262000D02*
X133336000Y-58562000D01*
X132736000Y-57912000D02*
X133936000Y-57912000D01*
X139387000Y-57444000D02*
X139387000Y-58380000D01*
X139347000Y-57236000D02*
X139347000Y-58588000D01*
X139307000Y-57078000D02*
X139307000Y-58746000D01*
X139267000Y-56946000D02*
X139267000Y-58878000D01*
X139227000Y-56831000D02*
X139227000Y-58993000D01*
X139187000Y-56728000D02*
X139187000Y-59096000D01*
X139147000Y-56634000D02*
X139147000Y-59190000D01*
X139107000Y-56548000D02*
X139107000Y-59276000D01*
X139067000Y-56467000D02*
X139067000Y-59357000D01*
X139027000Y-56392000D02*
X139027000Y-59432000D01*
X138987000Y-56321000D02*
X138987000Y-59503000D01*
X138947000Y-56254000D02*
X138947000Y-59570000D01*
X138907000Y-56191000D02*
X138907000Y-59633000D01*
X138867000Y-56131000D02*
X138867000Y-59693000D01*
X138827000Y-56073000D02*
X138827000Y-59751000D01*
X138787000Y-56018000D02*
X138787000Y-59806000D01*
X138747000Y-55966000D02*
X138747000Y-59858000D01*
X138707000Y-55915000D02*
X138707000Y-59909000D01*
X138667000Y-55867000D02*
X138667000Y-59957000D01*
X138627000Y-55820000D02*
X138627000Y-60004000D01*
X138587000Y-55775000D02*
X138587000Y-60049000D01*
X138547000Y-55732000D02*
X138547000Y-60092000D01*
X138507000Y-55690000D02*
X138507000Y-60134000D01*
X138467000Y-55650000D02*
X138467000Y-60174000D01*
X138427000Y-55611000D02*
X138427000Y-60213000D01*
X138387000Y-58892000D02*
X138387000Y-60251000D01*
X138387000Y-55573000D02*
X138387000Y-56932000D01*
X138347000Y-58892000D02*
X138347000Y-60287000D01*
X138347000Y-55537000D02*
X138347000Y-56932000D01*
X138307000Y-58892000D02*
X138307000Y-60323000D01*
X138307000Y-55501000D02*
X138307000Y-56932000D01*
X138267000Y-58892000D02*
X138267000Y-60357000D01*
X138267000Y-55467000D02*
X138267000Y-56932000D01*
X138227000Y-58892000D02*
X138227000Y-60390000D01*
X138227000Y-55434000D02*
X138227000Y-56932000D01*
X138187000Y-58892000D02*
X138187000Y-60422000D01*
X138187000Y-55402000D02*
X138187000Y-56932000D01*
X138147000Y-58892000D02*
X138147000Y-60452000D01*
X138147000Y-55372000D02*
X138147000Y-56932000D01*
X138107000Y-58892000D02*
X138107000Y-60482000D01*
X138107000Y-55342000D02*
X138107000Y-56932000D01*
X138067000Y-58892000D02*
X138067000Y-60511000D01*
X138067000Y-55313000D02*
X138067000Y-56932000D01*
X138027000Y-58892000D02*
X138027000Y-60539000D01*
X138027000Y-55285000D02*
X138027000Y-56932000D01*
X137987000Y-58892000D02*
X137987000Y-60566000D01*
X137987000Y-55258000D02*
X137987000Y-56932000D01*
X137947000Y-58892000D02*
X137947000Y-60593000D01*
X137947000Y-55231000D02*
X137947000Y-56932000D01*
X137907000Y-58892000D02*
X137907000Y-60618000D01*
X137907000Y-55206000D02*
X137907000Y-56932000D01*
X137867000Y-58892000D02*
X137867000Y-60643000D01*
X137867000Y-55181000D02*
X137867000Y-56932000D01*
X137827000Y-58892000D02*
X137827000Y-60667000D01*
X137827000Y-55157000D02*
X137827000Y-56932000D01*
X137787000Y-58892000D02*
X137787000Y-60690000D01*
X137787000Y-55134000D02*
X137787000Y-56932000D01*
X137747000Y-58892000D02*
X137747000Y-60712000D01*
X137747000Y-55112000D02*
X137747000Y-56932000D01*
X137707000Y-58892000D02*
X137707000Y-60734000D01*
X137707000Y-55090000D02*
X137707000Y-56932000D01*
X137667000Y-58892000D02*
X137667000Y-60755000D01*
X137667000Y-55069000D02*
X137667000Y-56932000D01*
X137627000Y-58892000D02*
X137627000Y-60775000D01*
X137627000Y-55049000D02*
X137627000Y-56932000D01*
X137587000Y-58892000D02*
X137587000Y-60794000D01*
X137587000Y-55030000D02*
X137587000Y-56932000D01*
X137547000Y-58892000D02*
X137547000Y-60813000D01*
X137547000Y-55011000D02*
X137547000Y-56932000D01*
X137507000Y-58892000D02*
X137507000Y-60831000D01*
X137507000Y-54993000D02*
X137507000Y-56932000D01*
X137467000Y-58892000D02*
X137467000Y-60849000D01*
X137467000Y-54975000D02*
X137467000Y-56932000D01*
X137427000Y-58892000D02*
X137427000Y-60866000D01*
X137427000Y-54958000D02*
X137427000Y-56932000D01*
X137387000Y-58892000D02*
X137387000Y-60882000D01*
X137387000Y-54942000D02*
X137387000Y-56932000D01*
X137347000Y-58892000D02*
X137347000Y-60898000D01*
X137347000Y-54926000D02*
X137347000Y-56932000D01*
X137307000Y-58892000D02*
X137307000Y-60913000D01*
X137307000Y-54911000D02*
X137307000Y-56932000D01*
X137267000Y-58892000D02*
X137267000Y-60927000D01*
X137267000Y-54897000D02*
X137267000Y-56932000D01*
X137227000Y-58892000D02*
X137227000Y-60941000D01*
X137227000Y-54883000D02*
X137227000Y-56932000D01*
X137187000Y-58892000D02*
X137187000Y-60954000D01*
X137187000Y-54870000D02*
X137187000Y-56932000D01*
X137147000Y-58892000D02*
X137147000Y-60967000D01*
X137147000Y-54857000D02*
X137147000Y-56932000D01*
X137107000Y-58892000D02*
X137107000Y-60979000D01*
X137107000Y-54845000D02*
X137107000Y-56932000D01*
X137067000Y-58892000D02*
X137067000Y-60991000D01*
X137067000Y-54833000D02*
X137067000Y-56932000D01*
X137027000Y-58892000D02*
X137027000Y-61002000D01*
X137027000Y-54822000D02*
X137027000Y-56932000D01*
X136987000Y-58892000D02*
X136987000Y-61012000D01*
X136987000Y-54812000D02*
X136987000Y-56932000D01*
X136947000Y-58892000D02*
X136947000Y-61022000D01*
X136947000Y-54802000D02*
X136947000Y-56932000D01*
X136907000Y-58892000D02*
X136907000Y-61031000D01*
X136907000Y-54793000D02*
X136907000Y-56932000D01*
X136866000Y-58892000D02*
X136866000Y-61040000D01*
X136866000Y-54784000D02*
X136866000Y-56932000D01*
X136826000Y-58892000D02*
X136826000Y-61049000D01*
X136826000Y-54775000D02*
X136826000Y-56932000D01*
X136786000Y-58892000D02*
X136786000Y-61056000D01*
X136786000Y-54768000D02*
X136786000Y-56932000D01*
X136746000Y-58892000D02*
X136746000Y-61064000D01*
X136746000Y-54760000D02*
X136746000Y-56932000D01*
X136706000Y-58892000D02*
X136706000Y-61070000D01*
X136706000Y-54754000D02*
X136706000Y-56932000D01*
X136666000Y-58892000D02*
X136666000Y-61077000D01*
X136666000Y-54747000D02*
X136666000Y-56932000D01*
X136626000Y-58892000D02*
X136626000Y-61082000D01*
X136626000Y-54742000D02*
X136626000Y-56932000D01*
X136586000Y-58892000D02*
X136586000Y-61088000D01*
X136586000Y-54736000D02*
X136586000Y-56932000D01*
X136546000Y-58892000D02*
X136546000Y-61092000D01*
X136546000Y-54732000D02*
X136546000Y-56932000D01*
X136506000Y-58892000D02*
X136506000Y-61097000D01*
X136506000Y-54727000D02*
X136506000Y-56932000D01*
X136466000Y-58892000D02*
X136466000Y-61100000D01*
X136466000Y-54724000D02*
X136466000Y-56932000D01*
X136426000Y-54720000D02*
X136426000Y-61104000D01*
X136386000Y-54718000D02*
X136386000Y-61106000D01*
X136346000Y-54715000D02*
X136346000Y-61109000D01*
X136306000Y-54714000D02*
X136306000Y-61110000D01*
X136266000Y-54712000D02*
X136266000Y-61112000D01*
X136226000Y-54712000D02*
X136226000Y-61112000D01*
X136186000Y-54712000D02*
X136186000Y-61112000D01*
X149186000Y-50140000D02*
X149186000Y-56540000D01*
X149226000Y-50140000D02*
X149226000Y-56540000D01*
X149266000Y-50140000D02*
X149266000Y-56540000D01*
X149306000Y-50142000D02*
X149306000Y-56538000D01*
X149346000Y-50143000D02*
X149346000Y-56537000D01*
X149386000Y-50146000D02*
X149386000Y-56534000D01*
X149426000Y-50148000D02*
X149426000Y-56532000D01*
X149466000Y-50152000D02*
X149466000Y-52360000D01*
X149466000Y-54320000D02*
X149466000Y-56528000D01*
X149506000Y-50155000D02*
X149506000Y-52360000D01*
X149506000Y-54320000D02*
X149506000Y-56525000D01*
X149546000Y-50160000D02*
X149546000Y-52360000D01*
X149546000Y-54320000D02*
X149546000Y-56520000D01*
X149586000Y-50164000D02*
X149586000Y-52360000D01*
X149586000Y-54320000D02*
X149586000Y-56516000D01*
X149626000Y-50170000D02*
X149626000Y-52360000D01*
X149626000Y-54320000D02*
X149626000Y-56510000D01*
X149666000Y-50175000D02*
X149666000Y-52360000D01*
X149666000Y-54320000D02*
X149666000Y-56505000D01*
X149706000Y-50182000D02*
X149706000Y-52360000D01*
X149706000Y-54320000D02*
X149706000Y-56498000D01*
X149746000Y-50188000D02*
X149746000Y-52360000D01*
X149746000Y-54320000D02*
X149746000Y-56492000D01*
X149786000Y-50196000D02*
X149786000Y-52360000D01*
X149786000Y-54320000D02*
X149786000Y-56484000D01*
X149826000Y-50203000D02*
X149826000Y-52360000D01*
X149826000Y-54320000D02*
X149826000Y-56477000D01*
X149866000Y-50212000D02*
X149866000Y-52360000D01*
X149866000Y-54320000D02*
X149866000Y-56468000D01*
X149907000Y-50221000D02*
X149907000Y-52360000D01*
X149907000Y-54320000D02*
X149907000Y-56459000D01*
X149947000Y-50230000D02*
X149947000Y-52360000D01*
X149947000Y-54320000D02*
X149947000Y-56450000D01*
X149987000Y-50240000D02*
X149987000Y-52360000D01*
X149987000Y-54320000D02*
X149987000Y-56440000D01*
X150027000Y-50250000D02*
X150027000Y-52360000D01*
X150027000Y-54320000D02*
X150027000Y-56430000D01*
X150067000Y-50261000D02*
X150067000Y-52360000D01*
X150067000Y-54320000D02*
X150067000Y-56419000D01*
X150107000Y-50273000D02*
X150107000Y-52360000D01*
X150107000Y-54320000D02*
X150107000Y-56407000D01*
X150147000Y-50285000D02*
X150147000Y-52360000D01*
X150147000Y-54320000D02*
X150147000Y-56395000D01*
X150187000Y-50298000D02*
X150187000Y-52360000D01*
X150187000Y-54320000D02*
X150187000Y-56382000D01*
X150227000Y-50311000D02*
X150227000Y-52360000D01*
X150227000Y-54320000D02*
X150227000Y-56369000D01*
X150267000Y-50325000D02*
X150267000Y-52360000D01*
X150267000Y-54320000D02*
X150267000Y-56355000D01*
X150307000Y-50339000D02*
X150307000Y-52360000D01*
X150307000Y-54320000D02*
X150307000Y-56341000D01*
X150347000Y-50354000D02*
X150347000Y-52360000D01*
X150347000Y-54320000D02*
X150347000Y-56326000D01*
X150387000Y-50370000D02*
X150387000Y-52360000D01*
X150387000Y-54320000D02*
X150387000Y-56310000D01*
X150427000Y-50386000D02*
X150427000Y-52360000D01*
X150427000Y-54320000D02*
X150427000Y-56294000D01*
X150467000Y-50403000D02*
X150467000Y-52360000D01*
X150467000Y-54320000D02*
X150467000Y-56277000D01*
X150507000Y-50421000D02*
X150507000Y-52360000D01*
X150507000Y-54320000D02*
X150507000Y-56259000D01*
X150547000Y-50439000D02*
X150547000Y-52360000D01*
X150547000Y-54320000D02*
X150547000Y-56241000D01*
X150587000Y-50458000D02*
X150587000Y-52360000D01*
X150587000Y-54320000D02*
X150587000Y-56222000D01*
X150627000Y-50477000D02*
X150627000Y-52360000D01*
X150627000Y-54320000D02*
X150627000Y-56203000D01*
X150667000Y-50497000D02*
X150667000Y-52360000D01*
X150667000Y-54320000D02*
X150667000Y-56183000D01*
X150707000Y-50518000D02*
X150707000Y-52360000D01*
X150707000Y-54320000D02*
X150707000Y-56162000D01*
X150747000Y-50540000D02*
X150747000Y-52360000D01*
X150747000Y-54320000D02*
X150747000Y-56140000D01*
X150787000Y-50562000D02*
X150787000Y-52360000D01*
X150787000Y-54320000D02*
X150787000Y-56118000D01*
X150827000Y-50585000D02*
X150827000Y-52360000D01*
X150827000Y-54320000D02*
X150827000Y-56095000D01*
X150867000Y-50609000D02*
X150867000Y-52360000D01*
X150867000Y-54320000D02*
X150867000Y-56071000D01*
X150907000Y-50634000D02*
X150907000Y-52360000D01*
X150907000Y-54320000D02*
X150907000Y-56046000D01*
X150947000Y-50659000D02*
X150947000Y-52360000D01*
X150947000Y-54320000D02*
X150947000Y-56021000D01*
X150987000Y-50686000D02*
X150987000Y-52360000D01*
X150987000Y-54320000D02*
X150987000Y-55994000D01*
X151027000Y-50713000D02*
X151027000Y-52360000D01*
X151027000Y-54320000D02*
X151027000Y-55967000D01*
X151067000Y-50741000D02*
X151067000Y-52360000D01*
X151067000Y-54320000D02*
X151067000Y-55939000D01*
X151107000Y-50770000D02*
X151107000Y-52360000D01*
X151107000Y-54320000D02*
X151107000Y-55910000D01*
X151147000Y-50800000D02*
X151147000Y-52360000D01*
X151147000Y-54320000D02*
X151147000Y-55880000D01*
X151187000Y-50830000D02*
X151187000Y-52360000D01*
X151187000Y-54320000D02*
X151187000Y-55850000D01*
X151227000Y-50862000D02*
X151227000Y-52360000D01*
X151227000Y-54320000D02*
X151227000Y-55818000D01*
X151267000Y-50895000D02*
X151267000Y-52360000D01*
X151267000Y-54320000D02*
X151267000Y-55785000D01*
X151307000Y-50929000D02*
X151307000Y-52360000D01*
X151307000Y-54320000D02*
X151307000Y-55751000D01*
X151347000Y-50965000D02*
X151347000Y-52360000D01*
X151347000Y-54320000D02*
X151347000Y-55715000D01*
X151387000Y-51001000D02*
X151387000Y-52360000D01*
X151387000Y-54320000D02*
X151387000Y-55679000D01*
X151427000Y-51039000D02*
X151427000Y-55641000D01*
X151467000Y-51078000D02*
X151467000Y-55602000D01*
X151507000Y-51118000D02*
X151507000Y-55562000D01*
X151547000Y-51160000D02*
X151547000Y-55520000D01*
X151587000Y-51203000D02*
X151587000Y-55477000D01*
X151627000Y-51248000D02*
X151627000Y-55432000D01*
X151667000Y-51295000D02*
X151667000Y-55385000D01*
X151707000Y-51343000D02*
X151707000Y-55337000D01*
X151747000Y-51394000D02*
X151747000Y-55286000D01*
X151787000Y-51446000D02*
X151787000Y-55234000D01*
X151827000Y-51501000D02*
X151827000Y-55179000D01*
X151867000Y-51559000D02*
X151867000Y-55121000D01*
X151907000Y-51619000D02*
X151907000Y-55061000D01*
X151947000Y-51682000D02*
X151947000Y-54998000D01*
X151987000Y-51749000D02*
X151987000Y-54931000D01*
X152027000Y-51820000D02*
X152027000Y-54860000D01*
X152067000Y-51895000D02*
X152067000Y-54785000D01*
X152107000Y-51976000D02*
X152107000Y-54704000D01*
X152147000Y-52062000D02*
X152147000Y-54618000D01*
X152187000Y-52156000D02*
X152187000Y-54524000D01*
X152227000Y-52259000D02*
X152227000Y-54421000D01*
X152267000Y-52374000D02*
X152267000Y-54306000D01*
X152307000Y-52506000D02*
X152307000Y-54174000D01*
X152347000Y-52664000D02*
X152347000Y-54016000D01*
X152387000Y-52872000D02*
X152387000Y-53808000D01*
X145736000Y-53340000D02*
X146936000Y-53340000D01*
X146336000Y-52690000D02*
X146336000Y-53990000D01*
X152274440Y-52360643D02*
G75*
G03X146097764Y-52360000I-3088440J-979357D01*
G01*
X152274440Y-54319357D02*
G75*
G02X146097764Y-54320000I-3088440J979357D01*
G01*
X152274440Y-54319357D02*
G75*
G03X152274236Y-52360000I-3088440J979357D01*
G01*
X139274440Y-49747357D02*
G75*
G03X139274236Y-47788000I-3088440J979357D01*
G01*
X139274440Y-49747357D02*
G75*
G02X133097764Y-49748000I-3088440J979357D01*
G01*
X139274440Y-47788643D02*
G75*
G03X133097764Y-47788000I-3088440J-979357D01*
G01*
X133336000Y-48118000D02*
X133336000Y-49418000D01*
X132736000Y-48768000D02*
X133936000Y-48768000D01*
X139387000Y-48300000D02*
X139387000Y-49236000D01*
X139347000Y-48092000D02*
X139347000Y-49444000D01*
X139307000Y-47934000D02*
X139307000Y-49602000D01*
X139267000Y-47802000D02*
X139267000Y-49734000D01*
X139227000Y-47687000D02*
X139227000Y-49849000D01*
X139187000Y-47584000D02*
X139187000Y-49952000D01*
X139147000Y-47490000D02*
X139147000Y-50046000D01*
X139107000Y-47404000D02*
X139107000Y-50132000D01*
X139067000Y-47323000D02*
X139067000Y-50213000D01*
X139027000Y-47248000D02*
X139027000Y-50288000D01*
X138987000Y-47177000D02*
X138987000Y-50359000D01*
X138947000Y-47110000D02*
X138947000Y-50426000D01*
X138907000Y-47047000D02*
X138907000Y-50489000D01*
X138867000Y-46987000D02*
X138867000Y-50549000D01*
X138827000Y-46929000D02*
X138827000Y-50607000D01*
X138787000Y-46874000D02*
X138787000Y-50662000D01*
X138747000Y-46822000D02*
X138747000Y-50714000D01*
X138707000Y-46771000D02*
X138707000Y-50765000D01*
X138667000Y-46723000D02*
X138667000Y-50813000D01*
X138627000Y-46676000D02*
X138627000Y-50860000D01*
X138587000Y-46631000D02*
X138587000Y-50905000D01*
X138547000Y-46588000D02*
X138547000Y-50948000D01*
X138507000Y-46546000D02*
X138507000Y-50990000D01*
X138467000Y-46506000D02*
X138467000Y-51030000D01*
X138427000Y-46467000D02*
X138427000Y-51069000D01*
X138387000Y-49748000D02*
X138387000Y-51107000D01*
X138387000Y-46429000D02*
X138387000Y-47788000D01*
X138347000Y-49748000D02*
X138347000Y-51143000D01*
X138347000Y-46393000D02*
X138347000Y-47788000D01*
X138307000Y-49748000D02*
X138307000Y-51179000D01*
X138307000Y-46357000D02*
X138307000Y-47788000D01*
X138267000Y-49748000D02*
X138267000Y-51213000D01*
X138267000Y-46323000D02*
X138267000Y-47788000D01*
X138227000Y-49748000D02*
X138227000Y-51246000D01*
X138227000Y-46290000D02*
X138227000Y-47788000D01*
X138187000Y-49748000D02*
X138187000Y-51278000D01*
X138187000Y-46258000D02*
X138187000Y-47788000D01*
X138147000Y-49748000D02*
X138147000Y-51308000D01*
X138147000Y-46228000D02*
X138147000Y-47788000D01*
X138107000Y-49748000D02*
X138107000Y-51338000D01*
X138107000Y-46198000D02*
X138107000Y-47788000D01*
X138067000Y-49748000D02*
X138067000Y-51367000D01*
X138067000Y-46169000D02*
X138067000Y-47788000D01*
X138027000Y-49748000D02*
X138027000Y-51395000D01*
X138027000Y-46141000D02*
X138027000Y-47788000D01*
X137987000Y-49748000D02*
X137987000Y-51422000D01*
X137987000Y-46114000D02*
X137987000Y-47788000D01*
X137947000Y-49748000D02*
X137947000Y-51449000D01*
X137947000Y-46087000D02*
X137947000Y-47788000D01*
X137907000Y-49748000D02*
X137907000Y-51474000D01*
X137907000Y-46062000D02*
X137907000Y-47788000D01*
X137867000Y-49748000D02*
X137867000Y-51499000D01*
X137867000Y-46037000D02*
X137867000Y-47788000D01*
X137827000Y-49748000D02*
X137827000Y-51523000D01*
X137827000Y-46013000D02*
X137827000Y-47788000D01*
X137787000Y-49748000D02*
X137787000Y-51546000D01*
X137787000Y-45990000D02*
X137787000Y-47788000D01*
X137747000Y-49748000D02*
X137747000Y-51568000D01*
X137747000Y-45968000D02*
X137747000Y-47788000D01*
X137707000Y-49748000D02*
X137707000Y-51590000D01*
X137707000Y-45946000D02*
X137707000Y-47788000D01*
X137667000Y-49748000D02*
X137667000Y-51611000D01*
X137667000Y-45925000D02*
X137667000Y-47788000D01*
X137627000Y-49748000D02*
X137627000Y-51631000D01*
X137627000Y-45905000D02*
X137627000Y-47788000D01*
X137587000Y-49748000D02*
X137587000Y-51650000D01*
X137587000Y-45886000D02*
X137587000Y-47788000D01*
X137547000Y-49748000D02*
X137547000Y-51669000D01*
X137547000Y-45867000D02*
X137547000Y-47788000D01*
X137507000Y-49748000D02*
X137507000Y-51687000D01*
X137507000Y-45849000D02*
X137507000Y-47788000D01*
X137467000Y-49748000D02*
X137467000Y-51705000D01*
X137467000Y-45831000D02*
X137467000Y-47788000D01*
X137427000Y-49748000D02*
X137427000Y-51722000D01*
X137427000Y-45814000D02*
X137427000Y-47788000D01*
X137387000Y-49748000D02*
X137387000Y-51738000D01*
X137387000Y-45798000D02*
X137387000Y-47788000D01*
X137347000Y-49748000D02*
X137347000Y-51754000D01*
X137347000Y-45782000D02*
X137347000Y-47788000D01*
X137307000Y-49748000D02*
X137307000Y-51769000D01*
X137307000Y-45767000D02*
X137307000Y-47788000D01*
X137267000Y-49748000D02*
X137267000Y-51783000D01*
X137267000Y-45753000D02*
X137267000Y-47788000D01*
X137227000Y-49748000D02*
X137227000Y-51797000D01*
X137227000Y-45739000D02*
X137227000Y-47788000D01*
X137187000Y-49748000D02*
X137187000Y-51810000D01*
X137187000Y-45726000D02*
X137187000Y-47788000D01*
X137147000Y-49748000D02*
X137147000Y-51823000D01*
X137147000Y-45713000D02*
X137147000Y-47788000D01*
X137107000Y-49748000D02*
X137107000Y-51835000D01*
X137107000Y-45701000D02*
X137107000Y-47788000D01*
X137067000Y-49748000D02*
X137067000Y-51847000D01*
X137067000Y-45689000D02*
X137067000Y-47788000D01*
X137027000Y-49748000D02*
X137027000Y-51858000D01*
X137027000Y-45678000D02*
X137027000Y-47788000D01*
X136987000Y-49748000D02*
X136987000Y-51868000D01*
X136987000Y-45668000D02*
X136987000Y-47788000D01*
X136947000Y-49748000D02*
X136947000Y-51878000D01*
X136947000Y-45658000D02*
X136947000Y-47788000D01*
X136907000Y-49748000D02*
X136907000Y-51887000D01*
X136907000Y-45649000D02*
X136907000Y-47788000D01*
X136866000Y-49748000D02*
X136866000Y-51896000D01*
X136866000Y-45640000D02*
X136866000Y-47788000D01*
X136826000Y-49748000D02*
X136826000Y-51905000D01*
X136826000Y-45631000D02*
X136826000Y-47788000D01*
X136786000Y-49748000D02*
X136786000Y-51912000D01*
X136786000Y-45624000D02*
X136786000Y-47788000D01*
X136746000Y-49748000D02*
X136746000Y-51920000D01*
X136746000Y-45616000D02*
X136746000Y-47788000D01*
X136706000Y-49748000D02*
X136706000Y-51926000D01*
X136706000Y-45610000D02*
X136706000Y-47788000D01*
X136666000Y-49748000D02*
X136666000Y-51933000D01*
X136666000Y-45603000D02*
X136666000Y-47788000D01*
X136626000Y-49748000D02*
X136626000Y-51938000D01*
X136626000Y-45598000D02*
X136626000Y-47788000D01*
X136586000Y-49748000D02*
X136586000Y-51944000D01*
X136586000Y-45592000D02*
X136586000Y-47788000D01*
X136546000Y-49748000D02*
X136546000Y-51948000D01*
X136546000Y-45588000D02*
X136546000Y-47788000D01*
X136506000Y-49748000D02*
X136506000Y-51953000D01*
X136506000Y-45583000D02*
X136506000Y-47788000D01*
X136466000Y-49748000D02*
X136466000Y-51956000D01*
X136466000Y-45580000D02*
X136466000Y-47788000D01*
X136426000Y-45576000D02*
X136426000Y-51960000D01*
X136386000Y-45574000D02*
X136386000Y-51962000D01*
X136346000Y-45571000D02*
X136346000Y-51965000D01*
X136306000Y-45570000D02*
X136306000Y-51966000D01*
X136266000Y-45568000D02*
X136266000Y-51968000D01*
X136226000Y-45568000D02*
X136226000Y-51968000D01*
X136186000Y-45568000D02*
X136186000Y-51968000D01*
X149186000Y-63348000D02*
X149186000Y-69748000D01*
X149226000Y-63348000D02*
X149226000Y-69748000D01*
X149266000Y-63348000D02*
X149266000Y-69748000D01*
X149306000Y-63350000D02*
X149306000Y-69746000D01*
X149346000Y-63351000D02*
X149346000Y-69745000D01*
X149386000Y-63354000D02*
X149386000Y-69742000D01*
X149426000Y-63356000D02*
X149426000Y-69740000D01*
X149466000Y-63360000D02*
X149466000Y-65568000D01*
X149466000Y-67528000D02*
X149466000Y-69736000D01*
X149506000Y-63363000D02*
X149506000Y-65568000D01*
X149506000Y-67528000D02*
X149506000Y-69733000D01*
X149546000Y-63368000D02*
X149546000Y-65568000D01*
X149546000Y-67528000D02*
X149546000Y-69728000D01*
X149586000Y-63372000D02*
X149586000Y-65568000D01*
X149586000Y-67528000D02*
X149586000Y-69724000D01*
X149626000Y-63378000D02*
X149626000Y-65568000D01*
X149626000Y-67528000D02*
X149626000Y-69718000D01*
X149666000Y-63383000D02*
X149666000Y-65568000D01*
X149666000Y-67528000D02*
X149666000Y-69713000D01*
X149706000Y-63390000D02*
X149706000Y-65568000D01*
X149706000Y-67528000D02*
X149706000Y-69706000D01*
X149746000Y-63396000D02*
X149746000Y-65568000D01*
X149746000Y-67528000D02*
X149746000Y-69700000D01*
X149786000Y-63404000D02*
X149786000Y-65568000D01*
X149786000Y-67528000D02*
X149786000Y-69692000D01*
X149826000Y-63411000D02*
X149826000Y-65568000D01*
X149826000Y-67528000D02*
X149826000Y-69685000D01*
X149866000Y-63420000D02*
X149866000Y-65568000D01*
X149866000Y-67528000D02*
X149866000Y-69676000D01*
X149907000Y-63429000D02*
X149907000Y-65568000D01*
X149907000Y-67528000D02*
X149907000Y-69667000D01*
X149947000Y-63438000D02*
X149947000Y-65568000D01*
X149947000Y-67528000D02*
X149947000Y-69658000D01*
X149987000Y-63448000D02*
X149987000Y-65568000D01*
X149987000Y-67528000D02*
X149987000Y-69648000D01*
X150027000Y-63458000D02*
X150027000Y-65568000D01*
X150027000Y-67528000D02*
X150027000Y-69638000D01*
X150067000Y-63469000D02*
X150067000Y-65568000D01*
X150067000Y-67528000D02*
X150067000Y-69627000D01*
X150107000Y-63481000D02*
X150107000Y-65568000D01*
X150107000Y-67528000D02*
X150107000Y-69615000D01*
X150147000Y-63493000D02*
X150147000Y-65568000D01*
X150147000Y-67528000D02*
X150147000Y-69603000D01*
X150187000Y-63506000D02*
X150187000Y-65568000D01*
X150187000Y-67528000D02*
X150187000Y-69590000D01*
X150227000Y-63519000D02*
X150227000Y-65568000D01*
X150227000Y-67528000D02*
X150227000Y-69577000D01*
X150267000Y-63533000D02*
X150267000Y-65568000D01*
X150267000Y-67528000D02*
X150267000Y-69563000D01*
X150307000Y-63547000D02*
X150307000Y-65568000D01*
X150307000Y-67528000D02*
X150307000Y-69549000D01*
X150347000Y-63562000D02*
X150347000Y-65568000D01*
X150347000Y-67528000D02*
X150347000Y-69534000D01*
X150387000Y-63578000D02*
X150387000Y-65568000D01*
X150387000Y-67528000D02*
X150387000Y-69518000D01*
X150427000Y-63594000D02*
X150427000Y-65568000D01*
X150427000Y-67528000D02*
X150427000Y-69502000D01*
X150467000Y-63611000D02*
X150467000Y-65568000D01*
X150467000Y-67528000D02*
X150467000Y-69485000D01*
X150507000Y-63629000D02*
X150507000Y-65568000D01*
X150507000Y-67528000D02*
X150507000Y-69467000D01*
X150547000Y-63647000D02*
X150547000Y-65568000D01*
X150547000Y-67528000D02*
X150547000Y-69449000D01*
X150587000Y-63666000D02*
X150587000Y-65568000D01*
X150587000Y-67528000D02*
X150587000Y-69430000D01*
X150627000Y-63685000D02*
X150627000Y-65568000D01*
X150627000Y-67528000D02*
X150627000Y-69411000D01*
X150667000Y-63705000D02*
X150667000Y-65568000D01*
X150667000Y-67528000D02*
X150667000Y-69391000D01*
X150707000Y-63726000D02*
X150707000Y-65568000D01*
X150707000Y-67528000D02*
X150707000Y-69370000D01*
X150747000Y-63748000D02*
X150747000Y-65568000D01*
X150747000Y-67528000D02*
X150747000Y-69348000D01*
X150787000Y-63770000D02*
X150787000Y-65568000D01*
X150787000Y-67528000D02*
X150787000Y-69326000D01*
X150827000Y-63793000D02*
X150827000Y-65568000D01*
X150827000Y-67528000D02*
X150827000Y-69303000D01*
X150867000Y-63817000D02*
X150867000Y-65568000D01*
X150867000Y-67528000D02*
X150867000Y-69279000D01*
X150907000Y-63842000D02*
X150907000Y-65568000D01*
X150907000Y-67528000D02*
X150907000Y-69254000D01*
X150947000Y-63867000D02*
X150947000Y-65568000D01*
X150947000Y-67528000D02*
X150947000Y-69229000D01*
X150987000Y-63894000D02*
X150987000Y-65568000D01*
X150987000Y-67528000D02*
X150987000Y-69202000D01*
X151027000Y-63921000D02*
X151027000Y-65568000D01*
X151027000Y-67528000D02*
X151027000Y-69175000D01*
X151067000Y-63949000D02*
X151067000Y-65568000D01*
X151067000Y-67528000D02*
X151067000Y-69147000D01*
X151107000Y-63978000D02*
X151107000Y-65568000D01*
X151107000Y-67528000D02*
X151107000Y-69118000D01*
X151147000Y-64008000D02*
X151147000Y-65568000D01*
X151147000Y-67528000D02*
X151147000Y-69088000D01*
X151187000Y-64038000D02*
X151187000Y-65568000D01*
X151187000Y-67528000D02*
X151187000Y-69058000D01*
X151227000Y-64070000D02*
X151227000Y-65568000D01*
X151227000Y-67528000D02*
X151227000Y-69026000D01*
X151267000Y-64103000D02*
X151267000Y-65568000D01*
X151267000Y-67528000D02*
X151267000Y-68993000D01*
X151307000Y-64137000D02*
X151307000Y-65568000D01*
X151307000Y-67528000D02*
X151307000Y-68959000D01*
X151347000Y-64173000D02*
X151347000Y-65568000D01*
X151347000Y-67528000D02*
X151347000Y-68923000D01*
X151387000Y-64209000D02*
X151387000Y-65568000D01*
X151387000Y-67528000D02*
X151387000Y-68887000D01*
X151427000Y-64247000D02*
X151427000Y-68849000D01*
X151467000Y-64286000D02*
X151467000Y-68810000D01*
X151507000Y-64326000D02*
X151507000Y-68770000D01*
X151547000Y-64368000D02*
X151547000Y-68728000D01*
X151587000Y-64411000D02*
X151587000Y-68685000D01*
X151627000Y-64456000D02*
X151627000Y-68640000D01*
X151667000Y-64503000D02*
X151667000Y-68593000D01*
X151707000Y-64551000D02*
X151707000Y-68545000D01*
X151747000Y-64602000D02*
X151747000Y-68494000D01*
X151787000Y-64654000D02*
X151787000Y-68442000D01*
X151827000Y-64709000D02*
X151827000Y-68387000D01*
X151867000Y-64767000D02*
X151867000Y-68329000D01*
X151907000Y-64827000D02*
X151907000Y-68269000D01*
X151947000Y-64890000D02*
X151947000Y-68206000D01*
X151987000Y-64957000D02*
X151987000Y-68139000D01*
X152027000Y-65028000D02*
X152027000Y-68068000D01*
X152067000Y-65103000D02*
X152067000Y-67993000D01*
X152107000Y-65184000D02*
X152107000Y-67912000D01*
X152147000Y-65270000D02*
X152147000Y-67826000D01*
X152187000Y-65364000D02*
X152187000Y-67732000D01*
X152227000Y-65467000D02*
X152227000Y-67629000D01*
X152267000Y-65582000D02*
X152267000Y-67514000D01*
X152307000Y-65714000D02*
X152307000Y-67382000D01*
X152347000Y-65872000D02*
X152347000Y-67224000D01*
X152387000Y-66080000D02*
X152387000Y-67016000D01*
X145736000Y-66548000D02*
X146936000Y-66548000D01*
X146336000Y-65898000D02*
X146336000Y-67198000D01*
X152274440Y-65568643D02*
G75*
G03X146097764Y-65568000I-3088440J-979357D01*
G01*
X152274440Y-67527357D02*
G75*
G02X146097764Y-67528000I-3088440J979357D01*
G01*
X152274440Y-67527357D02*
G75*
G03X152274236Y-65568000I-3088440J979357D01*
G01*
X130768000Y-85712000D02*
X130768000Y-88532000D01*
X135318000Y-87122000D02*
X135248000Y-87122000D01*
X129858000Y-87122000D02*
X129928000Y-87122000D01*
X135248000Y-85712000D02*
X129928000Y-85712000D01*
X135248000Y-88532000D02*
X135248000Y-85712000D01*
X129928000Y-88532000D02*
X135248000Y-88532000D01*
X129928000Y-85712000D02*
X129928000Y-88532000D01*
X129928000Y-80886000D02*
X129928000Y-83706000D01*
X129928000Y-83706000D02*
X135248000Y-83706000D01*
X135248000Y-83706000D02*
X135248000Y-80886000D01*
X135248000Y-80886000D02*
X129928000Y-80886000D01*
X129858000Y-82296000D02*
X129928000Y-82296000D01*
X135318000Y-82296000D02*
X135248000Y-82296000D01*
X130768000Y-80886000D02*
X130768000Y-83706000D01*
D10*
X170180000Y-130556000D02*
X169672000Y-130048000D01*
X171704000Y-123952000D02*
X170688000Y-123952000D01*
X171704000Y-130556000D02*
X171704000Y-123952000D01*
X169672000Y-130556000D02*
X171704000Y-130556000D01*
X169672000Y-123952000D02*
X169672000Y-130556000D01*
X170688000Y-123952000D02*
X169672000Y-123952000D01*
X170688000Y-123444000D02*
X170688000Y-123952000D01*
X170688000Y-131064000D02*
X170688000Y-130556000D01*
X159126000Y-48768000D02*
X159634000Y-48768000D01*
X166746000Y-48768000D02*
X166238000Y-48768000D01*
X166238000Y-48768000D02*
X166238000Y-47752000D01*
X166238000Y-47752000D02*
X159634000Y-47752000D01*
X159634000Y-47752000D02*
X159634000Y-49784000D01*
X159634000Y-49784000D02*
X166238000Y-49784000D01*
X166238000Y-49784000D02*
X166238000Y-48768000D01*
X159634000Y-48260000D02*
X160142000Y-47752000D01*
X159634000Y-66548000D02*
X160142000Y-66040000D01*
X166238000Y-68072000D02*
X166238000Y-67056000D01*
X159634000Y-68072000D02*
X166238000Y-68072000D01*
X159634000Y-66040000D02*
X159634000Y-68072000D01*
X166238000Y-66040000D02*
X159634000Y-66040000D01*
X166238000Y-67056000D02*
X166238000Y-66040000D01*
X166746000Y-67056000D02*
X166238000Y-67056000D01*
X159126000Y-67056000D02*
X159634000Y-67056000D01*
X166746000Y-62738000D02*
X166238000Y-62738000D01*
X159126000Y-62738000D02*
X159634000Y-62738000D01*
X159634000Y-62738000D02*
X159634000Y-63754000D01*
X159634000Y-63754000D02*
X166238000Y-63754000D01*
X166238000Y-63754000D02*
X166238000Y-61722000D01*
X166238000Y-61722000D02*
X159634000Y-61722000D01*
X159634000Y-61722000D02*
X159634000Y-62738000D01*
X166238000Y-63246000D02*
X165730000Y-63754000D01*
X159634000Y-80264000D02*
X160142000Y-79756000D01*
X166238000Y-81788000D02*
X166238000Y-80772000D01*
X159634000Y-81788000D02*
X166238000Y-81788000D01*
X159634000Y-79756000D02*
X159634000Y-81788000D01*
X166238000Y-79756000D02*
X159634000Y-79756000D01*
X166238000Y-80772000D02*
X166238000Y-79756000D01*
X166746000Y-80772000D02*
X166238000Y-80772000D01*
X159126000Y-80772000D02*
X159634000Y-80772000D01*
X125476000Y-117602000D02*
X125476000Y-117094000D01*
X125476000Y-109982000D02*
X125476000Y-110490000D01*
X125476000Y-110490000D02*
X124460000Y-110490000D01*
X124460000Y-110490000D02*
X124460000Y-117094000D01*
X124460000Y-117094000D02*
X126492000Y-117094000D01*
X126492000Y-117094000D02*
X126492000Y-110490000D01*
X126492000Y-110490000D02*
X125476000Y-110490000D01*
X124968000Y-117094000D02*
X124460000Y-116586000D01*
X166238000Y-85852000D02*
X165730000Y-86360000D01*
X159634000Y-84328000D02*
X159634000Y-85344000D01*
X166238000Y-84328000D02*
X159634000Y-84328000D01*
X166238000Y-86360000D02*
X166238000Y-84328000D01*
X159634000Y-86360000D02*
X166238000Y-86360000D01*
X159634000Y-85344000D02*
X159634000Y-86360000D01*
X159126000Y-85344000D02*
X159634000Y-85344000D01*
X166746000Y-85344000D02*
X166238000Y-85344000D01*
X166746000Y-53340000D02*
X166238000Y-53340000D01*
X159126000Y-53340000D02*
X159634000Y-53340000D01*
X159634000Y-53340000D02*
X159634000Y-54356000D01*
X159634000Y-54356000D02*
X166238000Y-54356000D01*
X166238000Y-54356000D02*
X166238000Y-52324000D01*
X166238000Y-52324000D02*
X159634000Y-52324000D01*
X159634000Y-52324000D02*
X159634000Y-53340000D01*
X166238000Y-53848000D02*
X165730000Y-54356000D01*
X166238000Y-58420000D02*
X165730000Y-58928000D01*
X159634000Y-56896000D02*
X159634000Y-57912000D01*
X166238000Y-56896000D02*
X159634000Y-56896000D01*
X166238000Y-58928000D02*
X166238000Y-56896000D01*
X159634000Y-58928000D02*
X166238000Y-58928000D01*
X159634000Y-57912000D02*
X159634000Y-58928000D01*
X159126000Y-57912000D02*
X159634000Y-57912000D01*
X166746000Y-57912000D02*
X166238000Y-57912000D01*
X166746000Y-76200000D02*
X166238000Y-76200000D01*
X159126000Y-76200000D02*
X159634000Y-76200000D01*
X159634000Y-76200000D02*
X159634000Y-77216000D01*
X159634000Y-77216000D02*
X166238000Y-77216000D01*
X166238000Y-77216000D02*
X166238000Y-75184000D01*
X166238000Y-75184000D02*
X159634000Y-75184000D01*
X159634000Y-75184000D02*
X159634000Y-76200000D01*
X166238000Y-76708000D02*
X165730000Y-77216000D01*
D12*
X128584478Y-51247522D02*
G75*
G03X124146000Y-53086000I-1838478J-1838478D01*
G01*
X128584478Y-54924478D02*
G75*
G02X124146000Y-53086000I-1838478J1838478D01*
G01*
X128596000Y-54886000D02*
X128596000Y-51286000D01*
D14*
X166436163Y-97401843D02*
G75*
G03X166436163Y-97401843I-3500000J0D01*
G01*
X167790163Y-102391943D02*
G75*
G02X167026263Y-102901843I-636900J127000D01*
G01*
X158846063Y-102901843D02*
X167026263Y-102901843D01*
X158846063Y-102901843D02*
G75*
G02X158082163Y-102391943I-127000J636900D01*
G01*
X158082163Y-92411743D02*
X158082163Y-102391943D01*
X158082163Y-92411743D02*
G75*
G02X158846063Y-91901843I636900J-127000D01*
G01*
X167026263Y-91901843D02*
X158846063Y-91901843D01*
X167026263Y-91901843D02*
G75*
G02X167790163Y-92411743I127000J-636900D01*
G01*
X167790163Y-102391943D02*
X167790163Y-92411743D01*
D10*
X164587000Y-99559000D02*
G75*
G03X161285000Y-99559000I-1651000J2159000D01*
G01*
X161285000Y-99559000D02*
X164587000Y-99559000D01*
X145923000Y-83947000D02*
X149225000Y-83947000D01*
X149225000Y-83947000D02*
G75*
G03X145923000Y-83947000I-1651000J2159000D01*
G01*
D14*
X152428163Y-86779943D02*
X152428163Y-76799743D01*
X151664263Y-76289843D02*
G75*
G02X152428163Y-76799743I127000J-636900D01*
G01*
X151664263Y-76289843D02*
X143484063Y-76289843D01*
X142720163Y-76799743D02*
G75*
G02X143484063Y-76289843I636900J-127000D01*
G01*
X142720163Y-76799743D02*
X142720163Y-86779943D01*
X143484063Y-87289843D02*
G75*
G02X142720163Y-86779943I-127000J636900D01*
G01*
X143484063Y-87289843D02*
X151664263Y-87289843D01*
X152428163Y-86779943D02*
G75*
G02X151664263Y-87289843I-636900J127000D01*
G01*
X151074163Y-81789843D02*
G75*
G03X151074163Y-81789843I-3500000J0D01*
G01*
X136436163Y-97401843D02*
G75*
G03X136436163Y-97401843I-3500000J0D01*
G01*
X137790163Y-102391943D02*
G75*
G02X137026263Y-102901843I-636900J127000D01*
G01*
X128846063Y-102901843D02*
X137026263Y-102901843D01*
X128846063Y-102901843D02*
G75*
G02X128082163Y-102391943I-127000J636900D01*
G01*
X128082163Y-92411743D02*
X128082163Y-102391943D01*
X128082163Y-92411743D02*
G75*
G02X128846063Y-91901843I636900J-127000D01*
G01*
X137026263Y-91901843D02*
X128846063Y-91901843D01*
X137026263Y-91901843D02*
G75*
G02X137790163Y-92411743I127000J-636900D01*
G01*
X137790163Y-102391943D02*
X137790163Y-92411743D01*
D10*
X134587000Y-99559000D02*
G75*
G03X131285000Y-99559000I-1651000J2159000D01*
G01*
X131285000Y-99559000D02*
X134587000Y-99559000D01*
D15*
X169540000Y-118935500D02*
G75*
G02X169413000Y-119062500I-127000J0D01*
G01*
X156332000Y-111188500D02*
G75*
G02X156459000Y-111061500I127000J0D01*
G01*
X169413000Y-111061500D02*
G75*
G02X169540000Y-111188500I0J-127000D01*
G01*
X156459000Y-119062500D02*
G75*
G02X156332000Y-118935500I0J127000D01*
G01*
X165936000Y-115062000D02*
G75*
G03X165936000Y-115062000I-3000000J0D01*
G01*
X169436000Y-119062000D02*
X156436000Y-119062000D01*
X169536000Y-111162000D02*
X169536000Y-118962000D01*
X156436000Y-111062000D02*
X169436000Y-111062000D01*
X156336000Y-118962000D02*
X156336000Y-111162000D01*
X126332000Y-68526500D02*
G75*
G02X126459000Y-68399500I127000J0D01*
G01*
X139540000Y-76273500D02*
G75*
G02X139413000Y-76400500I-127000J0D01*
G01*
X126459000Y-76400500D02*
G75*
G02X126332000Y-76273500I0J127000D01*
G01*
X139413000Y-68399500D02*
G75*
G02X139540000Y-68526500I0J-127000D01*
G01*
X135936000Y-72400000D02*
G75*
G03X135936000Y-72400000I-3000000J0D01*
G01*
X126436000Y-68400000D02*
X139436000Y-68400000D01*
X126336000Y-76300000D02*
X126336000Y-68500000D01*
X139436000Y-76400000D02*
X126436000Y-76400000D01*
X139536000Y-68500000D02*
X139536000Y-76300000D01*
D16*
X131813904Y-116537619D02*
X131813904Y-117360095D01*
X131862285Y-117456857D01*
X131910666Y-117505238D01*
X132007428Y-117553619D01*
X132200952Y-117553619D01*
X132297714Y-117505238D01*
X132346095Y-117456857D01*
X132394476Y-117360095D01*
X132394476Y-116537619D01*
X132829904Y-116634380D02*
X132878285Y-116586000D01*
X132975047Y-116537619D01*
X133216952Y-116537619D01*
X133313714Y-116586000D01*
X133362095Y-116634380D01*
X133410476Y-116731142D01*
X133410476Y-116827904D01*
X133362095Y-116973047D01*
X132781523Y-117553619D01*
X133410476Y-117553619D01*
D10*
X151431666Y-123277380D02*
X152098333Y-123277380D01*
X151669761Y-124277380D01*
X148780476Y-123277380D02*
X148590000Y-123277380D01*
X148494761Y-123325000D01*
X148447142Y-123372619D01*
X148351904Y-123515476D01*
X148304285Y-123705952D01*
X148304285Y-124086904D01*
X148351904Y-124182142D01*
X148399523Y-124229761D01*
X148494761Y-124277380D01*
X148685238Y-124277380D01*
X148780476Y-124229761D01*
X148828095Y-124182142D01*
X148875714Y-124086904D01*
X148875714Y-123848809D01*
X148828095Y-123753571D01*
X148780476Y-123705952D01*
X148685238Y-123658333D01*
X148494761Y-123658333D01*
X148399523Y-123705952D01*
X148351904Y-123753571D01*
X148304285Y-123848809D01*
X146288095Y-123277380D02*
X145811904Y-123277380D01*
X145764285Y-123753571D01*
X145811904Y-123705952D01*
X145907142Y-123658333D01*
X146145238Y-123658333D01*
X146240476Y-123705952D01*
X146288095Y-123753571D01*
X146335714Y-123848809D01*
X146335714Y-124086904D01*
X146288095Y-124182142D01*
X146240476Y-124229761D01*
X146145238Y-124277380D01*
X145907142Y-124277380D01*
X145811904Y-124229761D01*
X145764285Y-124182142D01*
X143700476Y-123610714D02*
X143700476Y-124277380D01*
X143462380Y-123229761D02*
X143224285Y-123944047D01*
X143843333Y-123944047D01*
X140636666Y-123277380D02*
X141255714Y-123277380D01*
X140922380Y-123658333D01*
X141065238Y-123658333D01*
X141160476Y-123705952D01*
X141208095Y-123753571D01*
X141255714Y-123848809D01*
X141255714Y-124086904D01*
X141208095Y-124182142D01*
X141160476Y-124229761D01*
X141065238Y-124277380D01*
X140779523Y-124277380D01*
X140684285Y-124229761D01*
X140636666Y-124182142D01*
X138144285Y-123372619D02*
X138191904Y-123325000D01*
X138287142Y-123277380D01*
X138525238Y-123277380D01*
X138620476Y-123325000D01*
X138668095Y-123372619D01*
X138715714Y-123467857D01*
X138715714Y-123563095D01*
X138668095Y-123705952D01*
X138096666Y-124277380D01*
X138715714Y-124277380D01*
X136175714Y-124277380D02*
X135604285Y-124277380D01*
X135890000Y-124277380D02*
X135890000Y-123277380D01*
X135794761Y-123420238D01*
X135699523Y-123515476D01*
X135604285Y-123563095D01*
X161798095Y-132723000D02*
X161702857Y-132675380D01*
X161560000Y-132675380D01*
X161417142Y-132723000D01*
X161321904Y-132818238D01*
X161274285Y-132913476D01*
X161226666Y-133103952D01*
X161226666Y-133246809D01*
X161274285Y-133437285D01*
X161321904Y-133532523D01*
X161417142Y-133627761D01*
X161560000Y-133675380D01*
X161655238Y-133675380D01*
X161798095Y-133627761D01*
X161845714Y-133580142D01*
X161845714Y-133246809D01*
X161655238Y-133246809D01*
X162274285Y-133675380D02*
X162274285Y-132675380D01*
X162845714Y-133675380D01*
X162845714Y-132675380D01*
X163321904Y-133675380D02*
X163321904Y-132675380D01*
X163560000Y-132675380D01*
X163702857Y-132723000D01*
X163798095Y-132818238D01*
X163845714Y-132913476D01*
X163893333Y-133103952D01*
X163893333Y-133246809D01*
X163845714Y-133437285D01*
X163798095Y-133532523D01*
X163702857Y-133627761D01*
X163560000Y-133675380D01*
X163321904Y-133675380D01*
X164766666Y-128357380D02*
X165433333Y-128357380D01*
X165004761Y-129357380D01*
X157797476Y-128103380D02*
X157607000Y-128103380D01*
X157511761Y-128151000D01*
X157464142Y-128198619D01*
X157368904Y-128341476D01*
X157321285Y-128531952D01*
X157321285Y-128912904D01*
X157368904Y-129008142D01*
X157416523Y-129055761D01*
X157511761Y-129103380D01*
X157702238Y-129103380D01*
X157797476Y-129055761D01*
X157845095Y-129008142D01*
X157892714Y-128912904D01*
X157892714Y-128674809D01*
X157845095Y-128579571D01*
X157797476Y-128531952D01*
X157702238Y-128484333D01*
X157511761Y-128484333D01*
X157416523Y-128531952D01*
X157368904Y-128579571D01*
X157321285Y-128674809D01*
X150606095Y-128103380D02*
X150129904Y-128103380D01*
X150082285Y-128579571D01*
X150129904Y-128531952D01*
X150225142Y-128484333D01*
X150463238Y-128484333D01*
X150558476Y-128531952D01*
X150606095Y-128579571D01*
X150653714Y-128674809D01*
X150653714Y-128912904D01*
X150606095Y-129008142D01*
X150558476Y-129055761D01*
X150463238Y-129103380D01*
X150225142Y-129103380D01*
X150129904Y-129055761D01*
X150082285Y-129008142D01*
X146367476Y-128500214D02*
X146367476Y-129166880D01*
X146129380Y-128119261D02*
X145891285Y-128833547D01*
X146510333Y-128833547D01*
X138604666Y-128293880D02*
X139223714Y-128293880D01*
X138890380Y-128674833D01*
X139033238Y-128674833D01*
X139128476Y-128722452D01*
X139176095Y-128770071D01*
X139223714Y-128865309D01*
X139223714Y-129103404D01*
X139176095Y-129198642D01*
X139128476Y-129246261D01*
X139033238Y-129293880D01*
X138747523Y-129293880D01*
X138652285Y-129246261D01*
X138604666Y-129198642D01*
X134461285Y-128325619D02*
X134508904Y-128278000D01*
X134604142Y-128230380D01*
X134842238Y-128230380D01*
X134937476Y-128278000D01*
X134985095Y-128325619D01*
X135032714Y-128420857D01*
X135032714Y-128516095D01*
X134985095Y-128658952D01*
X134413666Y-129230380D01*
X135032714Y-129230380D01*
X127730214Y-129357380D02*
X127158785Y-129357380D01*
X127444500Y-129357380D02*
X127444500Y-128357380D01*
X127349261Y-128500238D01*
X127254023Y-128595476D01*
X127158785Y-128643095D01*
X158940595Y-149360000D02*
X158845357Y-149312380D01*
X158702500Y-149312380D01*
X158559642Y-149360000D01*
X158464404Y-149455238D01*
X158416785Y-149550476D01*
X158369166Y-149740952D01*
X158369166Y-149883809D01*
X158416785Y-150074285D01*
X158464404Y-150169523D01*
X158559642Y-150264761D01*
X158702500Y-150312380D01*
X158797738Y-150312380D01*
X158940595Y-150264761D01*
X158988214Y-150217142D01*
X158988214Y-149883809D01*
X158797738Y-149883809D01*
X159416785Y-150312380D02*
X159416785Y-149312380D01*
X159988214Y-150312380D01*
X159988214Y-149312380D01*
X160464404Y-150312380D02*
X160464404Y-149312380D01*
X160702500Y-149312380D01*
X160845357Y-149360000D01*
X160940595Y-149455238D01*
X160988214Y-149550476D01*
X161035833Y-149740952D01*
X161035833Y-149883809D01*
X160988214Y-150074285D01*
X160940595Y-150169523D01*
X160845357Y-150264761D01*
X160702500Y-150312380D01*
X160464404Y-150312380D01*
X147447095Y-149360000D02*
X147351857Y-149312380D01*
X147209000Y-149312380D01*
X147066142Y-149360000D01*
X146970904Y-149455238D01*
X146923285Y-149550476D01*
X146875666Y-149740952D01*
X146875666Y-149883809D01*
X146923285Y-150074285D01*
X146970904Y-150169523D01*
X147066142Y-150264761D01*
X147209000Y-150312380D01*
X147304238Y-150312380D01*
X147447095Y-150264761D01*
X147494714Y-150217142D01*
X147494714Y-149883809D01*
X147304238Y-149883809D01*
X147923285Y-150312380D02*
X147923285Y-149312380D01*
X148494714Y-150312380D01*
X148494714Y-149312380D01*
X148970904Y-150312380D02*
X148970904Y-149312380D01*
X149209000Y-149312380D01*
X149351857Y-149360000D01*
X149447095Y-149455238D01*
X149494714Y-149550476D01*
X149542333Y-149740952D01*
X149542333Y-149883809D01*
X149494714Y-150074285D01*
X149447095Y-150169523D01*
X149351857Y-150264761D01*
X149209000Y-150312380D01*
X148970904Y-150312380D01*
X136017095Y-149360000D02*
X135921857Y-149312380D01*
X135779000Y-149312380D01*
X135636142Y-149360000D01*
X135540904Y-149455238D01*
X135493285Y-149550476D01*
X135445666Y-149740952D01*
X135445666Y-149883809D01*
X135493285Y-150074285D01*
X135540904Y-150169523D01*
X135636142Y-150264761D01*
X135779000Y-150312380D01*
X135874238Y-150312380D01*
X136017095Y-150264761D01*
X136064714Y-150217142D01*
X136064714Y-149883809D01*
X135874238Y-149883809D01*
X136493285Y-150312380D02*
X136493285Y-149312380D01*
X137064714Y-150312380D01*
X137064714Y-149312380D01*
X137540904Y-150312380D02*
X137540904Y-149312380D01*
X137779000Y-149312380D01*
X137921857Y-149360000D01*
X138017095Y-149455238D01*
X138064714Y-149550476D01*
X138112333Y-149740952D01*
X138112333Y-149883809D01*
X138064714Y-150074285D01*
X138017095Y-150169523D01*
X137921857Y-150264761D01*
X137779000Y-150312380D01*
X137540904Y-150312380D01*
X134556666Y-115895380D02*
X134556666Y-114895380D01*
X134937619Y-114895380D01*
X135032857Y-114943000D01*
X135080476Y-114990619D01*
X135128095Y-115085857D01*
X135128095Y-115228714D01*
X135080476Y-115323952D01*
X135032857Y-115371571D01*
X134937619Y-115419190D01*
X134556666Y-115419190D01*
X135461428Y-114895380D02*
X135699523Y-115895380D01*
X135890000Y-115181095D01*
X136080476Y-115895380D01*
X136318571Y-114895380D01*
X137270952Y-115895380D02*
X136937619Y-115419190D01*
X136699523Y-115895380D02*
X136699523Y-114895380D01*
X137080476Y-114895380D01*
X137175714Y-114943000D01*
X137223333Y-114990619D01*
X137270952Y-115085857D01*
X137270952Y-115228714D01*
X137223333Y-115323952D01*
X137175714Y-115371571D01*
X137080476Y-115419190D01*
X136699523Y-115419190D01*
X125904666Y-38314380D02*
X125904666Y-39028666D01*
X125857047Y-39171523D01*
X125761809Y-39266761D01*
X125618952Y-39314380D01*
X125523714Y-39314380D01*
X126333238Y-38409619D02*
X126380857Y-38362000D01*
X126476095Y-38314380D01*
X126714190Y-38314380D01*
X126809428Y-38362000D01*
X126857047Y-38409619D01*
X126904666Y-38504857D01*
X126904666Y-38600095D01*
X126857047Y-38742952D01*
X126285619Y-39314380D01*
X126904666Y-39314380D01*
D15*
X124122952Y-45446190D02*
X124408666Y-45446190D01*
X124265809Y-45946190D02*
X124265809Y-45446190D01*
X124575333Y-45946190D02*
X124575333Y-45612857D01*
X124575333Y-45708095D02*
X124599142Y-45660476D01*
X124622952Y-45636666D01*
X124670571Y-45612857D01*
X124718190Y-45612857D01*
X124884857Y-45946190D02*
X124884857Y-45612857D01*
X124884857Y-45446190D02*
X124861047Y-45470000D01*
X124884857Y-45493809D01*
X124908666Y-45470000D01*
X124884857Y-45446190D01*
X124884857Y-45493809D01*
X125337238Y-45612857D02*
X125337238Y-46017619D01*
X125313428Y-46065238D01*
X125289619Y-46089047D01*
X125242000Y-46112857D01*
X125170571Y-46112857D01*
X125122952Y-46089047D01*
X125337238Y-45922380D02*
X125289619Y-45946190D01*
X125194380Y-45946190D01*
X125146761Y-45922380D01*
X125122952Y-45898571D01*
X125099142Y-45850952D01*
X125099142Y-45708095D01*
X125122952Y-45660476D01*
X125146761Y-45636666D01*
X125194380Y-45612857D01*
X125289619Y-45612857D01*
X125337238Y-45636666D01*
X125789619Y-45612857D02*
X125789619Y-46017619D01*
X125765809Y-46065238D01*
X125742000Y-46089047D01*
X125694380Y-46112857D01*
X125622952Y-46112857D01*
X125575333Y-46089047D01*
X125789619Y-45922380D02*
X125742000Y-45946190D01*
X125646761Y-45946190D01*
X125599142Y-45922380D01*
X125575333Y-45898571D01*
X125551523Y-45850952D01*
X125551523Y-45708095D01*
X125575333Y-45660476D01*
X125599142Y-45636666D01*
X125646761Y-45612857D01*
X125742000Y-45612857D01*
X125789619Y-45636666D01*
X126218190Y-45922380D02*
X126170571Y-45946190D01*
X126075333Y-45946190D01*
X126027714Y-45922380D01*
X126003904Y-45874761D01*
X126003904Y-45684285D01*
X126027714Y-45636666D01*
X126075333Y-45612857D01*
X126170571Y-45612857D01*
X126218190Y-45636666D01*
X126242000Y-45684285D01*
X126242000Y-45731904D01*
X126003904Y-45779523D01*
X126456285Y-45946190D02*
X126456285Y-45612857D01*
X126456285Y-45708095D02*
X126480095Y-45660476D01*
X126503904Y-45636666D01*
X126551523Y-45612857D01*
X126599142Y-45612857D01*
X126646761Y-45993809D02*
X127027714Y-45993809D01*
X127146761Y-45946190D02*
X127146761Y-45446190D01*
X127384857Y-45612857D02*
X127384857Y-45946190D01*
X127384857Y-45660476D02*
X127408666Y-45636666D01*
X127456285Y-45612857D01*
X127527714Y-45612857D01*
X127575333Y-45636666D01*
X127599142Y-45684285D01*
X127599142Y-45946190D01*
X127837238Y-45612857D02*
X127837238Y-46112857D01*
X127837238Y-45636666D02*
X127884857Y-45612857D01*
X127980095Y-45612857D01*
X128027714Y-45636666D01*
X128051523Y-45660476D01*
X128075333Y-45708095D01*
X128075333Y-45850952D01*
X128051523Y-45898571D01*
X128027714Y-45922380D01*
X127980095Y-45946190D01*
X127884857Y-45946190D01*
X127837238Y-45922380D01*
X128503904Y-45612857D02*
X128503904Y-45946190D01*
X128289619Y-45612857D02*
X128289619Y-45874761D01*
X128313428Y-45922380D01*
X128361047Y-45946190D01*
X128432476Y-45946190D01*
X128480095Y-45922380D01*
X128503904Y-45898571D01*
X128670571Y-45612857D02*
X128861047Y-45612857D01*
X128742000Y-45446190D02*
X128742000Y-45874761D01*
X128765809Y-45922380D01*
X128813428Y-45946190D01*
X128861047Y-45946190D01*
X128979809Y-43527142D02*
X128979809Y-43812857D01*
X128479809Y-43670000D02*
X128979809Y-43670000D01*
X128503619Y-40987142D02*
X128479809Y-41058571D01*
X128479809Y-41177619D01*
X128503619Y-41225238D01*
X128527428Y-41249047D01*
X128575047Y-41272857D01*
X128622666Y-41272857D01*
X128670285Y-41249047D01*
X128694095Y-41225238D01*
X128717904Y-41177619D01*
X128741714Y-41082380D01*
X128765523Y-41034761D01*
X128789333Y-41010952D01*
X128836952Y-40987142D01*
X128884571Y-40987142D01*
X128932190Y-41010952D01*
X128956000Y-41034761D01*
X128979809Y-41082380D01*
X128979809Y-41201428D01*
X128956000Y-41272857D01*
D17*
X126064809Y-41810714D02*
X126052904Y-41846428D01*
X126052904Y-41905952D01*
X126064809Y-41929761D01*
X126076714Y-41941666D01*
X126100523Y-41953571D01*
X126124333Y-41953571D01*
X126148142Y-41941666D01*
X126160047Y-41929761D01*
X126171952Y-41905952D01*
X126183857Y-41858333D01*
X126195761Y-41834523D01*
X126207666Y-41822619D01*
X126231476Y-41810714D01*
X126255285Y-41810714D01*
X126279095Y-41822619D01*
X126291000Y-41834523D01*
X126302904Y-41858333D01*
X126302904Y-41917857D01*
X126291000Y-41953571D01*
X126302904Y-42025000D02*
X126302904Y-42167857D01*
X126052904Y-42096428D02*
X126302904Y-42096428D01*
X126052904Y-42394047D02*
X126171952Y-42310714D01*
X126052904Y-42251190D02*
X126302904Y-42251190D01*
X126302904Y-42346428D01*
X126291000Y-42370238D01*
X126279095Y-42382142D01*
X126255285Y-42394047D01*
X126219571Y-42394047D01*
X126195761Y-42382142D01*
X126183857Y-42370238D01*
X126171952Y-42346428D01*
X126171952Y-42251190D01*
X126124333Y-42489285D02*
X126124333Y-42608333D01*
X126052904Y-42465476D02*
X126302904Y-42548809D01*
X126052904Y-42632142D01*
X126052904Y-42715476D02*
X126302904Y-42715476D01*
X126052904Y-42834523D02*
X126302904Y-42834523D01*
X126052904Y-42977380D01*
X126302904Y-42977380D01*
D10*
X145682666Y-45388571D02*
X145825523Y-45436190D01*
X145873142Y-45483809D01*
X145920761Y-45579047D01*
X145920761Y-45721904D01*
X145873142Y-45817142D01*
X145825523Y-45864761D01*
X145730285Y-45912380D01*
X145349333Y-45912380D01*
X145349333Y-44912380D01*
X145682666Y-44912380D01*
X145777904Y-44960000D01*
X145825523Y-45007619D01*
X145873142Y-45102857D01*
X145873142Y-45198095D01*
X145825523Y-45293333D01*
X145777904Y-45340952D01*
X145682666Y-45388571D01*
X145349333Y-45388571D01*
X146777904Y-45245714D02*
X146777904Y-45912380D01*
X146349333Y-45245714D02*
X146349333Y-45769523D01*
X146396952Y-45864761D01*
X146492190Y-45912380D01*
X146635047Y-45912380D01*
X146730285Y-45864761D01*
X146777904Y-45817142D01*
X147111238Y-45245714D02*
X147492190Y-45245714D01*
X147254095Y-44912380D02*
X147254095Y-45769523D01*
X147301714Y-45864761D01*
X147396952Y-45912380D01*
X147492190Y-45912380D01*
X147682666Y-45245714D02*
X148063619Y-45245714D01*
X147825523Y-44912380D02*
X147825523Y-45769523D01*
X147873142Y-45864761D01*
X147968380Y-45912380D01*
X148063619Y-45912380D01*
X148539809Y-45912380D02*
X148444571Y-45864761D01*
X148396952Y-45817142D01*
X148349333Y-45721904D01*
X148349333Y-45436190D01*
X148396952Y-45340952D01*
X148444571Y-45293333D01*
X148539809Y-45245714D01*
X148682666Y-45245714D01*
X148777904Y-45293333D01*
X148825523Y-45340952D01*
X148873142Y-45436190D01*
X148873142Y-45721904D01*
X148825523Y-45817142D01*
X148777904Y-45864761D01*
X148682666Y-45912380D01*
X148539809Y-45912380D01*
X149301714Y-45245714D02*
X149301714Y-45912380D01*
X149301714Y-45340952D02*
X149349333Y-45293333D01*
X149444571Y-45245714D01*
X149587428Y-45245714D01*
X149682666Y-45293333D01*
X149730285Y-45388571D01*
X149730285Y-45912380D01*
X150730285Y-45912380D02*
X150158857Y-45912380D01*
X150444571Y-45912380D02*
X150444571Y-44912380D01*
X150349333Y-45055238D01*
X150254095Y-45150476D01*
X150158857Y-45198095D01*
D17*
X147346714Y-41501190D02*
X147382428Y-41513095D01*
X147441952Y-41513095D01*
X147465761Y-41501190D01*
X147477666Y-41489285D01*
X147489571Y-41465476D01*
X147489571Y-41441666D01*
X147477666Y-41417857D01*
X147465761Y-41405952D01*
X147441952Y-41394047D01*
X147394333Y-41382142D01*
X147370523Y-41370238D01*
X147358619Y-41358333D01*
X147346714Y-41334523D01*
X147346714Y-41310714D01*
X147358619Y-41286904D01*
X147370523Y-41275000D01*
X147394333Y-41263095D01*
X147453857Y-41263095D01*
X147489571Y-41275000D01*
X147561000Y-41263095D02*
X147703857Y-41263095D01*
X147632428Y-41513095D02*
X147632428Y-41263095D01*
X147930047Y-41513095D02*
X147846714Y-41394047D01*
X147787190Y-41513095D02*
X147787190Y-41263095D01*
X147882428Y-41263095D01*
X147906238Y-41275000D01*
X147918142Y-41286904D01*
X147930047Y-41310714D01*
X147930047Y-41346428D01*
X147918142Y-41370238D01*
X147906238Y-41382142D01*
X147882428Y-41394047D01*
X147787190Y-41394047D01*
X148025285Y-41441666D02*
X148144333Y-41441666D01*
X148001476Y-41513095D02*
X148084809Y-41263095D01*
X148168142Y-41513095D01*
X148251476Y-41513095D02*
X148251476Y-41263095D01*
X148370523Y-41513095D02*
X148370523Y-41263095D01*
X148513380Y-41513095D01*
X148513380Y-41263095D01*
D15*
X146523142Y-44142380D02*
X146594571Y-44166190D01*
X146713619Y-44166190D01*
X146761238Y-44142380D01*
X146785047Y-44118571D01*
X146808857Y-44070952D01*
X146808857Y-44023333D01*
X146785047Y-43975714D01*
X146761238Y-43951904D01*
X146713619Y-43928095D01*
X146618380Y-43904285D01*
X146570761Y-43880476D01*
X146546952Y-43856666D01*
X146523142Y-43809047D01*
X146523142Y-43761428D01*
X146546952Y-43713809D01*
X146570761Y-43690000D01*
X146618380Y-43666190D01*
X146737428Y-43666190D01*
X146808857Y-43690000D01*
X149063142Y-43666190D02*
X149348857Y-43666190D01*
X149206000Y-44166190D02*
X149206000Y-43666190D01*
D10*
X169202666Y-38472380D02*
X169202666Y-39186666D01*
X169155047Y-39329523D01*
X169059809Y-39424761D01*
X168916952Y-39472380D01*
X168821714Y-39472380D01*
X169583619Y-38472380D02*
X170202666Y-38472380D01*
X169869333Y-38853333D01*
X170012190Y-38853333D01*
X170107428Y-38900952D01*
X170155047Y-38948571D01*
X170202666Y-39043809D01*
X170202666Y-39281904D01*
X170155047Y-39377142D01*
X170107428Y-39424761D01*
X170012190Y-39472380D01*
X169726476Y-39472380D01*
X169631238Y-39424761D01*
X169583619Y-39377142D01*
D15*
X168574095Y-45446190D02*
X168669333Y-45446190D01*
X168716952Y-45470000D01*
X168764571Y-45517619D01*
X168788380Y-45612857D01*
X168788380Y-45779523D01*
X168764571Y-45874761D01*
X168716952Y-45922380D01*
X168669333Y-45946190D01*
X168574095Y-45946190D01*
X168526476Y-45922380D01*
X168478857Y-45874761D01*
X168455047Y-45779523D01*
X168455047Y-45612857D01*
X168478857Y-45517619D01*
X168526476Y-45470000D01*
X168574095Y-45446190D01*
X169216952Y-45612857D02*
X169216952Y-45946190D01*
X169002666Y-45612857D02*
X169002666Y-45874761D01*
X169026476Y-45922380D01*
X169074095Y-45946190D01*
X169145523Y-45946190D01*
X169193142Y-45922380D01*
X169216952Y-45898571D01*
X169383619Y-45612857D02*
X169574095Y-45612857D01*
X169455047Y-45446190D02*
X169455047Y-45874761D01*
X169478857Y-45922380D01*
X169526476Y-45946190D01*
X169574095Y-45946190D01*
X169740761Y-45612857D02*
X169740761Y-46112857D01*
X169740761Y-45636666D02*
X169788380Y-45612857D01*
X169883619Y-45612857D01*
X169931238Y-45636666D01*
X169955047Y-45660476D01*
X169978857Y-45708095D01*
X169978857Y-45850952D01*
X169955047Y-45898571D01*
X169931238Y-45922380D01*
X169883619Y-45946190D01*
X169788380Y-45946190D01*
X169740761Y-45922380D01*
X170407428Y-45612857D02*
X170407428Y-45946190D01*
X170193142Y-45612857D02*
X170193142Y-45874761D01*
X170216952Y-45922380D01*
X170264571Y-45946190D01*
X170336000Y-45946190D01*
X170383619Y-45922380D01*
X170407428Y-45898571D01*
X170574095Y-45612857D02*
X170764571Y-45612857D01*
X170645523Y-45446190D02*
X170645523Y-45874761D01*
X170669333Y-45922380D01*
X170716952Y-45946190D01*
X170764571Y-45946190D01*
D17*
X169773190Y-42989285D02*
X169785095Y-42953571D01*
X169785095Y-42894047D01*
X169773190Y-42870238D01*
X169761285Y-42858333D01*
X169737476Y-42846428D01*
X169713666Y-42846428D01*
X169689857Y-42858333D01*
X169677952Y-42870238D01*
X169666047Y-42894047D01*
X169654142Y-42941666D01*
X169642238Y-42965476D01*
X169630333Y-42977380D01*
X169606523Y-42989285D01*
X169582714Y-42989285D01*
X169558904Y-42977380D01*
X169547000Y-42965476D01*
X169535095Y-42941666D01*
X169535095Y-42882142D01*
X169547000Y-42846428D01*
X169535095Y-42775000D02*
X169535095Y-42632142D01*
X169785095Y-42703571D02*
X169535095Y-42703571D01*
X169785095Y-42405952D02*
X169666047Y-42489285D01*
X169785095Y-42548809D02*
X169535095Y-42548809D01*
X169535095Y-42453571D01*
X169547000Y-42429761D01*
X169558904Y-42417857D01*
X169582714Y-42405952D01*
X169618428Y-42405952D01*
X169642238Y-42417857D01*
X169654142Y-42429761D01*
X169666047Y-42453571D01*
X169666047Y-42548809D01*
X169713666Y-42310714D02*
X169713666Y-42191666D01*
X169785095Y-42334523D02*
X169535095Y-42251190D01*
X169785095Y-42167857D01*
X169785095Y-42084523D02*
X169535095Y-42084523D01*
X169785095Y-41965476D02*
X169535095Y-41965476D01*
X169785095Y-41822619D01*
X169535095Y-41822619D01*
D15*
X167334380Y-41272857D02*
X167358190Y-41201428D01*
X167358190Y-41082380D01*
X167334380Y-41034761D01*
X167310571Y-41010952D01*
X167262952Y-40987142D01*
X167215333Y-40987142D01*
X167167714Y-41010952D01*
X167143904Y-41034761D01*
X167120095Y-41082380D01*
X167096285Y-41177619D01*
X167072476Y-41225238D01*
X167048666Y-41249047D01*
X167001047Y-41272857D01*
X166953428Y-41272857D01*
X166905809Y-41249047D01*
X166882000Y-41225238D01*
X166858190Y-41177619D01*
X166858190Y-41058571D01*
X166882000Y-40987142D01*
X166858190Y-43812857D02*
X166858190Y-43527142D01*
X167358190Y-43670000D02*
X166858190Y-43670000D01*
D18*
X162486000Y-72198666D02*
X162252666Y-71865333D01*
X162086000Y-72198666D02*
X162086000Y-71498666D01*
X162352666Y-71498666D01*
X162419333Y-71532000D01*
X162452666Y-71565333D01*
X162486000Y-71632000D01*
X162486000Y-71732000D01*
X162452666Y-71798666D01*
X162419333Y-71832000D01*
X162352666Y-71865333D01*
X162086000Y-71865333D01*
X163152666Y-72198666D02*
X162752666Y-72198666D01*
X162952666Y-72198666D02*
X162952666Y-71498666D01*
X162886000Y-71598666D01*
X162819333Y-71665333D01*
X162752666Y-71698666D01*
X163819333Y-72198666D02*
X163419333Y-72198666D01*
X163619333Y-72198666D02*
X163619333Y-71498666D01*
X163552666Y-71598666D01*
X163486000Y-71665333D01*
X163419333Y-71698666D01*
X168440666Y-72198666D02*
X168040666Y-72198666D01*
X168240666Y-72198666D02*
X168240666Y-71498666D01*
X168174000Y-71598666D01*
X168107333Y-71665333D01*
X168040666Y-71698666D01*
X168740666Y-72198666D02*
X168740666Y-71498666D01*
X168807333Y-71932000D02*
X169007333Y-72198666D01*
X169007333Y-71732000D02*
X168740666Y-71998666D01*
X144758666Y-100433333D02*
X145325333Y-100433333D01*
X145392000Y-100400000D01*
X145425333Y-100366666D01*
X145458666Y-100300000D01*
X145458666Y-100166666D01*
X145425333Y-100100000D01*
X145392000Y-100066666D01*
X145325333Y-100033333D01*
X144758666Y-100033333D01*
X145458666Y-99333333D02*
X145458666Y-99733333D01*
X145458666Y-99533333D02*
X144758666Y-99533333D01*
X144858666Y-99600000D01*
X144925333Y-99666666D01*
X144958666Y-99733333D01*
X146982666Y-101083333D02*
X146982666Y-101416666D01*
X146282666Y-101416666D01*
X146982666Y-100850000D02*
X146282666Y-100850000D01*
X146782666Y-100616666D01*
X146282666Y-100383333D01*
X146982666Y-100383333D01*
X146282666Y-100116666D02*
X146282666Y-99683333D01*
X146549333Y-99916666D01*
X146549333Y-99816666D01*
X146582666Y-99750000D01*
X146616000Y-99716666D01*
X146682666Y-99683333D01*
X146849333Y-99683333D01*
X146916000Y-99716666D01*
X146949333Y-99750000D01*
X146982666Y-99816666D01*
X146982666Y-100016666D01*
X146949333Y-100083333D01*
X146916000Y-100116666D01*
X146282666Y-99050000D02*
X146282666Y-99383333D01*
X146616000Y-99416666D01*
X146582666Y-99383333D01*
X146549333Y-99316666D01*
X146549333Y-99150000D01*
X146582666Y-99083333D01*
X146616000Y-99050000D01*
X146682666Y-99016666D01*
X146849333Y-99016666D01*
X146916000Y-99050000D01*
X146949333Y-99083333D01*
X146982666Y-99150000D01*
X146982666Y-99316666D01*
X146949333Y-99383333D01*
X146916000Y-99416666D01*
X146582666Y-98616666D02*
X146549333Y-98683333D01*
X146516000Y-98716666D01*
X146449333Y-98750000D01*
X146416000Y-98750000D01*
X146349333Y-98716666D01*
X146316000Y-98683333D01*
X146282666Y-98616666D01*
X146282666Y-98483333D01*
X146316000Y-98416666D01*
X146349333Y-98383333D01*
X146416000Y-98350000D01*
X146449333Y-98350000D01*
X146516000Y-98383333D01*
X146549333Y-98416666D01*
X146582666Y-98483333D01*
X146582666Y-98616666D01*
X146616000Y-98683333D01*
X146649333Y-98716666D01*
X146716000Y-98750000D01*
X146849333Y-98750000D01*
X146916000Y-98716666D01*
X146949333Y-98683333D01*
X146982666Y-98616666D01*
X146982666Y-98483333D01*
X146949333Y-98416666D01*
X146916000Y-98383333D01*
X146849333Y-98350000D01*
X146716000Y-98350000D01*
X146649333Y-98383333D01*
X146616000Y-98416666D01*
X146582666Y-98483333D01*
D10*
X124642666Y-59402380D02*
X124642666Y-60116666D01*
X124595047Y-60259523D01*
X124499809Y-60354761D01*
X124356952Y-60402380D01*
X124261714Y-60402380D01*
X125642666Y-60402380D02*
X125071238Y-60402380D01*
X125356952Y-60402380D02*
X125356952Y-59402380D01*
X125261714Y-59545238D01*
X125166476Y-59640476D01*
X125071238Y-59688095D01*
D15*
X123551714Y-67436190D02*
X123646952Y-67436190D01*
X123694571Y-67412380D01*
X123718380Y-67388571D01*
X123766000Y-67317142D01*
X123789809Y-67221904D01*
X123789809Y-67031428D01*
X123766000Y-66983809D01*
X123742190Y-66960000D01*
X123694571Y-66936190D01*
X123599333Y-66936190D01*
X123551714Y-66960000D01*
X123527904Y-66983809D01*
X123504095Y-67031428D01*
X123504095Y-67150476D01*
X123527904Y-67198095D01*
X123551714Y-67221904D01*
X123599333Y-67245714D01*
X123694571Y-67245714D01*
X123742190Y-67221904D01*
X123766000Y-67198095D01*
X123789809Y-67150476D01*
X123956476Y-67102857D02*
X124075523Y-67436190D01*
X124194571Y-67102857D01*
X124266000Y-67483809D02*
X124646952Y-67483809D01*
X124932666Y-67174285D02*
X125004095Y-67198095D01*
X125027904Y-67221904D01*
X125051714Y-67269523D01*
X125051714Y-67340952D01*
X125027904Y-67388571D01*
X125004095Y-67412380D01*
X124956476Y-67436190D01*
X124766000Y-67436190D01*
X124766000Y-66936190D01*
X124932666Y-66936190D01*
X124980285Y-66960000D01*
X125004095Y-66983809D01*
X125027904Y-67031428D01*
X125027904Y-67079047D01*
X125004095Y-67126666D01*
X124980285Y-67150476D01*
X124932666Y-67174285D01*
X124766000Y-67174285D01*
X125480285Y-67436190D02*
X125480285Y-67174285D01*
X125456476Y-67126666D01*
X125408857Y-67102857D01*
X125313619Y-67102857D01*
X125266000Y-67126666D01*
X125480285Y-67412380D02*
X125432666Y-67436190D01*
X125313619Y-67436190D01*
X125266000Y-67412380D01*
X125242190Y-67364761D01*
X125242190Y-67317142D01*
X125266000Y-67269523D01*
X125313619Y-67245714D01*
X125432666Y-67245714D01*
X125480285Y-67221904D01*
X125646952Y-67102857D02*
X125837428Y-67102857D01*
X125718380Y-66936190D02*
X125718380Y-67364761D01*
X125742190Y-67412380D01*
X125789809Y-67436190D01*
X125837428Y-67436190D01*
X125932666Y-67102857D02*
X126123142Y-67102857D01*
X126004095Y-66936190D02*
X126004095Y-67364761D01*
X126027904Y-67412380D01*
X126075523Y-67436190D01*
X126123142Y-67436190D01*
X126480285Y-67412380D02*
X126432666Y-67436190D01*
X126337428Y-67436190D01*
X126289809Y-67412380D01*
X126266000Y-67364761D01*
X126266000Y-67174285D01*
X126289809Y-67126666D01*
X126337428Y-67102857D01*
X126432666Y-67102857D01*
X126480285Y-67126666D01*
X126504095Y-67174285D01*
X126504095Y-67221904D01*
X126266000Y-67269523D01*
X126718380Y-67436190D02*
X126718380Y-67102857D01*
X126718380Y-67198095D02*
X126742190Y-67150476D01*
X126766000Y-67126666D01*
X126813619Y-67102857D01*
X126861238Y-67102857D01*
X126980285Y-67102857D02*
X127099333Y-67436190D01*
X127218380Y-67102857D02*
X127099333Y-67436190D01*
X127051714Y-67555238D01*
X127027904Y-67579047D01*
X126980285Y-67602857D01*
X127289809Y-67483809D02*
X127670761Y-67483809D01*
X128075523Y-67388571D02*
X128051714Y-67412380D01*
X127980285Y-67436190D01*
X127932666Y-67436190D01*
X127861238Y-67412380D01*
X127813619Y-67364761D01*
X127789809Y-67317142D01*
X127766000Y-67221904D01*
X127766000Y-67150476D01*
X127789809Y-67055238D01*
X127813619Y-67007619D01*
X127861238Y-66960000D01*
X127932666Y-66936190D01*
X127980285Y-66936190D01*
X128051714Y-66960000D01*
X128075523Y-66983809D01*
X128361238Y-67436190D02*
X128313619Y-67412380D01*
X128289809Y-67364761D01*
X128289809Y-66936190D01*
X128551714Y-67436190D02*
X128551714Y-67102857D01*
X128551714Y-66936190D02*
X128527904Y-66960000D01*
X128551714Y-66983809D01*
X128575523Y-66960000D01*
X128551714Y-66936190D01*
X128551714Y-66983809D01*
X128789809Y-67102857D02*
X128789809Y-67602857D01*
X128789809Y-67126666D02*
X128837428Y-67102857D01*
X128932666Y-67102857D01*
X128980285Y-67126666D01*
X129004095Y-67150476D01*
X129027904Y-67198095D01*
X129027904Y-67340952D01*
X129004095Y-67388571D01*
X128980285Y-67412380D01*
X128932666Y-67436190D01*
X128837428Y-67436190D01*
X128789809Y-67412380D01*
X128797809Y-64881142D02*
X128797809Y-65166857D01*
X128297809Y-65024000D02*
X128797809Y-65024000D01*
X128321619Y-62341142D02*
X128297809Y-62412571D01*
X128297809Y-62531619D01*
X128321619Y-62579238D01*
X128345428Y-62603047D01*
X128393047Y-62626857D01*
X128440666Y-62626857D01*
X128488285Y-62603047D01*
X128512095Y-62579238D01*
X128535904Y-62531619D01*
X128559714Y-62436380D01*
X128583523Y-62388761D01*
X128607333Y-62364952D01*
X128654952Y-62341142D01*
X128702571Y-62341142D01*
X128750190Y-62364952D01*
X128774000Y-62388761D01*
X128797809Y-62436380D01*
X128797809Y-62555428D01*
X128774000Y-62626857D01*
D17*
X125882809Y-63164714D02*
X125870904Y-63200428D01*
X125870904Y-63259952D01*
X125882809Y-63283761D01*
X125894714Y-63295666D01*
X125918523Y-63307571D01*
X125942333Y-63307571D01*
X125966142Y-63295666D01*
X125978047Y-63283761D01*
X125989952Y-63259952D01*
X126001857Y-63212333D01*
X126013761Y-63188523D01*
X126025666Y-63176619D01*
X126049476Y-63164714D01*
X126073285Y-63164714D01*
X126097095Y-63176619D01*
X126109000Y-63188523D01*
X126120904Y-63212333D01*
X126120904Y-63271857D01*
X126109000Y-63307571D01*
X126120904Y-63379000D02*
X126120904Y-63521857D01*
X125870904Y-63450428D02*
X126120904Y-63450428D01*
X125870904Y-63748047D02*
X125989952Y-63664714D01*
X125870904Y-63605190D02*
X126120904Y-63605190D01*
X126120904Y-63700428D01*
X126109000Y-63724238D01*
X126097095Y-63736142D01*
X126073285Y-63748047D01*
X126037571Y-63748047D01*
X126013761Y-63736142D01*
X126001857Y-63724238D01*
X125989952Y-63700428D01*
X125989952Y-63605190D01*
X125942333Y-63843285D02*
X125942333Y-63962333D01*
X125870904Y-63819476D02*
X126120904Y-63902809D01*
X125870904Y-63986142D01*
X125870904Y-64069476D02*
X126120904Y-64069476D01*
X125870904Y-64188523D02*
X126120904Y-64188523D01*
X125870904Y-64331380D01*
X126120904Y-64331380D01*
D16*
X167470666Y-141048619D02*
X167470666Y-140032619D01*
X167857714Y-140032619D01*
X167954476Y-140081000D01*
X168002857Y-140129380D01*
X168051238Y-140226142D01*
X168051238Y-140371285D01*
X168002857Y-140468047D01*
X167954476Y-140516428D01*
X167857714Y-140564809D01*
X167470666Y-140564809D01*
X168922095Y-141048619D02*
X168922095Y-140516428D01*
X168873714Y-140419666D01*
X168776952Y-140371285D01*
X168583428Y-140371285D01*
X168486666Y-140419666D01*
X168922095Y-141000238D02*
X168825333Y-141048619D01*
X168583428Y-141048619D01*
X168486666Y-141000238D01*
X168438285Y-140903476D01*
X168438285Y-140806714D01*
X168486666Y-140709952D01*
X168583428Y-140661571D01*
X168825333Y-140661571D01*
X168922095Y-140613190D01*
X169260761Y-140371285D02*
X169647809Y-140371285D01*
X169405904Y-140032619D02*
X169405904Y-140903476D01*
X169454285Y-141000238D01*
X169551047Y-141048619D01*
X169647809Y-141048619D01*
X169986476Y-141048619D02*
X169986476Y-140032619D01*
X170421904Y-141048619D02*
X170421904Y-140516428D01*
X170373523Y-140419666D01*
X170276761Y-140371285D01*
X170131619Y-140371285D01*
X170034857Y-140419666D01*
X169986476Y-140468047D01*
X170760571Y-140032619D02*
X171341142Y-140032619D01*
X171050857Y-141048619D02*
X171050857Y-140032619D01*
X171824952Y-141048619D02*
X171728190Y-141000238D01*
X171679809Y-140951857D01*
X171631428Y-140855095D01*
X171631428Y-140564809D01*
X171679809Y-140468047D01*
X171728190Y-140419666D01*
X171824952Y-140371285D01*
X171970095Y-140371285D01*
X172066857Y-140419666D01*
X172115238Y-140468047D01*
X172163619Y-140564809D01*
X172163619Y-140855095D01*
X172115238Y-140951857D01*
X172066857Y-141000238D01*
X171970095Y-141048619D01*
X171824952Y-141048619D01*
X172550666Y-141000238D02*
X172695809Y-141048619D01*
X172937714Y-141048619D01*
X173034476Y-141000238D01*
X173082857Y-140951857D01*
X173131238Y-140855095D01*
X173131238Y-140758333D01*
X173082857Y-140661571D01*
X173034476Y-140613190D01*
X172937714Y-140564809D01*
X172744190Y-140516428D01*
X172647428Y-140468047D01*
X172599047Y-140419666D01*
X172550666Y-140322904D01*
X172550666Y-140226142D01*
X172599047Y-140129380D01*
X172647428Y-140081000D01*
X172744190Y-140032619D01*
X172986095Y-140032619D01*
X173131238Y-140081000D01*
X173469904Y-140371285D02*
X173663428Y-141048619D01*
X173856952Y-140564809D01*
X174050476Y-141048619D01*
X174244000Y-140371285D01*
X174631047Y-141048619D02*
X174631047Y-140371285D01*
X174631047Y-140032619D02*
X174582666Y-140081000D01*
X174631047Y-140129380D01*
X174679428Y-140081000D01*
X174631047Y-140032619D01*
X174631047Y-140129380D01*
X174969714Y-140371285D02*
X175356761Y-140371285D01*
X175114857Y-140032619D02*
X175114857Y-140903476D01*
X175163238Y-141000238D01*
X175260000Y-141048619D01*
X175356761Y-141048619D01*
X176130857Y-141000238D02*
X176034095Y-141048619D01*
X175840571Y-141048619D01*
X175743809Y-141000238D01*
X175695428Y-140951857D01*
X175647047Y-140855095D01*
X175647047Y-140564809D01*
X175695428Y-140468047D01*
X175743809Y-140419666D01*
X175840571Y-140371285D01*
X176034095Y-140371285D01*
X176130857Y-140419666D01*
X176566285Y-141048619D02*
X176566285Y-140032619D01*
X177001714Y-141048619D02*
X177001714Y-140516428D01*
X176953333Y-140419666D01*
X176856571Y-140371285D01*
X176711428Y-140371285D01*
X176614666Y-140419666D01*
X176566285Y-140468047D01*
X178017714Y-141048619D02*
X177437142Y-141048619D01*
X177727428Y-141048619D02*
X177727428Y-140032619D01*
X177630666Y-140177761D01*
X177533904Y-140274523D01*
X177437142Y-140322904D01*
D10*
X162026428Y-141301476D02*
X162169285Y-141301476D01*
X162240714Y-141361000D01*
X162312142Y-141480047D01*
X162347857Y-141718142D01*
X162347857Y-142134809D01*
X162312142Y-142372904D01*
X162240714Y-142491952D01*
X162169285Y-142551476D01*
X162026428Y-142551476D01*
X161955000Y-142491952D01*
X161883571Y-142372904D01*
X161847857Y-142134809D01*
X161847857Y-141718142D01*
X161883571Y-141480047D01*
X161955000Y-141361000D01*
X162026428Y-141301476D01*
X162669285Y-141301476D02*
X162669285Y-142313380D01*
X162705000Y-142432428D01*
X162740714Y-142491952D01*
X162812142Y-142551476D01*
X162955000Y-142551476D01*
X163026428Y-142491952D01*
X163062142Y-142432428D01*
X163097857Y-142313380D01*
X163097857Y-141301476D01*
X163347857Y-141301476D02*
X163776428Y-141301476D01*
X163562142Y-142551476D02*
X163562142Y-141301476D01*
X164026428Y-142551476D02*
X164026428Y-141301476D01*
X164312142Y-141301476D01*
X164383571Y-141361000D01*
X164419285Y-141420523D01*
X164455000Y-141539571D01*
X164455000Y-141718142D01*
X164419285Y-141837190D01*
X164383571Y-141896714D01*
X164312142Y-141956238D01*
X164026428Y-141956238D01*
X164776428Y-141301476D02*
X164776428Y-142313380D01*
X164812142Y-142432428D01*
X164847857Y-142491952D01*
X164919285Y-142551476D01*
X165062142Y-142551476D01*
X165133571Y-142491952D01*
X165169285Y-142432428D01*
X165205000Y-142313380D01*
X165205000Y-141301476D01*
X165455000Y-141301476D02*
X165883571Y-141301476D01*
X165669285Y-142551476D02*
X165669285Y-141301476D01*
X167195547Y-145232428D02*
X167957452Y-145232428D01*
X167576500Y-145613380D02*
X167576500Y-144851476D01*
X167259047Y-142057428D02*
X168020952Y-142057428D01*
X167640000Y-142438380D02*
X167640000Y-141676476D01*
X167259047Y-138882428D02*
X168020952Y-138882428D01*
X167640000Y-139263380D02*
X167640000Y-138501476D01*
X167259047Y-135707428D02*
X168020952Y-135707428D01*
X167640000Y-136088380D02*
X167640000Y-135326476D01*
X163349857Y-139523476D02*
X163778428Y-139523476D01*
X163564142Y-140773476D02*
X163564142Y-139523476D01*
X164171285Y-139523476D02*
X164314142Y-139523476D01*
X164385571Y-139583000D01*
X164457000Y-139702047D01*
X164492714Y-139940142D01*
X164492714Y-140356809D01*
X164457000Y-140594904D01*
X164385571Y-140713952D01*
X164314142Y-140773476D01*
X164171285Y-140773476D01*
X164099857Y-140713952D01*
X164028428Y-140594904D01*
X163992714Y-140356809D01*
X163992714Y-139940142D01*
X164028428Y-139702047D01*
X164099857Y-139583000D01*
X164171285Y-139523476D01*
X123517904Y-118812380D02*
X123708380Y-118812380D01*
X123803619Y-118860000D01*
X123898857Y-118955238D01*
X123946476Y-119145714D01*
X123946476Y-119479047D01*
X123898857Y-119669523D01*
X123803619Y-119764761D01*
X123708380Y-119812380D01*
X123517904Y-119812380D01*
X123422666Y-119764761D01*
X123327428Y-119669523D01*
X123279809Y-119479047D01*
X123279809Y-119145714D01*
X123327428Y-118955238D01*
X123422666Y-118860000D01*
X123517904Y-118812380D01*
X124375047Y-119812380D02*
X124375047Y-118812380D01*
X124946476Y-119812380D01*
X124946476Y-118812380D01*
X126136952Y-118764761D02*
X125279809Y-120050476D01*
X126660761Y-118812380D02*
X126851238Y-118812380D01*
X126946476Y-118860000D01*
X127041714Y-118955238D01*
X127089333Y-119145714D01*
X127089333Y-119479047D01*
X127041714Y-119669523D01*
X126946476Y-119764761D01*
X126851238Y-119812380D01*
X126660761Y-119812380D01*
X126565523Y-119764761D01*
X126470285Y-119669523D01*
X126422666Y-119479047D01*
X126422666Y-119145714D01*
X126470285Y-118955238D01*
X126565523Y-118860000D01*
X126660761Y-118812380D01*
X127851238Y-119288571D02*
X127517904Y-119288571D01*
X127517904Y-119812380D02*
X127517904Y-118812380D01*
X127994095Y-118812380D01*
X128708380Y-119288571D02*
X128375047Y-119288571D01*
X128375047Y-119812380D02*
X128375047Y-118812380D01*
X128851238Y-118812380D01*
X128994095Y-119907619D02*
X129756000Y-119907619D01*
X130470285Y-119812380D02*
X129994095Y-119812380D01*
X129994095Y-118812380D01*
X130803619Y-119288571D02*
X131136952Y-119288571D01*
X131279809Y-119812380D02*
X130803619Y-119812380D01*
X130803619Y-118812380D01*
X131279809Y-118812380D01*
X131708380Y-119812380D02*
X131708380Y-118812380D01*
X131946476Y-118812380D01*
X132089333Y-118860000D01*
X132184571Y-118955238D01*
X132232190Y-119050476D01*
X132279809Y-119240952D01*
X132279809Y-119383809D01*
X132232190Y-119574285D01*
X132184571Y-119669523D01*
X132089333Y-119764761D01*
X131946476Y-119812380D01*
X131708380Y-119812380D01*
X133232190Y-119812380D02*
X132660761Y-119812380D01*
X132946476Y-119812380D02*
X132946476Y-118812380D01*
X132851238Y-118955238D01*
X132756000Y-119050476D01*
X132660761Y-119098095D01*
X163808380Y-126610000D02*
X163808380Y-126038571D01*
X164808380Y-126324285D02*
X163808380Y-126324285D01*
X164808380Y-125705238D02*
X164141714Y-125705238D01*
X164332190Y-125705238D02*
X164236952Y-125657619D01*
X164189333Y-125610000D01*
X164141714Y-125514761D01*
X164141714Y-125419523D01*
X164808380Y-125086190D02*
X164141714Y-125086190D01*
X163808380Y-125086190D02*
X163856000Y-125133809D01*
X163903619Y-125086190D01*
X163856000Y-125038571D01*
X163808380Y-125086190D01*
X163903619Y-125086190D01*
X164141714Y-124181428D02*
X164951238Y-124181428D01*
X165046476Y-124229047D01*
X165094095Y-124276666D01*
X165141714Y-124371904D01*
X165141714Y-124514761D01*
X165094095Y-124610000D01*
X164760761Y-124181428D02*
X164808380Y-124276666D01*
X164808380Y-124467142D01*
X164760761Y-124562380D01*
X164713142Y-124610000D01*
X164617904Y-124657619D01*
X164332190Y-124657619D01*
X164236952Y-124610000D01*
X164189333Y-124562380D01*
X164141714Y-124467142D01*
X164141714Y-124276666D01*
X164189333Y-124181428D01*
X164903619Y-123943333D02*
X164903619Y-123181428D01*
X164808380Y-122467142D02*
X164808380Y-122943333D01*
X163808380Y-122943333D01*
X164284571Y-122133809D02*
X164284571Y-121800476D01*
X164808380Y-121657619D02*
X164808380Y-122133809D01*
X163808380Y-122133809D01*
X163808380Y-121657619D01*
X164808380Y-121229047D02*
X163808380Y-121229047D01*
X163808380Y-120990952D01*
X163856000Y-120848095D01*
X163951238Y-120752857D01*
X164046476Y-120705238D01*
X164236952Y-120657619D01*
X164379809Y-120657619D01*
X164570285Y-120705238D01*
X164665523Y-120752857D01*
X164760761Y-120848095D01*
X164808380Y-120990952D01*
X164808380Y-121229047D01*
X164808380Y-119705238D02*
X164808380Y-120276666D01*
X164808380Y-119990952D02*
X163808380Y-119990952D01*
X163951238Y-120086190D01*
X164046476Y-120181428D01*
X164094095Y-120276666D01*
D18*
X157617333Y-43176000D02*
X157584000Y-43209333D01*
X157484000Y-43242666D01*
X157417333Y-43242666D01*
X157317333Y-43209333D01*
X157250666Y-43142666D01*
X157217333Y-43076000D01*
X157184000Y-42942666D01*
X157184000Y-42842666D01*
X157217333Y-42709333D01*
X157250666Y-42642666D01*
X157317333Y-42576000D01*
X157417333Y-42542666D01*
X157484000Y-42542666D01*
X157584000Y-42576000D01*
X157617333Y-42609333D01*
X158250666Y-42542666D02*
X157917333Y-42542666D01*
X157884000Y-42876000D01*
X157917333Y-42842666D01*
X157984000Y-42809333D01*
X158150666Y-42809333D01*
X158217333Y-42842666D01*
X158250666Y-42876000D01*
X158284000Y-42942666D01*
X158284000Y-43109333D01*
X158250666Y-43176000D01*
X158217333Y-43209333D01*
X158150666Y-43242666D01*
X157984000Y-43242666D01*
X157917333Y-43209333D01*
X157884000Y-43176000D01*
X151700666Y-42226666D02*
X151300666Y-42226666D01*
X151500666Y-42226666D02*
X151500666Y-41526666D01*
X151434000Y-41626666D01*
X151367333Y-41693333D01*
X151300666Y-41726666D01*
X152134000Y-41526666D02*
X152200666Y-41526666D01*
X152267333Y-41560000D01*
X152300666Y-41593333D01*
X152334000Y-41660000D01*
X152367333Y-41793333D01*
X152367333Y-41960000D01*
X152334000Y-42093333D01*
X152300666Y-42160000D01*
X152267333Y-42193333D01*
X152200666Y-42226666D01*
X152134000Y-42226666D01*
X152067333Y-42193333D01*
X152034000Y-42160000D01*
X152000666Y-42093333D01*
X151967333Y-41960000D01*
X151967333Y-41793333D01*
X152000666Y-41660000D01*
X152034000Y-41593333D01*
X152067333Y-41560000D01*
X152134000Y-41526666D01*
X152800666Y-41526666D02*
X152867333Y-41526666D01*
X152934000Y-41560000D01*
X152967333Y-41593333D01*
X153000666Y-41660000D01*
X153034000Y-41793333D01*
X153034000Y-41960000D01*
X153000666Y-42093333D01*
X152967333Y-42160000D01*
X152934000Y-42193333D01*
X152867333Y-42226666D01*
X152800666Y-42226666D01*
X152734000Y-42193333D01*
X152700666Y-42160000D01*
X152667333Y-42093333D01*
X152634000Y-41960000D01*
X152634000Y-41793333D01*
X152667333Y-41660000D01*
X152700666Y-41593333D01*
X152734000Y-41560000D01*
X152800666Y-41526666D01*
X153334000Y-41760000D02*
X153334000Y-42226666D01*
X153334000Y-41826666D02*
X153367333Y-41793333D01*
X153434000Y-41760000D01*
X153534000Y-41760000D01*
X153600666Y-41793333D01*
X153634000Y-41860000D01*
X153634000Y-42226666D01*
X153867333Y-41760000D02*
X154134000Y-41760000D01*
X153967333Y-42226666D02*
X153967333Y-41626666D01*
X154000666Y-41560000D01*
X154067333Y-41526666D01*
X154134000Y-41526666D01*
X154367333Y-41960000D02*
X154900666Y-41960000D01*
X155200666Y-41593333D02*
X155234000Y-41560000D01*
X155300666Y-41526666D01*
X155467333Y-41526666D01*
X155534000Y-41560000D01*
X155567333Y-41593333D01*
X155600666Y-41660000D01*
X155600666Y-41726666D01*
X155567333Y-41826666D01*
X155167333Y-42226666D01*
X155600666Y-42226666D01*
X155867333Y-41593333D02*
X155900666Y-41560000D01*
X155967333Y-41526666D01*
X156134000Y-41526666D01*
X156200666Y-41560000D01*
X156234000Y-41593333D01*
X156267333Y-41660000D01*
X156267333Y-41726666D01*
X156234000Y-41826666D01*
X155834000Y-42226666D01*
X156267333Y-42226666D01*
X156700666Y-41526666D02*
X156767333Y-41526666D01*
X156834000Y-41560000D01*
X156867333Y-41593333D01*
X156900666Y-41660000D01*
X156934000Y-41793333D01*
X156934000Y-41960000D01*
X156900666Y-42093333D01*
X156867333Y-42160000D01*
X156834000Y-42193333D01*
X156767333Y-42226666D01*
X156700666Y-42226666D01*
X156634000Y-42193333D01*
X156600666Y-42160000D01*
X156567333Y-42093333D01*
X156534000Y-41960000D01*
X156534000Y-41793333D01*
X156567333Y-41660000D01*
X156600666Y-41593333D01*
X156634000Y-41560000D01*
X156700666Y-41526666D01*
X157234000Y-41760000D02*
X157234000Y-42226666D01*
X157234000Y-41826666D02*
X157267333Y-41793333D01*
X157334000Y-41760000D01*
X157434000Y-41760000D01*
X157500666Y-41793333D01*
X157534000Y-41860000D01*
X157534000Y-42226666D01*
X158100666Y-41860000D02*
X157867333Y-41860000D01*
X157867333Y-42226666D02*
X157867333Y-41526666D01*
X158200666Y-41526666D01*
X159100666Y-42226666D02*
X159034000Y-42193333D01*
X159000666Y-42160000D01*
X158967333Y-42093333D01*
X158967333Y-41893333D01*
X159000666Y-41826666D01*
X159034000Y-41793333D01*
X159100666Y-41760000D01*
X159200666Y-41760000D01*
X159267333Y-41793333D01*
X159300666Y-41826666D01*
X159334000Y-41893333D01*
X159334000Y-42093333D01*
X159300666Y-42160000D01*
X159267333Y-42193333D01*
X159200666Y-42226666D01*
X159100666Y-42226666D01*
X159634000Y-42226666D02*
X159634000Y-41760000D01*
X159634000Y-41893333D02*
X159667333Y-41826666D01*
X159700666Y-41793333D01*
X159767333Y-41760000D01*
X159834000Y-41760000D01*
X160600666Y-42226666D02*
X160600666Y-41526666D01*
X160600666Y-41793333D02*
X160667333Y-41760000D01*
X160800666Y-41760000D01*
X160867333Y-41793333D01*
X160900666Y-41826666D01*
X160934000Y-41893333D01*
X160934000Y-42093333D01*
X160900666Y-42160000D01*
X160867333Y-42193333D01*
X160800666Y-42226666D01*
X160667333Y-42226666D01*
X160600666Y-42193333D01*
X161234000Y-42226666D02*
X161234000Y-41760000D01*
X161234000Y-41526666D02*
X161200666Y-41560000D01*
X161234000Y-41593333D01*
X161267333Y-41560000D01*
X161234000Y-41526666D01*
X161234000Y-41593333D01*
X161867333Y-41760000D02*
X161867333Y-42326666D01*
X161834000Y-42393333D01*
X161800666Y-42426666D01*
X161734000Y-42460000D01*
X161634000Y-42460000D01*
X161567333Y-42426666D01*
X161867333Y-42193333D02*
X161800666Y-42226666D01*
X161667333Y-42226666D01*
X161600666Y-42193333D01*
X161567333Y-42160000D01*
X161534000Y-42093333D01*
X161534000Y-41893333D01*
X161567333Y-41826666D01*
X161600666Y-41793333D01*
X161667333Y-41760000D01*
X161800666Y-41760000D01*
X161867333Y-41793333D01*
X162500666Y-41760000D02*
X162500666Y-42326666D01*
X162467333Y-42393333D01*
X162434000Y-42426666D01*
X162367333Y-42460000D01*
X162267333Y-42460000D01*
X162200666Y-42426666D01*
X162500666Y-42193333D02*
X162434000Y-42226666D01*
X162300666Y-42226666D01*
X162234000Y-42193333D01*
X162200666Y-42160000D01*
X162167333Y-42093333D01*
X162167333Y-41893333D01*
X162200666Y-41826666D01*
X162234000Y-41793333D01*
X162300666Y-41760000D01*
X162434000Y-41760000D01*
X162500666Y-41793333D01*
X163100666Y-42193333D02*
X163034000Y-42226666D01*
X162900666Y-42226666D01*
X162834000Y-42193333D01*
X162800666Y-42126666D01*
X162800666Y-41860000D01*
X162834000Y-41793333D01*
X162900666Y-41760000D01*
X163034000Y-41760000D01*
X163100666Y-41793333D01*
X163134000Y-41860000D01*
X163134000Y-41926666D01*
X162800666Y-41993333D01*
X163434000Y-42226666D02*
X163434000Y-41760000D01*
X163434000Y-41893333D02*
X163467333Y-41826666D01*
X163500666Y-41793333D01*
X163567333Y-41760000D01*
X163634000Y-41760000D01*
X163967333Y-42160000D02*
X164000666Y-42193333D01*
X163967333Y-42226666D01*
X163934000Y-42193333D01*
X163967333Y-42160000D01*
X163967333Y-42226666D01*
X163834000Y-41560000D02*
X163900666Y-41526666D01*
X164067333Y-41526666D01*
X164134000Y-41560000D01*
X164167333Y-41626666D01*
X164167333Y-41693333D01*
X164134000Y-41760000D01*
X164100666Y-41793333D01*
X164034000Y-41826666D01*
X164000666Y-41860000D01*
X163967333Y-41926666D01*
X163967333Y-41960000D01*
X133299333Y-54930000D02*
X133266000Y-54963333D01*
X133166000Y-54996666D01*
X133099333Y-54996666D01*
X132999333Y-54963333D01*
X132932666Y-54896666D01*
X132899333Y-54830000D01*
X132866000Y-54696666D01*
X132866000Y-54596666D01*
X132899333Y-54463333D01*
X132932666Y-54396666D01*
X132999333Y-54330000D01*
X133099333Y-54296666D01*
X133166000Y-54296666D01*
X133266000Y-54330000D01*
X133299333Y-54363333D01*
X133966000Y-54996666D02*
X133566000Y-54996666D01*
X133766000Y-54996666D02*
X133766000Y-54296666D01*
X133699333Y-54396666D01*
X133632666Y-54463333D01*
X133566000Y-54496666D01*
X135846000Y-62196666D02*
X135446000Y-62196666D01*
X135646000Y-62196666D02*
X135646000Y-61496666D01*
X135579333Y-61596666D01*
X135512666Y-61663333D01*
X135446000Y-61696666D01*
X136279333Y-61496666D02*
X136346000Y-61496666D01*
X136412666Y-61530000D01*
X136446000Y-61563333D01*
X136479333Y-61630000D01*
X136512666Y-61763333D01*
X136512666Y-61930000D01*
X136479333Y-62063333D01*
X136446000Y-62130000D01*
X136412666Y-62163333D01*
X136346000Y-62196666D01*
X136279333Y-62196666D01*
X136212666Y-62163333D01*
X136179333Y-62130000D01*
X136146000Y-62063333D01*
X136112666Y-61930000D01*
X136112666Y-61763333D01*
X136146000Y-61630000D01*
X136179333Y-61563333D01*
X136212666Y-61530000D01*
X136279333Y-61496666D01*
X137112666Y-61730000D02*
X137112666Y-62196666D01*
X136812666Y-61730000D02*
X136812666Y-62096666D01*
X136846000Y-62163333D01*
X136912666Y-62196666D01*
X137012666Y-62196666D01*
X137079333Y-62163333D01*
X137112666Y-62130000D01*
X137679333Y-61830000D02*
X137446000Y-61830000D01*
X137446000Y-62196666D02*
X137446000Y-61496666D01*
X137779333Y-61496666D01*
X145589333Y-50780000D02*
X145556000Y-50813333D01*
X145456000Y-50846666D01*
X145389333Y-50846666D01*
X145289333Y-50813333D01*
X145222666Y-50746666D01*
X145189333Y-50680000D01*
X145156000Y-50546666D01*
X145156000Y-50446666D01*
X145189333Y-50313333D01*
X145222666Y-50246666D01*
X145289333Y-50180000D01*
X145389333Y-50146666D01*
X145456000Y-50146666D01*
X145556000Y-50180000D01*
X145589333Y-50213333D01*
X145856000Y-50213333D02*
X145889333Y-50180000D01*
X145956000Y-50146666D01*
X146122666Y-50146666D01*
X146189333Y-50180000D01*
X146222666Y-50213333D01*
X146256000Y-50280000D01*
X146256000Y-50346666D01*
X146222666Y-50446666D01*
X145822666Y-50846666D01*
X146256000Y-50846666D01*
X145992666Y-57896666D02*
X145592666Y-57896666D01*
X145792666Y-57896666D02*
X145792666Y-57196666D01*
X145726000Y-57296666D01*
X145659333Y-57363333D01*
X145592666Y-57396666D01*
X146592666Y-57430000D02*
X146592666Y-57896666D01*
X146292666Y-57430000D02*
X146292666Y-57796666D01*
X146326000Y-57863333D01*
X146392666Y-57896666D01*
X146492666Y-57896666D01*
X146559333Y-57863333D01*
X146592666Y-57830000D01*
X147159333Y-57530000D02*
X146926000Y-57530000D01*
X146926000Y-57896666D02*
X146926000Y-57196666D01*
X147259333Y-57196666D01*
X148159333Y-57896666D02*
X148092666Y-57863333D01*
X148059333Y-57830000D01*
X148026000Y-57763333D01*
X148026000Y-57563333D01*
X148059333Y-57496666D01*
X148092666Y-57463333D01*
X148159333Y-57430000D01*
X148259333Y-57430000D01*
X148326000Y-57463333D01*
X148359333Y-57496666D01*
X148392666Y-57563333D01*
X148392666Y-57763333D01*
X148359333Y-57830000D01*
X148326000Y-57863333D01*
X148259333Y-57896666D01*
X148159333Y-57896666D01*
X148692666Y-57896666D02*
X148692666Y-57430000D01*
X148692666Y-57563333D02*
X148726000Y-57496666D01*
X148759333Y-57463333D01*
X148826000Y-57430000D01*
X148892666Y-57430000D01*
X149626000Y-57863333D02*
X149692666Y-57896666D01*
X149826000Y-57896666D01*
X149892666Y-57863333D01*
X149926000Y-57796666D01*
X149926000Y-57763333D01*
X149892666Y-57696666D01*
X149826000Y-57663333D01*
X149726000Y-57663333D01*
X149659333Y-57630000D01*
X149626000Y-57563333D01*
X149626000Y-57530000D01*
X149659333Y-57463333D01*
X149726000Y-57430000D01*
X149826000Y-57430000D01*
X149892666Y-57463333D01*
X150226000Y-57896666D02*
X150226000Y-57430000D01*
X150226000Y-57496666D02*
X150259333Y-57463333D01*
X150326000Y-57430000D01*
X150426000Y-57430000D01*
X150492666Y-57463333D01*
X150526000Y-57530000D01*
X150526000Y-57896666D01*
X150526000Y-57530000D02*
X150559333Y-57463333D01*
X150626000Y-57430000D01*
X150726000Y-57430000D01*
X150792666Y-57463333D01*
X150826000Y-57530000D01*
X150826000Y-57896666D01*
X151459333Y-57896666D02*
X151459333Y-57530000D01*
X151426000Y-57463333D01*
X151359333Y-57430000D01*
X151226000Y-57430000D01*
X151159333Y-57463333D01*
X151459333Y-57863333D02*
X151392666Y-57896666D01*
X151226000Y-57896666D01*
X151159333Y-57863333D01*
X151126000Y-57796666D01*
X151126000Y-57730000D01*
X151159333Y-57663333D01*
X151226000Y-57630000D01*
X151392666Y-57630000D01*
X151459333Y-57596666D01*
X151892666Y-57896666D02*
X151826000Y-57863333D01*
X151792666Y-57796666D01*
X151792666Y-57196666D01*
X152259333Y-57896666D02*
X152192666Y-57863333D01*
X152159333Y-57796666D01*
X152159333Y-57196666D01*
X152792666Y-57863333D02*
X152726000Y-57896666D01*
X152592666Y-57896666D01*
X152526000Y-57863333D01*
X152492666Y-57796666D01*
X152492666Y-57530000D01*
X152526000Y-57463333D01*
X152592666Y-57430000D01*
X152726000Y-57430000D01*
X152792666Y-57463333D01*
X152826000Y-57530000D01*
X152826000Y-57596666D01*
X152492666Y-57663333D01*
X153126000Y-57896666D02*
X153126000Y-57430000D01*
X153126000Y-57563333D02*
X153159333Y-57496666D01*
X153192666Y-57463333D01*
X153259333Y-57430000D01*
X153326000Y-57430000D01*
X153659333Y-57830000D02*
X153692666Y-57863333D01*
X153659333Y-57896666D01*
X153626000Y-57863333D01*
X153659333Y-57830000D01*
X153659333Y-57896666D01*
X153526000Y-57230000D02*
X153592666Y-57196666D01*
X153759333Y-57196666D01*
X153826000Y-57230000D01*
X153859333Y-57296666D01*
X153859333Y-57363333D01*
X153826000Y-57430000D01*
X153792666Y-57463333D01*
X153726000Y-57496666D01*
X153692666Y-57530000D01*
X153659333Y-57596666D01*
X153659333Y-57630000D01*
X133179333Y-46020000D02*
X133146000Y-46053333D01*
X133046000Y-46086666D01*
X132979333Y-46086666D01*
X132879333Y-46053333D01*
X132812666Y-45986666D01*
X132779333Y-45920000D01*
X132746000Y-45786666D01*
X132746000Y-45686666D01*
X132779333Y-45553333D01*
X132812666Y-45486666D01*
X132879333Y-45420000D01*
X132979333Y-45386666D01*
X133046000Y-45386666D01*
X133146000Y-45420000D01*
X133179333Y-45453333D01*
X133412666Y-45386666D02*
X133846000Y-45386666D01*
X133612666Y-45653333D01*
X133712666Y-45653333D01*
X133779333Y-45686666D01*
X133812666Y-45720000D01*
X133846000Y-45786666D01*
X133846000Y-45953333D01*
X133812666Y-46020000D01*
X133779333Y-46053333D01*
X133712666Y-46086666D01*
X133512666Y-46086666D01*
X133446000Y-46053333D01*
X133412666Y-46020000D01*
X134856000Y-53006666D02*
X134456000Y-53006666D01*
X134656000Y-53006666D02*
X134656000Y-52306666D01*
X134589333Y-52406666D01*
X134522666Y-52473333D01*
X134456000Y-52506666D01*
X135289333Y-52306666D02*
X135356000Y-52306666D01*
X135422666Y-52340000D01*
X135456000Y-52373333D01*
X135489333Y-52440000D01*
X135522666Y-52573333D01*
X135522666Y-52740000D01*
X135489333Y-52873333D01*
X135456000Y-52940000D01*
X135422666Y-52973333D01*
X135356000Y-53006666D01*
X135289333Y-53006666D01*
X135222666Y-52973333D01*
X135189333Y-52940000D01*
X135156000Y-52873333D01*
X135122666Y-52740000D01*
X135122666Y-52573333D01*
X135156000Y-52440000D01*
X135189333Y-52373333D01*
X135222666Y-52340000D01*
X135289333Y-52306666D01*
X136122666Y-52540000D02*
X136122666Y-53006666D01*
X135822666Y-52540000D02*
X135822666Y-52906666D01*
X135856000Y-52973333D01*
X135922666Y-53006666D01*
X136022666Y-53006666D01*
X136089333Y-52973333D01*
X136122666Y-52940000D01*
X136689333Y-52640000D02*
X136456000Y-52640000D01*
X136456000Y-53006666D02*
X136456000Y-52306666D01*
X136789333Y-52306666D01*
X146069333Y-63320000D02*
X146036000Y-63353333D01*
X145936000Y-63386666D01*
X145869333Y-63386666D01*
X145769333Y-63353333D01*
X145702666Y-63286666D01*
X145669333Y-63220000D01*
X145636000Y-63086666D01*
X145636000Y-62986666D01*
X145669333Y-62853333D01*
X145702666Y-62786666D01*
X145769333Y-62720000D01*
X145869333Y-62686666D01*
X145936000Y-62686666D01*
X146036000Y-62720000D01*
X146069333Y-62753333D01*
X146669333Y-62920000D02*
X146669333Y-63386666D01*
X146502666Y-62653333D02*
X146336000Y-63153333D01*
X146769333Y-63153333D01*
X148909333Y-70866666D02*
X148509333Y-70866666D01*
X148709333Y-70866666D02*
X148709333Y-70166666D01*
X148642666Y-70266666D01*
X148576000Y-70333333D01*
X148509333Y-70366666D01*
X149509333Y-70400000D02*
X149509333Y-70866666D01*
X149209333Y-70400000D02*
X149209333Y-70766666D01*
X149242666Y-70833333D01*
X149309333Y-70866666D01*
X149409333Y-70866666D01*
X149476000Y-70833333D01*
X149509333Y-70800000D01*
X150076000Y-70500000D02*
X149842666Y-70500000D01*
X149842666Y-70866666D02*
X149842666Y-70166666D01*
X150176000Y-70166666D01*
X128849333Y-89726666D02*
X128849333Y-89026666D01*
X129016000Y-89026666D01*
X129116000Y-89060000D01*
X129182666Y-89126666D01*
X129216000Y-89193333D01*
X129249333Y-89326666D01*
X129249333Y-89426666D01*
X129216000Y-89560000D01*
X129182666Y-89626666D01*
X129116000Y-89693333D01*
X129016000Y-89726666D01*
X128849333Y-89726666D01*
X129516000Y-89093333D02*
X129549333Y-89060000D01*
X129616000Y-89026666D01*
X129782666Y-89026666D01*
X129849333Y-89060000D01*
X129882666Y-89093333D01*
X129916000Y-89160000D01*
X129916000Y-89226666D01*
X129882666Y-89326666D01*
X129482666Y-89726666D01*
X129916000Y-89726666D01*
X133733142Y-89641428D02*
X133733142Y-90041428D01*
X133590285Y-89412857D02*
X133447428Y-89841428D01*
X133818857Y-89841428D01*
X134361714Y-90041428D02*
X134018857Y-90041428D01*
X134190285Y-90041428D02*
X134190285Y-89441428D01*
X134133142Y-89527142D01*
X134076000Y-89584285D01*
X134018857Y-89612857D01*
X134876000Y-89641428D02*
X134876000Y-90041428D01*
X134733142Y-89412857D02*
X134590285Y-89841428D01*
X134961714Y-89841428D01*
X135276000Y-89698571D02*
X135218857Y-89670000D01*
X135190285Y-89641428D01*
X135161714Y-89584285D01*
X135161714Y-89555714D01*
X135190285Y-89498571D01*
X135218857Y-89470000D01*
X135276000Y-89441428D01*
X135390285Y-89441428D01*
X135447428Y-89470000D01*
X135476000Y-89498571D01*
X135504571Y-89555714D01*
X135504571Y-89584285D01*
X135476000Y-89641428D01*
X135447428Y-89670000D01*
X135390285Y-89698571D01*
X135276000Y-89698571D01*
X135218857Y-89727142D01*
X135190285Y-89755714D01*
X135161714Y-89812857D01*
X135161714Y-89927142D01*
X135190285Y-89984285D01*
X135218857Y-90012857D01*
X135276000Y-90041428D01*
X135390285Y-90041428D01*
X135447428Y-90012857D01*
X135476000Y-89984285D01*
X135504571Y-89927142D01*
X135504571Y-89812857D01*
X135476000Y-89755714D01*
X135447428Y-89727142D01*
X135390285Y-89698571D01*
X130499333Y-80366666D02*
X130499333Y-79666666D01*
X130666000Y-79666666D01*
X130766000Y-79700000D01*
X130832666Y-79766666D01*
X130866000Y-79833333D01*
X130899333Y-79966666D01*
X130899333Y-80066666D01*
X130866000Y-80200000D01*
X130832666Y-80266666D01*
X130766000Y-80333333D01*
X130666000Y-80366666D01*
X130499333Y-80366666D01*
X131566000Y-80366666D02*
X131166000Y-80366666D01*
X131366000Y-80366666D02*
X131366000Y-79666666D01*
X131299333Y-79766666D01*
X131232666Y-79833333D01*
X131166000Y-79866666D01*
X133233142Y-79561428D02*
X133233142Y-79961428D01*
X133090285Y-79332857D02*
X132947428Y-79761428D01*
X133318857Y-79761428D01*
X133661714Y-79361428D02*
X133718857Y-79361428D01*
X133776000Y-79390000D01*
X133804571Y-79418571D01*
X133833142Y-79475714D01*
X133861714Y-79590000D01*
X133861714Y-79732857D01*
X133833142Y-79847142D01*
X133804571Y-79904285D01*
X133776000Y-79932857D01*
X133718857Y-79961428D01*
X133661714Y-79961428D01*
X133604571Y-79932857D01*
X133576000Y-79904285D01*
X133547428Y-79847142D01*
X133518857Y-79732857D01*
X133518857Y-79590000D01*
X133547428Y-79475714D01*
X133576000Y-79418571D01*
X133604571Y-79390000D01*
X133661714Y-79361428D01*
X134233142Y-79361428D02*
X134290285Y-79361428D01*
X134347428Y-79390000D01*
X134376000Y-79418571D01*
X134404571Y-79475714D01*
X134433142Y-79590000D01*
X134433142Y-79732857D01*
X134404571Y-79847142D01*
X134376000Y-79904285D01*
X134347428Y-79932857D01*
X134290285Y-79961428D01*
X134233142Y-79961428D01*
X134176000Y-79932857D01*
X134147428Y-79904285D01*
X134118857Y-79847142D01*
X134090285Y-79732857D01*
X134090285Y-79590000D01*
X134118857Y-79475714D01*
X134147428Y-79418571D01*
X134176000Y-79390000D01*
X134233142Y-79361428D01*
X134661714Y-79418571D02*
X134690285Y-79390000D01*
X134747428Y-79361428D01*
X134890285Y-79361428D01*
X134947428Y-79390000D01*
X134976000Y-79418571D01*
X135004571Y-79475714D01*
X135004571Y-79532857D01*
X134976000Y-79618571D01*
X134633142Y-79961428D01*
X135004571Y-79961428D01*
X170609333Y-127526666D02*
X170376000Y-127193333D01*
X170209333Y-127526666D02*
X170209333Y-126826666D01*
X170476000Y-126826666D01*
X170542666Y-126860000D01*
X170576000Y-126893333D01*
X170609333Y-126960000D01*
X170609333Y-127060000D01*
X170576000Y-127126666D01*
X170542666Y-127160000D01*
X170476000Y-127193333D01*
X170209333Y-127193333D01*
X171009333Y-127126666D02*
X170942666Y-127093333D01*
X170909333Y-127060000D01*
X170876000Y-126993333D01*
X170876000Y-126960000D01*
X170909333Y-126893333D01*
X170942666Y-126860000D01*
X171009333Y-126826666D01*
X171142666Y-126826666D01*
X171209333Y-126860000D01*
X171242666Y-126893333D01*
X171276000Y-126960000D01*
X171276000Y-126993333D01*
X171242666Y-127060000D01*
X171209333Y-127093333D01*
X171142666Y-127126666D01*
X171009333Y-127126666D01*
X170942666Y-127160000D01*
X170909333Y-127193333D01*
X170876000Y-127260000D01*
X170876000Y-127393333D01*
X170909333Y-127460000D01*
X170942666Y-127493333D01*
X171009333Y-127526666D01*
X171142666Y-127526666D01*
X171209333Y-127493333D01*
X171242666Y-127460000D01*
X171276000Y-127393333D01*
X171276000Y-127260000D01*
X171242666Y-127193333D01*
X171209333Y-127160000D01*
X171142666Y-127126666D01*
X168626000Y-131883333D02*
X169092666Y-131883333D01*
X168359333Y-132050000D02*
X168859333Y-132216666D01*
X168859333Y-131783333D01*
X168392666Y-131583333D02*
X168392666Y-131116666D01*
X169092666Y-131416666D01*
X168392666Y-130716666D02*
X168392666Y-130650000D01*
X168426000Y-130583333D01*
X168459333Y-130550000D01*
X168526000Y-130516666D01*
X168659333Y-130483333D01*
X168826000Y-130483333D01*
X168959333Y-130516666D01*
X169026000Y-130550000D01*
X169059333Y-130583333D01*
X169092666Y-130650000D01*
X169092666Y-130716666D01*
X169059333Y-130783333D01*
X169026000Y-130816666D01*
X168959333Y-130850000D01*
X168826000Y-130883333D01*
X168659333Y-130883333D01*
X168526000Y-130850000D01*
X168459333Y-130816666D01*
X168426000Y-130783333D01*
X168392666Y-130716666D01*
X169059333Y-129683333D02*
X169092666Y-129616666D01*
X169092666Y-129483333D01*
X169059333Y-129416666D01*
X168992666Y-129383333D01*
X168959333Y-129383333D01*
X168892666Y-129416666D01*
X168859333Y-129483333D01*
X168859333Y-129583333D01*
X168826000Y-129650000D01*
X168759333Y-129683333D01*
X168726000Y-129683333D01*
X168659333Y-129650000D01*
X168626000Y-129583333D01*
X168626000Y-129483333D01*
X168659333Y-129416666D01*
X169092666Y-129083333D02*
X168626000Y-129083333D01*
X168692666Y-129083333D02*
X168659333Y-129050000D01*
X168626000Y-128983333D01*
X168626000Y-128883333D01*
X168659333Y-128816666D01*
X168726000Y-128783333D01*
X169092666Y-128783333D01*
X168726000Y-128783333D02*
X168659333Y-128750000D01*
X168626000Y-128683333D01*
X168626000Y-128583333D01*
X168659333Y-128516666D01*
X168726000Y-128483333D01*
X169092666Y-128483333D01*
X169092666Y-127850000D02*
X168726000Y-127850000D01*
X168659333Y-127883333D01*
X168626000Y-127950000D01*
X168626000Y-128083333D01*
X168659333Y-128150000D01*
X169059333Y-127850000D02*
X169092666Y-127916666D01*
X169092666Y-128083333D01*
X169059333Y-128150000D01*
X168992666Y-128183333D01*
X168926000Y-128183333D01*
X168859333Y-128150000D01*
X168826000Y-128083333D01*
X168826000Y-127916666D01*
X168792666Y-127850000D01*
X169092666Y-127416666D02*
X169059333Y-127483333D01*
X168992666Y-127516666D01*
X168392666Y-127516666D01*
X169092666Y-127050000D02*
X169059333Y-127116666D01*
X168992666Y-127150000D01*
X168392666Y-127150000D01*
X169059333Y-126516666D02*
X169092666Y-126583333D01*
X169092666Y-126716666D01*
X169059333Y-126783333D01*
X168992666Y-126816666D01*
X168726000Y-126816666D01*
X168659333Y-126783333D01*
X168626000Y-126716666D01*
X168626000Y-126583333D01*
X168659333Y-126516666D01*
X168726000Y-126483333D01*
X168792666Y-126483333D01*
X168859333Y-126816666D01*
X169092666Y-126183333D02*
X168626000Y-126183333D01*
X168759333Y-126183333D02*
X168692666Y-126150000D01*
X168659333Y-126116666D01*
X168626000Y-126050000D01*
X168626000Y-125983333D01*
X169092666Y-125216666D02*
X168626000Y-125216666D01*
X168392666Y-125216666D02*
X168426000Y-125250000D01*
X168459333Y-125216666D01*
X168426000Y-125183333D01*
X168392666Y-125216666D01*
X168459333Y-125216666D01*
X169059333Y-124916666D02*
X169092666Y-124850000D01*
X169092666Y-124716666D01*
X169059333Y-124650000D01*
X168992666Y-124616666D01*
X168959333Y-124616666D01*
X168892666Y-124650000D01*
X168859333Y-124716666D01*
X168859333Y-124816666D01*
X168826000Y-124883333D01*
X168759333Y-124916666D01*
X168726000Y-124916666D01*
X168659333Y-124883333D01*
X168626000Y-124816666D01*
X168626000Y-124716666D01*
X168659333Y-124650000D01*
X169092666Y-123783333D02*
X168392666Y-123783333D01*
X168659333Y-123783333D02*
X168626000Y-123716666D01*
X168626000Y-123583333D01*
X168659333Y-123516666D01*
X168692666Y-123483333D01*
X168759333Y-123450000D01*
X168959333Y-123450000D01*
X169026000Y-123483333D01*
X169059333Y-123516666D01*
X169092666Y-123583333D01*
X169092666Y-123716666D01*
X169059333Y-123783333D01*
X169092666Y-123150000D02*
X168626000Y-123150000D01*
X168759333Y-123150000D02*
X168692666Y-123116666D01*
X168659333Y-123083333D01*
X168626000Y-123016666D01*
X168626000Y-122950000D01*
X169092666Y-122716666D02*
X168626000Y-122716666D01*
X168392666Y-122716666D02*
X168426000Y-122750000D01*
X168459333Y-122716666D01*
X168426000Y-122683333D01*
X168392666Y-122716666D01*
X168459333Y-122716666D01*
X168626000Y-122083333D02*
X169192666Y-122083333D01*
X169259333Y-122116666D01*
X169292666Y-122150000D01*
X169326000Y-122216666D01*
X169326000Y-122316666D01*
X169292666Y-122383333D01*
X169059333Y-122083333D02*
X169092666Y-122150000D01*
X169092666Y-122283333D01*
X169059333Y-122350000D01*
X169026000Y-122383333D01*
X168959333Y-122416666D01*
X168759333Y-122416666D01*
X168692666Y-122383333D01*
X168659333Y-122350000D01*
X168626000Y-122283333D01*
X168626000Y-122150000D01*
X168659333Y-122083333D01*
X169092666Y-121750000D02*
X168392666Y-121750000D01*
X169092666Y-121450000D02*
X168726000Y-121450000D01*
X168659333Y-121483333D01*
X168626000Y-121550000D01*
X168626000Y-121650000D01*
X168659333Y-121716666D01*
X168692666Y-121750000D01*
X168626000Y-121216666D02*
X168626000Y-120950000D01*
X168392666Y-121116666D02*
X168992666Y-121116666D01*
X169059333Y-121083333D01*
X169092666Y-121016666D01*
X169092666Y-120950000D01*
X169059333Y-120450000D02*
X169092666Y-120516666D01*
X169092666Y-120650000D01*
X169059333Y-120716666D01*
X168992666Y-120750000D01*
X168726000Y-120750000D01*
X168659333Y-120716666D01*
X168626000Y-120650000D01*
X168626000Y-120516666D01*
X168659333Y-120450000D01*
X168726000Y-120416666D01*
X168792666Y-120416666D01*
X168859333Y-120750000D01*
X169092666Y-120116666D02*
X168626000Y-120116666D01*
X168759333Y-120116666D02*
X168692666Y-120083333D01*
X168659333Y-120050000D01*
X168626000Y-119983333D01*
X168626000Y-119916666D01*
X162819333Y-49084666D02*
X162586000Y-48751333D01*
X162419333Y-49084666D02*
X162419333Y-48384666D01*
X162686000Y-48384666D01*
X162752666Y-48418000D01*
X162786000Y-48451333D01*
X162819333Y-48518000D01*
X162819333Y-48618000D01*
X162786000Y-48684666D01*
X162752666Y-48718000D01*
X162686000Y-48751333D01*
X162419333Y-48751333D01*
X163052666Y-48384666D02*
X163519333Y-48384666D01*
X163219333Y-49084666D01*
X168694666Y-49084666D02*
X168294666Y-49084666D01*
X168494666Y-49084666D02*
X168494666Y-48384666D01*
X168428000Y-48484666D01*
X168361333Y-48551333D01*
X168294666Y-48584666D01*
X168994666Y-49084666D02*
X168994666Y-48384666D01*
X169061333Y-48818000D02*
X169261333Y-49084666D01*
X169261333Y-48618000D02*
X168994666Y-48884666D01*
X162819333Y-67372666D02*
X162586000Y-67039333D01*
X162419333Y-67372666D02*
X162419333Y-66672666D01*
X162686000Y-66672666D01*
X162752666Y-66706000D01*
X162786000Y-66739333D01*
X162819333Y-66806000D01*
X162819333Y-66906000D01*
X162786000Y-66972666D01*
X162752666Y-67006000D01*
X162686000Y-67039333D01*
X162419333Y-67039333D01*
X163419333Y-66672666D02*
X163286000Y-66672666D01*
X163219333Y-66706000D01*
X163186000Y-66739333D01*
X163119333Y-66839333D01*
X163086000Y-66972666D01*
X163086000Y-67239333D01*
X163119333Y-67306000D01*
X163152666Y-67339333D01*
X163219333Y-67372666D01*
X163352666Y-67372666D01*
X163419333Y-67339333D01*
X163452666Y-67306000D01*
X163486000Y-67239333D01*
X163486000Y-67072666D01*
X163452666Y-67006000D01*
X163419333Y-66972666D01*
X163352666Y-66939333D01*
X163219333Y-66939333D01*
X163152666Y-66972666D01*
X163119333Y-67006000D01*
X163086000Y-67072666D01*
X154756666Y-68684000D02*
X154756666Y-69150666D01*
X154590000Y-68417333D02*
X154423333Y-68917333D01*
X154856666Y-68917333D01*
X155056666Y-68450666D02*
X155523333Y-68450666D01*
X155223333Y-69150666D01*
X155923333Y-68450666D02*
X155990000Y-68450666D01*
X156056666Y-68484000D01*
X156090000Y-68517333D01*
X156123333Y-68584000D01*
X156156666Y-68717333D01*
X156156666Y-68884000D01*
X156123333Y-69017333D01*
X156090000Y-69084000D01*
X156056666Y-69117333D01*
X155990000Y-69150666D01*
X155923333Y-69150666D01*
X155856666Y-69117333D01*
X155823333Y-69084000D01*
X155790000Y-69017333D01*
X155756666Y-68884000D01*
X155756666Y-68717333D01*
X155790000Y-68584000D01*
X155823333Y-68517333D01*
X155856666Y-68484000D01*
X155923333Y-68450666D01*
X156990000Y-69150666D02*
X156990000Y-68450666D01*
X156990000Y-68717333D02*
X157056666Y-68684000D01*
X157190000Y-68684000D01*
X157256666Y-68717333D01*
X157290000Y-68750666D01*
X157323333Y-68817333D01*
X157323333Y-69017333D01*
X157290000Y-69084000D01*
X157256666Y-69117333D01*
X157190000Y-69150666D01*
X157056666Y-69150666D01*
X156990000Y-69117333D01*
X157890000Y-69117333D02*
X157823333Y-69150666D01*
X157690000Y-69150666D01*
X157623333Y-69117333D01*
X157590000Y-69050666D01*
X157590000Y-68784000D01*
X157623333Y-68717333D01*
X157690000Y-68684000D01*
X157823333Y-68684000D01*
X157890000Y-68717333D01*
X157923333Y-68784000D01*
X157923333Y-68850666D01*
X157590000Y-68917333D01*
X158123333Y-68684000D02*
X158390000Y-68684000D01*
X158223333Y-69150666D02*
X158223333Y-68550666D01*
X158256666Y-68484000D01*
X158323333Y-68450666D01*
X158390000Y-68450666D01*
X158723333Y-69150666D02*
X158656666Y-69117333D01*
X158623333Y-69084000D01*
X158590000Y-69017333D01*
X158590000Y-68817333D01*
X158623333Y-68750666D01*
X158656666Y-68717333D01*
X158723333Y-68684000D01*
X158823333Y-68684000D01*
X158890000Y-68717333D01*
X158923333Y-68750666D01*
X158956666Y-68817333D01*
X158956666Y-69017333D01*
X158923333Y-69084000D01*
X158890000Y-69117333D01*
X158823333Y-69150666D01*
X158723333Y-69150666D01*
X159256666Y-69150666D02*
X159256666Y-68684000D01*
X159256666Y-68817333D02*
X159290000Y-68750666D01*
X159323333Y-68717333D01*
X159390000Y-68684000D01*
X159456666Y-68684000D01*
X159956666Y-69117333D02*
X159890000Y-69150666D01*
X159756666Y-69150666D01*
X159690000Y-69117333D01*
X159656666Y-69050666D01*
X159656666Y-68784000D01*
X159690000Y-68717333D01*
X159756666Y-68684000D01*
X159890000Y-68684000D01*
X159956666Y-68717333D01*
X159990000Y-68784000D01*
X159990000Y-68850666D01*
X159656666Y-68917333D01*
X160823333Y-68684000D02*
X160823333Y-69384000D01*
X160823333Y-68717333D02*
X160890000Y-68684000D01*
X161023333Y-68684000D01*
X161090000Y-68717333D01*
X161123333Y-68750666D01*
X161156666Y-68817333D01*
X161156666Y-69017333D01*
X161123333Y-69084000D01*
X161090000Y-69117333D01*
X161023333Y-69150666D01*
X160890000Y-69150666D01*
X160823333Y-69117333D01*
X161556666Y-69150666D02*
X161490000Y-69117333D01*
X161456666Y-69084000D01*
X161423333Y-69017333D01*
X161423333Y-68817333D01*
X161456666Y-68750666D01*
X161490000Y-68717333D01*
X161556666Y-68684000D01*
X161656666Y-68684000D01*
X161723333Y-68717333D01*
X161756666Y-68750666D01*
X161790000Y-68817333D01*
X161790000Y-69017333D01*
X161756666Y-69084000D01*
X161723333Y-69117333D01*
X161656666Y-69150666D01*
X161556666Y-69150666D01*
X161990000Y-68684000D02*
X162256666Y-68684000D01*
X162090000Y-68450666D02*
X162090000Y-69050666D01*
X162123333Y-69117333D01*
X162190000Y-69150666D01*
X162256666Y-69150666D01*
X163123333Y-69150666D02*
X163056666Y-69117333D01*
X163023333Y-69084000D01*
X162990000Y-69017333D01*
X162990000Y-68817333D01*
X163023333Y-68750666D01*
X163056666Y-68717333D01*
X163123333Y-68684000D01*
X163223333Y-68684000D01*
X163290000Y-68717333D01*
X163323333Y-68750666D01*
X163356666Y-68817333D01*
X163356666Y-69017333D01*
X163323333Y-69084000D01*
X163290000Y-69117333D01*
X163223333Y-69150666D01*
X163123333Y-69150666D01*
X163656666Y-68684000D02*
X163656666Y-69150666D01*
X163656666Y-68750666D02*
X163690000Y-68717333D01*
X163756666Y-68684000D01*
X163856666Y-68684000D01*
X163923333Y-68717333D01*
X163956666Y-68784000D01*
X163956666Y-69150666D01*
X164823333Y-68684000D02*
X164823333Y-69150666D01*
X164823333Y-68750666D02*
X164856666Y-68717333D01*
X164923333Y-68684000D01*
X165023333Y-68684000D01*
X165090000Y-68717333D01*
X165123333Y-68784000D01*
X165123333Y-69150666D01*
X165556666Y-69150666D02*
X165490000Y-69117333D01*
X165456666Y-69084000D01*
X165423333Y-69017333D01*
X165423333Y-68817333D01*
X165456666Y-68750666D01*
X165490000Y-68717333D01*
X165556666Y-68684000D01*
X165656666Y-68684000D01*
X165723333Y-68717333D01*
X165756666Y-68750666D01*
X165790000Y-68817333D01*
X165790000Y-69017333D01*
X165756666Y-69084000D01*
X165723333Y-69117333D01*
X165656666Y-69150666D01*
X165556666Y-69150666D01*
X166090000Y-68684000D02*
X166090000Y-69150666D01*
X166090000Y-68750666D02*
X166123333Y-68717333D01*
X166190000Y-68684000D01*
X166290000Y-68684000D01*
X166356666Y-68717333D01*
X166390000Y-68784000D01*
X166390000Y-69150666D01*
X166723333Y-68884000D02*
X167256666Y-68884000D01*
X167590000Y-69150666D02*
X167590000Y-68684000D01*
X167590000Y-68450666D02*
X167556666Y-68484000D01*
X167590000Y-68517333D01*
X167623333Y-68484000D01*
X167590000Y-68450666D01*
X167590000Y-68517333D01*
X167923333Y-68684000D02*
X167923333Y-69150666D01*
X167923333Y-68750666D02*
X167956666Y-68717333D01*
X168023333Y-68684000D01*
X168123333Y-68684000D01*
X168190000Y-68717333D01*
X168223333Y-68784000D01*
X168223333Y-69150666D01*
X168490000Y-68684000D02*
X168656666Y-69150666D01*
X168823333Y-68684000D01*
X169623333Y-69150666D02*
X169623333Y-68684000D01*
X169623333Y-68450666D02*
X169590000Y-68484000D01*
X169623333Y-68517333D01*
X169656666Y-68484000D01*
X169623333Y-68450666D01*
X169623333Y-68517333D01*
X169956666Y-68684000D02*
X169956666Y-69150666D01*
X169956666Y-68750666D02*
X169990000Y-68717333D01*
X170056666Y-68684000D01*
X170156666Y-68684000D01*
X170223333Y-68717333D01*
X170256666Y-68784000D01*
X170256666Y-69150666D01*
X170590000Y-68684000D02*
X170590000Y-69384000D01*
X170590000Y-68717333D02*
X170656666Y-68684000D01*
X170790000Y-68684000D01*
X170856666Y-68717333D01*
X170890000Y-68750666D01*
X170923333Y-68817333D01*
X170923333Y-69017333D01*
X170890000Y-69084000D01*
X170856666Y-69117333D01*
X170790000Y-69150666D01*
X170656666Y-69150666D01*
X170590000Y-69117333D01*
X171523333Y-68684000D02*
X171523333Y-69150666D01*
X171223333Y-68684000D02*
X171223333Y-69050666D01*
X171256666Y-69117333D01*
X171323333Y-69150666D01*
X171423333Y-69150666D01*
X171490000Y-69117333D01*
X171523333Y-69084000D01*
X171756666Y-68684000D02*
X172023333Y-68684000D01*
X171856666Y-68450666D02*
X171856666Y-69050666D01*
X171890000Y-69117333D01*
X171956666Y-69150666D01*
X172023333Y-69150666D01*
X162819333Y-63054666D02*
X162586000Y-62721333D01*
X162419333Y-63054666D02*
X162419333Y-62354666D01*
X162686000Y-62354666D01*
X162752666Y-62388000D01*
X162786000Y-62421333D01*
X162819333Y-62488000D01*
X162819333Y-62588000D01*
X162786000Y-62654666D01*
X162752666Y-62688000D01*
X162686000Y-62721333D01*
X162419333Y-62721333D01*
X163452666Y-62354666D02*
X163119333Y-62354666D01*
X163086000Y-62688000D01*
X163119333Y-62654666D01*
X163186000Y-62621333D01*
X163352666Y-62621333D01*
X163419333Y-62654666D01*
X163452666Y-62688000D01*
X163486000Y-62754666D01*
X163486000Y-62921333D01*
X163452666Y-62988000D01*
X163419333Y-63021333D01*
X163352666Y-63054666D01*
X163186000Y-63054666D01*
X163119333Y-63021333D01*
X163086000Y-62988000D01*
X157910666Y-64832666D02*
X157510666Y-64832666D01*
X157710666Y-64832666D02*
X157710666Y-64132666D01*
X157644000Y-64232666D01*
X157577333Y-64299333D01*
X157510666Y-64332666D01*
X158344000Y-64132666D02*
X158410666Y-64132666D01*
X158477333Y-64166000D01*
X158510666Y-64199333D01*
X158544000Y-64266000D01*
X158577333Y-64399333D01*
X158577333Y-64566000D01*
X158544000Y-64699333D01*
X158510666Y-64766000D01*
X158477333Y-64799333D01*
X158410666Y-64832666D01*
X158344000Y-64832666D01*
X158277333Y-64799333D01*
X158244000Y-64766000D01*
X158210666Y-64699333D01*
X158177333Y-64566000D01*
X158177333Y-64399333D01*
X158210666Y-64266000D01*
X158244000Y-64199333D01*
X158277333Y-64166000D01*
X158344000Y-64132666D01*
X159010666Y-64132666D02*
X159077333Y-64132666D01*
X159144000Y-64166000D01*
X159177333Y-64199333D01*
X159210666Y-64266000D01*
X159244000Y-64399333D01*
X159244000Y-64566000D01*
X159210666Y-64699333D01*
X159177333Y-64766000D01*
X159144000Y-64799333D01*
X159077333Y-64832666D01*
X159010666Y-64832666D01*
X158944000Y-64799333D01*
X158910666Y-64766000D01*
X158877333Y-64699333D01*
X158844000Y-64566000D01*
X158844000Y-64399333D01*
X158877333Y-64266000D01*
X158910666Y-64199333D01*
X158944000Y-64166000D01*
X159010666Y-64132666D01*
X159544000Y-64832666D02*
X159544000Y-64132666D01*
X159610666Y-64566000D02*
X159810666Y-64832666D01*
X159810666Y-64366000D02*
X159544000Y-64632666D01*
X160644000Y-64832666D02*
X160644000Y-64132666D01*
X160644000Y-64399333D02*
X160710666Y-64366000D01*
X160844000Y-64366000D01*
X160910666Y-64399333D01*
X160944000Y-64432666D01*
X160977333Y-64499333D01*
X160977333Y-64699333D01*
X160944000Y-64766000D01*
X160910666Y-64799333D01*
X160844000Y-64832666D01*
X160710666Y-64832666D01*
X160644000Y-64799333D01*
X161544000Y-64799333D02*
X161477333Y-64832666D01*
X161344000Y-64832666D01*
X161277333Y-64799333D01*
X161244000Y-64732666D01*
X161244000Y-64466000D01*
X161277333Y-64399333D01*
X161344000Y-64366000D01*
X161477333Y-64366000D01*
X161544000Y-64399333D01*
X161577333Y-64466000D01*
X161577333Y-64532666D01*
X161244000Y-64599333D01*
X161777333Y-64366000D02*
X162044000Y-64366000D01*
X161877333Y-64832666D02*
X161877333Y-64232666D01*
X161910666Y-64166000D01*
X161977333Y-64132666D01*
X162044000Y-64132666D01*
X162377333Y-64832666D02*
X162310666Y-64799333D01*
X162277333Y-64766000D01*
X162244000Y-64699333D01*
X162244000Y-64499333D01*
X162277333Y-64432666D01*
X162310666Y-64399333D01*
X162377333Y-64366000D01*
X162477333Y-64366000D01*
X162544000Y-64399333D01*
X162577333Y-64432666D01*
X162610666Y-64499333D01*
X162610666Y-64699333D01*
X162577333Y-64766000D01*
X162544000Y-64799333D01*
X162477333Y-64832666D01*
X162377333Y-64832666D01*
X162910666Y-64832666D02*
X162910666Y-64366000D01*
X162910666Y-64499333D02*
X162944000Y-64432666D01*
X162977333Y-64399333D01*
X163044000Y-64366000D01*
X163110666Y-64366000D01*
X163610666Y-64799333D02*
X163544000Y-64832666D01*
X163410666Y-64832666D01*
X163344000Y-64799333D01*
X163310666Y-64732666D01*
X163310666Y-64466000D01*
X163344000Y-64399333D01*
X163410666Y-64366000D01*
X163544000Y-64366000D01*
X163610666Y-64399333D01*
X163644000Y-64466000D01*
X163644000Y-64532666D01*
X163310666Y-64599333D01*
X164777333Y-64832666D02*
X164777333Y-64132666D01*
X164777333Y-64799333D02*
X164710666Y-64832666D01*
X164577333Y-64832666D01*
X164510666Y-64799333D01*
X164477333Y-64766000D01*
X164444000Y-64699333D01*
X164444000Y-64499333D01*
X164477333Y-64432666D01*
X164510666Y-64399333D01*
X164577333Y-64366000D01*
X164710666Y-64366000D01*
X164777333Y-64399333D01*
X165377333Y-64799333D02*
X165310666Y-64832666D01*
X165177333Y-64832666D01*
X165110666Y-64799333D01*
X165077333Y-64732666D01*
X165077333Y-64466000D01*
X165110666Y-64399333D01*
X165177333Y-64366000D01*
X165310666Y-64366000D01*
X165377333Y-64399333D01*
X165410666Y-64466000D01*
X165410666Y-64532666D01*
X165077333Y-64599333D01*
X166010666Y-64799333D02*
X165944000Y-64832666D01*
X165810666Y-64832666D01*
X165744000Y-64799333D01*
X165710666Y-64766000D01*
X165677333Y-64699333D01*
X165677333Y-64499333D01*
X165710666Y-64432666D01*
X165744000Y-64399333D01*
X165810666Y-64366000D01*
X165944000Y-64366000D01*
X166010666Y-64399333D01*
X166610666Y-64832666D02*
X166610666Y-64466000D01*
X166577333Y-64399333D01*
X166510666Y-64366000D01*
X166377333Y-64366000D01*
X166310666Y-64399333D01*
X166610666Y-64799333D02*
X166544000Y-64832666D01*
X166377333Y-64832666D01*
X166310666Y-64799333D01*
X166277333Y-64732666D01*
X166277333Y-64666000D01*
X166310666Y-64599333D01*
X166377333Y-64566000D01*
X166544000Y-64566000D01*
X166610666Y-64532666D01*
X166877333Y-64366000D02*
X167044000Y-64832666D01*
X167210666Y-64366000D02*
X167044000Y-64832666D01*
X166977333Y-64999333D01*
X166944000Y-65032666D01*
X166877333Y-65066000D01*
X168010666Y-64366000D02*
X168010666Y-65066000D01*
X168010666Y-64399333D02*
X168077333Y-64366000D01*
X168210666Y-64366000D01*
X168277333Y-64399333D01*
X168310666Y-64432666D01*
X168344000Y-64499333D01*
X168344000Y-64699333D01*
X168310666Y-64766000D01*
X168277333Y-64799333D01*
X168210666Y-64832666D01*
X168077333Y-64832666D01*
X168010666Y-64799333D01*
X168744000Y-64832666D02*
X168677333Y-64799333D01*
X168644000Y-64766000D01*
X168610666Y-64699333D01*
X168610666Y-64499333D01*
X168644000Y-64432666D01*
X168677333Y-64399333D01*
X168744000Y-64366000D01*
X168844000Y-64366000D01*
X168910666Y-64399333D01*
X168944000Y-64432666D01*
X168977333Y-64499333D01*
X168977333Y-64699333D01*
X168944000Y-64766000D01*
X168910666Y-64799333D01*
X168844000Y-64832666D01*
X168744000Y-64832666D01*
X169177333Y-64366000D02*
X169444000Y-64366000D01*
X169277333Y-64132666D02*
X169277333Y-64732666D01*
X169310666Y-64799333D01*
X169377333Y-64832666D01*
X169444000Y-64832666D01*
X162819333Y-81088666D02*
X162586000Y-80755333D01*
X162419333Y-81088666D02*
X162419333Y-80388666D01*
X162686000Y-80388666D01*
X162752666Y-80422000D01*
X162786000Y-80455333D01*
X162819333Y-80522000D01*
X162819333Y-80622000D01*
X162786000Y-80688666D01*
X162752666Y-80722000D01*
X162686000Y-80755333D01*
X162419333Y-80755333D01*
X163419333Y-80622000D02*
X163419333Y-81088666D01*
X163252666Y-80355333D02*
X163086000Y-80855333D01*
X163519333Y-80855333D01*
X156023333Y-82833333D02*
X156123333Y-82866666D01*
X156290000Y-82866666D01*
X156356666Y-82833333D01*
X156390000Y-82800000D01*
X156423333Y-82733333D01*
X156423333Y-82666666D01*
X156390000Y-82600000D01*
X156356666Y-82566666D01*
X156290000Y-82533333D01*
X156156666Y-82500000D01*
X156090000Y-82466666D01*
X156056666Y-82433333D01*
X156023333Y-82366666D01*
X156023333Y-82300000D01*
X156056666Y-82233333D01*
X156090000Y-82200000D01*
X156156666Y-82166666D01*
X156323333Y-82166666D01*
X156423333Y-82200000D01*
X156723333Y-82500000D02*
X156956666Y-82500000D01*
X157056666Y-82866666D02*
X156723333Y-82866666D01*
X156723333Y-82166666D01*
X157056666Y-82166666D01*
X157256666Y-82166666D02*
X157656666Y-82166666D01*
X157456666Y-82866666D02*
X157456666Y-82166666D01*
X158323333Y-82166666D02*
X158723333Y-82166666D01*
X158523333Y-82866666D02*
X158523333Y-82166666D01*
X158956666Y-82866666D02*
X158956666Y-82166666D01*
X158956666Y-82500000D02*
X159356666Y-82500000D01*
X159356666Y-82866666D02*
X159356666Y-82166666D01*
X159690000Y-82866666D02*
X159690000Y-82166666D01*
X159990000Y-82833333D02*
X160090000Y-82866666D01*
X160256666Y-82866666D01*
X160323333Y-82833333D01*
X160356666Y-82800000D01*
X160390000Y-82733333D01*
X160390000Y-82666666D01*
X160356666Y-82600000D01*
X160323333Y-82566666D01*
X160256666Y-82533333D01*
X160123333Y-82500000D01*
X160056666Y-82466666D01*
X160023333Y-82433333D01*
X159990000Y-82366666D01*
X159990000Y-82300000D01*
X160023333Y-82233333D01*
X160056666Y-82200000D01*
X160123333Y-82166666D01*
X160290000Y-82166666D01*
X160390000Y-82200000D01*
X161123333Y-82166666D02*
X161523333Y-82166666D01*
X161323333Y-82866666D02*
X161323333Y-82166666D01*
X161890000Y-82166666D02*
X162023333Y-82166666D01*
X162090000Y-82200000D01*
X162156666Y-82266666D01*
X162190000Y-82400000D01*
X162190000Y-82633333D01*
X162156666Y-82766666D01*
X162090000Y-82833333D01*
X162023333Y-82866666D01*
X161890000Y-82866666D01*
X161823333Y-82833333D01*
X161756666Y-82766666D01*
X161723333Y-82633333D01*
X161723333Y-82400000D01*
X161756666Y-82266666D01*
X161823333Y-82200000D01*
X161890000Y-82166666D01*
X162990000Y-82666666D02*
X163323333Y-82666666D01*
X162923333Y-82866666D02*
X163156666Y-82166666D01*
X163390000Y-82866666D01*
X163623333Y-82866666D02*
X163623333Y-82166666D01*
X163790000Y-82166666D01*
X163890000Y-82200000D01*
X163956666Y-82266666D01*
X163990000Y-82333333D01*
X164023333Y-82466666D01*
X164023333Y-82566666D01*
X163990000Y-82700000D01*
X163956666Y-82766666D01*
X163890000Y-82833333D01*
X163790000Y-82866666D01*
X163623333Y-82866666D01*
X164523333Y-82166666D02*
X164523333Y-82666666D01*
X164490000Y-82766666D01*
X164423333Y-82833333D01*
X164323333Y-82866666D01*
X164256666Y-82866666D01*
X164856666Y-82166666D02*
X164856666Y-82733333D01*
X164890000Y-82800000D01*
X164923333Y-82833333D01*
X164990000Y-82866666D01*
X165123333Y-82866666D01*
X165190000Y-82833333D01*
X165223333Y-82800000D01*
X165256666Y-82733333D01*
X165256666Y-82166666D01*
X165556666Y-82833333D02*
X165656666Y-82866666D01*
X165823333Y-82866666D01*
X165890000Y-82833333D01*
X165923333Y-82800000D01*
X165956666Y-82733333D01*
X165956666Y-82666666D01*
X165923333Y-82600000D01*
X165890000Y-82566666D01*
X165823333Y-82533333D01*
X165690000Y-82500000D01*
X165623333Y-82466666D01*
X165590000Y-82433333D01*
X165556666Y-82366666D01*
X165556666Y-82300000D01*
X165590000Y-82233333D01*
X165623333Y-82200000D01*
X165690000Y-82166666D01*
X165856666Y-82166666D01*
X165956666Y-82200000D01*
X166156666Y-82166666D02*
X166556666Y-82166666D01*
X166356666Y-82866666D02*
X166356666Y-82166666D01*
X167290000Y-82833333D02*
X167390000Y-82866666D01*
X167556666Y-82866666D01*
X167623333Y-82833333D01*
X167656666Y-82800000D01*
X167690000Y-82733333D01*
X167690000Y-82666666D01*
X167656666Y-82600000D01*
X167623333Y-82566666D01*
X167556666Y-82533333D01*
X167423333Y-82500000D01*
X167356666Y-82466666D01*
X167323333Y-82433333D01*
X167290000Y-82366666D01*
X167290000Y-82300000D01*
X167323333Y-82233333D01*
X167356666Y-82200000D01*
X167423333Y-82166666D01*
X167590000Y-82166666D01*
X167690000Y-82200000D01*
X167990000Y-82500000D02*
X168223333Y-82500000D01*
X168323333Y-82866666D02*
X167990000Y-82866666D01*
X167990000Y-82166666D01*
X168323333Y-82166666D01*
X168623333Y-82866666D02*
X168623333Y-82166666D01*
X169023333Y-82866666D01*
X169023333Y-82166666D01*
X169323333Y-82833333D02*
X169423333Y-82866666D01*
X169590000Y-82866666D01*
X169656666Y-82833333D01*
X169690000Y-82800000D01*
X169723333Y-82733333D01*
X169723333Y-82666666D01*
X169690000Y-82600000D01*
X169656666Y-82566666D01*
X169590000Y-82533333D01*
X169456666Y-82500000D01*
X169390000Y-82466666D01*
X169356666Y-82433333D01*
X169323333Y-82366666D01*
X169323333Y-82300000D01*
X169356666Y-82233333D01*
X169390000Y-82200000D01*
X169456666Y-82166666D01*
X169623333Y-82166666D01*
X169723333Y-82200000D01*
X170023333Y-82500000D02*
X170256666Y-82500000D01*
X170356666Y-82866666D02*
X170023333Y-82866666D01*
X170023333Y-82166666D01*
X170356666Y-82166666D01*
X125792666Y-115432666D02*
X125459333Y-115666000D01*
X125792666Y-115832666D02*
X125092666Y-115832666D01*
X125092666Y-115566000D01*
X125126000Y-115499333D01*
X125159333Y-115466000D01*
X125226000Y-115432666D01*
X125326000Y-115432666D01*
X125392666Y-115466000D01*
X125426000Y-115499333D01*
X125459333Y-115566000D01*
X125459333Y-115832666D01*
X125092666Y-115199333D02*
X125092666Y-114766000D01*
X125359333Y-114999333D01*
X125359333Y-114899333D01*
X125392666Y-114832666D01*
X125426000Y-114799333D01*
X125492666Y-114766000D01*
X125659333Y-114766000D01*
X125726000Y-114799333D01*
X125759333Y-114832666D01*
X125792666Y-114899333D01*
X125792666Y-115099333D01*
X125759333Y-115166000D01*
X125726000Y-115199333D01*
X125792666Y-117601333D02*
X125792666Y-118001333D01*
X125792666Y-117801333D02*
X125092666Y-117801333D01*
X125192666Y-117868000D01*
X125259333Y-117934666D01*
X125292666Y-118001333D01*
X125792666Y-117301333D02*
X125092666Y-117301333D01*
X125526000Y-117234666D02*
X125792666Y-117034666D01*
X125326000Y-117034666D02*
X125592666Y-117301333D01*
X125759333Y-116234666D02*
X125792666Y-116168000D01*
X125792666Y-116034666D01*
X125759333Y-115968000D01*
X125692666Y-115934666D01*
X125659333Y-115934666D01*
X125592666Y-115968000D01*
X125559333Y-116034666D01*
X125559333Y-116134666D01*
X125526000Y-116201333D01*
X125459333Y-116234666D01*
X125426000Y-116234666D01*
X125359333Y-116201333D01*
X125326000Y-116134666D01*
X125326000Y-116034666D01*
X125359333Y-115968000D01*
X125792666Y-115634666D02*
X125326000Y-115634666D01*
X125392666Y-115634666D02*
X125359333Y-115601333D01*
X125326000Y-115534666D01*
X125326000Y-115434666D01*
X125359333Y-115368000D01*
X125426000Y-115334666D01*
X125792666Y-115334666D01*
X125426000Y-115334666D02*
X125359333Y-115301333D01*
X125326000Y-115234666D01*
X125326000Y-115134666D01*
X125359333Y-115068000D01*
X125426000Y-115034666D01*
X125792666Y-115034666D01*
X125792666Y-114401333D02*
X125426000Y-114401333D01*
X125359333Y-114434666D01*
X125326000Y-114501333D01*
X125326000Y-114634666D01*
X125359333Y-114701333D01*
X125759333Y-114401333D02*
X125792666Y-114468000D01*
X125792666Y-114634666D01*
X125759333Y-114701333D01*
X125692666Y-114734666D01*
X125626000Y-114734666D01*
X125559333Y-114701333D01*
X125526000Y-114634666D01*
X125526000Y-114468000D01*
X125492666Y-114401333D01*
X125792666Y-113968000D02*
X125759333Y-114034666D01*
X125692666Y-114068000D01*
X125092666Y-114068000D01*
X125792666Y-113601333D02*
X125759333Y-113668000D01*
X125692666Y-113701333D01*
X125092666Y-113701333D01*
X125759333Y-113068000D02*
X125792666Y-113134666D01*
X125792666Y-113268000D01*
X125759333Y-113334666D01*
X125692666Y-113368000D01*
X125426000Y-113368000D01*
X125359333Y-113334666D01*
X125326000Y-113268000D01*
X125326000Y-113134666D01*
X125359333Y-113068000D01*
X125426000Y-113034666D01*
X125492666Y-113034666D01*
X125559333Y-113368000D01*
X125792666Y-112734666D02*
X125326000Y-112734666D01*
X125459333Y-112734666D02*
X125392666Y-112701333D01*
X125359333Y-112668000D01*
X125326000Y-112601333D01*
X125326000Y-112534666D01*
X125792666Y-111768000D02*
X125326000Y-111768000D01*
X125092666Y-111768000D02*
X125126000Y-111801333D01*
X125159333Y-111768000D01*
X125126000Y-111734666D01*
X125092666Y-111768000D01*
X125159333Y-111768000D01*
X125759333Y-111468000D02*
X125792666Y-111401333D01*
X125792666Y-111268000D01*
X125759333Y-111201333D01*
X125692666Y-111168000D01*
X125659333Y-111168000D01*
X125592666Y-111201333D01*
X125559333Y-111268000D01*
X125559333Y-111368000D01*
X125526000Y-111434666D01*
X125459333Y-111468000D01*
X125426000Y-111468000D01*
X125359333Y-111434666D01*
X125326000Y-111368000D01*
X125326000Y-111268000D01*
X125359333Y-111201333D01*
X125792666Y-110334666D02*
X125092666Y-110334666D01*
X125359333Y-110334666D02*
X125326000Y-110268000D01*
X125326000Y-110134666D01*
X125359333Y-110068000D01*
X125392666Y-110034666D01*
X125459333Y-110001333D01*
X125659333Y-110001333D01*
X125726000Y-110034666D01*
X125759333Y-110068000D01*
X125792666Y-110134666D01*
X125792666Y-110268000D01*
X125759333Y-110334666D01*
X125792666Y-109701333D02*
X125326000Y-109701333D01*
X125459333Y-109701333D02*
X125392666Y-109668000D01*
X125359333Y-109634666D01*
X125326000Y-109568000D01*
X125326000Y-109501333D01*
X125792666Y-109268000D02*
X125326000Y-109268000D01*
X125092666Y-109268000D02*
X125126000Y-109301333D01*
X125159333Y-109268000D01*
X125126000Y-109234666D01*
X125092666Y-109268000D01*
X125159333Y-109268000D01*
X125326000Y-108634666D02*
X125892666Y-108634666D01*
X125959333Y-108668000D01*
X125992666Y-108701333D01*
X126026000Y-108768000D01*
X126026000Y-108868000D01*
X125992666Y-108934666D01*
X125759333Y-108634666D02*
X125792666Y-108701333D01*
X125792666Y-108834666D01*
X125759333Y-108901333D01*
X125726000Y-108934666D01*
X125659333Y-108968000D01*
X125459333Y-108968000D01*
X125392666Y-108934666D01*
X125359333Y-108901333D01*
X125326000Y-108834666D01*
X125326000Y-108701333D01*
X125359333Y-108634666D01*
X125792666Y-108301333D02*
X125092666Y-108301333D01*
X125792666Y-108001333D02*
X125426000Y-108001333D01*
X125359333Y-108034666D01*
X125326000Y-108101333D01*
X125326000Y-108201333D01*
X125359333Y-108268000D01*
X125392666Y-108301333D01*
X125326000Y-107768000D02*
X125326000Y-107501333D01*
X125092666Y-107668000D02*
X125692666Y-107668000D01*
X125759333Y-107634666D01*
X125792666Y-107568000D01*
X125792666Y-107501333D01*
X125759333Y-107001333D02*
X125792666Y-107068000D01*
X125792666Y-107201333D01*
X125759333Y-107268000D01*
X125692666Y-107301333D01*
X125426000Y-107301333D01*
X125359333Y-107268000D01*
X125326000Y-107201333D01*
X125326000Y-107068000D01*
X125359333Y-107001333D01*
X125426000Y-106968000D01*
X125492666Y-106968000D01*
X125559333Y-107301333D01*
X125792666Y-106668000D02*
X125326000Y-106668000D01*
X125459333Y-106668000D02*
X125392666Y-106634666D01*
X125359333Y-106601333D01*
X125326000Y-106534666D01*
X125326000Y-106468000D01*
X163073333Y-85660666D02*
X162840000Y-85327333D01*
X162673333Y-85660666D02*
X162673333Y-84960666D01*
X162940000Y-84960666D01*
X163006666Y-84994000D01*
X163040000Y-85027333D01*
X163073333Y-85094000D01*
X163073333Y-85194000D01*
X163040000Y-85260666D01*
X163006666Y-85294000D01*
X162940000Y-85327333D01*
X162673333Y-85327333D01*
X163340000Y-85027333D02*
X163373333Y-84994000D01*
X163440000Y-84960666D01*
X163606666Y-84960666D01*
X163673333Y-84994000D01*
X163706666Y-85027333D01*
X163740000Y-85094000D01*
X163740000Y-85160666D01*
X163706666Y-85260666D01*
X163306666Y-85660666D01*
X163740000Y-85660666D01*
X168440666Y-85660666D02*
X168040666Y-85660666D01*
X168240666Y-85660666D02*
X168240666Y-84960666D01*
X168174000Y-85060666D01*
X168107333Y-85127333D01*
X168040666Y-85160666D01*
X168740666Y-85660666D02*
X168740666Y-84960666D01*
X168807333Y-85394000D02*
X169007333Y-85660666D01*
X169007333Y-85194000D02*
X168740666Y-85460666D01*
X162819333Y-53656666D02*
X162586000Y-53323333D01*
X162419333Y-53656666D02*
X162419333Y-52956666D01*
X162686000Y-52956666D01*
X162752666Y-52990000D01*
X162786000Y-53023333D01*
X162819333Y-53090000D01*
X162819333Y-53190000D01*
X162786000Y-53256666D01*
X162752666Y-53290000D01*
X162686000Y-53323333D01*
X162419333Y-53323333D01*
X163486000Y-53656666D02*
X163086000Y-53656666D01*
X163286000Y-53656666D02*
X163286000Y-52956666D01*
X163219333Y-53056666D01*
X163152666Y-53123333D01*
X163086000Y-53156666D01*
X168694666Y-53656666D02*
X168294666Y-53656666D01*
X168494666Y-53656666D02*
X168494666Y-52956666D01*
X168428000Y-53056666D01*
X168361333Y-53123333D01*
X168294666Y-53156666D01*
X168994666Y-53656666D02*
X168994666Y-52956666D01*
X169061333Y-53390000D02*
X169261333Y-53656666D01*
X169261333Y-53190000D02*
X168994666Y-53456666D01*
X163073333Y-58228666D02*
X162840000Y-57895333D01*
X162673333Y-58228666D02*
X162673333Y-57528666D01*
X162940000Y-57528666D01*
X163006666Y-57562000D01*
X163040000Y-57595333D01*
X163073333Y-57662000D01*
X163073333Y-57762000D01*
X163040000Y-57828666D01*
X163006666Y-57862000D01*
X162940000Y-57895333D01*
X162673333Y-57895333D01*
X163406666Y-58228666D02*
X163540000Y-58228666D01*
X163606666Y-58195333D01*
X163640000Y-58162000D01*
X163706666Y-58062000D01*
X163740000Y-57928666D01*
X163740000Y-57662000D01*
X163706666Y-57595333D01*
X163673333Y-57562000D01*
X163606666Y-57528666D01*
X163473333Y-57528666D01*
X163406666Y-57562000D01*
X163373333Y-57595333D01*
X163340000Y-57662000D01*
X163340000Y-57828666D01*
X163373333Y-57895333D01*
X163406666Y-57928666D01*
X163473333Y-57962000D01*
X163606666Y-57962000D01*
X163673333Y-57928666D01*
X163706666Y-57895333D01*
X163740000Y-57828666D01*
X156644666Y-60006666D02*
X156244666Y-60006666D01*
X156444666Y-60006666D02*
X156444666Y-59306666D01*
X156378000Y-59406666D01*
X156311333Y-59473333D01*
X156244666Y-59506666D01*
X156944666Y-60006666D02*
X156944666Y-59306666D01*
X157011333Y-59740000D02*
X157211333Y-60006666D01*
X157211333Y-59540000D02*
X156944666Y-59806666D01*
X158044666Y-59740000D02*
X158578000Y-59740000D01*
X159344666Y-59540000D02*
X159611333Y-59540000D01*
X159444666Y-59306666D02*
X159444666Y-59906666D01*
X159478000Y-59973333D01*
X159544666Y-60006666D01*
X159611333Y-60006666D01*
X159844666Y-60006666D02*
X159844666Y-59540000D01*
X159844666Y-59673333D02*
X159878000Y-59606666D01*
X159911333Y-59573333D01*
X159978000Y-59540000D01*
X160044666Y-59540000D01*
X160278000Y-60006666D02*
X160278000Y-59540000D01*
X160278000Y-59306666D02*
X160244666Y-59340000D01*
X160278000Y-59373333D01*
X160311333Y-59340000D01*
X160278000Y-59306666D01*
X160278000Y-59373333D01*
X160911333Y-59540000D02*
X160911333Y-60106666D01*
X160878000Y-60173333D01*
X160844666Y-60206666D01*
X160778000Y-60240000D01*
X160678000Y-60240000D01*
X160611333Y-60206666D01*
X160911333Y-59973333D02*
X160844666Y-60006666D01*
X160711333Y-60006666D01*
X160644666Y-59973333D01*
X160611333Y-59940000D01*
X160578000Y-59873333D01*
X160578000Y-59673333D01*
X160611333Y-59606666D01*
X160644666Y-59573333D01*
X160711333Y-59540000D01*
X160844666Y-59540000D01*
X160911333Y-59573333D01*
X161778000Y-60006666D02*
X161778000Y-59540000D01*
X161778000Y-59306666D02*
X161744666Y-59340000D01*
X161778000Y-59373333D01*
X161811333Y-59340000D01*
X161778000Y-59306666D01*
X161778000Y-59373333D01*
X162111333Y-59540000D02*
X162111333Y-60006666D01*
X162111333Y-59606666D02*
X162144666Y-59573333D01*
X162211333Y-59540000D01*
X162311333Y-59540000D01*
X162378000Y-59573333D01*
X162411333Y-59640000D01*
X162411333Y-60006666D01*
X162744666Y-59540000D02*
X162744666Y-60240000D01*
X162744666Y-59573333D02*
X162811333Y-59540000D01*
X162944666Y-59540000D01*
X163011333Y-59573333D01*
X163044666Y-59606666D01*
X163078000Y-59673333D01*
X163078000Y-59873333D01*
X163044666Y-59940000D01*
X163011333Y-59973333D01*
X162944666Y-60006666D01*
X162811333Y-60006666D01*
X162744666Y-59973333D01*
X163678000Y-59540000D02*
X163678000Y-60006666D01*
X163378000Y-59540000D02*
X163378000Y-59906666D01*
X163411333Y-59973333D01*
X163478000Y-60006666D01*
X163578000Y-60006666D01*
X163644666Y-59973333D01*
X163678000Y-59940000D01*
X163911333Y-59540000D02*
X164178000Y-59540000D01*
X164011333Y-59306666D02*
X164011333Y-59906666D01*
X164044666Y-59973333D01*
X164111333Y-60006666D01*
X164178000Y-60006666D01*
X164944666Y-60006666D02*
X164944666Y-59540000D01*
X164944666Y-59673333D02*
X164978000Y-59606666D01*
X165011333Y-59573333D01*
X165078000Y-59540000D01*
X165144666Y-59540000D01*
X165644666Y-59973333D02*
X165578000Y-60006666D01*
X165444666Y-60006666D01*
X165378000Y-59973333D01*
X165344666Y-59906666D01*
X165344666Y-59640000D01*
X165378000Y-59573333D01*
X165444666Y-59540000D01*
X165578000Y-59540000D01*
X165644666Y-59573333D01*
X165678000Y-59640000D01*
X165678000Y-59706666D01*
X165344666Y-59773333D01*
X165944666Y-59973333D02*
X166011333Y-60006666D01*
X166144666Y-60006666D01*
X166211333Y-59973333D01*
X166244666Y-59906666D01*
X166244666Y-59873333D01*
X166211333Y-59806666D01*
X166144666Y-59773333D01*
X166044666Y-59773333D01*
X165978000Y-59740000D01*
X165944666Y-59673333D01*
X165944666Y-59640000D01*
X165978000Y-59573333D01*
X166044666Y-59540000D01*
X166144666Y-59540000D01*
X166211333Y-59573333D01*
X166544666Y-60006666D02*
X166544666Y-59540000D01*
X166544666Y-59306666D02*
X166511333Y-59340000D01*
X166544666Y-59373333D01*
X166578000Y-59340000D01*
X166544666Y-59306666D01*
X166544666Y-59373333D01*
X166844666Y-59973333D02*
X166911333Y-60006666D01*
X167044666Y-60006666D01*
X167111333Y-59973333D01*
X167144666Y-59906666D01*
X167144666Y-59873333D01*
X167111333Y-59806666D01*
X167044666Y-59773333D01*
X166944666Y-59773333D01*
X166878000Y-59740000D01*
X166844666Y-59673333D01*
X166844666Y-59640000D01*
X166878000Y-59573333D01*
X166944666Y-59540000D01*
X167044666Y-59540000D01*
X167111333Y-59573333D01*
X167344666Y-59540000D02*
X167611333Y-59540000D01*
X167444666Y-59306666D02*
X167444666Y-59906666D01*
X167478000Y-59973333D01*
X167544666Y-60006666D01*
X167611333Y-60006666D01*
X167944666Y-60006666D02*
X167878000Y-59973333D01*
X167844666Y-59940000D01*
X167811333Y-59873333D01*
X167811333Y-59673333D01*
X167844666Y-59606666D01*
X167878000Y-59573333D01*
X167944666Y-59540000D01*
X168044666Y-59540000D01*
X168111333Y-59573333D01*
X168144666Y-59606666D01*
X168178000Y-59673333D01*
X168178000Y-59873333D01*
X168144666Y-59940000D01*
X168111333Y-59973333D01*
X168044666Y-60006666D01*
X167944666Y-60006666D01*
X168478000Y-60006666D02*
X168478000Y-59540000D01*
X168478000Y-59673333D02*
X168511333Y-59606666D01*
X168544666Y-59573333D01*
X168611333Y-59540000D01*
X168678000Y-59540000D01*
X162486000Y-76516666D02*
X162252666Y-76183333D01*
X162086000Y-76516666D02*
X162086000Y-75816666D01*
X162352666Y-75816666D01*
X162419333Y-75850000D01*
X162452666Y-75883333D01*
X162486000Y-75950000D01*
X162486000Y-76050000D01*
X162452666Y-76116666D01*
X162419333Y-76150000D01*
X162352666Y-76183333D01*
X162086000Y-76183333D01*
X163152666Y-76516666D02*
X162752666Y-76516666D01*
X162952666Y-76516666D02*
X162952666Y-75816666D01*
X162886000Y-75916666D01*
X162819333Y-75983333D01*
X162752666Y-76016666D01*
X163586000Y-75816666D02*
X163652666Y-75816666D01*
X163719333Y-75850000D01*
X163752666Y-75883333D01*
X163786000Y-75950000D01*
X163819333Y-76083333D01*
X163819333Y-76250000D01*
X163786000Y-76383333D01*
X163752666Y-76450000D01*
X163719333Y-76483333D01*
X163652666Y-76516666D01*
X163586000Y-76516666D01*
X163519333Y-76483333D01*
X163486000Y-76450000D01*
X163452666Y-76383333D01*
X163419333Y-76250000D01*
X163419333Y-76083333D01*
X163452666Y-75950000D01*
X163486000Y-75883333D01*
X163519333Y-75850000D01*
X163586000Y-75816666D01*
X157731333Y-77828000D02*
X157731333Y-78294666D01*
X157564666Y-77561333D02*
X157398000Y-78061333D01*
X157831333Y-78061333D01*
X158031333Y-77594666D02*
X158498000Y-77594666D01*
X158198000Y-78294666D01*
X158898000Y-77594666D02*
X158964666Y-77594666D01*
X159031333Y-77628000D01*
X159064666Y-77661333D01*
X159098000Y-77728000D01*
X159131333Y-77861333D01*
X159131333Y-78028000D01*
X159098000Y-78161333D01*
X159064666Y-78228000D01*
X159031333Y-78261333D01*
X158964666Y-78294666D01*
X158898000Y-78294666D01*
X158831333Y-78261333D01*
X158798000Y-78228000D01*
X158764666Y-78161333D01*
X158731333Y-78028000D01*
X158731333Y-77861333D01*
X158764666Y-77728000D01*
X158798000Y-77661333D01*
X158831333Y-77628000D01*
X158898000Y-77594666D01*
X160264666Y-78294666D02*
X160264666Y-77928000D01*
X160231333Y-77861333D01*
X160164666Y-77828000D01*
X160031333Y-77828000D01*
X159964666Y-77861333D01*
X160264666Y-78261333D02*
X160198000Y-78294666D01*
X160031333Y-78294666D01*
X159964666Y-78261333D01*
X159931333Y-78194666D01*
X159931333Y-78128000D01*
X159964666Y-78061333D01*
X160031333Y-78028000D01*
X160198000Y-78028000D01*
X160264666Y-77994666D01*
X160498000Y-77828000D02*
X160764666Y-77828000D01*
X160598000Y-78294666D02*
X160598000Y-77694666D01*
X160631333Y-77628000D01*
X160698000Y-77594666D01*
X160764666Y-77594666D01*
X160898000Y-77828000D02*
X161164666Y-77828000D01*
X160998000Y-77594666D02*
X160998000Y-78194666D01*
X161031333Y-78261333D01*
X161098000Y-78294666D01*
X161164666Y-78294666D01*
X161664666Y-78261333D02*
X161598000Y-78294666D01*
X161464666Y-78294666D01*
X161398000Y-78261333D01*
X161364666Y-78194666D01*
X161364666Y-77928000D01*
X161398000Y-77861333D01*
X161464666Y-77828000D01*
X161598000Y-77828000D01*
X161664666Y-77861333D01*
X161698000Y-77928000D01*
X161698000Y-77994666D01*
X161364666Y-78061333D01*
X161998000Y-78294666D02*
X161998000Y-77828000D01*
X161998000Y-77961333D02*
X162031333Y-77894666D01*
X162064666Y-77861333D01*
X162131333Y-77828000D01*
X162198000Y-77828000D01*
X162964666Y-77828000D02*
X162964666Y-78528000D01*
X162964666Y-77861333D02*
X163031333Y-77828000D01*
X163164666Y-77828000D01*
X163231333Y-77861333D01*
X163264666Y-77894666D01*
X163298000Y-77961333D01*
X163298000Y-78161333D01*
X163264666Y-78228000D01*
X163231333Y-78261333D01*
X163164666Y-78294666D01*
X163031333Y-78294666D01*
X162964666Y-78261333D01*
X163698000Y-78294666D02*
X163631333Y-78261333D01*
X163598000Y-78228000D01*
X163564666Y-78161333D01*
X163564666Y-77961333D01*
X163598000Y-77894666D01*
X163631333Y-77861333D01*
X163698000Y-77828000D01*
X163798000Y-77828000D01*
X163864666Y-77861333D01*
X163898000Y-77894666D01*
X163931333Y-77961333D01*
X163931333Y-78161333D01*
X163898000Y-78228000D01*
X163864666Y-78261333D01*
X163798000Y-78294666D01*
X163698000Y-78294666D01*
X164131333Y-77828000D02*
X164398000Y-77828000D01*
X164231333Y-77594666D02*
X164231333Y-78194666D01*
X164264666Y-78261333D01*
X164331333Y-78294666D01*
X164398000Y-78294666D01*
X165264666Y-78294666D02*
X165198000Y-78261333D01*
X165164666Y-78228000D01*
X165131333Y-78161333D01*
X165131333Y-77961333D01*
X165164666Y-77894666D01*
X165198000Y-77861333D01*
X165264666Y-77828000D01*
X165364666Y-77828000D01*
X165431333Y-77861333D01*
X165464666Y-77894666D01*
X165498000Y-77961333D01*
X165498000Y-78161333D01*
X165464666Y-78228000D01*
X165431333Y-78261333D01*
X165364666Y-78294666D01*
X165264666Y-78294666D01*
X165798000Y-77828000D02*
X165798000Y-78294666D01*
X165798000Y-77894666D02*
X165831333Y-77861333D01*
X165898000Y-77828000D01*
X165998000Y-77828000D01*
X166064666Y-77861333D01*
X166098000Y-77928000D01*
X166098000Y-78294666D01*
X167064666Y-78294666D02*
X166998000Y-78261333D01*
X166964666Y-78228000D01*
X166931333Y-78161333D01*
X166931333Y-77961333D01*
X166964666Y-77894666D01*
X166998000Y-77861333D01*
X167064666Y-77828000D01*
X167164666Y-77828000D01*
X167231333Y-77861333D01*
X167264666Y-77894666D01*
X167298000Y-77961333D01*
X167298000Y-78161333D01*
X167264666Y-78228000D01*
X167231333Y-78261333D01*
X167164666Y-78294666D01*
X167064666Y-78294666D01*
X167898000Y-77828000D02*
X167898000Y-78294666D01*
X167598000Y-77828000D02*
X167598000Y-78194666D01*
X167631333Y-78261333D01*
X167698000Y-78294666D01*
X167798000Y-78294666D01*
X167864666Y-78261333D01*
X167898000Y-78228000D01*
X168131333Y-77828000D02*
X168398000Y-77828000D01*
X168231333Y-77594666D02*
X168231333Y-78194666D01*
X168264666Y-78261333D01*
X168331333Y-78294666D01*
X168398000Y-78294666D01*
X168631333Y-77828000D02*
X168631333Y-78528000D01*
X168631333Y-77861333D02*
X168698000Y-77828000D01*
X168831333Y-77828000D01*
X168898000Y-77861333D01*
X168931333Y-77894666D01*
X168964666Y-77961333D01*
X168964666Y-78161333D01*
X168931333Y-78228000D01*
X168898000Y-78261333D01*
X168831333Y-78294666D01*
X168698000Y-78294666D01*
X168631333Y-78261333D01*
X169564666Y-77828000D02*
X169564666Y-78294666D01*
X169264666Y-77828000D02*
X169264666Y-78194666D01*
X169298000Y-78261333D01*
X169364666Y-78294666D01*
X169464666Y-78294666D01*
X169531333Y-78261333D01*
X169564666Y-78228000D01*
X169798000Y-77828000D02*
X170064666Y-77828000D01*
X169898000Y-77594666D02*
X169898000Y-78194666D01*
X169931333Y-78261333D01*
X169998000Y-78294666D01*
X170064666Y-78294666D01*
X128972190Y-54986952D02*
X129376952Y-54986952D01*
X129424571Y-54963142D01*
X129448380Y-54939333D01*
X129472190Y-54891714D01*
X129472190Y-54796476D01*
X129448380Y-54748857D01*
X129424571Y-54725047D01*
X129376952Y-54701238D01*
X128972190Y-54701238D01*
X128972190Y-54510761D02*
X128972190Y-54201238D01*
X129162666Y-54367904D01*
X129162666Y-54296476D01*
X129186476Y-54248857D01*
X129210285Y-54225047D01*
X129257904Y-54201238D01*
X129376952Y-54201238D01*
X129424571Y-54225047D01*
X129448380Y-54248857D01*
X129472190Y-54296476D01*
X129472190Y-54439333D01*
X129448380Y-54486952D01*
X129424571Y-54510761D01*
X128962190Y-53479333D02*
X128962190Y-53146000D01*
X129462190Y-53360285D01*
X129176476Y-52884095D02*
X129152666Y-52931714D01*
X129128857Y-52955523D01*
X129081238Y-52979333D01*
X129057428Y-52979333D01*
X129009809Y-52955523D01*
X128986000Y-52931714D01*
X128962190Y-52884095D01*
X128962190Y-52788857D01*
X128986000Y-52741238D01*
X129009809Y-52717428D01*
X129057428Y-52693619D01*
X129081238Y-52693619D01*
X129128857Y-52717428D01*
X129152666Y-52741238D01*
X129176476Y-52788857D01*
X129176476Y-52884095D01*
X129200285Y-52931714D01*
X129224095Y-52955523D01*
X129271714Y-52979333D01*
X129366952Y-52979333D01*
X129414571Y-52955523D01*
X129438380Y-52931714D01*
X129462190Y-52884095D01*
X129462190Y-52788857D01*
X129438380Y-52741238D01*
X129414571Y-52717428D01*
X129366952Y-52693619D01*
X129271714Y-52693619D01*
X129224095Y-52717428D01*
X129200285Y-52741238D01*
X129176476Y-52788857D01*
X129462190Y-52241238D02*
X129462190Y-52479333D01*
X128962190Y-52479333D01*
X128962190Y-51979333D02*
X128962190Y-51931714D01*
X128986000Y-51884095D01*
X129009809Y-51860285D01*
X129057428Y-51836476D01*
X129152666Y-51812666D01*
X129271714Y-51812666D01*
X129366952Y-51836476D01*
X129414571Y-51860285D01*
X129438380Y-51884095D01*
X129462190Y-51931714D01*
X129462190Y-51979333D01*
X129438380Y-52026952D01*
X129414571Y-52050761D01*
X129366952Y-52074571D01*
X129271714Y-52098380D01*
X129152666Y-52098380D01*
X129057428Y-52074571D01*
X129009809Y-52050761D01*
X128986000Y-52026952D01*
X128962190Y-51979333D01*
X128962190Y-51360285D02*
X128962190Y-51598380D01*
X129200285Y-51622190D01*
X129176476Y-51598380D01*
X129152666Y-51550761D01*
X129152666Y-51431714D01*
X129176476Y-51384095D01*
X129200285Y-51360285D01*
X129247904Y-51336476D01*
X129366952Y-51336476D01*
X129414571Y-51360285D01*
X129438380Y-51384095D01*
X129462190Y-51431714D01*
X129462190Y-51550761D01*
X129438380Y-51598380D01*
X129414571Y-51622190D01*
D19*
X160572321Y-93532547D02*
X160572321Y-92326047D01*
X160859583Y-92326047D01*
X161031940Y-92383500D01*
X161146845Y-92498404D01*
X161204298Y-92613309D01*
X161261750Y-92843119D01*
X161261750Y-93015476D01*
X161204298Y-93245285D01*
X161146845Y-93360190D01*
X161031940Y-93475095D01*
X160859583Y-93532547D01*
X160572321Y-93532547D01*
X161778821Y-92900571D02*
X162180988Y-92900571D01*
X162353345Y-93532547D02*
X161778821Y-93532547D01*
X161778821Y-92326047D01*
X162353345Y-92326047D01*
X163559845Y-93417642D02*
X163502393Y-93475095D01*
X163330036Y-93532547D01*
X163215131Y-93532547D01*
X163042774Y-93475095D01*
X162927869Y-93360190D01*
X162870417Y-93245285D01*
X162812964Y-93015476D01*
X162812964Y-92843119D01*
X162870417Y-92613309D01*
X162927869Y-92498404D01*
X163042774Y-92383500D01*
X163215131Y-92326047D01*
X163330036Y-92326047D01*
X163502393Y-92383500D01*
X163559845Y-92440952D01*
X164019464Y-93187833D02*
X164593988Y-93187833D01*
X163904560Y-93532547D02*
X164306726Y-92326047D01*
X164708893Y-93532547D01*
X165340869Y-92958023D02*
X165340869Y-93532547D01*
X164938702Y-92326047D02*
X165340869Y-92958023D01*
X165743036Y-92326047D01*
X166777179Y-93532547D02*
X166087750Y-93532547D01*
X166432464Y-93532547D02*
X166432464Y-92326047D01*
X166317560Y-92498404D01*
X166202655Y-92613309D01*
X166087750Y-92670761D01*
X157924869Y-106727833D02*
X158499393Y-106727833D01*
X157809964Y-107072547D02*
X158212131Y-105866047D01*
X158614298Y-107072547D01*
X159648440Y-107072547D02*
X158959012Y-107072547D01*
X159303726Y-107072547D02*
X159303726Y-105866047D01*
X159188821Y-106038404D01*
X159073917Y-106153309D01*
X158959012Y-106210761D01*
X160395321Y-105866047D02*
X160510226Y-105866047D01*
X160625131Y-105923500D01*
X160682583Y-105980952D01*
X160740036Y-106095857D01*
X160797488Y-106325666D01*
X160797488Y-106612928D01*
X160740036Y-106842738D01*
X160682583Y-106957642D01*
X160625131Y-107015095D01*
X160510226Y-107072547D01*
X160395321Y-107072547D01*
X160280417Y-107015095D01*
X160222964Y-106957642D01*
X160165512Y-106842738D01*
X160108060Y-106612928D01*
X160108060Y-106325666D01*
X160165512Y-106095857D01*
X160222964Y-105980952D01*
X160280417Y-105923500D01*
X160395321Y-105866047D01*
X161544369Y-105866047D02*
X161659274Y-105866047D01*
X161774179Y-105923500D01*
X161831631Y-105980952D01*
X161889083Y-106095857D01*
X161946536Y-106325666D01*
X161946536Y-106612928D01*
X161889083Y-106842738D01*
X161831631Y-106957642D01*
X161774179Y-107015095D01*
X161659274Y-107072547D01*
X161544369Y-107072547D01*
X161429464Y-107015095D01*
X161372012Y-106957642D01*
X161314560Y-106842738D01*
X161257107Y-106612928D01*
X161257107Y-106325666D01*
X161314560Y-106095857D01*
X161372012Y-105980952D01*
X161429464Y-105923500D01*
X161544369Y-105866047D01*
X162463607Y-107072547D02*
X162463607Y-105866047D01*
X162578512Y-106612928D02*
X162923226Y-107072547D01*
X162923226Y-106268214D02*
X162463607Y-106727833D01*
X163440298Y-106612928D02*
X164359536Y-106612928D01*
X164876607Y-106727833D02*
X165451131Y-106727833D01*
X164761702Y-107072547D02*
X165163869Y-105866047D01*
X165566036Y-107072547D01*
X166600179Y-107072547D02*
X165910750Y-107072547D01*
X166255464Y-107072547D02*
X166255464Y-105866047D01*
X166140560Y-106038404D01*
X166025655Y-106153309D01*
X165910750Y-106210761D01*
X167117250Y-107072547D02*
X167117250Y-105866047D01*
X167519417Y-106727833D01*
X167921583Y-105866047D01*
X167921583Y-107072547D01*
X144942321Y-77972547D02*
X144942321Y-76766047D01*
X145401940Y-76766047D01*
X145516845Y-76823500D01*
X145574298Y-76880952D01*
X145631750Y-76995857D01*
X145631750Y-77168214D01*
X145574298Y-77283119D01*
X145516845Y-77340571D01*
X145401940Y-77398023D01*
X144942321Y-77398023D01*
X146148821Y-77972547D02*
X146148821Y-76766047D01*
X146550988Y-76766047D02*
X147240417Y-76766047D01*
X146895702Y-77972547D02*
X146895702Y-76766047D01*
X148332012Y-77857642D02*
X148274560Y-77915095D01*
X148102202Y-77972547D01*
X147987298Y-77972547D01*
X147814940Y-77915095D01*
X147700036Y-77800190D01*
X147642583Y-77685285D01*
X147585131Y-77455476D01*
X147585131Y-77283119D01*
X147642583Y-77053309D01*
X147700036Y-76938404D01*
X147814940Y-76823500D01*
X147987298Y-76766047D01*
X148102202Y-76766047D01*
X148274560Y-76823500D01*
X148332012Y-76880952D01*
X148849083Y-77972547D02*
X148849083Y-76766047D01*
X148849083Y-77340571D02*
X149538512Y-77340571D01*
X149538512Y-77972547D02*
X149538512Y-76766047D01*
X150745012Y-77972547D02*
X150055583Y-77972547D01*
X150400298Y-77972547D02*
X150400298Y-76766047D01*
X150285393Y-76938404D01*
X150170488Y-77053309D01*
X150055583Y-77110761D01*
D20*
X139877928Y-91030571D02*
X140050285Y-91088023D01*
X140107738Y-91145476D01*
X140165190Y-91260380D01*
X140165190Y-91432738D01*
X140107738Y-91547642D01*
X140050285Y-91605095D01*
X139935380Y-91662547D01*
X139475761Y-91662547D01*
X139475761Y-90456047D01*
X139877928Y-90456047D01*
X139992833Y-90513500D01*
X140050285Y-90570952D01*
X140107738Y-90685857D01*
X140107738Y-90800761D01*
X140050285Y-90915666D01*
X139992833Y-90973119D01*
X139877928Y-91030571D01*
X139475761Y-91030571D01*
X141256785Y-90456047D02*
X140682261Y-90456047D01*
X140624809Y-91030571D01*
X140682261Y-90973119D01*
X140797166Y-90915666D01*
X141084428Y-90915666D01*
X141199333Y-90973119D01*
X141256785Y-91030571D01*
X141314238Y-91145476D01*
X141314238Y-91432738D01*
X141256785Y-91547642D01*
X141199333Y-91605095D01*
X141084428Y-91662547D01*
X140797166Y-91662547D01*
X140682261Y-91605095D01*
X140624809Y-91547642D01*
X142061119Y-90456047D02*
X142176023Y-90456047D01*
X142290928Y-90513500D01*
X142348380Y-90570952D01*
X142405833Y-90685857D01*
X142463285Y-90915666D01*
X142463285Y-91202928D01*
X142405833Y-91432738D01*
X142348380Y-91547642D01*
X142290928Y-91605095D01*
X142176023Y-91662547D01*
X142061119Y-91662547D01*
X141946214Y-91605095D01*
X141888761Y-91547642D01*
X141831309Y-91432738D01*
X141773857Y-91202928D01*
X141773857Y-90915666D01*
X141831309Y-90685857D01*
X141888761Y-90570952D01*
X141946214Y-90513500D01*
X142061119Y-90456047D01*
X142980357Y-91662547D02*
X142980357Y-90456047D01*
X143095261Y-91202928D02*
X143439976Y-91662547D01*
X143439976Y-90858214D02*
X142980357Y-91317833D01*
X143957047Y-91202928D02*
X144876285Y-91202928D01*
X146197690Y-90858214D02*
X146657309Y-90858214D01*
X146370047Y-90456047D02*
X146370047Y-91490190D01*
X146427500Y-91605095D01*
X146542404Y-91662547D01*
X146657309Y-91662547D01*
X147059476Y-91662547D02*
X147059476Y-90858214D01*
X147059476Y-91088023D02*
X147116928Y-90973119D01*
X147174380Y-90915666D01*
X147289285Y-90858214D01*
X147404190Y-90858214D01*
X147691452Y-90858214D02*
X147978714Y-91662547D01*
X148265976Y-90858214D02*
X147978714Y-91662547D01*
X147863809Y-91949809D01*
X147806357Y-92007261D01*
X147691452Y-92064714D01*
X149529928Y-90858214D02*
X149759738Y-91662547D01*
X149989547Y-91088023D01*
X150219357Y-91662547D01*
X150449166Y-90858214D01*
X150908785Y-91662547D02*
X150908785Y-90858214D01*
X150908785Y-90456047D02*
X150851333Y-90513500D01*
X150908785Y-90570952D01*
X150966238Y-90513500D01*
X150908785Y-90456047D01*
X150908785Y-90570952D01*
X151310952Y-90858214D02*
X151770571Y-90858214D01*
X151483309Y-90456047D02*
X151483309Y-91490190D01*
X151540761Y-91605095D01*
X151655666Y-91662547D01*
X151770571Y-91662547D01*
X152172738Y-91662547D02*
X152172738Y-90456047D01*
X152689809Y-91662547D02*
X152689809Y-91030571D01*
X152632357Y-90915666D01*
X152517452Y-90858214D01*
X152345095Y-90858214D01*
X152230190Y-90915666D01*
X152172738Y-90973119D01*
X154126119Y-91317833D02*
X154700642Y-91317833D01*
X154011214Y-91662547D02*
X154413380Y-90456047D01*
X154815547Y-91662547D01*
X155849690Y-91662547D02*
X155160261Y-91662547D01*
X155504976Y-91662547D02*
X155504976Y-90456047D01*
X155390071Y-90628404D01*
X155275166Y-90743309D01*
X155160261Y-90800761D01*
X156596571Y-90456047D02*
X156711476Y-90456047D01*
X156826380Y-90513500D01*
X156883833Y-90570952D01*
X156941285Y-90685857D01*
X156998738Y-90915666D01*
X156998738Y-91202928D01*
X156941285Y-91432738D01*
X156883833Y-91547642D01*
X156826380Y-91605095D01*
X156711476Y-91662547D01*
X156596571Y-91662547D01*
X156481666Y-91605095D01*
X156424214Y-91547642D01*
X156366761Y-91432738D01*
X156309309Y-91202928D01*
X156309309Y-90915666D01*
X156366761Y-90685857D01*
X156424214Y-90570952D01*
X156481666Y-90513500D01*
X156596571Y-90456047D01*
X157745619Y-90456047D02*
X157860523Y-90456047D01*
X157975428Y-90513500D01*
X158032880Y-90570952D01*
X158090333Y-90685857D01*
X158147785Y-90915666D01*
X158147785Y-91202928D01*
X158090333Y-91432738D01*
X158032880Y-91547642D01*
X157975428Y-91605095D01*
X157860523Y-91662547D01*
X157745619Y-91662547D01*
X157630714Y-91605095D01*
X157573261Y-91547642D01*
X157515809Y-91432738D01*
X157458357Y-91202928D01*
X157458357Y-90915666D01*
X157515809Y-90685857D01*
X157573261Y-90570952D01*
X157630714Y-90513500D01*
X157745619Y-90456047D01*
X158664857Y-91662547D02*
X158664857Y-90456047D01*
X158779761Y-91202928D02*
X159124476Y-91662547D01*
X159124476Y-90858214D02*
X158664857Y-91317833D01*
D19*
X126884869Y-93685095D02*
X127057226Y-93742547D01*
X127344488Y-93742547D01*
X127459393Y-93685095D01*
X127516845Y-93627642D01*
X127574298Y-93512738D01*
X127574298Y-93397833D01*
X127516845Y-93282928D01*
X127459393Y-93225476D01*
X127344488Y-93168023D01*
X127114679Y-93110571D01*
X126999774Y-93053119D01*
X126942321Y-92995666D01*
X126884869Y-92880761D01*
X126884869Y-92765857D01*
X126942321Y-92650952D01*
X126999774Y-92593500D01*
X127114679Y-92536047D01*
X127401940Y-92536047D01*
X127574298Y-92593500D01*
X128091369Y-93110571D02*
X128493536Y-93110571D01*
X128665893Y-93742547D02*
X128091369Y-93742547D01*
X128091369Y-92536047D01*
X128665893Y-92536047D01*
X129182964Y-93742547D02*
X129182964Y-92536047D01*
X129872393Y-93742547D01*
X129872393Y-92536047D01*
X130389464Y-93685095D02*
X130561821Y-93742547D01*
X130849083Y-93742547D01*
X130963988Y-93685095D01*
X131021440Y-93627642D01*
X131078893Y-93512738D01*
X131078893Y-93397833D01*
X131021440Y-93282928D01*
X130963988Y-93225476D01*
X130849083Y-93168023D01*
X130619274Y-93110571D01*
X130504369Y-93053119D01*
X130446917Y-92995666D01*
X130389464Y-92880761D01*
X130389464Y-92765857D01*
X130446917Y-92650952D01*
X130504369Y-92593500D01*
X130619274Y-92536047D01*
X130906536Y-92536047D01*
X131078893Y-92593500D01*
X131595964Y-93110571D02*
X131998131Y-93110571D01*
X132170488Y-93742547D02*
X131595964Y-93742547D01*
X131595964Y-92536047D01*
X132170488Y-92536047D01*
X133549345Y-92478595D02*
X132515202Y-94029809D01*
X133894060Y-93685095D02*
X134066417Y-93742547D01*
X134353679Y-93742547D01*
X134468583Y-93685095D01*
X134526036Y-93627642D01*
X134583488Y-93512738D01*
X134583488Y-93397833D01*
X134526036Y-93282928D01*
X134468583Y-93225476D01*
X134353679Y-93168023D01*
X134123869Y-93110571D01*
X134008964Y-93053119D01*
X133951512Y-92995666D01*
X133894060Y-92880761D01*
X133894060Y-92765857D01*
X133951512Y-92650952D01*
X134008964Y-92593500D01*
X134123869Y-92536047D01*
X134411131Y-92536047D01*
X134583488Y-92593500D01*
X134928202Y-92536047D02*
X135617631Y-92536047D01*
X135272917Y-93742547D02*
X135272917Y-92536047D01*
X135962345Y-93397833D02*
X136536869Y-93397833D01*
X135847440Y-93742547D02*
X136249607Y-92536047D01*
X136651774Y-93742547D01*
X137743369Y-93742547D02*
X137341202Y-93168023D01*
X137053940Y-93742547D02*
X137053940Y-92536047D01*
X137513560Y-92536047D01*
X137628464Y-92593500D01*
X137685917Y-92650952D01*
X137743369Y-92765857D01*
X137743369Y-92938214D01*
X137685917Y-93053119D01*
X137628464Y-93110571D01*
X137513560Y-93168023D01*
X137053940Y-93168023D01*
X138088083Y-92536047D02*
X138490250Y-93742547D01*
X138892417Y-92536047D01*
X139294583Y-93110571D02*
X139696750Y-93110571D01*
X139869107Y-93742547D02*
X139294583Y-93742547D01*
X139294583Y-92536047D01*
X139869107Y-92536047D01*
X141018155Y-93742547D02*
X140328726Y-93742547D01*
X140673440Y-93742547D02*
X140673440Y-92536047D01*
X140558536Y-92708404D01*
X140443631Y-92823309D01*
X140328726Y-92880761D01*
X128464869Y-107017833D02*
X129039393Y-107017833D01*
X128349964Y-107362547D02*
X128752131Y-106156047D01*
X129154298Y-107362547D01*
X130188440Y-107362547D02*
X129499012Y-107362547D01*
X129843726Y-107362547D02*
X129843726Y-106156047D01*
X129728821Y-106328404D01*
X129613917Y-106443309D01*
X129499012Y-106500761D01*
X130935321Y-106156047D02*
X131050226Y-106156047D01*
X131165131Y-106213500D01*
X131222583Y-106270952D01*
X131280036Y-106385857D01*
X131337488Y-106615666D01*
X131337488Y-106902928D01*
X131280036Y-107132738D01*
X131222583Y-107247642D01*
X131165131Y-107305095D01*
X131050226Y-107362547D01*
X130935321Y-107362547D01*
X130820417Y-107305095D01*
X130762964Y-107247642D01*
X130705512Y-107132738D01*
X130648060Y-106902928D01*
X130648060Y-106615666D01*
X130705512Y-106385857D01*
X130762964Y-106270952D01*
X130820417Y-106213500D01*
X130935321Y-106156047D01*
X132084369Y-106156047D02*
X132199274Y-106156047D01*
X132314179Y-106213500D01*
X132371631Y-106270952D01*
X132429083Y-106385857D01*
X132486536Y-106615666D01*
X132486536Y-106902928D01*
X132429083Y-107132738D01*
X132371631Y-107247642D01*
X132314179Y-107305095D01*
X132199274Y-107362547D01*
X132084369Y-107362547D01*
X131969464Y-107305095D01*
X131912012Y-107247642D01*
X131854560Y-107132738D01*
X131797107Y-106902928D01*
X131797107Y-106615666D01*
X131854560Y-106385857D01*
X131912012Y-106270952D01*
X131969464Y-106213500D01*
X132084369Y-106156047D01*
X133003607Y-107362547D02*
X133003607Y-106156047D01*
X133118512Y-106902928D02*
X133463226Y-107362547D01*
X133463226Y-106558214D02*
X133003607Y-107017833D01*
X135071893Y-107362547D02*
X134956988Y-107305095D01*
X134899536Y-107247642D01*
X134842083Y-107132738D01*
X134842083Y-106788023D01*
X134899536Y-106673119D01*
X134956988Y-106615666D01*
X135071893Y-106558214D01*
X135244250Y-106558214D01*
X135359155Y-106615666D01*
X135416607Y-106673119D01*
X135474060Y-106788023D01*
X135474060Y-107132738D01*
X135416607Y-107247642D01*
X135359155Y-107305095D01*
X135244250Y-107362547D01*
X135071893Y-107362547D01*
X135991131Y-107362547D02*
X135991131Y-106558214D01*
X135991131Y-106788023D02*
X136048583Y-106673119D01*
X136106036Y-106615666D01*
X136220940Y-106558214D01*
X136335845Y-106558214D01*
X137657250Y-107362547D02*
X137657250Y-106156047D01*
X137657250Y-106615666D02*
X137772155Y-106558214D01*
X138001964Y-106558214D01*
X138116869Y-106615666D01*
X138174321Y-106673119D01*
X138231774Y-106788023D01*
X138231774Y-107132738D01*
X138174321Y-107247642D01*
X138116869Y-107305095D01*
X138001964Y-107362547D01*
X137772155Y-107362547D01*
X137657250Y-107305095D01*
X138748845Y-107362547D02*
X138748845Y-106558214D01*
X138748845Y-106156047D02*
X138691393Y-106213500D01*
X138748845Y-106270952D01*
X138806298Y-106213500D01*
X138748845Y-106156047D01*
X138748845Y-106270952D01*
X139840440Y-106558214D02*
X139840440Y-107534904D01*
X139782988Y-107649809D01*
X139725536Y-107707261D01*
X139610631Y-107764714D01*
X139438274Y-107764714D01*
X139323369Y-107707261D01*
X139840440Y-107305095D02*
X139725536Y-107362547D01*
X139495726Y-107362547D01*
X139380821Y-107305095D01*
X139323369Y-107247642D01*
X139265917Y-107132738D01*
X139265917Y-106788023D01*
X139323369Y-106673119D01*
X139380821Y-106615666D01*
X139495726Y-106558214D01*
X139725536Y-106558214D01*
X139840440Y-106615666D01*
X140932036Y-106558214D02*
X140932036Y-107534904D01*
X140874583Y-107649809D01*
X140817131Y-107707261D01*
X140702226Y-107764714D01*
X140529869Y-107764714D01*
X140414964Y-107707261D01*
X140932036Y-107305095D02*
X140817131Y-107362547D01*
X140587321Y-107362547D01*
X140472417Y-107305095D01*
X140414964Y-107247642D01*
X140357512Y-107132738D01*
X140357512Y-106788023D01*
X140414964Y-106673119D01*
X140472417Y-106615666D01*
X140587321Y-106558214D01*
X140817131Y-106558214D01*
X140932036Y-106615666D01*
X141966179Y-107305095D02*
X141851274Y-107362547D01*
X141621464Y-107362547D01*
X141506560Y-107305095D01*
X141449107Y-107190190D01*
X141449107Y-106730571D01*
X141506560Y-106615666D01*
X141621464Y-106558214D01*
X141851274Y-106558214D01*
X141966179Y-106615666D01*
X142023631Y-106730571D01*
X142023631Y-106845476D01*
X141449107Y-106960380D01*
X142540702Y-107362547D02*
X142540702Y-106558214D01*
X142540702Y-106788023D02*
X142598155Y-106673119D01*
X142655607Y-106615666D01*
X142770512Y-106558214D01*
X142885417Y-106558214D01*
D10*
X154903380Y-116567928D02*
X154903380Y-116377452D01*
X154951000Y-116282214D01*
X155046238Y-116186976D01*
X155236714Y-116139357D01*
X155570047Y-116139357D01*
X155760523Y-116186976D01*
X155855761Y-116282214D01*
X155903380Y-116377452D01*
X155903380Y-116567928D01*
X155855761Y-116663166D01*
X155760523Y-116758404D01*
X155570047Y-116806023D01*
X155236714Y-116806023D01*
X155046238Y-116758404D01*
X154951000Y-116663166D01*
X154903380Y-116567928D01*
X155855761Y-115758404D02*
X155903380Y-115663166D01*
X155903380Y-115472690D01*
X155855761Y-115377452D01*
X155760523Y-115329833D01*
X155712904Y-115329833D01*
X155617666Y-115377452D01*
X155570047Y-115472690D01*
X155570047Y-115615547D01*
X155522428Y-115710785D01*
X155427190Y-115758404D01*
X155379571Y-115758404D01*
X155284333Y-115710785D01*
X155236714Y-115615547D01*
X155236714Y-115472690D01*
X155284333Y-115377452D01*
X155855761Y-114472690D02*
X155903380Y-114567928D01*
X155903380Y-114758404D01*
X155855761Y-114853642D01*
X155808142Y-114901261D01*
X155712904Y-114948880D01*
X155427190Y-114948880D01*
X155331952Y-114901261D01*
X155284333Y-114853642D01*
X155236714Y-114758404D01*
X155236714Y-114567928D01*
X155284333Y-114472690D01*
X155998619Y-114282214D02*
X155998619Y-113520309D01*
X155855761Y-113329833D02*
X155903380Y-113186976D01*
X155903380Y-112948880D01*
X155855761Y-112853642D01*
X155808142Y-112806023D01*
X155712904Y-112758404D01*
X155617666Y-112758404D01*
X155522428Y-112806023D01*
X155474809Y-112853642D01*
X155427190Y-112948880D01*
X155379571Y-113139357D01*
X155331952Y-113234595D01*
X155284333Y-113282214D01*
X155189095Y-113329833D01*
X155093857Y-113329833D01*
X154998619Y-113282214D01*
X154951000Y-113234595D01*
X154903380Y-113139357D01*
X154903380Y-112901261D01*
X154951000Y-112758404D01*
X155855761Y-111948880D02*
X155903380Y-112044119D01*
X155903380Y-112234595D01*
X155855761Y-112329833D01*
X155760523Y-112377452D01*
X155379571Y-112377452D01*
X155284333Y-112329833D01*
X155236714Y-112234595D01*
X155236714Y-112044119D01*
X155284333Y-111948880D01*
X155379571Y-111901261D01*
X155474809Y-111901261D01*
X155570047Y-112377452D01*
X155903380Y-111329833D02*
X155855761Y-111425071D01*
X155760523Y-111472690D01*
X154903380Y-111472690D01*
X155855761Y-110567928D02*
X155903380Y-110663166D01*
X155903380Y-110853642D01*
X155855761Y-110948880D01*
X155760523Y-110996500D01*
X155379571Y-110996500D01*
X155284333Y-110948880D01*
X155236714Y-110853642D01*
X155236714Y-110663166D01*
X155284333Y-110567928D01*
X155379571Y-110520309D01*
X155474809Y-110520309D01*
X155570047Y-110996500D01*
X155855761Y-109663166D02*
X155903380Y-109758404D01*
X155903380Y-109948880D01*
X155855761Y-110044119D01*
X155808142Y-110091738D01*
X155712904Y-110139357D01*
X155427190Y-110139357D01*
X155331952Y-110091738D01*
X155284333Y-110044119D01*
X155236714Y-109948880D01*
X155236714Y-109758404D01*
X155284333Y-109663166D01*
X155236714Y-109377452D02*
X155236714Y-108996500D01*
X154903380Y-109234595D02*
X155760523Y-109234595D01*
X155855761Y-109186976D01*
X155903380Y-109091738D01*
X155903380Y-108996500D01*
X155903380Y-108139357D02*
X155903380Y-108710785D01*
X155903380Y-108425071D02*
X154903380Y-108425071D01*
X155046238Y-108520309D01*
X155141476Y-108615547D01*
X155189095Y-108710785D01*
X170940761Y-116104023D02*
X170988380Y-115961166D01*
X170988380Y-115723071D01*
X170940761Y-115627833D01*
X170893142Y-115580214D01*
X170797904Y-115532595D01*
X170702666Y-115532595D01*
X170607428Y-115580214D01*
X170559809Y-115627833D01*
X170512190Y-115723071D01*
X170464571Y-115913547D01*
X170416952Y-116008785D01*
X170369333Y-116056404D01*
X170274095Y-116104023D01*
X170178857Y-116104023D01*
X170083619Y-116056404D01*
X170036000Y-116008785D01*
X169988380Y-115913547D01*
X169988380Y-115675452D01*
X170036000Y-115532595D01*
X170988380Y-115104023D02*
X169988380Y-115104023D01*
X169988380Y-114723071D01*
X170036000Y-114627833D01*
X170083619Y-114580214D01*
X170178857Y-114532595D01*
X170321714Y-114532595D01*
X170416952Y-114580214D01*
X170464571Y-114627833D01*
X170512190Y-114723071D01*
X170512190Y-115104023D01*
X170988380Y-114104023D02*
X169988380Y-114104023D01*
X169988380Y-113865928D01*
X170036000Y-113723071D01*
X170131238Y-113627833D01*
X170226476Y-113580214D01*
X170416952Y-113532595D01*
X170559809Y-113532595D01*
X170750285Y-113580214D01*
X170845523Y-113627833D01*
X170940761Y-113723071D01*
X170988380Y-113865928D01*
X170988380Y-114104023D01*
X169988380Y-113246880D02*
X169988380Y-112675452D01*
X170988380Y-112961166D02*
X169988380Y-112961166D01*
X171083619Y-112580214D02*
X171083619Y-111818309D01*
X170940761Y-111627833D02*
X170988380Y-111532595D01*
X170988380Y-111342119D01*
X170940761Y-111246880D01*
X170845523Y-111199261D01*
X170797904Y-111199261D01*
X170702666Y-111246880D01*
X170655047Y-111342119D01*
X170655047Y-111484976D01*
X170607428Y-111580214D01*
X170512190Y-111627833D01*
X170464571Y-111627833D01*
X170369333Y-111580214D01*
X170321714Y-111484976D01*
X170321714Y-111342119D01*
X170369333Y-111246880D01*
X170988380Y-110770690D02*
X170321714Y-110770690D01*
X170416952Y-110770690D02*
X170369333Y-110723071D01*
X170321714Y-110627833D01*
X170321714Y-110484976D01*
X170369333Y-110389738D01*
X170464571Y-110342119D01*
X170988380Y-110342119D01*
X170464571Y-110342119D02*
X170369333Y-110294500D01*
X170321714Y-110199261D01*
X170321714Y-110056404D01*
X170369333Y-109961166D01*
X170464571Y-109913547D01*
X170988380Y-109913547D01*
X170988380Y-109008785D02*
X170464571Y-109008785D01*
X170369333Y-109056404D01*
X170321714Y-109151642D01*
X170321714Y-109342119D01*
X170369333Y-109437357D01*
X170940761Y-109008785D02*
X170988380Y-109104023D01*
X170988380Y-109342119D01*
X170940761Y-109437357D01*
X170845523Y-109484976D01*
X170750285Y-109484976D01*
X170655047Y-109437357D01*
X170607428Y-109342119D01*
X170607428Y-109104023D01*
X170559809Y-109008785D01*
X170988380Y-108389738D02*
X170940761Y-108484976D01*
X170845523Y-108532595D01*
X169988380Y-108532595D01*
X170988380Y-107865928D02*
X170940761Y-107961166D01*
X170845523Y-108008785D01*
X169988380Y-108008785D01*
X139873380Y-70032404D02*
X138873380Y-70032404D01*
X138873380Y-69651452D01*
X138921000Y-69556214D01*
X138968619Y-69508595D01*
X139063857Y-69460976D01*
X139206714Y-69460976D01*
X139301952Y-69508595D01*
X139349571Y-69556214D01*
X139397190Y-69651452D01*
X139397190Y-70032404D01*
X138873380Y-69127642D02*
X139873380Y-68889547D01*
X139159095Y-68699071D01*
X139873380Y-68508595D01*
X138873380Y-68270500D01*
X139873380Y-67318119D02*
X139397190Y-67651452D01*
X139873380Y-67889547D02*
X138873380Y-67889547D01*
X138873380Y-67508595D01*
X138921000Y-67413357D01*
X138968619Y-67365738D01*
X139063857Y-67318119D01*
X139206714Y-67318119D01*
X139301952Y-67365738D01*
X139349571Y-67413357D01*
X139397190Y-67508595D01*
X139397190Y-67889547D01*
X138968619Y-66937166D02*
X138921000Y-66889547D01*
X138873380Y-66794309D01*
X138873380Y-66556214D01*
X138921000Y-66460976D01*
X138968619Y-66413357D01*
X139063857Y-66365738D01*
X139159095Y-66365738D01*
X139301952Y-66413357D01*
X139873380Y-66984785D01*
X139873380Y-66365738D01*
X130693976Y-67764761D02*
X130836833Y-67812380D01*
X131074928Y-67812380D01*
X131170166Y-67764761D01*
X131217785Y-67717142D01*
X131265404Y-67621904D01*
X131265404Y-67526666D01*
X131217785Y-67431428D01*
X131170166Y-67383809D01*
X131074928Y-67336190D01*
X130884452Y-67288571D01*
X130789214Y-67240952D01*
X130741595Y-67193333D01*
X130693976Y-67098095D01*
X130693976Y-67002857D01*
X130741595Y-66907619D01*
X130789214Y-66860000D01*
X130884452Y-66812380D01*
X131122547Y-66812380D01*
X131265404Y-66860000D01*
X131693976Y-67812380D02*
X131693976Y-66812380D01*
X132074928Y-66812380D01*
X132170166Y-66860000D01*
X132217785Y-66907619D01*
X132265404Y-67002857D01*
X132265404Y-67145714D01*
X132217785Y-67240952D01*
X132170166Y-67288571D01*
X132074928Y-67336190D01*
X131693976Y-67336190D01*
X132646357Y-67764761D02*
X132789214Y-67812380D01*
X133027309Y-67812380D01*
X133122547Y-67764761D01*
X133170166Y-67717142D01*
X133217785Y-67621904D01*
X133217785Y-67526666D01*
X133170166Y-67431428D01*
X133122547Y-67383809D01*
X133027309Y-67336190D01*
X132836833Y-67288571D01*
X132741595Y-67240952D01*
X132693976Y-67193333D01*
X132646357Y-67098095D01*
X132646357Y-67002857D01*
X132693976Y-66907619D01*
X132741595Y-66860000D01*
X132836833Y-66812380D01*
X133074928Y-66812380D01*
X133217785Y-66860000D01*
X133503500Y-66812380D02*
X134074928Y-66812380D01*
X133789214Y-67812380D02*
X133789214Y-66812380D01*
X134170166Y-67907619D02*
X134932071Y-67907619D01*
X135122547Y-67764761D02*
X135217785Y-67812380D01*
X135408261Y-67812380D01*
X135503500Y-67764761D01*
X135551119Y-67669523D01*
X135551119Y-67621904D01*
X135503500Y-67526666D01*
X135408261Y-67479047D01*
X135265404Y-67479047D01*
X135170166Y-67431428D01*
X135122547Y-67336190D01*
X135122547Y-67288571D01*
X135170166Y-67193333D01*
X135265404Y-67145714D01*
X135408261Y-67145714D01*
X135503500Y-67193333D01*
X135979690Y-67812380D02*
X135979690Y-67145714D01*
X135979690Y-67240952D02*
X136027309Y-67193333D01*
X136122547Y-67145714D01*
X136265404Y-67145714D01*
X136360642Y-67193333D01*
X136408261Y-67288571D01*
X136408261Y-67812380D01*
X136408261Y-67288571D02*
X136455880Y-67193333D01*
X136551119Y-67145714D01*
X136693976Y-67145714D01*
X136789214Y-67193333D01*
X136836833Y-67288571D01*
X136836833Y-67812380D01*
X137741595Y-67812380D02*
X137741595Y-67288571D01*
X137693976Y-67193333D01*
X137598738Y-67145714D01*
X137408261Y-67145714D01*
X137313023Y-67193333D01*
X137741595Y-67764761D02*
X137646357Y-67812380D01*
X137408261Y-67812380D01*
X137313023Y-67764761D01*
X137265404Y-67669523D01*
X137265404Y-67574285D01*
X137313023Y-67479047D01*
X137408261Y-67431428D01*
X137646357Y-67431428D01*
X137741595Y-67383809D01*
X138360642Y-67812380D02*
X138265404Y-67764761D01*
X138217785Y-67669523D01*
X138217785Y-66812380D01*
X138884452Y-67812380D02*
X138789214Y-67764761D01*
X138741595Y-67669523D01*
X138741595Y-66812380D01*
M02*
