%TF.GenerationSoftware,KiCad,Pcbnew,(2017-09-01 revision 8d1475135)-makepkg*%
%TF.CreationDate,2017-12-27T16:35:41-08:00*%
%TF.ProjectId,workshop_drum1,776F726B73686F705F6472756D312E6B,rev?*%
%TF.SameCoordinates,Original*%
%TF.FileFunction,Copper,L1,Top,Signal*%
%TF.FilePolarity,Positive*%
%FSLAX46Y46*%
G04 Gerber Fmt 4.6, Leading zero omitted, Abs format (unit mm)*
G04 Created by KiCad (PCBNEW (2017-09-01 revision 8d1475135)-makepkg) date 12/27/17 16:35:41*
%MOMM*%
%LPD*%
G01*
G04 APERTURE LIST*
%TA.AperFunction,ComponentPad*%
%ADD10O,1.600000X1.600000*%
%TD*%
%TA.AperFunction,ComponentPad*%
%ADD11C,1.600000*%
%TD*%
%TA.AperFunction,ComponentPad*%
%ADD12R,1.600000X1.600000*%
%TD*%
%TA.AperFunction,ComponentPad*%
%ADD13C,1.524000*%
%TD*%
%TA.AperFunction,ComponentPad*%
%ADD14O,1.800000X1.800000*%
%TD*%
%TA.AperFunction,ComponentPad*%
%ADD15R,1.800000X1.800000*%
%TD*%
%TA.AperFunction,ComponentPad*%
%ADD16C,1.397000*%
%TD*%
%TA.AperFunction,ComponentPad*%
%ADD17R,1.000000X1.000000*%
%TD*%
%TA.AperFunction,ComponentPad*%
%ADD18C,1.000000*%
%TD*%
%TA.AperFunction,ViaPad*%
%ADD19C,0.800000*%
%TD*%
%TA.AperFunction,Conductor*%
%ADD20C,0.250000*%
%TD*%
G04 APERTURE END LIST*
D10*
%TO.P,EnvelopeAndVoltageStarve1,1*%
%TO.N,Net-(EnvelopeAndVoltageStarve1-Pad1)*%
X49149000Y6387030D03*
X49149000Y8927030D03*
X49149000Y11467030D03*
X49149000Y3847030D03*
%TD*%
D11*
%TO.P,C2,2*%
%TO.N,GND*%
X17780000Y26075000D03*
D12*
%TO.P,C2,1*%
%TO.N,Net-(C2-Pad1)*%
X17780000Y28575000D03*
%TD*%
D10*
%TO.P,PathToSwitch1,1*%
%TO.N,Net-(Osc_Select1-Pad3)*%
X44932600Y8890000D03*
X44932600Y11430000D03*
X44932600Y13970000D03*
X44932600Y6350000D03*
%TD*%
%TO.P,IN1,1*%
%TO.N,Net-(IN1-Pad1)*%
X26771600Y13970000D03*
X26771600Y6350000D03*
X26771600Y8890000D03*
X26771600Y11430000D03*
%TD*%
%TO.P,IN2,1*%
%TO.N,Net-(IN2-Pad1)*%
X31851600Y11430000D03*
X31851600Y8890000D03*
X31851600Y6350000D03*
X31851600Y13970000D03*
%TD*%
%TO.P,IN3,1*%
%TO.N,Net-(IN3-Pad1)*%
X36931600Y13970000D03*
X36931600Y6350000D03*
X36931600Y8890000D03*
X36931600Y11430000D03*
%TD*%
%TO.P,OUT1,1*%
%TO.N,Net-(OUT1-Pad1)*%
X29311600Y11430000D03*
X29311600Y8890000D03*
X29311600Y6350000D03*
X29311600Y13970000D03*
%TD*%
%TO.P,OUT2,1*%
%TO.N,Net-(OUT2-Pad1)*%
X34391600Y13970000D03*
X34391600Y6350000D03*
X34391600Y8890000D03*
X34391600Y11430000D03*
%TD*%
%TO.P,OUT3,1*%
%TO.N,Net-(OUT3-Pad1)*%
X39471600Y11430000D03*
X39471600Y8890000D03*
X39471600Y6350000D03*
X39471600Y13970000D03*
%TD*%
%TO.P,GND1,1*%
%TO.N,Net-(GND1-Pad1)*%
X42011600Y11430000D03*
X42011600Y8890000D03*
X42011600Y6350000D03*
X42011600Y13970000D03*
%TD*%
%TO.P,GND2,1*%
%TO.N,Net-(GND1-Pad1)*%
X29311600Y2057400D03*
X31851600Y2057400D03*
X34391600Y2057400D03*
X26771600Y2057400D03*
X36931600Y2057400D03*
X42011600Y2057400D03*
X39471600Y2057400D03*
%TD*%
D13*
%TO.P,ON/OFF_LED1,*%
%TO.N,*%
X60325000Y15240000D03*
X60325000Y17780000D03*
%TO.P,ON/OFF_LED1,1*%
%TO.N,Net-(ON/OFF_LED1-Pad1)*%
X58420000Y15240000D03*
%TO.P,ON/OFF_LED1,2*%
%TO.N,Net-(D1-Pad2)*%
X58420000Y17780000D03*
%TD*%
%TO.P,Trig_LED1,2*%
%TO.N,Net-(Trig_LED1-Pad2)*%
X3810000Y15240000D03*
%TO.P,Trig_LED1,1*%
%TO.N,Net-(R8-Pad2)*%
X3810000Y17780000D03*
%TO.P,Trig_LED1,*%
%TO.N,*%
X1905000Y15240000D03*
X1905000Y17780000D03*
%TD*%
D11*
%TO.P,C5,1*%
%TO.N,Net-(C5-Pad1)*%
X49530000Y36258500D03*
%TO.P,C5,2*%
%TO.N,Net-(C5-Pad2)*%
X44530000Y36258500D03*
%TD*%
%TO.P,C4,2*%
%TO.N,GND*%
X17780000Y4485000D03*
D12*
%TO.P,C4,1*%
%TO.N,Net-(C4-Pad1)*%
X17780000Y6985000D03*
%TD*%
%TO.P,C1,1*%
%TO.N,Net-(C1-Pad1)*%
X57785000Y29845000D03*
D11*
%TO.P,C1,2*%
%TO.N,GND*%
X57785000Y27345000D03*
%TD*%
D12*
%TO.P,C3,1*%
%TO.N,+5V*%
X48260000Y29845000D03*
D11*
%TO.P,C3,2*%
%TO.N,GND*%
X48260000Y27345000D03*
%TD*%
D14*
%TO.P,D2,2*%
%TO.N,Net-(D2-Pad2)*%
X13970000Y35560000D03*
D15*
%TO.P,D2,1*%
%TO.N,Net-(C2-Pad1)*%
X21590000Y35560000D03*
%TD*%
%TO.P,D1,1*%
%TO.N,Net-(C1-Pad1)*%
X52705000Y22225000D03*
D14*
%TO.P,D1,2*%
%TO.N,Net-(D1-Pad2)*%
X60325000Y22225000D03*
%TD*%
D16*
%TO.P,R8,2*%
%TO.N,Net-(R8-Pad2)*%
X1905000Y26670000D03*
%TO.P,R8,1*%
%TO.N,GND*%
X9525000Y26670000D03*
%TD*%
%TO.P,R7,1*%
%TO.N,Net-(C5-Pad1)*%
X51879500Y36258500D03*
%TO.P,R7,2*%
%TO.N,Net-(J3-Pad1)*%
X59499500Y36258500D03*
%TD*%
%TO.P,R6,2*%
%TO.N,Net-(PITCH1-Pad1)*%
X32385000Y31115000D03*
%TO.P,R6,1*%
%TO.N,Net-(C4-Pad1)*%
X24765000Y31115000D03*
%TD*%
%TO.P,R5,1*%
%TO.N,Net-(DECAY1-Pad2)*%
X32385000Y35560000D03*
%TO.P,R5,2*%
%TO.N,Net-(C2-Pad1)*%
X24765000Y35560000D03*
%TD*%
%TO.P,R4,2*%
%TO.N,Net-(R2-Pad1)*%
X1905000Y35560000D03*
%TO.P,R4,1*%
%TO.N,Net-(D2-Pad2)*%
X9525000Y35560000D03*
%TD*%
%TO.P,R3,1*%
%TO.N,Net-(ON/OFF_LED1-Pad1)*%
X53975000Y10160000D03*
%TO.P,R3,2*%
%TO.N,GND*%
X53975000Y2540000D03*
%TD*%
%TO.P,R2,2*%
%TO.N,GND*%
X9525000Y31115000D03*
%TO.P,R2,1*%
%TO.N,Net-(R2-Pad1)*%
X1905000Y31115000D03*
%TD*%
%TO.P,R1,1*%
%TO.N,Net-(J2-Pad1)*%
X9525000Y22225000D03*
%TO.P,R1,2*%
%TO.N,Net-(Button_ON1-Pad1)*%
X1905000Y22225000D03*
%TD*%
D17*
%TO.P,U3,1*%
%TO.N,Net-(C1-Pad1)*%
X50800000Y17780000D03*
D18*
%TO.P,U3,3*%
%TO.N,+5V*%
X50800000Y15240000D03*
%TO.P,U3,2*%
%TO.N,GND*%
X52070000Y16510000D03*
%TD*%
D13*
%TO.P,J1,1*%
%TO.N,Net-(J1-Pad1)*%
X58420000Y5080000D03*
%TO.P,J1,2*%
%TO.N,GND*%
X58420000Y2540000D03*
%TO.P,J1,*%
%TO.N,*%
X60325000Y5080000D03*
X60325000Y2540000D03*
%TD*%
%TO.P,J2,*%
%TO.N,*%
X5016500Y42545000D03*
X2476500Y42545000D03*
%TO.P,J2,2*%
%TO.N,GND*%
X5016500Y40640000D03*
%TO.P,J2,1*%
%TO.N,Net-(J2-Pad1)*%
X2476500Y40640000D03*
%TD*%
%TO.P,J3,1*%
%TO.N,Net-(J3-Pad1)*%
X57150000Y40640000D03*
%TO.P,J3,2*%
%TO.N,GND*%
X59690000Y40640000D03*
%TO.P,J3,*%
%TO.N,*%
X57150000Y42545000D03*
X59690000Y42545000D03*
%TD*%
%TO.P,DECAY1,*%
%TO.N,*%
X25400000Y42545000D03*
X22860000Y42545000D03*
%TO.P,DECAY1,2*%
%TO.N,Net-(DECAY1-Pad2)*%
X25400000Y40640000D03*
%TO.P,DECAY1,1*%
%TO.N,GND*%
X22860000Y40640000D03*
%TO.P,DECAY1,3*%
%TO.N,Net-(DECAY1-Pad2)*%
X27940000Y40640000D03*
%TO.P,DECAY1,*%
%TO.N,*%
X27940000Y42545000D03*
%TD*%
%TO.P,PITCH1,*%
%TO.N,*%
X39306500Y42545000D03*
%TO.P,PITCH1,3*%
%TO.N,Net-(Osc_Select1-Pad1)*%
X39306500Y40640000D03*
%TO.P,PITCH1,1*%
%TO.N,Net-(PITCH1-Pad1)*%
X34226500Y40640000D03*
%TO.P,PITCH1,2*%
X36766500Y40640000D03*
%TO.P,PITCH1,*%
%TO.N,*%
X34226500Y42545000D03*
X36766500Y42545000D03*
%TD*%
%TO.P,SENSE/STARVE1,*%
%TO.N,*%
X13970000Y42545000D03*
X11430000Y42545000D03*
%TO.P,SENSE/STARVE1,2*%
%TO.N,Net-(SENSE/STARVE1-Pad2)*%
X13970000Y40640000D03*
%TO.P,SENSE/STARVE1,1*%
%TO.N,Net-(J2-Pad1)*%
X11430000Y40640000D03*
%TO.P,SENSE/STARVE1,3*%
%TO.N,GND*%
X16510000Y40640000D03*
%TO.P,SENSE/STARVE1,*%
%TO.N,*%
X16510000Y42545000D03*
%TD*%
%TO.P,Osc_Select1,*%
%TO.N,*%
X48196500Y42545000D03*
X45656500Y42545000D03*
%TO.P,Osc_Select1,2*%
%TO.N,Net-(C5-Pad2)*%
X48196500Y40640000D03*
%TO.P,Osc_Select1,1*%
%TO.N,Net-(Osc_Select1-Pad1)*%
X45656500Y40640000D03*
%TO.P,Osc_Select1,3*%
%TO.N,Net-(Osc_Select1-Pad3)*%
X50736500Y40640000D03*
%TO.P,Osc_Select1,*%
%TO.N,*%
X50736500Y42545000D03*
%TD*%
%TO.P,Button_ON1,1*%
%TO.N,Net-(Button_ON1-Pad1)*%
X3810000Y2540000D03*
%TO.P,Button_ON1,2*%
%TO.N,+5V*%
X3810000Y5080000D03*
%TO.P,Button_ON1,*%
%TO.N,*%
X1905000Y2540000D03*
X1905000Y5080000D03*
%TD*%
%TO.P,PWR2,*%
%TO.N,*%
X60325000Y8890000D03*
X60325000Y11430000D03*
%TO.P,PWR2,2*%
%TO.N,Net-(J1-Pad1)*%
X58420000Y8890000D03*
%TO.P,PWR2,1*%
%TO.N,Net-(D1-Pad2)*%
X58420000Y11430000D03*
%TD*%
%TO.P,Switch_On1,1*%
%TO.N,Net-(Button_ON1-Pad1)*%
X3810000Y8890000D03*
%TO.P,Switch_On1,2*%
%TO.N,+5V*%
X3810000Y11430000D03*
%TO.P,Switch_On1,*%
%TO.N,*%
X1905000Y8890000D03*
X1905000Y11430000D03*
%TD*%
D10*
%TO.P,U2,14*%
%TO.N,Net-(EnvelopeAndVoltageStarve1-Pad1)*%
X26771600Y25654000D03*
%TO.P,U2,7*%
%TO.N,Net-(GND1-Pad1)*%
X42011600Y18034000D03*
%TO.P,U2,13*%
%TO.N,Net-(U2-Pad13)*%
X29311600Y25654000D03*
%TO.P,U2,6*%
%TO.N,Net-(OUT3-Pad1)*%
X39471600Y18034000D03*
%TO.P,U2,12*%
%TO.N,Net-(U2-Pad12)*%
X31851600Y25654000D03*
%TO.P,U2,5*%
%TO.N,Net-(IN3-Pad1)*%
X36931600Y18034000D03*
%TO.P,U2,11*%
%TO.N,Net-(C4-Pad1)*%
X34391600Y25654000D03*
%TO.P,U2,4*%
%TO.N,Net-(OUT2-Pad1)*%
X34391600Y18034000D03*
%TO.P,U2,10*%
%TO.N,Net-(Osc_Select1-Pad1)*%
X36931600Y25654000D03*
%TO.P,U2,3*%
%TO.N,Net-(IN2-Pad1)*%
X31851600Y18034000D03*
%TO.P,U2,9*%
%TO.N,GND*%
X39471600Y25654000D03*
%TO.P,U2,2*%
%TO.N,Net-(OUT1-Pad1)*%
X29311600Y18034000D03*
%TO.P,U2,8*%
%TO.N,Net-(Trig_LED1-Pad2)*%
X42011600Y25654000D03*
D12*
%TO.P,U2,1*%
%TO.N,Net-(IN1-Pad1)*%
X26771600Y18034000D03*
%TD*%
%TO.P,U1,1*%
%TO.N,Net-(D2-Pad2)*%
X13970000Y20320000D03*
D10*
%TO.P,U1,5*%
%TO.N,Net-(C2-Pad1)*%
X21590000Y12700000D03*
%TO.P,U1,2*%
%TO.N,Net-(R2-Pad1)*%
X13970000Y17780000D03*
%TO.P,U1,6*%
%TO.N,Net-(EnvelopeAndVoltageStarve1-Pad1)*%
X21590000Y15240000D03*
%TO.P,U1,3*%
%TO.N,Net-(SENSE/STARVE1-Pad2)*%
X13970000Y15240000D03*
%TO.P,U1,7*%
%TO.N,Net-(EnvelopeAndVoltageStarve1-Pad1)*%
X21590000Y17780000D03*
%TO.P,U1,4*%
%TO.N,GND*%
X13970000Y12700000D03*
%TO.P,U1,8*%
%TO.N,+5V*%
X21590000Y20320000D03*
%TD*%
D19*
%TO.N,Net-(EnvelopeAndVoltageStarve1-Pad1)*%
X26670000Y21336000D03*
X49022000Y21336000D03*
X23368000Y25654000D03*
X23368000Y17780000D03*
%TO.N,Net-(Button_ON1-Pad1)*%
X6096000Y8890000D03*
X6096000Y2540000D03*
X6096000Y22098000D03*
%TO.N,+5V*%
X46228000Y29972000D03*
X46482000Y15240000D03*
X46228000Y20320000D03*
X24638000Y20320000D03*
X24638000Y11430000D03*
%TO.N,Net-(J2-Pad1)*%
X11430000Y38608000D03*
X2540000Y38608000D03*
X11430000Y22098000D03*
%TO.N,GND*%
X52070000Y2540000D03*
X48260000Y16510000D03*
X17780000Y12700000D03*
X13970000Y4572000D03*
X16510000Y37592000D03*
X5016500Y37592000D03*
X5080000Y30988000D03*
%TO.N,Net-(DECAY1-Pad2)*%
X27940000Y35560000D03*
%TO.N,Net-(C1-Pad1)*%
X52832000Y29718000D03*
%TO.N,Net-(R2-Pad1)*%
X7112000Y35560000D03*
X7112000Y17780000D03*
%TO.N,Net-(ON/OFF_LED1-Pad1)*%
X54102000Y14986000D03*
%TO.N,Net-(C2-Pad1)*%
X19812000Y28448000D03*
X19812000Y12700000D03*
X17780000Y35560000D03*
%TO.N,Net-(C4-Pad1)*%
X16764000Y22352000D03*
X24892000Y22352000D03*
X34290000Y29464000D03*
%TO.N,Net-(R8-Pad2)*%
X3810000Y26670000D03*
%TO.N,Net-(Trig_LED1-Pad2)*%
X41910000Y23114000D03*
X12700000Y23114000D03*
X11430000Y15240000D03*
%TD*%
D20*
%TO.N,Net-(GND1-Pad1)*%
X29311600Y2057400D02*
X26771600Y2057400D01*
X31851600Y2057400D02*
X29311600Y2057400D01*
X34391600Y2057400D02*
X31851600Y2057400D01*
X36931600Y2057400D02*
X34391600Y2057400D01*
X39471600Y2057400D02*
X36931600Y2057400D01*
X42011600Y2057400D02*
X40880230Y2057400D01*
X40880230Y2057400D02*
X39471600Y2057400D01*
X42011600Y6350000D02*
X42011600Y2057400D01*
X42011600Y8890000D02*
X42011600Y7758630D01*
X42011600Y7758630D02*
X42011600Y6350000D01*
X42011600Y11430000D02*
X42011600Y8890000D01*
X42011600Y13970000D02*
X42011600Y12838630D01*
X42011600Y12838630D02*
X42011600Y11430000D01*
X42011600Y18034000D02*
X42011600Y13970000D01*
%TO.N,Net-(D1-Pad2)*%
X58420000Y17780000D02*
X57342370Y17780000D01*
X57342370Y17780000D02*
X56388000Y16825630D01*
X56388000Y16825630D02*
X56388000Y13462000D01*
X56388000Y13462000D02*
X57658001Y12191999D01*
X57658001Y12191999D02*
X58420000Y11430000D01*
%TO.N,Net-(Osc_Select1-Pad1)*%
X39306500Y40640000D02*
X39306500Y32956500D01*
X39306500Y32956500D02*
X36931600Y30581600D01*
X36931600Y30581600D02*
X36931600Y25654000D01*
%TO.N,Net-(SENSE/STARVE1-Pad2)*%
X13970000Y40640000D02*
X13970000Y38100000D01*
X13970000Y38100000D02*
X15748000Y36322000D01*
X15748000Y36322000D02*
X15748000Y17018000D01*
X15748000Y17018000D02*
X14769999Y16039999D01*
X14769999Y16039999D02*
X13970000Y15240000D01*
%TO.N,Net-(Osc_Select1-Pad3)*%
X44932600Y13970000D02*
X44932600Y33756600D01*
X47752000Y36576000D02*
X47752000Y37655500D01*
X44932600Y33756600D02*
X47752000Y36576000D01*
X47752000Y37655500D02*
X50736500Y40640000D01*
%TO.N,Net-(EnvelopeAndVoltageStarve1-Pad1)*%
X26670000Y21336000D02*
X26670000Y25552400D01*
X26670000Y25552400D02*
X26771600Y25654000D01*
X49149000Y11328400D02*
X49149000Y21209000D01*
X49149000Y21209000D02*
X49022000Y21336000D01*
X23368000Y17780000D02*
X23368000Y25654000D01*
X21590000Y17780000D02*
X21590000Y15240000D01*
X49149000Y3708400D02*
X49149000Y6248400D01*
X49149000Y8788400D02*
X49149000Y7657030D01*
X49149000Y7657030D02*
X49149000Y6248400D01*
X49149000Y11328400D02*
X49149000Y10197030D01*
X49149000Y10197030D02*
X49149000Y8788400D01*
%TO.N,Net-(Button_ON1-Pad1)*%
X6096000Y22098000D02*
X6096000Y8890000D01*
X6096000Y8890000D02*
X6096000Y2540000D01*
%TO.N,+5V*%
X46228000Y20320000D02*
X46228000Y29972000D01*
X46228000Y20320000D02*
X46228000Y15494000D01*
X46228000Y15494000D02*
X46482000Y15240000D01*
X24638000Y11430000D02*
X24638000Y20320000D01*
X3810000Y5080000D02*
X4572000Y5080000D01*
X4572000Y5080000D02*
X5334000Y5842000D01*
X5334000Y5842000D02*
X5334000Y10668000D01*
X5334000Y10668000D02*
X4572000Y11430000D01*
X4572000Y11430000D02*
X3810000Y11430000D01*
%TO.N,Net-(J1-Pad1)*%
X58420000Y8890000D02*
X58420000Y5080000D01*
%TO.N,Net-(D1-Pad2)*%
X58420000Y17780000D02*
X58420000Y20320000D01*
X58420000Y20320000D02*
X60325000Y22225000D01*
%TO.N,Net-(C5-Pad2)*%
X48196500Y40640000D02*
X44530000Y36973500D01*
X44530000Y36973500D02*
X44530000Y36258500D01*
%TO.N,Net-(J2-Pad1)*%
X11430000Y40640000D02*
X11430000Y38608000D01*
X11430000Y38608000D02*
X11430000Y22098000D01*
X2476500Y38671500D02*
X2540000Y38608000D01*
X2476500Y40640000D02*
X2476500Y38671500D01*
%TO.N,GND*%
X52070000Y16510000D02*
X52070000Y2540000D01*
X48260000Y16510000D02*
X48260000Y27345000D01*
X61214000Y39116000D02*
X61214000Y30774000D01*
X61214000Y30774000D02*
X57785000Y27345000D01*
X59690000Y40640000D02*
X61214000Y39116000D01*
X17780000Y26075000D02*
X17780000Y12700000D01*
X13970000Y12700000D02*
X13970000Y4572000D01*
X16510000Y40640000D02*
X16510000Y37592000D01*
X5016500Y40640000D02*
X5016500Y37592000D01*
X5016500Y37592000D02*
X5016500Y31051500D01*
X9525000Y26670000D02*
X9525000Y31115000D01*
X5016500Y31051500D02*
X5080000Y30988000D01*
%TO.N,Net-(PITCH1-Pad1)*%
X34226500Y40640000D02*
X34226500Y32956500D01*
X34226500Y32956500D02*
X32385000Y31115000D01*
%TO.N,Net-(DECAY1-Pad2)*%
X27940000Y40640000D02*
X27940000Y35560000D01*
%TO.N,Net-(J3-Pad1)*%
X59499500Y36258500D02*
X59499500Y38290500D01*
X59499500Y38290500D02*
X57150000Y40640000D01*
%TO.N,Net-(C1-Pad1)*%
X52705000Y22225000D02*
X52705000Y29591000D01*
X52705000Y29591000D02*
X52832000Y29718000D01*
X50800000Y18542000D02*
X52705000Y20447000D01*
X52705000Y20447000D02*
X52705000Y22225000D01*
X50800000Y17780000D02*
X50800000Y18542000D01*
%TO.N,Net-(R2-Pad1)*%
X7112000Y17780000D02*
X7112000Y35560000D01*
X1905000Y35560000D02*
X1905000Y34572172D01*
X1905000Y34572172D02*
X1905000Y31115000D01*
%TO.N,Net-(ON/OFF_LED1-Pad1)*%
X54102000Y14986000D02*
X54102000Y10287000D01*
X54102000Y10287000D02*
X53975000Y10160000D01*
%TO.N,Net-(D2-Pad2)*%
X13970000Y20320000D02*
X13970000Y35560000D01*
%TO.N,Net-(C2-Pad1)*%
X19812000Y12700000D02*
X19812000Y28448000D01*
X17780000Y35560000D02*
X17780000Y28575000D01*
%TO.N,Net-(C4-Pad1)*%
X16764000Y22352000D02*
X16764000Y11938000D01*
X16764000Y11938000D02*
X17780000Y10922000D01*
X17780000Y10922000D02*
X17780000Y6985000D01*
X24765000Y31115000D02*
X24765000Y22479000D01*
X24765000Y22479000D02*
X24892000Y22352000D01*
X34391600Y25654000D02*
X34391600Y29362400D01*
X34391600Y29362400D02*
X34290000Y29464000D01*
%TO.N,Net-(R8-Pad2)*%
X3810000Y17780000D02*
X3810000Y26670000D01*
%TO.N,Net-(Trig_LED1-Pad2)*%
X41910000Y23114000D02*
X41910000Y25552400D01*
X41910000Y25552400D02*
X42011600Y25654000D01*
X12700000Y22098000D02*
X12700000Y23114000D01*
X11430000Y20828000D02*
X12700000Y22098000D01*
X11430000Y15240000D02*
X11430000Y20828000D01*
%TO.N,Net-(IN3-Pad1)*%
X36931600Y8890000D02*
X36931600Y6350000D01*
X36931600Y11430000D02*
X36931600Y10298630D01*
X36931600Y10298630D02*
X36931600Y8890000D01*
X36931600Y13970000D02*
X36931600Y12838630D01*
X36931600Y12838630D02*
X36931600Y11430000D01*
X36931600Y18034000D02*
X36931600Y16902630D01*
X36931600Y16902630D02*
X36931600Y13970000D01*
%TO.N,Net-(IN2-Pad1)*%
X31851600Y8890000D02*
X31851600Y6350000D01*
X31851600Y11430000D02*
X31851600Y8890000D01*
X31851600Y13970000D02*
X31851600Y12838630D01*
X31851600Y12838630D02*
X31851600Y11430000D01*
X31851600Y18034000D02*
X31851600Y13970000D01*
%TO.N,Net-(IN1-Pad1)*%
X26771600Y13970000D02*
X26771600Y15101370D01*
X26771600Y15101370D02*
X26771600Y18034000D01*
X26771600Y8890000D02*
X26771600Y7758630D01*
X26771600Y7758630D02*
X26771600Y6350000D01*
X26771600Y11430000D02*
X26771600Y10298630D01*
X26771600Y10298630D02*
X26771600Y8890000D01*
X26771600Y13970000D02*
X26771600Y11430000D01*
%TO.N,Net-(OUT1-Pad1)*%
X29311600Y8890000D02*
X29311600Y7758630D01*
X29311600Y7758630D02*
X29311600Y6350000D01*
X29311600Y8890000D02*
X29311600Y11430000D01*
X29311600Y13970000D02*
X29311600Y12838630D01*
X29311600Y12838630D02*
X29311600Y11430000D01*
X29311600Y18034000D02*
X29311600Y13970000D01*
%TO.N,Net-(OUT2-Pad1)*%
X34391600Y13970000D02*
X34391600Y18034000D01*
X34391600Y11430000D02*
X34391600Y12561370D01*
X34391600Y12561370D02*
X34391600Y13970000D01*
X34391600Y8890000D02*
X34391600Y11430000D01*
X34391600Y6350000D02*
X34391600Y8890000D01*
%TO.N,Net-(OUT3-Pad1)*%
X39471600Y13970000D02*
X39471600Y15101370D01*
X39471600Y15101370D02*
X39471600Y18034000D01*
X39471600Y11430000D02*
X39471600Y13970000D01*
X39471600Y8890000D02*
X39471600Y11430000D01*
X39471600Y6350000D02*
X39471600Y7481370D01*
X39471600Y7481370D02*
X39471600Y8890000D01*
%TO.N,Net-(Osc_Select1-Pad3)*%
X44932600Y11430000D02*
X44932600Y13970000D01*
X44932600Y8890000D02*
X44932600Y11430000D01*
X44932600Y6350000D02*
X44932600Y8890000D01*
%TD*%
M02*
