G04 #@! TF.GenerationSoftware,KiCad,Pcbnew,(5.0.0-rc2-dev-311-g1dd4af297)*
G04 #@! TF.CreationDate,2018-03-30T01:51:19-07:00*
G04 #@! TF.ProjectId,workshop_drum1.1,776F726B73686F705F6472756D312E31,rev?*
G04 #@! TF.SameCoordinates,Original*
G04 #@! TF.FileFunction,Copper,L2,Bot,Signal*
G04 #@! TF.FilePolarity,Positive*
%FSLAX46Y46*%
G04 Gerber Fmt 4.6, Leading zero omitted, Abs format (unit mm)*
G04 Created by KiCad (PCBNEW (5.0.0-rc2-dev-311-g1dd4af297)) date 03/30/18 01:51:19*
%MOMM*%
%LPD*%
G01*
G04 APERTURE LIST*
%ADD10C,1.600000*%
%ADD11O,1.600000X1.600000*%
%ADD12C,1.700000*%
%ADD13C,1.397000*%
%ADD14R,1.600000X1.600000*%
%ADD15R,1.800000X1.800000*%
%ADD16C,1.800000*%
%ADD17O,1.800000X1.800000*%
%ADD18R,1.000000X1.000000*%
%ADD19C,1.000000*%
%ADD20C,2.667000*%
%ADD21C,1.803400*%
%ADD22C,3.100000*%
%ADD23C,0.800000*%
%ADD24C,0.250000*%
G04 APERTURE END LIST*
D10*
X148590000Y-121285000D03*
X148590000Y-113665000D03*
D11*
X167640000Y-149860000D03*
X128270000Y-149860000D03*
X133985000Y-149860000D03*
X139700000Y-149860000D03*
X145415000Y-149860000D03*
X151130000Y-149860000D03*
X133985000Y-143510000D03*
X133985000Y-133985000D03*
X133985000Y-140335000D03*
X133985000Y-146685000D03*
X133985000Y-137160000D03*
X128270000Y-133985000D03*
X128270000Y-146685000D03*
X128270000Y-143510000D03*
X128270000Y-140335000D03*
X128270000Y-137160000D03*
X145415000Y-143510000D03*
X145415000Y-133985000D03*
X139700000Y-137160000D03*
X145415000Y-146685000D03*
X139700000Y-133985000D03*
X145415000Y-137160000D03*
X139700000Y-146685000D03*
X139700000Y-143510000D03*
X145415000Y-140335000D03*
X139700000Y-140335000D03*
X151130000Y-146685000D03*
X151130000Y-133985000D03*
X151130000Y-143510000D03*
X151130000Y-140335000D03*
X156845000Y-143510000D03*
X156845000Y-146685000D03*
X156845000Y-137160000D03*
X156845000Y-133985000D03*
X156845000Y-140335000D03*
X151130000Y-137160000D03*
X162560000Y-149860000D03*
X156845000Y-149860000D03*
D10*
X135890000Y-121285000D03*
X138430000Y-121285000D03*
X140970000Y-121285000D03*
X143510000Y-121285000D03*
X146050000Y-121285000D03*
X151130000Y-121285000D03*
X135890000Y-113665000D03*
X138430000Y-113665000D03*
X140970000Y-113665000D03*
X143510000Y-113665000D03*
X146050000Y-113665000D03*
X151130000Y-113665000D03*
D12*
X127436000Y-43670000D03*
X127436000Y-41130000D03*
X124896000Y-41130000D03*
X124896000Y-43670000D03*
X149206000Y-40130000D03*
X146666000Y-40130000D03*
X146666000Y-42670000D03*
X149206000Y-42670000D03*
X170942000Y-43670000D03*
X170942000Y-41130000D03*
X168402000Y-41130000D03*
X168402000Y-43670000D03*
D13*
X159126000Y-71882000D03*
X166746000Y-71882000D03*
D14*
X144126000Y-103710000D03*
D11*
X151746000Y-96090000D03*
X146666000Y-103710000D03*
X149206000Y-96090000D03*
X149206000Y-103710000D03*
X146666000Y-96090000D03*
X151746000Y-103710000D03*
X144126000Y-96090000D03*
D12*
X127254000Y-65024000D03*
X127254000Y-62484000D03*
X124714000Y-62484000D03*
X124714000Y-65024000D03*
D11*
X167640000Y-134112000D03*
X167640000Y-143637000D03*
X167640000Y-137287000D03*
D10*
X167640000Y-140462000D03*
D11*
X167640000Y-146812000D03*
D15*
X127436000Y-124400000D03*
D16*
X127436000Y-121860000D03*
X160528000Y-121860000D03*
D15*
X160528000Y-124400000D03*
D10*
X160274000Y-42418000D03*
X155274000Y-42418000D03*
X137436000Y-57912000D03*
D14*
X134936000Y-57912000D03*
X147936000Y-53340000D03*
D10*
X150436000Y-53340000D03*
X137436000Y-48768000D03*
D14*
X134936000Y-48768000D03*
X147936000Y-66548000D03*
D10*
X150436000Y-66548000D03*
D17*
X136398000Y-87122000D03*
D15*
X128778000Y-87122000D03*
X128778000Y-82296000D03*
D17*
X136398000Y-82296000D03*
D13*
X170688000Y-123444000D03*
X170688000Y-131064000D03*
X159126000Y-48768000D03*
X166746000Y-48768000D03*
X166746000Y-67056000D03*
X159126000Y-67056000D03*
X166746000Y-62738000D03*
X159126000Y-62738000D03*
X166746000Y-80772000D03*
X159126000Y-80772000D03*
X125476000Y-117602000D03*
X125476000Y-109982000D03*
X159126000Y-85344000D03*
X166746000Y-85344000D03*
X166746000Y-53340000D03*
X159126000Y-53340000D03*
X159126000Y-57912000D03*
X166746000Y-57912000D03*
X166746000Y-76200000D03*
X159126000Y-76200000D03*
D18*
X126746000Y-54356000D03*
D19*
X126746000Y-51816000D03*
X125476000Y-53086000D03*
D20*
X167330363Y-97401843D03*
X158541963Y-97401843D03*
D21*
X160396163Y-104412243D03*
X162936163Y-104412243D03*
X165476163Y-104412243D03*
X150114163Y-88800243D03*
X147574163Y-88800243D03*
X145034163Y-88800243D03*
D20*
X143179963Y-81789843D03*
X151968363Y-81789843D03*
X137330363Y-97401843D03*
X128541963Y-97401843D03*
D21*
X130396163Y-104412243D03*
X132936163Y-104412243D03*
X135476163Y-104412243D03*
D22*
X167636000Y-115062000D03*
X162936000Y-115062000D03*
X158236000Y-115062000D03*
X132936000Y-72400000D03*
X137636000Y-72400000D03*
D23*
X127296000Y-72410000D03*
X140256000Y-82300000D03*
X140216000Y-107380000D03*
X127416000Y-107500000D03*
X156006000Y-109700000D03*
X162814000Y-109728000D03*
X162466000Y-131064000D03*
X161206000Y-85340000D03*
X155250990Y-85230000D03*
X155250990Y-66570000D03*
X137406000Y-41160000D03*
X154156000Y-88860000D03*
X154156000Y-76340000D03*
X164866000Y-86960000D03*
X142476000Y-43610000D03*
X159671153Y-93040000D03*
X130026002Y-60190000D03*
X132056000Y-87160000D03*
X170426000Y-112090000D03*
X153336000Y-42970000D03*
X153566000Y-53230000D03*
X145126002Y-45720000D03*
X126736000Y-48780000D03*
X134946002Y-45860000D03*
X149926000Y-109990000D03*
X150436000Y-49670000D03*
X125526000Y-104550000D03*
X137436000Y-53070000D03*
X152166000Y-41020000D03*
X151746000Y-100060000D03*
X132896000Y-100090000D03*
X135196000Y-94250000D03*
X163346000Y-94250000D03*
X142406000Y-57940000D03*
X128778000Y-57820000D03*
X128746000Y-54360000D03*
X166786000Y-92030000D03*
X149166000Y-91780000D03*
X136336000Y-92880000D03*
X146666000Y-93030000D03*
X148016000Y-60150000D03*
X132055998Y-101610000D03*
X149236000Y-101610000D03*
X141336000Y-66550000D03*
X135936000Y-108640000D03*
X144196000Y-108570000D03*
D24*
X127254000Y-72368000D02*
X127296000Y-72410000D01*
X127254000Y-65024000D02*
X127254000Y-72368000D01*
X140216000Y-82340000D02*
X140256000Y-82300000D01*
X140216000Y-107380000D02*
X140216000Y-82340000D01*
X127436000Y-107520000D02*
X127416000Y-107500000D01*
X127436000Y-121860000D02*
X127436000Y-107520000D01*
X136398000Y-82296000D02*
X136398000Y-73638000D01*
X136398000Y-73638000D02*
X137636000Y-72400000D01*
X155274000Y-43549370D02*
X155996000Y-44271370D01*
X155274000Y-42418000D02*
X155274000Y-43549370D01*
X155996000Y-44271370D02*
X155996000Y-109124315D01*
X155996000Y-109124315D02*
X156006000Y-109134315D01*
X156006000Y-109134315D02*
X156006000Y-109700000D01*
X162814000Y-109728000D02*
X162814000Y-114940000D01*
X162814000Y-114940000D02*
X162936000Y-115062000D01*
X158236000Y-100660000D02*
X156606000Y-99030000D01*
X158236000Y-115062000D02*
X158236000Y-100660000D01*
X156606000Y-99030000D02*
X156606000Y-74402000D01*
X156606000Y-74402000D02*
X159126000Y-71882000D01*
X145126002Y-45720000D02*
X146666000Y-44180002D01*
X146666000Y-44180002D02*
X146666000Y-42670000D01*
X149926000Y-107190000D02*
X151746000Y-105370000D01*
X149926000Y-109990000D02*
X149926000Y-107190000D01*
X151746000Y-105370000D02*
X151746000Y-103710000D01*
X148590000Y-112316000D02*
X149926000Y-110980000D01*
X148590000Y-113665000D02*
X148590000Y-112316000D01*
X149926000Y-110980000D02*
X149926000Y-109990000D01*
X162466000Y-131064000D02*
X170688000Y-131064000D01*
X160396163Y-99939837D02*
X161206000Y-99130000D01*
X160396163Y-104412243D02*
X160396163Y-99939837D01*
X161206000Y-99130000D02*
X161206000Y-85905685D01*
X161206000Y-85905685D02*
X161206000Y-85340000D01*
X155250990Y-67135685D02*
X155250990Y-85230000D01*
X155250990Y-66570000D02*
X155250990Y-67135685D01*
X137406000Y-41160000D02*
X137406000Y-48738000D01*
X154156000Y-76340000D02*
X154156000Y-88860000D01*
X164866000Y-68936000D02*
X164866000Y-86960000D01*
X166746000Y-67056000D02*
X164866000Y-68936000D01*
X162034464Y-65646464D02*
X162034464Y-103510544D01*
X159126000Y-62738000D02*
X162034464Y-65646464D01*
X162034464Y-103510544D02*
X162936163Y-104412243D01*
X160528000Y-124400000D02*
X169732000Y-124400000D01*
X169732000Y-124400000D02*
X170688000Y-123444000D01*
X142406000Y-43680000D02*
X142476000Y-43610000D01*
X146666000Y-42400000D02*
X146666001Y-43602082D01*
X160416000Y-82062000D02*
X160416000Y-86980000D01*
X159126000Y-80772000D02*
X160416000Y-82062000D01*
X160416000Y-86980000D02*
X159671153Y-87724847D01*
X159671153Y-87724847D02*
X159671153Y-93040000D01*
X132056000Y-76850000D02*
X130026002Y-74820002D01*
X132056000Y-87160000D02*
X132056000Y-76850000D01*
X130026002Y-74820002D02*
X130026002Y-60755685D01*
X130026002Y-60755685D02*
X130026002Y-60190000D01*
X132056000Y-87160000D02*
X132056000Y-101609998D01*
X132056000Y-101609998D02*
X132055998Y-101610000D01*
X170506000Y-112010000D02*
X170426000Y-112090000D01*
X170506000Y-79960000D02*
X170506000Y-112010000D01*
X166746000Y-76200000D02*
X170506000Y-79960000D01*
X153566000Y-53230000D02*
X153566000Y-43200000D01*
X153566000Y-43200000D02*
X153336000Y-42970000D01*
X144126000Y-91330000D02*
X143326001Y-90530001D01*
X144126000Y-96090000D02*
X144126000Y-91330000D01*
X143326001Y-90530001D02*
X143326001Y-86529999D01*
X143326001Y-86529999D02*
X145126002Y-84729998D01*
X145126002Y-84729998D02*
X145126002Y-46285685D01*
X145126002Y-46285685D02*
X145126002Y-45720000D01*
X126746000Y-48790000D02*
X126736000Y-48780000D01*
X126746000Y-51816000D02*
X126746000Y-48790000D01*
X134936000Y-45870002D02*
X134946002Y-45860000D01*
X134936000Y-48768000D02*
X134936000Y-45870002D01*
X152166000Y-44850000D02*
X150436000Y-46580000D01*
X152166000Y-41020000D02*
X152166000Y-44850000D01*
X150436000Y-46580000D02*
X150436000Y-49670000D01*
X137406000Y-48738000D02*
X137436000Y-48768000D01*
X127254000Y-59568000D02*
X125476000Y-57790000D01*
X127254000Y-62484000D02*
X127254000Y-59568000D01*
X125476000Y-57790000D02*
X125476000Y-53086000D01*
X159126000Y-85344000D02*
X159010000Y-85344000D01*
X125526000Y-104550000D02*
X125526000Y-109932000D01*
X125526000Y-109932000D02*
X125476000Y-109982000D01*
X137436000Y-48768000D02*
X137436000Y-49899370D01*
X137436000Y-49899370D02*
X137436000Y-53070000D01*
X137436000Y-57912000D02*
X137436000Y-56780630D01*
X137436000Y-56780630D02*
X137436000Y-53070000D01*
X150436000Y-49670000D02*
X150436000Y-53340000D01*
X150436000Y-66548000D02*
X150436000Y-53340000D01*
X151746000Y-96090000D02*
X151746000Y-100060000D01*
X132896000Y-100090000D02*
X132896000Y-104372080D01*
X132896000Y-104372080D02*
X132936163Y-104412243D01*
X135196000Y-94250000D02*
X135196000Y-104132080D01*
X135196000Y-104132080D02*
X135476163Y-104412243D01*
X163346000Y-61312000D02*
X163346000Y-94250000D01*
X166746000Y-57912000D02*
X163346000Y-61312000D01*
X166878000Y-57912000D02*
X166878000Y-56924172D01*
X166878000Y-56924172D02*
X166878000Y-53340000D01*
X166878000Y-48768000D02*
X166878000Y-45194000D01*
X166878000Y-45194000D02*
X168402000Y-43670000D01*
X142406000Y-57940000D02*
X142406000Y-43680000D01*
X128778000Y-57820000D02*
X128778000Y-54392000D01*
X128778000Y-82296000D02*
X128778000Y-57820000D01*
X128778000Y-54392000D02*
X128746000Y-54360000D01*
X166786000Y-92030000D02*
X166786000Y-85384000D01*
X166786000Y-85384000D02*
X166746000Y-85344000D01*
X149206000Y-91820000D02*
X149166000Y-91780000D01*
X149206000Y-96090000D02*
X149206000Y-91820000D01*
X166746000Y-85344000D02*
X166746000Y-84356172D01*
X166746000Y-84356172D02*
X166746000Y-80772000D01*
X136336000Y-92880000D02*
X136336000Y-87184000D01*
X136336000Y-87184000D02*
X136398000Y-87122000D01*
X146666000Y-96090000D02*
X146666000Y-93030000D01*
X147936000Y-60070000D02*
X148016000Y-60150000D01*
X147936000Y-53340000D02*
X147936000Y-60070000D01*
X149206000Y-101640000D02*
X149236000Y-101610000D01*
X149206000Y-103710000D02*
X149206000Y-101640000D01*
X141336000Y-110030000D02*
X143510000Y-112204000D01*
X141336000Y-66550000D02*
X141336000Y-110030000D01*
X143510000Y-112204000D02*
X143510000Y-113665000D01*
X159258000Y-48768000D02*
X159258000Y-43434000D01*
X159258000Y-43434000D02*
X160274000Y-42418000D01*
X166746000Y-76200000D02*
X166746000Y-71882000D01*
X135936000Y-108640000D02*
X135936000Y-113619000D01*
X135936000Y-113619000D02*
X135890000Y-113665000D01*
X144126000Y-108500000D02*
X144196000Y-108570000D01*
X144126000Y-103710000D02*
X144126000Y-108500000D01*
M02*
