%FSLAX45Y45*%
G04 Gerber Fmt 4.5, Leading zero omitted, Abs format (unit mm)*
G04 Created by KiCad (PCBNEW (2017-09-01 revision 8d1475135)-makepkg) date 12/27/17 16:40:33*
%MOMM*%
%LPD*%
G01*
G04 APERTURE LIST*
%ADD10C,0.150000*%
%ADD11C,0.200000*%
%ADD12C,0.300000*%
G04 APERTURE END LIST*
D10*
X0Y0D02*
X6223000Y0D01*
X6223000Y4500000D02*
X6223000Y0D01*
X0Y4500000D02*
X6223000Y4500000D01*
X0Y0D02*
X0Y4500000D01*
D11*
X234000Y3880800D02*
X274000Y3840800D01*
X274000Y3880800D02*
X234000Y3840800D01*
X361000Y2687000D02*
X401000Y2647000D01*
X401000Y2687000D02*
X361000Y2647000D01*
X481650Y3779200D02*
X521650Y3739200D01*
X521650Y3779200D02*
X481650Y3739200D01*
X488000Y3118800D02*
X528000Y3078800D01*
X528000Y3118800D02*
X488000Y3078800D01*
X589600Y2229800D02*
X629600Y2189800D01*
X629600Y2229800D02*
X589600Y2189800D01*
X589600Y909000D02*
X629600Y869000D01*
X629600Y909000D02*
X589600Y869000D01*
X589600Y274000D02*
X629600Y234000D01*
X629600Y274000D02*
X589600Y234000D01*
X691200Y3576000D02*
X731200Y3536000D01*
X731200Y3576000D02*
X691200Y3536000D01*
X691200Y1798000D02*
X731200Y1758000D01*
X731200Y1798000D02*
X691200Y1758000D01*
X1123000Y3880800D02*
X1163000Y3840800D01*
X1163000Y3880800D02*
X1123000Y3840800D01*
X1123000Y2229800D02*
X1163000Y2189800D01*
X1163000Y2229800D02*
X1123000Y2189800D01*
X1123000Y1544000D02*
X1163000Y1504000D01*
X1163000Y1544000D02*
X1123000Y1504000D01*
X1250000Y2331400D02*
X1290000Y2291400D01*
X1290000Y2331400D02*
X1250000Y2291400D01*
X1377000Y477200D02*
X1417000Y437200D01*
X1417000Y477200D02*
X1377000Y437200D01*
X1631000Y3779200D02*
X1671000Y3739200D01*
X1671000Y3779200D02*
X1631000Y3739200D01*
X1656400Y2255200D02*
X1696400Y2215200D01*
X1696400Y2255200D02*
X1656400Y2215200D01*
X1758000Y3576000D02*
X1798000Y3536000D01*
X1798000Y3576000D02*
X1758000Y3536000D01*
X1758000Y1290000D02*
X1798000Y1250000D01*
X1798000Y1290000D02*
X1758000Y1250000D01*
X1961200Y2864800D02*
X2001200Y2824800D01*
X2001200Y2864800D02*
X1961200Y2824800D01*
X1961200Y1290000D02*
X2001200Y1250000D01*
X2001200Y1290000D02*
X1961200Y1250000D01*
X2316800Y2585400D02*
X2356800Y2545400D01*
X2356800Y2585400D02*
X2316800Y2545400D01*
X2316800Y1798000D02*
X2356800Y1758000D01*
X2356800Y1798000D02*
X2316800Y1758000D01*
X2443800Y2052000D02*
X2483800Y2012000D01*
X2483800Y2052000D02*
X2443800Y2012000D01*
X2443800Y1163000D02*
X2483800Y1123000D01*
X2483800Y1163000D02*
X2443800Y1123000D01*
X2469200Y2255200D02*
X2509200Y2215200D01*
X2509200Y2255200D02*
X2469200Y2215200D01*
X2647000Y2153600D02*
X2687000Y2113600D01*
X2687000Y2153600D02*
X2647000Y2113600D01*
X2774000Y3576000D02*
X2814000Y3536000D01*
X2814000Y3576000D02*
X2774000Y3536000D01*
X3409000Y2966400D02*
X3449000Y2926400D01*
X3449000Y2966400D02*
X3409000Y2926400D01*
X4171000Y2331400D02*
X4211000Y2291400D01*
X4211000Y2331400D02*
X4171000Y2291400D01*
X4602800Y3017200D02*
X4642800Y2977200D01*
X4642800Y3017200D02*
X4602800Y2977200D01*
X4602800Y2052000D02*
X4642800Y2012000D01*
X4642800Y2052000D02*
X4602800Y2012000D01*
X4628200Y1544000D02*
X4668200Y1504000D01*
X4668200Y1544000D02*
X4628200Y1504000D01*
X4806000Y1671000D02*
X4846000Y1631000D01*
X4846000Y1671000D02*
X4806000Y1631000D01*
X4882200Y2153600D02*
X4922200Y2113600D01*
X4922200Y2153600D02*
X4882200Y2113600D01*
X5187000Y274000D02*
X5227000Y234000D01*
X5227000Y274000D02*
X5187000Y234000D01*
X5263200Y2991800D02*
X5303200Y2951800D01*
X5303200Y2991800D02*
X5263200Y2951800D01*
X5390200Y1518600D02*
X5430200Y1478600D01*
X5430200Y1518600D02*
X5390200Y1478600D01*
X5110000Y1778000D02*
G75*
G03X5110000Y1778000I-30000J0D01*
G01*
X5110000Y1524000D02*
G75*
G03X5110000Y1524000I-30000J0D01*
G01*
X5237000Y1651000D02*
G75*
G03X5237000Y1651000I-30000J0D01*
G01*
X2677160Y2605400D02*
X2677160Y2525400D01*
X2637160Y2565400D02*
X2717160Y2565400D01*
X2677160Y1843400D02*
X2677160Y1763400D01*
X2637160Y1803400D02*
X2717160Y1803400D01*
X2931160Y2605400D02*
X2931160Y2525400D01*
X2891160Y2565400D02*
X2971160Y2565400D01*
X2931160Y1843400D02*
X2931160Y1763400D01*
X2891160Y1803400D02*
X2971160Y1803400D01*
X3185160Y2605400D02*
X3185160Y2525400D01*
X3145160Y2565400D02*
X3225160Y2565400D01*
X3185160Y1843400D02*
X3185160Y1763400D01*
X3145160Y1803400D02*
X3225160Y1803400D01*
X3439160Y2605400D02*
X3439160Y2525400D01*
X3399160Y2565400D02*
X3479160Y2565400D01*
X3439160Y1843400D02*
X3439160Y1763400D01*
X3399160Y1803400D02*
X3479160Y1803400D01*
X3693160Y2605400D02*
X3693160Y2525400D01*
X3653160Y2565400D02*
X3733160Y2565400D01*
X3693160Y1843400D02*
X3693160Y1763400D01*
X3653160Y1803400D02*
X3733160Y1803400D01*
X3947160Y2605400D02*
X3947160Y2525400D01*
X3907160Y2565400D02*
X3987160Y2565400D01*
X3947160Y1843400D02*
X3947160Y1763400D01*
X3907160Y1803400D02*
X3987160Y1803400D01*
X4201160Y2605400D02*
X4201160Y2525400D01*
X4161160Y2565400D02*
X4241160Y2565400D01*
X4201160Y1843400D02*
X4201160Y1763400D01*
X4161160Y1803400D02*
X4241160Y1803400D01*
X3439160Y1437000D02*
X3439160Y1357000D01*
X3399160Y1397000D02*
X3479160Y1397000D01*
X3439160Y1183000D02*
X3439160Y1103000D01*
X3399160Y1143000D02*
X3479160Y1143000D01*
X3439160Y929000D02*
X3439160Y849000D01*
X3399160Y889000D02*
X3479160Y889000D01*
X3439160Y675000D02*
X3439160Y595000D01*
X3399160Y635000D02*
X3479160Y635000D01*
X1778000Y2897500D02*
X1778000Y2817500D01*
X1738000Y2857500D02*
X1818000Y2857500D01*
X1778000Y2647500D02*
X1778000Y2567500D01*
X1738000Y2607500D02*
X1818000Y2607500D01*
X4453000Y3665850D02*
X4453000Y3585850D01*
X4413000Y3625850D02*
X4493000Y3625850D01*
X4953000Y3665850D02*
X4953000Y3585850D01*
X4913000Y3625850D02*
X4993000Y3625850D01*
X3947160Y1437000D02*
X3947160Y1357000D01*
X3907160Y1397000D02*
X3987160Y1397000D01*
X3947160Y1183000D02*
X3947160Y1103000D01*
X3907160Y1143000D02*
X3987160Y1143000D01*
X3947160Y929000D02*
X3947160Y849000D01*
X3907160Y889000D02*
X3987160Y889000D01*
X3947160Y675000D02*
X3947160Y595000D01*
X3907160Y635000D02*
X3987160Y635000D01*
X2677160Y245740D02*
X2677160Y165740D01*
X2637160Y205740D02*
X2717160Y205740D01*
X2931160Y245740D02*
X2931160Y165740D01*
X2891160Y205740D02*
X2971160Y205740D01*
X3185160Y245740D02*
X3185160Y165740D01*
X3145160Y205740D02*
X3225160Y205740D01*
X3439160Y245740D02*
X3439160Y165740D01*
X3399160Y205740D02*
X3479160Y205740D01*
X3693160Y245740D02*
X3693160Y165740D01*
X3653160Y205740D02*
X3733160Y205740D01*
X3947160Y245740D02*
X3947160Y165740D01*
X3907160Y205740D02*
X3987160Y205740D01*
X4201160Y245740D02*
X4201160Y165740D01*
X4161160Y205740D02*
X4241160Y205740D01*
X3693160Y1437000D02*
X3693160Y1357000D01*
X3653160Y1397000D02*
X3733160Y1397000D01*
X3693160Y1183000D02*
X3693160Y1103000D01*
X3653160Y1143000D02*
X3733160Y1143000D01*
X3693160Y929000D02*
X3693160Y849000D01*
X3653160Y889000D02*
X3733160Y889000D01*
X3693160Y675000D02*
X3693160Y595000D01*
X3653160Y635000D02*
X3733160Y635000D01*
X1397000Y2072000D02*
X1397000Y1992000D01*
X1357000Y2032000D02*
X1437000Y2032000D01*
X1397000Y1818000D02*
X1397000Y1738000D01*
X1357000Y1778000D02*
X1437000Y1778000D01*
X1397000Y1564000D02*
X1397000Y1484000D01*
X1357000Y1524000D02*
X1437000Y1524000D01*
X1397000Y1310000D02*
X1397000Y1230000D01*
X1357000Y1270000D02*
X1437000Y1270000D01*
X2159000Y2072000D02*
X2159000Y1992000D01*
X2119000Y2032000D02*
X2199000Y2032000D01*
X2159000Y1818000D02*
X2159000Y1738000D01*
X2119000Y1778000D02*
X2199000Y1778000D01*
X2159000Y1564000D02*
X2159000Y1484000D01*
X2119000Y1524000D02*
X2199000Y1524000D01*
X2159000Y1310000D02*
X2159000Y1230000D01*
X2119000Y1270000D02*
X2199000Y1270000D01*
X4914900Y1186703D02*
X4914900Y1106703D01*
X4874900Y1146703D02*
X4954900Y1146703D01*
X4914900Y932703D02*
X4914900Y852703D01*
X4874900Y892703D02*
X4954900Y892703D01*
X4914900Y678703D02*
X4914900Y598703D01*
X4874900Y638703D02*
X4954900Y638703D01*
X4914900Y424703D02*
X4914900Y344703D01*
X4874900Y384703D02*
X4954900Y384703D01*
X5778500Y3024500D02*
X5778500Y2944500D01*
X5738500Y2984500D02*
X5818500Y2984500D01*
X5778500Y2774500D02*
X5778500Y2694500D01*
X5738500Y2734500D02*
X5818500Y2734500D01*
X2931160Y1437000D02*
X2931160Y1357000D01*
X2891160Y1397000D02*
X2971160Y1397000D01*
X2931160Y1183000D02*
X2931160Y1103000D01*
X2891160Y1143000D02*
X2971160Y1143000D01*
X2931160Y929000D02*
X2931160Y849000D01*
X2891160Y889000D02*
X2971160Y889000D01*
X2931160Y675000D02*
X2931160Y595000D01*
X2891160Y635000D02*
X2971160Y635000D01*
X4201160Y1437000D02*
X4201160Y1357000D01*
X4161160Y1397000D02*
X4241160Y1397000D01*
X4201160Y1183000D02*
X4201160Y1103000D01*
X4161160Y1143000D02*
X4241160Y1143000D01*
X4201160Y929000D02*
X4201160Y849000D01*
X4161160Y889000D02*
X4241160Y889000D01*
X4201160Y675000D02*
X4201160Y595000D01*
X4161160Y635000D02*
X4241160Y635000D01*
X2677160Y1437000D02*
X2677160Y1357000D01*
X2637160Y1397000D02*
X2717160Y1397000D01*
X2677160Y1183000D02*
X2677160Y1103000D01*
X2637160Y1143000D02*
X2717160Y1143000D01*
X2677160Y929000D02*
X2677160Y849000D01*
X2637160Y889000D02*
X2717160Y889000D01*
X2677160Y675000D02*
X2677160Y595000D01*
X2637160Y635000D02*
X2717160Y635000D01*
X4826000Y3024500D02*
X4826000Y2944500D01*
X4786000Y2984500D02*
X4866000Y2984500D01*
X4826000Y2774500D02*
X4826000Y2694500D01*
X4786000Y2734500D02*
X4866000Y2734500D01*
X1778000Y738500D02*
X1778000Y658500D01*
X1738000Y698500D02*
X1818000Y698500D01*
X1778000Y488500D02*
X1778000Y408500D01*
X1738000Y448500D02*
X1818000Y448500D01*
X4493260Y1437000D02*
X4493260Y1357000D01*
X4453260Y1397000D02*
X4533260Y1397000D01*
X4493260Y1183000D02*
X4493260Y1103000D01*
X4453260Y1143000D02*
X4533260Y1143000D01*
X4493260Y929000D02*
X4493260Y849000D01*
X4453260Y889000D02*
X4533260Y889000D01*
X4493260Y675000D02*
X4493260Y595000D01*
X4453260Y635000D02*
X4533260Y635000D01*
X3185160Y1437000D02*
X3185160Y1357000D01*
X3145160Y1397000D02*
X3225160Y1397000D01*
X3185160Y1183000D02*
X3185160Y1103000D01*
X3145160Y1143000D02*
X3225160Y1143000D01*
X3185160Y929000D02*
X3185160Y849000D01*
X3145160Y889000D02*
X3225160Y889000D01*
X3185160Y675000D02*
X3185160Y595000D01*
X3145160Y635000D02*
X3225160Y635000D01*
X219237Y3082763D02*
X219237Y3140237D01*
X161763Y3140237D01*
X161763Y3082763D01*
X219237Y3082763D01*
X981237Y3082763D02*
X981237Y3140237D01*
X923763Y3140237D01*
X923763Y3082763D01*
X981237Y3082763D01*
X219237Y2638263D02*
X219237Y2695737D01*
X161763Y2695737D01*
X161763Y2638263D01*
X219237Y2638263D01*
X981237Y2638263D02*
X981237Y2695737D01*
X923763Y2695737D01*
X923763Y2638263D01*
X981237Y2638263D01*
X5216687Y3597113D02*
X5216687Y3654587D01*
X5159213Y3654587D01*
X5159213Y3597113D01*
X5216687Y3597113D01*
X5978687Y3597113D02*
X5978687Y3654587D01*
X5921213Y3654587D01*
X5921213Y3597113D01*
X5978687Y3597113D01*
X219237Y2193763D02*
X219237Y2251237D01*
X161763Y2251237D01*
X161763Y2193763D01*
X219237Y2193763D01*
X981237Y2193763D02*
X981237Y2251237D01*
X923763Y2251237D01*
X923763Y2193763D01*
X981237Y2193763D01*
X2505237Y3082763D02*
X2505237Y3140237D01*
X2447763Y3140237D01*
X2447763Y3082763D01*
X2505237Y3082763D01*
X3267237Y3082763D02*
X3267237Y3140237D01*
X3209763Y3140237D01*
X3209763Y3082763D01*
X3267237Y3082763D01*
X5426237Y987263D02*
X5426237Y1044737D01*
X5368763Y1044737D01*
X5368763Y987263D01*
X5426237Y987263D01*
X5426237Y225263D02*
X5426237Y282737D01*
X5368763Y282737D01*
X5368763Y225263D01*
X5426237Y225263D01*
X219237Y3527263D02*
X219237Y3584737D01*
X161763Y3584737D01*
X161763Y3527263D01*
X219237Y3527263D01*
X981237Y3527263D02*
X981237Y3584737D01*
X923763Y3584737D01*
X923763Y3527263D01*
X981237Y3527263D01*
X2505237Y3527263D02*
X2505237Y3584737D01*
X2447763Y3584737D01*
X2447763Y3527263D01*
X2505237Y3527263D01*
X3267237Y3527263D02*
X3267237Y3584737D01*
X3209763Y3584737D01*
X3209763Y3527263D01*
X3267237Y3527263D01*
X5842000Y1735500D02*
X5884500Y1778000D01*
X5842000Y1820500D01*
X5799500Y1778000D01*
X5842000Y1735500D01*
X5842000Y1481500D02*
X5884500Y1524000D01*
X5842000Y1566500D01*
X5799500Y1524000D01*
X5842000Y1481500D01*
X5842000Y465500D02*
X5884500Y508000D01*
X5842000Y550500D01*
X5799500Y508000D01*
X5842000Y465500D01*
X5842000Y211500D02*
X5884500Y254000D01*
X5842000Y296500D01*
X5799500Y254000D01*
X5842000Y211500D01*
X381000Y1735500D02*
X423500Y1778000D01*
X381000Y1820500D01*
X338500Y1778000D01*
X381000Y1735500D01*
X381000Y1481500D02*
X423500Y1524000D01*
X381000Y1566500D01*
X338500Y1524000D01*
X381000Y1481500D01*
X5715000Y4021500D02*
X5757500Y4064000D01*
X5715000Y4106500D01*
X5672500Y4064000D01*
X5715000Y4021500D01*
X5969000Y4021500D02*
X6011500Y4064000D01*
X5969000Y4106500D01*
X5926500Y4064000D01*
X5969000Y4021500D01*
X381000Y465500D02*
X423500Y508000D01*
X381000Y550500D01*
X338500Y508000D01*
X381000Y465500D01*
X381000Y211500D02*
X423500Y254000D01*
X381000Y296500D01*
X338500Y254000D01*
X381000Y211500D01*
X2286000Y4021500D02*
X2328500Y4064000D01*
X2286000Y4106500D01*
X2243500Y4064000D01*
X2286000Y4021500D01*
X2540000Y4021500D02*
X2582500Y4064000D01*
X2540000Y4106500D01*
X2497500Y4064000D01*
X2540000Y4021500D01*
X2794000Y4021500D02*
X2836500Y4064000D01*
X2794000Y4106500D01*
X2751500Y4064000D01*
X2794000Y4021500D01*
X4565650Y4021500D02*
X4608150Y4064000D01*
X4565650Y4106500D01*
X4523150Y4064000D01*
X4565650Y4021500D01*
X4819650Y4021500D02*
X4862150Y4064000D01*
X4819650Y4106500D01*
X4777150Y4064000D01*
X4819650Y4021500D01*
X5073650Y4021500D02*
X5116150Y4064000D01*
X5073650Y4106500D01*
X5031150Y4064000D01*
X5073650Y4021500D01*
X5842000Y1100500D02*
X5884500Y1143000D01*
X5842000Y1185500D01*
X5799500Y1143000D01*
X5842000Y1100500D01*
X5842000Y846500D02*
X5884500Y889000D01*
X5842000Y931500D01*
X5799500Y889000D01*
X5842000Y846500D01*
X381000Y1100500D02*
X423500Y1143000D01*
X381000Y1185500D01*
X338500Y1143000D01*
X381000Y1100500D01*
X381000Y846500D02*
X423500Y889000D01*
X381000Y931500D01*
X338500Y889000D01*
X381000Y846500D01*
X1143000Y4021500D02*
X1185500Y4064000D01*
X1143000Y4106500D01*
X1100500Y4064000D01*
X1143000Y4021500D01*
X1397000Y4021500D02*
X1439500Y4064000D01*
X1397000Y4106500D01*
X1354500Y4064000D01*
X1397000Y4021500D01*
X1651000Y4021500D02*
X1693500Y4064000D01*
X1651000Y4106500D01*
X1608500Y4064000D01*
X1651000Y4021500D01*
X3422650Y4021500D02*
X3465150Y4064000D01*
X3422650Y4106500D01*
X3380150Y4064000D01*
X3422650Y4021500D01*
X3676650Y4021500D02*
X3719150Y4064000D01*
X3676650Y4106500D01*
X3634150Y4064000D01*
X3676650Y4021500D01*
X3930650Y4021500D02*
X3973150Y4064000D01*
X3930650Y4106500D01*
X3888150Y4064000D01*
X3930650Y4021500D01*
X247650Y4021500D02*
X290150Y4064000D01*
X247650Y4106500D01*
X205150Y4064000D01*
X247650Y4021500D01*
X501650Y4021500D02*
X544150Y4064000D01*
X501650Y4106500D01*
X459150Y4064000D01*
X501650Y4021500D01*
X1352000Y3601000D02*
X1442000Y3511000D01*
X1442000Y3601000D02*
X1352000Y3511000D01*
X1442000Y3556000D02*
G75*
G03X1442000Y3556000I-45000J0D01*
G01*
X2114000Y3601000D02*
X2204000Y3511000D01*
X2204000Y3601000D02*
X2114000Y3511000D01*
X2204000Y3556000D02*
G75*
G03X2204000Y3556000I-45000J0D01*
G01*
X5225500Y2267500D02*
X5315500Y2177500D01*
X5315500Y2267500D02*
X5225500Y2177500D01*
X5315500Y2222500D02*
G75*
G03X5315500Y2222500I-45000J0D01*
G01*
X5987500Y2267500D02*
X6077500Y2177500D01*
X6077500Y2267500D02*
X5987500Y2177500D01*
X6077500Y2222500D02*
G75*
G03X6077500Y2222500I-45000J0D01*
G01*
X120500Y1848000D02*
X260500Y1708000D01*
X260500Y1848000D02*
X120500Y1708000D01*
X190500Y1848000D02*
X190500Y1708000D01*
X120500Y1778000D02*
X260500Y1778000D01*
X120500Y1594000D02*
X260500Y1454000D01*
X260500Y1594000D02*
X120500Y1454000D01*
X190500Y1594000D02*
X190500Y1454000D01*
X120500Y1524000D02*
X260500Y1524000D01*
X5645000Y4324500D02*
X5785000Y4184500D01*
X5785000Y4324500D02*
X5645000Y4184500D01*
X5715000Y4324500D02*
X5715000Y4184500D01*
X5645000Y4254500D02*
X5785000Y4254500D01*
X5899000Y4324500D02*
X6039000Y4184500D01*
X6039000Y4324500D02*
X5899000Y4184500D01*
X5969000Y4324500D02*
X5969000Y4184500D01*
X5899000Y4254500D02*
X6039000Y4254500D01*
X120500Y578000D02*
X260500Y438000D01*
X260500Y578000D02*
X120500Y438000D01*
X190500Y578000D02*
X190500Y438000D01*
X120500Y508000D02*
X260500Y508000D01*
X120500Y324000D02*
X260500Y184000D01*
X260500Y324000D02*
X120500Y184000D01*
X190500Y324000D02*
X190500Y184000D01*
X120500Y254000D02*
X260500Y254000D01*
X2216000Y4324500D02*
X2356000Y4184500D01*
X2356000Y4324500D02*
X2216000Y4184500D01*
X2286000Y4324500D02*
X2286000Y4184500D01*
X2216000Y4254500D02*
X2356000Y4254500D01*
X2470000Y4324500D02*
X2610000Y4184500D01*
X2610000Y4324500D02*
X2470000Y4184500D01*
X2540000Y4324500D02*
X2540000Y4184500D01*
X2470000Y4254500D02*
X2610000Y4254500D01*
X2724000Y4324500D02*
X2864000Y4184500D01*
X2864000Y4324500D02*
X2724000Y4184500D01*
X2794000Y4324500D02*
X2794000Y4184500D01*
X2724000Y4254500D02*
X2864000Y4254500D01*
X4495650Y4324500D02*
X4635650Y4184500D01*
X4635650Y4324500D02*
X4495650Y4184500D01*
X4565650Y4324500D02*
X4565650Y4184500D01*
X4495650Y4254500D02*
X4635650Y4254500D01*
X4749650Y4324500D02*
X4889650Y4184500D01*
X4889650Y4324500D02*
X4749650Y4184500D01*
X4819650Y4324500D02*
X4819650Y4184500D01*
X4749650Y4254500D02*
X4889650Y4254500D01*
X5003650Y4324500D02*
X5143650Y4184500D01*
X5143650Y4324500D02*
X5003650Y4184500D01*
X5073650Y4324500D02*
X5073650Y4184500D01*
X5003650Y4254500D02*
X5143650Y4254500D01*
X5962500Y1213000D02*
X6102500Y1073000D01*
X6102500Y1213000D02*
X5962500Y1073000D01*
X6032500Y1213000D02*
X6032500Y1073000D01*
X5962500Y1143000D02*
X6102500Y1143000D01*
X5962500Y959000D02*
X6102500Y819000D01*
X6102500Y959000D02*
X5962500Y819000D01*
X6032500Y959000D02*
X6032500Y819000D01*
X5962500Y889000D02*
X6102500Y889000D01*
X120500Y1213000D02*
X260500Y1073000D01*
X260500Y1213000D02*
X120500Y1073000D01*
X190500Y1213000D02*
X190500Y1073000D01*
X120500Y1143000D02*
X260500Y1143000D01*
X120500Y959000D02*
X260500Y819000D01*
X260500Y959000D02*
X120500Y819000D01*
X190500Y959000D02*
X190500Y819000D01*
X120500Y889000D02*
X260500Y889000D01*
X1073000Y4324500D02*
X1213000Y4184500D01*
X1213000Y4324500D02*
X1073000Y4184500D01*
X1143000Y4324500D02*
X1143000Y4184500D01*
X1073000Y4254500D02*
X1213000Y4254500D01*
X1327000Y4324500D02*
X1467000Y4184500D01*
X1467000Y4324500D02*
X1327000Y4184500D01*
X1397000Y4324500D02*
X1397000Y4184500D01*
X1327000Y4254500D02*
X1467000Y4254500D01*
X1581000Y4324500D02*
X1721000Y4184500D01*
X1721000Y4324500D02*
X1581000Y4184500D01*
X1651000Y4324500D02*
X1651000Y4184500D01*
X1581000Y4254500D02*
X1721000Y4254500D01*
X3352650Y4324500D02*
X3492650Y4184500D01*
X3492650Y4324500D02*
X3352650Y4184500D01*
X3422650Y4324500D02*
X3422650Y4184500D01*
X3352650Y4254500D02*
X3492650Y4254500D01*
X3606650Y4324500D02*
X3746650Y4184500D01*
X3746650Y4324500D02*
X3606650Y4184500D01*
X3676650Y4324500D02*
X3676650Y4184500D01*
X3606650Y4254500D02*
X3746650Y4254500D01*
X3860650Y4324500D02*
X4000650Y4184500D01*
X4000650Y4324500D02*
X3860650Y4184500D01*
X3930650Y4324500D02*
X3930650Y4184500D01*
X3860650Y4254500D02*
X4000650Y4254500D01*
X177650Y4324500D02*
X317650Y4184500D01*
X317650Y4324500D02*
X177650Y4184500D01*
X247650Y4324500D02*
X247650Y4184500D01*
X177650Y4254500D02*
X317650Y4254500D01*
X431650Y4324500D02*
X571650Y4184500D01*
X571650Y4324500D02*
X431650Y4184500D01*
X501650Y4324500D02*
X501650Y4184500D01*
X431650Y4254500D02*
X571650Y4254500D01*
X5962500Y1848000D02*
X6102500Y1708000D01*
X6102500Y1848000D02*
X5962500Y1708000D01*
X6032500Y1848000D02*
X6032500Y1708000D01*
X5962500Y1778000D02*
X6102500Y1778000D01*
X5962500Y1594000D02*
X6102500Y1454000D01*
X6102500Y1594000D02*
X5962500Y1454000D01*
X6032500Y1594000D02*
X6032500Y1454000D01*
X5962500Y1524000D02*
X6102500Y1524000D01*
X5962500Y578000D02*
X6102500Y438000D01*
X6102500Y578000D02*
X5962500Y438000D01*
X6032500Y578000D02*
X6032500Y438000D01*
X5962500Y508000D02*
X6102500Y508000D01*
X5962500Y324000D02*
X6102500Y184000D01*
X6102500Y324000D02*
X5962500Y184000D01*
X6032500Y324000D02*
X6032500Y184000D01*
X5962500Y254000D02*
X6102500Y254000D01*
D12*
X278928Y-473214D02*
X278928Y-173214D01*
X350357Y-173214D01*
X393214Y-187500D01*
X421786Y-216071D01*
X436071Y-244643D01*
X450357Y-301786D01*
X450357Y-344643D01*
X436071Y-401786D01*
X421786Y-430357D01*
X393214Y-458929D01*
X350357Y-473214D01*
X278928Y-473214D01*
X578928Y-473214D02*
X578928Y-273214D01*
X578928Y-330357D02*
X593214Y-301786D01*
X607500Y-287500D01*
X636071Y-273214D01*
X664643Y-273214D01*
X764643Y-473214D02*
X764643Y-273214D01*
X764643Y-173214D02*
X750357Y-187500D01*
X764643Y-201786D01*
X778928Y-187500D01*
X764643Y-173214D01*
X764643Y-201786D01*
X950357Y-473214D02*
X921786Y-458929D01*
X907500Y-430357D01*
X907500Y-173214D01*
X1107500Y-473214D02*
X1078928Y-458929D01*
X1064643Y-430357D01*
X1064643Y-173214D01*
X1450357Y-473214D02*
X1450357Y-173214D01*
X1550357Y-387500D01*
X1650357Y-173214D01*
X1650357Y-473214D01*
X1921786Y-473214D02*
X1921786Y-316072D01*
X1907500Y-287500D01*
X1878928Y-273214D01*
X1821786Y-273214D01*
X1793214Y-287500D01*
X1921786Y-458929D02*
X1893214Y-473214D01*
X1821786Y-473214D01*
X1793214Y-458929D01*
X1778928Y-430357D01*
X1778928Y-401786D01*
X1793214Y-373214D01*
X1821786Y-358929D01*
X1893214Y-358929D01*
X1921786Y-344643D01*
X2064643Y-273214D02*
X2064643Y-573214D01*
X2064643Y-287500D02*
X2093214Y-273214D01*
X2150357Y-273214D01*
X2178928Y-287500D01*
X2193214Y-301786D01*
X2207500Y-330357D01*
X2207500Y-416071D01*
X2193214Y-444643D01*
X2178928Y-458929D01*
X2150357Y-473214D01*
X2093214Y-473214D01*
X2064643Y-458929D01*
X2336071Y-444643D02*
X2350357Y-458929D01*
X2336071Y-473214D01*
X2321786Y-458929D01*
X2336071Y-444643D01*
X2336071Y-473214D01*
X2336071Y-287500D02*
X2350357Y-301786D01*
X2336071Y-316072D01*
X2321786Y-301786D01*
X2336071Y-287500D01*
X2336071Y-316072D01*
X-47500Y-947500D02*
X-7500Y-987500D01*
X-7500Y-947500D02*
X-47500Y-987500D01*
X336071Y-803214D02*
X364643Y-803214D01*
X393214Y-817500D01*
X407500Y-831786D01*
X421786Y-860357D01*
X436071Y-917500D01*
X436071Y-988929D01*
X421786Y-1046071D01*
X407500Y-1074643D01*
X393214Y-1088929D01*
X364643Y-1103214D01*
X336071Y-1103214D01*
X307500Y-1088929D01*
X293214Y-1074643D01*
X278928Y-1046071D01*
X264643Y-988929D01*
X264643Y-917500D01*
X278928Y-860357D01*
X293214Y-831786D01*
X307500Y-817500D01*
X336071Y-803214D01*
X564643Y-1074643D02*
X578928Y-1088929D01*
X564643Y-1103214D01*
X550357Y-1088929D01*
X564643Y-1074643D01*
X564643Y-1103214D01*
X836071Y-903214D02*
X836071Y-1103214D01*
X764643Y-788929D02*
X693214Y-1003214D01*
X878928Y-1003214D01*
X1050357Y-803214D02*
X1078928Y-803214D01*
X1107500Y-817500D01*
X1121786Y-831786D01*
X1136071Y-860357D01*
X1150357Y-917500D01*
X1150357Y-988929D01*
X1136071Y-1046071D01*
X1121786Y-1074643D01*
X1107500Y-1088929D01*
X1078928Y-1103214D01*
X1050357Y-1103214D01*
X1021786Y-1088929D01*
X1007500Y-1074643D01*
X993214Y-1046071D01*
X978928Y-988929D01*
X978928Y-917500D01*
X993214Y-860357D01*
X1007500Y-831786D01*
X1021786Y-817500D01*
X1050357Y-803214D01*
X1278928Y-1103214D02*
X1278928Y-903214D01*
X1278928Y-931786D02*
X1293214Y-917500D01*
X1321786Y-903214D01*
X1364643Y-903214D01*
X1393214Y-917500D01*
X1407500Y-946071D01*
X1407500Y-1103214D01*
X1407500Y-946071D02*
X1421786Y-917500D01*
X1450357Y-903214D01*
X1493214Y-903214D01*
X1521786Y-917500D01*
X1536071Y-946071D01*
X1536071Y-1103214D01*
X1678928Y-1103214D02*
X1678928Y-903214D01*
X1678928Y-931786D02*
X1693214Y-917500D01*
X1721786Y-903214D01*
X1764643Y-903214D01*
X1793214Y-917500D01*
X1807500Y-946071D01*
X1807500Y-1103214D01*
X1807500Y-946071D02*
X1821786Y-917500D01*
X1850357Y-903214D01*
X1893214Y-903214D01*
X1921786Y-917500D01*
X1936071Y-946071D01*
X1936071Y-1103214D01*
X2521786Y-788929D02*
X2264643Y-1174643D01*
X2907500Y-803214D02*
X2936071Y-803214D01*
X2964643Y-817500D01*
X2978928Y-831786D01*
X2993214Y-860357D01*
X3007500Y-917500D01*
X3007500Y-988929D01*
X2993214Y-1046071D01*
X2978928Y-1074643D01*
X2964643Y-1088929D01*
X2936071Y-1103214D01*
X2907500Y-1103214D01*
X2878928Y-1088929D01*
X2864643Y-1074643D01*
X2850357Y-1046071D01*
X2836071Y-988929D01*
X2836071Y-917500D01*
X2850357Y-860357D01*
X2864643Y-831786D01*
X2878928Y-817500D01*
X2907500Y-803214D01*
X3136071Y-1074643D02*
X3150357Y-1088929D01*
X3136071Y-1103214D01*
X3121786Y-1088929D01*
X3136071Y-1074643D01*
X3136071Y-1103214D01*
X3336071Y-803214D02*
X3364643Y-803214D01*
X3393214Y-817500D01*
X3407500Y-831786D01*
X3421786Y-860357D01*
X3436071Y-917500D01*
X3436071Y-988929D01*
X3421786Y-1046071D01*
X3407500Y-1074643D01*
X3393214Y-1088929D01*
X3364643Y-1103214D01*
X3336071Y-1103214D01*
X3307500Y-1088929D01*
X3293214Y-1074643D01*
X3278928Y-1046071D01*
X3264643Y-988929D01*
X3264643Y-917500D01*
X3278928Y-860357D01*
X3293214Y-831786D01*
X3307500Y-817500D01*
X3336071Y-803214D01*
X3721786Y-1103214D02*
X3550357Y-1103214D01*
X3636071Y-1103214D02*
X3636071Y-803214D01*
X3607500Y-846071D01*
X3578928Y-874643D01*
X3550357Y-888929D01*
X3978928Y-803214D02*
X3921786Y-803214D01*
X3893214Y-817500D01*
X3878928Y-831786D01*
X3850357Y-874643D01*
X3836071Y-931786D01*
X3836071Y-1046071D01*
X3850357Y-1074643D01*
X3864643Y-1088929D01*
X3893214Y-1103214D01*
X3950357Y-1103214D01*
X3978928Y-1088929D01*
X3993214Y-1074643D01*
X4007500Y-1046071D01*
X4007500Y-974643D01*
X3993214Y-946071D01*
X3978928Y-931786D01*
X3950357Y-917500D01*
X3893214Y-917500D01*
X3864643Y-931786D01*
X3850357Y-946071D01*
X3836071Y-974643D01*
X4121786Y-803214D02*
X4121786Y-860357D01*
X4236071Y-803214D02*
X4236071Y-860357D01*
X4678928Y-1217500D02*
X4664643Y-1203214D01*
X4636071Y-1160357D01*
X4621786Y-1131786D01*
X4607500Y-1088929D01*
X4593214Y-1017500D01*
X4593214Y-960357D01*
X4607500Y-888929D01*
X4621786Y-846071D01*
X4636071Y-817500D01*
X4664643Y-774643D01*
X4678928Y-760357D01*
X4764643Y-803214D02*
X4950357Y-803214D01*
X4850357Y-917500D01*
X4893214Y-917500D01*
X4921786Y-931786D01*
X4936071Y-946071D01*
X4950357Y-974643D01*
X4950357Y-1046071D01*
X4936071Y-1074643D01*
X4921786Y-1088929D01*
X4893214Y-1103214D01*
X4807500Y-1103214D01*
X4778928Y-1088929D01*
X4764643Y-1074643D01*
X5050357Y-803214D02*
X5250357Y-803214D01*
X5121786Y-1103214D01*
X5593214Y-1103214D02*
X5593214Y-803214D01*
X5721786Y-1103214D02*
X5721786Y-946071D01*
X5707500Y-917500D01*
X5678928Y-903214D01*
X5636071Y-903214D01*
X5607500Y-917500D01*
X5593214Y-931786D01*
X5907500Y-1103214D02*
X5878928Y-1088929D01*
X5864643Y-1074643D01*
X5850357Y-1046071D01*
X5850357Y-960357D01*
X5864643Y-931786D01*
X5878928Y-917500D01*
X5907500Y-903214D01*
X5950357Y-903214D01*
X5978928Y-917500D01*
X5993214Y-931786D01*
X6007500Y-960357D01*
X6007500Y-1046071D01*
X5993214Y-1074643D01*
X5978928Y-1088929D01*
X5950357Y-1103214D01*
X5907500Y-1103214D01*
X6178928Y-1103214D02*
X6150357Y-1088929D01*
X6136071Y-1060357D01*
X6136071Y-803214D01*
X6407500Y-1088929D02*
X6378928Y-1103214D01*
X6321786Y-1103214D01*
X6293214Y-1088929D01*
X6278928Y-1060357D01*
X6278928Y-946071D01*
X6293214Y-917500D01*
X6321786Y-903214D01*
X6378928Y-903214D01*
X6407500Y-917500D01*
X6421786Y-946071D01*
X6421786Y-974643D01*
X6278928Y-1003214D01*
X6536071Y-1088929D02*
X6564643Y-1103214D01*
X6621786Y-1103214D01*
X6650357Y-1088929D01*
X6664643Y-1060357D01*
X6664643Y-1046071D01*
X6650357Y-1017500D01*
X6621786Y-1003214D01*
X6578928Y-1003214D01*
X6550357Y-988929D01*
X6536071Y-960357D01*
X6536071Y-946071D01*
X6550357Y-917500D01*
X6578928Y-903214D01*
X6621786Y-903214D01*
X6650357Y-917500D01*
X6764643Y-1217500D02*
X6778928Y-1203214D01*
X6807500Y-1160357D01*
X6821786Y-1131786D01*
X6836071Y-1088929D01*
X6850357Y-1017500D01*
X6850357Y-960357D01*
X6836071Y-888929D01*
X6821786Y-846071D01*
X6807500Y-817500D01*
X6778928Y-774643D01*
X6764643Y-760357D01*
X-7500Y-1363500D02*
G75*
G03X-7500Y-1363500I-30000J0D01*
G01*
X336071Y-1199214D02*
X364643Y-1199214D01*
X393214Y-1213500D01*
X407500Y-1227786D01*
X421786Y-1256357D01*
X436071Y-1313500D01*
X436071Y-1384929D01*
X421786Y-1442071D01*
X407500Y-1470643D01*
X393214Y-1484929D01*
X364643Y-1499214D01*
X336071Y-1499214D01*
X307500Y-1484929D01*
X293214Y-1470643D01*
X278928Y-1442071D01*
X264643Y-1384929D01*
X264643Y-1313500D01*
X278928Y-1256357D01*
X293214Y-1227786D01*
X307500Y-1213500D01*
X336071Y-1199214D01*
X564643Y-1470643D02*
X578928Y-1484929D01*
X564643Y-1499214D01*
X550357Y-1484929D01*
X564643Y-1470643D01*
X564643Y-1499214D01*
X836071Y-1199214D02*
X778928Y-1199214D01*
X750357Y-1213500D01*
X736071Y-1227786D01*
X707500Y-1270643D01*
X693214Y-1327786D01*
X693214Y-1442071D01*
X707500Y-1470643D01*
X721786Y-1484929D01*
X750357Y-1499214D01*
X807500Y-1499214D01*
X836071Y-1484929D01*
X850357Y-1470643D01*
X864643Y-1442071D01*
X864643Y-1370643D01*
X850357Y-1342072D01*
X836071Y-1327786D01*
X807500Y-1313500D01*
X750357Y-1313500D01*
X721786Y-1327786D01*
X707500Y-1342072D01*
X693214Y-1370643D01*
X1050357Y-1199214D02*
X1078928Y-1199214D01*
X1107500Y-1213500D01*
X1121786Y-1227786D01*
X1136071Y-1256357D01*
X1150357Y-1313500D01*
X1150357Y-1384929D01*
X1136071Y-1442071D01*
X1121786Y-1470643D01*
X1107500Y-1484929D01*
X1078928Y-1499214D01*
X1050357Y-1499214D01*
X1021786Y-1484929D01*
X1007500Y-1470643D01*
X993214Y-1442071D01*
X978928Y-1384929D01*
X978928Y-1313500D01*
X993214Y-1256357D01*
X1007500Y-1227786D01*
X1021786Y-1213500D01*
X1050357Y-1199214D01*
X1278928Y-1499214D02*
X1278928Y-1299214D01*
X1278928Y-1327786D02*
X1293214Y-1313500D01*
X1321786Y-1299214D01*
X1364643Y-1299214D01*
X1393214Y-1313500D01*
X1407500Y-1342072D01*
X1407500Y-1499214D01*
X1407500Y-1342072D02*
X1421786Y-1313500D01*
X1450357Y-1299214D01*
X1493214Y-1299214D01*
X1521786Y-1313500D01*
X1536071Y-1342072D01*
X1536071Y-1499214D01*
X1678928Y-1499214D02*
X1678928Y-1299214D01*
X1678928Y-1327786D02*
X1693214Y-1313500D01*
X1721786Y-1299214D01*
X1764643Y-1299214D01*
X1793214Y-1313500D01*
X1807500Y-1342072D01*
X1807500Y-1499214D01*
X1807500Y-1342072D02*
X1821786Y-1313500D01*
X1850357Y-1299214D01*
X1893214Y-1299214D01*
X1921786Y-1313500D01*
X1936071Y-1342072D01*
X1936071Y-1499214D01*
X2521786Y-1184929D02*
X2264643Y-1570643D01*
X2907500Y-1199214D02*
X2936071Y-1199214D01*
X2964643Y-1213500D01*
X2978928Y-1227786D01*
X2993214Y-1256357D01*
X3007500Y-1313500D01*
X3007500Y-1384929D01*
X2993214Y-1442071D01*
X2978928Y-1470643D01*
X2964643Y-1484929D01*
X2936071Y-1499214D01*
X2907500Y-1499214D01*
X2878928Y-1484929D01*
X2864643Y-1470643D01*
X2850357Y-1442071D01*
X2836071Y-1384929D01*
X2836071Y-1313500D01*
X2850357Y-1256357D01*
X2864643Y-1227786D01*
X2878928Y-1213500D01*
X2907500Y-1199214D01*
X3136071Y-1470643D02*
X3150357Y-1484929D01*
X3136071Y-1499214D01*
X3121786Y-1484929D01*
X3136071Y-1470643D01*
X3136071Y-1499214D01*
X3336071Y-1199214D02*
X3364643Y-1199214D01*
X3393214Y-1213500D01*
X3407500Y-1227786D01*
X3421786Y-1256357D01*
X3436071Y-1313500D01*
X3436071Y-1384929D01*
X3421786Y-1442071D01*
X3407500Y-1470643D01*
X3393214Y-1484929D01*
X3364643Y-1499214D01*
X3336071Y-1499214D01*
X3307500Y-1484929D01*
X3293214Y-1470643D01*
X3278928Y-1442071D01*
X3264643Y-1384929D01*
X3264643Y-1313500D01*
X3278928Y-1256357D01*
X3293214Y-1227786D01*
X3307500Y-1213500D01*
X3336071Y-1199214D01*
X3550357Y-1227786D02*
X3564643Y-1213500D01*
X3593214Y-1199214D01*
X3664643Y-1199214D01*
X3693214Y-1213500D01*
X3707500Y-1227786D01*
X3721786Y-1256357D01*
X3721786Y-1284929D01*
X3707500Y-1327786D01*
X3536071Y-1499214D01*
X3721786Y-1499214D01*
X3978928Y-1299214D02*
X3978928Y-1499214D01*
X3907500Y-1184929D02*
X3836071Y-1399214D01*
X4021786Y-1399214D01*
X4121786Y-1199214D02*
X4121786Y-1256357D01*
X4236071Y-1199214D02*
X4236071Y-1256357D01*
X4678928Y-1613500D02*
X4664643Y-1599214D01*
X4636071Y-1556357D01*
X4621786Y-1527786D01*
X4607500Y-1484929D01*
X4593214Y-1413500D01*
X4593214Y-1356357D01*
X4607500Y-1284929D01*
X4621786Y-1242072D01*
X4636071Y-1213500D01*
X4664643Y-1170643D01*
X4678928Y-1156357D01*
X4764643Y-1199214D02*
X4950357Y-1199214D01*
X4850357Y-1313500D01*
X4893214Y-1313500D01*
X4921786Y-1327786D01*
X4936071Y-1342072D01*
X4950357Y-1370643D01*
X4950357Y-1442071D01*
X4936071Y-1470643D01*
X4921786Y-1484929D01*
X4893214Y-1499214D01*
X4807500Y-1499214D01*
X4778928Y-1484929D01*
X4764643Y-1470643D01*
X5307500Y-1499214D02*
X5307500Y-1199214D01*
X5436071Y-1499214D02*
X5436071Y-1342072D01*
X5421786Y-1313500D01*
X5393214Y-1299214D01*
X5350357Y-1299214D01*
X5321786Y-1313500D01*
X5307500Y-1327786D01*
X5621786Y-1499214D02*
X5593214Y-1484929D01*
X5578928Y-1470643D01*
X5564643Y-1442071D01*
X5564643Y-1356357D01*
X5578928Y-1327786D01*
X5593214Y-1313500D01*
X5621786Y-1299214D01*
X5664643Y-1299214D01*
X5693214Y-1313500D01*
X5707500Y-1327786D01*
X5721786Y-1356357D01*
X5721786Y-1442071D01*
X5707500Y-1470643D01*
X5693214Y-1484929D01*
X5664643Y-1499214D01*
X5621786Y-1499214D01*
X5893214Y-1499214D02*
X5864643Y-1484929D01*
X5850357Y-1456357D01*
X5850357Y-1199214D01*
X6121786Y-1484929D02*
X6093214Y-1499214D01*
X6036071Y-1499214D01*
X6007500Y-1484929D01*
X5993214Y-1456357D01*
X5993214Y-1342072D01*
X6007500Y-1313500D01*
X6036071Y-1299214D01*
X6093214Y-1299214D01*
X6121786Y-1313500D01*
X6136071Y-1342072D01*
X6136071Y-1370643D01*
X5993214Y-1399214D01*
X6250357Y-1484929D02*
X6278928Y-1499214D01*
X6336071Y-1499214D01*
X6364643Y-1484929D01*
X6378928Y-1456357D01*
X6378928Y-1442071D01*
X6364643Y-1413500D01*
X6336071Y-1399214D01*
X6293214Y-1399214D01*
X6264643Y-1384929D01*
X6250357Y-1356357D01*
X6250357Y-1342072D01*
X6264643Y-1313500D01*
X6293214Y-1299214D01*
X6336071Y-1299214D01*
X6364643Y-1313500D01*
X6478928Y-1613500D02*
X6493214Y-1599214D01*
X6521786Y-1556357D01*
X6536071Y-1527786D01*
X6550357Y-1484929D01*
X6564643Y-1413500D01*
X6564643Y-1356357D01*
X6550357Y-1284929D01*
X6536071Y-1242072D01*
X6521786Y-1213500D01*
X6493214Y-1170643D01*
X6478928Y-1156357D01*
X-47500Y-1719500D02*
X-47500Y-1799500D01*
X-87500Y-1759500D02*
X-7500Y-1759500D01*
X336071Y-1595214D02*
X364643Y-1595214D01*
X393214Y-1609500D01*
X407500Y-1623786D01*
X421786Y-1652357D01*
X436071Y-1709500D01*
X436071Y-1780929D01*
X421786Y-1838071D01*
X407500Y-1866643D01*
X393214Y-1880929D01*
X364643Y-1895214D01*
X336071Y-1895214D01*
X307500Y-1880929D01*
X293214Y-1866643D01*
X278928Y-1838071D01*
X264643Y-1780929D01*
X264643Y-1709500D01*
X278928Y-1652357D01*
X293214Y-1623786D01*
X307500Y-1609500D01*
X336071Y-1595214D01*
X564643Y-1866643D02*
X578928Y-1880929D01*
X564643Y-1895214D01*
X550357Y-1880929D01*
X564643Y-1866643D01*
X564643Y-1895214D01*
X750357Y-1723786D02*
X721786Y-1709500D01*
X707500Y-1695214D01*
X693214Y-1666643D01*
X693214Y-1652357D01*
X707500Y-1623786D01*
X721786Y-1609500D01*
X750357Y-1595214D01*
X807500Y-1595214D01*
X836071Y-1609500D01*
X850357Y-1623786D01*
X864643Y-1652357D01*
X864643Y-1666643D01*
X850357Y-1695214D01*
X836071Y-1709500D01*
X807500Y-1723786D01*
X750357Y-1723786D01*
X721786Y-1738071D01*
X707500Y-1752357D01*
X693214Y-1780929D01*
X693214Y-1838071D01*
X707500Y-1866643D01*
X721786Y-1880929D01*
X750357Y-1895214D01*
X807500Y-1895214D01*
X836071Y-1880929D01*
X850357Y-1866643D01*
X864643Y-1838071D01*
X864643Y-1780929D01*
X850357Y-1752357D01*
X836071Y-1738071D01*
X807500Y-1723786D01*
X1050357Y-1595214D02*
X1078928Y-1595214D01*
X1107500Y-1609500D01*
X1121786Y-1623786D01*
X1136071Y-1652357D01*
X1150357Y-1709500D01*
X1150357Y-1780929D01*
X1136071Y-1838071D01*
X1121786Y-1866643D01*
X1107500Y-1880929D01*
X1078928Y-1895214D01*
X1050357Y-1895214D01*
X1021786Y-1880929D01*
X1007500Y-1866643D01*
X993214Y-1838071D01*
X978928Y-1780929D01*
X978928Y-1709500D01*
X993214Y-1652357D01*
X1007500Y-1623786D01*
X1021786Y-1609500D01*
X1050357Y-1595214D01*
X1278928Y-1895214D02*
X1278928Y-1695214D01*
X1278928Y-1723786D02*
X1293214Y-1709500D01*
X1321786Y-1695214D01*
X1364643Y-1695214D01*
X1393214Y-1709500D01*
X1407500Y-1738071D01*
X1407500Y-1895214D01*
X1407500Y-1738071D02*
X1421786Y-1709500D01*
X1450357Y-1695214D01*
X1493214Y-1695214D01*
X1521786Y-1709500D01*
X1536071Y-1738071D01*
X1536071Y-1895214D01*
X1678928Y-1895214D02*
X1678928Y-1695214D01*
X1678928Y-1723786D02*
X1693214Y-1709500D01*
X1721786Y-1695214D01*
X1764643Y-1695214D01*
X1793214Y-1709500D01*
X1807500Y-1738071D01*
X1807500Y-1895214D01*
X1807500Y-1738071D02*
X1821786Y-1709500D01*
X1850357Y-1695214D01*
X1893214Y-1695214D01*
X1921786Y-1709500D01*
X1936071Y-1738071D01*
X1936071Y-1895214D01*
X2521786Y-1580929D02*
X2264643Y-1966643D01*
X2907500Y-1595214D02*
X2936071Y-1595214D01*
X2964643Y-1609500D01*
X2978928Y-1623786D01*
X2993214Y-1652357D01*
X3007500Y-1709500D01*
X3007500Y-1780929D01*
X2993214Y-1838071D01*
X2978928Y-1866643D01*
X2964643Y-1880929D01*
X2936071Y-1895214D01*
X2907500Y-1895214D01*
X2878928Y-1880929D01*
X2864643Y-1866643D01*
X2850357Y-1838071D01*
X2836071Y-1780929D01*
X2836071Y-1709500D01*
X2850357Y-1652357D01*
X2864643Y-1623786D01*
X2878928Y-1609500D01*
X2907500Y-1595214D01*
X3136071Y-1866643D02*
X3150357Y-1880929D01*
X3136071Y-1895214D01*
X3121786Y-1880929D01*
X3136071Y-1866643D01*
X3136071Y-1895214D01*
X3336071Y-1595214D02*
X3364643Y-1595214D01*
X3393214Y-1609500D01*
X3407500Y-1623786D01*
X3421786Y-1652357D01*
X3436071Y-1709500D01*
X3436071Y-1780929D01*
X3421786Y-1838071D01*
X3407500Y-1866643D01*
X3393214Y-1880929D01*
X3364643Y-1895214D01*
X3336071Y-1895214D01*
X3307500Y-1880929D01*
X3293214Y-1866643D01*
X3278928Y-1838071D01*
X3264643Y-1780929D01*
X3264643Y-1709500D01*
X3278928Y-1652357D01*
X3293214Y-1623786D01*
X3307500Y-1609500D01*
X3336071Y-1595214D01*
X3536071Y-1595214D02*
X3721786Y-1595214D01*
X3621786Y-1709500D01*
X3664643Y-1709500D01*
X3693214Y-1723786D01*
X3707500Y-1738071D01*
X3721786Y-1766643D01*
X3721786Y-1838071D01*
X3707500Y-1866643D01*
X3693214Y-1880929D01*
X3664643Y-1895214D01*
X3578928Y-1895214D01*
X3550357Y-1880929D01*
X3536071Y-1866643D01*
X4007500Y-1895214D02*
X3836071Y-1895214D01*
X3921786Y-1895214D02*
X3921786Y-1595214D01*
X3893214Y-1638071D01*
X3864643Y-1666643D01*
X3836071Y-1680929D01*
X4121786Y-1595214D02*
X4121786Y-1652357D01*
X4236071Y-1595214D02*
X4236071Y-1652357D01*
X4678928Y-2009500D02*
X4664643Y-1995214D01*
X4636071Y-1952357D01*
X4621786Y-1923786D01*
X4607500Y-1880929D01*
X4593214Y-1809500D01*
X4593214Y-1752357D01*
X4607500Y-1680929D01*
X4621786Y-1638071D01*
X4636071Y-1609500D01*
X4664643Y-1566643D01*
X4678928Y-1552357D01*
X4764643Y-1595214D02*
X4964643Y-1595214D01*
X4836071Y-1895214D01*
X5221786Y-1595214D02*
X5078928Y-1595214D01*
X5064643Y-1738071D01*
X5078928Y-1723786D01*
X5107500Y-1709500D01*
X5178928Y-1709500D01*
X5207500Y-1723786D01*
X5221786Y-1738071D01*
X5236071Y-1766643D01*
X5236071Y-1838071D01*
X5221786Y-1866643D01*
X5207500Y-1880929D01*
X5178928Y-1895214D01*
X5107500Y-1895214D01*
X5078928Y-1880929D01*
X5064643Y-1866643D01*
X5593214Y-1895214D02*
X5593214Y-1595214D01*
X5721786Y-1895214D02*
X5721786Y-1738071D01*
X5707500Y-1709500D01*
X5678928Y-1695214D01*
X5636071Y-1695214D01*
X5607500Y-1709500D01*
X5593214Y-1723786D01*
X5907500Y-1895214D02*
X5878928Y-1880929D01*
X5864643Y-1866643D01*
X5850357Y-1838071D01*
X5850357Y-1752357D01*
X5864643Y-1723786D01*
X5878928Y-1709500D01*
X5907500Y-1695214D01*
X5950357Y-1695214D01*
X5978928Y-1709500D01*
X5993214Y-1723786D01*
X6007500Y-1752357D01*
X6007500Y-1838071D01*
X5993214Y-1866643D01*
X5978928Y-1880929D01*
X5950357Y-1895214D01*
X5907500Y-1895214D01*
X6178928Y-1895214D02*
X6150357Y-1880929D01*
X6136071Y-1852357D01*
X6136071Y-1595214D01*
X6407500Y-1880929D02*
X6378928Y-1895214D01*
X6321786Y-1895214D01*
X6293214Y-1880929D01*
X6278928Y-1852357D01*
X6278928Y-1738071D01*
X6293214Y-1709500D01*
X6321786Y-1695214D01*
X6378928Y-1695214D01*
X6407500Y-1709500D01*
X6421786Y-1738071D01*
X6421786Y-1766643D01*
X6278928Y-1795214D01*
X6536071Y-1880929D02*
X6564643Y-1895214D01*
X6621786Y-1895214D01*
X6650357Y-1880929D01*
X6664643Y-1852357D01*
X6664643Y-1838071D01*
X6650357Y-1809500D01*
X6621786Y-1795214D01*
X6578928Y-1795214D01*
X6550357Y-1780929D01*
X6536071Y-1752357D01*
X6536071Y-1738071D01*
X6550357Y-1709500D01*
X6578928Y-1695214D01*
X6621786Y-1695214D01*
X6650357Y-1709500D01*
X6764643Y-2009500D02*
X6778928Y-1995214D01*
X6807500Y-1952357D01*
X6821786Y-1923786D01*
X6836071Y-1880929D01*
X6850357Y-1809500D01*
X6850357Y-1752357D01*
X6836071Y-1680929D01*
X6821786Y-1638071D01*
X6807500Y-1609500D01*
X6778928Y-1566643D01*
X6764643Y-1552357D01*
X-19403Y-2184237D02*
X-19403Y-2126763D01*
X-76877Y-2126763D01*
X-76877Y-2184237D01*
X-19403Y-2184237D01*
X336071Y-1991214D02*
X364643Y-1991214D01*
X393214Y-2005500D01*
X407500Y-2019786D01*
X421786Y-2048357D01*
X436071Y-2105500D01*
X436071Y-2176929D01*
X421786Y-2234072D01*
X407500Y-2262643D01*
X393214Y-2276929D01*
X364643Y-2291214D01*
X336071Y-2291214D01*
X307500Y-2276929D01*
X293214Y-2262643D01*
X278928Y-2234072D01*
X264643Y-2176929D01*
X264643Y-2105500D01*
X278928Y-2048357D01*
X293214Y-2019786D01*
X307500Y-2005500D01*
X336071Y-1991214D01*
X564643Y-2262643D02*
X578928Y-2276929D01*
X564643Y-2291214D01*
X550357Y-2276929D01*
X564643Y-2262643D01*
X564643Y-2291214D01*
X750357Y-2119786D02*
X721786Y-2105500D01*
X707500Y-2091214D01*
X693214Y-2062643D01*
X693214Y-2048357D01*
X707500Y-2019786D01*
X721786Y-2005500D01*
X750357Y-1991214D01*
X807500Y-1991214D01*
X836071Y-2005500D01*
X850357Y-2019786D01*
X864643Y-2048357D01*
X864643Y-2062643D01*
X850357Y-2091214D01*
X836071Y-2105500D01*
X807500Y-2119786D01*
X750357Y-2119786D01*
X721786Y-2134072D01*
X707500Y-2148357D01*
X693214Y-2176929D01*
X693214Y-2234072D01*
X707500Y-2262643D01*
X721786Y-2276929D01*
X750357Y-2291214D01*
X807500Y-2291214D01*
X836071Y-2276929D01*
X850357Y-2262643D01*
X864643Y-2234072D01*
X864643Y-2176929D01*
X850357Y-2148357D01*
X836071Y-2134072D01*
X807500Y-2119786D01*
X1150357Y-2291214D02*
X978928Y-2291214D01*
X1064643Y-2291214D02*
X1064643Y-1991214D01*
X1036071Y-2034071D01*
X1007500Y-2062643D01*
X978928Y-2076929D01*
X1278928Y-2291214D02*
X1278928Y-2091214D01*
X1278928Y-2119786D02*
X1293214Y-2105500D01*
X1321786Y-2091214D01*
X1364643Y-2091214D01*
X1393214Y-2105500D01*
X1407500Y-2134072D01*
X1407500Y-2291214D01*
X1407500Y-2134072D02*
X1421786Y-2105500D01*
X1450357Y-2091214D01*
X1493214Y-2091214D01*
X1521786Y-2105500D01*
X1536071Y-2134072D01*
X1536071Y-2291214D01*
X1678928Y-2291214D02*
X1678928Y-2091214D01*
X1678928Y-2119786D02*
X1693214Y-2105500D01*
X1721786Y-2091214D01*
X1764643Y-2091214D01*
X1793214Y-2105500D01*
X1807500Y-2134072D01*
X1807500Y-2291214D01*
X1807500Y-2134072D02*
X1821786Y-2105500D01*
X1850357Y-2091214D01*
X1893214Y-2091214D01*
X1921786Y-2105500D01*
X1936071Y-2134072D01*
X1936071Y-2291214D01*
X2521786Y-1976929D02*
X2264643Y-2362643D01*
X2907500Y-1991214D02*
X2936071Y-1991214D01*
X2964643Y-2005500D01*
X2978928Y-2019786D01*
X2993214Y-2048357D01*
X3007500Y-2105500D01*
X3007500Y-2176929D01*
X2993214Y-2234072D01*
X2978928Y-2262643D01*
X2964643Y-2276929D01*
X2936071Y-2291214D01*
X2907500Y-2291214D01*
X2878928Y-2276929D01*
X2864643Y-2262643D01*
X2850357Y-2234072D01*
X2836071Y-2176929D01*
X2836071Y-2105500D01*
X2850357Y-2048357D01*
X2864643Y-2019786D01*
X2878928Y-2005500D01*
X2907500Y-1991214D01*
X3136071Y-2262643D02*
X3150357Y-2276929D01*
X3136071Y-2291214D01*
X3121786Y-2276929D01*
X3136071Y-2262643D01*
X3136071Y-2291214D01*
X3336071Y-1991214D02*
X3364643Y-1991214D01*
X3393214Y-2005500D01*
X3407500Y-2019786D01*
X3421786Y-2048357D01*
X3436071Y-2105500D01*
X3436071Y-2176929D01*
X3421786Y-2234072D01*
X3407500Y-2262643D01*
X3393214Y-2276929D01*
X3364643Y-2291214D01*
X3336071Y-2291214D01*
X3307500Y-2276929D01*
X3293214Y-2262643D01*
X3278928Y-2234072D01*
X3264643Y-2176929D01*
X3264643Y-2105500D01*
X3278928Y-2048357D01*
X3293214Y-2019786D01*
X3307500Y-2005500D01*
X3336071Y-1991214D01*
X3536071Y-1991214D02*
X3721786Y-1991214D01*
X3621786Y-2105500D01*
X3664643Y-2105500D01*
X3693214Y-2119786D01*
X3707500Y-2134072D01*
X3721786Y-2162643D01*
X3721786Y-2234072D01*
X3707500Y-2262643D01*
X3693214Y-2276929D01*
X3664643Y-2291214D01*
X3578928Y-2291214D01*
X3550357Y-2276929D01*
X3536071Y-2262643D01*
X3836071Y-2019786D02*
X3850357Y-2005500D01*
X3878928Y-1991214D01*
X3950357Y-1991214D01*
X3978928Y-2005500D01*
X3993214Y-2019786D01*
X4007500Y-2048357D01*
X4007500Y-2076929D01*
X3993214Y-2119786D01*
X3821786Y-2291214D01*
X4007500Y-2291214D01*
X4121786Y-1991214D02*
X4121786Y-2048357D01*
X4236071Y-1991214D02*
X4236071Y-2048357D01*
X4678928Y-2405500D02*
X4664643Y-2391214D01*
X4636071Y-2348357D01*
X4621786Y-2319786D01*
X4607500Y-2276929D01*
X4593214Y-2205500D01*
X4593214Y-2148357D01*
X4607500Y-2076929D01*
X4621786Y-2034071D01*
X4636071Y-2005500D01*
X4664643Y-1962643D01*
X4678928Y-1948357D01*
X4950357Y-2291214D02*
X4778928Y-2291214D01*
X4864643Y-2291214D02*
X4864643Y-1991214D01*
X4836071Y-2034071D01*
X4807500Y-2062643D01*
X4778928Y-2076929D01*
X5207500Y-1991214D02*
X5150357Y-1991214D01*
X5121786Y-2005500D01*
X5107500Y-2019786D01*
X5078928Y-2062643D01*
X5064643Y-2119786D01*
X5064643Y-2234072D01*
X5078928Y-2262643D01*
X5093214Y-2276929D01*
X5121786Y-2291214D01*
X5178928Y-2291214D01*
X5207500Y-2276929D01*
X5221786Y-2262643D01*
X5236071Y-2234072D01*
X5236071Y-2162643D01*
X5221786Y-2134072D01*
X5207500Y-2119786D01*
X5178928Y-2105500D01*
X5121786Y-2105500D01*
X5093214Y-2119786D01*
X5078928Y-2134072D01*
X5064643Y-2162643D01*
X5593214Y-2291214D02*
X5593214Y-1991214D01*
X5721786Y-2291214D02*
X5721786Y-2134072D01*
X5707500Y-2105500D01*
X5678928Y-2091214D01*
X5636071Y-2091214D01*
X5607500Y-2105500D01*
X5593214Y-2119786D01*
X5907500Y-2291214D02*
X5878928Y-2276929D01*
X5864643Y-2262643D01*
X5850357Y-2234072D01*
X5850357Y-2148357D01*
X5864643Y-2119786D01*
X5878928Y-2105500D01*
X5907500Y-2091214D01*
X5950357Y-2091214D01*
X5978928Y-2105500D01*
X5993214Y-2119786D01*
X6007500Y-2148357D01*
X6007500Y-2234072D01*
X5993214Y-2262643D01*
X5978928Y-2276929D01*
X5950357Y-2291214D01*
X5907500Y-2291214D01*
X6178928Y-2291214D02*
X6150357Y-2276929D01*
X6136071Y-2248357D01*
X6136071Y-1991214D01*
X6407500Y-2276929D02*
X6378928Y-2291214D01*
X6321786Y-2291214D01*
X6293214Y-2276929D01*
X6278928Y-2248357D01*
X6278928Y-2134072D01*
X6293214Y-2105500D01*
X6321786Y-2091214D01*
X6378928Y-2091214D01*
X6407500Y-2105500D01*
X6421786Y-2134072D01*
X6421786Y-2162643D01*
X6278928Y-2191214D01*
X6536071Y-2276929D02*
X6564643Y-2291214D01*
X6621786Y-2291214D01*
X6650357Y-2276929D01*
X6664643Y-2248357D01*
X6664643Y-2234072D01*
X6650357Y-2205500D01*
X6621786Y-2191214D01*
X6578928Y-2191214D01*
X6550357Y-2176929D01*
X6536071Y-2148357D01*
X6536071Y-2134072D01*
X6550357Y-2105500D01*
X6578928Y-2091214D01*
X6621786Y-2091214D01*
X6650357Y-2105500D01*
X6764643Y-2405500D02*
X6778928Y-2391214D01*
X6807500Y-2348357D01*
X6821786Y-2319786D01*
X6836071Y-2276929D01*
X6850357Y-2205500D01*
X6850357Y-2148357D01*
X6836071Y-2076929D01*
X6821786Y-2034071D01*
X6807500Y-2005500D01*
X6778928Y-1962643D01*
X6764643Y-1948357D01*
X-50000Y-2594000D02*
X-7500Y-2551500D01*
X-50000Y-2509000D01*
X-92500Y-2551500D01*
X-50000Y-2594000D01*
X336071Y-2387214D02*
X364643Y-2387214D01*
X393214Y-2401500D01*
X407500Y-2415786D01*
X421786Y-2444357D01*
X436071Y-2501500D01*
X436071Y-2572929D01*
X421786Y-2630072D01*
X407500Y-2658643D01*
X393214Y-2672929D01*
X364643Y-2687214D01*
X336071Y-2687214D01*
X307500Y-2672929D01*
X293214Y-2658643D01*
X278928Y-2630072D01*
X264643Y-2572929D01*
X264643Y-2501500D01*
X278928Y-2444357D01*
X293214Y-2415786D01*
X307500Y-2401500D01*
X336071Y-2387214D01*
X564643Y-2658643D02*
X578928Y-2672929D01*
X564643Y-2687214D01*
X550357Y-2672929D01*
X564643Y-2658643D01*
X564643Y-2687214D01*
X750357Y-2515786D02*
X721786Y-2501500D01*
X707500Y-2487214D01*
X693214Y-2458643D01*
X693214Y-2444357D01*
X707500Y-2415786D01*
X721786Y-2401500D01*
X750357Y-2387214D01*
X807500Y-2387214D01*
X836071Y-2401500D01*
X850357Y-2415786D01*
X864643Y-2444357D01*
X864643Y-2458643D01*
X850357Y-2487214D01*
X836071Y-2501500D01*
X807500Y-2515786D01*
X750357Y-2515786D01*
X721786Y-2530072D01*
X707500Y-2544357D01*
X693214Y-2572929D01*
X693214Y-2630072D01*
X707500Y-2658643D01*
X721786Y-2672929D01*
X750357Y-2687214D01*
X807500Y-2687214D01*
X836071Y-2672929D01*
X850357Y-2658643D01*
X864643Y-2630072D01*
X864643Y-2572929D01*
X850357Y-2544357D01*
X836071Y-2530072D01*
X807500Y-2515786D01*
X1136071Y-2387214D02*
X993214Y-2387214D01*
X978928Y-2530072D01*
X993214Y-2515786D01*
X1021786Y-2501500D01*
X1093214Y-2501500D01*
X1121786Y-2515786D01*
X1136071Y-2530072D01*
X1150357Y-2558643D01*
X1150357Y-2630072D01*
X1136071Y-2658643D01*
X1121786Y-2672929D01*
X1093214Y-2687214D01*
X1021786Y-2687214D01*
X993214Y-2672929D01*
X978928Y-2658643D01*
X1278928Y-2687214D02*
X1278928Y-2487214D01*
X1278928Y-2515786D02*
X1293214Y-2501500D01*
X1321786Y-2487214D01*
X1364643Y-2487214D01*
X1393214Y-2501500D01*
X1407500Y-2530072D01*
X1407500Y-2687214D01*
X1407500Y-2530072D02*
X1421786Y-2501500D01*
X1450357Y-2487214D01*
X1493214Y-2487214D01*
X1521786Y-2501500D01*
X1536071Y-2530072D01*
X1536071Y-2687214D01*
X1678928Y-2687214D02*
X1678928Y-2487214D01*
X1678928Y-2515786D02*
X1693214Y-2501500D01*
X1721786Y-2487214D01*
X1764643Y-2487214D01*
X1793214Y-2501500D01*
X1807500Y-2530072D01*
X1807500Y-2687214D01*
X1807500Y-2530072D02*
X1821786Y-2501500D01*
X1850357Y-2487214D01*
X1893214Y-2487214D01*
X1921786Y-2501500D01*
X1936071Y-2530072D01*
X1936071Y-2687214D01*
X2521786Y-2372929D02*
X2264643Y-2758643D01*
X2907500Y-2387214D02*
X2936071Y-2387214D01*
X2964643Y-2401500D01*
X2978928Y-2415786D01*
X2993214Y-2444357D01*
X3007500Y-2501500D01*
X3007500Y-2572929D01*
X2993214Y-2630072D01*
X2978928Y-2658643D01*
X2964643Y-2672929D01*
X2936071Y-2687214D01*
X2907500Y-2687214D01*
X2878928Y-2672929D01*
X2864643Y-2658643D01*
X2850357Y-2630072D01*
X2836071Y-2572929D01*
X2836071Y-2501500D01*
X2850357Y-2444357D01*
X2864643Y-2415786D01*
X2878928Y-2401500D01*
X2907500Y-2387214D01*
X3136071Y-2658643D02*
X3150357Y-2672929D01*
X3136071Y-2687214D01*
X3121786Y-2672929D01*
X3136071Y-2658643D01*
X3136071Y-2687214D01*
X3336071Y-2387214D02*
X3364643Y-2387214D01*
X3393214Y-2401500D01*
X3407500Y-2415786D01*
X3421786Y-2444357D01*
X3436071Y-2501500D01*
X3436071Y-2572929D01*
X3421786Y-2630072D01*
X3407500Y-2658643D01*
X3393214Y-2672929D01*
X3364643Y-2687214D01*
X3336071Y-2687214D01*
X3307500Y-2672929D01*
X3293214Y-2658643D01*
X3278928Y-2630072D01*
X3264643Y-2572929D01*
X3264643Y-2501500D01*
X3278928Y-2444357D01*
X3293214Y-2415786D01*
X3307500Y-2401500D01*
X3336071Y-2387214D01*
X3536071Y-2387214D02*
X3721786Y-2387214D01*
X3621786Y-2501500D01*
X3664643Y-2501500D01*
X3693214Y-2515786D01*
X3707500Y-2530072D01*
X3721786Y-2558643D01*
X3721786Y-2630072D01*
X3707500Y-2658643D01*
X3693214Y-2672929D01*
X3664643Y-2687214D01*
X3578928Y-2687214D01*
X3550357Y-2672929D01*
X3536071Y-2658643D01*
X3821786Y-2387214D02*
X4007500Y-2387214D01*
X3907500Y-2501500D01*
X3950357Y-2501500D01*
X3978928Y-2515786D01*
X3993214Y-2530072D01*
X4007500Y-2558643D01*
X4007500Y-2630072D01*
X3993214Y-2658643D01*
X3978928Y-2672929D01*
X3950357Y-2687214D01*
X3864643Y-2687214D01*
X3836071Y-2672929D01*
X3821786Y-2658643D01*
X4121786Y-2387214D02*
X4121786Y-2444357D01*
X4236071Y-2387214D02*
X4236071Y-2444357D01*
X4678928Y-2801500D02*
X4664643Y-2787214D01*
X4636071Y-2744357D01*
X4621786Y-2715786D01*
X4607500Y-2672929D01*
X4593214Y-2601500D01*
X4593214Y-2544357D01*
X4607500Y-2472929D01*
X4621786Y-2430072D01*
X4636071Y-2401500D01*
X4664643Y-2358643D01*
X4678928Y-2344357D01*
X4778928Y-2415786D02*
X4793214Y-2401500D01*
X4821786Y-2387214D01*
X4893214Y-2387214D01*
X4921786Y-2401500D01*
X4936071Y-2415786D01*
X4950357Y-2444357D01*
X4950357Y-2472929D01*
X4936071Y-2515786D01*
X4764643Y-2687214D01*
X4950357Y-2687214D01*
X5121786Y-2515786D02*
X5093214Y-2501500D01*
X5078928Y-2487214D01*
X5064643Y-2458643D01*
X5064643Y-2444357D01*
X5078928Y-2415786D01*
X5093214Y-2401500D01*
X5121786Y-2387214D01*
X5178928Y-2387214D01*
X5207500Y-2401500D01*
X5221786Y-2415786D01*
X5236071Y-2444357D01*
X5236071Y-2458643D01*
X5221786Y-2487214D01*
X5207500Y-2501500D01*
X5178928Y-2515786D01*
X5121786Y-2515786D01*
X5093214Y-2530072D01*
X5078928Y-2544357D01*
X5064643Y-2572929D01*
X5064643Y-2630072D01*
X5078928Y-2658643D01*
X5093214Y-2672929D01*
X5121786Y-2687214D01*
X5178928Y-2687214D01*
X5207500Y-2672929D01*
X5221786Y-2658643D01*
X5236071Y-2630072D01*
X5236071Y-2572929D01*
X5221786Y-2544357D01*
X5207500Y-2530072D01*
X5178928Y-2515786D01*
X5593214Y-2687214D02*
X5593214Y-2387214D01*
X5721786Y-2687214D02*
X5721786Y-2530072D01*
X5707500Y-2501500D01*
X5678928Y-2487214D01*
X5636071Y-2487214D01*
X5607500Y-2501500D01*
X5593214Y-2515786D01*
X5907500Y-2687214D02*
X5878928Y-2672929D01*
X5864643Y-2658643D01*
X5850357Y-2630072D01*
X5850357Y-2544357D01*
X5864643Y-2515786D01*
X5878928Y-2501500D01*
X5907500Y-2487214D01*
X5950357Y-2487214D01*
X5978928Y-2501500D01*
X5993214Y-2515786D01*
X6007500Y-2544357D01*
X6007500Y-2630072D01*
X5993214Y-2658643D01*
X5978928Y-2672929D01*
X5950357Y-2687214D01*
X5907500Y-2687214D01*
X6178928Y-2687214D02*
X6150357Y-2672929D01*
X6136071Y-2644357D01*
X6136071Y-2387214D01*
X6407500Y-2672929D02*
X6378928Y-2687214D01*
X6321786Y-2687214D01*
X6293214Y-2672929D01*
X6278928Y-2644357D01*
X6278928Y-2530072D01*
X6293214Y-2501500D01*
X6321786Y-2487214D01*
X6378928Y-2487214D01*
X6407500Y-2501500D01*
X6421786Y-2530072D01*
X6421786Y-2558643D01*
X6278928Y-2587214D01*
X6536071Y-2672929D02*
X6564643Y-2687214D01*
X6621786Y-2687214D01*
X6650357Y-2672929D01*
X6664643Y-2644357D01*
X6664643Y-2630072D01*
X6650357Y-2601500D01*
X6621786Y-2587214D01*
X6578928Y-2587214D01*
X6550357Y-2572929D01*
X6536071Y-2544357D01*
X6536071Y-2530072D01*
X6550357Y-2501500D01*
X6578928Y-2487214D01*
X6621786Y-2487214D01*
X6650357Y-2501500D01*
X6764643Y-2801500D02*
X6778928Y-2787214D01*
X6807500Y-2744357D01*
X6821786Y-2715786D01*
X6836071Y-2672929D01*
X6850357Y-2601500D01*
X6850357Y-2544357D01*
X6836071Y-2472929D01*
X6821786Y-2430072D01*
X6807500Y-2401500D01*
X6778928Y-2358643D01*
X6764643Y-2344357D01*
X-97500Y-2902500D02*
X-7500Y-2992500D01*
X-7500Y-2902500D02*
X-97500Y-2992500D01*
X-7500Y-2947500D02*
G75*
G03X-7500Y-2947500I-45000J0D01*
G01*
X336071Y-2783214D02*
X364643Y-2783214D01*
X393214Y-2797500D01*
X407500Y-2811786D01*
X421786Y-2840357D01*
X436071Y-2897500D01*
X436071Y-2968929D01*
X421786Y-3026071D01*
X407500Y-3054643D01*
X393214Y-3068929D01*
X364643Y-3083214D01*
X336071Y-3083214D01*
X307500Y-3068929D01*
X293214Y-3054643D01*
X278928Y-3026071D01*
X264643Y-2968929D01*
X264643Y-2897500D01*
X278928Y-2840357D01*
X293214Y-2811786D01*
X307500Y-2797500D01*
X336071Y-2783214D01*
X564643Y-3054643D02*
X578928Y-3068929D01*
X564643Y-3083214D01*
X550357Y-3068929D01*
X564643Y-3054643D01*
X564643Y-3083214D01*
X721786Y-3083214D02*
X778928Y-3083214D01*
X807500Y-3068929D01*
X821786Y-3054643D01*
X850357Y-3011786D01*
X864643Y-2954643D01*
X864643Y-2840357D01*
X850357Y-2811786D01*
X836071Y-2797500D01*
X807500Y-2783214D01*
X750357Y-2783214D01*
X721786Y-2797500D01*
X707500Y-2811786D01*
X693214Y-2840357D01*
X693214Y-2911786D01*
X707500Y-2940357D01*
X721786Y-2954643D01*
X750357Y-2968929D01*
X807500Y-2968929D01*
X836071Y-2954643D01*
X850357Y-2940357D01*
X864643Y-2911786D01*
X1050357Y-2783214D02*
X1078928Y-2783214D01*
X1107500Y-2797500D01*
X1121786Y-2811786D01*
X1136071Y-2840357D01*
X1150357Y-2897500D01*
X1150357Y-2968929D01*
X1136071Y-3026071D01*
X1121786Y-3054643D01*
X1107500Y-3068929D01*
X1078928Y-3083214D01*
X1050357Y-3083214D01*
X1021786Y-3068929D01*
X1007500Y-3054643D01*
X993214Y-3026071D01*
X978928Y-2968929D01*
X978928Y-2897500D01*
X993214Y-2840357D01*
X1007500Y-2811786D01*
X1021786Y-2797500D01*
X1050357Y-2783214D01*
X1278928Y-3083214D02*
X1278928Y-2883214D01*
X1278928Y-2911786D02*
X1293214Y-2897500D01*
X1321786Y-2883214D01*
X1364643Y-2883214D01*
X1393214Y-2897500D01*
X1407500Y-2926071D01*
X1407500Y-3083214D01*
X1407500Y-2926071D02*
X1421786Y-2897500D01*
X1450357Y-2883214D01*
X1493214Y-2883214D01*
X1521786Y-2897500D01*
X1536071Y-2926071D01*
X1536071Y-3083214D01*
X1678928Y-3083214D02*
X1678928Y-2883214D01*
X1678928Y-2911786D02*
X1693214Y-2897500D01*
X1721786Y-2883214D01*
X1764643Y-2883214D01*
X1793214Y-2897500D01*
X1807500Y-2926071D01*
X1807500Y-3083214D01*
X1807500Y-2926071D02*
X1821786Y-2897500D01*
X1850357Y-2883214D01*
X1893214Y-2883214D01*
X1921786Y-2897500D01*
X1936071Y-2926071D01*
X1936071Y-3083214D01*
X2521786Y-2768929D02*
X2264643Y-3154643D01*
X2907500Y-2783214D02*
X2936071Y-2783214D01*
X2964643Y-2797500D01*
X2978928Y-2811786D01*
X2993214Y-2840357D01*
X3007500Y-2897500D01*
X3007500Y-2968929D01*
X2993214Y-3026071D01*
X2978928Y-3054643D01*
X2964643Y-3068929D01*
X2936071Y-3083214D01*
X2907500Y-3083214D01*
X2878928Y-3068929D01*
X2864643Y-3054643D01*
X2850357Y-3026071D01*
X2836071Y-2968929D01*
X2836071Y-2897500D01*
X2850357Y-2840357D01*
X2864643Y-2811786D01*
X2878928Y-2797500D01*
X2907500Y-2783214D01*
X3136071Y-3054643D02*
X3150357Y-3068929D01*
X3136071Y-3083214D01*
X3121786Y-3068929D01*
X3136071Y-3054643D01*
X3136071Y-3083214D01*
X3336071Y-2783214D02*
X3364643Y-2783214D01*
X3393214Y-2797500D01*
X3407500Y-2811786D01*
X3421786Y-2840357D01*
X3436071Y-2897500D01*
X3436071Y-2968929D01*
X3421786Y-3026071D01*
X3407500Y-3054643D01*
X3393214Y-3068929D01*
X3364643Y-3083214D01*
X3336071Y-3083214D01*
X3307500Y-3068929D01*
X3293214Y-3054643D01*
X3278928Y-3026071D01*
X3264643Y-2968929D01*
X3264643Y-2897500D01*
X3278928Y-2840357D01*
X3293214Y-2811786D01*
X3307500Y-2797500D01*
X3336071Y-2783214D01*
X3536071Y-2783214D02*
X3721786Y-2783214D01*
X3621786Y-2897500D01*
X3664643Y-2897500D01*
X3693214Y-2911786D01*
X3707500Y-2926071D01*
X3721786Y-2954643D01*
X3721786Y-3026071D01*
X3707500Y-3054643D01*
X3693214Y-3068929D01*
X3664643Y-3083214D01*
X3578928Y-3083214D01*
X3550357Y-3068929D01*
X3536071Y-3054643D01*
X3993214Y-2783214D02*
X3850357Y-2783214D01*
X3836071Y-2926071D01*
X3850357Y-2911786D01*
X3878928Y-2897500D01*
X3950357Y-2897500D01*
X3978928Y-2911786D01*
X3993214Y-2926071D01*
X4007500Y-2954643D01*
X4007500Y-3026071D01*
X3993214Y-3054643D01*
X3978928Y-3068929D01*
X3950357Y-3083214D01*
X3878928Y-3083214D01*
X3850357Y-3068929D01*
X3836071Y-3054643D01*
X4121786Y-2783214D02*
X4121786Y-2840357D01*
X4236071Y-2783214D02*
X4236071Y-2840357D01*
X4678928Y-3197500D02*
X4664643Y-3183214D01*
X4636071Y-3140357D01*
X4621786Y-3111786D01*
X4607500Y-3068929D01*
X4593214Y-2997500D01*
X4593214Y-2940357D01*
X4607500Y-2868929D01*
X4621786Y-2826071D01*
X4636071Y-2797500D01*
X4664643Y-2754643D01*
X4678928Y-2740357D01*
X4921786Y-2883214D02*
X4921786Y-3083214D01*
X4850357Y-2768929D02*
X4778928Y-2983214D01*
X4964643Y-2983214D01*
X5307500Y-3083214D02*
X5307500Y-2783214D01*
X5436071Y-3083214D02*
X5436071Y-2926071D01*
X5421786Y-2897500D01*
X5393214Y-2883214D01*
X5350357Y-2883214D01*
X5321786Y-2897500D01*
X5307500Y-2911786D01*
X5621786Y-3083214D02*
X5593214Y-3068929D01*
X5578928Y-3054643D01*
X5564643Y-3026071D01*
X5564643Y-2940357D01*
X5578928Y-2911786D01*
X5593214Y-2897500D01*
X5621786Y-2883214D01*
X5664643Y-2883214D01*
X5693214Y-2897500D01*
X5707500Y-2911786D01*
X5721786Y-2940357D01*
X5721786Y-3026071D01*
X5707500Y-3054643D01*
X5693214Y-3068929D01*
X5664643Y-3083214D01*
X5621786Y-3083214D01*
X5893214Y-3083214D02*
X5864643Y-3068929D01*
X5850357Y-3040357D01*
X5850357Y-2783214D01*
X6121786Y-3068929D02*
X6093214Y-3083214D01*
X6036071Y-3083214D01*
X6007500Y-3068929D01*
X5993214Y-3040357D01*
X5993214Y-2926071D01*
X6007500Y-2897500D01*
X6036071Y-2883214D01*
X6093214Y-2883214D01*
X6121786Y-2897500D01*
X6136071Y-2926071D01*
X6136071Y-2954643D01*
X5993214Y-2983214D01*
X6250357Y-3068929D02*
X6278928Y-3083214D01*
X6336071Y-3083214D01*
X6364643Y-3068929D01*
X6378928Y-3040357D01*
X6378928Y-3026071D01*
X6364643Y-2997500D01*
X6336071Y-2983214D01*
X6293214Y-2983214D01*
X6264643Y-2968929D01*
X6250357Y-2940357D01*
X6250357Y-2926071D01*
X6264643Y-2897500D01*
X6293214Y-2883214D01*
X6336071Y-2883214D01*
X6364643Y-2897500D01*
X6478928Y-3197500D02*
X6493214Y-3183214D01*
X6521786Y-3140357D01*
X6536071Y-3111786D01*
X6550357Y-3068929D01*
X6564643Y-2997500D01*
X6564643Y-2940357D01*
X6550357Y-2868929D01*
X6536071Y-2826071D01*
X6521786Y-2797500D01*
X6493214Y-2754643D01*
X6478928Y-2740357D01*
X-147500Y-3273500D02*
X-7500Y-3413500D01*
X-7500Y-3273500D02*
X-147500Y-3413500D01*
X-77500Y-3273500D02*
X-77500Y-3413500D01*
X-147500Y-3343500D02*
X-7500Y-3343500D01*
X436071Y-3479214D02*
X264643Y-3479214D01*
X350357Y-3479214D02*
X350357Y-3179214D01*
X321786Y-3222071D01*
X293214Y-3250643D01*
X264643Y-3264929D01*
X564643Y-3450643D02*
X578928Y-3464929D01*
X564643Y-3479214D01*
X550357Y-3464929D01*
X564643Y-3450643D01*
X564643Y-3479214D01*
X836071Y-3279214D02*
X836071Y-3479214D01*
X764643Y-3164929D02*
X693214Y-3379214D01*
X878928Y-3379214D01*
X1050357Y-3179214D02*
X1078928Y-3179214D01*
X1107500Y-3193500D01*
X1121786Y-3207786D01*
X1136071Y-3236357D01*
X1150357Y-3293500D01*
X1150357Y-3364929D01*
X1136071Y-3422071D01*
X1121786Y-3450643D01*
X1107500Y-3464929D01*
X1078928Y-3479214D01*
X1050357Y-3479214D01*
X1021786Y-3464929D01*
X1007500Y-3450643D01*
X993214Y-3422071D01*
X978928Y-3364929D01*
X978928Y-3293500D01*
X993214Y-3236357D01*
X1007500Y-3207786D01*
X1021786Y-3193500D01*
X1050357Y-3179214D01*
X1278928Y-3479214D02*
X1278928Y-3279214D01*
X1278928Y-3307786D02*
X1293214Y-3293500D01*
X1321786Y-3279214D01*
X1364643Y-3279214D01*
X1393214Y-3293500D01*
X1407500Y-3322071D01*
X1407500Y-3479214D01*
X1407500Y-3322071D02*
X1421786Y-3293500D01*
X1450357Y-3279214D01*
X1493214Y-3279214D01*
X1521786Y-3293500D01*
X1536071Y-3322071D01*
X1536071Y-3479214D01*
X1678928Y-3479214D02*
X1678928Y-3279214D01*
X1678928Y-3307786D02*
X1693214Y-3293500D01*
X1721786Y-3279214D01*
X1764643Y-3279214D01*
X1793214Y-3293500D01*
X1807500Y-3322071D01*
X1807500Y-3479214D01*
X1807500Y-3322071D02*
X1821786Y-3293500D01*
X1850357Y-3279214D01*
X1893214Y-3279214D01*
X1921786Y-3293500D01*
X1936071Y-3322071D01*
X1936071Y-3479214D01*
X2521786Y-3164929D02*
X2264643Y-3550643D01*
X2907500Y-3179214D02*
X2936071Y-3179214D01*
X2964643Y-3193500D01*
X2978928Y-3207786D01*
X2993214Y-3236357D01*
X3007500Y-3293500D01*
X3007500Y-3364929D01*
X2993214Y-3422071D01*
X2978928Y-3450643D01*
X2964643Y-3464929D01*
X2936071Y-3479214D01*
X2907500Y-3479214D01*
X2878928Y-3464929D01*
X2864643Y-3450643D01*
X2850357Y-3422071D01*
X2836071Y-3364929D01*
X2836071Y-3293500D01*
X2850357Y-3236357D01*
X2864643Y-3207786D01*
X2878928Y-3193500D01*
X2907500Y-3179214D01*
X3136071Y-3450643D02*
X3150357Y-3464929D01*
X3136071Y-3479214D01*
X3121786Y-3464929D01*
X3136071Y-3450643D01*
X3136071Y-3479214D01*
X3336071Y-3179214D02*
X3364643Y-3179214D01*
X3393214Y-3193500D01*
X3407500Y-3207786D01*
X3421786Y-3236357D01*
X3436071Y-3293500D01*
X3436071Y-3364929D01*
X3421786Y-3422071D01*
X3407500Y-3450643D01*
X3393214Y-3464929D01*
X3364643Y-3479214D01*
X3336071Y-3479214D01*
X3307500Y-3464929D01*
X3293214Y-3450643D01*
X3278928Y-3422071D01*
X3264643Y-3364929D01*
X3264643Y-3293500D01*
X3278928Y-3236357D01*
X3293214Y-3207786D01*
X3307500Y-3193500D01*
X3336071Y-3179214D01*
X3707500Y-3179214D02*
X3564643Y-3179214D01*
X3550357Y-3322071D01*
X3564643Y-3307786D01*
X3593214Y-3293500D01*
X3664643Y-3293500D01*
X3693214Y-3307786D01*
X3707500Y-3322071D01*
X3721786Y-3350643D01*
X3721786Y-3422071D01*
X3707500Y-3450643D01*
X3693214Y-3464929D01*
X3664643Y-3479214D01*
X3593214Y-3479214D01*
X3564643Y-3464929D01*
X3550357Y-3450643D01*
X3993214Y-3179214D02*
X3850357Y-3179214D01*
X3836071Y-3322071D01*
X3850357Y-3307786D01*
X3878928Y-3293500D01*
X3950357Y-3293500D01*
X3978928Y-3307786D01*
X3993214Y-3322071D01*
X4007500Y-3350643D01*
X4007500Y-3422071D01*
X3993214Y-3450643D01*
X3978928Y-3464929D01*
X3950357Y-3479214D01*
X3878928Y-3479214D01*
X3850357Y-3464929D01*
X3836071Y-3450643D01*
X4121786Y-3179214D02*
X4121786Y-3236357D01*
X4236071Y-3179214D02*
X4236071Y-3236357D01*
X4678928Y-3593500D02*
X4664643Y-3579214D01*
X4636071Y-3536357D01*
X4621786Y-3507786D01*
X4607500Y-3464929D01*
X4593214Y-3393500D01*
X4593214Y-3336357D01*
X4607500Y-3264929D01*
X4621786Y-3222071D01*
X4636071Y-3193500D01*
X4664643Y-3150643D01*
X4678928Y-3136357D01*
X4778928Y-3207786D02*
X4793214Y-3193500D01*
X4821786Y-3179214D01*
X4893214Y-3179214D01*
X4921786Y-3193500D01*
X4936071Y-3207786D01*
X4950357Y-3236357D01*
X4950357Y-3264929D01*
X4936071Y-3307786D01*
X4764643Y-3479214D01*
X4950357Y-3479214D01*
X5121786Y-3307786D02*
X5093214Y-3293500D01*
X5078928Y-3279214D01*
X5064643Y-3250643D01*
X5064643Y-3236357D01*
X5078928Y-3207786D01*
X5093214Y-3193500D01*
X5121786Y-3179214D01*
X5178928Y-3179214D01*
X5207500Y-3193500D01*
X5221786Y-3207786D01*
X5236071Y-3236357D01*
X5236071Y-3250643D01*
X5221786Y-3279214D01*
X5207500Y-3293500D01*
X5178928Y-3307786D01*
X5121786Y-3307786D01*
X5093214Y-3322071D01*
X5078928Y-3336357D01*
X5064643Y-3364929D01*
X5064643Y-3422071D01*
X5078928Y-3450643D01*
X5093214Y-3464929D01*
X5121786Y-3479214D01*
X5178928Y-3479214D01*
X5207500Y-3464929D01*
X5221786Y-3450643D01*
X5236071Y-3422071D01*
X5236071Y-3364929D01*
X5221786Y-3336357D01*
X5207500Y-3322071D01*
X5178928Y-3307786D01*
X5593214Y-3479214D02*
X5593214Y-3179214D01*
X5721786Y-3479214D02*
X5721786Y-3322071D01*
X5707500Y-3293500D01*
X5678928Y-3279214D01*
X5636071Y-3279214D01*
X5607500Y-3293500D01*
X5593214Y-3307786D01*
X5907500Y-3479214D02*
X5878928Y-3464929D01*
X5864643Y-3450643D01*
X5850357Y-3422071D01*
X5850357Y-3336357D01*
X5864643Y-3307786D01*
X5878928Y-3293500D01*
X5907500Y-3279214D01*
X5950357Y-3279214D01*
X5978928Y-3293500D01*
X5993214Y-3307786D01*
X6007500Y-3336357D01*
X6007500Y-3422071D01*
X5993214Y-3450643D01*
X5978928Y-3464929D01*
X5950357Y-3479214D01*
X5907500Y-3479214D01*
X6178928Y-3479214D02*
X6150357Y-3464929D01*
X6136071Y-3436357D01*
X6136071Y-3179214D01*
X6407500Y-3464929D02*
X6378928Y-3479214D01*
X6321786Y-3479214D01*
X6293214Y-3464929D01*
X6278928Y-3436357D01*
X6278928Y-3322071D01*
X6293214Y-3293500D01*
X6321786Y-3279214D01*
X6378928Y-3279214D01*
X6407500Y-3293500D01*
X6421786Y-3322071D01*
X6421786Y-3350643D01*
X6278928Y-3379214D01*
X6536071Y-3464929D02*
X6564643Y-3479214D01*
X6621786Y-3479214D01*
X6650357Y-3464929D01*
X6664643Y-3436357D01*
X6664643Y-3422071D01*
X6650357Y-3393500D01*
X6621786Y-3379214D01*
X6578928Y-3379214D01*
X6550357Y-3364929D01*
X6536071Y-3336357D01*
X6536071Y-3322071D01*
X6550357Y-3293500D01*
X6578928Y-3279214D01*
X6621786Y-3279214D01*
X6650357Y-3293500D01*
X6764643Y-3593500D02*
X6778928Y-3579214D01*
X6807500Y-3536357D01*
X6821786Y-3507786D01*
X6836071Y-3464929D01*
X6850357Y-3393500D01*
X6850357Y-3336357D01*
X6836071Y-3264929D01*
X6821786Y-3222071D01*
X6807500Y-3193500D01*
X6778928Y-3150643D01*
X6764643Y-3136357D01*
M02*
