M48
;DRILL file {KiCad (2017-09-01 revision 8d1475135)-makepkg} date 12/27/17 16:40:31
;FORMAT={2:4/ absolute / inch / suppress leading zeros}
FMAT,2
INCH,TZ
T1C0.016
T2C0.024
T3C0.031
T4C0.032
T5C0.033
T6C0.035
T7C0.055
%
G90
G05
M72
T1
X1000Y15200
X1500Y10500
X1975Y14800
X2000Y12200
X2400Y8700
X2400Y3500
X2400Y1000
X2800Y14000
X2800Y7000
X4500Y15200
X4500Y8700
X4500Y6000
X5000Y9100
X5500Y1800
X6500Y14800
X6600Y8800
X7000Y14000
X7000Y5000
X7800Y11200
X7800Y5000
X9200Y10100
X9200Y7000
X9700Y8000
X9700Y4500
X9800Y8800
X10500Y8400
X11000Y14000
X13500Y11600
X16500Y9100
X18200Y11800
X18200Y8000
X18300Y6000
X19000Y6500
X19300Y8400
X20500Y1000
X20800Y11700
X21300Y5900
T2
X20000Y7000
X20000Y6000
X20500Y6500
T3
X10540Y10100
X10540Y7100
X11540Y10100
X11540Y7100
X12540Y10100
X12540Y7100
X13540Y10100
X13540Y7100
X14540Y10100
X14540Y7100
X15540Y10100
X15540Y7100
X16540Y10100
X16540Y7100
X13540Y5500
X13540Y4500
X13540Y3500
X13540Y2500
X7000Y11250
X7000Y10266
X17531Y14275
X19500Y14275
X15540Y5500
X15540Y4500
X15540Y3500
X15540Y2500
X10540Y810
X11540Y810
X12540Y810
X13540Y810
X14540Y810
X15540Y810
X16540Y810
X14540Y5500
X14540Y4500
X14540Y3500
X14540Y2500
X5500Y8000
X5500Y7000
X5500Y6000
X5500Y5000
X8500Y8000
X8500Y7000
X8500Y6000
X8500Y5000
X19350Y4515
X19350Y3515
X19350Y2515
X19350Y1515
X22750Y11750
X22750Y10766
X11540Y5500
X11540Y4500
X11540Y3500
X11540Y2500
X16540Y5500
X16540Y4500
X16540Y3500
X16540Y2500
X10540Y5500
X10540Y4500
X10540Y3500
X10540Y2500
X19000Y11750
X19000Y10766
X7000Y2750
X7000Y1766
X17690Y5500
X17690Y4500
X17690Y3500
X17690Y2500
X12540Y5500
X12540Y4500
X12540Y3500
X12540Y2500
T4
X750Y12250
X3750Y12250
X750Y10500
X3750Y10500
X20425Y14275
X23425Y14275
X750Y8750
X3750Y8750
X9750Y12250
X12750Y12250
X21250Y4000
X21250Y1000
X750Y14000
X3750Y14000
X9750Y14000
X12750Y14000
T5
X23000Y7000
X23000Y6000
X23000Y2000
X23000Y1000
X1500Y7000
X1500Y6000
X22500Y16000
X23500Y16000
X1500Y2000
X1500Y1000
X9000Y16000
X10000Y16000
X11000Y16000
X17975Y16000
X18975Y16000
X19975Y16000
X23000Y4500
X23000Y3500
X1500Y4500
X1500Y3500
X4500Y16000
X5500Y16000
X6500Y16000
X13475Y16000
X14475Y16000
X15475Y16000
X975Y16000
X1975Y16000
T6
X5500Y14000
X8500Y14000
X20750Y8750
X23750Y8750
T7
X750Y7000
X750Y6000
X22500Y16750
X23500Y16750
X750Y2000
X750Y1000
X9000Y16750
X10000Y16750
X11000Y16750
X17975Y16750
X18975Y16750
X19975Y16750
X23750Y4500
X23750Y3500
X750Y4500
X750Y3500
X4500Y16750
X5500Y16750
X6500Y16750
X13475Y16750
X14475Y16750
X15475Y16750
X975Y16750
X1975Y16750
X23750Y7000
X23750Y6000
X23750Y2000
X23750Y1000
T0
M30
