M48
;DRILL file {KiCad (2017-11-10 revision 636298b5d)-pre-sym-lib} date Thursday, December 14, 2017 'PMt' 04:52:29 PM
;FORMAT={2:4/ absolute / inch / suppress leading zeros}
FMAT,2
INCH,TZ
T1C0.016
T2C0.024
T3C0.031
T4C0.032
T5C0.033
T6C0.035
T7C0.055
%
G90
G05
M72
T1
X1000Y14750
X1500Y10500
X2000Y15250
X2000Y12250
X2200Y9400
X2500Y8750
X2500Y3500
X2500Y1000
X3000Y4500
X3000Y2000
X4500Y14750
X4800Y11600
X4800Y7000
X5600Y1800
X6500Y15250
X7000Y14000
X7000Y5000
X7500Y8000
X7500Y4500
X7800Y11300
X7800Y5000
X8500Y11700
X9000Y15250
X9200Y10100
X9200Y7000
X9700Y10800
X9700Y2800
X12600Y16000
X13400Y12200
X13600Y10800
X17800Y13400
X18300Y11700
X18400Y5800
X18900Y6200
X18900Y4200
X19300Y6500
X20100Y13400
X20500Y1000
X20700Y11800
X21300Y6000
X22100Y4500
X22200Y7000
X24200Y15300
X24250Y10750
T2
X20000Y7000
X20000Y6000
X20500Y6500
T3
X7000Y2750
X7000Y1766
X10550Y5450
X10550Y4450
X10550Y3450
X10550Y2450
X11550Y5450
X11550Y4450
X11550Y3450
X11550Y2450
X17531Y14250
X19500Y14250
X10550Y800
X11550Y800
X12550Y800
X13550Y800
X14550Y800
X15550Y800
X16550Y800
X13550Y5450
X13550Y4450
X13550Y3450
X13550Y2450
X14550Y5450
X14550Y4450
X14550Y3450
X14550Y2450
X16550Y5450
X16550Y4450
X16550Y3450
X16550Y2450
X8500Y6000
X19500Y4250
X19500Y3250
X19500Y2250
X19500Y1250
X5500Y8000
X5500Y7000
X5500Y6000
X5500Y5000
X8500Y8000
X8500Y7000
X8500Y5000
X15550Y5450
X15550Y4450
X15550Y3450
X15550Y2450
X17700Y5450
X17700Y4450
X17700Y3450
X17700Y2450
X12550Y5450
X12550Y4450
X12550Y3450
X10550Y10100
X11550Y10100
X11550Y7100
X12550Y10100
X12550Y7100
X13550Y10100
X13550Y7100
X14550Y10100
X14550Y7100
X15550Y10100
X15550Y7100
X16550Y7100
X7000Y11250
X7000Y10266
X19000Y11750
X10550Y7100
X16550Y10100
X12550Y2450
X22750Y11750
X22750Y10766
X19000Y10766
T4
X9750Y14000
X12750Y14000
X20750Y14250
X23750Y14250
X750Y10500
X750Y12250
X3750Y12250
X750Y8750
X3750Y8750
X21250Y4000
X21250Y1000
X3750Y10500
X750Y14000
X3750Y14000
X9750Y12250
X12750Y12250
T5
X1500Y4500
X1500Y3500
X2000Y16000
X23000Y7000
X23000Y6000
X23000Y4500
X23000Y3500
X1500Y2000
X1500Y1000
X13500Y16000
X14500Y16000
X15500Y16000
X23000Y2000
X23000Y1000
X18000Y16000
X19000Y16000
X20000Y16000
X4500Y16000
X5500Y16000
X6500Y16000
X1500Y7000
X1500Y6000
X9000Y16000
X10000Y16000
X11000Y16000
X22500Y16000
X23500Y16000
X1000Y16000
T6
X20750Y8750
X5500Y14000
X8500Y14000
X23750Y8750
T7
X23750Y4500
X23750Y3500
X750Y2000
X750Y1000
X15500Y16750
X18000Y16750
X19000Y16750
X20000Y16750
X13500Y16750
X14500Y16750
X23750Y2000
X23750Y1000
X4500Y16750
X5500Y16750
X6500Y16750
X750Y7000
X750Y6000
X9000Y16750
X10000Y16750
X11000Y16750
X22500Y16750
X23500Y16750
X1000Y16750
X2000Y16750
X750Y3500
X23750Y7000
X23750Y6000
X750Y4500
T0
M30
