%TF.GenerationSoftware,KiCad,Pcbnew,(2017-11-10 revision 636298b5d)-pre-sym-lib*%
%TF.CreationDate,2017-12-14T16:50:35-08:00*%
%TF.ProjectId,workshop_drum1,776F726B73686F705F6472756D312E6B,rev?*%
%TF.SameCoordinates,Original*%
%TF.FileFunction,Copper,L1,Top,Signal*%
%TF.FilePolarity,Positive*%
%FSLAX46Y46*%
G04 Gerber Fmt 4.6, Leading zero omitted, Abs format (unit mm)*
G04 Created by KiCad (PCBNEW (2017-11-10 revision 636298b5d)-pre-sym-lib) date Thursday, December 14, 2017 'PMt' 04:50:35 PM*
%MOMM*%
%LPD*%
G01*
G04 APERTURE LIST*
%TA.AperFunction,ComponentPad*%
%ADD10R,1.600000X1.600000*%
%TD*%
%TA.AperFunction,ComponentPad*%
%ADD11O,1.600000X1.600000*%
%TD*%
%TA.AperFunction,ComponentPad*%
%ADD12C,1.524000*%
%TD*%
%TA.AperFunction,ComponentPad*%
%ADD13C,1.600000*%
%TD*%
%TA.AperFunction,ComponentPad*%
%ADD14O,1.800000X1.800000*%
%TD*%
%TA.AperFunction,ComponentPad*%
%ADD15R,1.800000X1.800000*%
%TD*%
%TA.AperFunction,ComponentPad*%
%ADD16C,1.397000*%
%TD*%
%TA.AperFunction,ComponentPad*%
%ADD17R,1.000000X1.000000*%
%TD*%
%TA.AperFunction,ComponentPad*%
%ADD18C,1.000000*%
%TD*%
%TA.AperFunction,ViaPad*%
%ADD19C,0.800000*%
%TD*%
%TA.AperFunction,Conductor*%
%ADD20C,0.250000*%
%TD*%
G04 APERTURE END LIST*
D10*
%TO.P,GND2,1*%
%TO.N,Net-(GND1-Pad1)*%
X26797000Y2032000D03*
X29337000Y2032000D03*
X31877000Y2032000D03*
X34417000Y2032000D03*
X36957000Y2032000D03*
X39497000Y2032000D03*
X42037000Y2032000D03*
%TD*%
D11*
%TO.P,IN1,1*%
%TO.N,Net-(IN1-Pad1)*%
X26797000Y11303000D03*
X26797000Y8763000D03*
X26797000Y6223000D03*
X26797000Y13843000D03*
%TD*%
%TO.P,OUT3,1*%
%TO.N,Net-(OUT3-Pad1)*%
X39497000Y11303000D03*
X39497000Y8763000D03*
X39497000Y6223000D03*
X39497000Y13843000D03*
%TD*%
%TO.P,OUT2,1*%
%TO.N,Net-(OUT2-Pad1)*%
X34417000Y13843000D03*
X34417000Y6223000D03*
X34417000Y8763000D03*
X34417000Y11303000D03*
%TD*%
%TO.P,OUT1,1*%
%TO.N,Net-(OUT1-Pad1)*%
X29337000Y11303000D03*
X29337000Y8763000D03*
X29337000Y6223000D03*
X29337000Y13843000D03*
%TD*%
%TO.P,OscSwitchStrip1,1*%
%TO.N,Net-(OscSwitchStrip1-Pad1)*%
X44958000Y13843000D03*
X44958000Y6223000D03*
X44958000Y8763000D03*
X44958000Y11303000D03*
%TD*%
%TO.P,IN2,1*%
%TO.N,Net-(IN2-Pad1)*%
X31877000Y13843000D03*
X31877000Y6223000D03*
X31877000Y8763000D03*
X31877000Y11303000D03*
%TD*%
%TO.P,IN3,1*%
%TO.N,Net-(IN3-Pad1)*%
X36957000Y11303000D03*
X36957000Y8763000D03*
X36957000Y6223000D03*
X36957000Y13843000D03*
%TD*%
D12*
%TO.P,ON/OFF_LED1,*%
%TO.N,*%
X60325000Y15240000D03*
X60325000Y17780000D03*
%TO.P,ON/OFF_LED1,1*%
%TO.N,Net-(ON/OFF_LED1-Pad1)*%
X58420000Y15240000D03*
%TO.P,ON/OFF_LED1,2*%
%TO.N,Net-(D1-Pad2)*%
X58420000Y17780000D03*
%TD*%
%TO.P,Trig_LED1,2*%
%TO.N,Net-(Trig_LED1-Pad2)*%
X3810000Y15240000D03*
%TO.P,Trig_LED1,1*%
%TO.N,Net-(R8-Pad2)*%
X3810000Y17780000D03*
%TO.P,Trig_LED1,*%
%TO.N,*%
X1905000Y15240000D03*
X1905000Y17780000D03*
%TD*%
D13*
%TO.P,C5,1*%
%TO.N,Net-(C5-Pad1)*%
X49530000Y36195000D03*
%TO.P,C5,2*%
%TO.N,Net-(C5-Pad2)*%
X44530000Y36195000D03*
%TD*%
%TO.P,C4,2*%
%TO.N,GND*%
X17780000Y4485000D03*
D10*
%TO.P,C4,1*%
%TO.N,Net-(C4-Pad1)*%
X17780000Y6985000D03*
%TD*%
%TO.P,C1,1*%
%TO.N,Net-(C1-Pad1)*%
X57785000Y29845000D03*
D13*
%TO.P,C1,2*%
%TO.N,GND*%
X57785000Y27345000D03*
%TD*%
%TO.P,C2,2*%
%TO.N,GND*%
X17780000Y26075000D03*
D10*
%TO.P,C2,1*%
%TO.N,Net-(C2-Pad1)*%
X17780000Y28575000D03*
%TD*%
%TO.P,C3,1*%
%TO.N,+5V*%
X48260000Y29845000D03*
D13*
%TO.P,C3,2*%
%TO.N,GND*%
X48260000Y27345000D03*
%TD*%
D14*
%TO.P,D2,2*%
%TO.N,Net-(D2-Pad2)*%
X13970000Y35560000D03*
D15*
%TO.P,D2,1*%
%TO.N,Net-(C2-Pad1)*%
X21590000Y35560000D03*
%TD*%
%TO.P,D1,1*%
%TO.N,Net-(C1-Pad1)*%
X52705000Y22225000D03*
D14*
%TO.P,D1,2*%
%TO.N,Net-(D1-Pad2)*%
X60325000Y22225000D03*
%TD*%
D16*
%TO.P,R8,2*%
%TO.N,Net-(R8-Pad2)*%
X1905000Y26670000D03*
%TO.P,R8,1*%
%TO.N,GND*%
X9525000Y26670000D03*
%TD*%
%TO.P,R7,1*%
%TO.N,Net-(C5-Pad1)*%
X52705000Y36195000D03*
%TO.P,R7,2*%
%TO.N,Net-(J3-Pad1)*%
X60325000Y36195000D03*
%TD*%
%TO.P,R6,2*%
%TO.N,Net-(PITCH1-Pad1)*%
X32385000Y31115000D03*
%TO.P,R6,1*%
%TO.N,Net-(C4-Pad1)*%
X24765000Y31115000D03*
%TD*%
%TO.P,R5,1*%
%TO.N,Net-(DECAY1-Pad2)*%
X32385000Y35560000D03*
%TO.P,R5,2*%
%TO.N,Net-(C2-Pad1)*%
X24765000Y35560000D03*
%TD*%
%TO.P,R4,2*%
%TO.N,Net-(R2-Pad1)*%
X1905000Y35560000D03*
%TO.P,R4,1*%
%TO.N,Net-(D2-Pad2)*%
X9525000Y35560000D03*
%TD*%
%TO.P,R3,1*%
%TO.N,Net-(ON/OFF_LED1-Pad1)*%
X53975000Y10160000D03*
%TO.P,R3,2*%
%TO.N,GND*%
X53975000Y2540000D03*
%TD*%
%TO.P,R2,2*%
%TO.N,GND*%
X9525000Y31115000D03*
%TO.P,R2,1*%
%TO.N,Net-(R2-Pad1)*%
X1905000Y31115000D03*
%TD*%
%TO.P,R1,1*%
%TO.N,Net-(J2-Pad1)*%
X9525000Y22225000D03*
%TO.P,R1,2*%
%TO.N,Net-(Button_ON1-Pad1)*%
X1905000Y22225000D03*
%TD*%
D17*
%TO.P,U3,1*%
%TO.N,Net-(C1-Pad1)*%
X50800000Y17780000D03*
D18*
%TO.P,U3,3*%
%TO.N,+5V*%
X50800000Y15240000D03*
%TO.P,U3,2*%
%TO.N,GND*%
X52070000Y16510000D03*
%TD*%
D12*
%TO.P,J1,1*%
%TO.N,Net-(J1-Pad1)*%
X58420000Y5080000D03*
%TO.P,J1,2*%
%TO.N,GND*%
X58420000Y2540000D03*
%TO.P,J1,*%
%TO.N,*%
X60325000Y5080000D03*
X60325000Y2540000D03*
%TD*%
%TO.P,J2,*%
%TO.N,*%
X5080000Y42545000D03*
X2540000Y42545000D03*
%TO.P,J2,2*%
%TO.N,GND*%
X5080000Y40640000D03*
%TO.P,J2,1*%
%TO.N,Net-(J2-Pad1)*%
X2540000Y40640000D03*
%TD*%
%TO.P,J3,1*%
%TO.N,Net-(J3-Pad1)*%
X57150000Y40640000D03*
%TO.P,J3,2*%
%TO.N,GND*%
X59690000Y40640000D03*
%TO.P,J3,*%
%TO.N,*%
X57150000Y42545000D03*
X59690000Y42545000D03*
%TD*%
%TO.P,DECAY1,*%
%TO.N,*%
X25400000Y42545000D03*
X22860000Y42545000D03*
%TO.P,DECAY1,2*%
%TO.N,Net-(DECAY1-Pad2)*%
X25400000Y40640000D03*
%TO.P,DECAY1,1*%
%TO.N,GND*%
X22860000Y40640000D03*
%TO.P,DECAY1,3*%
%TO.N,Net-(DECAY1-Pad2)*%
X27940000Y40640000D03*
%TO.P,DECAY1,*%
%TO.N,*%
X27940000Y42545000D03*
%TD*%
%TO.P,PITCH1,*%
%TO.N,*%
X39370000Y42545000D03*
%TO.P,PITCH1,3*%
%TO.N,Net-(Osc_Select1-Pad1)*%
X39370000Y40640000D03*
%TO.P,PITCH1,1*%
%TO.N,Net-(PITCH1-Pad1)*%
X34290000Y40640000D03*
%TO.P,PITCH1,2*%
X36830000Y40640000D03*
%TO.P,PITCH1,*%
%TO.N,*%
X34290000Y42545000D03*
X36830000Y42545000D03*
%TD*%
%TO.P,SENSE/STARVE1,*%
%TO.N,*%
X13970000Y42545000D03*
X11430000Y42545000D03*
%TO.P,SENSE/STARVE1,2*%
%TO.N,Net-(SENSE/STARVE1-Pad2)*%
X13970000Y40640000D03*
%TO.P,SENSE/STARVE1,1*%
%TO.N,Net-(J2-Pad1)*%
X11430000Y40640000D03*
%TO.P,SENSE/STARVE1,3*%
%TO.N,GND*%
X16510000Y40640000D03*
%TO.P,SENSE/STARVE1,*%
%TO.N,*%
X16510000Y42545000D03*
%TD*%
%TO.P,Osc_Select1,*%
%TO.N,*%
X48260000Y42545000D03*
X45720000Y42545000D03*
%TO.P,Osc_Select1,2*%
%TO.N,Net-(C5-Pad2)*%
X48260000Y40640000D03*
%TO.P,Osc_Select1,1*%
%TO.N,Net-(Osc_Select1-Pad1)*%
X45720000Y40640000D03*
%TO.P,Osc_Select1,3*%
%TO.N,Net-(OscSwitchStrip1-Pad1)*%
X50800000Y40640000D03*
%TO.P,Osc_Select1,*%
%TO.N,*%
X50800000Y42545000D03*
%TD*%
%TO.P,Button_ON1,1*%
%TO.N,Net-(Button_ON1-Pad1)*%
X3810000Y2540000D03*
%TO.P,Button_ON1,2*%
%TO.N,+5V*%
X3810000Y5080000D03*
%TO.P,Button_ON1,*%
%TO.N,*%
X1905000Y2540000D03*
X1905000Y5080000D03*
%TD*%
%TO.P,PWR2,*%
%TO.N,*%
X60325000Y8890000D03*
X60325000Y11430000D03*
%TO.P,PWR2,2*%
%TO.N,Net-(J1-Pad1)*%
X58420000Y8890000D03*
%TO.P,PWR2,1*%
%TO.N,Net-(D1-Pad2)*%
X58420000Y11430000D03*
%TD*%
%TO.P,Switch_On1,1*%
%TO.N,Net-(Button_ON1-Pad1)*%
X3810000Y8890000D03*
%TO.P,Switch_On1,2*%
%TO.N,+5V*%
X3810000Y11430000D03*
%TO.P,Switch_On1,*%
%TO.N,*%
X1905000Y8890000D03*
X1905000Y11430000D03*
%TD*%
D10*
%TO.P,PWR1,1*%
%TO.N,Net-(PWR1-Pad1)*%
X49530000Y10795000D03*
X49530000Y8255000D03*
X49530000Y5715000D03*
X49530000Y3175000D03*
%TD*%
D11*
%TO.P,U2,14*%
%TO.N,Net-(PWR1-Pad1)*%
X26797000Y25654000D03*
%TO.P,U2,7*%
%TO.N,Net-(GND1-Pad1)*%
X42037000Y18034000D03*
%TO.P,U2,13*%
%TO.N,Net-(U2-Pad13)*%
X29337000Y25654000D03*
%TO.P,U2,6*%
%TO.N,Net-(OUT3-Pad1)*%
X39497000Y18034000D03*
%TO.P,U2,12*%
%TO.N,Net-(U2-Pad12)*%
X31877000Y25654000D03*
%TO.P,U2,5*%
%TO.N,Net-(IN3-Pad1)*%
X36957000Y18034000D03*
%TO.P,U2,11*%
%TO.N,Net-(C4-Pad1)*%
X34417000Y25654000D03*
%TO.P,U2,4*%
%TO.N,Net-(OUT2-Pad1)*%
X34417000Y18034000D03*
%TO.P,U2,10*%
%TO.N,Net-(Osc_Select1-Pad1)*%
X36957000Y25654000D03*
%TO.P,U2,3*%
%TO.N,Net-(IN2-Pad1)*%
X31877000Y18034000D03*
%TO.P,U2,9*%
%TO.N,GND*%
X39497000Y25654000D03*
%TO.P,U2,2*%
%TO.N,Net-(OUT1-Pad1)*%
X29337000Y18034000D03*
%TO.P,U2,8*%
%TO.N,Net-(Trig_LED1-Pad2)*%
X42037000Y25654000D03*
D10*
%TO.P,U2,1*%
%TO.N,Net-(IN1-Pad1)*%
X26797000Y18034000D03*
%TD*%
%TO.P,U1,1*%
%TO.N,Net-(D2-Pad2)*%
X13970000Y20320000D03*
D11*
%TO.P,U1,5*%
%TO.N,Net-(C2-Pad1)*%
X21590000Y12700000D03*
%TO.P,U1,2*%
%TO.N,Net-(R2-Pad1)*%
X13970000Y17780000D03*
%TO.P,U1,6*%
%TO.N,Net-(PWR1-Pad1)*%
X21590000Y15240000D03*
%TO.P,U1,3*%
%TO.N,Net-(SENSE/STARVE1-Pad2)*%
X13970000Y15240000D03*
%TO.P,U1,7*%
%TO.N,Net-(PWR1-Pad1)*%
X21590000Y17780000D03*
%TO.P,U1,4*%
%TO.N,GND*%
X13970000Y12700000D03*
%TO.P,U1,8*%
%TO.N,+5V*%
X21590000Y20320000D03*
%TD*%
D10*
%TO.P,GND1,1*%
%TO.N,Net-(GND1-Pad1)*%
X42037000Y13843000D03*
X42037000Y11303000D03*
X42037000Y8763000D03*
X42037000Y6223000D03*
%TD*%
D19*
%TO.N,Net-(PWR1-Pad1)*%
X48006000Y15748000D03*
X23368000Y25654000D03*
X23368000Y17780000D03*
X48006000Y10668000D03*
%TO.N,Net-(Button_ON1-Pad1)*%
X6350000Y8890000D03*
X6350000Y2540000D03*
X6350000Y22225000D03*
%TO.N,+5V*%
X46736000Y14732000D03*
X46482000Y29718000D03*
X21590000Y29718000D03*
X19050000Y20320000D03*
X19050001Y11430000D03*
X7620000Y5080000D03*
X7620000Y11430000D03*
%TO.N,Net-(D1-Pad2)*%
X56388000Y17780000D03*
X56134000Y11430000D03*
%TO.N,Net-(J2-Pad1)*%
X11430000Y37465000D03*
X2540000Y37465000D03*
%TO.N,GND*%
X61468000Y38862000D03*
X49022000Y16510000D03*
X52070000Y2540000D03*
X17780000Y12700000D03*
X14224000Y4572000D03*
X61595000Y27305000D03*
X22860000Y38735000D03*
X5080000Y38735000D03*
X16510000Y38735000D03*
X5080000Y31115000D03*
%TO.N,Net-(PITCH1-Pad1)*%
X34036000Y30988000D03*
%TO.N,Net-(DECAY1-Pad2)*%
X32004000Y40640000D03*
%TO.N,Net-(C1-Pad1)*%
X52578000Y29972000D03*
%TO.N,Net-(R2-Pad1)*%
X12192000Y29464000D03*
X12192000Y17780000D03*
%TO.N,Net-(ON/OFF_LED1-Pad1)*%
X54102000Y15240000D03*
%TO.N,Net-(C2-Pad1)*%
X19812000Y28702000D03*
X19812000Y12700000D03*
X17780000Y35560000D03*
%TO.N,Net-(C4-Pad1)*%
X24638002Y27432000D03*
X34544000Y27432000D03*
X24638002Y7112000D03*
%TO.N,Net-(R8-Pad2)*%
X3810000Y26670000D03*
%TO.N,Net-(Trig_LED1-Pad2)*%
X5588000Y23876000D03*
%TO.N,Net-(OscSwitchStrip1-Pad1)*%
X51054000Y34036000D03*
X45212000Y34036000D03*
%TD*%
D20*
%TO.N,Net-(GND1-Pad1)*%
X42037000Y18034000D02*
X42037000Y13843000D01*
X42037000Y2032000D02*
X42037000Y6223000D01*
X42037000Y6223000D02*
X42037000Y8763000D01*
X42037000Y11303000D02*
X42037000Y8763000D01*
X42037000Y13843000D02*
X42037000Y11303000D01*
%TO.N,Net-(PWR1-Pad1)*%
X48006000Y10668000D02*
X48006000Y15748000D01*
X23368000Y17780000D02*
X23368000Y25654000D01*
X21590000Y15240000D02*
X21590000Y17780000D01*
X49530000Y5715000D02*
X49530000Y3175000D01*
X49530000Y8255000D02*
X49530000Y5715000D01*
X49530000Y10795000D02*
X49530000Y8255000D01*
%TO.N,Net-(Button_ON1-Pad1)*%
X6350000Y8890000D02*
X6350000Y11430000D01*
X6350000Y2540000D02*
X6350000Y8890000D01*
X6350000Y22225000D02*
X6350000Y11430000D01*
%TO.N,+5V*%
X46482000Y29718000D02*
X46482000Y14986000D01*
X46482000Y14986000D02*
X46736000Y14732000D01*
X21590000Y20320000D02*
X21590000Y29718000D01*
X19050000Y19754315D02*
X19050000Y20320000D01*
X19050001Y11430000D02*
X19050000Y19754315D01*
X7620000Y11430000D02*
X7620000Y5080000D01*
%TO.N,Net-(J1-Pad1)*%
X58420000Y5080000D02*
X58420000Y8890000D01*
%TO.N,Net-(D1-Pad2)*%
X58420000Y17780000D02*
X58420000Y20320000D01*
X58420000Y20320000D02*
X60325000Y22225000D01*
X56134000Y11430000D02*
X56134000Y17526000D01*
X56134000Y17526000D02*
X56388000Y17780000D01*
%TO.N,Net-(C5-Pad2)*%
X44530000Y36195000D02*
X48260000Y39925000D01*
X48260000Y39925000D02*
X48260000Y40640000D01*
%TO.N,Net-(Osc_Select1-Pad1)*%
X39370000Y40640000D02*
X39370000Y37846000D01*
X39370000Y37846000D02*
X36957000Y35433000D01*
X36957000Y35433000D02*
X36957000Y25654000D01*
%TO.N,Net-(SENSE/STARVE1-Pad2)*%
X13970000Y40640000D02*
X13970000Y37846000D01*
X14769999Y16039999D02*
X13970000Y15240000D01*
X13970000Y37846000D02*
X15748000Y36068000D01*
X15748000Y36068000D02*
X15748000Y17018000D01*
X15748000Y17018000D02*
X14769999Y16039999D01*
%TO.N,Net-(J2-Pad1)*%
X9525000Y22225000D02*
X11430000Y24130000D01*
X11430000Y24130000D02*
X11430000Y37465000D01*
X11430000Y37465000D02*
X11430000Y40640000D01*
X2540000Y40640000D02*
X2540000Y37465000D01*
%TO.N,GND*%
X61595000Y38735000D02*
X61468000Y38862000D01*
X61595000Y27305000D02*
X61595000Y38735000D01*
X59690000Y40640000D02*
X61468000Y38862000D01*
X48260000Y27345000D02*
X48260000Y17272000D01*
X48260000Y17272000D02*
X49022000Y16510000D01*
X52070000Y2540000D02*
X52070000Y16510000D01*
X17780000Y12700000D02*
X17780000Y26075000D01*
X14224000Y4572000D02*
X14224000Y12446000D01*
X14224000Y12446000D02*
X13970000Y12700000D01*
X22860000Y38735000D02*
X22860000Y40640000D01*
X5080000Y40640000D02*
X5080000Y38735000D01*
X5080000Y38735000D02*
X5080000Y31115000D01*
X16510000Y40640000D02*
X16510000Y38735000D01*
X9525000Y31115000D02*
X9525000Y26670000D01*
%TO.N,Net-(PITCH1-Pad1)*%
X34036000Y30988000D02*
X34036000Y40386000D01*
X34036000Y40386000D02*
X34290000Y40640000D01*
%TO.N,Net-(DECAY1-Pad2)*%
X32385000Y35560000D02*
X32385000Y40259000D01*
X32385000Y40259000D02*
X32004000Y40640000D01*
%TO.N,Net-(J3-Pad1)*%
X57150000Y40640000D02*
X57150000Y39370000D01*
X57150000Y39370000D02*
X60325000Y36195000D01*
%TO.N,Net-(C1-Pad1)*%
X52705000Y22225000D02*
X51435000Y22225000D01*
X51435000Y22225000D02*
X50800000Y21590000D01*
X50800000Y21590000D02*
X50800000Y17780000D01*
X52705000Y22225000D02*
X52705000Y29845000D01*
X52705000Y29845000D02*
X52578000Y29972000D01*
%TO.N,Net-(R2-Pad1)*%
X12192000Y18345685D02*
X12192000Y29464000D01*
X12192000Y17780000D02*
X12192000Y18345685D01*
X1905000Y35560000D02*
X1905000Y31115000D01*
%TO.N,Net-(ON/OFF_LED1-Pad1)*%
X54102000Y15240000D02*
X54102000Y10287000D01*
X54102000Y10287000D02*
X53975000Y10160000D01*
%TO.N,Net-(D2-Pad2)*%
X13970000Y35560000D02*
X13970000Y34287208D01*
X13970000Y34287208D02*
X13970000Y20320000D01*
%TO.N,Net-(C2-Pad1)*%
X19812000Y12700000D02*
X19812000Y28702000D01*
X17780000Y35560000D02*
X17780000Y28575000D01*
%TO.N,Net-(C4-Pad1)*%
X24638002Y7112000D02*
X24638002Y27432000D01*
X24638002Y27432000D02*
X24638002Y30988002D01*
X34417000Y25654000D02*
X34417000Y27305000D01*
X34417000Y27305000D02*
X34544000Y27432000D01*
X24638002Y30988002D02*
X24765000Y31115000D01*
%TO.N,Net-(R8-Pad2)*%
X3810000Y26670000D02*
X3810000Y17780000D01*
%TO.N,Net-(Trig_LED1-Pad2)*%
X5588000Y23876000D02*
X5588000Y17018000D01*
X5588000Y17018000D02*
X3810000Y15240000D01*
%TO.N,Net-(OscSwitchStrip1-Pad1)*%
X44958000Y8763000D02*
X44958000Y7631630D01*
X44958000Y7631630D02*
X44958000Y6223000D01*
X44958000Y11303000D02*
X44958000Y10171630D01*
X44958000Y10171630D02*
X44958000Y8763000D01*
X44958000Y13843000D02*
X44958000Y11303000D01*
X45212000Y34036000D02*
X45212000Y14097000D01*
X45212000Y14097000D02*
X44958000Y13843000D01*
X51054000Y34036000D02*
X51054000Y40386000D01*
X51054000Y40386000D02*
X50800000Y40640000D01*
%TO.N,Net-(IN3-Pad1)*%
X36957000Y8763000D02*
X36957000Y6223000D01*
X36957000Y11303000D02*
X36957000Y8763000D01*
X36957000Y13843000D02*
X36957000Y11303000D01*
%TO.N,Net-(IN2-Pad1)*%
X31877000Y13843000D02*
X31877000Y11303000D01*
X31877000Y8763000D02*
X31877000Y11303000D01*
X31877000Y6223000D02*
X31877000Y8763000D01*
%TO.N,Net-(IN1-Pad1)*%
X26797000Y11303000D02*
X26797000Y13843000D01*
X26797000Y8763000D02*
X26797000Y11303000D01*
X26797000Y6223000D02*
X26797000Y8763000D01*
%TO.N,Net-(OUT1-Pad1)*%
X29337000Y8763000D02*
X29337000Y6223000D01*
X29337000Y11303000D02*
X29337000Y8763000D01*
X29337000Y13843000D02*
X29337000Y11303000D01*
%TO.N,Net-(OUT2-Pad1)*%
X34417000Y8763000D02*
X34417000Y6223000D01*
X34417000Y11303000D02*
X34417000Y8763000D01*
X34417000Y13843000D02*
X34417000Y11303000D01*
%TO.N,Net-(OUT3-Pad1)*%
X39497000Y11303000D02*
X39497000Y13843000D01*
X39497000Y11303000D02*
X39497000Y8763000D01*
X39497000Y6223000D02*
X39497000Y8763000D01*
%TD*%
M02*
