%TF.GenerationSoftware,KiCad,Pcbnew,(2017-11-10 revision 636298b5d)-pre-sym-lib*%
%TF.CreationDate,2017-12-14T16:50:35-08:00*%
%TF.ProjectId,workshop_drum1,776F726B73686F705F6472756D312E6B,rev?*%
%TF.SameCoordinates,Original*%
%TF.FileFunction,Legend,Top*%
%TF.FilePolarity,Positive*%
%FSLAX46Y46*%
G04 Gerber Fmt 4.6, Leading zero omitted, Abs format (unit mm)*
G04 Created by KiCad (PCBNEW (2017-11-10 revision 636298b5d)-pre-sym-lib) date Thursday, December 14, 2017 'PMt' 04:50:35 PM*
%MOMM*%
%LPD*%
G01*
G04 APERTURE LIST*
%ADD10C,0.300000*%
%ADD11C,0.150000*%
%ADD12C,0.125000*%
%ADD13C,0.120000*%
%ADD14C,0.100000*%
%ADD15C,0.062500*%
%ADD16C,0.187500*%
G04 APERTURE END LIST*
D10*
X27286000Y28023428D02*
X27286000Y29523428D01*
X27286000Y28094857D02*
X27143142Y28023428D01*
X26857428Y28023428D01*
X26714571Y28094857D01*
X26643142Y28166285D01*
X26571714Y28309142D01*
X26571714Y28737714D01*
X26643142Y28880571D01*
X26714571Y28952000D01*
X26857428Y29023428D01*
X27143142Y29023428D01*
X27286000Y28952000D01*
X28000285Y28023428D02*
X28000285Y29023428D01*
X28000285Y28737714D02*
X28071714Y28880571D01*
X28143142Y28952000D01*
X28286000Y29023428D01*
X28428857Y29023428D01*
X29571714Y29023428D02*
X29571714Y28023428D01*
X28928857Y29023428D02*
X28928857Y28237714D01*
X29000285Y28094857D01*
X29143142Y28023428D01*
X29357428Y28023428D01*
X29500285Y28094857D01*
X29571714Y28166285D01*
X30286000Y28023428D02*
X30286000Y29023428D01*
X30286000Y28880571D02*
X30357428Y28952000D01*
X30500285Y29023428D01*
X30714571Y29023428D01*
X30857428Y28952000D01*
X30928857Y28809142D01*
X30928857Y28023428D01*
X30928857Y28809142D02*
X31000285Y28952000D01*
X31143142Y29023428D01*
X31357428Y29023428D01*
X31500285Y28952000D01*
X31571714Y28809142D01*
X31571714Y28023428D01*
X32214571Y28094857D02*
X32357428Y28023428D01*
X32643142Y28023428D01*
X32786000Y28094857D01*
X32857428Y28237714D01*
X32857428Y28309142D01*
X32786000Y28452000D01*
X32643142Y28523428D01*
X32428857Y28523428D01*
X32286000Y28594857D01*
X32214571Y28737714D01*
X32214571Y28809142D01*
X32286000Y28952000D01*
X32428857Y29023428D01*
X32643142Y29023428D01*
X32786000Y28952000D01*
X33357428Y29023428D02*
X33714571Y28023428D01*
X34071714Y29023428D02*
X33714571Y28023428D01*
X33571714Y27666285D01*
X33500285Y27594857D01*
X33357428Y27523428D01*
X34643142Y29023428D02*
X34643142Y28023428D01*
X34643142Y28880571D02*
X34714571Y28952000D01*
X34857428Y29023428D01*
X35071714Y29023428D01*
X35214571Y28952000D01*
X35286000Y28809142D01*
X35286000Y28023428D01*
X35786000Y29023428D02*
X36357428Y29023428D01*
X36000285Y29523428D02*
X36000285Y28237714D01*
X36071714Y28094857D01*
X36214571Y28023428D01*
X36357428Y28023428D01*
X36857428Y28023428D02*
X36857428Y29523428D01*
X37500285Y28023428D02*
X37500285Y28809142D01*
X37428857Y28952000D01*
X37286000Y29023428D01*
X37071714Y29023428D01*
X36928857Y28952000D01*
X36857428Y28880571D01*
X39357428Y29023428D02*
X39357428Y27523428D01*
X39357428Y28952000D02*
X39500285Y29023428D01*
X39786000Y29023428D01*
X39928857Y28952000D01*
X40000285Y28880571D01*
X40071714Y28737714D01*
X40071714Y28309142D01*
X40000285Y28166285D01*
X39928857Y28094857D01*
X39786000Y28023428D01*
X39500285Y28023428D01*
X39357428Y28094857D01*
X41500285Y28023428D02*
X40643142Y28023428D01*
X41071714Y28023428D02*
X41071714Y29523428D01*
X40928857Y29309142D01*
X40786000Y29166285D01*
X40643142Y29094857D01*
D11*
X27847142Y3938571D02*
X27990000Y3538571D01*
X28132857Y3938571D01*
X28761428Y3938571D02*
X28904285Y3538571D01*
X29047142Y3938571D01*
X29675714Y3938571D02*
X29818571Y3538571D01*
X29961428Y3938571D01*
X31418571Y4110000D02*
X31361428Y4138571D01*
X31275714Y4138571D01*
X31190000Y4110000D01*
X31132857Y4052857D01*
X31104285Y3995714D01*
X31075714Y3881428D01*
X31075714Y3795714D01*
X31104285Y3681428D01*
X31132857Y3624285D01*
X31190000Y3567142D01*
X31275714Y3538571D01*
X31332857Y3538571D01*
X31418571Y3567142D01*
X31447142Y3595714D01*
X31447142Y3795714D01*
X31332857Y3795714D01*
X32047142Y3538571D02*
X31847142Y3824285D01*
X31704285Y3538571D02*
X31704285Y4138571D01*
X31932857Y4138571D01*
X31990000Y4110000D01*
X32018571Y4081428D01*
X32047142Y4024285D01*
X32047142Y3938571D01*
X32018571Y3881428D01*
X31990000Y3852857D01*
X31932857Y3824285D01*
X31704285Y3824285D01*
X32418571Y4138571D02*
X32532857Y4138571D01*
X32590000Y4110000D01*
X32647142Y4052857D01*
X32675714Y3938571D01*
X32675714Y3738571D01*
X32647142Y3624285D01*
X32590000Y3567142D01*
X32532857Y3538571D01*
X32418571Y3538571D01*
X32361428Y3567142D01*
X32304285Y3624285D01*
X32275714Y3738571D01*
X32275714Y3938571D01*
X32304285Y4052857D01*
X32361428Y4110000D01*
X32418571Y4138571D01*
X32932857Y4138571D02*
X32932857Y3652857D01*
X32961428Y3595714D01*
X32990000Y3567142D01*
X33047142Y3538571D01*
X33161428Y3538571D01*
X33218571Y3567142D01*
X33247142Y3595714D01*
X33275714Y3652857D01*
X33275714Y4138571D01*
X33561428Y3538571D02*
X33561428Y4138571D01*
X33904285Y3538571D01*
X33904285Y4138571D01*
X34190000Y3538571D02*
X34190000Y4138571D01*
X34332857Y4138571D01*
X34418571Y4110000D01*
X34475714Y4052857D01*
X34504285Y3995714D01*
X34532857Y3881428D01*
X34532857Y3795714D01*
X34504285Y3681428D01*
X34475714Y3624285D01*
X34418571Y3567142D01*
X34332857Y3538571D01*
X34190000Y3538571D01*
X35218571Y3567142D02*
X35304285Y3538571D01*
X35447142Y3538571D01*
X35504285Y3567142D01*
X35532857Y3595714D01*
X35561428Y3652857D01*
X35561428Y3710000D01*
X35532857Y3767142D01*
X35504285Y3795714D01*
X35447142Y3824285D01*
X35332857Y3852857D01*
X35275714Y3881428D01*
X35247142Y3910000D01*
X35218571Y3967142D01*
X35218571Y4024285D01*
X35247142Y4081428D01*
X35275714Y4110000D01*
X35332857Y4138571D01*
X35475714Y4138571D01*
X35561428Y4110000D01*
X35732857Y4138571D02*
X36075714Y4138571D01*
X35904285Y3538571D02*
X35904285Y4138571D01*
X36618571Y3538571D02*
X36418571Y3824285D01*
X36275714Y3538571D02*
X36275714Y4138571D01*
X36504285Y4138571D01*
X36561428Y4110000D01*
X36590000Y4081428D01*
X36618571Y4024285D01*
X36618571Y3938571D01*
X36590000Y3881428D01*
X36561428Y3852857D01*
X36504285Y3824285D01*
X36275714Y3824285D01*
X36875714Y3538571D02*
X36875714Y4138571D01*
X37161428Y3538571D02*
X37161428Y4138571D01*
X37390000Y4138571D01*
X37447142Y4110000D01*
X37475714Y4081428D01*
X37504285Y4024285D01*
X37504285Y3938571D01*
X37475714Y3881428D01*
X37447142Y3852857D01*
X37390000Y3824285D01*
X37161428Y3824285D01*
X38618571Y3938571D02*
X38761428Y3538571D01*
X38904285Y3938571D01*
X39532857Y3938571D02*
X39675714Y3538571D01*
X39818571Y3938571D01*
X40447142Y3938571D02*
X40589999Y3538571D01*
X40732857Y3938571D01*
D10*
X10330571Y3410000D02*
X8830571Y3410000D01*
X10259142Y3410000D02*
X10330571Y3267142D01*
X10330571Y2981428D01*
X10259142Y2838571D01*
X10187714Y2767142D01*
X10044857Y2695714D01*
X9616285Y2695714D01*
X9473428Y2767142D01*
X9402000Y2838571D01*
X9330571Y2981428D01*
X9330571Y3267142D01*
X9402000Y3410000D01*
X10330571Y4124285D02*
X9330571Y4124285D01*
X9616285Y4124285D02*
X9473428Y4195714D01*
X9402000Y4267142D01*
X9330571Y4410000D01*
X9330571Y4552857D01*
X9330571Y5695714D02*
X10330571Y5695714D01*
X9330571Y5052857D02*
X10116285Y5052857D01*
X10259142Y5124285D01*
X10330571Y5267142D01*
X10330571Y5481428D01*
X10259142Y5624285D01*
X10187714Y5695714D01*
X10330571Y6410000D02*
X9330571Y6410000D01*
X9473428Y6410000D02*
X9402000Y6481428D01*
X9330571Y6624285D01*
X9330571Y6838571D01*
X9402000Y6981428D01*
X9544857Y7052857D01*
X10330571Y7052857D01*
X9544857Y7052857D02*
X9402000Y7124285D01*
X9330571Y7267142D01*
X9330571Y7481428D01*
X9402000Y7624285D01*
X9544857Y7695714D01*
X10330571Y7695714D01*
X10259142Y8338571D02*
X10330571Y8481428D01*
X10330571Y8767142D01*
X10259142Y8910000D01*
X10116285Y8981428D01*
X10044857Y8981428D01*
X9902000Y8910000D01*
X9830571Y8767142D01*
X9830571Y8552857D01*
X9759142Y8410000D01*
X9616285Y8338571D01*
X9544857Y8338571D01*
X9402000Y8410000D01*
X9330571Y8552857D01*
X9330571Y8767142D01*
X9402000Y8910000D01*
X9330571Y9481428D02*
X10330571Y9838571D01*
X9330571Y10195714D02*
X10330571Y9838571D01*
X10687714Y9695714D01*
X10759142Y9624285D01*
X10830571Y9481428D01*
X9330571Y10767142D02*
X10330571Y10767142D01*
X9473428Y10767142D02*
X9402000Y10838571D01*
X9330571Y10981428D01*
X9330571Y11195714D01*
X9402000Y11338571D01*
X9544857Y11410000D01*
X10330571Y11410000D01*
X9330571Y11910000D02*
X9330571Y12481428D01*
X8830571Y12124285D02*
X10116285Y12124285D01*
X10259142Y12195714D01*
X10330571Y12338571D01*
X10330571Y12481428D01*
X10330571Y12981428D02*
X8830571Y12981428D01*
X10330571Y13624285D02*
X9544857Y13624285D01*
X9402000Y13552857D01*
X9330571Y13410000D01*
X9330571Y13195714D01*
X9402000Y13052857D01*
X9473428Y12981428D01*
X9330571Y15481428D02*
X10830571Y15481428D01*
X9402000Y15481428D02*
X9330571Y15624285D01*
X9330571Y15910000D01*
X9402000Y16052857D01*
X9473428Y16124285D01*
X9616285Y16195714D01*
X10044857Y16195714D01*
X10187714Y16124285D01*
X10259142Y16052857D01*
X10330571Y15910000D01*
X10330571Y15624285D01*
X10259142Y15481428D01*
X10330571Y17624285D02*
X10330571Y16767142D01*
X10330571Y17195714D02*
X8830571Y17195714D01*
X9044857Y17052857D01*
X9187714Y16910000D01*
X9259142Y16767142D01*
D12*
%TO.C,GND2*%
X25527000Y762000D02*
X25527000Y3302000D01*
X43307000Y762000D02*
X25527000Y762000D01*
X43307000Y3302000D02*
X43307000Y762000D01*
X25527000Y3302000D02*
X43307000Y3302000D01*
%TO.C,IN1*%
X25527000Y15113000D02*
X28067000Y15113000D01*
X25527000Y4953000D02*
X25527000Y15113000D01*
X28067000Y4953000D02*
X25527000Y4953000D01*
X28067000Y15113000D02*
X28067000Y4953000D01*
%TO.C,OUT3*%
X38227000Y15113000D02*
X40767000Y15113000D01*
X38227000Y4953000D02*
X38227000Y15113000D01*
X40767000Y4953000D02*
X38227000Y4953000D01*
X40767000Y15113000D02*
X40767000Y4953000D01*
%TO.C,OUT2*%
X35687000Y15113000D02*
X35687000Y4953000D01*
X35687000Y4953000D02*
X33147000Y4953000D01*
X33147000Y4953000D02*
X33147000Y15113000D01*
X33147000Y15113000D02*
X35687000Y15113000D01*
%TO.C,OUT1*%
X28067000Y15113000D02*
X30607000Y15113000D01*
X28067000Y4953000D02*
X28067000Y15113000D01*
X30607000Y4953000D02*
X28067000Y4953000D01*
X30607000Y15113000D02*
X30607000Y4953000D01*
%TO.C,OscSwitchStrip1*%
X46228000Y15113000D02*
X46228000Y4953000D01*
X46228000Y4953000D02*
X43688000Y4953000D01*
X43688000Y4953000D02*
X43688000Y15113000D01*
X43688000Y15113000D02*
X46228000Y15113000D01*
%TO.C,IN2*%
X33147000Y15113000D02*
X33147000Y4953000D01*
X33147000Y4953000D02*
X30607000Y4953000D01*
X30607000Y4953000D02*
X30607000Y15113000D01*
X30607000Y15113000D02*
X33147000Y15113000D01*
%TO.C,IN3*%
X35687000Y15113000D02*
X38227000Y15113000D01*
X35687000Y4953000D02*
X35687000Y15113000D01*
X38227000Y4953000D02*
X35687000Y4953000D01*
X38227000Y15113000D02*
X38227000Y4953000D01*
D11*
%TO.C,ON/OFF_LED1*%
X60960000Y19050000D02*
X57150000Y19050000D01*
X61595000Y18415000D02*
X60960000Y19050000D01*
X61595000Y14605000D02*
X61595000Y18415000D01*
X60960000Y13970000D02*
X61595000Y14605000D01*
X57150000Y13970000D02*
X60960000Y13970000D01*
X57150000Y19050000D02*
X57150000Y13970000D01*
%TO.C,Trig_LED1*%
X5080000Y13970000D02*
X5080000Y19050000D01*
X5080000Y19050000D02*
X1270000Y19050000D01*
X1270000Y19050000D02*
X635000Y18415000D01*
X635000Y18415000D02*
X635000Y14605000D01*
X635000Y14605000D02*
X1270000Y13970000D01*
X1270000Y13970000D02*
X5080000Y13970000D01*
D13*
%TO.C,C5*%
X50590000Y34885000D02*
X43470000Y34885000D01*
X50590000Y37505000D02*
X43470000Y37505000D01*
X50590000Y34885000D02*
X50590000Y37505000D01*
X43470000Y34885000D02*
X43470000Y37505000D01*
%TO.C,C4*%
X16800643Y2646560D02*
G75*
G03X18760000Y2646764I979357J3088440D01*
G01*
X16800643Y2646560D02*
G75*
G02X16800000Y8823236I979357J3088440D01*
G01*
X18759357Y2646560D02*
G75*
G03X18760000Y8823236I-979357J3088440D01*
G01*
X18430000Y8585000D02*
X17130000Y8585000D01*
X17780000Y9185000D02*
X17780000Y7985000D01*
X18248000Y2534000D02*
X17312000Y2534000D01*
X18456000Y2574000D02*
X17104000Y2574000D01*
X18614000Y2614000D02*
X16946000Y2614000D01*
X18746000Y2654000D02*
X16814000Y2654000D01*
X18861000Y2694000D02*
X16699000Y2694000D01*
X18964000Y2734000D02*
X16596000Y2734000D01*
X19058000Y2774000D02*
X16502000Y2774000D01*
X19144000Y2814000D02*
X16416000Y2814000D01*
X19225000Y2854000D02*
X16335000Y2854000D01*
X19300000Y2894000D02*
X16260000Y2894000D01*
X19371000Y2934000D02*
X16189000Y2934000D01*
X19438000Y2974000D02*
X16122000Y2974000D01*
X19501000Y3014000D02*
X16059000Y3014000D01*
X19561000Y3054000D02*
X15999000Y3054000D01*
X19619000Y3094000D02*
X15941000Y3094000D01*
X19674000Y3134000D02*
X15886000Y3134000D01*
X19726000Y3174000D02*
X15834000Y3174000D01*
X19777000Y3214000D02*
X15783000Y3214000D01*
X19825000Y3254000D02*
X15735000Y3254000D01*
X19872000Y3294000D02*
X15688000Y3294000D01*
X19917000Y3334000D02*
X15643000Y3334000D01*
X19960000Y3374000D02*
X15600000Y3374000D01*
X20002000Y3414000D02*
X15558000Y3414000D01*
X20042000Y3454000D02*
X15518000Y3454000D01*
X20081000Y3494000D02*
X15479000Y3494000D01*
X16800000Y3534000D02*
X15441000Y3534000D01*
X20119000Y3534000D02*
X18760000Y3534000D01*
X16800000Y3574000D02*
X15405000Y3574000D01*
X20155000Y3574000D02*
X18760000Y3574000D01*
X16800000Y3614000D02*
X15369000Y3614000D01*
X20191000Y3614000D02*
X18760000Y3614000D01*
X16800000Y3654000D02*
X15335000Y3654000D01*
X20225000Y3654000D02*
X18760000Y3654000D01*
X16800000Y3694000D02*
X15302000Y3694000D01*
X20258000Y3694000D02*
X18760000Y3694000D01*
X16800000Y3734000D02*
X15270000Y3734000D01*
X20290000Y3734000D02*
X18760000Y3734000D01*
X16800000Y3774000D02*
X15240000Y3774000D01*
X20320000Y3774000D02*
X18760000Y3774000D01*
X16800000Y3814000D02*
X15210000Y3814000D01*
X20350000Y3814000D02*
X18760000Y3814000D01*
X16800000Y3854000D02*
X15181000Y3854000D01*
X20379000Y3854000D02*
X18760000Y3854000D01*
X16800000Y3894000D02*
X15153000Y3894000D01*
X20407000Y3894000D02*
X18760000Y3894000D01*
X16800000Y3934000D02*
X15126000Y3934000D01*
X20434000Y3934000D02*
X18760000Y3934000D01*
X16800000Y3974000D02*
X15099000Y3974000D01*
X20461000Y3974000D02*
X18760000Y3974000D01*
X16800000Y4014000D02*
X15074000Y4014000D01*
X20486000Y4014000D02*
X18760000Y4014000D01*
X16800000Y4054000D02*
X15049000Y4054000D01*
X20511000Y4054000D02*
X18760000Y4054000D01*
X16800000Y4094000D02*
X15025000Y4094000D01*
X20535000Y4094000D02*
X18760000Y4094000D01*
X16800000Y4134000D02*
X15002000Y4134000D01*
X20558000Y4134000D02*
X18760000Y4134000D01*
X16800000Y4174000D02*
X14980000Y4174000D01*
X20580000Y4174000D02*
X18760000Y4174000D01*
X16800000Y4214000D02*
X14958000Y4214000D01*
X20602000Y4214000D02*
X18760000Y4214000D01*
X16800000Y4254000D02*
X14937000Y4254000D01*
X20623000Y4254000D02*
X18760000Y4254000D01*
X16800000Y4294000D02*
X14917000Y4294000D01*
X20643000Y4294000D02*
X18760000Y4294000D01*
X16800000Y4334000D02*
X14898000Y4334000D01*
X20662000Y4334000D02*
X18760000Y4334000D01*
X16800000Y4374000D02*
X14879000Y4374000D01*
X20681000Y4374000D02*
X18760000Y4374000D01*
X16800000Y4414000D02*
X14861000Y4414000D01*
X20699000Y4414000D02*
X18760000Y4414000D01*
X16800000Y4454000D02*
X14843000Y4454000D01*
X20717000Y4454000D02*
X18760000Y4454000D01*
X16800000Y4494000D02*
X14826000Y4494000D01*
X20734000Y4494000D02*
X18760000Y4494000D01*
X16800000Y4534000D02*
X14810000Y4534000D01*
X20750000Y4534000D02*
X18760000Y4534000D01*
X16800000Y4574000D02*
X14794000Y4574000D01*
X20766000Y4574000D02*
X18760000Y4574000D01*
X16800000Y4614000D02*
X14779000Y4614000D01*
X20781000Y4614000D02*
X18760000Y4614000D01*
X16800000Y4654000D02*
X14765000Y4654000D01*
X20795000Y4654000D02*
X18760000Y4654000D01*
X16800000Y4694000D02*
X14751000Y4694000D01*
X20809000Y4694000D02*
X18760000Y4694000D01*
X16800000Y4734000D02*
X14738000Y4734000D01*
X20822000Y4734000D02*
X18760000Y4734000D01*
X16800000Y4774000D02*
X14725000Y4774000D01*
X20835000Y4774000D02*
X18760000Y4774000D01*
X16800000Y4814000D02*
X14713000Y4814000D01*
X20847000Y4814000D02*
X18760000Y4814000D01*
X16800000Y4854000D02*
X14701000Y4854000D01*
X20859000Y4854000D02*
X18760000Y4854000D01*
X16800000Y4894000D02*
X14690000Y4894000D01*
X20870000Y4894000D02*
X18760000Y4894000D01*
X16800000Y4934000D02*
X14680000Y4934000D01*
X20880000Y4934000D02*
X18760000Y4934000D01*
X16800000Y4974000D02*
X14670000Y4974000D01*
X20890000Y4974000D02*
X18760000Y4974000D01*
X16800000Y5014000D02*
X14661000Y5014000D01*
X20899000Y5014000D02*
X18760000Y5014000D01*
X16800000Y5055000D02*
X14652000Y5055000D01*
X20908000Y5055000D02*
X18760000Y5055000D01*
X16800000Y5095000D02*
X14643000Y5095000D01*
X20917000Y5095000D02*
X18760000Y5095000D01*
X16800000Y5135000D02*
X14636000Y5135000D01*
X20924000Y5135000D02*
X18760000Y5135000D01*
X16800000Y5175000D02*
X14628000Y5175000D01*
X20932000Y5175000D02*
X18760000Y5175000D01*
X16800000Y5215000D02*
X14622000Y5215000D01*
X20938000Y5215000D02*
X18760000Y5215000D01*
X16800000Y5255000D02*
X14615000Y5255000D01*
X20945000Y5255000D02*
X18760000Y5255000D01*
X16800000Y5295000D02*
X14610000Y5295000D01*
X20950000Y5295000D02*
X18760000Y5295000D01*
X16800000Y5335000D02*
X14604000Y5335000D01*
X20956000Y5335000D02*
X18760000Y5335000D01*
X16800000Y5375000D02*
X14600000Y5375000D01*
X20960000Y5375000D02*
X18760000Y5375000D01*
X16800000Y5415000D02*
X14595000Y5415000D01*
X20965000Y5415000D02*
X18760000Y5415000D01*
X16800000Y5455000D02*
X14592000Y5455000D01*
X20968000Y5455000D02*
X18760000Y5455000D01*
X20972000Y5495000D02*
X14588000Y5495000D01*
X20974000Y5535000D02*
X14586000Y5535000D01*
X20977000Y5575000D02*
X14583000Y5575000D01*
X20978000Y5615000D02*
X14582000Y5615000D01*
X20980000Y5655000D02*
X14580000Y5655000D01*
X20980000Y5695000D02*
X14580000Y5695000D01*
X20980000Y5735000D02*
X14580000Y5735000D01*
%TO.C,C1*%
X60985000Y28595000D02*
X54585000Y28595000D01*
X60985000Y28555000D02*
X54585000Y28555000D01*
X60985000Y28515000D02*
X54585000Y28515000D01*
X60983000Y28475000D02*
X54587000Y28475000D01*
X60982000Y28435000D02*
X54588000Y28435000D01*
X60979000Y28395000D02*
X54591000Y28395000D01*
X60977000Y28355000D02*
X54593000Y28355000D01*
X60973000Y28315000D02*
X58765000Y28315000D01*
X56805000Y28315000D02*
X54597000Y28315000D01*
X60970000Y28275000D02*
X58765000Y28275000D01*
X56805000Y28275000D02*
X54600000Y28275000D01*
X60965000Y28235000D02*
X58765000Y28235000D01*
X56805000Y28235000D02*
X54605000Y28235000D01*
X60961000Y28195000D02*
X58765000Y28195000D01*
X56805000Y28195000D02*
X54609000Y28195000D01*
X60955000Y28155000D02*
X58765000Y28155000D01*
X56805000Y28155000D02*
X54615000Y28155000D01*
X60950000Y28115000D02*
X58765000Y28115000D01*
X56805000Y28115000D02*
X54620000Y28115000D01*
X60943000Y28075000D02*
X58765000Y28075000D01*
X56805000Y28075000D02*
X54627000Y28075000D01*
X60937000Y28035000D02*
X58765000Y28035000D01*
X56805000Y28035000D02*
X54633000Y28035000D01*
X60929000Y27995000D02*
X58765000Y27995000D01*
X56805000Y27995000D02*
X54641000Y27995000D01*
X60922000Y27955000D02*
X58765000Y27955000D01*
X56805000Y27955000D02*
X54648000Y27955000D01*
X60913000Y27915000D02*
X58765000Y27915000D01*
X56805000Y27915000D02*
X54657000Y27915000D01*
X60904000Y27874000D02*
X58765000Y27874000D01*
X56805000Y27874000D02*
X54666000Y27874000D01*
X60895000Y27834000D02*
X58765000Y27834000D01*
X56805000Y27834000D02*
X54675000Y27834000D01*
X60885000Y27794000D02*
X58765000Y27794000D01*
X56805000Y27794000D02*
X54685000Y27794000D01*
X60875000Y27754000D02*
X58765000Y27754000D01*
X56805000Y27754000D02*
X54695000Y27754000D01*
X60864000Y27714000D02*
X58765000Y27714000D01*
X56805000Y27714000D02*
X54706000Y27714000D01*
X60852000Y27674000D02*
X58765000Y27674000D01*
X56805000Y27674000D02*
X54718000Y27674000D01*
X60840000Y27634000D02*
X58765000Y27634000D01*
X56805000Y27634000D02*
X54730000Y27634000D01*
X60827000Y27594000D02*
X58765000Y27594000D01*
X56805000Y27594000D02*
X54743000Y27594000D01*
X60814000Y27554000D02*
X58765000Y27554000D01*
X56805000Y27554000D02*
X54756000Y27554000D01*
X60800000Y27514000D02*
X58765000Y27514000D01*
X56805000Y27514000D02*
X54770000Y27514000D01*
X60786000Y27474000D02*
X58765000Y27474000D01*
X56805000Y27474000D02*
X54784000Y27474000D01*
X60771000Y27434000D02*
X58765000Y27434000D01*
X56805000Y27434000D02*
X54799000Y27434000D01*
X60755000Y27394000D02*
X58765000Y27394000D01*
X56805000Y27394000D02*
X54815000Y27394000D01*
X60739000Y27354000D02*
X58765000Y27354000D01*
X56805000Y27354000D02*
X54831000Y27354000D01*
X60722000Y27314000D02*
X58765000Y27314000D01*
X56805000Y27314000D02*
X54848000Y27314000D01*
X60704000Y27274000D02*
X58765000Y27274000D01*
X56805000Y27274000D02*
X54866000Y27274000D01*
X60686000Y27234000D02*
X58765000Y27234000D01*
X56805000Y27234000D02*
X54884000Y27234000D01*
X60667000Y27194000D02*
X58765000Y27194000D01*
X56805000Y27194000D02*
X54903000Y27194000D01*
X60648000Y27154000D02*
X58765000Y27154000D01*
X56805000Y27154000D02*
X54922000Y27154000D01*
X60628000Y27114000D02*
X58765000Y27114000D01*
X56805000Y27114000D02*
X54942000Y27114000D01*
X60607000Y27074000D02*
X58765000Y27074000D01*
X56805000Y27074000D02*
X54963000Y27074000D01*
X60585000Y27034000D02*
X58765000Y27034000D01*
X56805000Y27034000D02*
X54985000Y27034000D01*
X60563000Y26994000D02*
X58765000Y26994000D01*
X56805000Y26994000D02*
X55007000Y26994000D01*
X60540000Y26954000D02*
X58765000Y26954000D01*
X56805000Y26954000D02*
X55030000Y26954000D01*
X60516000Y26914000D02*
X58765000Y26914000D01*
X56805000Y26914000D02*
X55054000Y26914000D01*
X60491000Y26874000D02*
X58765000Y26874000D01*
X56805000Y26874000D02*
X55079000Y26874000D01*
X60466000Y26834000D02*
X58765000Y26834000D01*
X56805000Y26834000D02*
X55104000Y26834000D01*
X60439000Y26794000D02*
X58765000Y26794000D01*
X56805000Y26794000D02*
X55131000Y26794000D01*
X60412000Y26754000D02*
X58765000Y26754000D01*
X56805000Y26754000D02*
X55158000Y26754000D01*
X60384000Y26714000D02*
X58765000Y26714000D01*
X56805000Y26714000D02*
X55186000Y26714000D01*
X60355000Y26674000D02*
X58765000Y26674000D01*
X56805000Y26674000D02*
X55215000Y26674000D01*
X60325000Y26634000D02*
X58765000Y26634000D01*
X56805000Y26634000D02*
X55245000Y26634000D01*
X60295000Y26594000D02*
X58765000Y26594000D01*
X56805000Y26594000D02*
X55275000Y26594000D01*
X60263000Y26554000D02*
X58765000Y26554000D01*
X56805000Y26554000D02*
X55307000Y26554000D01*
X60230000Y26514000D02*
X58765000Y26514000D01*
X56805000Y26514000D02*
X55340000Y26514000D01*
X60196000Y26474000D02*
X58765000Y26474000D01*
X56805000Y26474000D02*
X55374000Y26474000D01*
X60160000Y26434000D02*
X58765000Y26434000D01*
X56805000Y26434000D02*
X55410000Y26434000D01*
X60124000Y26394000D02*
X58765000Y26394000D01*
X56805000Y26394000D02*
X55446000Y26394000D01*
X60086000Y26354000D02*
X55484000Y26354000D01*
X60047000Y26314000D02*
X55523000Y26314000D01*
X60007000Y26274000D02*
X55563000Y26274000D01*
X59965000Y26234000D02*
X55605000Y26234000D01*
X59922000Y26194000D02*
X55648000Y26194000D01*
X59877000Y26154000D02*
X55693000Y26154000D01*
X59830000Y26114000D02*
X55740000Y26114000D01*
X59782000Y26074000D02*
X55788000Y26074000D01*
X59731000Y26034000D02*
X55839000Y26034000D01*
X59679000Y25994000D02*
X55891000Y25994000D01*
X59624000Y25954000D02*
X55946000Y25954000D01*
X59566000Y25914000D02*
X56004000Y25914000D01*
X59506000Y25874000D02*
X56064000Y25874000D01*
X59443000Y25834000D02*
X56127000Y25834000D01*
X59376000Y25794000D02*
X56194000Y25794000D01*
X59305000Y25754000D02*
X56265000Y25754000D01*
X59230000Y25714000D02*
X56340000Y25714000D01*
X59149000Y25674000D02*
X56421000Y25674000D01*
X59063000Y25634000D02*
X56507000Y25634000D01*
X58969000Y25594000D02*
X56601000Y25594000D01*
X58866000Y25554000D02*
X56704000Y25554000D01*
X58751000Y25514000D02*
X56819000Y25514000D01*
X58619000Y25474000D02*
X56951000Y25474000D01*
X58461000Y25434000D02*
X57109000Y25434000D01*
X58253000Y25394000D02*
X57317000Y25394000D01*
X57785000Y32045000D02*
X57785000Y30845000D01*
X58435000Y31445000D02*
X57135000Y31445000D01*
X58764357Y25506560D02*
G75*
G03X58765000Y31683236I-979357J3088440D01*
G01*
X56805643Y25506560D02*
G75*
G02X56805000Y31683236I979357J3088440D01*
G01*
X56805643Y25506560D02*
G75*
G03X58765000Y25506764I979357J3088440D01*
G01*
%TO.C,C2*%
X16800643Y24236560D02*
G75*
G03X18760000Y24236764I979357J3088440D01*
G01*
X16800643Y24236560D02*
G75*
G02X16800000Y30413236I979357J3088440D01*
G01*
X18759357Y24236560D02*
G75*
G03X18760000Y30413236I-979357J3088440D01*
G01*
X18430000Y30175000D02*
X17130000Y30175000D01*
X17780000Y30775000D02*
X17780000Y29575000D01*
X18248000Y24124000D02*
X17312000Y24124000D01*
X18456000Y24164000D02*
X17104000Y24164000D01*
X18614000Y24204000D02*
X16946000Y24204000D01*
X18746000Y24244000D02*
X16814000Y24244000D01*
X18861000Y24284000D02*
X16699000Y24284000D01*
X18964000Y24324000D02*
X16596000Y24324000D01*
X19058000Y24364000D02*
X16502000Y24364000D01*
X19144000Y24404000D02*
X16416000Y24404000D01*
X19225000Y24444000D02*
X16335000Y24444000D01*
X19300000Y24484000D02*
X16260000Y24484000D01*
X19371000Y24524000D02*
X16189000Y24524000D01*
X19438000Y24564000D02*
X16122000Y24564000D01*
X19501000Y24604000D02*
X16059000Y24604000D01*
X19561000Y24644000D02*
X15999000Y24644000D01*
X19619000Y24684000D02*
X15941000Y24684000D01*
X19674000Y24724000D02*
X15886000Y24724000D01*
X19726000Y24764000D02*
X15834000Y24764000D01*
X19777000Y24804000D02*
X15783000Y24804000D01*
X19825000Y24844000D02*
X15735000Y24844000D01*
X19872000Y24884000D02*
X15688000Y24884000D01*
X19917000Y24924000D02*
X15643000Y24924000D01*
X19960000Y24964000D02*
X15600000Y24964000D01*
X20002000Y25004000D02*
X15558000Y25004000D01*
X20042000Y25044000D02*
X15518000Y25044000D01*
X20081000Y25084000D02*
X15479000Y25084000D01*
X16800000Y25124000D02*
X15441000Y25124000D01*
X20119000Y25124000D02*
X18760000Y25124000D01*
X16800000Y25164000D02*
X15405000Y25164000D01*
X20155000Y25164000D02*
X18760000Y25164000D01*
X16800000Y25204000D02*
X15369000Y25204000D01*
X20191000Y25204000D02*
X18760000Y25204000D01*
X16800000Y25244000D02*
X15335000Y25244000D01*
X20225000Y25244000D02*
X18760000Y25244000D01*
X16800000Y25284000D02*
X15302000Y25284000D01*
X20258000Y25284000D02*
X18760000Y25284000D01*
X16800000Y25324000D02*
X15270000Y25324000D01*
X20290000Y25324000D02*
X18760000Y25324000D01*
X16800000Y25364000D02*
X15240000Y25364000D01*
X20320000Y25364000D02*
X18760000Y25364000D01*
X16800000Y25404000D02*
X15210000Y25404000D01*
X20350000Y25404000D02*
X18760000Y25404000D01*
X16800000Y25444000D02*
X15181000Y25444000D01*
X20379000Y25444000D02*
X18760000Y25444000D01*
X16800000Y25484000D02*
X15153000Y25484000D01*
X20407000Y25484000D02*
X18760000Y25484000D01*
X16800000Y25524000D02*
X15126000Y25524000D01*
X20434000Y25524000D02*
X18760000Y25524000D01*
X16800000Y25564000D02*
X15099000Y25564000D01*
X20461000Y25564000D02*
X18760000Y25564000D01*
X16800000Y25604000D02*
X15074000Y25604000D01*
X20486000Y25604000D02*
X18760000Y25604000D01*
X16800000Y25644000D02*
X15049000Y25644000D01*
X20511000Y25644000D02*
X18760000Y25644000D01*
X16800000Y25684000D02*
X15025000Y25684000D01*
X20535000Y25684000D02*
X18760000Y25684000D01*
X16800000Y25724000D02*
X15002000Y25724000D01*
X20558000Y25724000D02*
X18760000Y25724000D01*
X16800000Y25764000D02*
X14980000Y25764000D01*
X20580000Y25764000D02*
X18760000Y25764000D01*
X16800000Y25804000D02*
X14958000Y25804000D01*
X20602000Y25804000D02*
X18760000Y25804000D01*
X16800000Y25844000D02*
X14937000Y25844000D01*
X20623000Y25844000D02*
X18760000Y25844000D01*
X16800000Y25884000D02*
X14917000Y25884000D01*
X20643000Y25884000D02*
X18760000Y25884000D01*
X16800000Y25924000D02*
X14898000Y25924000D01*
X20662000Y25924000D02*
X18760000Y25924000D01*
X16800000Y25964000D02*
X14879000Y25964000D01*
X20681000Y25964000D02*
X18760000Y25964000D01*
X16800000Y26004000D02*
X14861000Y26004000D01*
X20699000Y26004000D02*
X18760000Y26004000D01*
X16800000Y26044000D02*
X14843000Y26044000D01*
X20717000Y26044000D02*
X18760000Y26044000D01*
X16800000Y26084000D02*
X14826000Y26084000D01*
X20734000Y26084000D02*
X18760000Y26084000D01*
X16800000Y26124000D02*
X14810000Y26124000D01*
X20750000Y26124000D02*
X18760000Y26124000D01*
X16800000Y26164000D02*
X14794000Y26164000D01*
X20766000Y26164000D02*
X18760000Y26164000D01*
X16800000Y26204000D02*
X14779000Y26204000D01*
X20781000Y26204000D02*
X18760000Y26204000D01*
X16800000Y26244000D02*
X14765000Y26244000D01*
X20795000Y26244000D02*
X18760000Y26244000D01*
X16800000Y26284000D02*
X14751000Y26284000D01*
X20809000Y26284000D02*
X18760000Y26284000D01*
X16800000Y26324000D02*
X14738000Y26324000D01*
X20822000Y26324000D02*
X18760000Y26324000D01*
X16800000Y26364000D02*
X14725000Y26364000D01*
X20835000Y26364000D02*
X18760000Y26364000D01*
X16800000Y26404000D02*
X14713000Y26404000D01*
X20847000Y26404000D02*
X18760000Y26404000D01*
X16800000Y26444000D02*
X14701000Y26444000D01*
X20859000Y26444000D02*
X18760000Y26444000D01*
X16800000Y26484000D02*
X14690000Y26484000D01*
X20870000Y26484000D02*
X18760000Y26484000D01*
X16800000Y26524000D02*
X14680000Y26524000D01*
X20880000Y26524000D02*
X18760000Y26524000D01*
X16800000Y26564000D02*
X14670000Y26564000D01*
X20890000Y26564000D02*
X18760000Y26564000D01*
X16800000Y26604000D02*
X14661000Y26604000D01*
X20899000Y26604000D02*
X18760000Y26604000D01*
X16800000Y26645000D02*
X14652000Y26645000D01*
X20908000Y26645000D02*
X18760000Y26645000D01*
X16800000Y26685000D02*
X14643000Y26685000D01*
X20917000Y26685000D02*
X18760000Y26685000D01*
X16800000Y26725000D02*
X14636000Y26725000D01*
X20924000Y26725000D02*
X18760000Y26725000D01*
X16800000Y26765000D02*
X14628000Y26765000D01*
X20932000Y26765000D02*
X18760000Y26765000D01*
X16800000Y26805000D02*
X14622000Y26805000D01*
X20938000Y26805000D02*
X18760000Y26805000D01*
X16800000Y26845000D02*
X14615000Y26845000D01*
X20945000Y26845000D02*
X18760000Y26845000D01*
X16800000Y26885000D02*
X14610000Y26885000D01*
X20950000Y26885000D02*
X18760000Y26885000D01*
X16800000Y26925000D02*
X14604000Y26925000D01*
X20956000Y26925000D02*
X18760000Y26925000D01*
X16800000Y26965000D02*
X14600000Y26965000D01*
X20960000Y26965000D02*
X18760000Y26965000D01*
X16800000Y27005000D02*
X14595000Y27005000D01*
X20965000Y27005000D02*
X18760000Y27005000D01*
X16800000Y27045000D02*
X14592000Y27045000D01*
X20968000Y27045000D02*
X18760000Y27045000D01*
X20972000Y27085000D02*
X14588000Y27085000D01*
X20974000Y27125000D02*
X14586000Y27125000D01*
X20977000Y27165000D02*
X14583000Y27165000D01*
X20978000Y27205000D02*
X14582000Y27205000D01*
X20980000Y27245000D02*
X14580000Y27245000D01*
X20980000Y27285000D02*
X14580000Y27285000D01*
X20980000Y27325000D02*
X14580000Y27325000D01*
%TO.C,C3*%
X51460000Y28595000D02*
X45060000Y28595000D01*
X51460000Y28555000D02*
X45060000Y28555000D01*
X51460000Y28515000D02*
X45060000Y28515000D01*
X51458000Y28475000D02*
X45062000Y28475000D01*
X51457000Y28435000D02*
X45063000Y28435000D01*
X51454000Y28395000D02*
X45066000Y28395000D01*
X51452000Y28355000D02*
X45068000Y28355000D01*
X51448000Y28315000D02*
X49240000Y28315000D01*
X47280000Y28315000D02*
X45072000Y28315000D01*
X51445000Y28275000D02*
X49240000Y28275000D01*
X47280000Y28275000D02*
X45075000Y28275000D01*
X51440000Y28235000D02*
X49240000Y28235000D01*
X47280000Y28235000D02*
X45080000Y28235000D01*
X51436000Y28195000D02*
X49240000Y28195000D01*
X47280000Y28195000D02*
X45084000Y28195000D01*
X51430000Y28155000D02*
X49240000Y28155000D01*
X47280000Y28155000D02*
X45090000Y28155000D01*
X51425000Y28115000D02*
X49240000Y28115000D01*
X47280000Y28115000D02*
X45095000Y28115000D01*
X51418000Y28075000D02*
X49240000Y28075000D01*
X47280000Y28075000D02*
X45102000Y28075000D01*
X51412000Y28035000D02*
X49240000Y28035000D01*
X47280000Y28035000D02*
X45108000Y28035000D01*
X51404000Y27995000D02*
X49240000Y27995000D01*
X47280000Y27995000D02*
X45116000Y27995000D01*
X51397000Y27955000D02*
X49240000Y27955000D01*
X47280000Y27955000D02*
X45123000Y27955000D01*
X51388000Y27915000D02*
X49240000Y27915000D01*
X47280000Y27915000D02*
X45132000Y27915000D01*
X51379000Y27874000D02*
X49240000Y27874000D01*
X47280000Y27874000D02*
X45141000Y27874000D01*
X51370000Y27834000D02*
X49240000Y27834000D01*
X47280000Y27834000D02*
X45150000Y27834000D01*
X51360000Y27794000D02*
X49240000Y27794000D01*
X47280000Y27794000D02*
X45160000Y27794000D01*
X51350000Y27754000D02*
X49240000Y27754000D01*
X47280000Y27754000D02*
X45170000Y27754000D01*
X51339000Y27714000D02*
X49240000Y27714000D01*
X47280000Y27714000D02*
X45181000Y27714000D01*
X51327000Y27674000D02*
X49240000Y27674000D01*
X47280000Y27674000D02*
X45193000Y27674000D01*
X51315000Y27634000D02*
X49240000Y27634000D01*
X47280000Y27634000D02*
X45205000Y27634000D01*
X51302000Y27594000D02*
X49240000Y27594000D01*
X47280000Y27594000D02*
X45218000Y27594000D01*
X51289000Y27554000D02*
X49240000Y27554000D01*
X47280000Y27554000D02*
X45231000Y27554000D01*
X51275000Y27514000D02*
X49240000Y27514000D01*
X47280000Y27514000D02*
X45245000Y27514000D01*
X51261000Y27474000D02*
X49240000Y27474000D01*
X47280000Y27474000D02*
X45259000Y27474000D01*
X51246000Y27434000D02*
X49240000Y27434000D01*
X47280000Y27434000D02*
X45274000Y27434000D01*
X51230000Y27394000D02*
X49240000Y27394000D01*
X47280000Y27394000D02*
X45290000Y27394000D01*
X51214000Y27354000D02*
X49240000Y27354000D01*
X47280000Y27354000D02*
X45306000Y27354000D01*
X51197000Y27314000D02*
X49240000Y27314000D01*
X47280000Y27314000D02*
X45323000Y27314000D01*
X51179000Y27274000D02*
X49240000Y27274000D01*
X47280000Y27274000D02*
X45341000Y27274000D01*
X51161000Y27234000D02*
X49240000Y27234000D01*
X47280000Y27234000D02*
X45359000Y27234000D01*
X51142000Y27194000D02*
X49240000Y27194000D01*
X47280000Y27194000D02*
X45378000Y27194000D01*
X51123000Y27154000D02*
X49240000Y27154000D01*
X47280000Y27154000D02*
X45397000Y27154000D01*
X51103000Y27114000D02*
X49240000Y27114000D01*
X47280000Y27114000D02*
X45417000Y27114000D01*
X51082000Y27074000D02*
X49240000Y27074000D01*
X47280000Y27074000D02*
X45438000Y27074000D01*
X51060000Y27034000D02*
X49240000Y27034000D01*
X47280000Y27034000D02*
X45460000Y27034000D01*
X51038000Y26994000D02*
X49240000Y26994000D01*
X47280000Y26994000D02*
X45482000Y26994000D01*
X51015000Y26954000D02*
X49240000Y26954000D01*
X47280000Y26954000D02*
X45505000Y26954000D01*
X50991000Y26914000D02*
X49240000Y26914000D01*
X47280000Y26914000D02*
X45529000Y26914000D01*
X50966000Y26874000D02*
X49240000Y26874000D01*
X47280000Y26874000D02*
X45554000Y26874000D01*
X50941000Y26834000D02*
X49240000Y26834000D01*
X47280000Y26834000D02*
X45579000Y26834000D01*
X50914000Y26794000D02*
X49240000Y26794000D01*
X47280000Y26794000D02*
X45606000Y26794000D01*
X50887000Y26754000D02*
X49240000Y26754000D01*
X47280000Y26754000D02*
X45633000Y26754000D01*
X50859000Y26714000D02*
X49240000Y26714000D01*
X47280000Y26714000D02*
X45661000Y26714000D01*
X50830000Y26674000D02*
X49240000Y26674000D01*
X47280000Y26674000D02*
X45690000Y26674000D01*
X50800000Y26634000D02*
X49240000Y26634000D01*
X47280000Y26634000D02*
X45720000Y26634000D01*
X50770000Y26594000D02*
X49240000Y26594000D01*
X47280000Y26594000D02*
X45750000Y26594000D01*
X50738000Y26554000D02*
X49240000Y26554000D01*
X47280000Y26554000D02*
X45782000Y26554000D01*
X50705000Y26514000D02*
X49240000Y26514000D01*
X47280000Y26514000D02*
X45815000Y26514000D01*
X50671000Y26474000D02*
X49240000Y26474000D01*
X47280000Y26474000D02*
X45849000Y26474000D01*
X50635000Y26434000D02*
X49240000Y26434000D01*
X47280000Y26434000D02*
X45885000Y26434000D01*
X50599000Y26394000D02*
X49240000Y26394000D01*
X47280000Y26394000D02*
X45921000Y26394000D01*
X50561000Y26354000D02*
X45959000Y26354000D01*
X50522000Y26314000D02*
X45998000Y26314000D01*
X50482000Y26274000D02*
X46038000Y26274000D01*
X50440000Y26234000D02*
X46080000Y26234000D01*
X50397000Y26194000D02*
X46123000Y26194000D01*
X50352000Y26154000D02*
X46168000Y26154000D01*
X50305000Y26114000D02*
X46215000Y26114000D01*
X50257000Y26074000D02*
X46263000Y26074000D01*
X50206000Y26034000D02*
X46314000Y26034000D01*
X50154000Y25994000D02*
X46366000Y25994000D01*
X50099000Y25954000D02*
X46421000Y25954000D01*
X50041000Y25914000D02*
X46479000Y25914000D01*
X49981000Y25874000D02*
X46539000Y25874000D01*
X49918000Y25834000D02*
X46602000Y25834000D01*
X49851000Y25794000D02*
X46669000Y25794000D01*
X49780000Y25754000D02*
X46740000Y25754000D01*
X49705000Y25714000D02*
X46815000Y25714000D01*
X49624000Y25674000D02*
X46896000Y25674000D01*
X49538000Y25634000D02*
X46982000Y25634000D01*
X49444000Y25594000D02*
X47076000Y25594000D01*
X49341000Y25554000D02*
X47179000Y25554000D01*
X49226000Y25514000D02*
X47294000Y25514000D01*
X49094000Y25474000D02*
X47426000Y25474000D01*
X48936000Y25434000D02*
X47584000Y25434000D01*
X48728000Y25394000D02*
X47792000Y25394000D01*
X48260000Y32045000D02*
X48260000Y30845000D01*
X48910000Y31445000D02*
X47610000Y31445000D01*
X49239357Y25506560D02*
G75*
G03X49240000Y31683236I-979357J3088440D01*
G01*
X47280643Y25506560D02*
G75*
G02X47280000Y31683236I979357J3088440D01*
G01*
X47280643Y25506560D02*
G75*
G03X49240000Y25506764I979357J3088440D01*
G01*
%TO.C,D2*%
X19600000Y34150000D02*
X19600000Y36970000D01*
X15050000Y35560000D02*
X15120000Y35560000D01*
X20510000Y35560000D02*
X20440000Y35560000D01*
X15120000Y34150000D02*
X20440000Y34150000D01*
X15120000Y36970000D02*
X15120000Y34150000D01*
X20440000Y36970000D02*
X15120000Y36970000D01*
X20440000Y34150000D02*
X20440000Y36970000D01*
%TO.C,D1*%
X53855000Y23635000D02*
X53855000Y20815000D01*
X53855000Y20815000D02*
X59175000Y20815000D01*
X59175000Y20815000D02*
X59175000Y23635000D01*
X59175000Y23635000D02*
X53855000Y23635000D01*
X53785000Y22225000D02*
X53855000Y22225000D01*
X59245000Y22225000D02*
X59175000Y22225000D01*
X54695000Y23635000D02*
X54695000Y20815000D01*
D11*
%TO.C,R8*%
X9017000Y26162000D02*
X8509000Y25654000D01*
X2413000Y27686000D02*
X2413000Y26670000D01*
X9017000Y27686000D02*
X2413000Y27686000D01*
X9017000Y25654000D02*
X9017000Y27686000D01*
X2413000Y25654000D02*
X9017000Y25654000D01*
X2413000Y26670000D02*
X2413000Y25654000D01*
X1905000Y26670000D02*
X2413000Y26670000D01*
X9525000Y26670000D02*
X9017000Y26670000D01*
%TO.C,R7*%
X52705000Y36195000D02*
X53213000Y36195000D01*
X60325000Y36195000D02*
X59817000Y36195000D01*
X59817000Y36195000D02*
X59817000Y37211000D01*
X59817000Y37211000D02*
X53213000Y37211000D01*
X53213000Y37211000D02*
X53213000Y35179000D01*
X53213000Y35179000D02*
X59817000Y35179000D01*
X59817000Y35179000D02*
X59817000Y36195000D01*
X53213000Y36703000D02*
X53721000Y37211000D01*
%TO.C,R6*%
X25273000Y31623000D02*
X25781000Y32131000D01*
X31877000Y30099000D02*
X31877000Y31115000D01*
X25273000Y30099000D02*
X31877000Y30099000D01*
X25273000Y32131000D02*
X25273000Y30099000D01*
X31877000Y32131000D02*
X25273000Y32131000D01*
X31877000Y31115000D02*
X31877000Y32131000D01*
X32385000Y31115000D02*
X31877000Y31115000D01*
X24765000Y31115000D02*
X25273000Y31115000D01*
%TO.C,R5*%
X32385000Y35560000D02*
X31877000Y35560000D01*
X24765000Y35560000D02*
X25273000Y35560000D01*
X25273000Y35560000D02*
X25273000Y34544000D01*
X25273000Y34544000D02*
X31877000Y34544000D01*
X31877000Y34544000D02*
X31877000Y36576000D01*
X31877000Y36576000D02*
X25273000Y36576000D01*
X25273000Y36576000D02*
X25273000Y35560000D01*
X31877000Y35052000D02*
X31369000Y34544000D01*
%TO.C,R4*%
X9017000Y35052000D02*
X8509000Y34544000D01*
X2413000Y36576000D02*
X2413000Y35560000D01*
X9017000Y36576000D02*
X2413000Y36576000D01*
X9017000Y34544000D02*
X9017000Y36576000D01*
X2413000Y34544000D02*
X9017000Y34544000D01*
X2413000Y35560000D02*
X2413000Y34544000D01*
X1905000Y35560000D02*
X2413000Y35560000D01*
X9525000Y35560000D02*
X9017000Y35560000D01*
%TO.C,R3*%
X53975000Y10160000D02*
X53975000Y9652000D01*
X53975000Y2540000D02*
X53975000Y3048000D01*
X53975000Y3048000D02*
X54991000Y3048000D01*
X54991000Y3048000D02*
X54991000Y9652000D01*
X54991000Y9652000D02*
X52959000Y9652000D01*
X52959000Y9652000D02*
X52959000Y3048000D01*
X52959000Y3048000D02*
X53975000Y3048000D01*
X54483000Y9652000D02*
X54991000Y9144000D01*
%TO.C,R2*%
X2413000Y31623000D02*
X2921000Y32131000D01*
X9017000Y30099000D02*
X9017000Y31115000D01*
X2413000Y30099000D02*
X9017000Y30099000D01*
X2413000Y32131000D02*
X2413000Y30099000D01*
X9017000Y32131000D02*
X2413000Y32131000D01*
X9017000Y31115000D02*
X9017000Y32131000D01*
X9525000Y31115000D02*
X9017000Y31115000D01*
X1905000Y31115000D02*
X2413000Y31115000D01*
%TO.C,R1*%
X9525000Y22225000D02*
X9017000Y22225000D01*
X1905000Y22225000D02*
X2413000Y22225000D01*
X2413000Y22225000D02*
X2413000Y21209000D01*
X2413000Y21209000D02*
X9017000Y21209000D01*
X9017000Y21209000D02*
X9017000Y23241000D01*
X9017000Y23241000D02*
X2413000Y23241000D01*
X2413000Y23241000D02*
X2413000Y22225000D01*
X9017000Y21717000D02*
X8509000Y21209000D01*
D13*
%TO.C,U3*%
X48961522Y14671522D02*
G75*
G03X53400000Y16510000I1838478J1838478D01*
G01*
X48961522Y18348478D02*
G75*
G02X53400000Y16510000I1838478J-1838478D01*
G01*
X48950000Y18310000D02*
X48950000Y14710000D01*
D11*
%TO.C,J1*%
X57150000Y6350000D02*
X57150000Y1270000D01*
X57150000Y1270000D02*
X60960000Y1270000D01*
X60960000Y1270000D02*
X61595000Y1905000D01*
X61595000Y1905000D02*
X61595000Y5715000D01*
X61595000Y5715000D02*
X60960000Y6350000D01*
X60960000Y6350000D02*
X57150000Y6350000D01*
%TO.C,J2*%
X1270000Y43180000D02*
X1270000Y39370000D01*
X1905000Y43815000D02*
X1270000Y43180000D01*
X5715000Y43815000D02*
X1905000Y43815000D01*
X6350000Y43180000D02*
X5715000Y43815000D01*
X6350000Y39370000D02*
X6350000Y43180000D01*
X1270000Y39370000D02*
X6350000Y39370000D01*
%TO.C,J3*%
X55880000Y39370000D02*
X60960000Y39370000D01*
X60960000Y39370000D02*
X60960000Y43180000D01*
X60960000Y43180000D02*
X60325000Y43815000D01*
X60325000Y43815000D02*
X56515000Y43815000D01*
X56515000Y43815000D02*
X55880000Y43180000D01*
X55880000Y43180000D02*
X55880000Y39370000D01*
%TO.C,DECAY1*%
X21590000Y43180000D02*
X21590000Y39370000D01*
X22225000Y43815000D02*
X21590000Y43180000D01*
X26035000Y43815000D02*
X22225000Y43815000D01*
X29210000Y43180000D02*
X28575000Y43815000D01*
X29210000Y39370000D02*
X29210000Y43180000D01*
X21590000Y39370000D02*
X26670000Y39370000D01*
X24130000Y39370000D02*
X29210000Y39370000D01*
X28575000Y43815000D02*
X24765000Y43815000D01*
%TO.C,PITCH1*%
X40005000Y43815000D02*
X36195000Y43815000D01*
X35560000Y39370000D02*
X40640000Y39370000D01*
X33020000Y39370000D02*
X38100000Y39370000D01*
X40640000Y39370000D02*
X40640000Y43180000D01*
X40640000Y43180000D02*
X40005000Y43815000D01*
X37465000Y43815000D02*
X33655000Y43815000D01*
X33655000Y43815000D02*
X33020000Y43180000D01*
X33020000Y43180000D02*
X33020000Y39370000D01*
%TO.C,SENSE/STARVE1*%
X10160000Y43180000D02*
X10160000Y39370000D01*
X10795000Y43815000D02*
X10160000Y43180000D01*
X14605000Y43815000D02*
X10795000Y43815000D01*
X17780000Y43180000D02*
X17145000Y43815000D01*
X17780000Y39370000D02*
X17780000Y43180000D01*
X10160000Y39370000D02*
X15240000Y39370000D01*
X12700000Y39370000D02*
X17780000Y39370000D01*
X17145000Y43815000D02*
X13335000Y43815000D01*
%TO.C,Osc_Select1*%
X44450000Y43180000D02*
X44450000Y39370000D01*
X45085000Y43815000D02*
X44450000Y43180000D01*
X48895000Y43815000D02*
X45085000Y43815000D01*
X52070000Y43180000D02*
X51435000Y43815000D01*
X52070000Y39370000D02*
X52070000Y43180000D01*
X44450000Y39370000D02*
X49530000Y39370000D01*
X46990000Y39370000D02*
X52070000Y39370000D01*
X51435000Y43815000D02*
X47625000Y43815000D01*
%TO.C,Button_ON1*%
X5080000Y1270000D02*
X5080000Y6350000D01*
X5080000Y6350000D02*
X1270000Y6350000D01*
X1270000Y6350000D02*
X635000Y5715000D01*
X635000Y5715000D02*
X635000Y1905000D01*
X635000Y1905000D02*
X1270000Y1270000D01*
X1270000Y1270000D02*
X5080000Y1270000D01*
%TO.C,PWR2*%
X60960000Y12700000D02*
X57150000Y12700000D01*
X61595000Y12065000D02*
X60960000Y12700000D01*
X61595000Y8255000D02*
X61595000Y12065000D01*
X60960000Y7620000D02*
X61595000Y8255000D01*
X57150000Y7620000D02*
X60960000Y7620000D01*
X57150000Y12700000D02*
X57150000Y7620000D01*
%TO.C,Switch_On1*%
X5080000Y7620000D02*
X5080000Y12700000D01*
X5080000Y12700000D02*
X1270000Y12700000D01*
X1270000Y12700000D02*
X635000Y12065000D01*
X635000Y12065000D02*
X635000Y8255000D01*
X635000Y8255000D02*
X1270000Y7620000D01*
X1270000Y7620000D02*
X5080000Y7620000D01*
D12*
%TO.C,PWR1*%
X48260000Y12065000D02*
X50800000Y12065000D01*
X48260000Y1905000D02*
X48260000Y12065000D01*
X50800000Y1905000D02*
X48260000Y1905000D01*
X50800000Y12065000D02*
X50800000Y1905000D01*
D13*
%TO.C,U2*%
X25407000Y22844000D02*
G75*
G02X25407000Y20844000I0J-1000000D01*
G01*
X25407000Y24614000D02*
X25407000Y22844000D01*
X43427000Y24614000D02*
X25407000Y24614000D01*
X43427000Y19074000D02*
X43427000Y24614000D01*
X25407000Y19074000D02*
X43427000Y19074000D01*
X25407000Y20844000D02*
X25407000Y19074000D01*
%TO.C,U1*%
X16780000Y21710000D02*
X15010000Y21710000D01*
X15010000Y21710000D02*
X15010000Y11310000D01*
X15010000Y11310000D02*
X20550000Y11310000D01*
X20550000Y11310000D02*
X20550000Y21710000D01*
X20550000Y21710000D02*
X18780000Y21710000D01*
X18780000Y21710000D02*
G75*
G02X16780000Y21710000I-1000000J0D01*
G01*
D12*
%TO.C,GND1*%
X40767000Y15113000D02*
X43307000Y15113000D01*
X40767000Y4953000D02*
X40767000Y15113000D01*
X43307000Y4953000D02*
X40767000Y4953000D01*
X43307000Y15113000D02*
X43307000Y4953000D01*
%TO.C,GND2*%
D11*
X24592000Y1289142D02*
X24563428Y1232000D01*
X24563428Y1146285D01*
X24592000Y1060571D01*
X24649142Y1003428D01*
X24706285Y974857D01*
X24820571Y946285D01*
X24906285Y946285D01*
X25020571Y974857D01*
X25077714Y1003428D01*
X25134857Y1060571D01*
X25163428Y1146285D01*
X25163428Y1203428D01*
X25134857Y1289142D01*
X25106285Y1317714D01*
X24906285Y1317714D01*
X24906285Y1203428D01*
X25163428Y1574857D02*
X24563428Y1574857D01*
X25163428Y1917714D01*
X24563428Y1917714D01*
X25163428Y2203428D02*
X24563428Y2203428D01*
X24563428Y2346285D01*
X24592000Y2432000D01*
X24649142Y2489142D01*
X24706285Y2517714D01*
X24820571Y2546285D01*
X24906285Y2546285D01*
X25020571Y2517714D01*
X25077714Y2489142D01*
X25134857Y2432000D01*
X25163428Y2346285D01*
X25163428Y2203428D01*
X24620571Y2774857D02*
X24592000Y2803428D01*
X24563428Y2860571D01*
X24563428Y3003428D01*
X24592000Y3060571D01*
X24620571Y3089142D01*
X24677714Y3117714D01*
X24734857Y3117714D01*
X24820571Y3089142D01*
X25163428Y2746285D01*
X25163428Y3117714D01*
%TO.C,IN1*%
D14*
X25816000Y15431333D02*
X25816000Y16131333D01*
X26101714Y15431333D02*
X26101714Y16131333D01*
X26444571Y15431333D01*
X26444571Y16131333D01*
X27044571Y15431333D02*
X26701714Y15431333D01*
X26873142Y15431333D02*
X26873142Y16131333D01*
X26816000Y16031333D01*
X26758857Y15964666D01*
X26701714Y15931333D01*
%TO.C,OUT3*%
X38484285Y16131333D02*
X38598571Y16131333D01*
X38655714Y16098000D01*
X38712857Y16031333D01*
X38741428Y15898000D01*
X38741428Y15664666D01*
X38712857Y15531333D01*
X38655714Y15464666D01*
X38598571Y15431333D01*
X38484285Y15431333D01*
X38427142Y15464666D01*
X38370000Y15531333D01*
X38341428Y15664666D01*
X38341428Y15898000D01*
X38370000Y16031333D01*
X38427142Y16098000D01*
X38484285Y16131333D01*
X38998571Y16131333D02*
X38998571Y15564666D01*
X39027142Y15498000D01*
X39055714Y15464666D01*
X39112857Y15431333D01*
X39227142Y15431333D01*
X39284285Y15464666D01*
X39312857Y15498000D01*
X39341428Y15564666D01*
X39341428Y16131333D01*
X39541428Y16131333D02*
X39884285Y16131333D01*
X39712857Y15431333D02*
X39712857Y16131333D01*
X40027142Y16131333D02*
X40398571Y16131333D01*
X40198571Y15864666D01*
X40284285Y15864666D01*
X40341428Y15831333D01*
X40370000Y15798000D01*
X40398571Y15731333D01*
X40398571Y15564666D01*
X40370000Y15498000D01*
X40341428Y15464666D01*
X40284285Y15431333D01*
X40112857Y15431333D01*
X40055714Y15464666D01*
X40027142Y15498000D01*
%TO.C,OUT2*%
X33404285Y16131333D02*
X33518571Y16131333D01*
X33575714Y16098000D01*
X33632857Y16031333D01*
X33661428Y15898000D01*
X33661428Y15664666D01*
X33632857Y15531333D01*
X33575714Y15464666D01*
X33518571Y15431333D01*
X33404285Y15431333D01*
X33347142Y15464666D01*
X33290000Y15531333D01*
X33261428Y15664666D01*
X33261428Y15898000D01*
X33290000Y16031333D01*
X33347142Y16098000D01*
X33404285Y16131333D01*
X33918571Y16131333D02*
X33918571Y15564666D01*
X33947142Y15498000D01*
X33975714Y15464666D01*
X34032857Y15431333D01*
X34147142Y15431333D01*
X34204285Y15464666D01*
X34232857Y15498000D01*
X34261428Y15564666D01*
X34261428Y16131333D01*
X34461428Y16131333D02*
X34804285Y16131333D01*
X34632857Y15431333D02*
X34632857Y16131333D01*
X34975714Y16064666D02*
X35004285Y16098000D01*
X35061428Y16131333D01*
X35204285Y16131333D01*
X35261428Y16098000D01*
X35290000Y16064666D01*
X35318571Y15998000D01*
X35318571Y15931333D01*
X35290000Y15831333D01*
X34947142Y15431333D01*
X35318571Y15431333D01*
%TO.C,OUT1*%
X28324285Y16131333D02*
X28438571Y16131333D01*
X28495714Y16098000D01*
X28552857Y16031333D01*
X28581428Y15898000D01*
X28581428Y15664666D01*
X28552857Y15531333D01*
X28495714Y15464666D01*
X28438571Y15431333D01*
X28324285Y15431333D01*
X28267142Y15464666D01*
X28210000Y15531333D01*
X28181428Y15664666D01*
X28181428Y15898000D01*
X28210000Y16031333D01*
X28267142Y16098000D01*
X28324285Y16131333D01*
X28838571Y16131333D02*
X28838571Y15564666D01*
X28867142Y15498000D01*
X28895714Y15464666D01*
X28952857Y15431333D01*
X29067142Y15431333D01*
X29124285Y15464666D01*
X29152857Y15498000D01*
X29181428Y15564666D01*
X29181428Y16131333D01*
X29381428Y16131333D02*
X29724285Y16131333D01*
X29552857Y15431333D02*
X29552857Y16131333D01*
X30238571Y15431333D02*
X29895714Y15431333D01*
X30067142Y15431333D02*
X30067142Y16131333D01*
X30010000Y16031333D01*
X29952857Y15964666D01*
X29895714Y15931333D01*
%TO.C,OscSwitchStrip1*%
X46606666Y6006000D02*
X46606666Y6139333D01*
X46640000Y6206000D01*
X46706666Y6272666D01*
X46840000Y6306000D01*
X47073333Y6306000D01*
X47206666Y6272666D01*
X47273333Y6206000D01*
X47306666Y6139333D01*
X47306666Y6006000D01*
X47273333Y5939333D01*
X47206666Y5872666D01*
X47073333Y5839333D01*
X46840000Y5839333D01*
X46706666Y5872666D01*
X46640000Y5939333D01*
X46606666Y6006000D01*
X47273333Y6572666D02*
X47306666Y6639333D01*
X47306666Y6772666D01*
X47273333Y6839333D01*
X47206666Y6872666D01*
X47173333Y6872666D01*
X47106666Y6839333D01*
X47073333Y6772666D01*
X47073333Y6672666D01*
X47040000Y6606000D01*
X46973333Y6572666D01*
X46940000Y6572666D01*
X46873333Y6606000D01*
X46840000Y6672666D01*
X46840000Y6772666D01*
X46873333Y6839333D01*
X47273333Y7472666D02*
X47306666Y7406000D01*
X47306666Y7272666D01*
X47273333Y7206000D01*
X47240000Y7172666D01*
X47173333Y7139333D01*
X46973333Y7139333D01*
X46906666Y7172666D01*
X46873333Y7206000D01*
X46840000Y7272666D01*
X46840000Y7406000D01*
X46873333Y7472666D01*
X47273333Y7739333D02*
X47306666Y7839333D01*
X47306666Y8006000D01*
X47273333Y8072666D01*
X47240000Y8106000D01*
X47173333Y8139333D01*
X47106666Y8139333D01*
X47040000Y8106000D01*
X47006666Y8072666D01*
X46973333Y8006000D01*
X46940000Y7872666D01*
X46906666Y7806000D01*
X46873333Y7772666D01*
X46806666Y7739333D01*
X46740000Y7739333D01*
X46673333Y7772666D01*
X46640000Y7806000D01*
X46606666Y7872666D01*
X46606666Y8039333D01*
X46640000Y8139333D01*
X46840000Y8372666D02*
X47306666Y8506000D01*
X46973333Y8639333D01*
X47306666Y8772666D01*
X46840000Y8906000D01*
X47306666Y9172666D02*
X46840000Y9172666D01*
X46606666Y9172666D02*
X46640000Y9139333D01*
X46673333Y9172666D01*
X46640000Y9206000D01*
X46606666Y9172666D01*
X46673333Y9172666D01*
X46840000Y9406000D02*
X46840000Y9672666D01*
X46606666Y9506000D02*
X47206666Y9506000D01*
X47273333Y9539333D01*
X47306666Y9606000D01*
X47306666Y9672666D01*
X47273333Y10206000D02*
X47306666Y10139333D01*
X47306666Y10006000D01*
X47273333Y9939333D01*
X47240000Y9906000D01*
X47173333Y9872666D01*
X46973333Y9872666D01*
X46906666Y9906000D01*
X46873333Y9939333D01*
X46840000Y10006000D01*
X46840000Y10139333D01*
X46873333Y10206000D01*
X47306666Y10506000D02*
X46606666Y10506000D01*
X47306666Y10806000D02*
X46940000Y10806000D01*
X46873333Y10772666D01*
X46840000Y10706000D01*
X46840000Y10606000D01*
X46873333Y10539333D01*
X46906666Y10506000D01*
X47273333Y11106000D02*
X47306666Y11206000D01*
X47306666Y11372666D01*
X47273333Y11439333D01*
X47240000Y11472666D01*
X47173333Y11506000D01*
X47106666Y11506000D01*
X47040000Y11472666D01*
X47006666Y11439333D01*
X46973333Y11372666D01*
X46940000Y11239333D01*
X46906666Y11172666D01*
X46873333Y11139333D01*
X46806666Y11106000D01*
X46740000Y11106000D01*
X46673333Y11139333D01*
X46640000Y11172666D01*
X46606666Y11239333D01*
X46606666Y11406000D01*
X46640000Y11506000D01*
X46840000Y11706000D02*
X46840000Y11972666D01*
X46606666Y11806000D02*
X47206666Y11806000D01*
X47273333Y11839333D01*
X47306666Y11906000D01*
X47306666Y11972666D01*
X47306666Y12206000D02*
X46840000Y12206000D01*
X46973333Y12206000D02*
X46906666Y12239333D01*
X46873333Y12272666D01*
X46840000Y12339333D01*
X46840000Y12406000D01*
X47306666Y12639333D02*
X46840000Y12639333D01*
X46606666Y12639333D02*
X46640000Y12606000D01*
X46673333Y12639333D01*
X46640000Y12672666D01*
X46606666Y12639333D01*
X46673333Y12639333D01*
X46840000Y12972666D02*
X47540000Y12972666D01*
X46873333Y12972666D02*
X46840000Y13039333D01*
X46840000Y13172666D01*
X46873333Y13239333D01*
X46906666Y13272666D01*
X46973333Y13306000D01*
X47173333Y13306000D01*
X47240000Y13272666D01*
X47273333Y13239333D01*
X47306666Y13172666D01*
X47306666Y13039333D01*
X47273333Y12972666D01*
X47306666Y13972666D02*
X47306666Y13572666D01*
X47306666Y13772666D02*
X46606666Y13772666D01*
X46706666Y13706000D01*
X46773333Y13639333D01*
X46806666Y13572666D01*
%TO.C,IN2*%
X30896000Y15431333D02*
X30896000Y16131333D01*
X31181714Y15431333D02*
X31181714Y16131333D01*
X31524571Y15431333D01*
X31524571Y16131333D01*
X31781714Y16064666D02*
X31810285Y16098000D01*
X31867428Y16131333D01*
X32010285Y16131333D01*
X32067428Y16098000D01*
X32096000Y16064666D01*
X32124571Y15998000D01*
X32124571Y15931333D01*
X32096000Y15831333D01*
X31753142Y15431333D01*
X32124571Y15431333D01*
%TO.C,IN3*%
X35976000Y15431333D02*
X35976000Y16131333D01*
X36261714Y15431333D02*
X36261714Y16131333D01*
X36604571Y15431333D01*
X36604571Y16131333D01*
X36833142Y16131333D02*
X37204571Y16131333D01*
X37004571Y15864666D01*
X37090285Y15864666D01*
X37147428Y15831333D01*
X37176000Y15798000D01*
X37204571Y15731333D01*
X37204571Y15564666D01*
X37176000Y15498000D01*
X37147428Y15464666D01*
X37090285Y15431333D01*
X36918857Y15431333D01*
X36861714Y15464666D01*
X36833142Y15498000D01*
%TO.C,ON/OFF_LED1*%
D11*
X55471428Y13677142D02*
X55471428Y13791428D01*
X55500000Y13848571D01*
X55557142Y13905714D01*
X55671428Y13934285D01*
X55871428Y13934285D01*
X55985714Y13905714D01*
X56042857Y13848571D01*
X56071428Y13791428D01*
X56071428Y13677142D01*
X56042857Y13620000D01*
X55985714Y13562857D01*
X55871428Y13534285D01*
X55671428Y13534285D01*
X55557142Y13562857D01*
X55500000Y13620000D01*
X55471428Y13677142D01*
X56071428Y14191428D02*
X55471428Y14191428D01*
X56071428Y14534285D01*
X55471428Y14534285D01*
X55442857Y15248571D02*
X56214285Y14734285D01*
X55471428Y15562857D02*
X55471428Y15677142D01*
X55500000Y15734285D01*
X55557142Y15791428D01*
X55671428Y15820000D01*
X55871428Y15820000D01*
X55985714Y15791428D01*
X56042857Y15734285D01*
X56071428Y15677142D01*
X56071428Y15562857D01*
X56042857Y15505714D01*
X55985714Y15448571D01*
X55871428Y15420000D01*
X55671428Y15420000D01*
X55557142Y15448571D01*
X55500000Y15505714D01*
X55471428Y15562857D01*
X55757142Y16277142D02*
X55757142Y16077142D01*
X56071428Y16077142D02*
X55471428Y16077142D01*
X55471428Y16362857D01*
X55757142Y16791428D02*
X55757142Y16591428D01*
X56071428Y16591428D02*
X55471428Y16591428D01*
X55471428Y16877142D01*
X56128571Y16962857D02*
X56128571Y17420000D01*
X56071428Y17848571D02*
X56071428Y17562857D01*
X55471428Y17562857D01*
X55757142Y18048571D02*
X55757142Y18248571D01*
X56071428Y18334285D02*
X56071428Y18048571D01*
X55471428Y18048571D01*
X55471428Y18334285D01*
X56071428Y18591428D02*
X55471428Y18591428D01*
X55471428Y18734285D01*
X55500000Y18820000D01*
X55557142Y18877142D01*
X55614285Y18905714D01*
X55728571Y18934285D01*
X55814285Y18934285D01*
X55928571Y18905714D01*
X55985714Y18877142D01*
X56042857Y18820000D01*
X56071428Y18734285D01*
X56071428Y18591428D01*
X56071428Y19505714D02*
X56071428Y19162857D01*
X56071428Y19334285D02*
X55471428Y19334285D01*
X55557142Y19277142D01*
X55614285Y19220000D01*
X55642857Y19162857D01*
D12*
X57809047Y19458809D02*
X57570952Y19458809D01*
X57570952Y19958809D01*
X57975714Y19720714D02*
X58142380Y19720714D01*
X58213809Y19458809D02*
X57975714Y19458809D01*
X57975714Y19958809D01*
X58213809Y19958809D01*
X58428095Y19458809D02*
X58428095Y19958809D01*
X58547142Y19958809D01*
X58618571Y19935000D01*
X58666190Y19887380D01*
X58690000Y19839761D01*
X58713809Y19744523D01*
X58713809Y19673095D01*
X58690000Y19577857D01*
X58666190Y19530238D01*
X58618571Y19482619D01*
X58547142Y19458809D01*
X58428095Y19458809D01*
X58928095Y19649285D02*
X59309047Y19649285D01*
X59832857Y19506428D02*
X59809047Y19482619D01*
X59737619Y19458809D01*
X59690000Y19458809D01*
X59618571Y19482619D01*
X59570952Y19530238D01*
X59547142Y19577857D01*
X59523333Y19673095D01*
X59523333Y19744523D01*
X59547142Y19839761D01*
X59570952Y19887380D01*
X59618571Y19935000D01*
X59690000Y19958809D01*
X59737619Y19958809D01*
X59809047Y19935000D01*
X59832857Y19911190D01*
X60309047Y19458809D02*
X60023333Y19458809D01*
X60166190Y19458809D02*
X60166190Y19958809D01*
X60118571Y19887380D01*
X60070952Y19839761D01*
X60023333Y19815952D01*
X60523333Y19649285D02*
X60904285Y19649285D01*
X61118571Y19601666D02*
X61356666Y19601666D01*
X61070952Y19458809D02*
X61237619Y19958809D01*
X61404285Y19458809D01*
X61547142Y19911190D02*
X61570952Y19935000D01*
X61618571Y19958809D01*
X61737619Y19958809D01*
X61785238Y19935000D01*
X61809047Y19911190D01*
X61832857Y19863571D01*
X61832857Y19815952D01*
X61809047Y19744523D01*
X61523333Y19458809D01*
X61832857Y19458809D01*
D15*
X56941190Y14726428D02*
X56953095Y14762142D01*
X56953095Y14821666D01*
X56941190Y14845476D01*
X56929285Y14857380D01*
X56905476Y14869285D01*
X56881666Y14869285D01*
X56857857Y14857380D01*
X56845952Y14845476D01*
X56834047Y14821666D01*
X56822142Y14774047D01*
X56810238Y14750238D01*
X56798333Y14738333D01*
X56774523Y14726428D01*
X56750714Y14726428D01*
X56726904Y14738333D01*
X56715000Y14750238D01*
X56703095Y14774047D01*
X56703095Y14833571D01*
X56715000Y14869285D01*
X56953095Y14976428D02*
X56703095Y14976428D01*
X56822142Y14976428D02*
X56822142Y15119285D01*
X56953095Y15119285D02*
X56703095Y15119285D01*
X56703095Y15285952D02*
X56703095Y15333571D01*
X56715000Y15357380D01*
X56738809Y15381190D01*
X56786428Y15393095D01*
X56869761Y15393095D01*
X56917380Y15381190D01*
X56941190Y15357380D01*
X56953095Y15333571D01*
X56953095Y15285952D01*
X56941190Y15262142D01*
X56917380Y15238333D01*
X56869761Y15226428D01*
X56786428Y15226428D01*
X56738809Y15238333D01*
X56715000Y15262142D01*
X56703095Y15285952D01*
X56953095Y15643095D02*
X56834047Y15559761D01*
X56953095Y15500238D02*
X56703095Y15500238D01*
X56703095Y15595476D01*
X56715000Y15619285D01*
X56726904Y15631190D01*
X56750714Y15643095D01*
X56786428Y15643095D01*
X56810238Y15631190D01*
X56822142Y15619285D01*
X56834047Y15595476D01*
X56834047Y15500238D01*
X56703095Y15714523D02*
X56703095Y15857380D01*
X56953095Y15785952D02*
X56703095Y15785952D01*
X56933095Y17540476D02*
X56933095Y17421428D01*
X56683095Y17421428D01*
X56683095Y17671428D02*
X56683095Y17719047D01*
X56695000Y17742857D01*
X56718809Y17766666D01*
X56766428Y17778571D01*
X56849761Y17778571D01*
X56897380Y17766666D01*
X56921190Y17742857D01*
X56933095Y17719047D01*
X56933095Y17671428D01*
X56921190Y17647619D01*
X56897380Y17623809D01*
X56849761Y17611904D01*
X56766428Y17611904D01*
X56718809Y17623809D01*
X56695000Y17647619D01*
X56683095Y17671428D01*
X56933095Y17885714D02*
X56683095Y17885714D01*
X56933095Y18028571D01*
X56683095Y18028571D01*
X56695000Y18278571D02*
X56683095Y18254761D01*
X56683095Y18219047D01*
X56695000Y18183333D01*
X56718809Y18159523D01*
X56742619Y18147619D01*
X56790238Y18135714D01*
X56825952Y18135714D01*
X56873571Y18147619D01*
X56897380Y18159523D01*
X56921190Y18183333D01*
X56933095Y18219047D01*
X56933095Y18242857D01*
X56921190Y18278571D01*
X56909285Y18290476D01*
X56825952Y18290476D01*
X56825952Y18242857D01*
D12*
X57630214Y14160523D02*
X57630214Y14541476D01*
X57630214Y18478523D02*
X57630214Y18859476D01*
X57820690Y18669000D02*
X57439738Y18669000D01*
%TO.C,Trig_LED1*%
D11*
X6021428Y14410000D02*
X6021428Y14752857D01*
X6621428Y14581428D02*
X6021428Y14581428D01*
X6621428Y14952857D02*
X6221428Y14952857D01*
X6335714Y14952857D02*
X6278571Y14981428D01*
X6250000Y15010000D01*
X6221428Y15067142D01*
X6221428Y15124285D01*
X6621428Y15324285D02*
X6221428Y15324285D01*
X6021428Y15324285D02*
X6050000Y15295714D01*
X6078571Y15324285D01*
X6050000Y15352857D01*
X6021428Y15324285D01*
X6078571Y15324285D01*
X6221428Y15867142D02*
X6707142Y15867142D01*
X6764285Y15838571D01*
X6792857Y15810000D01*
X6821428Y15752857D01*
X6821428Y15667142D01*
X6792857Y15610000D01*
X6592857Y15867142D02*
X6621428Y15810000D01*
X6621428Y15695714D01*
X6592857Y15638571D01*
X6564285Y15610000D01*
X6507142Y15581428D01*
X6335714Y15581428D01*
X6278571Y15610000D01*
X6250000Y15638571D01*
X6221428Y15695714D01*
X6221428Y15810000D01*
X6250000Y15867142D01*
X6678571Y16010000D02*
X6678571Y16467142D01*
X6621428Y16895714D02*
X6621428Y16610000D01*
X6021428Y16610000D01*
X6307142Y17095714D02*
X6307142Y17295714D01*
X6621428Y17381428D02*
X6621428Y17095714D01*
X6021428Y17095714D01*
X6021428Y17381428D01*
X6621428Y17638571D02*
X6021428Y17638571D01*
X6021428Y17781428D01*
X6050000Y17867142D01*
X6107142Y17924285D01*
X6164285Y17952857D01*
X6278571Y17981428D01*
X6364285Y17981428D01*
X6478571Y17952857D01*
X6535714Y17924285D01*
X6592857Y17867142D01*
X6621428Y17781428D01*
X6621428Y17638571D01*
X6621428Y18552857D02*
X6621428Y18210000D01*
X6621428Y18381428D02*
X6021428Y18381428D01*
X6107142Y18324285D01*
X6164285Y18267142D01*
X6192857Y18210000D01*
D12*
X659047Y19458809D02*
X420952Y19458809D01*
X420952Y19958809D01*
X825714Y19720714D02*
X992380Y19720714D01*
X1063809Y19458809D02*
X825714Y19458809D01*
X825714Y19958809D01*
X1063809Y19958809D01*
X1278095Y19458809D02*
X1278095Y19958809D01*
X1397142Y19958809D01*
X1468571Y19935000D01*
X1516190Y19887380D01*
X1539999Y19839761D01*
X1563809Y19744523D01*
X1563809Y19673095D01*
X1539999Y19577857D01*
X1516190Y19530238D01*
X1468571Y19482619D01*
X1397142Y19458809D01*
X1278095Y19458809D01*
X1778095Y19649285D02*
X2159047Y19649285D01*
X2682857Y19506428D02*
X2659047Y19482619D01*
X2587619Y19458809D01*
X2539999Y19458809D01*
X2468571Y19482619D01*
X2420952Y19530238D01*
X2397142Y19577857D01*
X2373333Y19673095D01*
X2373333Y19744523D01*
X2397142Y19839761D01*
X2420952Y19887380D01*
X2468571Y19935000D01*
X2539999Y19958809D01*
X2587619Y19958809D01*
X2659047Y19935000D01*
X2682857Y19911190D01*
X3159047Y19458809D02*
X2873333Y19458809D01*
X3016190Y19458809D02*
X3016190Y19958809D01*
X2968571Y19887380D01*
X2920952Y19839761D01*
X2873333Y19815952D01*
X3373333Y19649285D02*
X3754285Y19649285D01*
X3968571Y19601666D02*
X4206666Y19601666D01*
X3920952Y19458809D02*
X4087619Y19958809D01*
X4254285Y19458809D01*
X4397142Y19911190D02*
X4420952Y19935000D01*
X4468571Y19958809D01*
X4587619Y19958809D01*
X4635238Y19935000D01*
X4659047Y19911190D01*
X4682857Y19863571D01*
X4682857Y19815952D01*
X4659047Y19744523D01*
X4373333Y19458809D01*
X4682857Y19458809D01*
X4671214Y14160523D02*
X4671214Y14541476D01*
X4861690Y14351000D02*
X4480738Y14351000D01*
X4671214Y18478523D02*
X4671214Y18859476D01*
D15*
X5523095Y14860476D02*
X5523095Y14741428D01*
X5273095Y14741428D01*
X5273095Y14991428D02*
X5273095Y15039047D01*
X5285000Y15062857D01*
X5308809Y15086666D01*
X5356428Y15098571D01*
X5439761Y15098571D01*
X5487380Y15086666D01*
X5511190Y15062857D01*
X5523095Y15039047D01*
X5523095Y14991428D01*
X5511190Y14967619D01*
X5487380Y14943809D01*
X5439761Y14931904D01*
X5356428Y14931904D01*
X5308809Y14943809D01*
X5285000Y14967619D01*
X5273095Y14991428D01*
X5523095Y15205714D02*
X5273095Y15205714D01*
X5523095Y15348571D01*
X5273095Y15348571D01*
X5285000Y15598571D02*
X5273095Y15574761D01*
X5273095Y15539047D01*
X5285000Y15503333D01*
X5308809Y15479523D01*
X5332619Y15467619D01*
X5380238Y15455714D01*
X5415952Y15455714D01*
X5463571Y15467619D01*
X5487380Y15479523D01*
X5511190Y15503333D01*
X5523095Y15539047D01*
X5523095Y15562857D01*
X5511190Y15598571D01*
X5499285Y15610476D01*
X5415952Y15610476D01*
X5415952Y15562857D01*
X5491190Y17186428D02*
X5503095Y17222142D01*
X5503095Y17281666D01*
X5491190Y17305476D01*
X5479285Y17317380D01*
X5455476Y17329285D01*
X5431666Y17329285D01*
X5407857Y17317380D01*
X5395952Y17305476D01*
X5384047Y17281666D01*
X5372142Y17234047D01*
X5360238Y17210238D01*
X5348333Y17198333D01*
X5324523Y17186428D01*
X5300714Y17186428D01*
X5276904Y17198333D01*
X5265000Y17210238D01*
X5253095Y17234047D01*
X5253095Y17293571D01*
X5265000Y17329285D01*
X5503095Y17436428D02*
X5253095Y17436428D01*
X5372142Y17436428D02*
X5372142Y17579285D01*
X5503095Y17579285D02*
X5253095Y17579285D01*
X5253095Y17745952D02*
X5253095Y17793571D01*
X5265000Y17817380D01*
X5288809Y17841190D01*
X5336428Y17853095D01*
X5419761Y17853095D01*
X5467380Y17841190D01*
X5491190Y17817380D01*
X5503095Y17793571D01*
X5503095Y17745952D01*
X5491190Y17722142D01*
X5467380Y17698333D01*
X5419761Y17686428D01*
X5336428Y17686428D01*
X5288809Y17698333D01*
X5265000Y17722142D01*
X5253095Y17745952D01*
X5503095Y18103095D02*
X5384047Y18019761D01*
X5503095Y17960238D02*
X5253095Y17960238D01*
X5253095Y18055476D01*
X5265000Y18079285D01*
X5276904Y18091190D01*
X5300714Y18103095D01*
X5336428Y18103095D01*
X5360238Y18091190D01*
X5372142Y18079285D01*
X5384047Y18055476D01*
X5384047Y17960238D01*
X5253095Y18174523D02*
X5253095Y18317380D01*
X5503095Y18245952D02*
X5253095Y18245952D01*
%TO.C,C5*%
D14*
X46873333Y35437000D02*
X46840000Y35403666D01*
X46740000Y35370333D01*
X46673333Y35370333D01*
X46573333Y35403666D01*
X46506666Y35470333D01*
X46473333Y35537000D01*
X46440000Y35670333D01*
X46440000Y35770333D01*
X46473333Y35903666D01*
X46506666Y35970333D01*
X46573333Y36037000D01*
X46673333Y36070333D01*
X46740000Y36070333D01*
X46840000Y36037000D01*
X46873333Y36003666D01*
X47506666Y36070333D02*
X47173333Y36070333D01*
X47140000Y35737000D01*
X47173333Y35770333D01*
X47240000Y35803666D01*
X47406666Y35803666D01*
X47473333Y35770333D01*
X47506666Y35737000D01*
X47540000Y35670333D01*
X47540000Y35503666D01*
X47506666Y35437000D01*
X47473333Y35403666D01*
X47406666Y35370333D01*
X47240000Y35370333D01*
X47173333Y35403666D01*
X47140000Y35437000D01*
X45506666Y37019666D02*
X45540000Y37053000D01*
X45606666Y37086333D01*
X45773333Y37086333D01*
X45840000Y37053000D01*
X45873333Y37019666D01*
X45906666Y36953000D01*
X45906666Y36886333D01*
X45873333Y36786333D01*
X45473333Y36386333D01*
X45906666Y36386333D01*
X46173333Y37019666D02*
X46206666Y37053000D01*
X46273333Y37086333D01*
X46440000Y37086333D01*
X46506666Y37053000D01*
X46540000Y37019666D01*
X46573333Y36953000D01*
X46573333Y36886333D01*
X46540000Y36786333D01*
X46140000Y36386333D01*
X46573333Y36386333D01*
X47006666Y37086333D02*
X47073333Y37086333D01*
X47140000Y37053000D01*
X47173333Y37019666D01*
X47206666Y36953000D01*
X47240000Y36819666D01*
X47240000Y36653000D01*
X47206666Y36519666D01*
X47173333Y36453000D01*
X47140000Y36419666D01*
X47073333Y36386333D01*
X47006666Y36386333D01*
X46940000Y36419666D01*
X46906666Y36453000D01*
X46873333Y36519666D01*
X46840000Y36653000D01*
X46840000Y36819666D01*
X46873333Y36953000D01*
X46906666Y37019666D01*
X46940000Y37053000D01*
X47006666Y37086333D01*
X47540000Y36853000D02*
X47540000Y36386333D01*
X47540000Y36786333D02*
X47573333Y36819666D01*
X47640000Y36853000D01*
X47740000Y36853000D01*
X47806666Y36819666D01*
X47840000Y36753000D01*
X47840000Y36386333D01*
X48406666Y36753000D02*
X48173333Y36753000D01*
X48173333Y36386333D02*
X48173333Y37086333D01*
X48506666Y37086333D01*
%TO.C,C4*%
X19554000Y6868333D02*
X19587333Y6835000D01*
X19620666Y6735000D01*
X19620666Y6668333D01*
X19587333Y6568333D01*
X19520666Y6501666D01*
X19454000Y6468333D01*
X19320666Y6435000D01*
X19220666Y6435000D01*
X19087333Y6468333D01*
X19020666Y6501666D01*
X18954000Y6568333D01*
X18920666Y6668333D01*
X18920666Y6735000D01*
X18954000Y6835000D01*
X18987333Y6868333D01*
X19154000Y7468333D02*
X19620666Y7468333D01*
X18887333Y7301666D02*
X19387333Y7135000D01*
X19387333Y7568333D01*
X16572666Y6568333D02*
X16572666Y6168333D01*
X16572666Y6368333D02*
X15872666Y6368333D01*
X15972666Y6301666D01*
X16039333Y6235000D01*
X16072666Y6168333D01*
X16106000Y7168333D02*
X16572666Y7168333D01*
X16106000Y6868333D02*
X16472666Y6868333D01*
X16539333Y6901666D01*
X16572666Y6968333D01*
X16572666Y7068333D01*
X16539333Y7135000D01*
X16506000Y7168333D01*
X16206000Y7735000D02*
X16206000Y7501666D01*
X16572666Y7501666D02*
X15872666Y7501666D01*
X15872666Y7835000D01*
%TO.C,C1*%
X60208333Y32770000D02*
X60175000Y32736666D01*
X60075000Y32703333D01*
X60008333Y32703333D01*
X59908333Y32736666D01*
X59841666Y32803333D01*
X59808333Y32870000D01*
X59775000Y33003333D01*
X59775000Y33103333D01*
X59808333Y33236666D01*
X59841666Y33303333D01*
X59908333Y33370000D01*
X60008333Y33403333D01*
X60075000Y33403333D01*
X60175000Y33370000D01*
X60208333Y33336666D01*
X60875000Y32703333D02*
X60475000Y32703333D01*
X60675000Y32703333D02*
X60675000Y33403333D01*
X60608333Y33303333D01*
X60541666Y33236666D01*
X60475000Y33203333D01*
X54796666Y32703333D02*
X54396666Y32703333D01*
X54596666Y32703333D02*
X54596666Y33403333D01*
X54530000Y33303333D01*
X54463333Y33236666D01*
X54396666Y33203333D01*
X55230000Y33403333D02*
X55296666Y33403333D01*
X55363333Y33370000D01*
X55396666Y33336666D01*
X55430000Y33270000D01*
X55463333Y33136666D01*
X55463333Y32970000D01*
X55430000Y32836666D01*
X55396666Y32770000D01*
X55363333Y32736666D01*
X55296666Y32703333D01*
X55230000Y32703333D01*
X55163333Y32736666D01*
X55130000Y32770000D01*
X55096666Y32836666D01*
X55063333Y32970000D01*
X55063333Y33136666D01*
X55096666Y33270000D01*
X55130000Y33336666D01*
X55163333Y33370000D01*
X55230000Y33403333D01*
X55896666Y33403333D02*
X55963333Y33403333D01*
X56030000Y33370000D01*
X56063333Y33336666D01*
X56096666Y33270000D01*
X56130000Y33136666D01*
X56130000Y32970000D01*
X56096666Y32836666D01*
X56063333Y32770000D01*
X56030000Y32736666D01*
X55963333Y32703333D01*
X55896666Y32703333D01*
X55830000Y32736666D01*
X55796666Y32770000D01*
X55763333Y32836666D01*
X55730000Y32970000D01*
X55730000Y33136666D01*
X55763333Y33270000D01*
X55796666Y33336666D01*
X55830000Y33370000D01*
X55896666Y33403333D01*
X56730000Y33170000D02*
X56730000Y32703333D01*
X56430000Y33170000D02*
X56430000Y32803333D01*
X56463333Y32736666D01*
X56530000Y32703333D01*
X56630000Y32703333D01*
X56696666Y32736666D01*
X56730000Y32770000D01*
X57296666Y33070000D02*
X57063333Y33070000D01*
X57063333Y32703333D02*
X57063333Y33403333D01*
X57396666Y33403333D01*
%TO.C,C2*%
X20203333Y31500000D02*
X20170000Y31466666D01*
X20070000Y31433333D01*
X20003333Y31433333D01*
X19903333Y31466666D01*
X19836666Y31533333D01*
X19803333Y31600000D01*
X19770000Y31733333D01*
X19770000Y31833333D01*
X19803333Y31966666D01*
X19836666Y32033333D01*
X19903333Y32100000D01*
X20003333Y32133333D01*
X20070000Y32133333D01*
X20170000Y32100000D01*
X20203333Y32066666D01*
X20470000Y32066666D02*
X20503333Y32100000D01*
X20570000Y32133333D01*
X20736666Y32133333D01*
X20803333Y32100000D01*
X20836666Y32066666D01*
X20870000Y32000000D01*
X20870000Y31933333D01*
X20836666Y31833333D01*
X20436666Y31433333D01*
X20870000Y31433333D01*
X14823333Y31433333D02*
X14423333Y31433333D01*
X14623333Y31433333D02*
X14623333Y32133333D01*
X14556666Y32033333D01*
X14490000Y31966666D01*
X14423333Y31933333D01*
X15423333Y31900000D02*
X15423333Y31433333D01*
X15123333Y31900000D02*
X15123333Y31533333D01*
X15156666Y31466666D01*
X15223333Y31433333D01*
X15323333Y31433333D01*
X15390000Y31466666D01*
X15423333Y31500000D01*
X15990000Y31800000D02*
X15756666Y31800000D01*
X15756666Y31433333D02*
X15756666Y32133333D01*
X16090000Y32133333D01*
%TO.C,C3*%
X50683333Y32770000D02*
X50650000Y32736666D01*
X50550000Y32703333D01*
X50483333Y32703333D01*
X50383333Y32736666D01*
X50316666Y32803333D01*
X50283333Y32870000D01*
X50250000Y33003333D01*
X50250000Y33103333D01*
X50283333Y33236666D01*
X50316666Y33303333D01*
X50383333Y33370000D01*
X50483333Y33403333D01*
X50550000Y33403333D01*
X50650000Y33370000D01*
X50683333Y33336666D01*
X50916666Y33403333D02*
X51350000Y33403333D01*
X51116666Y33136666D01*
X51216666Y33136666D01*
X51283333Y33103333D01*
X51316666Y33070000D01*
X51350000Y33003333D01*
X51350000Y32836666D01*
X51316666Y32770000D01*
X51283333Y32736666D01*
X51216666Y32703333D01*
X51016666Y32703333D01*
X50950000Y32736666D01*
X50916666Y32770000D01*
X45605000Y32703333D02*
X45205000Y32703333D01*
X45405000Y32703333D02*
X45405000Y33403333D01*
X45338333Y33303333D01*
X45271666Y33236666D01*
X45205000Y33203333D01*
X46038333Y33403333D02*
X46105000Y33403333D01*
X46171666Y33370000D01*
X46205000Y33336666D01*
X46238333Y33270000D01*
X46271666Y33136666D01*
X46271666Y32970000D01*
X46238333Y32836666D01*
X46205000Y32770000D01*
X46171666Y32736666D01*
X46105000Y32703333D01*
X46038333Y32703333D01*
X45971666Y32736666D01*
X45938333Y32770000D01*
X45905000Y32836666D01*
X45871666Y32970000D01*
X45871666Y33136666D01*
X45905000Y33270000D01*
X45938333Y33336666D01*
X45971666Y33370000D01*
X46038333Y33403333D01*
X46871666Y33170000D02*
X46871666Y32703333D01*
X46571666Y33170000D02*
X46571666Y32803333D01*
X46605000Y32736666D01*
X46671666Y32703333D01*
X46771666Y32703333D01*
X46838333Y32736666D01*
X46871666Y32770000D01*
X47438333Y33070000D02*
X47205000Y33070000D01*
X47205000Y32703333D02*
X47205000Y33403333D01*
X47538333Y33403333D01*
%TO.C,D2*%
X17263333Y34735333D02*
X17263333Y35435333D01*
X17430000Y35435333D01*
X17530000Y35402000D01*
X17596666Y35335333D01*
X17630000Y35268666D01*
X17663333Y35135333D01*
X17663333Y35035333D01*
X17630000Y34902000D01*
X17596666Y34835333D01*
X17530000Y34768666D01*
X17430000Y34735333D01*
X17263333Y34735333D01*
X17930000Y35368666D02*
X17963333Y35402000D01*
X18030000Y35435333D01*
X18196666Y35435333D01*
X18263333Y35402000D01*
X18296666Y35368666D01*
X18330000Y35302000D01*
X18330000Y35235333D01*
X18296666Y35135333D01*
X17896666Y34735333D01*
X18330000Y34735333D01*
X16783142Y36196571D02*
X16783142Y35796571D01*
X16640285Y36425142D02*
X16497428Y35996571D01*
X16868857Y35996571D01*
X17411714Y35796571D02*
X17068857Y35796571D01*
X17240285Y35796571D02*
X17240285Y36396571D01*
X17183142Y36310857D01*
X17126000Y36253714D01*
X17068857Y36225142D01*
X17926000Y36196571D02*
X17926000Y35796571D01*
X17783142Y36425142D02*
X17640285Y35996571D01*
X18011714Y35996571D01*
X18326000Y36139428D02*
X18268857Y36168000D01*
X18240285Y36196571D01*
X18211714Y36253714D01*
X18211714Y36282285D01*
X18240285Y36339428D01*
X18268857Y36368000D01*
X18326000Y36396571D01*
X18440285Y36396571D01*
X18497428Y36368000D01*
X18526000Y36339428D01*
X18554571Y36282285D01*
X18554571Y36253714D01*
X18526000Y36196571D01*
X18497428Y36168000D01*
X18440285Y36139428D01*
X18326000Y36139428D01*
X18268857Y36110857D01*
X18240285Y36082285D01*
X18211714Y36025142D01*
X18211714Y35910857D01*
X18240285Y35853714D01*
X18268857Y35825142D01*
X18326000Y35796571D01*
X18440285Y35796571D01*
X18497428Y35825142D01*
X18526000Y35853714D01*
X18554571Y35910857D01*
X18554571Y36025142D01*
X18526000Y36082285D01*
X18497428Y36110857D01*
X18440285Y36139428D01*
%TO.C,D1*%
X55998333Y22416333D02*
X55998333Y23116333D01*
X56165000Y23116333D01*
X56265000Y23083000D01*
X56331666Y23016333D01*
X56365000Y22949666D01*
X56398333Y22816333D01*
X56398333Y22716333D01*
X56365000Y22583000D01*
X56331666Y22516333D01*
X56265000Y22449666D01*
X56165000Y22416333D01*
X55998333Y22416333D01*
X57065000Y22416333D02*
X56665000Y22416333D01*
X56865000Y22416333D02*
X56865000Y23116333D01*
X56798333Y23016333D01*
X56731666Y22949666D01*
X56665000Y22916333D01*
X56026142Y21845571D02*
X56026142Y21445571D01*
X55883285Y22074142D02*
X55740428Y21645571D01*
X56111857Y21645571D01*
X56454714Y22045571D02*
X56511857Y22045571D01*
X56569000Y22017000D01*
X56597571Y21988428D01*
X56626142Y21931285D01*
X56654714Y21817000D01*
X56654714Y21674142D01*
X56626142Y21559857D01*
X56597571Y21502714D01*
X56569000Y21474142D01*
X56511857Y21445571D01*
X56454714Y21445571D01*
X56397571Y21474142D01*
X56369000Y21502714D01*
X56340428Y21559857D01*
X56311857Y21674142D01*
X56311857Y21817000D01*
X56340428Y21931285D01*
X56369000Y21988428D01*
X56397571Y22017000D01*
X56454714Y22045571D01*
X57026142Y22045571D02*
X57083285Y22045571D01*
X57140428Y22017000D01*
X57169000Y21988428D01*
X57197571Y21931285D01*
X57226142Y21817000D01*
X57226142Y21674142D01*
X57197571Y21559857D01*
X57169000Y21502714D01*
X57140428Y21474142D01*
X57083285Y21445571D01*
X57026142Y21445571D01*
X56969000Y21474142D01*
X56940428Y21502714D01*
X56911857Y21559857D01*
X56883285Y21674142D01*
X56883285Y21817000D01*
X56911857Y21931285D01*
X56940428Y21988428D01*
X56969000Y22017000D01*
X57026142Y22045571D01*
X57454714Y21988428D02*
X57483285Y22017000D01*
X57540428Y22045571D01*
X57683285Y22045571D01*
X57740428Y22017000D01*
X57769000Y21988428D01*
X57797571Y21931285D01*
X57797571Y21874142D01*
X57769000Y21788428D01*
X57426142Y21445571D01*
X57797571Y21445571D01*
%TO.C,R8*%
X7122333Y26353333D02*
X6889000Y26686666D01*
X6722333Y26353333D02*
X6722333Y27053333D01*
X6989000Y27053333D01*
X7055666Y27020000D01*
X7089000Y26986666D01*
X7122333Y26920000D01*
X7122333Y26820000D01*
X7089000Y26753333D01*
X7055666Y26720000D01*
X6989000Y26686666D01*
X6722333Y26686666D01*
X7522333Y26753333D02*
X7455666Y26786666D01*
X7422333Y26820000D01*
X7389000Y26886666D01*
X7389000Y26920000D01*
X7422333Y26986666D01*
X7455666Y27020000D01*
X7522333Y27053333D01*
X7655666Y27053333D01*
X7722333Y27020000D01*
X7755666Y26986666D01*
X7789000Y26920000D01*
X7789000Y26886666D01*
X7755666Y26820000D01*
X7722333Y26786666D01*
X7655666Y26753333D01*
X7522333Y26753333D01*
X7455666Y26720000D01*
X7422333Y26686666D01*
X7389000Y26620000D01*
X7389000Y26486666D01*
X7422333Y26420000D01*
X7455666Y26386666D01*
X7522333Y26353333D01*
X7655666Y26353333D01*
X7722333Y26386666D01*
X7755666Y26420000D01*
X7789000Y26486666D01*
X7789000Y26620000D01*
X7755666Y26686666D01*
X7722333Y26720000D01*
X7655666Y26753333D01*
X3657666Y26820000D02*
X3657666Y26353333D01*
X3491000Y27086666D02*
X3324333Y26586666D01*
X3757666Y26586666D01*
X3957666Y27053333D02*
X4424333Y27053333D01*
X4124333Y26353333D01*
X4824333Y27053333D02*
X4891000Y27053333D01*
X4957666Y27020000D01*
X4991000Y26986666D01*
X5024333Y26920000D01*
X5057666Y26786666D01*
X5057666Y26620000D01*
X5024333Y26486666D01*
X4991000Y26420000D01*
X4957666Y26386666D01*
X4891000Y26353333D01*
X4824333Y26353333D01*
X4757666Y26386666D01*
X4724333Y26420000D01*
X4691000Y26486666D01*
X4657666Y26620000D01*
X4657666Y26786666D01*
X4691000Y26920000D01*
X4724333Y26986666D01*
X4757666Y27020000D01*
X4824333Y27053333D01*
%TO.C,R7*%
X54874333Y35878333D02*
X54641000Y36211666D01*
X54474333Y35878333D02*
X54474333Y36578333D01*
X54741000Y36578333D01*
X54807666Y36545000D01*
X54841000Y36511666D01*
X54874333Y36445000D01*
X54874333Y36345000D01*
X54841000Y36278333D01*
X54807666Y36245000D01*
X54741000Y36211666D01*
X54474333Y36211666D01*
X55107666Y36578333D02*
X55574333Y36578333D01*
X55274333Y35878333D01*
X57955666Y35878333D02*
X57555666Y35878333D01*
X57755666Y35878333D02*
X57755666Y36578333D01*
X57689000Y36478333D01*
X57622333Y36411666D01*
X57555666Y36378333D01*
X58255666Y35878333D02*
X58255666Y36578333D01*
X58322333Y36145000D02*
X58522333Y35878333D01*
X58522333Y36345000D02*
X58255666Y36078333D01*
%TO.C,R6*%
X26934333Y30798333D02*
X26701000Y31131666D01*
X26534333Y30798333D02*
X26534333Y31498333D01*
X26801000Y31498333D01*
X26867666Y31465000D01*
X26901000Y31431666D01*
X26934333Y31365000D01*
X26934333Y31265000D01*
X26901000Y31198333D01*
X26867666Y31165000D01*
X26801000Y31131666D01*
X26534333Y31131666D01*
X27534333Y31498333D02*
X27401000Y31498333D01*
X27334333Y31465000D01*
X27301000Y31431666D01*
X27234333Y31331666D01*
X27201000Y31198333D01*
X27201000Y30931666D01*
X27234333Y30865000D01*
X27267666Y30831666D01*
X27334333Y30798333D01*
X27467666Y30798333D01*
X27534333Y30831666D01*
X27567666Y30865000D01*
X27601000Y30931666D01*
X27601000Y31098333D01*
X27567666Y31165000D01*
X27534333Y31198333D01*
X27467666Y31231666D01*
X27334333Y31231666D01*
X27267666Y31198333D01*
X27234333Y31165000D01*
X27201000Y31098333D01*
X29565666Y31265000D02*
X29565666Y30798333D01*
X29399000Y31531666D02*
X29232333Y31031666D01*
X29665666Y31031666D01*
X29865666Y31498333D02*
X30332333Y31498333D01*
X30032333Y30798333D01*
X30732333Y31498333D02*
X30799000Y31498333D01*
X30865666Y31465000D01*
X30899000Y31431666D01*
X30932333Y31365000D01*
X30965666Y31231666D01*
X30965666Y31065000D01*
X30932333Y30931666D01*
X30899000Y30865000D01*
X30865666Y30831666D01*
X30799000Y30798333D01*
X30732333Y30798333D01*
X30665666Y30831666D01*
X30632333Y30865000D01*
X30599000Y30931666D01*
X30565666Y31065000D01*
X30565666Y31231666D01*
X30599000Y31365000D01*
X30632333Y31431666D01*
X30665666Y31465000D01*
X30732333Y31498333D01*
%TO.C,R5*%
X29982333Y35243333D02*
X29749000Y35576666D01*
X29582333Y35243333D02*
X29582333Y35943333D01*
X29849000Y35943333D01*
X29915666Y35910000D01*
X29949000Y35876666D01*
X29982333Y35810000D01*
X29982333Y35710000D01*
X29949000Y35643333D01*
X29915666Y35610000D01*
X29849000Y35576666D01*
X29582333Y35576666D01*
X30615666Y35943333D02*
X30282333Y35943333D01*
X30249000Y35610000D01*
X30282333Y35643333D01*
X30349000Y35676666D01*
X30515666Y35676666D01*
X30582333Y35643333D01*
X30615666Y35610000D01*
X30649000Y35543333D01*
X30649000Y35376666D01*
X30615666Y35310000D01*
X30582333Y35276666D01*
X30515666Y35243333D01*
X30349000Y35243333D01*
X30282333Y35276666D01*
X30249000Y35310000D01*
X26301000Y35243333D02*
X25901000Y35243333D01*
X26101000Y35243333D02*
X26101000Y35943333D01*
X26034333Y35843333D01*
X25967666Y35776666D01*
X25901000Y35743333D01*
X26734333Y35943333D02*
X26801000Y35943333D01*
X26867666Y35910000D01*
X26901000Y35876666D01*
X26934333Y35810000D01*
X26967666Y35676666D01*
X26967666Y35510000D01*
X26934333Y35376666D01*
X26901000Y35310000D01*
X26867666Y35276666D01*
X26801000Y35243333D01*
X26734333Y35243333D01*
X26667666Y35276666D01*
X26634333Y35310000D01*
X26601000Y35376666D01*
X26567666Y35510000D01*
X26567666Y35676666D01*
X26601000Y35810000D01*
X26634333Y35876666D01*
X26667666Y35910000D01*
X26734333Y35943333D01*
X27401000Y35943333D02*
X27467666Y35943333D01*
X27534333Y35910000D01*
X27567666Y35876666D01*
X27601000Y35810000D01*
X27634333Y35676666D01*
X27634333Y35510000D01*
X27601000Y35376666D01*
X27567666Y35310000D01*
X27534333Y35276666D01*
X27467666Y35243333D01*
X27401000Y35243333D01*
X27334333Y35276666D01*
X27301000Y35310000D01*
X27267666Y35376666D01*
X27234333Y35510000D01*
X27234333Y35676666D01*
X27267666Y35810000D01*
X27301000Y35876666D01*
X27334333Y35910000D01*
X27401000Y35943333D01*
X27934333Y35243333D02*
X27934333Y35943333D01*
X28001000Y35510000D02*
X28201000Y35243333D01*
X28201000Y35710000D02*
X27934333Y35443333D01*
%TO.C,R4*%
X7122333Y35243333D02*
X6889000Y35576666D01*
X6722333Y35243333D02*
X6722333Y35943333D01*
X6989000Y35943333D01*
X7055666Y35910000D01*
X7089000Y35876666D01*
X7122333Y35810000D01*
X7122333Y35710000D01*
X7089000Y35643333D01*
X7055666Y35610000D01*
X6989000Y35576666D01*
X6722333Y35576666D01*
X7722333Y35710000D02*
X7722333Y35243333D01*
X7555666Y35976666D02*
X7389000Y35476666D01*
X7822333Y35476666D01*
X3991000Y35243333D02*
X3591000Y35243333D01*
X3791000Y35243333D02*
X3791000Y35943333D01*
X3724333Y35843333D01*
X3657666Y35776666D01*
X3591000Y35743333D01*
X4291000Y35243333D02*
X4291000Y35943333D01*
X4524333Y35443333D01*
X4757666Y35943333D01*
X4757666Y35243333D01*
%TO.C,R3*%
X54291666Y7757333D02*
X53958333Y7524000D01*
X54291666Y7357333D02*
X53591666Y7357333D01*
X53591666Y7624000D01*
X53625000Y7690666D01*
X53658333Y7724000D01*
X53725000Y7757333D01*
X53825000Y7757333D01*
X53891666Y7724000D01*
X53925000Y7690666D01*
X53958333Y7624000D01*
X53958333Y7357333D01*
X53591666Y7990666D02*
X53591666Y8424000D01*
X53858333Y8190666D01*
X53858333Y8290666D01*
X53891666Y8357333D01*
X53925000Y8390666D01*
X53991666Y8424000D01*
X54158333Y8424000D01*
X54225000Y8390666D01*
X54258333Y8357333D01*
X54291666Y8290666D01*
X54291666Y8090666D01*
X54258333Y8024000D01*
X54225000Y7990666D01*
X54291666Y4742666D02*
X54291666Y4342666D01*
X54291666Y4542666D02*
X53591666Y4542666D01*
X53691666Y4476000D01*
X53758333Y4409333D01*
X53791666Y4342666D01*
X54291666Y5042666D02*
X53591666Y5042666D01*
X54025000Y5109333D02*
X54291666Y5309333D01*
X53825000Y5309333D02*
X54091666Y5042666D01*
%TO.C,R2*%
X4074333Y30798333D02*
X3841000Y31131666D01*
X3674333Y30798333D02*
X3674333Y31498333D01*
X3941000Y31498333D01*
X4007666Y31465000D01*
X4041000Y31431666D01*
X4074333Y31365000D01*
X4074333Y31265000D01*
X4041000Y31198333D01*
X4007666Y31165000D01*
X3941000Y31131666D01*
X3674333Y31131666D01*
X4341000Y31431666D02*
X4374333Y31465000D01*
X4441000Y31498333D01*
X4607666Y31498333D01*
X4674333Y31465000D01*
X4707666Y31431666D01*
X4741000Y31365000D01*
X4741000Y31298333D01*
X4707666Y31198333D01*
X4307666Y30798333D01*
X4741000Y30798333D01*
X7155666Y30798333D02*
X6755666Y30798333D01*
X6955666Y30798333D02*
X6955666Y31498333D01*
X6889000Y31398333D01*
X6822333Y31331666D01*
X6755666Y31298333D01*
X7455666Y30798333D02*
X7455666Y31498333D01*
X7522333Y31065000D02*
X7722333Y30798333D01*
X7722333Y31265000D02*
X7455666Y30998333D01*
%TO.C,R1*%
X7122333Y21908333D02*
X6889000Y22241666D01*
X6722333Y21908333D02*
X6722333Y22608333D01*
X6989000Y22608333D01*
X7055666Y22575000D01*
X7089000Y22541666D01*
X7122333Y22475000D01*
X7122333Y22375000D01*
X7089000Y22308333D01*
X7055666Y22275000D01*
X6989000Y22241666D01*
X6722333Y22241666D01*
X7789000Y21908333D02*
X7389000Y21908333D01*
X7589000Y21908333D02*
X7589000Y22608333D01*
X7522333Y22508333D01*
X7455666Y22441666D01*
X7389000Y22408333D01*
X4107666Y21908333D02*
X3707666Y21908333D01*
X3907666Y21908333D02*
X3907666Y22608333D01*
X3841000Y22508333D01*
X3774333Y22441666D01*
X3707666Y22408333D01*
X4407666Y21908333D02*
X4407666Y22608333D01*
X4474333Y22175000D02*
X4674333Y21908333D01*
X4674333Y22375000D02*
X4407666Y22108333D01*
%TO.C,U3*%
X48026190Y17649047D02*
X48430952Y17649047D01*
X48478571Y17672857D01*
X48502380Y17696666D01*
X48526190Y17744285D01*
X48526190Y17839523D01*
X48502380Y17887142D01*
X48478571Y17910952D01*
X48430952Y17934761D01*
X48026190Y17934761D01*
X48026190Y18125238D02*
X48026190Y18434761D01*
X48216666Y18268095D01*
X48216666Y18339523D01*
X48240476Y18387142D01*
X48264285Y18410952D01*
X48311904Y18434761D01*
X48430952Y18434761D01*
X48478571Y18410952D01*
X48502380Y18387142D01*
X48526190Y18339523D01*
X48526190Y18196666D01*
X48502380Y18149047D01*
X48478571Y18125238D01*
X48036190Y14736666D02*
X48036190Y15070000D01*
X48536190Y14855714D01*
X48250476Y15331904D02*
X48226666Y15284285D01*
X48202857Y15260476D01*
X48155238Y15236666D01*
X48131428Y15236666D01*
X48083809Y15260476D01*
X48060000Y15284285D01*
X48036190Y15331904D01*
X48036190Y15427142D01*
X48060000Y15474761D01*
X48083809Y15498571D01*
X48131428Y15522380D01*
X48155238Y15522380D01*
X48202857Y15498571D01*
X48226666Y15474761D01*
X48250476Y15427142D01*
X48250476Y15331904D01*
X48274285Y15284285D01*
X48298095Y15260476D01*
X48345714Y15236666D01*
X48440952Y15236666D01*
X48488571Y15260476D01*
X48512380Y15284285D01*
X48536190Y15331904D01*
X48536190Y15427142D01*
X48512380Y15474761D01*
X48488571Y15498571D01*
X48440952Y15522380D01*
X48345714Y15522380D01*
X48298095Y15498571D01*
X48274285Y15474761D01*
X48250476Y15427142D01*
X48536190Y15974761D02*
X48536190Y15736666D01*
X48036190Y15736666D01*
X48036190Y16236666D02*
X48036190Y16284285D01*
X48060000Y16331904D01*
X48083809Y16355714D01*
X48131428Y16379523D01*
X48226666Y16403333D01*
X48345714Y16403333D01*
X48440952Y16379523D01*
X48488571Y16355714D01*
X48512380Y16331904D01*
X48536190Y16284285D01*
X48536190Y16236666D01*
X48512380Y16189047D01*
X48488571Y16165238D01*
X48440952Y16141428D01*
X48345714Y16117619D01*
X48226666Y16117619D01*
X48131428Y16141428D01*
X48083809Y16165238D01*
X48060000Y16189047D01*
X48036190Y16236666D01*
X48036190Y16855714D02*
X48036190Y16617619D01*
X48274285Y16593809D01*
X48250476Y16617619D01*
X48226666Y16665238D01*
X48226666Y16784285D01*
X48250476Y16831904D01*
X48274285Y16855714D01*
X48321904Y16879523D01*
X48440952Y16879523D01*
X48488571Y16855714D01*
X48512380Y16831904D01*
X48536190Y16784285D01*
X48536190Y16665238D01*
X48512380Y16617619D01*
X48488571Y16593809D01*
%TO.C,J1*%
D11*
X55776880Y3540166D02*
X56491166Y3540166D01*
X56634023Y3492547D01*
X56729261Y3397309D01*
X56776880Y3254452D01*
X56776880Y3159214D01*
X56776880Y4540166D02*
X56776880Y3968738D01*
X56776880Y4254452D02*
X55776880Y4254452D01*
X55919738Y4159214D01*
X56014976Y4063976D01*
X56062595Y3968738D01*
D12*
X56340714Y6758809D02*
X56435952Y6758809D01*
X56483571Y6782619D01*
X56507380Y6806428D01*
X56555000Y6877857D01*
X56578809Y6973095D01*
X56578809Y7163571D01*
X56555000Y7211190D01*
X56531190Y7235000D01*
X56483571Y7258809D01*
X56388333Y7258809D01*
X56340714Y7235000D01*
X56316904Y7211190D01*
X56293095Y7163571D01*
X56293095Y7044523D01*
X56316904Y6996904D01*
X56340714Y6973095D01*
X56388333Y6949285D01*
X56483571Y6949285D01*
X56531190Y6973095D01*
X56555000Y6996904D01*
X56578809Y7044523D01*
X56745476Y7092142D02*
X56864523Y6758809D01*
X56983571Y7092142D01*
X57055000Y6711190D02*
X57435952Y6711190D01*
X57721666Y7020714D02*
X57793095Y6996904D01*
X57816904Y6973095D01*
X57840714Y6925476D01*
X57840714Y6854047D01*
X57816904Y6806428D01*
X57793095Y6782619D01*
X57745476Y6758809D01*
X57555000Y6758809D01*
X57555000Y7258809D01*
X57721666Y7258809D01*
X57769285Y7235000D01*
X57793095Y7211190D01*
X57816904Y7163571D01*
X57816904Y7115952D01*
X57793095Y7068333D01*
X57769285Y7044523D01*
X57721666Y7020714D01*
X57555000Y7020714D01*
X58269285Y6758809D02*
X58269285Y7020714D01*
X58245476Y7068333D01*
X58197857Y7092142D01*
X58102619Y7092142D01*
X58055000Y7068333D01*
X58269285Y6782619D02*
X58221666Y6758809D01*
X58102619Y6758809D01*
X58055000Y6782619D01*
X58031190Y6830238D01*
X58031190Y6877857D01*
X58055000Y6925476D01*
X58102619Y6949285D01*
X58221666Y6949285D01*
X58269285Y6973095D01*
X58435952Y7092142D02*
X58626428Y7092142D01*
X58507380Y7258809D02*
X58507380Y6830238D01*
X58531190Y6782619D01*
X58578809Y6758809D01*
X58626428Y6758809D01*
X58721666Y7092142D02*
X58912142Y7092142D01*
X58793095Y7258809D02*
X58793095Y6830238D01*
X58816904Y6782619D01*
X58864523Y6758809D01*
X58912142Y6758809D01*
X59269285Y6782619D02*
X59221666Y6758809D01*
X59126428Y6758809D01*
X59078809Y6782619D01*
X59055000Y6830238D01*
X59055000Y7020714D01*
X59078809Y7068333D01*
X59126428Y7092142D01*
X59221666Y7092142D01*
X59269285Y7068333D01*
X59293095Y7020714D01*
X59293095Y6973095D01*
X59055000Y6925476D01*
X59507380Y6758809D02*
X59507380Y7092142D01*
X59507380Y6996904D02*
X59531190Y7044523D01*
X59555000Y7068333D01*
X59602619Y7092142D01*
X59650238Y7092142D01*
X59769285Y7092142D02*
X59888333Y6758809D01*
X60007380Y7092142D02*
X59888333Y6758809D01*
X59840714Y6639761D01*
X59816904Y6615952D01*
X59769285Y6592142D01*
X60078809Y6711190D02*
X60459761Y6711190D01*
X60864523Y6806428D02*
X60840714Y6782619D01*
X60769285Y6758809D01*
X60721666Y6758809D01*
X60650238Y6782619D01*
X60602619Y6830238D01*
X60578809Y6877857D01*
X60555000Y6973095D01*
X60555000Y7044523D01*
X60578809Y7139761D01*
X60602619Y7187380D01*
X60650238Y7235000D01*
X60721666Y7258809D01*
X60769285Y7258809D01*
X60840714Y7235000D01*
X60864523Y7211190D01*
X61150238Y6758809D02*
X61102619Y6782619D01*
X61078809Y6830238D01*
X61078809Y7258809D01*
X61340714Y6758809D02*
X61340714Y7092142D01*
X61340714Y7258809D02*
X61316904Y7235000D01*
X61340714Y7211190D01*
X61364523Y7235000D01*
X61340714Y7258809D01*
X61340714Y7211190D01*
X61578809Y7092142D02*
X61578809Y6592142D01*
X61578809Y7068333D02*
X61626428Y7092142D01*
X61721666Y7092142D01*
X61769285Y7068333D01*
X61793095Y7044523D01*
X61816904Y6996904D01*
X61816904Y6854047D01*
X61793095Y6806428D01*
X61769285Y6782619D01*
X61721666Y6758809D01*
X61626428Y6758809D01*
X61578809Y6782619D01*
X57630214Y5778523D02*
X57630214Y6159476D01*
X57820690Y5969000D02*
X57439738Y5969000D01*
X57630214Y1460523D02*
X57630214Y1841476D01*
D15*
X61315190Y3220714D02*
X61327095Y3256428D01*
X61327095Y3315952D01*
X61315190Y3339761D01*
X61303285Y3351666D01*
X61279476Y3363571D01*
X61255666Y3363571D01*
X61231857Y3351666D01*
X61219952Y3339761D01*
X61208047Y3315952D01*
X61196142Y3268333D01*
X61184238Y3244523D01*
X61172333Y3232619D01*
X61148523Y3220714D01*
X61124714Y3220714D01*
X61100904Y3232619D01*
X61089000Y3244523D01*
X61077095Y3268333D01*
X61077095Y3327857D01*
X61089000Y3363571D01*
X61077095Y3435000D02*
X61077095Y3577857D01*
X61327095Y3506428D02*
X61077095Y3506428D01*
X61327095Y3804047D02*
X61208047Y3720714D01*
X61327095Y3661190D02*
X61077095Y3661190D01*
X61077095Y3756428D01*
X61089000Y3780238D01*
X61100904Y3792142D01*
X61124714Y3804047D01*
X61160428Y3804047D01*
X61184238Y3792142D01*
X61196142Y3780238D01*
X61208047Y3756428D01*
X61208047Y3661190D01*
X61255666Y3899285D02*
X61255666Y4018333D01*
X61327095Y3875476D02*
X61077095Y3958809D01*
X61327095Y4042142D01*
X61327095Y4125476D02*
X61077095Y4125476D01*
X61327095Y4244523D02*
X61077095Y4244523D01*
X61327095Y4387380D01*
X61077095Y4387380D01*
%TO.C,J2*%
D11*
X3413166Y39092119D02*
X3413166Y38377833D01*
X3365547Y38234976D01*
X3270309Y38139738D01*
X3127452Y38092119D01*
X3032214Y38092119D01*
X3841738Y38996880D02*
X3889357Y39044500D01*
X3984595Y39092119D01*
X4222690Y39092119D01*
X4317928Y39044500D01*
X4365547Y38996880D01*
X4413166Y38901642D01*
X4413166Y38806404D01*
X4365547Y38663547D01*
X3794119Y38092119D01*
X4413166Y38092119D01*
D12*
X1440952Y44660309D02*
X1726666Y44660309D01*
X1583809Y44160309D02*
X1583809Y44660309D01*
X1893333Y44160309D02*
X1893333Y44493642D01*
X1893333Y44398404D02*
X1917142Y44446023D01*
X1940952Y44469833D01*
X1988571Y44493642D01*
X2036190Y44493642D01*
X2202857Y44160309D02*
X2202857Y44493642D01*
X2202857Y44660309D02*
X2179047Y44636500D01*
X2202857Y44612690D01*
X2226666Y44636500D01*
X2202857Y44660309D01*
X2202857Y44612690D01*
X2655238Y44493642D02*
X2655238Y44088880D01*
X2631428Y44041261D01*
X2607619Y44017452D01*
X2560000Y43993642D01*
X2488571Y43993642D01*
X2440952Y44017452D01*
X2655238Y44184119D02*
X2607619Y44160309D01*
X2512380Y44160309D01*
X2464761Y44184119D01*
X2440952Y44207928D01*
X2417142Y44255547D01*
X2417142Y44398404D01*
X2440952Y44446023D01*
X2464761Y44469833D01*
X2512380Y44493642D01*
X2607619Y44493642D01*
X2655238Y44469833D01*
X3107619Y44493642D02*
X3107619Y44088880D01*
X3083809Y44041261D01*
X3060000Y44017452D01*
X3012380Y43993642D01*
X2940952Y43993642D01*
X2893333Y44017452D01*
X3107619Y44184119D02*
X3060000Y44160309D01*
X2964761Y44160309D01*
X2917142Y44184119D01*
X2893333Y44207928D01*
X2869523Y44255547D01*
X2869523Y44398404D01*
X2893333Y44446023D01*
X2917142Y44469833D01*
X2964761Y44493642D01*
X3060000Y44493642D01*
X3107619Y44469833D01*
X3536190Y44184119D02*
X3488571Y44160309D01*
X3393333Y44160309D01*
X3345714Y44184119D01*
X3321904Y44231738D01*
X3321904Y44422214D01*
X3345714Y44469833D01*
X3393333Y44493642D01*
X3488571Y44493642D01*
X3536190Y44469833D01*
X3560000Y44422214D01*
X3560000Y44374595D01*
X3321904Y44326976D01*
X3774285Y44160309D02*
X3774285Y44493642D01*
X3774285Y44398404D02*
X3798095Y44446023D01*
X3821904Y44469833D01*
X3869523Y44493642D01*
X3917142Y44493642D01*
X3964761Y44112690D02*
X4345714Y44112690D01*
X4464761Y44160309D02*
X4464761Y44660309D01*
X4702857Y44493642D02*
X4702857Y44160309D01*
X4702857Y44446023D02*
X4726666Y44469833D01*
X4774285Y44493642D01*
X4845714Y44493642D01*
X4893333Y44469833D01*
X4917142Y44422214D01*
X4917142Y44160309D01*
X5155238Y44493642D02*
X5155238Y43993642D01*
X5155238Y44469833D02*
X5202857Y44493642D01*
X5298095Y44493642D01*
X5345714Y44469833D01*
X5369523Y44446023D01*
X5393333Y44398404D01*
X5393333Y44255547D01*
X5369523Y44207928D01*
X5345714Y44184119D01*
X5298095Y44160309D01*
X5202857Y44160309D01*
X5155238Y44184119D01*
X5821904Y44493642D02*
X5821904Y44160309D01*
X5607619Y44493642D02*
X5607619Y44231738D01*
X5631428Y44184119D01*
X5679047Y44160309D01*
X5750476Y44160309D01*
X5798095Y44184119D01*
X5821904Y44207928D01*
X5988571Y44493642D02*
X6179047Y44493642D01*
X6060000Y44660309D02*
X6060000Y44231738D01*
X6083809Y44184119D01*
X6131428Y44160309D01*
X6179047Y44160309D01*
D15*
X3220714Y43332809D02*
X3256428Y43320904D01*
X3315952Y43320904D01*
X3339761Y43332809D01*
X3351666Y43344714D01*
X3363571Y43368523D01*
X3363571Y43392333D01*
X3351666Y43416142D01*
X3339761Y43428047D01*
X3315952Y43439952D01*
X3268333Y43451857D01*
X3244523Y43463761D01*
X3232619Y43475666D01*
X3220714Y43499476D01*
X3220714Y43523285D01*
X3232619Y43547095D01*
X3244523Y43559000D01*
X3268333Y43570904D01*
X3327857Y43570904D01*
X3363571Y43559000D01*
X3435000Y43570904D02*
X3577857Y43570904D01*
X3506428Y43320904D02*
X3506428Y43570904D01*
X3804047Y43320904D02*
X3720714Y43439952D01*
X3661190Y43320904D02*
X3661190Y43570904D01*
X3756428Y43570904D01*
X3780238Y43559000D01*
X3792142Y43547095D01*
X3804047Y43523285D01*
X3804047Y43487571D01*
X3792142Y43463761D01*
X3780238Y43451857D01*
X3756428Y43439952D01*
X3661190Y43439952D01*
X3899285Y43392333D02*
X4018333Y43392333D01*
X3875476Y43320904D02*
X3958809Y43570904D01*
X4042142Y43320904D01*
X4125476Y43320904D02*
X4125476Y43570904D01*
X4244523Y43320904D02*
X4244523Y43570904D01*
X4387380Y43320904D01*
X4387380Y43570904D01*
D12*
X5826142Y39612119D02*
X5897571Y39588309D01*
X6016619Y39588309D01*
X6064238Y39612119D01*
X6088047Y39635928D01*
X6111857Y39683547D01*
X6111857Y39731166D01*
X6088047Y39778785D01*
X6064238Y39802595D01*
X6016619Y39826404D01*
X5921380Y39850214D01*
X5873761Y39874023D01*
X5849952Y39897833D01*
X5826142Y39945452D01*
X5826142Y39993071D01*
X5849952Y40040690D01*
X5873761Y40064500D01*
X5921380Y40088309D01*
X6040428Y40088309D01*
X6111857Y40064500D01*
X1508142Y40088309D02*
X1793857Y40088309D01*
X1651000Y39588309D02*
X1651000Y40088309D01*
%TO.C,J3*%
D11*
X58023166Y39092119D02*
X58023166Y38377833D01*
X57975547Y38234976D01*
X57880309Y38139738D01*
X57737452Y38092119D01*
X57642214Y38092119D01*
X58404119Y39092119D02*
X59023166Y39092119D01*
X58689833Y38711166D01*
X58832690Y38711166D01*
X58927928Y38663547D01*
X58975547Y38615928D01*
X59023166Y38520690D01*
X59023166Y38282595D01*
X58975547Y38187357D01*
X58927928Y38139738D01*
X58832690Y38092119D01*
X58546976Y38092119D01*
X58451738Y38139738D01*
X58404119Y38187357D01*
D12*
X57408095Y44660309D02*
X57503333Y44660309D01*
X57550952Y44636500D01*
X57598571Y44588880D01*
X57622380Y44493642D01*
X57622380Y44326976D01*
X57598571Y44231738D01*
X57550952Y44184119D01*
X57503333Y44160309D01*
X57408095Y44160309D01*
X57360476Y44184119D01*
X57312857Y44231738D01*
X57289047Y44326976D01*
X57289047Y44493642D01*
X57312857Y44588880D01*
X57360476Y44636500D01*
X57408095Y44660309D01*
X58050952Y44493642D02*
X58050952Y44160309D01*
X57836666Y44493642D02*
X57836666Y44231738D01*
X57860476Y44184119D01*
X57908095Y44160309D01*
X57979523Y44160309D01*
X58027142Y44184119D01*
X58050952Y44207928D01*
X58217619Y44493642D02*
X58408095Y44493642D01*
X58289047Y44660309D02*
X58289047Y44231738D01*
X58312857Y44184119D01*
X58360476Y44160309D01*
X58408095Y44160309D01*
X58574761Y44493642D02*
X58574761Y43993642D01*
X58574761Y44469833D02*
X58622380Y44493642D01*
X58717619Y44493642D01*
X58765238Y44469833D01*
X58789047Y44446023D01*
X58812857Y44398404D01*
X58812857Y44255547D01*
X58789047Y44207928D01*
X58765238Y44184119D01*
X58717619Y44160309D01*
X58622380Y44160309D01*
X58574761Y44184119D01*
X59241428Y44493642D02*
X59241428Y44160309D01*
X59027142Y44493642D02*
X59027142Y44231738D01*
X59050952Y44184119D01*
X59098571Y44160309D01*
X59170000Y44160309D01*
X59217619Y44184119D01*
X59241428Y44207928D01*
X59408095Y44493642D02*
X59598571Y44493642D01*
X59479523Y44660309D02*
X59479523Y44231738D01*
X59503333Y44184119D01*
X59550952Y44160309D01*
X59598571Y44160309D01*
X56118142Y40088309D02*
X56403857Y40088309D01*
X56261000Y39588309D02*
X56261000Y40088309D01*
X60436142Y39612119D02*
X60507571Y39588309D01*
X60626619Y39588309D01*
X60674238Y39612119D01*
X60698047Y39635928D01*
X60721857Y39683547D01*
X60721857Y39731166D01*
X60698047Y39778785D01*
X60674238Y39802595D01*
X60626619Y39826404D01*
X60531380Y39850214D01*
X60483761Y39874023D01*
X60459952Y39897833D01*
X60436142Y39945452D01*
X60436142Y39993071D01*
X60459952Y40040690D01*
X60483761Y40064500D01*
X60531380Y40088309D01*
X60650428Y40088309D01*
X60721857Y40064500D01*
D15*
X57830714Y43332809D02*
X57866428Y43320904D01*
X57925952Y43320904D01*
X57949761Y43332809D01*
X57961666Y43344714D01*
X57973571Y43368523D01*
X57973571Y43392333D01*
X57961666Y43416142D01*
X57949761Y43428047D01*
X57925952Y43439952D01*
X57878333Y43451857D01*
X57854523Y43463761D01*
X57842619Y43475666D01*
X57830714Y43499476D01*
X57830714Y43523285D01*
X57842619Y43547095D01*
X57854523Y43559000D01*
X57878333Y43570904D01*
X57937857Y43570904D01*
X57973571Y43559000D01*
X58045000Y43570904D02*
X58187857Y43570904D01*
X58116428Y43320904D02*
X58116428Y43570904D01*
X58414047Y43320904D02*
X58330714Y43439952D01*
X58271190Y43320904D02*
X58271190Y43570904D01*
X58366428Y43570904D01*
X58390238Y43559000D01*
X58402142Y43547095D01*
X58414047Y43523285D01*
X58414047Y43487571D01*
X58402142Y43463761D01*
X58390238Y43451857D01*
X58366428Y43439952D01*
X58271190Y43439952D01*
X58509285Y43392333D02*
X58628333Y43392333D01*
X58485476Y43320904D02*
X58568809Y43570904D01*
X58652142Y43320904D01*
X58735476Y43320904D02*
X58735476Y43570904D01*
X58854523Y43320904D02*
X58854523Y43570904D01*
X58997380Y43320904D01*
X58997380Y43570904D01*
%TO.C,DECAY1*%
D11*
X22852380Y38092119D02*
X22852380Y39092119D01*
X23090476Y39092119D01*
X23233333Y39044500D01*
X23328571Y38949261D01*
X23376190Y38854023D01*
X23423809Y38663547D01*
X23423809Y38520690D01*
X23376190Y38330214D01*
X23328571Y38234976D01*
X23233333Y38139738D01*
X23090476Y38092119D01*
X22852380Y38092119D01*
X23852380Y38615928D02*
X24185714Y38615928D01*
X24328571Y38092119D02*
X23852380Y38092119D01*
X23852380Y39092119D01*
X24328571Y39092119D01*
X25328571Y38187357D02*
X25280952Y38139738D01*
X25138095Y38092119D01*
X25042857Y38092119D01*
X24900000Y38139738D01*
X24804761Y38234976D01*
X24757142Y38330214D01*
X24709523Y38520690D01*
X24709523Y38663547D01*
X24757142Y38854023D01*
X24804761Y38949261D01*
X24900000Y39044500D01*
X25042857Y39092119D01*
X25138095Y39092119D01*
X25280952Y39044500D01*
X25328571Y38996880D01*
X25709523Y38377833D02*
X26185714Y38377833D01*
X25614285Y38092119D02*
X25947619Y39092119D01*
X26280952Y38092119D01*
X26804761Y38568309D02*
X26804761Y38092119D01*
X26471428Y39092119D02*
X26804761Y38568309D01*
X27138095Y39092119D01*
X27995238Y38092119D02*
X27423809Y38092119D01*
X27709523Y38092119D02*
X27709523Y39092119D01*
X27614285Y38949261D01*
X27519047Y38854023D01*
X27423809Y38806404D01*
D12*
X23316666Y44303166D02*
X23554761Y44303166D01*
X23269047Y44160309D02*
X23435714Y44660309D01*
X23602380Y44160309D01*
X24007142Y44660309D02*
X23769047Y44660309D01*
X23745238Y44422214D01*
X23769047Y44446023D01*
X23816666Y44469833D01*
X23935714Y44469833D01*
X23983333Y44446023D01*
X24007142Y44422214D01*
X24030952Y44374595D01*
X24030952Y44255547D01*
X24007142Y44207928D01*
X23983333Y44184119D01*
X23935714Y44160309D01*
X23816666Y44160309D01*
X23769047Y44184119D01*
X23745238Y44207928D01*
X24340476Y44660309D02*
X24388095Y44660309D01*
X24435714Y44636500D01*
X24459523Y44612690D01*
X24483333Y44565071D01*
X24507142Y44469833D01*
X24507142Y44350785D01*
X24483333Y44255547D01*
X24459523Y44207928D01*
X24435714Y44184119D01*
X24388095Y44160309D01*
X24340476Y44160309D01*
X24292857Y44184119D01*
X24269047Y44207928D01*
X24245238Y44255547D01*
X24221428Y44350785D01*
X24221428Y44469833D01*
X24245238Y44565071D01*
X24269047Y44612690D01*
X24292857Y44636500D01*
X24340476Y44660309D01*
X24816666Y44660309D02*
X24864285Y44660309D01*
X24911904Y44636500D01*
X24935714Y44612690D01*
X24959523Y44565071D01*
X24983333Y44469833D01*
X24983333Y44350785D01*
X24959523Y44255547D01*
X24935714Y44207928D01*
X24911904Y44184119D01*
X24864285Y44160309D01*
X24816666Y44160309D01*
X24769047Y44184119D01*
X24745238Y44207928D01*
X24721428Y44255547D01*
X24697619Y44350785D01*
X24697619Y44469833D01*
X24721428Y44565071D01*
X24745238Y44612690D01*
X24769047Y44636500D01*
X24816666Y44660309D01*
X25197619Y44160309D02*
X25197619Y44660309D01*
X25245238Y44350785D02*
X25388095Y44160309D01*
X25388095Y44493642D02*
X25197619Y44303166D01*
X25602380Y44350785D02*
X25983333Y44350785D01*
X26197619Y44303166D02*
X26435714Y44303166D01*
X26150000Y44160309D02*
X26316666Y44660309D01*
X26483333Y44160309D01*
X26911904Y44160309D02*
X26626190Y44160309D01*
X26769047Y44160309D02*
X26769047Y44660309D01*
X26721428Y44588880D01*
X26673809Y44541261D01*
X26626190Y44517452D01*
X27126190Y44160309D02*
X27126190Y44660309D01*
X27292857Y44303166D01*
X27459523Y44660309D01*
X27459523Y44160309D01*
D15*
X23891904Y43320904D02*
X23772857Y43320904D01*
X23772857Y43570904D01*
X23975238Y43451857D02*
X24058571Y43451857D01*
X24094285Y43320904D02*
X23975238Y43320904D01*
X23975238Y43570904D01*
X24094285Y43570904D01*
X24284761Y43451857D02*
X24201428Y43451857D01*
X24201428Y43320904D02*
X24201428Y43570904D01*
X24320476Y43570904D01*
X24380000Y43570904D02*
X24522857Y43570904D01*
X24451428Y43320904D02*
X24451428Y43570904D01*
D12*
X28733333Y40063809D02*
X29042857Y40063809D01*
X28876190Y39873333D01*
X28947619Y39873333D01*
X28995238Y39849523D01*
X29019047Y39825714D01*
X29042857Y39778095D01*
X29042857Y39659047D01*
X29019047Y39611428D01*
X28995238Y39587619D01*
X28947619Y39563809D01*
X28804761Y39563809D01*
X28757142Y39587619D01*
X28733333Y39611428D01*
X22042857Y39538809D02*
X21757142Y39538809D01*
X21900000Y39538809D02*
X21900000Y40038809D01*
X21852380Y39967380D01*
X21804761Y39919761D01*
X21757142Y39895952D01*
X24532142Y39991190D02*
X24555952Y40015000D01*
X24603571Y40038809D01*
X24722619Y40038809D01*
X24770238Y40015000D01*
X24794047Y39991190D01*
X24817857Y39943571D01*
X24817857Y39895952D01*
X24794047Y39824523D01*
X24508333Y39538809D01*
X24817857Y39538809D01*
D15*
X26336666Y43320904D02*
X26253333Y43439952D01*
X26193809Y43320904D02*
X26193809Y43570904D01*
X26289047Y43570904D01*
X26312857Y43559000D01*
X26324761Y43547095D01*
X26336666Y43523285D01*
X26336666Y43487571D01*
X26324761Y43463761D01*
X26312857Y43451857D01*
X26289047Y43439952D01*
X26193809Y43439952D01*
X26443809Y43320904D02*
X26443809Y43570904D01*
X26693809Y43559000D02*
X26670000Y43570904D01*
X26634285Y43570904D01*
X26598571Y43559000D01*
X26574761Y43535190D01*
X26562857Y43511380D01*
X26550952Y43463761D01*
X26550952Y43428047D01*
X26562857Y43380428D01*
X26574761Y43356619D01*
X26598571Y43332809D01*
X26634285Y43320904D01*
X26658095Y43320904D01*
X26693809Y43332809D01*
X26705714Y43344714D01*
X26705714Y43428047D01*
X26658095Y43428047D01*
X26812857Y43320904D02*
X26812857Y43570904D01*
X26812857Y43451857D02*
X26955714Y43451857D01*
X26955714Y43320904D02*
X26955714Y43570904D01*
X27039047Y43570904D02*
X27181904Y43570904D01*
X27110476Y43320904D02*
X27110476Y43570904D01*
%TO.C,PITCH1*%
D11*
X34449047Y38092119D02*
X34449047Y39092119D01*
X34830000Y39092119D01*
X34925238Y39044500D01*
X34972857Y38996880D01*
X35020476Y38901642D01*
X35020476Y38758785D01*
X34972857Y38663547D01*
X34925238Y38615928D01*
X34830000Y38568309D01*
X34449047Y38568309D01*
X35449047Y38092119D02*
X35449047Y39092119D01*
X35782380Y39092119D02*
X36353809Y39092119D01*
X36068095Y38092119D02*
X36068095Y39092119D01*
X37258571Y38187357D02*
X37210952Y38139738D01*
X37068095Y38092119D01*
X36972857Y38092119D01*
X36830000Y38139738D01*
X36734761Y38234976D01*
X36687142Y38330214D01*
X36639523Y38520690D01*
X36639523Y38663547D01*
X36687142Y38854023D01*
X36734761Y38949261D01*
X36830000Y39044500D01*
X36972857Y39092119D01*
X37068095Y39092119D01*
X37210952Y39044500D01*
X37258571Y38996880D01*
X37687142Y38092119D02*
X37687142Y39092119D01*
X37687142Y38615928D02*
X38258571Y38615928D01*
X38258571Y38092119D02*
X38258571Y39092119D01*
X39258571Y38092119D02*
X38687142Y38092119D01*
X38972857Y38092119D02*
X38972857Y39092119D01*
X38877619Y38949261D01*
X38782380Y38854023D01*
X38687142Y38806404D01*
D12*
X36187142Y44422214D02*
X36258571Y44398404D01*
X36282380Y44374595D01*
X36306190Y44326976D01*
X36306190Y44255547D01*
X36282380Y44207928D01*
X36258571Y44184119D01*
X36210952Y44160309D01*
X36020476Y44160309D01*
X36020476Y44660309D01*
X36187142Y44660309D01*
X36234761Y44636500D01*
X36258571Y44612690D01*
X36282380Y44565071D01*
X36282380Y44517452D01*
X36258571Y44469833D01*
X36234761Y44446023D01*
X36187142Y44422214D01*
X36020476Y44422214D01*
X36758571Y44660309D02*
X36520476Y44660309D01*
X36496666Y44422214D01*
X36520476Y44446023D01*
X36568095Y44469833D01*
X36687142Y44469833D01*
X36734761Y44446023D01*
X36758571Y44422214D01*
X36782380Y44374595D01*
X36782380Y44255547D01*
X36758571Y44207928D01*
X36734761Y44184119D01*
X36687142Y44160309D01*
X36568095Y44160309D01*
X36520476Y44184119D01*
X36496666Y44207928D01*
X37091904Y44660309D02*
X37139523Y44660309D01*
X37187142Y44636500D01*
X37210952Y44612690D01*
X37234761Y44565071D01*
X37258571Y44469833D01*
X37258571Y44350785D01*
X37234761Y44255547D01*
X37210952Y44207928D01*
X37187142Y44184119D01*
X37139523Y44160309D01*
X37091904Y44160309D01*
X37044285Y44184119D01*
X37020476Y44207928D01*
X36996666Y44255547D01*
X36972857Y44350785D01*
X36972857Y44469833D01*
X36996666Y44565071D01*
X37020476Y44612690D01*
X37044285Y44636500D01*
X37091904Y44660309D01*
X37472857Y44160309D02*
X37472857Y44660309D01*
X37520476Y44350785D02*
X37663333Y44160309D01*
X37663333Y44493642D02*
X37472857Y44303166D01*
D15*
X37766666Y43320904D02*
X37683333Y43439952D01*
X37623809Y43320904D02*
X37623809Y43570904D01*
X37719047Y43570904D01*
X37742857Y43559000D01*
X37754761Y43547095D01*
X37766666Y43523285D01*
X37766666Y43487571D01*
X37754761Y43463761D01*
X37742857Y43451857D01*
X37719047Y43439952D01*
X37623809Y43439952D01*
X37873809Y43320904D02*
X37873809Y43570904D01*
X38123809Y43559000D02*
X38100000Y43570904D01*
X38064285Y43570904D01*
X38028571Y43559000D01*
X38004761Y43535190D01*
X37992857Y43511380D01*
X37980952Y43463761D01*
X37980952Y43428047D01*
X37992857Y43380428D01*
X38004761Y43356619D01*
X38028571Y43332809D01*
X38064285Y43320904D01*
X38088095Y43320904D01*
X38123809Y43332809D01*
X38135714Y43344714D01*
X38135714Y43428047D01*
X38088095Y43428047D01*
X38242857Y43320904D02*
X38242857Y43570904D01*
X38242857Y43451857D02*
X38385714Y43451857D01*
X38385714Y43320904D02*
X38385714Y43570904D01*
X38469047Y43570904D02*
X38611904Y43570904D01*
X38540476Y43320904D02*
X38540476Y43570904D01*
D12*
X35962142Y39991190D02*
X35985952Y40015000D01*
X36033571Y40038809D01*
X36152619Y40038809D01*
X36200238Y40015000D01*
X36224047Y39991190D01*
X36247857Y39943571D01*
X36247857Y39895952D01*
X36224047Y39824523D01*
X35938333Y39538809D01*
X36247857Y39538809D01*
X33472857Y39538809D02*
X33187142Y39538809D01*
X33330000Y39538809D02*
X33330000Y40038809D01*
X33282380Y39967380D01*
X33234761Y39919761D01*
X33187142Y39895952D01*
X40163333Y40063809D02*
X40472857Y40063809D01*
X40306190Y39873333D01*
X40377619Y39873333D01*
X40425238Y39849523D01*
X40449047Y39825714D01*
X40472857Y39778095D01*
X40472857Y39659047D01*
X40449047Y39611428D01*
X40425238Y39587619D01*
X40377619Y39563809D01*
X40234761Y39563809D01*
X40187142Y39587619D01*
X40163333Y39611428D01*
D15*
X35321904Y43320904D02*
X35202857Y43320904D01*
X35202857Y43570904D01*
X35405238Y43451857D02*
X35488571Y43451857D01*
X35524285Y43320904D02*
X35405238Y43320904D01*
X35405238Y43570904D01*
X35524285Y43570904D01*
X35714761Y43451857D02*
X35631428Y43451857D01*
X35631428Y43320904D02*
X35631428Y43570904D01*
X35750476Y43570904D01*
X35810000Y43570904D02*
X35952857Y43570904D01*
X35881428Y43320904D02*
X35881428Y43570904D01*
%TO.C,SENSE/STARVE1*%
D11*
X8112857Y38139738D02*
X8255714Y38092119D01*
X8493809Y38092119D01*
X8589047Y38139738D01*
X8636666Y38187357D01*
X8684285Y38282595D01*
X8684285Y38377833D01*
X8636666Y38473071D01*
X8589047Y38520690D01*
X8493809Y38568309D01*
X8303333Y38615928D01*
X8208095Y38663547D01*
X8160476Y38711166D01*
X8112857Y38806404D01*
X8112857Y38901642D01*
X8160476Y38996880D01*
X8208095Y39044500D01*
X8303333Y39092119D01*
X8541428Y39092119D01*
X8684285Y39044500D01*
X9112857Y38615928D02*
X9446190Y38615928D01*
X9589047Y38092119D02*
X9112857Y38092119D01*
X9112857Y39092119D01*
X9589047Y39092119D01*
X10017619Y38092119D02*
X10017619Y39092119D01*
X10589047Y38092119D01*
X10589047Y39092119D01*
X11017619Y38139738D02*
X11160476Y38092119D01*
X11398571Y38092119D01*
X11493809Y38139738D01*
X11541428Y38187357D01*
X11589047Y38282595D01*
X11589047Y38377833D01*
X11541428Y38473071D01*
X11493809Y38520690D01*
X11398571Y38568309D01*
X11208095Y38615928D01*
X11112857Y38663547D01*
X11065238Y38711166D01*
X11017619Y38806404D01*
X11017619Y38901642D01*
X11065238Y38996880D01*
X11112857Y39044500D01*
X11208095Y39092119D01*
X11446190Y39092119D01*
X11589047Y39044500D01*
X12017619Y38615928D02*
X12350952Y38615928D01*
X12493809Y38092119D02*
X12017619Y38092119D01*
X12017619Y39092119D01*
X12493809Y39092119D01*
X13636666Y39139738D02*
X12779523Y37854023D01*
X13922380Y38139738D02*
X14065238Y38092119D01*
X14303333Y38092119D01*
X14398571Y38139738D01*
X14446190Y38187357D01*
X14493809Y38282595D01*
X14493809Y38377833D01*
X14446190Y38473071D01*
X14398571Y38520690D01*
X14303333Y38568309D01*
X14112857Y38615928D01*
X14017619Y38663547D01*
X13970000Y38711166D01*
X13922380Y38806404D01*
X13922380Y38901642D01*
X13970000Y38996880D01*
X14017619Y39044500D01*
X14112857Y39092119D01*
X14350952Y39092119D01*
X14493809Y39044500D01*
X14779523Y39092119D02*
X15350952Y39092119D01*
X15065238Y38092119D02*
X15065238Y39092119D01*
X15636666Y38377833D02*
X16112857Y38377833D01*
X15541428Y38092119D02*
X15874761Y39092119D01*
X16208095Y38092119D01*
X17112857Y38092119D02*
X16779523Y38568309D01*
X16541428Y38092119D02*
X16541428Y39092119D01*
X16922380Y39092119D01*
X17017619Y39044500D01*
X17065238Y38996880D01*
X17112857Y38901642D01*
X17112857Y38758785D01*
X17065238Y38663547D01*
X17017619Y38615928D01*
X16922380Y38568309D01*
X16541428Y38568309D01*
X17398571Y39092119D02*
X17731904Y38092119D01*
X18065238Y39092119D01*
X18398571Y38615928D02*
X18731904Y38615928D01*
X18874761Y38092119D02*
X18398571Y38092119D01*
X18398571Y39092119D01*
X18874761Y39092119D01*
X19827142Y38092119D02*
X19255714Y38092119D01*
X19541428Y38092119D02*
X19541428Y39092119D01*
X19446190Y38949261D01*
X19350952Y38854023D01*
X19255714Y38806404D01*
D12*
X13172380Y44303166D02*
X13410476Y44303166D01*
X13124761Y44160309D02*
X13291428Y44660309D01*
X13458095Y44160309D01*
X13862857Y44660309D02*
X13624761Y44660309D01*
X13600952Y44422214D01*
X13624761Y44446023D01*
X13672380Y44469833D01*
X13791428Y44469833D01*
X13839047Y44446023D01*
X13862857Y44422214D01*
X13886666Y44374595D01*
X13886666Y44255547D01*
X13862857Y44207928D01*
X13839047Y44184119D01*
X13791428Y44160309D01*
X13672380Y44160309D01*
X13624761Y44184119D01*
X13600952Y44207928D01*
X14196190Y44660309D02*
X14243809Y44660309D01*
X14291428Y44636500D01*
X14315238Y44612690D01*
X14339047Y44565071D01*
X14362857Y44469833D01*
X14362857Y44350785D01*
X14339047Y44255547D01*
X14315238Y44207928D01*
X14291428Y44184119D01*
X14243809Y44160309D01*
X14196190Y44160309D01*
X14148571Y44184119D01*
X14124761Y44207928D01*
X14100952Y44255547D01*
X14077142Y44350785D01*
X14077142Y44469833D01*
X14100952Y44565071D01*
X14124761Y44612690D01*
X14148571Y44636500D01*
X14196190Y44660309D01*
X14577142Y44160309D02*
X14577142Y44660309D01*
X14624761Y44350785D02*
X14767619Y44160309D01*
X14767619Y44493642D02*
X14577142Y44303166D01*
D15*
X12461904Y43320904D02*
X12342857Y43320904D01*
X12342857Y43570904D01*
X12545238Y43451857D02*
X12628571Y43451857D01*
X12664285Y43320904D02*
X12545238Y43320904D01*
X12545238Y43570904D01*
X12664285Y43570904D01*
X12854761Y43451857D02*
X12771428Y43451857D01*
X12771428Y43320904D02*
X12771428Y43570904D01*
X12890476Y43570904D01*
X12950000Y43570904D02*
X13092857Y43570904D01*
X13021428Y43320904D02*
X13021428Y43570904D01*
D12*
X17303333Y40063809D02*
X17612857Y40063809D01*
X17446190Y39873333D01*
X17517619Y39873333D01*
X17565238Y39849523D01*
X17589047Y39825714D01*
X17612857Y39778095D01*
X17612857Y39659047D01*
X17589047Y39611428D01*
X17565238Y39587619D01*
X17517619Y39563809D01*
X17374761Y39563809D01*
X17327142Y39587619D01*
X17303333Y39611428D01*
X10612857Y39538809D02*
X10327142Y39538809D01*
X10470000Y39538809D02*
X10470000Y40038809D01*
X10422380Y39967380D01*
X10374761Y39919761D01*
X10327142Y39895952D01*
X13102142Y39991190D02*
X13125952Y40015000D01*
X13173571Y40038809D01*
X13292619Y40038809D01*
X13340238Y40015000D01*
X13364047Y39991190D01*
X13387857Y39943571D01*
X13387857Y39895952D01*
X13364047Y39824523D01*
X13078333Y39538809D01*
X13387857Y39538809D01*
D15*
X14906666Y43320904D02*
X14823333Y43439952D01*
X14763809Y43320904D02*
X14763809Y43570904D01*
X14859047Y43570904D01*
X14882857Y43559000D01*
X14894761Y43547095D01*
X14906666Y43523285D01*
X14906666Y43487571D01*
X14894761Y43463761D01*
X14882857Y43451857D01*
X14859047Y43439952D01*
X14763809Y43439952D01*
X15013809Y43320904D02*
X15013809Y43570904D01*
X15263809Y43559000D02*
X15240000Y43570904D01*
X15204285Y43570904D01*
X15168571Y43559000D01*
X15144761Y43535190D01*
X15132857Y43511380D01*
X15120952Y43463761D01*
X15120952Y43428047D01*
X15132857Y43380428D01*
X15144761Y43356619D01*
X15168571Y43332809D01*
X15204285Y43320904D01*
X15228095Y43320904D01*
X15263809Y43332809D01*
X15275714Y43344714D01*
X15275714Y43428047D01*
X15228095Y43428047D01*
X15382857Y43320904D02*
X15382857Y43570904D01*
X15382857Y43451857D02*
X15525714Y43451857D01*
X15525714Y43320904D02*
X15525714Y43570904D01*
X15609047Y43570904D02*
X15751904Y43570904D01*
X15680476Y43320904D02*
X15680476Y43570904D01*
%TO.C,Osc_Select1*%
D11*
X44164761Y39092119D02*
X44355238Y39092119D01*
X44450476Y39044500D01*
X44545714Y38949261D01*
X44593333Y38758785D01*
X44593333Y38425452D01*
X44545714Y38234976D01*
X44450476Y38139738D01*
X44355238Y38092119D01*
X44164761Y38092119D01*
X44069523Y38139738D01*
X43974285Y38234976D01*
X43926666Y38425452D01*
X43926666Y38758785D01*
X43974285Y38949261D01*
X44069523Y39044500D01*
X44164761Y39092119D01*
X44974285Y38139738D02*
X45069523Y38092119D01*
X45260000Y38092119D01*
X45355238Y38139738D01*
X45402857Y38234976D01*
X45402857Y38282595D01*
X45355238Y38377833D01*
X45260000Y38425452D01*
X45117142Y38425452D01*
X45021904Y38473071D01*
X44974285Y38568309D01*
X44974285Y38615928D01*
X45021904Y38711166D01*
X45117142Y38758785D01*
X45260000Y38758785D01*
X45355238Y38711166D01*
X46260000Y38139738D02*
X46164761Y38092119D01*
X45974285Y38092119D01*
X45879047Y38139738D01*
X45831428Y38187357D01*
X45783809Y38282595D01*
X45783809Y38568309D01*
X45831428Y38663547D01*
X45879047Y38711166D01*
X45974285Y38758785D01*
X46164761Y38758785D01*
X46260000Y38711166D01*
X46450476Y37996880D02*
X47212380Y37996880D01*
X47402857Y38139738D02*
X47545714Y38092119D01*
X47783809Y38092119D01*
X47879047Y38139738D01*
X47926666Y38187357D01*
X47974285Y38282595D01*
X47974285Y38377833D01*
X47926666Y38473071D01*
X47879047Y38520690D01*
X47783809Y38568309D01*
X47593333Y38615928D01*
X47498095Y38663547D01*
X47450476Y38711166D01*
X47402857Y38806404D01*
X47402857Y38901642D01*
X47450476Y38996880D01*
X47498095Y39044500D01*
X47593333Y39092119D01*
X47831428Y39092119D01*
X47974285Y39044500D01*
X48783809Y38139738D02*
X48688571Y38092119D01*
X48498095Y38092119D01*
X48402857Y38139738D01*
X48355238Y38234976D01*
X48355238Y38615928D01*
X48402857Y38711166D01*
X48498095Y38758785D01*
X48688571Y38758785D01*
X48783809Y38711166D01*
X48831428Y38615928D01*
X48831428Y38520690D01*
X48355238Y38425452D01*
X49402857Y38092119D02*
X49307619Y38139738D01*
X49260000Y38234976D01*
X49260000Y39092119D01*
X50164761Y38139738D02*
X50069523Y38092119D01*
X49879047Y38092119D01*
X49783809Y38139738D01*
X49736190Y38234976D01*
X49736190Y38615928D01*
X49783809Y38711166D01*
X49879047Y38758785D01*
X50069523Y38758785D01*
X50164761Y38711166D01*
X50212380Y38615928D01*
X50212380Y38520690D01*
X49736190Y38425452D01*
X51069523Y38139738D02*
X50974285Y38092119D01*
X50783809Y38092119D01*
X50688571Y38139738D01*
X50640952Y38187357D01*
X50593333Y38282595D01*
X50593333Y38568309D01*
X50640952Y38663547D01*
X50688571Y38711166D01*
X50783809Y38758785D01*
X50974285Y38758785D01*
X51069523Y38711166D01*
X51355238Y38758785D02*
X51736190Y38758785D01*
X51498095Y39092119D02*
X51498095Y38234976D01*
X51545714Y38139738D01*
X51640952Y38092119D01*
X51736190Y38092119D01*
X52593333Y38092119D02*
X52021904Y38092119D01*
X52307619Y38092119D02*
X52307619Y39092119D01*
X52212380Y38949261D01*
X52117142Y38854023D01*
X52021904Y38806404D01*
D12*
X46212380Y44184119D02*
X46283809Y44160309D01*
X46402857Y44160309D01*
X46450476Y44184119D01*
X46474285Y44207928D01*
X46498095Y44255547D01*
X46498095Y44303166D01*
X46474285Y44350785D01*
X46450476Y44374595D01*
X46402857Y44398404D01*
X46307619Y44422214D01*
X46260000Y44446023D01*
X46236190Y44469833D01*
X46212380Y44517452D01*
X46212380Y44565071D01*
X46236190Y44612690D01*
X46260000Y44636500D01*
X46307619Y44660309D01*
X46426666Y44660309D01*
X46498095Y44636500D01*
X46712380Y44160309D02*
X46712380Y44660309D01*
X46902857Y44660309D01*
X46950476Y44636500D01*
X46974285Y44612690D01*
X46998095Y44565071D01*
X46998095Y44493642D01*
X46974285Y44446023D01*
X46950476Y44422214D01*
X46902857Y44398404D01*
X46712380Y44398404D01*
X47212380Y44160309D02*
X47212380Y44660309D01*
X47331428Y44660309D01*
X47402857Y44636500D01*
X47450476Y44588880D01*
X47474285Y44541261D01*
X47498095Y44446023D01*
X47498095Y44374595D01*
X47474285Y44279357D01*
X47450476Y44231738D01*
X47402857Y44184119D01*
X47331428Y44160309D01*
X47212380Y44160309D01*
X47640952Y44660309D02*
X47926666Y44660309D01*
X47783809Y44160309D02*
X47783809Y44660309D01*
X47974285Y44112690D02*
X48355238Y44112690D01*
X48450476Y44184119D02*
X48498095Y44160309D01*
X48593333Y44160309D01*
X48640952Y44184119D01*
X48664761Y44231738D01*
X48664761Y44255547D01*
X48640952Y44303166D01*
X48593333Y44326976D01*
X48521904Y44326976D01*
X48474285Y44350785D01*
X48450476Y44398404D01*
X48450476Y44422214D01*
X48474285Y44469833D01*
X48521904Y44493642D01*
X48593333Y44493642D01*
X48640952Y44469833D01*
X48879047Y44160309D02*
X48879047Y44493642D01*
X48879047Y44446023D02*
X48902857Y44469833D01*
X48950476Y44493642D01*
X49021904Y44493642D01*
X49069523Y44469833D01*
X49093333Y44422214D01*
X49093333Y44160309D01*
X49093333Y44422214D02*
X49117142Y44469833D01*
X49164761Y44493642D01*
X49236190Y44493642D01*
X49283809Y44469833D01*
X49307619Y44422214D01*
X49307619Y44160309D01*
X49760000Y44160309D02*
X49760000Y44422214D01*
X49736190Y44469833D01*
X49688571Y44493642D01*
X49593333Y44493642D01*
X49545714Y44469833D01*
X49760000Y44184119D02*
X49712380Y44160309D01*
X49593333Y44160309D01*
X49545714Y44184119D01*
X49521904Y44231738D01*
X49521904Y44279357D01*
X49545714Y44326976D01*
X49593333Y44350785D01*
X49712380Y44350785D01*
X49760000Y44374595D01*
X50069523Y44160309D02*
X50021904Y44184119D01*
X49998095Y44231738D01*
X49998095Y44660309D01*
X50331428Y44160309D02*
X50283809Y44184119D01*
X50260000Y44231738D01*
X50260000Y44660309D01*
D15*
X46400714Y43332809D02*
X46436428Y43320904D01*
X46495952Y43320904D01*
X46519761Y43332809D01*
X46531666Y43344714D01*
X46543571Y43368523D01*
X46543571Y43392333D01*
X46531666Y43416142D01*
X46519761Y43428047D01*
X46495952Y43439952D01*
X46448333Y43451857D01*
X46424523Y43463761D01*
X46412619Y43475666D01*
X46400714Y43499476D01*
X46400714Y43523285D01*
X46412619Y43547095D01*
X46424523Y43559000D01*
X46448333Y43570904D01*
X46507857Y43570904D01*
X46543571Y43559000D01*
X46615000Y43570904D02*
X46757857Y43570904D01*
X46686428Y43320904D02*
X46686428Y43570904D01*
X46984047Y43320904D02*
X46900714Y43439952D01*
X46841190Y43320904D02*
X46841190Y43570904D01*
X46936428Y43570904D01*
X46960238Y43559000D01*
X46972142Y43547095D01*
X46984047Y43523285D01*
X46984047Y43487571D01*
X46972142Y43463761D01*
X46960238Y43451857D01*
X46936428Y43439952D01*
X46841190Y43439952D01*
X47079285Y43392333D02*
X47198333Y43392333D01*
X47055476Y43320904D02*
X47138809Y43570904D01*
X47222142Y43320904D01*
X47305476Y43320904D02*
X47305476Y43570904D01*
X47424523Y43320904D02*
X47424523Y43570904D01*
X47567380Y43320904D01*
X47567380Y43570904D01*
D12*
X51593333Y40063809D02*
X51902857Y40063809D01*
X51736190Y39873333D01*
X51807619Y39873333D01*
X51855238Y39849523D01*
X51879047Y39825714D01*
X51902857Y39778095D01*
X51902857Y39659047D01*
X51879047Y39611428D01*
X51855238Y39587619D01*
X51807619Y39563809D01*
X51664761Y39563809D01*
X51617142Y39587619D01*
X51593333Y39611428D01*
X44902857Y39538809D02*
X44617142Y39538809D01*
X44760000Y39538809D02*
X44760000Y40038809D01*
X44712380Y39967380D01*
X44664761Y39919761D01*
X44617142Y39895952D01*
X47392142Y39991190D02*
X47415952Y40015000D01*
X47463571Y40038809D01*
X47582619Y40038809D01*
X47630238Y40015000D01*
X47654047Y39991190D01*
X47677857Y39943571D01*
X47677857Y39895952D01*
X47654047Y39824523D01*
X47368333Y39538809D01*
X47677857Y39538809D01*
D15*
X48940714Y43332809D02*
X48976428Y43320904D01*
X49035952Y43320904D01*
X49059761Y43332809D01*
X49071666Y43344714D01*
X49083571Y43368523D01*
X49083571Y43392333D01*
X49071666Y43416142D01*
X49059761Y43428047D01*
X49035952Y43439952D01*
X48988333Y43451857D01*
X48964523Y43463761D01*
X48952619Y43475666D01*
X48940714Y43499476D01*
X48940714Y43523285D01*
X48952619Y43547095D01*
X48964523Y43559000D01*
X48988333Y43570904D01*
X49047857Y43570904D01*
X49083571Y43559000D01*
X49155000Y43570904D02*
X49297857Y43570904D01*
X49226428Y43320904D02*
X49226428Y43570904D01*
X49524047Y43320904D02*
X49440714Y43439952D01*
X49381190Y43320904D02*
X49381190Y43570904D01*
X49476428Y43570904D01*
X49500238Y43559000D01*
X49512142Y43547095D01*
X49524047Y43523285D01*
X49524047Y43487571D01*
X49512142Y43463761D01*
X49500238Y43451857D01*
X49476428Y43439952D01*
X49381190Y43439952D01*
X49619285Y43392333D02*
X49738333Y43392333D01*
X49595476Y43320904D02*
X49678809Y43570904D01*
X49762142Y43320904D01*
X49845476Y43320904D02*
X49845476Y43570904D01*
X49964523Y43320904D02*
X49964523Y43570904D01*
X50107380Y43320904D01*
X50107380Y43570904D01*
%TO.C,Button_ON1*%
D11*
X6307142Y1552857D02*
X6335714Y1638571D01*
X6364285Y1667142D01*
X6421428Y1695714D01*
X6507142Y1695714D01*
X6564285Y1667142D01*
X6592857Y1638571D01*
X6621428Y1581428D01*
X6621428Y1352857D01*
X6021428Y1352857D01*
X6021428Y1552857D01*
X6050000Y1610000D01*
X6078571Y1638571D01*
X6135714Y1667142D01*
X6192857Y1667142D01*
X6250000Y1638571D01*
X6278571Y1610000D01*
X6307142Y1552857D01*
X6307142Y1352857D01*
X6221428Y2210000D02*
X6621428Y2210000D01*
X6221428Y1952857D02*
X6535714Y1952857D01*
X6592857Y1981428D01*
X6621428Y2038571D01*
X6621428Y2124285D01*
X6592857Y2181428D01*
X6564285Y2210000D01*
X6221428Y2410000D02*
X6221428Y2638571D01*
X6021428Y2495714D02*
X6535714Y2495714D01*
X6592857Y2524285D01*
X6621428Y2581428D01*
X6621428Y2638571D01*
X6221428Y2752857D02*
X6221428Y2981428D01*
X6021428Y2838571D02*
X6535714Y2838571D01*
X6592857Y2867142D01*
X6621428Y2924285D01*
X6621428Y2981428D01*
X6621428Y3267142D02*
X6592857Y3210000D01*
X6564285Y3181428D01*
X6507142Y3152857D01*
X6335714Y3152857D01*
X6278571Y3181428D01*
X6250000Y3210000D01*
X6221428Y3267142D01*
X6221428Y3352857D01*
X6250000Y3410000D01*
X6278571Y3438571D01*
X6335714Y3467142D01*
X6507142Y3467142D01*
X6564285Y3438571D01*
X6592857Y3410000D01*
X6621428Y3352857D01*
X6621428Y3267142D01*
X6221428Y3724285D02*
X6621428Y3724285D01*
X6278571Y3724285D02*
X6250000Y3752857D01*
X6221428Y3810000D01*
X6221428Y3895714D01*
X6250000Y3952857D01*
X6307142Y3981428D01*
X6621428Y3981428D01*
X6678571Y4124285D02*
X6678571Y4581428D01*
X6021428Y4838571D02*
X6021428Y4952857D01*
X6050000Y5010000D01*
X6107142Y5067142D01*
X6221428Y5095714D01*
X6421428Y5095714D01*
X6535714Y5067142D01*
X6592857Y5010000D01*
X6621428Y4952857D01*
X6621428Y4838571D01*
X6592857Y4781428D01*
X6535714Y4724285D01*
X6421428Y4695714D01*
X6221428Y4695714D01*
X6107142Y4724285D01*
X6050000Y4781428D01*
X6021428Y4838571D01*
X6621428Y5352857D02*
X6021428Y5352857D01*
X6621428Y5695714D01*
X6021428Y5695714D01*
X6621428Y6295714D02*
X6621428Y5952857D01*
X6621428Y6124285D02*
X6021428Y6124285D01*
X6107142Y6067142D01*
X6164285Y6010000D01*
X6192857Y5952857D01*
D12*
X504285Y6782619D02*
X575714Y6758809D01*
X694761Y6758809D01*
X742380Y6782619D01*
X766190Y6806428D01*
X790000Y6854047D01*
X790000Y6901666D01*
X766190Y6949285D01*
X742380Y6973095D01*
X694761Y6996904D01*
X599523Y7020714D01*
X551904Y7044523D01*
X528095Y7068333D01*
X504285Y7115952D01*
X504285Y7163571D01*
X528095Y7211190D01*
X551904Y7235000D01*
X599523Y7258809D01*
X718571Y7258809D01*
X790000Y7235000D01*
X1004285Y6758809D02*
X1004285Y7258809D01*
X1194761Y7258809D01*
X1242380Y7235000D01*
X1266190Y7211190D01*
X1290000Y7163571D01*
X1290000Y7092142D01*
X1266190Y7044523D01*
X1242380Y7020714D01*
X1194761Y6996904D01*
X1004285Y6996904D01*
X1480476Y6782619D02*
X1551904Y6758809D01*
X1670952Y6758809D01*
X1718571Y6782619D01*
X1742380Y6806428D01*
X1766190Y6854047D01*
X1766190Y6901666D01*
X1742380Y6949285D01*
X1718571Y6973095D01*
X1670952Y6996904D01*
X1575714Y7020714D01*
X1528095Y7044523D01*
X1504285Y7068333D01*
X1480476Y7115952D01*
X1480476Y7163571D01*
X1504285Y7211190D01*
X1528095Y7235000D01*
X1575714Y7258809D01*
X1694761Y7258809D01*
X1766190Y7235000D01*
X1909047Y7258809D02*
X2194761Y7258809D01*
X2051904Y6758809D02*
X2051904Y7258809D01*
X2242380Y6711190D02*
X2623333Y6711190D01*
X2718571Y6782619D02*
X2766190Y6758809D01*
X2861428Y6758809D01*
X2909047Y6782619D01*
X2932857Y6830238D01*
X2932857Y6854047D01*
X2909047Y6901666D01*
X2861428Y6925476D01*
X2790000Y6925476D01*
X2742380Y6949285D01*
X2718571Y6996904D01*
X2718571Y7020714D01*
X2742380Y7068333D01*
X2790000Y7092142D01*
X2861428Y7092142D01*
X2909047Y7068333D01*
X3147142Y6758809D02*
X3147142Y7092142D01*
X3147142Y7044523D02*
X3170952Y7068333D01*
X3218571Y7092142D01*
X3290000Y7092142D01*
X3337619Y7068333D01*
X3361428Y7020714D01*
X3361428Y6758809D01*
X3361428Y7020714D02*
X3385238Y7068333D01*
X3432857Y7092142D01*
X3504285Y7092142D01*
X3551904Y7068333D01*
X3575714Y7020714D01*
X3575714Y6758809D01*
X4028095Y6758809D02*
X4028095Y7020714D01*
X4004285Y7068333D01*
X3956666Y7092142D01*
X3861428Y7092142D01*
X3813809Y7068333D01*
X4028095Y6782619D02*
X3980476Y6758809D01*
X3861428Y6758809D01*
X3813809Y6782619D01*
X3790000Y6830238D01*
X3790000Y6877857D01*
X3813809Y6925476D01*
X3861428Y6949285D01*
X3980476Y6949285D01*
X4028095Y6973095D01*
X4337619Y6758809D02*
X4290000Y6782619D01*
X4266190Y6830238D01*
X4266190Y7258809D01*
X4599523Y6758809D02*
X4551904Y6782619D01*
X4528095Y6830238D01*
X4528095Y7258809D01*
X4861690Y1793857D02*
X4861690Y1508142D01*
X4861690Y1651000D02*
X4361690Y1651000D01*
X4433119Y1603380D01*
X4480738Y1555761D01*
X4504547Y1508142D01*
X4409309Y5826142D02*
X4385500Y5849952D01*
X4361690Y5897571D01*
X4361690Y6016619D01*
X4385500Y6064238D01*
X4409309Y6088047D01*
X4456928Y6111857D01*
X4504547Y6111857D01*
X4575976Y6088047D01*
X4861690Y5802333D01*
X4861690Y6111857D01*
D15*
X1117190Y3220714D02*
X1129095Y3256428D01*
X1129095Y3315952D01*
X1117190Y3339761D01*
X1105285Y3351666D01*
X1081476Y3363571D01*
X1057666Y3363571D01*
X1033857Y3351666D01*
X1021952Y3339761D01*
X1010047Y3315952D01*
X998142Y3268333D01*
X986238Y3244523D01*
X974333Y3232619D01*
X950523Y3220714D01*
X926714Y3220714D01*
X902904Y3232619D01*
X891000Y3244523D01*
X879095Y3268333D01*
X879095Y3327857D01*
X891000Y3363571D01*
X879095Y3435000D02*
X879095Y3577857D01*
X1129095Y3506428D02*
X879095Y3506428D01*
X1129095Y3804047D02*
X1010047Y3720714D01*
X1129095Y3661190D02*
X879095Y3661190D01*
X879095Y3756428D01*
X891000Y3780238D01*
X902904Y3792142D01*
X926714Y3804047D01*
X962428Y3804047D01*
X986238Y3792142D01*
X998142Y3780238D01*
X1010047Y3756428D01*
X1010047Y3661190D01*
X1057666Y3899285D02*
X1057666Y4018333D01*
X1129095Y3875476D02*
X879095Y3958809D01*
X1129095Y4042142D01*
X1129095Y4125476D02*
X879095Y4125476D01*
X1129095Y4244523D02*
X879095Y4244523D01*
X1129095Y4387380D01*
X879095Y4387380D01*
%TO.C,PWR2*%
D11*
X56595928Y9137785D02*
X55995928Y9137785D01*
X55995928Y9366357D01*
X56024500Y9423500D01*
X56053071Y9452071D01*
X56110214Y9480642D01*
X56195928Y9480642D01*
X56253071Y9452071D01*
X56281642Y9423500D01*
X56310214Y9366357D01*
X56310214Y9137785D01*
X55995928Y9680642D02*
X56595928Y9823500D01*
X56167357Y9937785D01*
X56595928Y10052071D01*
X55995928Y10194928D01*
X56595928Y10766357D02*
X56310214Y10566357D01*
X56595928Y10423500D02*
X55995928Y10423500D01*
X55995928Y10652071D01*
X56024500Y10709214D01*
X56053071Y10737785D01*
X56110214Y10766357D01*
X56195928Y10766357D01*
X56253071Y10737785D01*
X56281642Y10709214D01*
X56310214Y10652071D01*
X56310214Y10423500D01*
X56053071Y10994928D02*
X56024500Y11023500D01*
X55995928Y11080642D01*
X55995928Y11223500D01*
X56024500Y11280642D01*
X56053071Y11309214D01*
X56110214Y11337785D01*
X56167357Y11337785D01*
X56253071Y11309214D01*
X56595928Y10966357D01*
X56595928Y11337785D01*
D12*
X57654285Y13132619D02*
X57725714Y13108809D01*
X57844761Y13108809D01*
X57892380Y13132619D01*
X57916190Y13156428D01*
X57940000Y13204047D01*
X57940000Y13251666D01*
X57916190Y13299285D01*
X57892380Y13323095D01*
X57844761Y13346904D01*
X57749523Y13370714D01*
X57701904Y13394523D01*
X57678095Y13418333D01*
X57654285Y13465952D01*
X57654285Y13513571D01*
X57678095Y13561190D01*
X57701904Y13585000D01*
X57749523Y13608809D01*
X57868571Y13608809D01*
X57940000Y13585000D01*
X58154285Y13108809D02*
X58154285Y13608809D01*
X58344761Y13608809D01*
X58392380Y13585000D01*
X58416190Y13561190D01*
X58440000Y13513571D01*
X58440000Y13442142D01*
X58416190Y13394523D01*
X58392380Y13370714D01*
X58344761Y13346904D01*
X58154285Y13346904D01*
X58630476Y13132619D02*
X58701904Y13108809D01*
X58820952Y13108809D01*
X58868571Y13132619D01*
X58892380Y13156428D01*
X58916190Y13204047D01*
X58916190Y13251666D01*
X58892380Y13299285D01*
X58868571Y13323095D01*
X58820952Y13346904D01*
X58725714Y13370714D01*
X58678095Y13394523D01*
X58654285Y13418333D01*
X58630476Y13465952D01*
X58630476Y13513571D01*
X58654285Y13561190D01*
X58678095Y13585000D01*
X58725714Y13608809D01*
X58844761Y13608809D01*
X58916190Y13585000D01*
X59059047Y13608809D02*
X59344761Y13608809D01*
X59201904Y13108809D02*
X59201904Y13608809D01*
X59392380Y13061190D02*
X59773333Y13061190D01*
X59868571Y13132619D02*
X59916190Y13108809D01*
X60011428Y13108809D01*
X60059047Y13132619D01*
X60082857Y13180238D01*
X60082857Y13204047D01*
X60059047Y13251666D01*
X60011428Y13275476D01*
X59940000Y13275476D01*
X59892380Y13299285D01*
X59868571Y13346904D01*
X59868571Y13370714D01*
X59892380Y13418333D01*
X59940000Y13442142D01*
X60011428Y13442142D01*
X60059047Y13418333D01*
X60297142Y13108809D02*
X60297142Y13442142D01*
X60297142Y13394523D02*
X60320952Y13418333D01*
X60368571Y13442142D01*
X60440000Y13442142D01*
X60487619Y13418333D01*
X60511428Y13370714D01*
X60511428Y13108809D01*
X60511428Y13370714D02*
X60535238Y13418333D01*
X60582857Y13442142D01*
X60654285Y13442142D01*
X60701904Y13418333D01*
X60725714Y13370714D01*
X60725714Y13108809D01*
X61178095Y13108809D02*
X61178095Y13370714D01*
X61154285Y13418333D01*
X61106666Y13442142D01*
X61011428Y13442142D01*
X60963809Y13418333D01*
X61178095Y13132619D02*
X61130476Y13108809D01*
X61011428Y13108809D01*
X60963809Y13132619D01*
X60940000Y13180238D01*
X60940000Y13227857D01*
X60963809Y13275476D01*
X61011428Y13299285D01*
X61130476Y13299285D01*
X61178095Y13323095D01*
X61487619Y13108809D02*
X61440000Y13132619D01*
X61416190Y13180238D01*
X61416190Y13608809D01*
X61749523Y13108809D02*
X61701904Y13132619D01*
X61678095Y13180238D01*
X61678095Y13608809D01*
D15*
X61315190Y9570714D02*
X61327095Y9606428D01*
X61327095Y9665952D01*
X61315190Y9689761D01*
X61303285Y9701666D01*
X61279476Y9713571D01*
X61255666Y9713571D01*
X61231857Y9701666D01*
X61219952Y9689761D01*
X61208047Y9665952D01*
X61196142Y9618333D01*
X61184238Y9594523D01*
X61172333Y9582619D01*
X61148523Y9570714D01*
X61124714Y9570714D01*
X61100904Y9582619D01*
X61089000Y9594523D01*
X61077095Y9618333D01*
X61077095Y9677857D01*
X61089000Y9713571D01*
X61077095Y9785000D02*
X61077095Y9927857D01*
X61327095Y9856428D02*
X61077095Y9856428D01*
X61327095Y10154047D02*
X61208047Y10070714D01*
X61327095Y10011190D02*
X61077095Y10011190D01*
X61077095Y10106428D01*
X61089000Y10130238D01*
X61100904Y10142142D01*
X61124714Y10154047D01*
X61160428Y10154047D01*
X61184238Y10142142D01*
X61196142Y10130238D01*
X61208047Y10106428D01*
X61208047Y10011190D01*
X61255666Y10249285D02*
X61255666Y10368333D01*
X61327095Y10225476D02*
X61077095Y10308809D01*
X61327095Y10392142D01*
X61327095Y10475476D02*
X61077095Y10475476D01*
X61327095Y10594523D02*
X61077095Y10594523D01*
X61327095Y10737380D01*
X61077095Y10737380D01*
D12*
X57368309Y7858142D02*
X57344500Y7881952D01*
X57320690Y7929571D01*
X57320690Y8048619D01*
X57344500Y8096238D01*
X57368309Y8120047D01*
X57415928Y8143857D01*
X57463547Y8143857D01*
X57534976Y8120047D01*
X57820690Y7834333D01*
X57820690Y8143857D01*
X57820690Y12461857D02*
X57820690Y12176142D01*
X57820690Y12319000D02*
X57320690Y12319000D01*
X57392119Y12271380D01*
X57439738Y12223761D01*
X57463547Y12176142D01*
%TO.C,Switch_On1*%
D11*
X6592857Y7731428D02*
X6621428Y7817142D01*
X6621428Y7960000D01*
X6592857Y8017142D01*
X6564285Y8045714D01*
X6507142Y8074285D01*
X6450000Y8074285D01*
X6392857Y8045714D01*
X6364285Y8017142D01*
X6335714Y7960000D01*
X6307142Y7845714D01*
X6278571Y7788571D01*
X6250000Y7760000D01*
X6192857Y7731428D01*
X6135714Y7731428D01*
X6078571Y7760000D01*
X6050000Y7788571D01*
X6021428Y7845714D01*
X6021428Y7988571D01*
X6050000Y8074285D01*
X6221428Y8274285D02*
X6621428Y8388571D01*
X6335714Y8502857D01*
X6621428Y8617142D01*
X6221428Y8731428D01*
X6621428Y8960000D02*
X6221428Y8960000D01*
X6021428Y8960000D02*
X6050000Y8931428D01*
X6078571Y8960000D01*
X6050000Y8988571D01*
X6021428Y8960000D01*
X6078571Y8960000D01*
X6221428Y9160000D02*
X6221428Y9388571D01*
X6021428Y9245714D02*
X6535714Y9245714D01*
X6592857Y9274285D01*
X6621428Y9331428D01*
X6621428Y9388571D01*
X6592857Y9845714D02*
X6621428Y9788571D01*
X6621428Y9674285D01*
X6592857Y9617142D01*
X6564285Y9588571D01*
X6507142Y9560000D01*
X6335714Y9560000D01*
X6278571Y9588571D01*
X6250000Y9617142D01*
X6221428Y9674285D01*
X6221428Y9788571D01*
X6250000Y9845714D01*
X6621428Y10102857D02*
X6021428Y10102857D01*
X6621428Y10360000D02*
X6307142Y10360000D01*
X6250000Y10331428D01*
X6221428Y10274285D01*
X6221428Y10188571D01*
X6250000Y10131428D01*
X6278571Y10102857D01*
X6678571Y10502857D02*
X6678571Y10960000D01*
X6021428Y11217142D02*
X6021428Y11331428D01*
X6050000Y11388571D01*
X6107142Y11445714D01*
X6221428Y11474285D01*
X6421428Y11474285D01*
X6535714Y11445714D01*
X6592857Y11388571D01*
X6621428Y11331428D01*
X6621428Y11217142D01*
X6592857Y11160000D01*
X6535714Y11102857D01*
X6421428Y11074285D01*
X6221428Y11074285D01*
X6107142Y11102857D01*
X6050000Y11160000D01*
X6021428Y11217142D01*
X6221428Y11731428D02*
X6621428Y11731428D01*
X6278571Y11731428D02*
X6250000Y11760000D01*
X6221428Y11817142D01*
X6221428Y11902857D01*
X6250000Y11960000D01*
X6307142Y11988571D01*
X6621428Y11988571D01*
X6621428Y12588571D02*
X6621428Y12245714D01*
X6621428Y12417142D02*
X6021428Y12417142D01*
X6107142Y12360000D01*
X6164285Y12302857D01*
X6192857Y12245714D01*
D12*
X504285Y13132619D02*
X575714Y13108809D01*
X694761Y13108809D01*
X742380Y13132619D01*
X766190Y13156428D01*
X790000Y13204047D01*
X790000Y13251666D01*
X766190Y13299285D01*
X742380Y13323095D01*
X694761Y13346904D01*
X599523Y13370714D01*
X551904Y13394523D01*
X528095Y13418333D01*
X504285Y13465952D01*
X504285Y13513571D01*
X528095Y13561190D01*
X551904Y13585000D01*
X599523Y13608809D01*
X718571Y13608809D01*
X790000Y13585000D01*
X1004285Y13108809D02*
X1004285Y13608809D01*
X1194761Y13608809D01*
X1242380Y13585000D01*
X1266190Y13561190D01*
X1290000Y13513571D01*
X1290000Y13442142D01*
X1266190Y13394523D01*
X1242380Y13370714D01*
X1194761Y13346904D01*
X1004285Y13346904D01*
X1480476Y13132619D02*
X1551904Y13108809D01*
X1670952Y13108809D01*
X1718571Y13132619D01*
X1742380Y13156428D01*
X1766190Y13204047D01*
X1766190Y13251666D01*
X1742380Y13299285D01*
X1718571Y13323095D01*
X1670952Y13346904D01*
X1575714Y13370714D01*
X1528095Y13394523D01*
X1504285Y13418333D01*
X1480476Y13465952D01*
X1480476Y13513571D01*
X1504285Y13561190D01*
X1528095Y13585000D01*
X1575714Y13608809D01*
X1694761Y13608809D01*
X1766190Y13585000D01*
X1909047Y13608809D02*
X2194761Y13608809D01*
X2051904Y13108809D02*
X2051904Y13608809D01*
X2242380Y13061190D02*
X2623333Y13061190D01*
X2718571Y13132619D02*
X2766190Y13108809D01*
X2861428Y13108809D01*
X2909047Y13132619D01*
X2932857Y13180238D01*
X2932857Y13204047D01*
X2909047Y13251666D01*
X2861428Y13275476D01*
X2790000Y13275476D01*
X2742380Y13299285D01*
X2718571Y13346904D01*
X2718571Y13370714D01*
X2742380Y13418333D01*
X2790000Y13442142D01*
X2861428Y13442142D01*
X2909047Y13418333D01*
X3147142Y13108809D02*
X3147142Y13442142D01*
X3147142Y13394523D02*
X3170952Y13418333D01*
X3218571Y13442142D01*
X3290000Y13442142D01*
X3337619Y13418333D01*
X3361428Y13370714D01*
X3361428Y13108809D01*
X3361428Y13370714D02*
X3385238Y13418333D01*
X3432857Y13442142D01*
X3504285Y13442142D01*
X3551904Y13418333D01*
X3575714Y13370714D01*
X3575714Y13108809D01*
X4028095Y13108809D02*
X4028095Y13370714D01*
X4004285Y13418333D01*
X3956666Y13442142D01*
X3861428Y13442142D01*
X3813809Y13418333D01*
X4028095Y13132619D02*
X3980476Y13108809D01*
X3861428Y13108809D01*
X3813809Y13132619D01*
X3790000Y13180238D01*
X3790000Y13227857D01*
X3813809Y13275476D01*
X3861428Y13299285D01*
X3980476Y13299285D01*
X4028095Y13323095D01*
X4337619Y13108809D02*
X4290000Y13132619D01*
X4266190Y13180238D01*
X4266190Y13608809D01*
X4599523Y13108809D02*
X4551904Y13132619D01*
X4528095Y13180238D01*
X4528095Y13608809D01*
X4861690Y8143857D02*
X4861690Y7858142D01*
X4861690Y8001000D02*
X4361690Y8001000D01*
X4433119Y7953380D01*
X4480738Y7905761D01*
X4504547Y7858142D01*
X4409309Y12176142D02*
X4385500Y12199952D01*
X4361690Y12247571D01*
X4361690Y12366619D01*
X4385500Y12414238D01*
X4409309Y12438047D01*
X4456928Y12461857D01*
X4504547Y12461857D01*
X4575976Y12438047D01*
X4861690Y12152333D01*
X4861690Y12461857D01*
D15*
X2641190Y9570714D02*
X2653095Y9606428D01*
X2653095Y9665952D01*
X2641190Y9689761D01*
X2629285Y9701666D01*
X2605476Y9713571D01*
X2581666Y9713571D01*
X2557857Y9701666D01*
X2545952Y9689761D01*
X2534047Y9665952D01*
X2522142Y9618333D01*
X2510238Y9594523D01*
X2498333Y9582619D01*
X2474523Y9570714D01*
X2450714Y9570714D01*
X2426904Y9582619D01*
X2415000Y9594523D01*
X2403095Y9618333D01*
X2403095Y9677857D01*
X2415000Y9713571D01*
X2403095Y9785000D02*
X2403095Y9927857D01*
X2653095Y9856428D02*
X2403095Y9856428D01*
X2653095Y10154047D02*
X2534047Y10070714D01*
X2653095Y10011190D02*
X2403095Y10011190D01*
X2403095Y10106428D01*
X2415000Y10130238D01*
X2426904Y10142142D01*
X2450714Y10154047D01*
X2486428Y10154047D01*
X2510238Y10142142D01*
X2522142Y10130238D01*
X2534047Y10106428D01*
X2534047Y10011190D01*
X2581666Y10249285D02*
X2581666Y10368333D01*
X2653095Y10225476D02*
X2403095Y10308809D01*
X2653095Y10392142D01*
X2653095Y10475476D02*
X2403095Y10475476D01*
X2653095Y10594523D02*
X2403095Y10594523D01*
X2653095Y10737380D01*
X2403095Y10737380D01*
%TO.C,PWR1*%
D16*
X48172857Y585380D02*
X48172857Y1601380D01*
X48458571Y1601380D01*
X48530000Y1553000D01*
X48565714Y1504619D01*
X48601428Y1407857D01*
X48601428Y1262714D01*
X48565714Y1165952D01*
X48530000Y1117571D01*
X48458571Y1069190D01*
X48172857Y1069190D01*
X48851428Y1601380D02*
X49030000Y585380D01*
X49172857Y1311095D01*
X49315714Y585380D01*
X49494285Y1601380D01*
X50208571Y585380D02*
X49958571Y1069190D01*
X49780000Y585380D02*
X49780000Y1601380D01*
X50065714Y1601380D01*
X50137142Y1553000D01*
X50172857Y1504619D01*
X50208571Y1407857D01*
X50208571Y1262714D01*
X50172857Y1165952D01*
X50137142Y1117571D01*
X50065714Y1069190D01*
X49780000Y1069190D01*
X50922857Y585380D02*
X50494285Y585380D01*
X50708571Y585380D02*
X50708571Y1601380D01*
X50637142Y1456238D01*
X50565714Y1359476D01*
X50494285Y1311095D01*
%TO.C,U2*%
D11*
X23859380Y21082095D02*
X24668904Y21082095D01*
X24764142Y21129714D01*
X24811761Y21177333D01*
X24859380Y21272571D01*
X24859380Y21463047D01*
X24811761Y21558285D01*
X24764142Y21605904D01*
X24668904Y21653523D01*
X23859380Y21653523D01*
X23954619Y22082095D02*
X23907000Y22129714D01*
X23859380Y22224952D01*
X23859380Y22463047D01*
X23907000Y22558285D01*
X23954619Y22605904D01*
X24049857Y22653523D01*
X24145095Y22653523D01*
X24287952Y22605904D01*
X24859380Y22034476D01*
X24859380Y22653523D01*
%TO.C,U1*%
D14*
X17246666Y19687333D02*
X17246666Y19120666D01*
X17280000Y19054000D01*
X17313333Y19020666D01*
X17380000Y18987333D01*
X17513333Y18987333D01*
X17580000Y19020666D01*
X17613333Y19054000D01*
X17646666Y19120666D01*
X17646666Y19687333D01*
X18346666Y18987333D02*
X17946666Y18987333D01*
X18146666Y18987333D02*
X18146666Y19687333D01*
X18080000Y19587333D01*
X18013333Y19520666D01*
X17946666Y19487333D01*
X16596666Y17463333D02*
X16263333Y17463333D01*
X16263333Y18163333D01*
X16830000Y17463333D02*
X16830000Y18163333D01*
X17063333Y17663333D01*
X17296666Y18163333D01*
X17296666Y17463333D01*
X17563333Y18163333D02*
X17996666Y18163333D01*
X17763333Y17896666D01*
X17863333Y17896666D01*
X17930000Y17863333D01*
X17963333Y17830000D01*
X17996666Y17763333D01*
X17996666Y17596666D01*
X17963333Y17530000D01*
X17930000Y17496666D01*
X17863333Y17463333D01*
X17663333Y17463333D01*
X17596666Y17496666D01*
X17563333Y17530000D01*
X18630000Y18163333D02*
X18296666Y18163333D01*
X18263333Y17830000D01*
X18296666Y17863333D01*
X18363333Y17896666D01*
X18530000Y17896666D01*
X18596666Y17863333D01*
X18630000Y17830000D01*
X18663333Y17763333D01*
X18663333Y17596666D01*
X18630000Y17530000D01*
X18596666Y17496666D01*
X18530000Y17463333D01*
X18363333Y17463333D01*
X18296666Y17496666D01*
X18263333Y17530000D01*
X19063333Y17863333D02*
X18996666Y17896666D01*
X18963333Y17930000D01*
X18930000Y17996666D01*
X18930000Y18030000D01*
X18963333Y18096666D01*
X18996666Y18130000D01*
X19063333Y18163333D01*
X19196666Y18163333D01*
X19263333Y18130000D01*
X19296666Y18096666D01*
X19330000Y18030000D01*
X19330000Y17996666D01*
X19296666Y17930000D01*
X19263333Y17896666D01*
X19196666Y17863333D01*
X19063333Y17863333D01*
X18996666Y17830000D01*
X18963333Y17796666D01*
X18930000Y17730000D01*
X18930000Y17596666D01*
X18963333Y17530000D01*
X18996666Y17496666D01*
X19063333Y17463333D01*
X19196666Y17463333D01*
X19263333Y17496666D01*
X19296666Y17530000D01*
X19330000Y17596666D01*
X19330000Y17730000D01*
X19296666Y17796666D01*
X19263333Y17830000D01*
X19196666Y17863333D01*
%TO.C,GND1*%
X41421142Y16098000D02*
X41364000Y16131333D01*
X41278285Y16131333D01*
X41192571Y16098000D01*
X41135428Y16031333D01*
X41106857Y15964666D01*
X41078285Y15831333D01*
X41078285Y15731333D01*
X41106857Y15598000D01*
X41135428Y15531333D01*
X41192571Y15464666D01*
X41278285Y15431333D01*
X41335428Y15431333D01*
X41421142Y15464666D01*
X41449714Y15498000D01*
X41449714Y15731333D01*
X41335428Y15731333D01*
X41706857Y15431333D02*
X41706857Y16131333D01*
X42049714Y15431333D01*
X42049714Y16131333D01*
X42335428Y15431333D02*
X42335428Y16131333D01*
X42478285Y16131333D01*
X42564000Y16098000D01*
X42621142Y16031333D01*
X42649714Y15964666D01*
X42678285Y15831333D01*
X42678285Y15731333D01*
X42649714Y15598000D01*
X42621142Y15531333D01*
X42564000Y15464666D01*
X42478285Y15431333D01*
X42335428Y15431333D01*
X43249714Y15431333D02*
X42906857Y15431333D01*
X43078285Y15431333D02*
X43078285Y16131333D01*
X43021142Y16031333D01*
X42964000Y15964666D01*
X42906857Y15931333D01*
%TD*%
M02*
