G04 #@! TF.GenerationSoftware,KiCad,Pcbnew,(5.0.0-rc2-dev-311-g1dd4af297)*
G04 #@! TF.CreationDate,2018-04-22T13:53:34-07:00*
G04 #@! TF.ProjectId,workshop_drum1.2,776F726B73686F705F6472756D312E32,rev?*
G04 #@! TF.SameCoordinates,Original*
G04 #@! TF.FileFunction,Soldermask,Bot*
G04 #@! TF.FilePolarity,Negative*
%FSLAX46Y46*%
G04 Gerber Fmt 4.6, Leading zero omitted, Abs format (unit mm)*
G04 Created by KiCad (PCBNEW (5.0.0-rc2-dev-311-g1dd4af297)) date 04/22/18 13:53:34*
%MOMM*%
%LPD*%
G01*
G04 APERTURE LIST*
%ADD10C,3.100000*%
%ADD11C,1.700000*%
%ADD12C,1.600000*%
%ADD13O,1.600000X1.600000*%
%ADD14C,1.397000*%
%ADD15R,1.600000X1.600000*%
%ADD16R,1.800000X1.800000*%
%ADD17C,1.800000*%
%ADD18O,1.800000X1.800000*%
%ADD19R,1.000000X1.000000*%
%ADD20C,1.000000*%
%ADD21C,2.667000*%
%ADD22C,1.803400*%
G04 APERTURE END LIST*
D10*
X167636000Y-115062000D03*
X162936000Y-115062000D03*
X158236000Y-115062000D03*
X132936000Y-72400000D03*
X137636000Y-72400000D03*
D11*
X149206000Y-40130000D03*
X146666000Y-40130000D03*
X146666000Y-42670000D03*
X149206000Y-42670000D03*
X127254000Y-65024000D03*
X127254000Y-62484000D03*
X124714000Y-62484000D03*
X124714000Y-65024000D03*
D12*
X148590000Y-121285000D03*
X148590000Y-113665000D03*
D13*
X167640000Y-149860000D03*
X128270000Y-149860000D03*
X133985000Y-149860000D03*
X139700000Y-149860000D03*
X145415000Y-149860000D03*
X151130000Y-149860000D03*
X133985000Y-143510000D03*
X133985000Y-133985000D03*
X133985000Y-140335000D03*
X133985000Y-146685000D03*
X133985000Y-137160000D03*
X128270000Y-133985000D03*
X128270000Y-146685000D03*
X128270000Y-143510000D03*
X128270000Y-140335000D03*
X128270000Y-137160000D03*
X145415000Y-143510000D03*
X145415000Y-133985000D03*
X139700000Y-137160000D03*
X145415000Y-146685000D03*
X139700000Y-133985000D03*
X145415000Y-137160000D03*
X139700000Y-146685000D03*
X139700000Y-143510000D03*
X145415000Y-140335000D03*
X139700000Y-140335000D03*
X151130000Y-146685000D03*
X151130000Y-133985000D03*
X151130000Y-143510000D03*
X151130000Y-140335000D03*
X156845000Y-143510000D03*
X156845000Y-146685000D03*
X156845000Y-137160000D03*
X156845000Y-133985000D03*
X156845000Y-140335000D03*
X151130000Y-137160000D03*
X162560000Y-149860000D03*
X156845000Y-149860000D03*
D12*
X135890000Y-121285000D03*
X138430000Y-121285000D03*
X140970000Y-121285000D03*
X143510000Y-121285000D03*
X146050000Y-121285000D03*
X151130000Y-121285000D03*
X135890000Y-113665000D03*
X138430000Y-113665000D03*
X140970000Y-113665000D03*
X143510000Y-113665000D03*
X146050000Y-113665000D03*
X151130000Y-113665000D03*
D11*
X127436000Y-43670000D03*
X127436000Y-41130000D03*
X124896000Y-41130000D03*
X124896000Y-43670000D03*
X170942000Y-43670000D03*
X170942000Y-41130000D03*
X168402000Y-41130000D03*
X168402000Y-43670000D03*
D14*
X159126000Y-71882000D03*
X166746000Y-71882000D03*
D15*
X144126000Y-103710000D03*
D13*
X151746000Y-96090000D03*
X146666000Y-103710000D03*
X149206000Y-96090000D03*
X149206000Y-103710000D03*
X146666000Y-96090000D03*
X151746000Y-103710000D03*
X144126000Y-96090000D03*
X167640000Y-134112000D03*
X167640000Y-143637000D03*
X167640000Y-137287000D03*
D12*
X167640000Y-140462000D03*
D13*
X167640000Y-146812000D03*
D16*
X127436000Y-124400000D03*
D17*
X127436000Y-121860000D03*
X160528000Y-121860000D03*
D16*
X160528000Y-124400000D03*
D12*
X160274000Y-42418000D03*
X155274000Y-42418000D03*
X137436000Y-57912000D03*
D15*
X134936000Y-57912000D03*
X147936000Y-53340000D03*
D12*
X150436000Y-53340000D03*
X137436000Y-48768000D03*
D15*
X134936000Y-48768000D03*
X147936000Y-66548000D03*
D12*
X150436000Y-66548000D03*
D18*
X136398000Y-87122000D03*
D16*
X128778000Y-87122000D03*
X128778000Y-82296000D03*
D18*
X136398000Y-82296000D03*
D14*
X170688000Y-123444000D03*
X170688000Y-131064000D03*
X159126000Y-48768000D03*
X166746000Y-48768000D03*
X166746000Y-67056000D03*
X159126000Y-67056000D03*
X166746000Y-62738000D03*
X159126000Y-62738000D03*
X166746000Y-80772000D03*
X159126000Y-80772000D03*
X125476000Y-117602000D03*
X125476000Y-109982000D03*
X159126000Y-76250000D03*
X166746000Y-76250000D03*
X166746000Y-53340000D03*
X159126000Y-53340000D03*
X159126000Y-57912000D03*
X166746000Y-57912000D03*
D19*
X126746000Y-54356000D03*
D20*
X126746000Y-51816000D03*
X125476000Y-53086000D03*
D21*
X167330363Y-97401843D03*
X158541963Y-97401843D03*
D22*
X160396163Y-104412243D03*
X162936163Y-104412243D03*
X165476163Y-104412243D03*
X135476163Y-104412243D03*
X132936163Y-104412243D03*
X130396163Y-104412243D03*
D21*
X128541963Y-97401843D03*
X137330363Y-97401843D03*
X151968363Y-81789843D03*
X143179963Y-81789843D03*
D22*
X145034163Y-88800243D03*
X147574163Y-88800243D03*
X150114163Y-88800243D03*
M02*
