%TF.GenerationSoftware,KiCad,Pcbnew,(2017-09-01 revision 8d1475135)-makepkg*%
%TF.CreationDate,2017-12-27T16:35:41-08:00*%
%TF.ProjectId,workshop_drum1,776F726B73686F705F6472756D312E6B,rev?*%
%TF.SameCoordinates,Original*%
%TF.FileFunction,Legend,Top*%
%TF.FilePolarity,Positive*%
%FSLAX46Y46*%
G04 Gerber Fmt 4.6, Leading zero omitted, Abs format (unit mm)*
G04 Created by KiCad (PCBNEW (2017-09-01 revision 8d1475135)-makepkg) date 12/27/17 16:35:41*
%MOMM*%
%LPD*%
G01*
G04 APERTURE LIST*
%ADD10C,0.300000*%
%ADD11C,0.150000*%
%ADD12C,0.125000*%
%ADD13C,0.120000*%
%ADD14C,0.100000*%
%ADD15C,0.062500*%
G04 APERTURE END LIST*
D10*
X27286000Y28023428D02*
X27286000Y29523428D01*
X27286000Y28094857D02*
X27143142Y28023428D01*
X26857428Y28023428D01*
X26714571Y28094857D01*
X26643142Y28166285D01*
X26571714Y28309142D01*
X26571714Y28737714D01*
X26643142Y28880571D01*
X26714571Y28952000D01*
X26857428Y29023428D01*
X27143142Y29023428D01*
X27286000Y28952000D01*
X28000285Y28023428D02*
X28000285Y29023428D01*
X28000285Y28737714D02*
X28071714Y28880571D01*
X28143142Y28952000D01*
X28286000Y29023428D01*
X28428857Y29023428D01*
X29571714Y29023428D02*
X29571714Y28023428D01*
X28928857Y29023428D02*
X28928857Y28237714D01*
X29000285Y28094857D01*
X29143142Y28023428D01*
X29357428Y28023428D01*
X29500285Y28094857D01*
X29571714Y28166285D01*
X30286000Y28023428D02*
X30286000Y29023428D01*
X30286000Y28880571D02*
X30357428Y28952000D01*
X30500285Y29023428D01*
X30714571Y29023428D01*
X30857428Y28952000D01*
X30928857Y28809142D01*
X30928857Y28023428D01*
X30928857Y28809142D02*
X31000285Y28952000D01*
X31143142Y29023428D01*
X31357428Y29023428D01*
X31500285Y28952000D01*
X31571714Y28809142D01*
X31571714Y28023428D01*
X32214571Y28094857D02*
X32357428Y28023428D01*
X32643142Y28023428D01*
X32786000Y28094857D01*
X32857428Y28237714D01*
X32857428Y28309142D01*
X32786000Y28452000D01*
X32643142Y28523428D01*
X32428857Y28523428D01*
X32286000Y28594857D01*
X32214571Y28737714D01*
X32214571Y28809142D01*
X32286000Y28952000D01*
X32428857Y29023428D01*
X32643142Y29023428D01*
X32786000Y28952000D01*
X33357428Y29023428D02*
X33714571Y28023428D01*
X34071714Y29023428D02*
X33714571Y28023428D01*
X33571714Y27666285D01*
X33500285Y27594857D01*
X33357428Y27523428D01*
X34643142Y29023428D02*
X34643142Y28023428D01*
X34643142Y28880571D02*
X34714571Y28952000D01*
X34857428Y29023428D01*
X35071714Y29023428D01*
X35214571Y28952000D01*
X35286000Y28809142D01*
X35286000Y28023428D01*
X35786000Y29023428D02*
X36357428Y29023428D01*
X36000285Y29523428D02*
X36000285Y28237714D01*
X36071714Y28094857D01*
X36214571Y28023428D01*
X36357428Y28023428D01*
X36857428Y28023428D02*
X36857428Y29523428D01*
X37500285Y28023428D02*
X37500285Y28809142D01*
X37428857Y28952000D01*
X37286000Y29023428D01*
X37071714Y29023428D01*
X36928857Y28952000D01*
X36857428Y28880571D01*
X39357428Y29023428D02*
X39357428Y27523428D01*
X39357428Y28952000D02*
X39500285Y29023428D01*
X39786000Y29023428D01*
X39928857Y28952000D01*
X40000285Y28880571D01*
X40071714Y28737714D01*
X40071714Y28309142D01*
X40000285Y28166285D01*
X39928857Y28094857D01*
X39786000Y28023428D01*
X39500285Y28023428D01*
X39357428Y28094857D01*
X41500285Y28023428D02*
X40643142Y28023428D01*
X41071714Y28023428D02*
X41071714Y29523428D01*
X40928857Y29309142D01*
X40786000Y29166285D01*
X40643142Y29094857D01*
D11*
X27847142Y3938571D02*
X27990000Y3538571D01*
X28132857Y3938571D01*
X28761428Y3938571D02*
X28904285Y3538571D01*
X29047142Y3938571D01*
X29675714Y3938571D02*
X29818571Y3538571D01*
X29961428Y3938571D01*
X31418571Y4110000D02*
X31361428Y4138571D01*
X31275714Y4138571D01*
X31190000Y4110000D01*
X31132857Y4052857D01*
X31104285Y3995714D01*
X31075714Y3881428D01*
X31075714Y3795714D01*
X31104285Y3681428D01*
X31132857Y3624285D01*
X31190000Y3567142D01*
X31275714Y3538571D01*
X31332857Y3538571D01*
X31418571Y3567142D01*
X31447142Y3595714D01*
X31447142Y3795714D01*
X31332857Y3795714D01*
X32047142Y3538571D02*
X31847142Y3824285D01*
X31704285Y3538571D02*
X31704285Y4138571D01*
X31932857Y4138571D01*
X31990000Y4110000D01*
X32018571Y4081428D01*
X32047142Y4024285D01*
X32047142Y3938571D01*
X32018571Y3881428D01*
X31990000Y3852857D01*
X31932857Y3824285D01*
X31704285Y3824285D01*
X32418571Y4138571D02*
X32532857Y4138571D01*
X32590000Y4110000D01*
X32647142Y4052857D01*
X32675714Y3938571D01*
X32675714Y3738571D01*
X32647142Y3624285D01*
X32590000Y3567142D01*
X32532857Y3538571D01*
X32418571Y3538571D01*
X32361428Y3567142D01*
X32304285Y3624285D01*
X32275714Y3738571D01*
X32275714Y3938571D01*
X32304285Y4052857D01*
X32361428Y4110000D01*
X32418571Y4138571D01*
X32932857Y4138571D02*
X32932857Y3652857D01*
X32961428Y3595714D01*
X32990000Y3567142D01*
X33047142Y3538571D01*
X33161428Y3538571D01*
X33218571Y3567142D01*
X33247142Y3595714D01*
X33275714Y3652857D01*
X33275714Y4138571D01*
X33561428Y3538571D02*
X33561428Y4138571D01*
X33904285Y3538571D01*
X33904285Y4138571D01*
X34190000Y3538571D02*
X34190000Y4138571D01*
X34332857Y4138571D01*
X34418571Y4110000D01*
X34475714Y4052857D01*
X34504285Y3995714D01*
X34532857Y3881428D01*
X34532857Y3795714D01*
X34504285Y3681428D01*
X34475714Y3624285D01*
X34418571Y3567142D01*
X34332857Y3538571D01*
X34190000Y3538571D01*
X35218571Y3567142D02*
X35304285Y3538571D01*
X35447142Y3538571D01*
X35504285Y3567142D01*
X35532857Y3595714D01*
X35561428Y3652857D01*
X35561428Y3710000D01*
X35532857Y3767142D01*
X35504285Y3795714D01*
X35447142Y3824285D01*
X35332857Y3852857D01*
X35275714Y3881428D01*
X35247142Y3910000D01*
X35218571Y3967142D01*
X35218571Y4024285D01*
X35247142Y4081428D01*
X35275714Y4110000D01*
X35332857Y4138571D01*
X35475714Y4138571D01*
X35561428Y4110000D01*
X35732857Y4138571D02*
X36075714Y4138571D01*
X35904285Y3538571D02*
X35904285Y4138571D01*
X36618571Y3538571D02*
X36418571Y3824285D01*
X36275714Y3538571D02*
X36275714Y4138571D01*
X36504285Y4138571D01*
X36561428Y4110000D01*
X36590000Y4081428D01*
X36618571Y4024285D01*
X36618571Y3938571D01*
X36590000Y3881428D01*
X36561428Y3852857D01*
X36504285Y3824285D01*
X36275714Y3824285D01*
X36875714Y3538571D02*
X36875714Y4138571D01*
X37161428Y3538571D02*
X37161428Y4138571D01*
X37390000Y4138571D01*
X37447142Y4110000D01*
X37475714Y4081428D01*
X37504285Y4024285D01*
X37504285Y3938571D01*
X37475714Y3881428D01*
X37447142Y3852857D01*
X37390000Y3824285D01*
X37161428Y3824285D01*
X38618571Y3938571D02*
X38761428Y3538571D01*
X38904285Y3938571D01*
X39532857Y3938571D02*
X39675714Y3538571D01*
X39818571Y3938571D01*
X40447142Y3938571D02*
X40589999Y3538571D01*
X40732857Y3938571D01*
D10*
X10330571Y3410000D02*
X8830571Y3410000D01*
X10259142Y3410000D02*
X10330571Y3267142D01*
X10330571Y2981428D01*
X10259142Y2838571D01*
X10187714Y2767142D01*
X10044857Y2695714D01*
X9616285Y2695714D01*
X9473428Y2767142D01*
X9402000Y2838571D01*
X9330571Y2981428D01*
X9330571Y3267142D01*
X9402000Y3410000D01*
X10330571Y4124285D02*
X9330571Y4124285D01*
X9616285Y4124285D02*
X9473428Y4195714D01*
X9402000Y4267142D01*
X9330571Y4410000D01*
X9330571Y4552857D01*
X9330571Y5695714D02*
X10330571Y5695714D01*
X9330571Y5052857D02*
X10116285Y5052857D01*
X10259142Y5124285D01*
X10330571Y5267142D01*
X10330571Y5481428D01*
X10259142Y5624285D01*
X10187714Y5695714D01*
X10330571Y6410000D02*
X9330571Y6410000D01*
X9473428Y6410000D02*
X9402000Y6481428D01*
X9330571Y6624285D01*
X9330571Y6838571D01*
X9402000Y6981428D01*
X9544857Y7052857D01*
X10330571Y7052857D01*
X9544857Y7052857D02*
X9402000Y7124285D01*
X9330571Y7267142D01*
X9330571Y7481428D01*
X9402000Y7624285D01*
X9544857Y7695714D01*
X10330571Y7695714D01*
X10259142Y8338571D02*
X10330571Y8481428D01*
X10330571Y8767142D01*
X10259142Y8910000D01*
X10116285Y8981428D01*
X10044857Y8981428D01*
X9902000Y8910000D01*
X9830571Y8767142D01*
X9830571Y8552857D01*
X9759142Y8410000D01*
X9616285Y8338571D01*
X9544857Y8338571D01*
X9402000Y8410000D01*
X9330571Y8552857D01*
X9330571Y8767142D01*
X9402000Y8910000D01*
X9330571Y9481428D02*
X10330571Y9838571D01*
X9330571Y10195714D02*
X10330571Y9838571D01*
X10687714Y9695714D01*
X10759142Y9624285D01*
X10830571Y9481428D01*
X9330571Y10767142D02*
X10330571Y10767142D01*
X9473428Y10767142D02*
X9402000Y10838571D01*
X9330571Y10981428D01*
X9330571Y11195714D01*
X9402000Y11338571D01*
X9544857Y11410000D01*
X10330571Y11410000D01*
X9330571Y11910000D02*
X9330571Y12481428D01*
X8830571Y12124285D02*
X10116285Y12124285D01*
X10259142Y12195714D01*
X10330571Y12338571D01*
X10330571Y12481428D01*
X10330571Y12981428D02*
X8830571Y12981428D01*
X10330571Y13624285D02*
X9544857Y13624285D01*
X9402000Y13552857D01*
X9330571Y13410000D01*
X9330571Y13195714D01*
X9402000Y13052857D01*
X9473428Y12981428D01*
X9330571Y15481428D02*
X10830571Y15481428D01*
X9402000Y15481428D02*
X9330571Y15624285D01*
X9330571Y15910000D01*
X9402000Y16052857D01*
X9473428Y16124285D01*
X9616285Y16195714D01*
X10044857Y16195714D01*
X10187714Y16124285D01*
X10259142Y16052857D01*
X10330571Y15910000D01*
X10330571Y15624285D01*
X10259142Y15481428D01*
X10330571Y17624285D02*
X10330571Y16767142D01*
X10330571Y17195714D02*
X8830571Y17195714D01*
X9044857Y17052857D01*
X9187714Y16910000D01*
X9259142Y16767142D01*
D12*
%TO.C,EnvelopeAndVoltageStarve1*%
X50419000Y2577030D02*
X47879000Y2577030D01*
X50419000Y12737030D02*
X50419000Y2577030D01*
X47879000Y12737030D02*
X50419000Y12737030D01*
X47879000Y2577030D02*
X47879000Y12737030D01*
D11*
X49149000Y7467030D02*
X49149000Y7847030D01*
X49149000Y4927030D02*
X49149000Y5307030D01*
X49149000Y10007030D02*
X49149000Y10387030D01*
D13*
%TO.C,C2*%
X16800643Y24236560D02*
G75*
G03X18760000Y24236764I979357J3088440D01*
G01*
X16800643Y24236560D02*
G75*
G02X16800000Y30413236I979357J3088440D01*
G01*
X18759357Y24236560D02*
G75*
G03X18760000Y30413236I-979357J3088440D01*
G01*
X18430000Y30175000D02*
X17130000Y30175000D01*
X17780000Y30775000D02*
X17780000Y29575000D01*
X18248000Y24124000D02*
X17312000Y24124000D01*
X18456000Y24164000D02*
X17104000Y24164000D01*
X18614000Y24204000D02*
X16946000Y24204000D01*
X18746000Y24244000D02*
X16814000Y24244000D01*
X18861000Y24284000D02*
X16699000Y24284000D01*
X18964000Y24324000D02*
X16596000Y24324000D01*
X19058000Y24364000D02*
X16502000Y24364000D01*
X19144000Y24404000D02*
X16416000Y24404000D01*
X19225000Y24444000D02*
X16335000Y24444000D01*
X19300000Y24484000D02*
X16260000Y24484000D01*
X19371000Y24524000D02*
X16189000Y24524000D01*
X19438000Y24564000D02*
X16122000Y24564000D01*
X19501000Y24604000D02*
X16059000Y24604000D01*
X19561000Y24644000D02*
X15999000Y24644000D01*
X19619000Y24684000D02*
X15941000Y24684000D01*
X19674000Y24724000D02*
X15886000Y24724000D01*
X19726000Y24764000D02*
X15834000Y24764000D01*
X19777000Y24804000D02*
X15783000Y24804000D01*
X19825000Y24844000D02*
X15735000Y24844000D01*
X19872000Y24884000D02*
X15688000Y24884000D01*
X19917000Y24924000D02*
X15643000Y24924000D01*
X19960000Y24964000D02*
X15600000Y24964000D01*
X20002000Y25004000D02*
X15558000Y25004000D01*
X20042000Y25044000D02*
X15518000Y25044000D01*
X20081000Y25084000D02*
X15479000Y25084000D01*
X16800000Y25124000D02*
X15441000Y25124000D01*
X20119000Y25124000D02*
X18760000Y25124000D01*
X16800000Y25164000D02*
X15405000Y25164000D01*
X20155000Y25164000D02*
X18760000Y25164000D01*
X16800000Y25204000D02*
X15369000Y25204000D01*
X20191000Y25204000D02*
X18760000Y25204000D01*
X16800000Y25244000D02*
X15335000Y25244000D01*
X20225000Y25244000D02*
X18760000Y25244000D01*
X16800000Y25284000D02*
X15302000Y25284000D01*
X20258000Y25284000D02*
X18760000Y25284000D01*
X16800000Y25324000D02*
X15270000Y25324000D01*
X20290000Y25324000D02*
X18760000Y25324000D01*
X16800000Y25364000D02*
X15240000Y25364000D01*
X20320000Y25364000D02*
X18760000Y25364000D01*
X16800000Y25404000D02*
X15210000Y25404000D01*
X20350000Y25404000D02*
X18760000Y25404000D01*
X16800000Y25444000D02*
X15181000Y25444000D01*
X20379000Y25444000D02*
X18760000Y25444000D01*
X16800000Y25484000D02*
X15153000Y25484000D01*
X20407000Y25484000D02*
X18760000Y25484000D01*
X16800000Y25524000D02*
X15126000Y25524000D01*
X20434000Y25524000D02*
X18760000Y25524000D01*
X16800000Y25564000D02*
X15099000Y25564000D01*
X20461000Y25564000D02*
X18760000Y25564000D01*
X16800000Y25604000D02*
X15074000Y25604000D01*
X20486000Y25604000D02*
X18760000Y25604000D01*
X16800000Y25644000D02*
X15049000Y25644000D01*
X20511000Y25644000D02*
X18760000Y25644000D01*
X16800000Y25684000D02*
X15025000Y25684000D01*
X20535000Y25684000D02*
X18760000Y25684000D01*
X16800000Y25724000D02*
X15002000Y25724000D01*
X20558000Y25724000D02*
X18760000Y25724000D01*
X16800000Y25764000D02*
X14980000Y25764000D01*
X20580000Y25764000D02*
X18760000Y25764000D01*
X16800000Y25804000D02*
X14958000Y25804000D01*
X20602000Y25804000D02*
X18760000Y25804000D01*
X16800000Y25844000D02*
X14937000Y25844000D01*
X20623000Y25844000D02*
X18760000Y25844000D01*
X16800000Y25884000D02*
X14917000Y25884000D01*
X20643000Y25884000D02*
X18760000Y25884000D01*
X16800000Y25924000D02*
X14898000Y25924000D01*
X20662000Y25924000D02*
X18760000Y25924000D01*
X16800000Y25964000D02*
X14879000Y25964000D01*
X20681000Y25964000D02*
X18760000Y25964000D01*
X16800000Y26004000D02*
X14861000Y26004000D01*
X20699000Y26004000D02*
X18760000Y26004000D01*
X16800000Y26044000D02*
X14843000Y26044000D01*
X20717000Y26044000D02*
X18760000Y26044000D01*
X16800000Y26084000D02*
X14826000Y26084000D01*
X20734000Y26084000D02*
X18760000Y26084000D01*
X16800000Y26124000D02*
X14810000Y26124000D01*
X20750000Y26124000D02*
X18760000Y26124000D01*
X16800000Y26164000D02*
X14794000Y26164000D01*
X20766000Y26164000D02*
X18760000Y26164000D01*
X16800000Y26204000D02*
X14779000Y26204000D01*
X20781000Y26204000D02*
X18760000Y26204000D01*
X16800000Y26244000D02*
X14765000Y26244000D01*
X20795000Y26244000D02*
X18760000Y26244000D01*
X16800000Y26284000D02*
X14751000Y26284000D01*
X20809000Y26284000D02*
X18760000Y26284000D01*
X16800000Y26324000D02*
X14738000Y26324000D01*
X20822000Y26324000D02*
X18760000Y26324000D01*
X16800000Y26364000D02*
X14725000Y26364000D01*
X20835000Y26364000D02*
X18760000Y26364000D01*
X16800000Y26404000D02*
X14713000Y26404000D01*
X20847000Y26404000D02*
X18760000Y26404000D01*
X16800000Y26444000D02*
X14701000Y26444000D01*
X20859000Y26444000D02*
X18760000Y26444000D01*
X16800000Y26484000D02*
X14690000Y26484000D01*
X20870000Y26484000D02*
X18760000Y26484000D01*
X16800000Y26524000D02*
X14680000Y26524000D01*
X20880000Y26524000D02*
X18760000Y26524000D01*
X16800000Y26564000D02*
X14670000Y26564000D01*
X20890000Y26564000D02*
X18760000Y26564000D01*
X16800000Y26604000D02*
X14661000Y26604000D01*
X20899000Y26604000D02*
X18760000Y26604000D01*
X16800000Y26645000D02*
X14652000Y26645000D01*
X20908000Y26645000D02*
X18760000Y26645000D01*
X16800000Y26685000D02*
X14643000Y26685000D01*
X20917000Y26685000D02*
X18760000Y26685000D01*
X16800000Y26725000D02*
X14636000Y26725000D01*
X20924000Y26725000D02*
X18760000Y26725000D01*
X16800000Y26765000D02*
X14628000Y26765000D01*
X20932000Y26765000D02*
X18760000Y26765000D01*
X16800000Y26805000D02*
X14622000Y26805000D01*
X20938000Y26805000D02*
X18760000Y26805000D01*
X16800000Y26845000D02*
X14615000Y26845000D01*
X20945000Y26845000D02*
X18760000Y26845000D01*
X16800000Y26885000D02*
X14610000Y26885000D01*
X20950000Y26885000D02*
X18760000Y26885000D01*
X16800000Y26925000D02*
X14604000Y26925000D01*
X20956000Y26925000D02*
X18760000Y26925000D01*
X16800000Y26965000D02*
X14600000Y26965000D01*
X20960000Y26965000D02*
X18760000Y26965000D01*
X16800000Y27005000D02*
X14595000Y27005000D01*
X20965000Y27005000D02*
X18760000Y27005000D01*
X16800000Y27045000D02*
X14592000Y27045000D01*
X20968000Y27045000D02*
X18760000Y27045000D01*
X20972000Y27085000D02*
X14588000Y27085000D01*
X20974000Y27125000D02*
X14586000Y27125000D01*
X20977000Y27165000D02*
X14583000Y27165000D01*
X20978000Y27205000D02*
X14582000Y27205000D01*
X20980000Y27245000D02*
X14580000Y27245000D01*
X20980000Y27285000D02*
X14580000Y27285000D01*
X20980000Y27325000D02*
X14580000Y27325000D01*
D12*
%TO.C,PathToSwitch1*%
X46202600Y5080000D02*
X43662600Y5080000D01*
X46202600Y15240000D02*
X46202600Y5080000D01*
X43662600Y15240000D02*
X46202600Y15240000D01*
X43662600Y5080000D02*
X43662600Y15240000D01*
D11*
X44932600Y9970000D02*
X44932600Y10350000D01*
X44932600Y7430000D02*
X44932600Y7810000D01*
X44932600Y12510000D02*
X44932600Y12890000D01*
%TO.C,IN1*%
X26771600Y7810000D02*
X26771600Y7430000D01*
X26771600Y12890000D02*
X26771600Y12510000D01*
X26771600Y10350000D02*
X26771600Y9970000D01*
D12*
X28041600Y15240000D02*
X28041600Y5080000D01*
X28041600Y5080000D02*
X25501600Y5080000D01*
X25501600Y5080000D02*
X25501600Y15240000D01*
X25501600Y15240000D02*
X28041600Y15240000D01*
%TO.C,IN2*%
X30581600Y15240000D02*
X33121600Y15240000D01*
X30581600Y5080000D02*
X30581600Y15240000D01*
X33121600Y5080000D02*
X30581600Y5080000D01*
X33121600Y15240000D02*
X33121600Y5080000D01*
D11*
X31851600Y10350000D02*
X31851600Y9970000D01*
X31851600Y12890000D02*
X31851600Y12510000D01*
X31851600Y7810000D02*
X31851600Y7430000D01*
%TO.C,IN3*%
X36931600Y7810000D02*
X36931600Y7430000D01*
X36931600Y12890000D02*
X36931600Y12510000D01*
X36931600Y10350000D02*
X36931600Y9970000D01*
D12*
X38201600Y15240000D02*
X38201600Y5080000D01*
X38201600Y5080000D02*
X35661600Y5080000D01*
X35661600Y5080000D02*
X35661600Y15240000D01*
X35661600Y15240000D02*
X38201600Y15240000D01*
%TO.C,OUT1*%
X28041600Y15240000D02*
X30581600Y15240000D01*
X28041600Y5080000D02*
X28041600Y15240000D01*
X30581600Y5080000D02*
X28041600Y5080000D01*
X30581600Y15240000D02*
X30581600Y5080000D01*
D11*
X29311600Y10350000D02*
X29311600Y9970000D01*
X29311600Y12890000D02*
X29311600Y12510000D01*
X29311600Y7810000D02*
X29311600Y7430000D01*
%TO.C,OUT2*%
X34391600Y7810000D02*
X34391600Y7430000D01*
X34391600Y12890000D02*
X34391600Y12510000D01*
X34391600Y10350000D02*
X34391600Y9970000D01*
D12*
X35661600Y15240000D02*
X35661600Y5080000D01*
X35661600Y5080000D02*
X33121600Y5080000D01*
X33121600Y5080000D02*
X33121600Y15240000D01*
X33121600Y15240000D02*
X35661600Y15240000D01*
%TO.C,OUT3*%
X38201600Y15240000D02*
X40741600Y15240000D01*
X38201600Y5080000D02*
X38201600Y15240000D01*
X40741600Y5080000D02*
X38201600Y5080000D01*
X40741600Y15240000D02*
X40741600Y5080000D01*
D11*
X39471600Y10350000D02*
X39471600Y9970000D01*
X39471600Y12890000D02*
X39471600Y12510000D01*
X39471600Y7810000D02*
X39471600Y7430000D01*
D12*
%TO.C,GND1*%
X40741600Y15240000D02*
X43281600Y15240000D01*
X40741600Y5080000D02*
X40741600Y15240000D01*
X43281600Y5080000D02*
X40741600Y5080000D01*
X43281600Y15240000D02*
X43281600Y5080000D01*
D11*
X43111600Y15070000D02*
X40911600Y15070000D01*
X40911600Y15070000D02*
X40911600Y5240000D01*
X40911600Y5240000D02*
X43111600Y5240000D01*
X43111600Y5240000D02*
X43111600Y15070000D01*
X42011600Y10350000D02*
X42011600Y9970000D01*
X42011600Y12890000D02*
X42011600Y12510000D01*
X42011600Y7810000D02*
X42011600Y7430000D01*
D12*
%TO.C,GND2*%
X25501600Y787400D02*
X25501600Y3327400D01*
X43281600Y787400D02*
X25501600Y787400D01*
X43281600Y3327400D02*
X43281600Y787400D01*
X25501600Y3327400D02*
X43281600Y3327400D01*
D11*
X25671600Y3157400D02*
X25671600Y957400D01*
X25671600Y957400D02*
X43121600Y957400D01*
X43121600Y957400D02*
X43121600Y3157400D01*
X43121600Y3157400D02*
X25671600Y3157400D01*
X35471600Y2057400D02*
X35851600Y2057400D01*
X32931600Y2057400D02*
X33311600Y2057400D01*
X30391600Y2057400D02*
X30771600Y2057400D01*
X27851600Y2057400D02*
X28231600Y2057400D01*
X38011600Y2057400D02*
X38391600Y2057400D01*
X40551600Y2057400D02*
X40931600Y2057400D01*
%TO.C,ON/OFF_LED1*%
X60960000Y19050000D02*
X57150000Y19050000D01*
X61595000Y18415000D02*
X60960000Y19050000D01*
X61595000Y14605000D02*
X61595000Y18415000D01*
X60960000Y13970000D02*
X61595000Y14605000D01*
X57150000Y13970000D02*
X60960000Y13970000D01*
X57150000Y19050000D02*
X57150000Y13970000D01*
%TO.C,Trig_LED1*%
X5080000Y13970000D02*
X5080000Y19050000D01*
X5080000Y19050000D02*
X1270000Y19050000D01*
X1270000Y19050000D02*
X635000Y18415000D01*
X635000Y18415000D02*
X635000Y14605000D01*
X635000Y14605000D02*
X1270000Y13970000D01*
X1270000Y13970000D02*
X5080000Y13970000D01*
D13*
%TO.C,C5*%
X50590000Y34948500D02*
X43470000Y34948500D01*
X50590000Y37568500D02*
X43470000Y37568500D01*
X50590000Y34948500D02*
X50590000Y37568500D01*
X43470000Y34948500D02*
X43470000Y37568500D01*
%TO.C,C4*%
X16800643Y2646560D02*
G75*
G03X18760000Y2646764I979357J3088440D01*
G01*
X16800643Y2646560D02*
G75*
G02X16800000Y8823236I979357J3088440D01*
G01*
X18759357Y2646560D02*
G75*
G03X18760000Y8823236I-979357J3088440D01*
G01*
X18430000Y8585000D02*
X17130000Y8585000D01*
X17780000Y9185000D02*
X17780000Y7985000D01*
X18248000Y2534000D02*
X17312000Y2534000D01*
X18456000Y2574000D02*
X17104000Y2574000D01*
X18614000Y2614000D02*
X16946000Y2614000D01*
X18746000Y2654000D02*
X16814000Y2654000D01*
X18861000Y2694000D02*
X16699000Y2694000D01*
X18964000Y2734000D02*
X16596000Y2734000D01*
X19058000Y2774000D02*
X16502000Y2774000D01*
X19144000Y2814000D02*
X16416000Y2814000D01*
X19225000Y2854000D02*
X16335000Y2854000D01*
X19300000Y2894000D02*
X16260000Y2894000D01*
X19371000Y2934000D02*
X16189000Y2934000D01*
X19438000Y2974000D02*
X16122000Y2974000D01*
X19501000Y3014000D02*
X16059000Y3014000D01*
X19561000Y3054000D02*
X15999000Y3054000D01*
X19619000Y3094000D02*
X15941000Y3094000D01*
X19674000Y3134000D02*
X15886000Y3134000D01*
X19726000Y3174000D02*
X15834000Y3174000D01*
X19777000Y3214000D02*
X15783000Y3214000D01*
X19825000Y3254000D02*
X15735000Y3254000D01*
X19872000Y3294000D02*
X15688000Y3294000D01*
X19917000Y3334000D02*
X15643000Y3334000D01*
X19960000Y3374000D02*
X15600000Y3374000D01*
X20002000Y3414000D02*
X15558000Y3414000D01*
X20042000Y3454000D02*
X15518000Y3454000D01*
X20081000Y3494000D02*
X15479000Y3494000D01*
X16800000Y3534000D02*
X15441000Y3534000D01*
X20119000Y3534000D02*
X18760000Y3534000D01*
X16800000Y3574000D02*
X15405000Y3574000D01*
X20155000Y3574000D02*
X18760000Y3574000D01*
X16800000Y3614000D02*
X15369000Y3614000D01*
X20191000Y3614000D02*
X18760000Y3614000D01*
X16800000Y3654000D02*
X15335000Y3654000D01*
X20225000Y3654000D02*
X18760000Y3654000D01*
X16800000Y3694000D02*
X15302000Y3694000D01*
X20258000Y3694000D02*
X18760000Y3694000D01*
X16800000Y3734000D02*
X15270000Y3734000D01*
X20290000Y3734000D02*
X18760000Y3734000D01*
X16800000Y3774000D02*
X15240000Y3774000D01*
X20320000Y3774000D02*
X18760000Y3774000D01*
X16800000Y3814000D02*
X15210000Y3814000D01*
X20350000Y3814000D02*
X18760000Y3814000D01*
X16800000Y3854000D02*
X15181000Y3854000D01*
X20379000Y3854000D02*
X18760000Y3854000D01*
X16800000Y3894000D02*
X15153000Y3894000D01*
X20407000Y3894000D02*
X18760000Y3894000D01*
X16800000Y3934000D02*
X15126000Y3934000D01*
X20434000Y3934000D02*
X18760000Y3934000D01*
X16800000Y3974000D02*
X15099000Y3974000D01*
X20461000Y3974000D02*
X18760000Y3974000D01*
X16800000Y4014000D02*
X15074000Y4014000D01*
X20486000Y4014000D02*
X18760000Y4014000D01*
X16800000Y4054000D02*
X15049000Y4054000D01*
X20511000Y4054000D02*
X18760000Y4054000D01*
X16800000Y4094000D02*
X15025000Y4094000D01*
X20535000Y4094000D02*
X18760000Y4094000D01*
X16800000Y4134000D02*
X15002000Y4134000D01*
X20558000Y4134000D02*
X18760000Y4134000D01*
X16800000Y4174000D02*
X14980000Y4174000D01*
X20580000Y4174000D02*
X18760000Y4174000D01*
X16800000Y4214000D02*
X14958000Y4214000D01*
X20602000Y4214000D02*
X18760000Y4214000D01*
X16800000Y4254000D02*
X14937000Y4254000D01*
X20623000Y4254000D02*
X18760000Y4254000D01*
X16800000Y4294000D02*
X14917000Y4294000D01*
X20643000Y4294000D02*
X18760000Y4294000D01*
X16800000Y4334000D02*
X14898000Y4334000D01*
X20662000Y4334000D02*
X18760000Y4334000D01*
X16800000Y4374000D02*
X14879000Y4374000D01*
X20681000Y4374000D02*
X18760000Y4374000D01*
X16800000Y4414000D02*
X14861000Y4414000D01*
X20699000Y4414000D02*
X18760000Y4414000D01*
X16800000Y4454000D02*
X14843000Y4454000D01*
X20717000Y4454000D02*
X18760000Y4454000D01*
X16800000Y4494000D02*
X14826000Y4494000D01*
X20734000Y4494000D02*
X18760000Y4494000D01*
X16800000Y4534000D02*
X14810000Y4534000D01*
X20750000Y4534000D02*
X18760000Y4534000D01*
X16800000Y4574000D02*
X14794000Y4574000D01*
X20766000Y4574000D02*
X18760000Y4574000D01*
X16800000Y4614000D02*
X14779000Y4614000D01*
X20781000Y4614000D02*
X18760000Y4614000D01*
X16800000Y4654000D02*
X14765000Y4654000D01*
X20795000Y4654000D02*
X18760000Y4654000D01*
X16800000Y4694000D02*
X14751000Y4694000D01*
X20809000Y4694000D02*
X18760000Y4694000D01*
X16800000Y4734000D02*
X14738000Y4734000D01*
X20822000Y4734000D02*
X18760000Y4734000D01*
X16800000Y4774000D02*
X14725000Y4774000D01*
X20835000Y4774000D02*
X18760000Y4774000D01*
X16800000Y4814000D02*
X14713000Y4814000D01*
X20847000Y4814000D02*
X18760000Y4814000D01*
X16800000Y4854000D02*
X14701000Y4854000D01*
X20859000Y4854000D02*
X18760000Y4854000D01*
X16800000Y4894000D02*
X14690000Y4894000D01*
X20870000Y4894000D02*
X18760000Y4894000D01*
X16800000Y4934000D02*
X14680000Y4934000D01*
X20880000Y4934000D02*
X18760000Y4934000D01*
X16800000Y4974000D02*
X14670000Y4974000D01*
X20890000Y4974000D02*
X18760000Y4974000D01*
X16800000Y5014000D02*
X14661000Y5014000D01*
X20899000Y5014000D02*
X18760000Y5014000D01*
X16800000Y5055000D02*
X14652000Y5055000D01*
X20908000Y5055000D02*
X18760000Y5055000D01*
X16800000Y5095000D02*
X14643000Y5095000D01*
X20917000Y5095000D02*
X18760000Y5095000D01*
X16800000Y5135000D02*
X14636000Y5135000D01*
X20924000Y5135000D02*
X18760000Y5135000D01*
X16800000Y5175000D02*
X14628000Y5175000D01*
X20932000Y5175000D02*
X18760000Y5175000D01*
X16800000Y5215000D02*
X14622000Y5215000D01*
X20938000Y5215000D02*
X18760000Y5215000D01*
X16800000Y5255000D02*
X14615000Y5255000D01*
X20945000Y5255000D02*
X18760000Y5255000D01*
X16800000Y5295000D02*
X14610000Y5295000D01*
X20950000Y5295000D02*
X18760000Y5295000D01*
X16800000Y5335000D02*
X14604000Y5335000D01*
X20956000Y5335000D02*
X18760000Y5335000D01*
X16800000Y5375000D02*
X14600000Y5375000D01*
X20960000Y5375000D02*
X18760000Y5375000D01*
X16800000Y5415000D02*
X14595000Y5415000D01*
X20965000Y5415000D02*
X18760000Y5415000D01*
X16800000Y5455000D02*
X14592000Y5455000D01*
X20968000Y5455000D02*
X18760000Y5455000D01*
X20972000Y5495000D02*
X14588000Y5495000D01*
X20974000Y5535000D02*
X14586000Y5535000D01*
X20977000Y5575000D02*
X14583000Y5575000D01*
X20978000Y5615000D02*
X14582000Y5615000D01*
X20980000Y5655000D02*
X14580000Y5655000D01*
X20980000Y5695000D02*
X14580000Y5695000D01*
X20980000Y5735000D02*
X14580000Y5735000D01*
%TO.C,C1*%
X60985000Y28595000D02*
X54585000Y28595000D01*
X60985000Y28555000D02*
X54585000Y28555000D01*
X60985000Y28515000D02*
X54585000Y28515000D01*
X60983000Y28475000D02*
X54587000Y28475000D01*
X60982000Y28435000D02*
X54588000Y28435000D01*
X60979000Y28395000D02*
X54591000Y28395000D01*
X60977000Y28355000D02*
X54593000Y28355000D01*
X60973000Y28315000D02*
X58765000Y28315000D01*
X56805000Y28315000D02*
X54597000Y28315000D01*
X60970000Y28275000D02*
X58765000Y28275000D01*
X56805000Y28275000D02*
X54600000Y28275000D01*
X60965000Y28235000D02*
X58765000Y28235000D01*
X56805000Y28235000D02*
X54605000Y28235000D01*
X60961000Y28195000D02*
X58765000Y28195000D01*
X56805000Y28195000D02*
X54609000Y28195000D01*
X60955000Y28155000D02*
X58765000Y28155000D01*
X56805000Y28155000D02*
X54615000Y28155000D01*
X60950000Y28115000D02*
X58765000Y28115000D01*
X56805000Y28115000D02*
X54620000Y28115000D01*
X60943000Y28075000D02*
X58765000Y28075000D01*
X56805000Y28075000D02*
X54627000Y28075000D01*
X60937000Y28035000D02*
X58765000Y28035000D01*
X56805000Y28035000D02*
X54633000Y28035000D01*
X60929000Y27995000D02*
X58765000Y27995000D01*
X56805000Y27995000D02*
X54641000Y27995000D01*
X60922000Y27955000D02*
X58765000Y27955000D01*
X56805000Y27955000D02*
X54648000Y27955000D01*
X60913000Y27915000D02*
X58765000Y27915000D01*
X56805000Y27915000D02*
X54657000Y27915000D01*
X60904000Y27874000D02*
X58765000Y27874000D01*
X56805000Y27874000D02*
X54666000Y27874000D01*
X60895000Y27834000D02*
X58765000Y27834000D01*
X56805000Y27834000D02*
X54675000Y27834000D01*
X60885000Y27794000D02*
X58765000Y27794000D01*
X56805000Y27794000D02*
X54685000Y27794000D01*
X60875000Y27754000D02*
X58765000Y27754000D01*
X56805000Y27754000D02*
X54695000Y27754000D01*
X60864000Y27714000D02*
X58765000Y27714000D01*
X56805000Y27714000D02*
X54706000Y27714000D01*
X60852000Y27674000D02*
X58765000Y27674000D01*
X56805000Y27674000D02*
X54718000Y27674000D01*
X60840000Y27634000D02*
X58765000Y27634000D01*
X56805000Y27634000D02*
X54730000Y27634000D01*
X60827000Y27594000D02*
X58765000Y27594000D01*
X56805000Y27594000D02*
X54743000Y27594000D01*
X60814000Y27554000D02*
X58765000Y27554000D01*
X56805000Y27554000D02*
X54756000Y27554000D01*
X60800000Y27514000D02*
X58765000Y27514000D01*
X56805000Y27514000D02*
X54770000Y27514000D01*
X60786000Y27474000D02*
X58765000Y27474000D01*
X56805000Y27474000D02*
X54784000Y27474000D01*
X60771000Y27434000D02*
X58765000Y27434000D01*
X56805000Y27434000D02*
X54799000Y27434000D01*
X60755000Y27394000D02*
X58765000Y27394000D01*
X56805000Y27394000D02*
X54815000Y27394000D01*
X60739000Y27354000D02*
X58765000Y27354000D01*
X56805000Y27354000D02*
X54831000Y27354000D01*
X60722000Y27314000D02*
X58765000Y27314000D01*
X56805000Y27314000D02*
X54848000Y27314000D01*
X60704000Y27274000D02*
X58765000Y27274000D01*
X56805000Y27274000D02*
X54866000Y27274000D01*
X60686000Y27234000D02*
X58765000Y27234000D01*
X56805000Y27234000D02*
X54884000Y27234000D01*
X60667000Y27194000D02*
X58765000Y27194000D01*
X56805000Y27194000D02*
X54903000Y27194000D01*
X60648000Y27154000D02*
X58765000Y27154000D01*
X56805000Y27154000D02*
X54922000Y27154000D01*
X60628000Y27114000D02*
X58765000Y27114000D01*
X56805000Y27114000D02*
X54942000Y27114000D01*
X60607000Y27074000D02*
X58765000Y27074000D01*
X56805000Y27074000D02*
X54963000Y27074000D01*
X60585000Y27034000D02*
X58765000Y27034000D01*
X56805000Y27034000D02*
X54985000Y27034000D01*
X60563000Y26994000D02*
X58765000Y26994000D01*
X56805000Y26994000D02*
X55007000Y26994000D01*
X60540000Y26954000D02*
X58765000Y26954000D01*
X56805000Y26954000D02*
X55030000Y26954000D01*
X60516000Y26914000D02*
X58765000Y26914000D01*
X56805000Y26914000D02*
X55054000Y26914000D01*
X60491000Y26874000D02*
X58765000Y26874000D01*
X56805000Y26874000D02*
X55079000Y26874000D01*
X60466000Y26834000D02*
X58765000Y26834000D01*
X56805000Y26834000D02*
X55104000Y26834000D01*
X60439000Y26794000D02*
X58765000Y26794000D01*
X56805000Y26794000D02*
X55131000Y26794000D01*
X60412000Y26754000D02*
X58765000Y26754000D01*
X56805000Y26754000D02*
X55158000Y26754000D01*
X60384000Y26714000D02*
X58765000Y26714000D01*
X56805000Y26714000D02*
X55186000Y26714000D01*
X60355000Y26674000D02*
X58765000Y26674000D01*
X56805000Y26674000D02*
X55215000Y26674000D01*
X60325000Y26634000D02*
X58765000Y26634000D01*
X56805000Y26634000D02*
X55245000Y26634000D01*
X60295000Y26594000D02*
X58765000Y26594000D01*
X56805000Y26594000D02*
X55275000Y26594000D01*
X60263000Y26554000D02*
X58765000Y26554000D01*
X56805000Y26554000D02*
X55307000Y26554000D01*
X60230000Y26514000D02*
X58765000Y26514000D01*
X56805000Y26514000D02*
X55340000Y26514000D01*
X60196000Y26474000D02*
X58765000Y26474000D01*
X56805000Y26474000D02*
X55374000Y26474000D01*
X60160000Y26434000D02*
X58765000Y26434000D01*
X56805000Y26434000D02*
X55410000Y26434000D01*
X60124000Y26394000D02*
X58765000Y26394000D01*
X56805000Y26394000D02*
X55446000Y26394000D01*
X60086000Y26354000D02*
X55484000Y26354000D01*
X60047000Y26314000D02*
X55523000Y26314000D01*
X60007000Y26274000D02*
X55563000Y26274000D01*
X59965000Y26234000D02*
X55605000Y26234000D01*
X59922000Y26194000D02*
X55648000Y26194000D01*
X59877000Y26154000D02*
X55693000Y26154000D01*
X59830000Y26114000D02*
X55740000Y26114000D01*
X59782000Y26074000D02*
X55788000Y26074000D01*
X59731000Y26034000D02*
X55839000Y26034000D01*
X59679000Y25994000D02*
X55891000Y25994000D01*
X59624000Y25954000D02*
X55946000Y25954000D01*
X59566000Y25914000D02*
X56004000Y25914000D01*
X59506000Y25874000D02*
X56064000Y25874000D01*
X59443000Y25834000D02*
X56127000Y25834000D01*
X59376000Y25794000D02*
X56194000Y25794000D01*
X59305000Y25754000D02*
X56265000Y25754000D01*
X59230000Y25714000D02*
X56340000Y25714000D01*
X59149000Y25674000D02*
X56421000Y25674000D01*
X59063000Y25634000D02*
X56507000Y25634000D01*
X58969000Y25594000D02*
X56601000Y25594000D01*
X58866000Y25554000D02*
X56704000Y25554000D01*
X58751000Y25514000D02*
X56819000Y25514000D01*
X58619000Y25474000D02*
X56951000Y25474000D01*
X58461000Y25434000D02*
X57109000Y25434000D01*
X58253000Y25394000D02*
X57317000Y25394000D01*
X57785000Y32045000D02*
X57785000Y30845000D01*
X58435000Y31445000D02*
X57135000Y31445000D01*
X58764357Y25506560D02*
G75*
G03X58765000Y31683236I-979357J3088440D01*
G01*
X56805643Y25506560D02*
G75*
G02X56805000Y31683236I979357J3088440D01*
G01*
X56805643Y25506560D02*
G75*
G03X58765000Y25506764I979357J3088440D01*
G01*
%TO.C,C3*%
X51460000Y28595000D02*
X45060000Y28595000D01*
X51460000Y28555000D02*
X45060000Y28555000D01*
X51460000Y28515000D02*
X45060000Y28515000D01*
X51458000Y28475000D02*
X45062000Y28475000D01*
X51457000Y28435000D02*
X45063000Y28435000D01*
X51454000Y28395000D02*
X45066000Y28395000D01*
X51452000Y28355000D02*
X45068000Y28355000D01*
X51448000Y28315000D02*
X49240000Y28315000D01*
X47280000Y28315000D02*
X45072000Y28315000D01*
X51445000Y28275000D02*
X49240000Y28275000D01*
X47280000Y28275000D02*
X45075000Y28275000D01*
X51440000Y28235000D02*
X49240000Y28235000D01*
X47280000Y28235000D02*
X45080000Y28235000D01*
X51436000Y28195000D02*
X49240000Y28195000D01*
X47280000Y28195000D02*
X45084000Y28195000D01*
X51430000Y28155000D02*
X49240000Y28155000D01*
X47280000Y28155000D02*
X45090000Y28155000D01*
X51425000Y28115000D02*
X49240000Y28115000D01*
X47280000Y28115000D02*
X45095000Y28115000D01*
X51418000Y28075000D02*
X49240000Y28075000D01*
X47280000Y28075000D02*
X45102000Y28075000D01*
X51412000Y28035000D02*
X49240000Y28035000D01*
X47280000Y28035000D02*
X45108000Y28035000D01*
X51404000Y27995000D02*
X49240000Y27995000D01*
X47280000Y27995000D02*
X45116000Y27995000D01*
X51397000Y27955000D02*
X49240000Y27955000D01*
X47280000Y27955000D02*
X45123000Y27955000D01*
X51388000Y27915000D02*
X49240000Y27915000D01*
X47280000Y27915000D02*
X45132000Y27915000D01*
X51379000Y27874000D02*
X49240000Y27874000D01*
X47280000Y27874000D02*
X45141000Y27874000D01*
X51370000Y27834000D02*
X49240000Y27834000D01*
X47280000Y27834000D02*
X45150000Y27834000D01*
X51360000Y27794000D02*
X49240000Y27794000D01*
X47280000Y27794000D02*
X45160000Y27794000D01*
X51350000Y27754000D02*
X49240000Y27754000D01*
X47280000Y27754000D02*
X45170000Y27754000D01*
X51339000Y27714000D02*
X49240000Y27714000D01*
X47280000Y27714000D02*
X45181000Y27714000D01*
X51327000Y27674000D02*
X49240000Y27674000D01*
X47280000Y27674000D02*
X45193000Y27674000D01*
X51315000Y27634000D02*
X49240000Y27634000D01*
X47280000Y27634000D02*
X45205000Y27634000D01*
X51302000Y27594000D02*
X49240000Y27594000D01*
X47280000Y27594000D02*
X45218000Y27594000D01*
X51289000Y27554000D02*
X49240000Y27554000D01*
X47280000Y27554000D02*
X45231000Y27554000D01*
X51275000Y27514000D02*
X49240000Y27514000D01*
X47280000Y27514000D02*
X45245000Y27514000D01*
X51261000Y27474000D02*
X49240000Y27474000D01*
X47280000Y27474000D02*
X45259000Y27474000D01*
X51246000Y27434000D02*
X49240000Y27434000D01*
X47280000Y27434000D02*
X45274000Y27434000D01*
X51230000Y27394000D02*
X49240000Y27394000D01*
X47280000Y27394000D02*
X45290000Y27394000D01*
X51214000Y27354000D02*
X49240000Y27354000D01*
X47280000Y27354000D02*
X45306000Y27354000D01*
X51197000Y27314000D02*
X49240000Y27314000D01*
X47280000Y27314000D02*
X45323000Y27314000D01*
X51179000Y27274000D02*
X49240000Y27274000D01*
X47280000Y27274000D02*
X45341000Y27274000D01*
X51161000Y27234000D02*
X49240000Y27234000D01*
X47280000Y27234000D02*
X45359000Y27234000D01*
X51142000Y27194000D02*
X49240000Y27194000D01*
X47280000Y27194000D02*
X45378000Y27194000D01*
X51123000Y27154000D02*
X49240000Y27154000D01*
X47280000Y27154000D02*
X45397000Y27154000D01*
X51103000Y27114000D02*
X49240000Y27114000D01*
X47280000Y27114000D02*
X45417000Y27114000D01*
X51082000Y27074000D02*
X49240000Y27074000D01*
X47280000Y27074000D02*
X45438000Y27074000D01*
X51060000Y27034000D02*
X49240000Y27034000D01*
X47280000Y27034000D02*
X45460000Y27034000D01*
X51038000Y26994000D02*
X49240000Y26994000D01*
X47280000Y26994000D02*
X45482000Y26994000D01*
X51015000Y26954000D02*
X49240000Y26954000D01*
X47280000Y26954000D02*
X45505000Y26954000D01*
X50991000Y26914000D02*
X49240000Y26914000D01*
X47280000Y26914000D02*
X45529000Y26914000D01*
X50966000Y26874000D02*
X49240000Y26874000D01*
X47280000Y26874000D02*
X45554000Y26874000D01*
X50941000Y26834000D02*
X49240000Y26834000D01*
X47280000Y26834000D02*
X45579000Y26834000D01*
X50914000Y26794000D02*
X49240000Y26794000D01*
X47280000Y26794000D02*
X45606000Y26794000D01*
X50887000Y26754000D02*
X49240000Y26754000D01*
X47280000Y26754000D02*
X45633000Y26754000D01*
X50859000Y26714000D02*
X49240000Y26714000D01*
X47280000Y26714000D02*
X45661000Y26714000D01*
X50830000Y26674000D02*
X49240000Y26674000D01*
X47280000Y26674000D02*
X45690000Y26674000D01*
X50800000Y26634000D02*
X49240000Y26634000D01*
X47280000Y26634000D02*
X45720000Y26634000D01*
X50770000Y26594000D02*
X49240000Y26594000D01*
X47280000Y26594000D02*
X45750000Y26594000D01*
X50738000Y26554000D02*
X49240000Y26554000D01*
X47280000Y26554000D02*
X45782000Y26554000D01*
X50705000Y26514000D02*
X49240000Y26514000D01*
X47280000Y26514000D02*
X45815000Y26514000D01*
X50671000Y26474000D02*
X49240000Y26474000D01*
X47280000Y26474000D02*
X45849000Y26474000D01*
X50635000Y26434000D02*
X49240000Y26434000D01*
X47280000Y26434000D02*
X45885000Y26434000D01*
X50599000Y26394000D02*
X49240000Y26394000D01*
X47280000Y26394000D02*
X45921000Y26394000D01*
X50561000Y26354000D02*
X45959000Y26354000D01*
X50522000Y26314000D02*
X45998000Y26314000D01*
X50482000Y26274000D02*
X46038000Y26274000D01*
X50440000Y26234000D02*
X46080000Y26234000D01*
X50397000Y26194000D02*
X46123000Y26194000D01*
X50352000Y26154000D02*
X46168000Y26154000D01*
X50305000Y26114000D02*
X46215000Y26114000D01*
X50257000Y26074000D02*
X46263000Y26074000D01*
X50206000Y26034000D02*
X46314000Y26034000D01*
X50154000Y25994000D02*
X46366000Y25994000D01*
X50099000Y25954000D02*
X46421000Y25954000D01*
X50041000Y25914000D02*
X46479000Y25914000D01*
X49981000Y25874000D02*
X46539000Y25874000D01*
X49918000Y25834000D02*
X46602000Y25834000D01*
X49851000Y25794000D02*
X46669000Y25794000D01*
X49780000Y25754000D02*
X46740000Y25754000D01*
X49705000Y25714000D02*
X46815000Y25714000D01*
X49624000Y25674000D02*
X46896000Y25674000D01*
X49538000Y25634000D02*
X46982000Y25634000D01*
X49444000Y25594000D02*
X47076000Y25594000D01*
X49341000Y25554000D02*
X47179000Y25554000D01*
X49226000Y25514000D02*
X47294000Y25514000D01*
X49094000Y25474000D02*
X47426000Y25474000D01*
X48936000Y25434000D02*
X47584000Y25434000D01*
X48728000Y25394000D02*
X47792000Y25394000D01*
X48260000Y32045000D02*
X48260000Y30845000D01*
X48910000Y31445000D02*
X47610000Y31445000D01*
X49239357Y25506560D02*
G75*
G03X49240000Y31683236I-979357J3088440D01*
G01*
X47280643Y25506560D02*
G75*
G02X47280000Y31683236I979357J3088440D01*
G01*
X47280643Y25506560D02*
G75*
G03X49240000Y25506764I979357J3088440D01*
G01*
%TO.C,D2*%
X19600000Y34150000D02*
X19600000Y36970000D01*
X15050000Y35560000D02*
X15120000Y35560000D01*
X20510000Y35560000D02*
X20440000Y35560000D01*
X15120000Y34150000D02*
X20440000Y34150000D01*
X15120000Y36970000D02*
X15120000Y34150000D01*
X20440000Y36970000D02*
X15120000Y36970000D01*
X20440000Y34150000D02*
X20440000Y36970000D01*
%TO.C,D1*%
X53855000Y23635000D02*
X53855000Y20815000D01*
X53855000Y20815000D02*
X59175000Y20815000D01*
X59175000Y20815000D02*
X59175000Y23635000D01*
X59175000Y23635000D02*
X53855000Y23635000D01*
X53785000Y22225000D02*
X53855000Y22225000D01*
X59245000Y22225000D02*
X59175000Y22225000D01*
X54695000Y23635000D02*
X54695000Y20815000D01*
D11*
%TO.C,R8*%
X9017000Y26162000D02*
X8509000Y25654000D01*
X2413000Y27686000D02*
X2413000Y26670000D01*
X9017000Y27686000D02*
X2413000Y27686000D01*
X9017000Y25654000D02*
X9017000Y27686000D01*
X2413000Y25654000D02*
X9017000Y25654000D01*
X2413000Y26670000D02*
X2413000Y25654000D01*
X1905000Y26670000D02*
X2413000Y26670000D01*
X9525000Y26670000D02*
X9017000Y26670000D01*
%TO.C,R7*%
X51879500Y36258500D02*
X52387500Y36258500D01*
X59499500Y36258500D02*
X58991500Y36258500D01*
X58991500Y36258500D02*
X58991500Y37274500D01*
X58991500Y37274500D02*
X52387500Y37274500D01*
X52387500Y37274500D02*
X52387500Y35242500D01*
X52387500Y35242500D02*
X58991500Y35242500D01*
X58991500Y35242500D02*
X58991500Y36258500D01*
X52387500Y36766500D02*
X52895500Y37274500D01*
%TO.C,R6*%
X25273000Y31623000D02*
X25781000Y32131000D01*
X31877000Y30099000D02*
X31877000Y31115000D01*
X25273000Y30099000D02*
X31877000Y30099000D01*
X25273000Y32131000D02*
X25273000Y30099000D01*
X31877000Y32131000D02*
X25273000Y32131000D01*
X31877000Y31115000D02*
X31877000Y32131000D01*
X32385000Y31115000D02*
X31877000Y31115000D01*
X24765000Y31115000D02*
X25273000Y31115000D01*
%TO.C,R5*%
X32385000Y35560000D02*
X31877000Y35560000D01*
X24765000Y35560000D02*
X25273000Y35560000D01*
X25273000Y35560000D02*
X25273000Y34544000D01*
X25273000Y34544000D02*
X31877000Y34544000D01*
X31877000Y34544000D02*
X31877000Y36576000D01*
X31877000Y36576000D02*
X25273000Y36576000D01*
X25273000Y36576000D02*
X25273000Y35560000D01*
X31877000Y35052000D02*
X31369000Y34544000D01*
%TO.C,R4*%
X9017000Y35052000D02*
X8509000Y34544000D01*
X2413000Y36576000D02*
X2413000Y35560000D01*
X9017000Y36576000D02*
X2413000Y36576000D01*
X9017000Y34544000D02*
X9017000Y36576000D01*
X2413000Y34544000D02*
X9017000Y34544000D01*
X2413000Y35560000D02*
X2413000Y34544000D01*
X1905000Y35560000D02*
X2413000Y35560000D01*
X9525000Y35560000D02*
X9017000Y35560000D01*
%TO.C,R3*%
X53975000Y10160000D02*
X53975000Y9652000D01*
X53975000Y2540000D02*
X53975000Y3048000D01*
X53975000Y3048000D02*
X54991000Y3048000D01*
X54991000Y3048000D02*
X54991000Y9652000D01*
X54991000Y9652000D02*
X52959000Y9652000D01*
X52959000Y9652000D02*
X52959000Y3048000D01*
X52959000Y3048000D02*
X53975000Y3048000D01*
X54483000Y9652000D02*
X54991000Y9144000D01*
%TO.C,R2*%
X2413000Y31623000D02*
X2921000Y32131000D01*
X9017000Y30099000D02*
X9017000Y31115000D01*
X2413000Y30099000D02*
X9017000Y30099000D01*
X2413000Y32131000D02*
X2413000Y30099000D01*
X9017000Y32131000D02*
X2413000Y32131000D01*
X9017000Y31115000D02*
X9017000Y32131000D01*
X9525000Y31115000D02*
X9017000Y31115000D01*
X1905000Y31115000D02*
X2413000Y31115000D01*
%TO.C,R1*%
X9525000Y22225000D02*
X9017000Y22225000D01*
X1905000Y22225000D02*
X2413000Y22225000D01*
X2413000Y22225000D02*
X2413000Y21209000D01*
X2413000Y21209000D02*
X9017000Y21209000D01*
X9017000Y21209000D02*
X9017000Y23241000D01*
X9017000Y23241000D02*
X2413000Y23241000D01*
X2413000Y23241000D02*
X2413000Y22225000D01*
X9017000Y21717000D02*
X8509000Y21209000D01*
D13*
%TO.C,U3*%
X48961522Y14671522D02*
G75*
G03X53400000Y16510000I1838478J1838478D01*
G01*
X48961522Y18348478D02*
G75*
G02X53400000Y16510000I1838478J-1838478D01*
G01*
X48950000Y18310000D02*
X48950000Y14710000D01*
D11*
%TO.C,J1*%
X57150000Y6350000D02*
X57150000Y1270000D01*
X57150000Y1270000D02*
X60960000Y1270000D01*
X60960000Y1270000D02*
X61595000Y1905000D01*
X61595000Y1905000D02*
X61595000Y5715000D01*
X61595000Y5715000D02*
X60960000Y6350000D01*
X60960000Y6350000D02*
X57150000Y6350000D01*
%TO.C,J2*%
X1206500Y43180000D02*
X1206500Y39370000D01*
X1841500Y43815000D02*
X1206500Y43180000D01*
X5651500Y43815000D02*
X1841500Y43815000D01*
X6286500Y43180000D02*
X5651500Y43815000D01*
X6286500Y39370000D02*
X6286500Y43180000D01*
X1206500Y39370000D02*
X6286500Y39370000D01*
%TO.C,J3*%
X55880000Y39370000D02*
X60960000Y39370000D01*
X60960000Y39370000D02*
X60960000Y43180000D01*
X60960000Y43180000D02*
X60325000Y43815000D01*
X60325000Y43815000D02*
X56515000Y43815000D01*
X56515000Y43815000D02*
X55880000Y43180000D01*
X55880000Y43180000D02*
X55880000Y39370000D01*
%TO.C,DECAY1*%
X21590000Y43180000D02*
X21590000Y39370000D01*
X22225000Y43815000D02*
X21590000Y43180000D01*
X26035000Y43815000D02*
X22225000Y43815000D01*
X29210000Y43180000D02*
X28575000Y43815000D01*
X29210000Y39370000D02*
X29210000Y43180000D01*
X21590000Y39370000D02*
X26670000Y39370000D01*
X24130000Y39370000D02*
X29210000Y39370000D01*
X28575000Y43815000D02*
X24765000Y43815000D01*
%TO.C,PITCH1*%
X39941500Y43815000D02*
X36131500Y43815000D01*
X35496500Y39370000D02*
X40576500Y39370000D01*
X32956500Y39370000D02*
X38036500Y39370000D01*
X40576500Y39370000D02*
X40576500Y43180000D01*
X40576500Y43180000D02*
X39941500Y43815000D01*
X37401500Y43815000D02*
X33591500Y43815000D01*
X33591500Y43815000D02*
X32956500Y43180000D01*
X32956500Y43180000D02*
X32956500Y39370000D01*
%TO.C,SENSE/STARVE1*%
X10160000Y43180000D02*
X10160000Y39370000D01*
X10795000Y43815000D02*
X10160000Y43180000D01*
X14605000Y43815000D02*
X10795000Y43815000D01*
X17780000Y43180000D02*
X17145000Y43815000D01*
X17780000Y39370000D02*
X17780000Y43180000D01*
X10160000Y39370000D02*
X15240000Y39370000D01*
X12700000Y39370000D02*
X17780000Y39370000D01*
X17145000Y43815000D02*
X13335000Y43815000D01*
%TO.C,Osc_Select1*%
X44386500Y43180000D02*
X44386500Y39370000D01*
X45021500Y43815000D02*
X44386500Y43180000D01*
X48831500Y43815000D02*
X45021500Y43815000D01*
X52006500Y43180000D02*
X51371500Y43815000D01*
X52006500Y39370000D02*
X52006500Y43180000D01*
X44386500Y39370000D02*
X49466500Y39370000D01*
X46926500Y39370000D02*
X52006500Y39370000D01*
X51371500Y43815000D02*
X47561500Y43815000D01*
%TO.C,Button_ON1*%
X5080000Y1270000D02*
X5080000Y6350000D01*
X5080000Y6350000D02*
X1270000Y6350000D01*
X1270000Y6350000D02*
X635000Y5715000D01*
X635000Y5715000D02*
X635000Y1905000D01*
X635000Y1905000D02*
X1270000Y1270000D01*
X1270000Y1270000D02*
X5080000Y1270000D01*
%TO.C,PWR2*%
X60960000Y12700000D02*
X57150000Y12700000D01*
X61595000Y12065000D02*
X60960000Y12700000D01*
X61595000Y8255000D02*
X61595000Y12065000D01*
X60960000Y7620000D02*
X61595000Y8255000D01*
X57150000Y7620000D02*
X60960000Y7620000D01*
X57150000Y12700000D02*
X57150000Y7620000D01*
%TO.C,Switch_On1*%
X5080000Y7620000D02*
X5080000Y12700000D01*
X5080000Y12700000D02*
X1270000Y12700000D01*
X1270000Y12700000D02*
X635000Y12065000D01*
X635000Y12065000D02*
X635000Y8255000D01*
X635000Y8255000D02*
X1270000Y7620000D01*
X1270000Y7620000D02*
X5080000Y7620000D01*
D13*
%TO.C,U2*%
X25381600Y22844000D02*
G75*
G02X25381600Y20844000I0J-1000000D01*
G01*
X25381600Y24614000D02*
X25381600Y22844000D01*
X43401600Y24614000D02*
X25381600Y24614000D01*
X43401600Y19074000D02*
X43401600Y24614000D01*
X25381600Y19074000D02*
X43401600Y19074000D01*
X25381600Y20844000D02*
X25381600Y19074000D01*
%TO.C,U1*%
X16780000Y21710000D02*
X15010000Y21710000D01*
X15010000Y21710000D02*
X15010000Y11310000D01*
X15010000Y11310000D02*
X20550000Y11310000D01*
X20550000Y11310000D02*
X20550000Y21710000D01*
X20550000Y21710000D02*
X18780000Y21710000D01*
X18780000Y21710000D02*
G75*
G02X16780000Y21710000I-1000000J0D01*
G01*
%TO.C,EnvelopeAndVoltageStarve1*%
D11*
X51235428Y1671315D02*
X51235428Y1871315D01*
X51767619Y1957029D02*
X51767619Y1671315D01*
X50751619Y1671315D01*
X50751619Y1957029D01*
X51090285Y2214172D02*
X51767619Y2214172D01*
X51187047Y2214172D02*
X51138666Y2242744D01*
X51090285Y2299887D01*
X51090285Y2385601D01*
X51138666Y2442744D01*
X51235428Y2471315D01*
X51767619Y2471315D01*
X51090285Y2699887D02*
X51767619Y2842744D01*
X51090285Y2985601D01*
X51719238Y3442744D02*
X51767619Y3385601D01*
X51767619Y3271315D01*
X51719238Y3214172D01*
X51622476Y3185601D01*
X51235428Y3185601D01*
X51138666Y3214172D01*
X51090285Y3271315D01*
X51090285Y3385601D01*
X51138666Y3442744D01*
X51235428Y3471315D01*
X51332190Y3471315D01*
X51428952Y3185601D01*
X51767619Y3814172D02*
X51719238Y3757029D01*
X51622476Y3728458D01*
X50751619Y3728458D01*
X51767619Y4128458D02*
X51719238Y4071315D01*
X51670857Y4042744D01*
X51574095Y4014172D01*
X51283809Y4014172D01*
X51187047Y4042744D01*
X51138666Y4071315D01*
X51090285Y4128458D01*
X51090285Y4214172D01*
X51138666Y4271315D01*
X51187047Y4299887D01*
X51283809Y4328458D01*
X51574095Y4328458D01*
X51670857Y4299887D01*
X51719238Y4271315D01*
X51767619Y4214172D01*
X51767619Y4128458D01*
X51090285Y4585601D02*
X52106285Y4585601D01*
X51138666Y4585601D02*
X51090285Y4642744D01*
X51090285Y4757029D01*
X51138666Y4814172D01*
X51187047Y4842744D01*
X51283809Y4871315D01*
X51574095Y4871315D01*
X51670857Y4842744D01*
X51719238Y4814172D01*
X51767619Y4757029D01*
X51767619Y4642744D01*
X51719238Y4585601D01*
X51719238Y5357029D02*
X51767619Y5299887D01*
X51767619Y5185601D01*
X51719238Y5128458D01*
X51622476Y5099887D01*
X51235428Y5099887D01*
X51138666Y5128458D01*
X51090285Y5185601D01*
X51090285Y5299887D01*
X51138666Y5357029D01*
X51235428Y5385601D01*
X51332190Y5385601D01*
X51428952Y5099887D01*
X51477333Y5614172D02*
X51477333Y5899887D01*
X51767619Y5557029D02*
X50751619Y5757029D01*
X51767619Y5957029D01*
X51090285Y6157029D02*
X51767619Y6157029D01*
X51187047Y6157029D02*
X51138666Y6185601D01*
X51090285Y6242744D01*
X51090285Y6328458D01*
X51138666Y6385601D01*
X51235428Y6414172D01*
X51767619Y6414172D01*
X51767619Y6957029D02*
X50751619Y6957029D01*
X51719238Y6957029D02*
X51767619Y6899887D01*
X51767619Y6785601D01*
X51719238Y6728458D01*
X51670857Y6699887D01*
X51574095Y6671315D01*
X51283809Y6671315D01*
X51187047Y6699887D01*
X51138666Y6728458D01*
X51090285Y6785601D01*
X51090285Y6899887D01*
X51138666Y6957029D01*
X50751619Y7157029D02*
X51767619Y7357029D01*
X50751619Y7557029D01*
X51767619Y7842744D02*
X51719238Y7785601D01*
X51670857Y7757029D01*
X51574095Y7728458D01*
X51283809Y7728458D01*
X51187047Y7757029D01*
X51138666Y7785601D01*
X51090285Y7842744D01*
X51090285Y7928458D01*
X51138666Y7985601D01*
X51187047Y8014172D01*
X51283809Y8042744D01*
X51574095Y8042744D01*
X51670857Y8014172D01*
X51719238Y7985601D01*
X51767619Y7928458D01*
X51767619Y7842744D01*
X51767619Y8385601D02*
X51719238Y8328458D01*
X51622476Y8299887D01*
X50751619Y8299887D01*
X51090285Y8528458D02*
X51090285Y8757029D01*
X50751619Y8614172D02*
X51622476Y8614172D01*
X51719238Y8642744D01*
X51767619Y8699887D01*
X51767619Y8757029D01*
X51767619Y9214172D02*
X51235428Y9214172D01*
X51138666Y9185601D01*
X51090285Y9128458D01*
X51090285Y9014172D01*
X51138666Y8957029D01*
X51719238Y9214172D02*
X51767619Y9157029D01*
X51767619Y9014172D01*
X51719238Y8957029D01*
X51622476Y8928458D01*
X51525714Y8928458D01*
X51428952Y8957029D01*
X51380571Y9014172D01*
X51380571Y9157029D01*
X51332190Y9214172D01*
X51090285Y9757029D02*
X51912761Y9757029D01*
X52009523Y9728458D01*
X52057904Y9699887D01*
X52106285Y9642744D01*
X52106285Y9557029D01*
X52057904Y9499887D01*
X51719238Y9757029D02*
X51767619Y9699887D01*
X51767619Y9585601D01*
X51719238Y9528458D01*
X51670857Y9499887D01*
X51574095Y9471315D01*
X51283809Y9471315D01*
X51187047Y9499887D01*
X51138666Y9528458D01*
X51090285Y9585601D01*
X51090285Y9699887D01*
X51138666Y9757029D01*
X51719238Y10271315D02*
X51767619Y10214172D01*
X51767619Y10099887D01*
X51719238Y10042744D01*
X51622476Y10014172D01*
X51235428Y10014172D01*
X51138666Y10042744D01*
X51090285Y10099887D01*
X51090285Y10214172D01*
X51138666Y10271315D01*
X51235428Y10299887D01*
X51332190Y10299887D01*
X51428952Y10014172D01*
X51719238Y10528458D02*
X51767619Y10614172D01*
X51767619Y10757030D01*
X51719238Y10814172D01*
X51670857Y10842744D01*
X51574095Y10871315D01*
X51477333Y10871315D01*
X51380571Y10842744D01*
X51332190Y10814172D01*
X51283809Y10757030D01*
X51235428Y10642744D01*
X51187047Y10585601D01*
X51138666Y10557030D01*
X51041904Y10528458D01*
X50945142Y10528458D01*
X50848380Y10557030D01*
X50800000Y10585601D01*
X50751619Y10642744D01*
X50751619Y10785601D01*
X50800000Y10871315D01*
X51090285Y11042744D02*
X51090285Y11271315D01*
X50751619Y11128458D02*
X51622476Y11128458D01*
X51719238Y11157029D01*
X51767619Y11214172D01*
X51767619Y11271315D01*
X51767619Y11728458D02*
X51235428Y11728458D01*
X51138666Y11699887D01*
X51090285Y11642744D01*
X51090285Y11528458D01*
X51138666Y11471315D01*
X51719238Y11728458D02*
X51767619Y11671315D01*
X51767619Y11528458D01*
X51719238Y11471315D01*
X51622476Y11442744D01*
X51525714Y11442744D01*
X51428952Y11471315D01*
X51380571Y11528458D01*
X51380571Y11671315D01*
X51332190Y11728458D01*
X51767619Y12014172D02*
X51090285Y12014172D01*
X51283809Y12014172D02*
X51187047Y12042744D01*
X51138666Y12071315D01*
X51090285Y12128458D01*
X51090285Y12185601D01*
X51090285Y12328458D02*
X51767619Y12471315D01*
X51090285Y12614172D01*
X51719238Y13071315D02*
X51767619Y13014172D01*
X51767619Y12899887D01*
X51719238Y12842744D01*
X51622476Y12814172D01*
X51235428Y12814172D01*
X51138666Y12842744D01*
X51090285Y12899887D01*
X51090285Y13014172D01*
X51138666Y13071315D01*
X51235428Y13099887D01*
X51332190Y13099887D01*
X51428952Y12814172D01*
X51767619Y13671315D02*
X51767619Y13328458D01*
X51767619Y13499887D02*
X50751619Y13499887D01*
X50896761Y13442744D01*
X50993523Y13385601D01*
X51041904Y13328458D01*
%TO.C,C2*%
D14*
X20203333Y31500000D02*
X20170000Y31466666D01*
X20070000Y31433333D01*
X20003333Y31433333D01*
X19903333Y31466666D01*
X19836666Y31533333D01*
X19803333Y31600000D01*
X19770000Y31733333D01*
X19770000Y31833333D01*
X19803333Y31966666D01*
X19836666Y32033333D01*
X19903333Y32100000D01*
X20003333Y32133333D01*
X20070000Y32133333D01*
X20170000Y32100000D01*
X20203333Y32066666D01*
X20470000Y32066666D02*
X20503333Y32100000D01*
X20570000Y32133333D01*
X20736666Y32133333D01*
X20803333Y32100000D01*
X20836666Y32066666D01*
X20870000Y32000000D01*
X20870000Y31933333D01*
X20836666Y31833333D01*
X20436666Y31433333D01*
X20870000Y31433333D01*
X14823333Y31433333D02*
X14423333Y31433333D01*
X14623333Y31433333D02*
X14623333Y32133333D01*
X14556666Y32033333D01*
X14490000Y31966666D01*
X14423333Y31933333D01*
X15423333Y31900000D02*
X15423333Y31433333D01*
X15123333Y31900000D02*
X15123333Y31533333D01*
X15156666Y31466666D01*
X15223333Y31433333D01*
X15323333Y31433333D01*
X15390000Y31466666D01*
X15423333Y31500000D01*
X15990000Y31800000D02*
X15756666Y31800000D01*
X15756666Y31433333D02*
X15756666Y32133333D01*
X16090000Y32133333D01*
%TO.C,PathToSwitch1*%
D11*
X47551219Y7060000D02*
X46535219Y7060000D01*
X46535219Y7288571D01*
X46583600Y7345714D01*
X46631980Y7374285D01*
X46728742Y7402857D01*
X46873885Y7402857D01*
X46970647Y7374285D01*
X47019028Y7345714D01*
X47067409Y7288571D01*
X47067409Y7060000D01*
X47551219Y7917142D02*
X47019028Y7917142D01*
X46922266Y7888571D01*
X46873885Y7831428D01*
X46873885Y7717142D01*
X46922266Y7660000D01*
X47502838Y7917142D02*
X47551219Y7860000D01*
X47551219Y7717142D01*
X47502838Y7660000D01*
X47406076Y7631428D01*
X47309314Y7631428D01*
X47212552Y7660000D01*
X47164171Y7717142D01*
X47164171Y7860000D01*
X47115790Y7917142D01*
X46873885Y8117142D02*
X46873885Y8345714D01*
X46535219Y8202857D02*
X47406076Y8202857D01*
X47502838Y8231428D01*
X47551219Y8288571D01*
X47551219Y8345714D01*
X47551219Y8545714D02*
X46535219Y8545714D01*
X47551219Y8802857D02*
X47019028Y8802857D01*
X46922266Y8774285D01*
X46873885Y8717142D01*
X46873885Y8631428D01*
X46922266Y8574285D01*
X46970647Y8545714D01*
X46535219Y9002857D02*
X46535219Y9345714D01*
X47551219Y9174285D02*
X46535219Y9174285D01*
X47551219Y9631428D02*
X47502838Y9574285D01*
X47454457Y9545714D01*
X47357695Y9517142D01*
X47067409Y9517142D01*
X46970647Y9545714D01*
X46922266Y9574285D01*
X46873885Y9631428D01*
X46873885Y9717142D01*
X46922266Y9774285D01*
X46970647Y9802857D01*
X47067409Y9831428D01*
X47357695Y9831428D01*
X47454457Y9802857D01*
X47502838Y9774285D01*
X47551219Y9717142D01*
X47551219Y9631428D01*
X47502838Y10060000D02*
X47551219Y10145714D01*
X47551219Y10288571D01*
X47502838Y10345714D01*
X47454457Y10374285D01*
X47357695Y10402857D01*
X47260933Y10402857D01*
X47164171Y10374285D01*
X47115790Y10345714D01*
X47067409Y10288571D01*
X47019028Y10174285D01*
X46970647Y10117142D01*
X46922266Y10088571D01*
X46825504Y10060000D01*
X46728742Y10060000D01*
X46631980Y10088571D01*
X46583600Y10117142D01*
X46535219Y10174285D01*
X46535219Y10317142D01*
X46583600Y10402857D01*
X46873885Y10602857D02*
X47551219Y10717142D01*
X47067409Y10831428D01*
X47551219Y10945714D01*
X46873885Y11060000D01*
X47551219Y11288571D02*
X46873885Y11288571D01*
X46535219Y11288571D02*
X46583600Y11260000D01*
X46631980Y11288571D01*
X46583600Y11317142D01*
X46535219Y11288571D01*
X46631980Y11288571D01*
X46873885Y11488571D02*
X46873885Y11717142D01*
X46535219Y11574285D02*
X47406076Y11574285D01*
X47502838Y11602857D01*
X47551219Y11660000D01*
X47551219Y11717142D01*
X47502838Y12174285D02*
X47551219Y12117142D01*
X47551219Y12002857D01*
X47502838Y11945714D01*
X47454457Y11917142D01*
X47357695Y11888571D01*
X47067409Y11888571D01*
X46970647Y11917142D01*
X46922266Y11945714D01*
X46873885Y12002857D01*
X46873885Y12117142D01*
X46922266Y12174285D01*
X47551219Y12431428D02*
X46535219Y12431428D01*
X47551219Y12688571D02*
X47019028Y12688571D01*
X46922266Y12660000D01*
X46873885Y12602857D01*
X46873885Y12517142D01*
X46922266Y12460000D01*
X46970647Y12431428D01*
X47551219Y13288571D02*
X47551219Y12945714D01*
X47551219Y13117142D02*
X46535219Y13117142D01*
X46680361Y13060000D01*
X46777123Y13002857D01*
X46825504Y12945714D01*
%TO.C,IN1*%
X26171600Y15450380D02*
X26171600Y16466380D01*
X26457314Y15450380D02*
X26457314Y16466380D01*
X26800171Y15450380D01*
X26800171Y16466380D01*
X27400171Y15450380D02*
X27057314Y15450380D01*
X27228742Y15450380D02*
X27228742Y16466380D01*
X27171600Y16321238D01*
X27114457Y16224476D01*
X27057314Y16176095D01*
%TO.C,IN2*%
X31251600Y15450380D02*
X31251600Y16466380D01*
X31537314Y15450380D02*
X31537314Y16466380D01*
X31880171Y15450380D01*
X31880171Y16466380D01*
X32137314Y16369619D02*
X32165885Y16418000D01*
X32223028Y16466380D01*
X32365885Y16466380D01*
X32423028Y16418000D01*
X32451600Y16369619D01*
X32480171Y16272857D01*
X32480171Y16176095D01*
X32451600Y16030952D01*
X32108742Y15450380D01*
X32480171Y15450380D01*
%TO.C,IN3*%
X36268100Y15450380D02*
X36268100Y16466380D01*
X36553814Y15450380D02*
X36553814Y16466380D01*
X36896671Y15450380D01*
X36896671Y16466380D01*
X37125242Y16466380D02*
X37496671Y16466380D01*
X37296671Y16079333D01*
X37382385Y16079333D01*
X37439528Y16030952D01*
X37468100Y15982571D01*
X37496671Y15885809D01*
X37496671Y15643904D01*
X37468100Y15547142D01*
X37439528Y15498761D01*
X37382385Y15450380D01*
X37210957Y15450380D01*
X37153814Y15498761D01*
X37125242Y15547142D01*
%TO.C,OUT1*%
X28425885Y16466380D02*
X28540171Y16466380D01*
X28597314Y16418000D01*
X28654457Y16321238D01*
X28683028Y16127714D01*
X28683028Y15789047D01*
X28654457Y15595523D01*
X28597314Y15498761D01*
X28540171Y15450380D01*
X28425885Y15450380D01*
X28368742Y15498761D01*
X28311600Y15595523D01*
X28283028Y15789047D01*
X28283028Y16127714D01*
X28311600Y16321238D01*
X28368742Y16418000D01*
X28425885Y16466380D01*
X28940171Y16466380D02*
X28940171Y15643904D01*
X28968742Y15547142D01*
X28997314Y15498761D01*
X29054457Y15450380D01*
X29168742Y15450380D01*
X29225885Y15498761D01*
X29254457Y15547142D01*
X29283028Y15643904D01*
X29283028Y16466380D01*
X29483028Y16466380D02*
X29825885Y16466380D01*
X29654457Y15450380D02*
X29654457Y16466380D01*
X30340171Y15450380D02*
X29997314Y15450380D01*
X30168742Y15450380D02*
X30168742Y16466380D01*
X30111600Y16321238D01*
X30054457Y16224476D01*
X29997314Y16176095D01*
%TO.C,OUT2*%
X33505885Y16466380D02*
X33620171Y16466380D01*
X33677314Y16418000D01*
X33734457Y16321238D01*
X33763028Y16127714D01*
X33763028Y15789047D01*
X33734457Y15595523D01*
X33677314Y15498761D01*
X33620171Y15450380D01*
X33505885Y15450380D01*
X33448742Y15498761D01*
X33391600Y15595523D01*
X33363028Y15789047D01*
X33363028Y16127714D01*
X33391600Y16321238D01*
X33448742Y16418000D01*
X33505885Y16466380D01*
X34020171Y16466380D02*
X34020171Y15643904D01*
X34048742Y15547142D01*
X34077314Y15498761D01*
X34134457Y15450380D01*
X34248742Y15450380D01*
X34305885Y15498761D01*
X34334457Y15547142D01*
X34363028Y15643904D01*
X34363028Y16466380D01*
X34563028Y16466380D02*
X34905885Y16466380D01*
X34734457Y15450380D02*
X34734457Y16466380D01*
X35077314Y16369619D02*
X35105885Y16418000D01*
X35163028Y16466380D01*
X35305885Y16466380D01*
X35363028Y16418000D01*
X35391600Y16369619D01*
X35420171Y16272857D01*
X35420171Y16176095D01*
X35391600Y16030952D01*
X35048742Y15450380D01*
X35420171Y15450380D01*
%TO.C,OUT3*%
X38585885Y16466380D02*
X38700171Y16466380D01*
X38757314Y16418000D01*
X38814457Y16321238D01*
X38843028Y16127714D01*
X38843028Y15789047D01*
X38814457Y15595523D01*
X38757314Y15498761D01*
X38700171Y15450380D01*
X38585885Y15450380D01*
X38528742Y15498761D01*
X38471600Y15595523D01*
X38443028Y15789047D01*
X38443028Y16127714D01*
X38471600Y16321238D01*
X38528742Y16418000D01*
X38585885Y16466380D01*
X39100171Y16466380D02*
X39100171Y15643904D01*
X39128742Y15547142D01*
X39157314Y15498761D01*
X39214457Y15450380D01*
X39328742Y15450380D01*
X39385885Y15498761D01*
X39414457Y15547142D01*
X39443028Y15643904D01*
X39443028Y16466380D01*
X39643028Y16466380D02*
X39985885Y16466380D01*
X39814457Y15450380D02*
X39814457Y16466380D01*
X40128742Y16466380D02*
X40500171Y16466380D01*
X40300171Y16079333D01*
X40385885Y16079333D01*
X40443028Y16030952D01*
X40471600Y15982571D01*
X40500171Y15885809D01*
X40500171Y15643904D01*
X40471600Y15547142D01*
X40443028Y15498761D01*
X40385885Y15450380D01*
X40214457Y15450380D01*
X40157314Y15498761D01*
X40128742Y15547142D01*
%TO.C,GND1*%
X41268742Y16418000D02*
X41211600Y16466380D01*
X41125885Y16466380D01*
X41040171Y16418000D01*
X40983028Y16321238D01*
X40954457Y16224476D01*
X40925885Y16030952D01*
X40925885Y15885809D01*
X40954457Y15692285D01*
X40983028Y15595523D01*
X41040171Y15498761D01*
X41125885Y15450380D01*
X41183028Y15450380D01*
X41268742Y15498761D01*
X41297314Y15547142D01*
X41297314Y15885809D01*
X41183028Y15885809D01*
X41554457Y15450380D02*
X41554457Y16466380D01*
X41897314Y15450380D01*
X41897314Y16466380D01*
X42183028Y15450380D02*
X42183028Y16466380D01*
X42325885Y16466380D01*
X42411600Y16418000D01*
X42468742Y16321238D01*
X42497314Y16224476D01*
X42525885Y16030952D01*
X42525885Y15885809D01*
X42497314Y15692285D01*
X42468742Y15595523D01*
X42411600Y15498761D01*
X42325885Y15450380D01*
X42183028Y15450380D01*
X43097314Y15450380D02*
X42754457Y15450380D01*
X42925885Y15450380D02*
X42925885Y16466380D01*
X42868742Y16321238D01*
X42811600Y16224476D01*
X42754457Y16176095D01*
%TO.C,GND2*%
X24104600Y1314542D02*
X24056219Y1257400D01*
X24056219Y1171685D01*
X24104600Y1085971D01*
X24201361Y1028828D01*
X24298123Y1000257D01*
X24491647Y971685D01*
X24636790Y971685D01*
X24830314Y1000257D01*
X24927076Y1028828D01*
X25023838Y1085971D01*
X25072219Y1171685D01*
X25072219Y1228828D01*
X25023838Y1314542D01*
X24975457Y1343114D01*
X24636790Y1343114D01*
X24636790Y1228828D01*
X25072219Y1600257D02*
X24056219Y1600257D01*
X25072219Y1943114D01*
X24056219Y1943114D01*
X25072219Y2228828D02*
X24056219Y2228828D01*
X24056219Y2371685D01*
X24104600Y2457400D01*
X24201361Y2514542D01*
X24298123Y2543114D01*
X24491647Y2571685D01*
X24636790Y2571685D01*
X24830314Y2543114D01*
X24927076Y2514542D01*
X25023838Y2457400D01*
X25072219Y2371685D01*
X25072219Y2228828D01*
X24152980Y2800257D02*
X24104600Y2828828D01*
X24056219Y2885971D01*
X24056219Y3028828D01*
X24104600Y3085971D01*
X24152980Y3114542D01*
X24249742Y3143114D01*
X24346504Y3143114D01*
X24491647Y3114542D01*
X25072219Y2771685D01*
X25072219Y3143114D01*
%TO.C,ON/OFF_LED1*%
X55471428Y13677142D02*
X55471428Y13791428D01*
X55500000Y13848571D01*
X55557142Y13905714D01*
X55671428Y13934285D01*
X55871428Y13934285D01*
X55985714Y13905714D01*
X56042857Y13848571D01*
X56071428Y13791428D01*
X56071428Y13677142D01*
X56042857Y13620000D01*
X55985714Y13562857D01*
X55871428Y13534285D01*
X55671428Y13534285D01*
X55557142Y13562857D01*
X55500000Y13620000D01*
X55471428Y13677142D01*
X56071428Y14191428D02*
X55471428Y14191428D01*
X56071428Y14534285D01*
X55471428Y14534285D01*
X55442857Y15248571D02*
X56214285Y14734285D01*
X55471428Y15562857D02*
X55471428Y15677142D01*
X55500000Y15734285D01*
X55557142Y15791428D01*
X55671428Y15820000D01*
X55871428Y15820000D01*
X55985714Y15791428D01*
X56042857Y15734285D01*
X56071428Y15677142D01*
X56071428Y15562857D01*
X56042857Y15505714D01*
X55985714Y15448571D01*
X55871428Y15420000D01*
X55671428Y15420000D01*
X55557142Y15448571D01*
X55500000Y15505714D01*
X55471428Y15562857D01*
X55757142Y16277142D02*
X55757142Y16077142D01*
X56071428Y16077142D02*
X55471428Y16077142D01*
X55471428Y16362857D01*
X55757142Y16791428D02*
X55757142Y16591428D01*
X56071428Y16591428D02*
X55471428Y16591428D01*
X55471428Y16877142D01*
X56128571Y16962857D02*
X56128571Y17420000D01*
X56071428Y17848571D02*
X56071428Y17562857D01*
X55471428Y17562857D01*
X55757142Y18048571D02*
X55757142Y18248571D01*
X56071428Y18334285D02*
X56071428Y18048571D01*
X55471428Y18048571D01*
X55471428Y18334285D01*
X56071428Y18591428D02*
X55471428Y18591428D01*
X55471428Y18734285D01*
X55500000Y18820000D01*
X55557142Y18877142D01*
X55614285Y18905714D01*
X55728571Y18934285D01*
X55814285Y18934285D01*
X55928571Y18905714D01*
X55985714Y18877142D01*
X56042857Y18820000D01*
X56071428Y18734285D01*
X56071428Y18591428D01*
X56071428Y19505714D02*
X56071428Y19162857D01*
X56071428Y19334285D02*
X55471428Y19334285D01*
X55557142Y19277142D01*
X55614285Y19220000D01*
X55642857Y19162857D01*
D12*
X57809047Y19458809D02*
X57570952Y19458809D01*
X57570952Y19958809D01*
X57975714Y19720714D02*
X58142380Y19720714D01*
X58213809Y19458809D02*
X57975714Y19458809D01*
X57975714Y19958809D01*
X58213809Y19958809D01*
X58428095Y19458809D02*
X58428095Y19958809D01*
X58547142Y19958809D01*
X58618571Y19935000D01*
X58666190Y19887380D01*
X58690000Y19839761D01*
X58713809Y19744523D01*
X58713809Y19673095D01*
X58690000Y19577857D01*
X58666190Y19530238D01*
X58618571Y19482619D01*
X58547142Y19458809D01*
X58428095Y19458809D01*
X58928095Y19649285D02*
X59309047Y19649285D01*
X59832857Y19506428D02*
X59809047Y19482619D01*
X59737619Y19458809D01*
X59690000Y19458809D01*
X59618571Y19482619D01*
X59570952Y19530238D01*
X59547142Y19577857D01*
X59523333Y19673095D01*
X59523333Y19744523D01*
X59547142Y19839761D01*
X59570952Y19887380D01*
X59618571Y19935000D01*
X59690000Y19958809D01*
X59737619Y19958809D01*
X59809047Y19935000D01*
X59832857Y19911190D01*
X60309047Y19458809D02*
X60023333Y19458809D01*
X60166190Y19458809D02*
X60166190Y19958809D01*
X60118571Y19887380D01*
X60070952Y19839761D01*
X60023333Y19815952D01*
X60523333Y19649285D02*
X60904285Y19649285D01*
X61118571Y19601666D02*
X61356666Y19601666D01*
X61070952Y19458809D02*
X61237619Y19958809D01*
X61404285Y19458809D01*
X61547142Y19911190D02*
X61570952Y19935000D01*
X61618571Y19958809D01*
X61737619Y19958809D01*
X61785238Y19935000D01*
X61809047Y19911190D01*
X61832857Y19863571D01*
X61832857Y19815952D01*
X61809047Y19744523D01*
X61523333Y19458809D01*
X61832857Y19458809D01*
D15*
X56941190Y14726428D02*
X56953095Y14762142D01*
X56953095Y14821666D01*
X56941190Y14845476D01*
X56929285Y14857380D01*
X56905476Y14869285D01*
X56881666Y14869285D01*
X56857857Y14857380D01*
X56845952Y14845476D01*
X56834047Y14821666D01*
X56822142Y14774047D01*
X56810238Y14750238D01*
X56798333Y14738333D01*
X56774523Y14726428D01*
X56750714Y14726428D01*
X56726904Y14738333D01*
X56715000Y14750238D01*
X56703095Y14774047D01*
X56703095Y14833571D01*
X56715000Y14869285D01*
X56953095Y14976428D02*
X56703095Y14976428D01*
X56822142Y14976428D02*
X56822142Y15119285D01*
X56953095Y15119285D02*
X56703095Y15119285D01*
X56703095Y15285952D02*
X56703095Y15333571D01*
X56715000Y15357380D01*
X56738809Y15381190D01*
X56786428Y15393095D01*
X56869761Y15393095D01*
X56917380Y15381190D01*
X56941190Y15357380D01*
X56953095Y15333571D01*
X56953095Y15285952D01*
X56941190Y15262142D01*
X56917380Y15238333D01*
X56869761Y15226428D01*
X56786428Y15226428D01*
X56738809Y15238333D01*
X56715000Y15262142D01*
X56703095Y15285952D01*
X56953095Y15643095D02*
X56834047Y15559761D01*
X56953095Y15500238D02*
X56703095Y15500238D01*
X56703095Y15595476D01*
X56715000Y15619285D01*
X56726904Y15631190D01*
X56750714Y15643095D01*
X56786428Y15643095D01*
X56810238Y15631190D01*
X56822142Y15619285D01*
X56834047Y15595476D01*
X56834047Y15500238D01*
X56703095Y15714523D02*
X56703095Y15857380D01*
X56953095Y15785952D02*
X56703095Y15785952D01*
X56933095Y17540476D02*
X56933095Y17421428D01*
X56683095Y17421428D01*
X56683095Y17671428D02*
X56683095Y17719047D01*
X56695000Y17742857D01*
X56718809Y17766666D01*
X56766428Y17778571D01*
X56849761Y17778571D01*
X56897380Y17766666D01*
X56921190Y17742857D01*
X56933095Y17719047D01*
X56933095Y17671428D01*
X56921190Y17647619D01*
X56897380Y17623809D01*
X56849761Y17611904D01*
X56766428Y17611904D01*
X56718809Y17623809D01*
X56695000Y17647619D01*
X56683095Y17671428D01*
X56933095Y17885714D02*
X56683095Y17885714D01*
X56933095Y18028571D01*
X56683095Y18028571D01*
X56695000Y18278571D02*
X56683095Y18254761D01*
X56683095Y18219047D01*
X56695000Y18183333D01*
X56718809Y18159523D01*
X56742619Y18147619D01*
X56790238Y18135714D01*
X56825952Y18135714D01*
X56873571Y18147619D01*
X56897380Y18159523D01*
X56921190Y18183333D01*
X56933095Y18219047D01*
X56933095Y18242857D01*
X56921190Y18278571D01*
X56909285Y18290476D01*
X56825952Y18290476D01*
X56825952Y18242857D01*
D12*
X57630214Y14160523D02*
X57630214Y14541476D01*
X57630214Y18478523D02*
X57630214Y18859476D01*
X57820690Y18669000D02*
X57439738Y18669000D01*
%TO.C,Trig_LED1*%
D11*
X6021428Y14410000D02*
X6021428Y14752857D01*
X6621428Y14581428D02*
X6021428Y14581428D01*
X6621428Y14952857D02*
X6221428Y14952857D01*
X6335714Y14952857D02*
X6278571Y14981428D01*
X6250000Y15010000D01*
X6221428Y15067142D01*
X6221428Y15124285D01*
X6621428Y15324285D02*
X6221428Y15324285D01*
X6021428Y15324285D02*
X6050000Y15295714D01*
X6078571Y15324285D01*
X6050000Y15352857D01*
X6021428Y15324285D01*
X6078571Y15324285D01*
X6221428Y15867142D02*
X6707142Y15867142D01*
X6764285Y15838571D01*
X6792857Y15810000D01*
X6821428Y15752857D01*
X6821428Y15667142D01*
X6792857Y15610000D01*
X6592857Y15867142D02*
X6621428Y15810000D01*
X6621428Y15695714D01*
X6592857Y15638571D01*
X6564285Y15610000D01*
X6507142Y15581428D01*
X6335714Y15581428D01*
X6278571Y15610000D01*
X6250000Y15638571D01*
X6221428Y15695714D01*
X6221428Y15810000D01*
X6250000Y15867142D01*
X6678571Y16010000D02*
X6678571Y16467142D01*
X6621428Y16895714D02*
X6621428Y16610000D01*
X6021428Y16610000D01*
X6307142Y17095714D02*
X6307142Y17295714D01*
X6621428Y17381428D02*
X6621428Y17095714D01*
X6021428Y17095714D01*
X6021428Y17381428D01*
X6621428Y17638571D02*
X6021428Y17638571D01*
X6021428Y17781428D01*
X6050000Y17867142D01*
X6107142Y17924285D01*
X6164285Y17952857D01*
X6278571Y17981428D01*
X6364285Y17981428D01*
X6478571Y17952857D01*
X6535714Y17924285D01*
X6592857Y17867142D01*
X6621428Y17781428D01*
X6621428Y17638571D01*
X6621428Y18552857D02*
X6621428Y18210000D01*
X6621428Y18381428D02*
X6021428Y18381428D01*
X6107142Y18324285D01*
X6164285Y18267142D01*
X6192857Y18210000D01*
D12*
X659047Y19458809D02*
X420952Y19458809D01*
X420952Y19958809D01*
X825714Y19720714D02*
X992380Y19720714D01*
X1063809Y19458809D02*
X825714Y19458809D01*
X825714Y19958809D01*
X1063809Y19958809D01*
X1278095Y19458809D02*
X1278095Y19958809D01*
X1397142Y19958809D01*
X1468571Y19935000D01*
X1516190Y19887380D01*
X1539999Y19839761D01*
X1563809Y19744523D01*
X1563809Y19673095D01*
X1539999Y19577857D01*
X1516190Y19530238D01*
X1468571Y19482619D01*
X1397142Y19458809D01*
X1278095Y19458809D01*
X1778095Y19649285D02*
X2159047Y19649285D01*
X2682857Y19506428D02*
X2659047Y19482619D01*
X2587619Y19458809D01*
X2539999Y19458809D01*
X2468571Y19482619D01*
X2420952Y19530238D01*
X2397142Y19577857D01*
X2373333Y19673095D01*
X2373333Y19744523D01*
X2397142Y19839761D01*
X2420952Y19887380D01*
X2468571Y19935000D01*
X2539999Y19958809D01*
X2587619Y19958809D01*
X2659047Y19935000D01*
X2682857Y19911190D01*
X3159047Y19458809D02*
X2873333Y19458809D01*
X3016190Y19458809D02*
X3016190Y19958809D01*
X2968571Y19887380D01*
X2920952Y19839761D01*
X2873333Y19815952D01*
X3373333Y19649285D02*
X3754285Y19649285D01*
X3968571Y19601666D02*
X4206666Y19601666D01*
X3920952Y19458809D02*
X4087619Y19958809D01*
X4254285Y19458809D01*
X4397142Y19911190D02*
X4420952Y19935000D01*
X4468571Y19958809D01*
X4587619Y19958809D01*
X4635238Y19935000D01*
X4659047Y19911190D01*
X4682857Y19863571D01*
X4682857Y19815952D01*
X4659047Y19744523D01*
X4373333Y19458809D01*
X4682857Y19458809D01*
X4671214Y14160523D02*
X4671214Y14541476D01*
X4861690Y14351000D02*
X4480738Y14351000D01*
X4671214Y18478523D02*
X4671214Y18859476D01*
D15*
X5523095Y14860476D02*
X5523095Y14741428D01*
X5273095Y14741428D01*
X5273095Y14991428D02*
X5273095Y15039047D01*
X5285000Y15062857D01*
X5308809Y15086666D01*
X5356428Y15098571D01*
X5439761Y15098571D01*
X5487380Y15086666D01*
X5511190Y15062857D01*
X5523095Y15039047D01*
X5523095Y14991428D01*
X5511190Y14967619D01*
X5487380Y14943809D01*
X5439761Y14931904D01*
X5356428Y14931904D01*
X5308809Y14943809D01*
X5285000Y14967619D01*
X5273095Y14991428D01*
X5523095Y15205714D02*
X5273095Y15205714D01*
X5523095Y15348571D01*
X5273095Y15348571D01*
X5285000Y15598571D02*
X5273095Y15574761D01*
X5273095Y15539047D01*
X5285000Y15503333D01*
X5308809Y15479523D01*
X5332619Y15467619D01*
X5380238Y15455714D01*
X5415952Y15455714D01*
X5463571Y15467619D01*
X5487380Y15479523D01*
X5511190Y15503333D01*
X5523095Y15539047D01*
X5523095Y15562857D01*
X5511190Y15598571D01*
X5499285Y15610476D01*
X5415952Y15610476D01*
X5415952Y15562857D01*
X5491190Y17186428D02*
X5503095Y17222142D01*
X5503095Y17281666D01*
X5491190Y17305476D01*
X5479285Y17317380D01*
X5455476Y17329285D01*
X5431666Y17329285D01*
X5407857Y17317380D01*
X5395952Y17305476D01*
X5384047Y17281666D01*
X5372142Y17234047D01*
X5360238Y17210238D01*
X5348333Y17198333D01*
X5324523Y17186428D01*
X5300714Y17186428D01*
X5276904Y17198333D01*
X5265000Y17210238D01*
X5253095Y17234047D01*
X5253095Y17293571D01*
X5265000Y17329285D01*
X5503095Y17436428D02*
X5253095Y17436428D01*
X5372142Y17436428D02*
X5372142Y17579285D01*
X5503095Y17579285D02*
X5253095Y17579285D01*
X5253095Y17745952D02*
X5253095Y17793571D01*
X5265000Y17817380D01*
X5288809Y17841190D01*
X5336428Y17853095D01*
X5419761Y17853095D01*
X5467380Y17841190D01*
X5491190Y17817380D01*
X5503095Y17793571D01*
X5503095Y17745952D01*
X5491190Y17722142D01*
X5467380Y17698333D01*
X5419761Y17686428D01*
X5336428Y17686428D01*
X5288809Y17698333D01*
X5265000Y17722142D01*
X5253095Y17745952D01*
X5503095Y18103095D02*
X5384047Y18019761D01*
X5503095Y17960238D02*
X5253095Y17960238D01*
X5253095Y18055476D01*
X5265000Y18079285D01*
X5276904Y18091190D01*
X5300714Y18103095D01*
X5336428Y18103095D01*
X5360238Y18091190D01*
X5372142Y18079285D01*
X5384047Y18055476D01*
X5384047Y17960238D01*
X5253095Y18174523D02*
X5253095Y18317380D01*
X5503095Y18245952D02*
X5253095Y18245952D01*
%TO.C,C5*%
D14*
X46873333Y35500500D02*
X46840000Y35467166D01*
X46740000Y35433833D01*
X46673333Y35433833D01*
X46573333Y35467166D01*
X46506666Y35533833D01*
X46473333Y35600500D01*
X46440000Y35733833D01*
X46440000Y35833833D01*
X46473333Y35967166D01*
X46506666Y36033833D01*
X46573333Y36100500D01*
X46673333Y36133833D01*
X46740000Y36133833D01*
X46840000Y36100500D01*
X46873333Y36067166D01*
X47506666Y36133833D02*
X47173333Y36133833D01*
X47140000Y35800500D01*
X47173333Y35833833D01*
X47240000Y35867166D01*
X47406666Y35867166D01*
X47473333Y35833833D01*
X47506666Y35800500D01*
X47540000Y35733833D01*
X47540000Y35567166D01*
X47506666Y35500500D01*
X47473333Y35467166D01*
X47406666Y35433833D01*
X47240000Y35433833D01*
X47173333Y35467166D01*
X47140000Y35500500D01*
X45506666Y37083166D02*
X45540000Y37116500D01*
X45606666Y37149833D01*
X45773333Y37149833D01*
X45840000Y37116500D01*
X45873333Y37083166D01*
X45906666Y37016500D01*
X45906666Y36949833D01*
X45873333Y36849833D01*
X45473333Y36449833D01*
X45906666Y36449833D01*
X46173333Y37083166D02*
X46206666Y37116500D01*
X46273333Y37149833D01*
X46440000Y37149833D01*
X46506666Y37116500D01*
X46540000Y37083166D01*
X46573333Y37016500D01*
X46573333Y36949833D01*
X46540000Y36849833D01*
X46140000Y36449833D01*
X46573333Y36449833D01*
X47006666Y37149833D02*
X47073333Y37149833D01*
X47140000Y37116500D01*
X47173333Y37083166D01*
X47206666Y37016500D01*
X47240000Y36883166D01*
X47240000Y36716500D01*
X47206666Y36583166D01*
X47173333Y36516500D01*
X47140000Y36483166D01*
X47073333Y36449833D01*
X47006666Y36449833D01*
X46940000Y36483166D01*
X46906666Y36516500D01*
X46873333Y36583166D01*
X46840000Y36716500D01*
X46840000Y36883166D01*
X46873333Y37016500D01*
X46906666Y37083166D01*
X46940000Y37116500D01*
X47006666Y37149833D01*
X47540000Y36916500D02*
X47540000Y36449833D01*
X47540000Y36849833D02*
X47573333Y36883166D01*
X47640000Y36916500D01*
X47740000Y36916500D01*
X47806666Y36883166D01*
X47840000Y36816500D01*
X47840000Y36449833D01*
X48406666Y36816500D02*
X48173333Y36816500D01*
X48173333Y36449833D02*
X48173333Y37149833D01*
X48506666Y37149833D01*
%TO.C,C4*%
X19554000Y6868333D02*
X19587333Y6835000D01*
X19620666Y6735000D01*
X19620666Y6668333D01*
X19587333Y6568333D01*
X19520666Y6501666D01*
X19454000Y6468333D01*
X19320666Y6435000D01*
X19220666Y6435000D01*
X19087333Y6468333D01*
X19020666Y6501666D01*
X18954000Y6568333D01*
X18920666Y6668333D01*
X18920666Y6735000D01*
X18954000Y6835000D01*
X18987333Y6868333D01*
X19154000Y7468333D02*
X19620666Y7468333D01*
X18887333Y7301666D02*
X19387333Y7135000D01*
X19387333Y7568333D01*
X16572666Y6568333D02*
X16572666Y6168333D01*
X16572666Y6368333D02*
X15872666Y6368333D01*
X15972666Y6301666D01*
X16039333Y6235000D01*
X16072666Y6168333D01*
X16106000Y7168333D02*
X16572666Y7168333D01*
X16106000Y6868333D02*
X16472666Y6868333D01*
X16539333Y6901666D01*
X16572666Y6968333D01*
X16572666Y7068333D01*
X16539333Y7135000D01*
X16506000Y7168333D01*
X16206000Y7735000D02*
X16206000Y7501666D01*
X16572666Y7501666D02*
X15872666Y7501666D01*
X15872666Y7835000D01*
%TO.C,C1*%
X60208333Y32770000D02*
X60175000Y32736666D01*
X60075000Y32703333D01*
X60008333Y32703333D01*
X59908333Y32736666D01*
X59841666Y32803333D01*
X59808333Y32870000D01*
X59775000Y33003333D01*
X59775000Y33103333D01*
X59808333Y33236666D01*
X59841666Y33303333D01*
X59908333Y33370000D01*
X60008333Y33403333D01*
X60075000Y33403333D01*
X60175000Y33370000D01*
X60208333Y33336666D01*
X60875000Y32703333D02*
X60475000Y32703333D01*
X60675000Y32703333D02*
X60675000Y33403333D01*
X60608333Y33303333D01*
X60541666Y33236666D01*
X60475000Y33203333D01*
X54796666Y32703333D02*
X54396666Y32703333D01*
X54596666Y32703333D02*
X54596666Y33403333D01*
X54530000Y33303333D01*
X54463333Y33236666D01*
X54396666Y33203333D01*
X55230000Y33403333D02*
X55296666Y33403333D01*
X55363333Y33370000D01*
X55396666Y33336666D01*
X55430000Y33270000D01*
X55463333Y33136666D01*
X55463333Y32970000D01*
X55430000Y32836666D01*
X55396666Y32770000D01*
X55363333Y32736666D01*
X55296666Y32703333D01*
X55230000Y32703333D01*
X55163333Y32736666D01*
X55130000Y32770000D01*
X55096666Y32836666D01*
X55063333Y32970000D01*
X55063333Y33136666D01*
X55096666Y33270000D01*
X55130000Y33336666D01*
X55163333Y33370000D01*
X55230000Y33403333D01*
X55896666Y33403333D02*
X55963333Y33403333D01*
X56030000Y33370000D01*
X56063333Y33336666D01*
X56096666Y33270000D01*
X56130000Y33136666D01*
X56130000Y32970000D01*
X56096666Y32836666D01*
X56063333Y32770000D01*
X56030000Y32736666D01*
X55963333Y32703333D01*
X55896666Y32703333D01*
X55830000Y32736666D01*
X55796666Y32770000D01*
X55763333Y32836666D01*
X55730000Y32970000D01*
X55730000Y33136666D01*
X55763333Y33270000D01*
X55796666Y33336666D01*
X55830000Y33370000D01*
X55896666Y33403333D01*
X56730000Y33170000D02*
X56730000Y32703333D01*
X56430000Y33170000D02*
X56430000Y32803333D01*
X56463333Y32736666D01*
X56530000Y32703333D01*
X56630000Y32703333D01*
X56696666Y32736666D01*
X56730000Y32770000D01*
X57296666Y33070000D02*
X57063333Y33070000D01*
X57063333Y32703333D02*
X57063333Y33403333D01*
X57396666Y33403333D01*
%TO.C,C3*%
X50683333Y32770000D02*
X50650000Y32736666D01*
X50550000Y32703333D01*
X50483333Y32703333D01*
X50383333Y32736666D01*
X50316666Y32803333D01*
X50283333Y32870000D01*
X50250000Y33003333D01*
X50250000Y33103333D01*
X50283333Y33236666D01*
X50316666Y33303333D01*
X50383333Y33370000D01*
X50483333Y33403333D01*
X50550000Y33403333D01*
X50650000Y33370000D01*
X50683333Y33336666D01*
X50916666Y33403333D02*
X51350000Y33403333D01*
X51116666Y33136666D01*
X51216666Y33136666D01*
X51283333Y33103333D01*
X51316666Y33070000D01*
X51350000Y33003333D01*
X51350000Y32836666D01*
X51316666Y32770000D01*
X51283333Y32736666D01*
X51216666Y32703333D01*
X51016666Y32703333D01*
X50950000Y32736666D01*
X50916666Y32770000D01*
X45605000Y32703333D02*
X45205000Y32703333D01*
X45405000Y32703333D02*
X45405000Y33403333D01*
X45338333Y33303333D01*
X45271666Y33236666D01*
X45205000Y33203333D01*
X46038333Y33403333D02*
X46105000Y33403333D01*
X46171666Y33370000D01*
X46205000Y33336666D01*
X46238333Y33270000D01*
X46271666Y33136666D01*
X46271666Y32970000D01*
X46238333Y32836666D01*
X46205000Y32770000D01*
X46171666Y32736666D01*
X46105000Y32703333D01*
X46038333Y32703333D01*
X45971666Y32736666D01*
X45938333Y32770000D01*
X45905000Y32836666D01*
X45871666Y32970000D01*
X45871666Y33136666D01*
X45905000Y33270000D01*
X45938333Y33336666D01*
X45971666Y33370000D01*
X46038333Y33403333D01*
X46871666Y33170000D02*
X46871666Y32703333D01*
X46571666Y33170000D02*
X46571666Y32803333D01*
X46605000Y32736666D01*
X46671666Y32703333D01*
X46771666Y32703333D01*
X46838333Y32736666D01*
X46871666Y32770000D01*
X47438333Y33070000D02*
X47205000Y33070000D01*
X47205000Y32703333D02*
X47205000Y33403333D01*
X47538333Y33403333D01*
%TO.C,D2*%
X17263333Y34735333D02*
X17263333Y35435333D01*
X17430000Y35435333D01*
X17530000Y35402000D01*
X17596666Y35335333D01*
X17630000Y35268666D01*
X17663333Y35135333D01*
X17663333Y35035333D01*
X17630000Y34902000D01*
X17596666Y34835333D01*
X17530000Y34768666D01*
X17430000Y34735333D01*
X17263333Y34735333D01*
X17930000Y35368666D02*
X17963333Y35402000D01*
X18030000Y35435333D01*
X18196666Y35435333D01*
X18263333Y35402000D01*
X18296666Y35368666D01*
X18330000Y35302000D01*
X18330000Y35235333D01*
X18296666Y35135333D01*
X17896666Y34735333D01*
X18330000Y34735333D01*
X16783142Y36196571D02*
X16783142Y35796571D01*
X16640285Y36425142D02*
X16497428Y35996571D01*
X16868857Y35996571D01*
X17411714Y35796571D02*
X17068857Y35796571D01*
X17240285Y35796571D02*
X17240285Y36396571D01*
X17183142Y36310857D01*
X17126000Y36253714D01*
X17068857Y36225142D01*
X17926000Y36196571D02*
X17926000Y35796571D01*
X17783142Y36425142D02*
X17640285Y35996571D01*
X18011714Y35996571D01*
X18326000Y36139428D02*
X18268857Y36168000D01*
X18240285Y36196571D01*
X18211714Y36253714D01*
X18211714Y36282285D01*
X18240285Y36339428D01*
X18268857Y36368000D01*
X18326000Y36396571D01*
X18440285Y36396571D01*
X18497428Y36368000D01*
X18526000Y36339428D01*
X18554571Y36282285D01*
X18554571Y36253714D01*
X18526000Y36196571D01*
X18497428Y36168000D01*
X18440285Y36139428D01*
X18326000Y36139428D01*
X18268857Y36110857D01*
X18240285Y36082285D01*
X18211714Y36025142D01*
X18211714Y35910857D01*
X18240285Y35853714D01*
X18268857Y35825142D01*
X18326000Y35796571D01*
X18440285Y35796571D01*
X18497428Y35825142D01*
X18526000Y35853714D01*
X18554571Y35910857D01*
X18554571Y36025142D01*
X18526000Y36082285D01*
X18497428Y36110857D01*
X18440285Y36139428D01*
%TO.C,D1*%
X55998333Y22416333D02*
X55998333Y23116333D01*
X56165000Y23116333D01*
X56265000Y23083000D01*
X56331666Y23016333D01*
X56365000Y22949666D01*
X56398333Y22816333D01*
X56398333Y22716333D01*
X56365000Y22583000D01*
X56331666Y22516333D01*
X56265000Y22449666D01*
X56165000Y22416333D01*
X55998333Y22416333D01*
X57065000Y22416333D02*
X56665000Y22416333D01*
X56865000Y22416333D02*
X56865000Y23116333D01*
X56798333Y23016333D01*
X56731666Y22949666D01*
X56665000Y22916333D01*
X56026142Y21845571D02*
X56026142Y21445571D01*
X55883285Y22074142D02*
X55740428Y21645571D01*
X56111857Y21645571D01*
X56454714Y22045571D02*
X56511857Y22045571D01*
X56569000Y22017000D01*
X56597571Y21988428D01*
X56626142Y21931285D01*
X56654714Y21817000D01*
X56654714Y21674142D01*
X56626142Y21559857D01*
X56597571Y21502714D01*
X56569000Y21474142D01*
X56511857Y21445571D01*
X56454714Y21445571D01*
X56397571Y21474142D01*
X56369000Y21502714D01*
X56340428Y21559857D01*
X56311857Y21674142D01*
X56311857Y21817000D01*
X56340428Y21931285D01*
X56369000Y21988428D01*
X56397571Y22017000D01*
X56454714Y22045571D01*
X57026142Y22045571D02*
X57083285Y22045571D01*
X57140428Y22017000D01*
X57169000Y21988428D01*
X57197571Y21931285D01*
X57226142Y21817000D01*
X57226142Y21674142D01*
X57197571Y21559857D01*
X57169000Y21502714D01*
X57140428Y21474142D01*
X57083285Y21445571D01*
X57026142Y21445571D01*
X56969000Y21474142D01*
X56940428Y21502714D01*
X56911857Y21559857D01*
X56883285Y21674142D01*
X56883285Y21817000D01*
X56911857Y21931285D01*
X56940428Y21988428D01*
X56969000Y22017000D01*
X57026142Y22045571D01*
X57454714Y21988428D02*
X57483285Y22017000D01*
X57540428Y22045571D01*
X57683285Y22045571D01*
X57740428Y22017000D01*
X57769000Y21988428D01*
X57797571Y21931285D01*
X57797571Y21874142D01*
X57769000Y21788428D01*
X57426142Y21445571D01*
X57797571Y21445571D01*
%TO.C,R8*%
X7122333Y26353333D02*
X6889000Y26686666D01*
X6722333Y26353333D02*
X6722333Y27053333D01*
X6989000Y27053333D01*
X7055666Y27020000D01*
X7089000Y26986666D01*
X7122333Y26920000D01*
X7122333Y26820000D01*
X7089000Y26753333D01*
X7055666Y26720000D01*
X6989000Y26686666D01*
X6722333Y26686666D01*
X7522333Y26753333D02*
X7455666Y26786666D01*
X7422333Y26820000D01*
X7389000Y26886666D01*
X7389000Y26920000D01*
X7422333Y26986666D01*
X7455666Y27020000D01*
X7522333Y27053333D01*
X7655666Y27053333D01*
X7722333Y27020000D01*
X7755666Y26986666D01*
X7789000Y26920000D01*
X7789000Y26886666D01*
X7755666Y26820000D01*
X7722333Y26786666D01*
X7655666Y26753333D01*
X7522333Y26753333D01*
X7455666Y26720000D01*
X7422333Y26686666D01*
X7389000Y26620000D01*
X7389000Y26486666D01*
X7422333Y26420000D01*
X7455666Y26386666D01*
X7522333Y26353333D01*
X7655666Y26353333D01*
X7722333Y26386666D01*
X7755666Y26420000D01*
X7789000Y26486666D01*
X7789000Y26620000D01*
X7755666Y26686666D01*
X7722333Y26720000D01*
X7655666Y26753333D01*
X3657666Y26820000D02*
X3657666Y26353333D01*
X3491000Y27086666D02*
X3324333Y26586666D01*
X3757666Y26586666D01*
X3957666Y27053333D02*
X4424333Y27053333D01*
X4124333Y26353333D01*
X4824333Y27053333D02*
X4891000Y27053333D01*
X4957666Y27020000D01*
X4991000Y26986666D01*
X5024333Y26920000D01*
X5057666Y26786666D01*
X5057666Y26620000D01*
X5024333Y26486666D01*
X4991000Y26420000D01*
X4957666Y26386666D01*
X4891000Y26353333D01*
X4824333Y26353333D01*
X4757666Y26386666D01*
X4724333Y26420000D01*
X4691000Y26486666D01*
X4657666Y26620000D01*
X4657666Y26786666D01*
X4691000Y26920000D01*
X4724333Y26986666D01*
X4757666Y27020000D01*
X4824333Y27053333D01*
%TO.C,R7*%
X54048833Y35941833D02*
X53815500Y36275166D01*
X53648833Y35941833D02*
X53648833Y36641833D01*
X53915500Y36641833D01*
X53982166Y36608500D01*
X54015500Y36575166D01*
X54048833Y36508500D01*
X54048833Y36408500D01*
X54015500Y36341833D01*
X53982166Y36308500D01*
X53915500Y36275166D01*
X53648833Y36275166D01*
X54282166Y36641833D02*
X54748833Y36641833D01*
X54448833Y35941833D01*
X57130166Y35941833D02*
X56730166Y35941833D01*
X56930166Y35941833D02*
X56930166Y36641833D01*
X56863500Y36541833D01*
X56796833Y36475166D01*
X56730166Y36441833D01*
X57430166Y35941833D02*
X57430166Y36641833D01*
X57496833Y36208500D02*
X57696833Y35941833D01*
X57696833Y36408500D02*
X57430166Y36141833D01*
%TO.C,R6*%
X26934333Y30798333D02*
X26701000Y31131666D01*
X26534333Y30798333D02*
X26534333Y31498333D01*
X26801000Y31498333D01*
X26867666Y31465000D01*
X26901000Y31431666D01*
X26934333Y31365000D01*
X26934333Y31265000D01*
X26901000Y31198333D01*
X26867666Y31165000D01*
X26801000Y31131666D01*
X26534333Y31131666D01*
X27534333Y31498333D02*
X27401000Y31498333D01*
X27334333Y31465000D01*
X27301000Y31431666D01*
X27234333Y31331666D01*
X27201000Y31198333D01*
X27201000Y30931666D01*
X27234333Y30865000D01*
X27267666Y30831666D01*
X27334333Y30798333D01*
X27467666Y30798333D01*
X27534333Y30831666D01*
X27567666Y30865000D01*
X27601000Y30931666D01*
X27601000Y31098333D01*
X27567666Y31165000D01*
X27534333Y31198333D01*
X27467666Y31231666D01*
X27334333Y31231666D01*
X27267666Y31198333D01*
X27234333Y31165000D01*
X27201000Y31098333D01*
X29565666Y31265000D02*
X29565666Y30798333D01*
X29399000Y31531666D02*
X29232333Y31031666D01*
X29665666Y31031666D01*
X29865666Y31498333D02*
X30332333Y31498333D01*
X30032333Y30798333D01*
X30732333Y31498333D02*
X30799000Y31498333D01*
X30865666Y31465000D01*
X30899000Y31431666D01*
X30932333Y31365000D01*
X30965666Y31231666D01*
X30965666Y31065000D01*
X30932333Y30931666D01*
X30899000Y30865000D01*
X30865666Y30831666D01*
X30799000Y30798333D01*
X30732333Y30798333D01*
X30665666Y30831666D01*
X30632333Y30865000D01*
X30599000Y30931666D01*
X30565666Y31065000D01*
X30565666Y31231666D01*
X30599000Y31365000D01*
X30632333Y31431666D01*
X30665666Y31465000D01*
X30732333Y31498333D01*
%TO.C,R5*%
X29982333Y35243333D02*
X29749000Y35576666D01*
X29582333Y35243333D02*
X29582333Y35943333D01*
X29849000Y35943333D01*
X29915666Y35910000D01*
X29949000Y35876666D01*
X29982333Y35810000D01*
X29982333Y35710000D01*
X29949000Y35643333D01*
X29915666Y35610000D01*
X29849000Y35576666D01*
X29582333Y35576666D01*
X30615666Y35943333D02*
X30282333Y35943333D01*
X30249000Y35610000D01*
X30282333Y35643333D01*
X30349000Y35676666D01*
X30515666Y35676666D01*
X30582333Y35643333D01*
X30615666Y35610000D01*
X30649000Y35543333D01*
X30649000Y35376666D01*
X30615666Y35310000D01*
X30582333Y35276666D01*
X30515666Y35243333D01*
X30349000Y35243333D01*
X30282333Y35276666D01*
X30249000Y35310000D01*
X26301000Y35243333D02*
X25901000Y35243333D01*
X26101000Y35243333D02*
X26101000Y35943333D01*
X26034333Y35843333D01*
X25967666Y35776666D01*
X25901000Y35743333D01*
X26734333Y35943333D02*
X26801000Y35943333D01*
X26867666Y35910000D01*
X26901000Y35876666D01*
X26934333Y35810000D01*
X26967666Y35676666D01*
X26967666Y35510000D01*
X26934333Y35376666D01*
X26901000Y35310000D01*
X26867666Y35276666D01*
X26801000Y35243333D01*
X26734333Y35243333D01*
X26667666Y35276666D01*
X26634333Y35310000D01*
X26601000Y35376666D01*
X26567666Y35510000D01*
X26567666Y35676666D01*
X26601000Y35810000D01*
X26634333Y35876666D01*
X26667666Y35910000D01*
X26734333Y35943333D01*
X27401000Y35943333D02*
X27467666Y35943333D01*
X27534333Y35910000D01*
X27567666Y35876666D01*
X27601000Y35810000D01*
X27634333Y35676666D01*
X27634333Y35510000D01*
X27601000Y35376666D01*
X27567666Y35310000D01*
X27534333Y35276666D01*
X27467666Y35243333D01*
X27401000Y35243333D01*
X27334333Y35276666D01*
X27301000Y35310000D01*
X27267666Y35376666D01*
X27234333Y35510000D01*
X27234333Y35676666D01*
X27267666Y35810000D01*
X27301000Y35876666D01*
X27334333Y35910000D01*
X27401000Y35943333D01*
X27934333Y35243333D02*
X27934333Y35943333D01*
X28001000Y35510000D02*
X28201000Y35243333D01*
X28201000Y35710000D02*
X27934333Y35443333D01*
%TO.C,R4*%
X7122333Y35243333D02*
X6889000Y35576666D01*
X6722333Y35243333D02*
X6722333Y35943333D01*
X6989000Y35943333D01*
X7055666Y35910000D01*
X7089000Y35876666D01*
X7122333Y35810000D01*
X7122333Y35710000D01*
X7089000Y35643333D01*
X7055666Y35610000D01*
X6989000Y35576666D01*
X6722333Y35576666D01*
X7722333Y35710000D02*
X7722333Y35243333D01*
X7555666Y35976666D02*
X7389000Y35476666D01*
X7822333Y35476666D01*
X3991000Y35243333D02*
X3591000Y35243333D01*
X3791000Y35243333D02*
X3791000Y35943333D01*
X3724333Y35843333D01*
X3657666Y35776666D01*
X3591000Y35743333D01*
X4291000Y35243333D02*
X4291000Y35943333D01*
X4524333Y35443333D01*
X4757666Y35943333D01*
X4757666Y35243333D01*
%TO.C,R3*%
X54291666Y7757333D02*
X53958333Y7524000D01*
X54291666Y7357333D02*
X53591666Y7357333D01*
X53591666Y7624000D01*
X53625000Y7690666D01*
X53658333Y7724000D01*
X53725000Y7757333D01*
X53825000Y7757333D01*
X53891666Y7724000D01*
X53925000Y7690666D01*
X53958333Y7624000D01*
X53958333Y7357333D01*
X53591666Y7990666D02*
X53591666Y8424000D01*
X53858333Y8190666D01*
X53858333Y8290666D01*
X53891666Y8357333D01*
X53925000Y8390666D01*
X53991666Y8424000D01*
X54158333Y8424000D01*
X54225000Y8390666D01*
X54258333Y8357333D01*
X54291666Y8290666D01*
X54291666Y8090666D01*
X54258333Y8024000D01*
X54225000Y7990666D01*
X54291666Y4742666D02*
X54291666Y4342666D01*
X54291666Y4542666D02*
X53591666Y4542666D01*
X53691666Y4476000D01*
X53758333Y4409333D01*
X53791666Y4342666D01*
X54291666Y5042666D02*
X53591666Y5042666D01*
X54025000Y5109333D02*
X54291666Y5309333D01*
X53825000Y5309333D02*
X54091666Y5042666D01*
%TO.C,R2*%
X4074333Y30798333D02*
X3841000Y31131666D01*
X3674333Y30798333D02*
X3674333Y31498333D01*
X3941000Y31498333D01*
X4007666Y31465000D01*
X4041000Y31431666D01*
X4074333Y31365000D01*
X4074333Y31265000D01*
X4041000Y31198333D01*
X4007666Y31165000D01*
X3941000Y31131666D01*
X3674333Y31131666D01*
X4341000Y31431666D02*
X4374333Y31465000D01*
X4441000Y31498333D01*
X4607666Y31498333D01*
X4674333Y31465000D01*
X4707666Y31431666D01*
X4741000Y31365000D01*
X4741000Y31298333D01*
X4707666Y31198333D01*
X4307666Y30798333D01*
X4741000Y30798333D01*
X7155666Y30798333D02*
X6755666Y30798333D01*
X6955666Y30798333D02*
X6955666Y31498333D01*
X6889000Y31398333D01*
X6822333Y31331666D01*
X6755666Y31298333D01*
X7455666Y30798333D02*
X7455666Y31498333D01*
X7522333Y31065000D02*
X7722333Y30798333D01*
X7722333Y31265000D02*
X7455666Y30998333D01*
%TO.C,R1*%
X7122333Y21908333D02*
X6889000Y22241666D01*
X6722333Y21908333D02*
X6722333Y22608333D01*
X6989000Y22608333D01*
X7055666Y22575000D01*
X7089000Y22541666D01*
X7122333Y22475000D01*
X7122333Y22375000D01*
X7089000Y22308333D01*
X7055666Y22275000D01*
X6989000Y22241666D01*
X6722333Y22241666D01*
X7789000Y21908333D02*
X7389000Y21908333D01*
X7589000Y21908333D02*
X7589000Y22608333D01*
X7522333Y22508333D01*
X7455666Y22441666D01*
X7389000Y22408333D01*
X4107666Y21908333D02*
X3707666Y21908333D01*
X3907666Y21908333D02*
X3907666Y22608333D01*
X3841000Y22508333D01*
X3774333Y22441666D01*
X3707666Y22408333D01*
X4407666Y21908333D02*
X4407666Y22608333D01*
X4474333Y22175000D02*
X4674333Y21908333D01*
X4674333Y22375000D02*
X4407666Y22108333D01*
%TO.C,U3*%
X48026190Y17649047D02*
X48430952Y17649047D01*
X48478571Y17672857D01*
X48502380Y17696666D01*
X48526190Y17744285D01*
X48526190Y17839523D01*
X48502380Y17887142D01*
X48478571Y17910952D01*
X48430952Y17934761D01*
X48026190Y17934761D01*
X48026190Y18125238D02*
X48026190Y18434761D01*
X48216666Y18268095D01*
X48216666Y18339523D01*
X48240476Y18387142D01*
X48264285Y18410952D01*
X48311904Y18434761D01*
X48430952Y18434761D01*
X48478571Y18410952D01*
X48502380Y18387142D01*
X48526190Y18339523D01*
X48526190Y18196666D01*
X48502380Y18149047D01*
X48478571Y18125238D01*
X48036190Y14736666D02*
X48036190Y15070000D01*
X48536190Y14855714D01*
X48250476Y15331904D02*
X48226666Y15284285D01*
X48202857Y15260476D01*
X48155238Y15236666D01*
X48131428Y15236666D01*
X48083809Y15260476D01*
X48060000Y15284285D01*
X48036190Y15331904D01*
X48036190Y15427142D01*
X48060000Y15474761D01*
X48083809Y15498571D01*
X48131428Y15522380D01*
X48155238Y15522380D01*
X48202857Y15498571D01*
X48226666Y15474761D01*
X48250476Y15427142D01*
X48250476Y15331904D01*
X48274285Y15284285D01*
X48298095Y15260476D01*
X48345714Y15236666D01*
X48440952Y15236666D01*
X48488571Y15260476D01*
X48512380Y15284285D01*
X48536190Y15331904D01*
X48536190Y15427142D01*
X48512380Y15474761D01*
X48488571Y15498571D01*
X48440952Y15522380D01*
X48345714Y15522380D01*
X48298095Y15498571D01*
X48274285Y15474761D01*
X48250476Y15427142D01*
X48536190Y15974761D02*
X48536190Y15736666D01*
X48036190Y15736666D01*
X48036190Y16236666D02*
X48036190Y16284285D01*
X48060000Y16331904D01*
X48083809Y16355714D01*
X48131428Y16379523D01*
X48226666Y16403333D01*
X48345714Y16403333D01*
X48440952Y16379523D01*
X48488571Y16355714D01*
X48512380Y16331904D01*
X48536190Y16284285D01*
X48536190Y16236666D01*
X48512380Y16189047D01*
X48488571Y16165238D01*
X48440952Y16141428D01*
X48345714Y16117619D01*
X48226666Y16117619D01*
X48131428Y16141428D01*
X48083809Y16165238D01*
X48060000Y16189047D01*
X48036190Y16236666D01*
X48036190Y16855714D02*
X48036190Y16617619D01*
X48274285Y16593809D01*
X48250476Y16617619D01*
X48226666Y16665238D01*
X48226666Y16784285D01*
X48250476Y16831904D01*
X48274285Y16855714D01*
X48321904Y16879523D01*
X48440952Y16879523D01*
X48488571Y16855714D01*
X48512380Y16831904D01*
X48536190Y16784285D01*
X48536190Y16665238D01*
X48512380Y16617619D01*
X48488571Y16593809D01*
%TO.C,J1*%
D11*
X55776880Y3540166D02*
X56491166Y3540166D01*
X56634023Y3492547D01*
X56729261Y3397309D01*
X56776880Y3254452D01*
X56776880Y3159214D01*
X56776880Y4540166D02*
X56776880Y3968738D01*
X56776880Y4254452D02*
X55776880Y4254452D01*
X55919738Y4159214D01*
X56014976Y4063976D01*
X56062595Y3968738D01*
D12*
X56340714Y6758809D02*
X56435952Y6758809D01*
X56483571Y6782619D01*
X56507380Y6806428D01*
X56555000Y6877857D01*
X56578809Y6973095D01*
X56578809Y7163571D01*
X56555000Y7211190D01*
X56531190Y7235000D01*
X56483571Y7258809D01*
X56388333Y7258809D01*
X56340714Y7235000D01*
X56316904Y7211190D01*
X56293095Y7163571D01*
X56293095Y7044523D01*
X56316904Y6996904D01*
X56340714Y6973095D01*
X56388333Y6949285D01*
X56483571Y6949285D01*
X56531190Y6973095D01*
X56555000Y6996904D01*
X56578809Y7044523D01*
X56745476Y7092142D02*
X56864523Y6758809D01*
X56983571Y7092142D01*
X57055000Y6711190D02*
X57435952Y6711190D01*
X57721666Y7020714D02*
X57793095Y6996904D01*
X57816904Y6973095D01*
X57840714Y6925476D01*
X57840714Y6854047D01*
X57816904Y6806428D01*
X57793095Y6782619D01*
X57745476Y6758809D01*
X57555000Y6758809D01*
X57555000Y7258809D01*
X57721666Y7258809D01*
X57769285Y7235000D01*
X57793095Y7211190D01*
X57816904Y7163571D01*
X57816904Y7115952D01*
X57793095Y7068333D01*
X57769285Y7044523D01*
X57721666Y7020714D01*
X57555000Y7020714D01*
X58269285Y6758809D02*
X58269285Y7020714D01*
X58245476Y7068333D01*
X58197857Y7092142D01*
X58102619Y7092142D01*
X58055000Y7068333D01*
X58269285Y6782619D02*
X58221666Y6758809D01*
X58102619Y6758809D01*
X58055000Y6782619D01*
X58031190Y6830238D01*
X58031190Y6877857D01*
X58055000Y6925476D01*
X58102619Y6949285D01*
X58221666Y6949285D01*
X58269285Y6973095D01*
X58435952Y7092142D02*
X58626428Y7092142D01*
X58507380Y7258809D02*
X58507380Y6830238D01*
X58531190Y6782619D01*
X58578809Y6758809D01*
X58626428Y6758809D01*
X58721666Y7092142D02*
X58912142Y7092142D01*
X58793095Y7258809D02*
X58793095Y6830238D01*
X58816904Y6782619D01*
X58864523Y6758809D01*
X58912142Y6758809D01*
X59269285Y6782619D02*
X59221666Y6758809D01*
X59126428Y6758809D01*
X59078809Y6782619D01*
X59055000Y6830238D01*
X59055000Y7020714D01*
X59078809Y7068333D01*
X59126428Y7092142D01*
X59221666Y7092142D01*
X59269285Y7068333D01*
X59293095Y7020714D01*
X59293095Y6973095D01*
X59055000Y6925476D01*
X59507380Y6758809D02*
X59507380Y7092142D01*
X59507380Y6996904D02*
X59531190Y7044523D01*
X59555000Y7068333D01*
X59602619Y7092142D01*
X59650238Y7092142D01*
X59769285Y7092142D02*
X59888333Y6758809D01*
X60007380Y7092142D02*
X59888333Y6758809D01*
X59840714Y6639761D01*
X59816904Y6615952D01*
X59769285Y6592142D01*
X60078809Y6711190D02*
X60459761Y6711190D01*
X60864523Y6806428D02*
X60840714Y6782619D01*
X60769285Y6758809D01*
X60721666Y6758809D01*
X60650238Y6782619D01*
X60602619Y6830238D01*
X60578809Y6877857D01*
X60555000Y6973095D01*
X60555000Y7044523D01*
X60578809Y7139761D01*
X60602619Y7187380D01*
X60650238Y7235000D01*
X60721666Y7258809D01*
X60769285Y7258809D01*
X60840714Y7235000D01*
X60864523Y7211190D01*
X61150238Y6758809D02*
X61102619Y6782619D01*
X61078809Y6830238D01*
X61078809Y7258809D01*
X61340714Y6758809D02*
X61340714Y7092142D01*
X61340714Y7258809D02*
X61316904Y7235000D01*
X61340714Y7211190D01*
X61364523Y7235000D01*
X61340714Y7258809D01*
X61340714Y7211190D01*
X61578809Y7092142D02*
X61578809Y6592142D01*
X61578809Y7068333D02*
X61626428Y7092142D01*
X61721666Y7092142D01*
X61769285Y7068333D01*
X61793095Y7044523D01*
X61816904Y6996904D01*
X61816904Y6854047D01*
X61793095Y6806428D01*
X61769285Y6782619D01*
X61721666Y6758809D01*
X61626428Y6758809D01*
X61578809Y6782619D01*
X57630214Y5778523D02*
X57630214Y6159476D01*
X57820690Y5969000D02*
X57439738Y5969000D01*
X57630214Y1460523D02*
X57630214Y1841476D01*
D15*
X61315190Y3220714D02*
X61327095Y3256428D01*
X61327095Y3315952D01*
X61315190Y3339761D01*
X61303285Y3351666D01*
X61279476Y3363571D01*
X61255666Y3363571D01*
X61231857Y3351666D01*
X61219952Y3339761D01*
X61208047Y3315952D01*
X61196142Y3268333D01*
X61184238Y3244523D01*
X61172333Y3232619D01*
X61148523Y3220714D01*
X61124714Y3220714D01*
X61100904Y3232619D01*
X61089000Y3244523D01*
X61077095Y3268333D01*
X61077095Y3327857D01*
X61089000Y3363571D01*
X61077095Y3435000D02*
X61077095Y3577857D01*
X61327095Y3506428D02*
X61077095Y3506428D01*
X61327095Y3804047D02*
X61208047Y3720714D01*
X61327095Y3661190D02*
X61077095Y3661190D01*
X61077095Y3756428D01*
X61089000Y3780238D01*
X61100904Y3792142D01*
X61124714Y3804047D01*
X61160428Y3804047D01*
X61184238Y3792142D01*
X61196142Y3780238D01*
X61208047Y3756428D01*
X61208047Y3661190D01*
X61255666Y3899285D02*
X61255666Y4018333D01*
X61327095Y3875476D02*
X61077095Y3958809D01*
X61327095Y4042142D01*
X61327095Y4125476D02*
X61077095Y4125476D01*
X61327095Y4244523D02*
X61077095Y4244523D01*
X61327095Y4387380D01*
X61077095Y4387380D01*
%TO.C,J2*%
D11*
X3349666Y39092119D02*
X3349666Y38377833D01*
X3302047Y38234976D01*
X3206809Y38139738D01*
X3063952Y38092119D01*
X2968714Y38092119D01*
X3778238Y38996880D02*
X3825857Y39044500D01*
X3921095Y39092119D01*
X4159190Y39092119D01*
X4254428Y39044500D01*
X4302047Y38996880D01*
X4349666Y38901642D01*
X4349666Y38806404D01*
X4302047Y38663547D01*
X3730619Y38092119D01*
X4349666Y38092119D01*
D12*
X1377452Y44660309D02*
X1663166Y44660309D01*
X1520309Y44160309D02*
X1520309Y44660309D01*
X1829833Y44160309D02*
X1829833Y44493642D01*
X1829833Y44398404D02*
X1853642Y44446023D01*
X1877452Y44469833D01*
X1925071Y44493642D01*
X1972690Y44493642D01*
X2139357Y44160309D02*
X2139357Y44493642D01*
X2139357Y44660309D02*
X2115547Y44636500D01*
X2139357Y44612690D01*
X2163166Y44636500D01*
X2139357Y44660309D01*
X2139357Y44612690D01*
X2591738Y44493642D02*
X2591738Y44088880D01*
X2567928Y44041261D01*
X2544119Y44017452D01*
X2496500Y43993642D01*
X2425071Y43993642D01*
X2377452Y44017452D01*
X2591738Y44184119D02*
X2544119Y44160309D01*
X2448880Y44160309D01*
X2401261Y44184119D01*
X2377452Y44207928D01*
X2353642Y44255547D01*
X2353642Y44398404D01*
X2377452Y44446023D01*
X2401261Y44469833D01*
X2448880Y44493642D01*
X2544119Y44493642D01*
X2591738Y44469833D01*
X3044119Y44493642D02*
X3044119Y44088880D01*
X3020309Y44041261D01*
X2996500Y44017452D01*
X2948880Y43993642D01*
X2877452Y43993642D01*
X2829833Y44017452D01*
X3044119Y44184119D02*
X2996500Y44160309D01*
X2901261Y44160309D01*
X2853642Y44184119D01*
X2829833Y44207928D01*
X2806023Y44255547D01*
X2806023Y44398404D01*
X2829833Y44446023D01*
X2853642Y44469833D01*
X2901261Y44493642D01*
X2996500Y44493642D01*
X3044119Y44469833D01*
X3472690Y44184119D02*
X3425071Y44160309D01*
X3329833Y44160309D01*
X3282214Y44184119D01*
X3258404Y44231738D01*
X3258404Y44422214D01*
X3282214Y44469833D01*
X3329833Y44493642D01*
X3425071Y44493642D01*
X3472690Y44469833D01*
X3496500Y44422214D01*
X3496500Y44374595D01*
X3258404Y44326976D01*
X3710785Y44160309D02*
X3710785Y44493642D01*
X3710785Y44398404D02*
X3734595Y44446023D01*
X3758404Y44469833D01*
X3806023Y44493642D01*
X3853642Y44493642D01*
X3901261Y44112690D02*
X4282214Y44112690D01*
X4401261Y44160309D02*
X4401261Y44660309D01*
X4639357Y44493642D02*
X4639357Y44160309D01*
X4639357Y44446023D02*
X4663166Y44469833D01*
X4710785Y44493642D01*
X4782214Y44493642D01*
X4829833Y44469833D01*
X4853642Y44422214D01*
X4853642Y44160309D01*
X5091738Y44493642D02*
X5091738Y43993642D01*
X5091738Y44469833D02*
X5139357Y44493642D01*
X5234595Y44493642D01*
X5282214Y44469833D01*
X5306023Y44446023D01*
X5329833Y44398404D01*
X5329833Y44255547D01*
X5306023Y44207928D01*
X5282214Y44184119D01*
X5234595Y44160309D01*
X5139357Y44160309D01*
X5091738Y44184119D01*
X5758404Y44493642D02*
X5758404Y44160309D01*
X5544119Y44493642D02*
X5544119Y44231738D01*
X5567928Y44184119D01*
X5615547Y44160309D01*
X5686976Y44160309D01*
X5734595Y44184119D01*
X5758404Y44207928D01*
X5925071Y44493642D02*
X6115547Y44493642D01*
X5996500Y44660309D02*
X5996500Y44231738D01*
X6020309Y44184119D01*
X6067928Y44160309D01*
X6115547Y44160309D01*
D15*
X3157214Y43332809D02*
X3192928Y43320904D01*
X3252452Y43320904D01*
X3276261Y43332809D01*
X3288166Y43344714D01*
X3300071Y43368523D01*
X3300071Y43392333D01*
X3288166Y43416142D01*
X3276261Y43428047D01*
X3252452Y43439952D01*
X3204833Y43451857D01*
X3181023Y43463761D01*
X3169119Y43475666D01*
X3157214Y43499476D01*
X3157214Y43523285D01*
X3169119Y43547095D01*
X3181023Y43559000D01*
X3204833Y43570904D01*
X3264357Y43570904D01*
X3300071Y43559000D01*
X3371500Y43570904D02*
X3514357Y43570904D01*
X3442928Y43320904D02*
X3442928Y43570904D01*
X3740547Y43320904D02*
X3657214Y43439952D01*
X3597690Y43320904D02*
X3597690Y43570904D01*
X3692928Y43570904D01*
X3716738Y43559000D01*
X3728642Y43547095D01*
X3740547Y43523285D01*
X3740547Y43487571D01*
X3728642Y43463761D01*
X3716738Y43451857D01*
X3692928Y43439952D01*
X3597690Y43439952D01*
X3835785Y43392333D02*
X3954833Y43392333D01*
X3811976Y43320904D02*
X3895309Y43570904D01*
X3978642Y43320904D01*
X4061976Y43320904D02*
X4061976Y43570904D01*
X4181023Y43320904D02*
X4181023Y43570904D01*
X4323880Y43320904D01*
X4323880Y43570904D01*
D12*
X5762642Y39612119D02*
X5834071Y39588309D01*
X5953119Y39588309D01*
X6000738Y39612119D01*
X6024547Y39635928D01*
X6048357Y39683547D01*
X6048357Y39731166D01*
X6024547Y39778785D01*
X6000738Y39802595D01*
X5953119Y39826404D01*
X5857880Y39850214D01*
X5810261Y39874023D01*
X5786452Y39897833D01*
X5762642Y39945452D01*
X5762642Y39993071D01*
X5786452Y40040690D01*
X5810261Y40064500D01*
X5857880Y40088309D01*
X5976928Y40088309D01*
X6048357Y40064500D01*
X1444642Y40088309D02*
X1730357Y40088309D01*
X1587500Y39588309D02*
X1587500Y40088309D01*
%TO.C,J3*%
D11*
X58023166Y39092119D02*
X58023166Y38377833D01*
X57975547Y38234976D01*
X57880309Y38139738D01*
X57737452Y38092119D01*
X57642214Y38092119D01*
X58404119Y39092119D02*
X59023166Y39092119D01*
X58689833Y38711166D01*
X58832690Y38711166D01*
X58927928Y38663547D01*
X58975547Y38615928D01*
X59023166Y38520690D01*
X59023166Y38282595D01*
X58975547Y38187357D01*
X58927928Y38139738D01*
X58832690Y38092119D01*
X58546976Y38092119D01*
X58451738Y38139738D01*
X58404119Y38187357D01*
D12*
X57408095Y44660309D02*
X57503333Y44660309D01*
X57550952Y44636500D01*
X57598571Y44588880D01*
X57622380Y44493642D01*
X57622380Y44326976D01*
X57598571Y44231738D01*
X57550952Y44184119D01*
X57503333Y44160309D01*
X57408095Y44160309D01*
X57360476Y44184119D01*
X57312857Y44231738D01*
X57289047Y44326976D01*
X57289047Y44493642D01*
X57312857Y44588880D01*
X57360476Y44636500D01*
X57408095Y44660309D01*
X58050952Y44493642D02*
X58050952Y44160309D01*
X57836666Y44493642D02*
X57836666Y44231738D01*
X57860476Y44184119D01*
X57908095Y44160309D01*
X57979523Y44160309D01*
X58027142Y44184119D01*
X58050952Y44207928D01*
X58217619Y44493642D02*
X58408095Y44493642D01*
X58289047Y44660309D02*
X58289047Y44231738D01*
X58312857Y44184119D01*
X58360476Y44160309D01*
X58408095Y44160309D01*
X58574761Y44493642D02*
X58574761Y43993642D01*
X58574761Y44469833D02*
X58622380Y44493642D01*
X58717619Y44493642D01*
X58765238Y44469833D01*
X58789047Y44446023D01*
X58812857Y44398404D01*
X58812857Y44255547D01*
X58789047Y44207928D01*
X58765238Y44184119D01*
X58717619Y44160309D01*
X58622380Y44160309D01*
X58574761Y44184119D01*
X59241428Y44493642D02*
X59241428Y44160309D01*
X59027142Y44493642D02*
X59027142Y44231738D01*
X59050952Y44184119D01*
X59098571Y44160309D01*
X59170000Y44160309D01*
X59217619Y44184119D01*
X59241428Y44207928D01*
X59408095Y44493642D02*
X59598571Y44493642D01*
X59479523Y44660309D02*
X59479523Y44231738D01*
X59503333Y44184119D01*
X59550952Y44160309D01*
X59598571Y44160309D01*
X56118142Y40088309D02*
X56403857Y40088309D01*
X56261000Y39588309D02*
X56261000Y40088309D01*
X60436142Y39612119D02*
X60507571Y39588309D01*
X60626619Y39588309D01*
X60674238Y39612119D01*
X60698047Y39635928D01*
X60721857Y39683547D01*
X60721857Y39731166D01*
X60698047Y39778785D01*
X60674238Y39802595D01*
X60626619Y39826404D01*
X60531380Y39850214D01*
X60483761Y39874023D01*
X60459952Y39897833D01*
X60436142Y39945452D01*
X60436142Y39993071D01*
X60459952Y40040690D01*
X60483761Y40064500D01*
X60531380Y40088309D01*
X60650428Y40088309D01*
X60721857Y40064500D01*
D15*
X57830714Y43332809D02*
X57866428Y43320904D01*
X57925952Y43320904D01*
X57949761Y43332809D01*
X57961666Y43344714D01*
X57973571Y43368523D01*
X57973571Y43392333D01*
X57961666Y43416142D01*
X57949761Y43428047D01*
X57925952Y43439952D01*
X57878333Y43451857D01*
X57854523Y43463761D01*
X57842619Y43475666D01*
X57830714Y43499476D01*
X57830714Y43523285D01*
X57842619Y43547095D01*
X57854523Y43559000D01*
X57878333Y43570904D01*
X57937857Y43570904D01*
X57973571Y43559000D01*
X58045000Y43570904D02*
X58187857Y43570904D01*
X58116428Y43320904D02*
X58116428Y43570904D01*
X58414047Y43320904D02*
X58330714Y43439952D01*
X58271190Y43320904D02*
X58271190Y43570904D01*
X58366428Y43570904D01*
X58390238Y43559000D01*
X58402142Y43547095D01*
X58414047Y43523285D01*
X58414047Y43487571D01*
X58402142Y43463761D01*
X58390238Y43451857D01*
X58366428Y43439952D01*
X58271190Y43439952D01*
X58509285Y43392333D02*
X58628333Y43392333D01*
X58485476Y43320904D02*
X58568809Y43570904D01*
X58652142Y43320904D01*
X58735476Y43320904D02*
X58735476Y43570904D01*
X58854523Y43320904D02*
X58854523Y43570904D01*
X58997380Y43320904D01*
X58997380Y43570904D01*
%TO.C,DECAY1*%
D11*
X22852380Y38092119D02*
X22852380Y39092119D01*
X23090476Y39092119D01*
X23233333Y39044500D01*
X23328571Y38949261D01*
X23376190Y38854023D01*
X23423809Y38663547D01*
X23423809Y38520690D01*
X23376190Y38330214D01*
X23328571Y38234976D01*
X23233333Y38139738D01*
X23090476Y38092119D01*
X22852380Y38092119D01*
X23852380Y38615928D02*
X24185714Y38615928D01*
X24328571Y38092119D02*
X23852380Y38092119D01*
X23852380Y39092119D01*
X24328571Y39092119D01*
X25328571Y38187357D02*
X25280952Y38139738D01*
X25138095Y38092119D01*
X25042857Y38092119D01*
X24900000Y38139738D01*
X24804761Y38234976D01*
X24757142Y38330214D01*
X24709523Y38520690D01*
X24709523Y38663547D01*
X24757142Y38854023D01*
X24804761Y38949261D01*
X24900000Y39044500D01*
X25042857Y39092119D01*
X25138095Y39092119D01*
X25280952Y39044500D01*
X25328571Y38996880D01*
X25709523Y38377833D02*
X26185714Y38377833D01*
X25614285Y38092119D02*
X25947619Y39092119D01*
X26280952Y38092119D01*
X26804761Y38568309D02*
X26804761Y38092119D01*
X26471428Y39092119D02*
X26804761Y38568309D01*
X27138095Y39092119D01*
X27995238Y38092119D02*
X27423809Y38092119D01*
X27709523Y38092119D02*
X27709523Y39092119D01*
X27614285Y38949261D01*
X27519047Y38854023D01*
X27423809Y38806404D01*
D12*
X23316666Y44303166D02*
X23554761Y44303166D01*
X23269047Y44160309D02*
X23435714Y44660309D01*
X23602380Y44160309D01*
X24007142Y44660309D02*
X23769047Y44660309D01*
X23745238Y44422214D01*
X23769047Y44446023D01*
X23816666Y44469833D01*
X23935714Y44469833D01*
X23983333Y44446023D01*
X24007142Y44422214D01*
X24030952Y44374595D01*
X24030952Y44255547D01*
X24007142Y44207928D01*
X23983333Y44184119D01*
X23935714Y44160309D01*
X23816666Y44160309D01*
X23769047Y44184119D01*
X23745238Y44207928D01*
X24340476Y44660309D02*
X24388095Y44660309D01*
X24435714Y44636500D01*
X24459523Y44612690D01*
X24483333Y44565071D01*
X24507142Y44469833D01*
X24507142Y44350785D01*
X24483333Y44255547D01*
X24459523Y44207928D01*
X24435714Y44184119D01*
X24388095Y44160309D01*
X24340476Y44160309D01*
X24292857Y44184119D01*
X24269047Y44207928D01*
X24245238Y44255547D01*
X24221428Y44350785D01*
X24221428Y44469833D01*
X24245238Y44565071D01*
X24269047Y44612690D01*
X24292857Y44636500D01*
X24340476Y44660309D01*
X24816666Y44660309D02*
X24864285Y44660309D01*
X24911904Y44636500D01*
X24935714Y44612690D01*
X24959523Y44565071D01*
X24983333Y44469833D01*
X24983333Y44350785D01*
X24959523Y44255547D01*
X24935714Y44207928D01*
X24911904Y44184119D01*
X24864285Y44160309D01*
X24816666Y44160309D01*
X24769047Y44184119D01*
X24745238Y44207928D01*
X24721428Y44255547D01*
X24697619Y44350785D01*
X24697619Y44469833D01*
X24721428Y44565071D01*
X24745238Y44612690D01*
X24769047Y44636500D01*
X24816666Y44660309D01*
X25197619Y44160309D02*
X25197619Y44660309D01*
X25245238Y44350785D02*
X25388095Y44160309D01*
X25388095Y44493642D02*
X25197619Y44303166D01*
X25602380Y44350785D02*
X25983333Y44350785D01*
X26197619Y44303166D02*
X26435714Y44303166D01*
X26150000Y44160309D02*
X26316666Y44660309D01*
X26483333Y44160309D01*
X26911904Y44160309D02*
X26626190Y44160309D01*
X26769047Y44160309D02*
X26769047Y44660309D01*
X26721428Y44588880D01*
X26673809Y44541261D01*
X26626190Y44517452D01*
X27126190Y44160309D02*
X27126190Y44660309D01*
X27292857Y44303166D01*
X27459523Y44660309D01*
X27459523Y44160309D01*
D15*
X23891904Y43320904D02*
X23772857Y43320904D01*
X23772857Y43570904D01*
X23975238Y43451857D02*
X24058571Y43451857D01*
X24094285Y43320904D02*
X23975238Y43320904D01*
X23975238Y43570904D01*
X24094285Y43570904D01*
X24284761Y43451857D02*
X24201428Y43451857D01*
X24201428Y43320904D02*
X24201428Y43570904D01*
X24320476Y43570904D01*
X24380000Y43570904D02*
X24522857Y43570904D01*
X24451428Y43320904D02*
X24451428Y43570904D01*
D12*
X28733333Y40063809D02*
X29042857Y40063809D01*
X28876190Y39873333D01*
X28947619Y39873333D01*
X28995238Y39849523D01*
X29019047Y39825714D01*
X29042857Y39778095D01*
X29042857Y39659047D01*
X29019047Y39611428D01*
X28995238Y39587619D01*
X28947619Y39563809D01*
X28804761Y39563809D01*
X28757142Y39587619D01*
X28733333Y39611428D01*
X22042857Y39538809D02*
X21757142Y39538809D01*
X21900000Y39538809D02*
X21900000Y40038809D01*
X21852380Y39967380D01*
X21804761Y39919761D01*
X21757142Y39895952D01*
X24532142Y39991190D02*
X24555952Y40015000D01*
X24603571Y40038809D01*
X24722619Y40038809D01*
X24770238Y40015000D01*
X24794047Y39991190D01*
X24817857Y39943571D01*
X24817857Y39895952D01*
X24794047Y39824523D01*
X24508333Y39538809D01*
X24817857Y39538809D01*
D15*
X26336666Y43320904D02*
X26253333Y43439952D01*
X26193809Y43320904D02*
X26193809Y43570904D01*
X26289047Y43570904D01*
X26312857Y43559000D01*
X26324761Y43547095D01*
X26336666Y43523285D01*
X26336666Y43487571D01*
X26324761Y43463761D01*
X26312857Y43451857D01*
X26289047Y43439952D01*
X26193809Y43439952D01*
X26443809Y43320904D02*
X26443809Y43570904D01*
X26693809Y43559000D02*
X26670000Y43570904D01*
X26634285Y43570904D01*
X26598571Y43559000D01*
X26574761Y43535190D01*
X26562857Y43511380D01*
X26550952Y43463761D01*
X26550952Y43428047D01*
X26562857Y43380428D01*
X26574761Y43356619D01*
X26598571Y43332809D01*
X26634285Y43320904D01*
X26658095Y43320904D01*
X26693809Y43332809D01*
X26705714Y43344714D01*
X26705714Y43428047D01*
X26658095Y43428047D01*
X26812857Y43320904D02*
X26812857Y43570904D01*
X26812857Y43451857D02*
X26955714Y43451857D01*
X26955714Y43320904D02*
X26955714Y43570904D01*
X27039047Y43570904D02*
X27181904Y43570904D01*
X27110476Y43320904D02*
X27110476Y43570904D01*
%TO.C,PITCH1*%
D11*
X34385547Y38092119D02*
X34385547Y39092119D01*
X34766500Y39092119D01*
X34861738Y39044500D01*
X34909357Y38996880D01*
X34956976Y38901642D01*
X34956976Y38758785D01*
X34909357Y38663547D01*
X34861738Y38615928D01*
X34766500Y38568309D01*
X34385547Y38568309D01*
X35385547Y38092119D02*
X35385547Y39092119D01*
X35718880Y39092119D02*
X36290309Y39092119D01*
X36004595Y38092119D02*
X36004595Y39092119D01*
X37195071Y38187357D02*
X37147452Y38139738D01*
X37004595Y38092119D01*
X36909357Y38092119D01*
X36766500Y38139738D01*
X36671261Y38234976D01*
X36623642Y38330214D01*
X36576023Y38520690D01*
X36576023Y38663547D01*
X36623642Y38854023D01*
X36671261Y38949261D01*
X36766500Y39044500D01*
X36909357Y39092119D01*
X37004595Y39092119D01*
X37147452Y39044500D01*
X37195071Y38996880D01*
X37623642Y38092119D02*
X37623642Y39092119D01*
X37623642Y38615928D02*
X38195071Y38615928D01*
X38195071Y38092119D02*
X38195071Y39092119D01*
X39195071Y38092119D02*
X38623642Y38092119D01*
X38909357Y38092119D02*
X38909357Y39092119D01*
X38814119Y38949261D01*
X38718880Y38854023D01*
X38623642Y38806404D01*
D12*
X36123642Y44422214D02*
X36195071Y44398404D01*
X36218880Y44374595D01*
X36242690Y44326976D01*
X36242690Y44255547D01*
X36218880Y44207928D01*
X36195071Y44184119D01*
X36147452Y44160309D01*
X35956976Y44160309D01*
X35956976Y44660309D01*
X36123642Y44660309D01*
X36171261Y44636500D01*
X36195071Y44612690D01*
X36218880Y44565071D01*
X36218880Y44517452D01*
X36195071Y44469833D01*
X36171261Y44446023D01*
X36123642Y44422214D01*
X35956976Y44422214D01*
X36695071Y44660309D02*
X36456976Y44660309D01*
X36433166Y44422214D01*
X36456976Y44446023D01*
X36504595Y44469833D01*
X36623642Y44469833D01*
X36671261Y44446023D01*
X36695071Y44422214D01*
X36718880Y44374595D01*
X36718880Y44255547D01*
X36695071Y44207928D01*
X36671261Y44184119D01*
X36623642Y44160309D01*
X36504595Y44160309D01*
X36456976Y44184119D01*
X36433166Y44207928D01*
X37028404Y44660309D02*
X37076023Y44660309D01*
X37123642Y44636500D01*
X37147452Y44612690D01*
X37171261Y44565071D01*
X37195071Y44469833D01*
X37195071Y44350785D01*
X37171261Y44255547D01*
X37147452Y44207928D01*
X37123642Y44184119D01*
X37076023Y44160309D01*
X37028404Y44160309D01*
X36980785Y44184119D01*
X36956976Y44207928D01*
X36933166Y44255547D01*
X36909357Y44350785D01*
X36909357Y44469833D01*
X36933166Y44565071D01*
X36956976Y44612690D01*
X36980785Y44636500D01*
X37028404Y44660309D01*
X37409357Y44160309D02*
X37409357Y44660309D01*
X37456976Y44350785D02*
X37599833Y44160309D01*
X37599833Y44493642D02*
X37409357Y44303166D01*
D15*
X37703166Y43320904D02*
X37619833Y43439952D01*
X37560309Y43320904D02*
X37560309Y43570904D01*
X37655547Y43570904D01*
X37679357Y43559000D01*
X37691261Y43547095D01*
X37703166Y43523285D01*
X37703166Y43487571D01*
X37691261Y43463761D01*
X37679357Y43451857D01*
X37655547Y43439952D01*
X37560309Y43439952D01*
X37810309Y43320904D02*
X37810309Y43570904D01*
X38060309Y43559000D02*
X38036500Y43570904D01*
X38000785Y43570904D01*
X37965071Y43559000D01*
X37941261Y43535190D01*
X37929357Y43511380D01*
X37917452Y43463761D01*
X37917452Y43428047D01*
X37929357Y43380428D01*
X37941261Y43356619D01*
X37965071Y43332809D01*
X38000785Y43320904D01*
X38024595Y43320904D01*
X38060309Y43332809D01*
X38072214Y43344714D01*
X38072214Y43428047D01*
X38024595Y43428047D01*
X38179357Y43320904D02*
X38179357Y43570904D01*
X38179357Y43451857D02*
X38322214Y43451857D01*
X38322214Y43320904D02*
X38322214Y43570904D01*
X38405547Y43570904D02*
X38548404Y43570904D01*
X38476976Y43320904D02*
X38476976Y43570904D01*
D12*
X35898642Y39991190D02*
X35922452Y40015000D01*
X35970071Y40038809D01*
X36089119Y40038809D01*
X36136738Y40015000D01*
X36160547Y39991190D01*
X36184357Y39943571D01*
X36184357Y39895952D01*
X36160547Y39824523D01*
X35874833Y39538809D01*
X36184357Y39538809D01*
X33409357Y39538809D02*
X33123642Y39538809D01*
X33266500Y39538809D02*
X33266500Y40038809D01*
X33218880Y39967380D01*
X33171261Y39919761D01*
X33123642Y39895952D01*
X40099833Y40063809D02*
X40409357Y40063809D01*
X40242690Y39873333D01*
X40314119Y39873333D01*
X40361738Y39849523D01*
X40385547Y39825714D01*
X40409357Y39778095D01*
X40409357Y39659047D01*
X40385547Y39611428D01*
X40361738Y39587619D01*
X40314119Y39563809D01*
X40171261Y39563809D01*
X40123642Y39587619D01*
X40099833Y39611428D01*
D15*
X35258404Y43320904D02*
X35139357Y43320904D01*
X35139357Y43570904D01*
X35341738Y43451857D02*
X35425071Y43451857D01*
X35460785Y43320904D02*
X35341738Y43320904D01*
X35341738Y43570904D01*
X35460785Y43570904D01*
X35651261Y43451857D02*
X35567928Y43451857D01*
X35567928Y43320904D02*
X35567928Y43570904D01*
X35686976Y43570904D01*
X35746500Y43570904D02*
X35889357Y43570904D01*
X35817928Y43320904D02*
X35817928Y43570904D01*
%TO.C,SENSE/STARVE1*%
D11*
X8112857Y38139738D02*
X8255714Y38092119D01*
X8493809Y38092119D01*
X8589047Y38139738D01*
X8636666Y38187357D01*
X8684285Y38282595D01*
X8684285Y38377833D01*
X8636666Y38473071D01*
X8589047Y38520690D01*
X8493809Y38568309D01*
X8303333Y38615928D01*
X8208095Y38663547D01*
X8160476Y38711166D01*
X8112857Y38806404D01*
X8112857Y38901642D01*
X8160476Y38996880D01*
X8208095Y39044500D01*
X8303333Y39092119D01*
X8541428Y39092119D01*
X8684285Y39044500D01*
X9112857Y38615928D02*
X9446190Y38615928D01*
X9589047Y38092119D02*
X9112857Y38092119D01*
X9112857Y39092119D01*
X9589047Y39092119D01*
X10017619Y38092119D02*
X10017619Y39092119D01*
X10589047Y38092119D01*
X10589047Y39092119D01*
X11017619Y38139738D02*
X11160476Y38092119D01*
X11398571Y38092119D01*
X11493809Y38139738D01*
X11541428Y38187357D01*
X11589047Y38282595D01*
X11589047Y38377833D01*
X11541428Y38473071D01*
X11493809Y38520690D01*
X11398571Y38568309D01*
X11208095Y38615928D01*
X11112857Y38663547D01*
X11065238Y38711166D01*
X11017619Y38806404D01*
X11017619Y38901642D01*
X11065238Y38996880D01*
X11112857Y39044500D01*
X11208095Y39092119D01*
X11446190Y39092119D01*
X11589047Y39044500D01*
X12017619Y38615928D02*
X12350952Y38615928D01*
X12493809Y38092119D02*
X12017619Y38092119D01*
X12017619Y39092119D01*
X12493809Y39092119D01*
X13636666Y39139738D02*
X12779523Y37854023D01*
X13922380Y38139738D02*
X14065238Y38092119D01*
X14303333Y38092119D01*
X14398571Y38139738D01*
X14446190Y38187357D01*
X14493809Y38282595D01*
X14493809Y38377833D01*
X14446190Y38473071D01*
X14398571Y38520690D01*
X14303333Y38568309D01*
X14112857Y38615928D01*
X14017619Y38663547D01*
X13970000Y38711166D01*
X13922380Y38806404D01*
X13922380Y38901642D01*
X13970000Y38996880D01*
X14017619Y39044500D01*
X14112857Y39092119D01*
X14350952Y39092119D01*
X14493809Y39044500D01*
X14779523Y39092119D02*
X15350952Y39092119D01*
X15065238Y38092119D02*
X15065238Y39092119D01*
X15636666Y38377833D02*
X16112857Y38377833D01*
X15541428Y38092119D02*
X15874761Y39092119D01*
X16208095Y38092119D01*
X17112857Y38092119D02*
X16779523Y38568309D01*
X16541428Y38092119D02*
X16541428Y39092119D01*
X16922380Y39092119D01*
X17017619Y39044500D01*
X17065238Y38996880D01*
X17112857Y38901642D01*
X17112857Y38758785D01*
X17065238Y38663547D01*
X17017619Y38615928D01*
X16922380Y38568309D01*
X16541428Y38568309D01*
X17398571Y39092119D02*
X17731904Y38092119D01*
X18065238Y39092119D01*
X18398571Y38615928D02*
X18731904Y38615928D01*
X18874761Y38092119D02*
X18398571Y38092119D01*
X18398571Y39092119D01*
X18874761Y39092119D01*
X19827142Y38092119D02*
X19255714Y38092119D01*
X19541428Y38092119D02*
X19541428Y39092119D01*
X19446190Y38949261D01*
X19350952Y38854023D01*
X19255714Y38806404D01*
D12*
X13172380Y44303166D02*
X13410476Y44303166D01*
X13124761Y44160309D02*
X13291428Y44660309D01*
X13458095Y44160309D01*
X13862857Y44660309D02*
X13624761Y44660309D01*
X13600952Y44422214D01*
X13624761Y44446023D01*
X13672380Y44469833D01*
X13791428Y44469833D01*
X13839047Y44446023D01*
X13862857Y44422214D01*
X13886666Y44374595D01*
X13886666Y44255547D01*
X13862857Y44207928D01*
X13839047Y44184119D01*
X13791428Y44160309D01*
X13672380Y44160309D01*
X13624761Y44184119D01*
X13600952Y44207928D01*
X14196190Y44660309D02*
X14243809Y44660309D01*
X14291428Y44636500D01*
X14315238Y44612690D01*
X14339047Y44565071D01*
X14362857Y44469833D01*
X14362857Y44350785D01*
X14339047Y44255547D01*
X14315238Y44207928D01*
X14291428Y44184119D01*
X14243809Y44160309D01*
X14196190Y44160309D01*
X14148571Y44184119D01*
X14124761Y44207928D01*
X14100952Y44255547D01*
X14077142Y44350785D01*
X14077142Y44469833D01*
X14100952Y44565071D01*
X14124761Y44612690D01*
X14148571Y44636500D01*
X14196190Y44660309D01*
X14577142Y44160309D02*
X14577142Y44660309D01*
X14624761Y44350785D02*
X14767619Y44160309D01*
X14767619Y44493642D02*
X14577142Y44303166D01*
D15*
X12461904Y43320904D02*
X12342857Y43320904D01*
X12342857Y43570904D01*
X12545238Y43451857D02*
X12628571Y43451857D01*
X12664285Y43320904D02*
X12545238Y43320904D01*
X12545238Y43570904D01*
X12664285Y43570904D01*
X12854761Y43451857D02*
X12771428Y43451857D01*
X12771428Y43320904D02*
X12771428Y43570904D01*
X12890476Y43570904D01*
X12950000Y43570904D02*
X13092857Y43570904D01*
X13021428Y43320904D02*
X13021428Y43570904D01*
D12*
X17303333Y40063809D02*
X17612857Y40063809D01*
X17446190Y39873333D01*
X17517619Y39873333D01*
X17565238Y39849523D01*
X17589047Y39825714D01*
X17612857Y39778095D01*
X17612857Y39659047D01*
X17589047Y39611428D01*
X17565238Y39587619D01*
X17517619Y39563809D01*
X17374761Y39563809D01*
X17327142Y39587619D01*
X17303333Y39611428D01*
X10612857Y39538809D02*
X10327142Y39538809D01*
X10470000Y39538809D02*
X10470000Y40038809D01*
X10422380Y39967380D01*
X10374761Y39919761D01*
X10327142Y39895952D01*
X13102142Y39991190D02*
X13125952Y40015000D01*
X13173571Y40038809D01*
X13292619Y40038809D01*
X13340238Y40015000D01*
X13364047Y39991190D01*
X13387857Y39943571D01*
X13387857Y39895952D01*
X13364047Y39824523D01*
X13078333Y39538809D01*
X13387857Y39538809D01*
D15*
X14906666Y43320904D02*
X14823333Y43439952D01*
X14763809Y43320904D02*
X14763809Y43570904D01*
X14859047Y43570904D01*
X14882857Y43559000D01*
X14894761Y43547095D01*
X14906666Y43523285D01*
X14906666Y43487571D01*
X14894761Y43463761D01*
X14882857Y43451857D01*
X14859047Y43439952D01*
X14763809Y43439952D01*
X15013809Y43320904D02*
X15013809Y43570904D01*
X15263809Y43559000D02*
X15240000Y43570904D01*
X15204285Y43570904D01*
X15168571Y43559000D01*
X15144761Y43535190D01*
X15132857Y43511380D01*
X15120952Y43463761D01*
X15120952Y43428047D01*
X15132857Y43380428D01*
X15144761Y43356619D01*
X15168571Y43332809D01*
X15204285Y43320904D01*
X15228095Y43320904D01*
X15263809Y43332809D01*
X15275714Y43344714D01*
X15275714Y43428047D01*
X15228095Y43428047D01*
X15382857Y43320904D02*
X15382857Y43570904D01*
X15382857Y43451857D02*
X15525714Y43451857D01*
X15525714Y43320904D02*
X15525714Y43570904D01*
X15609047Y43570904D02*
X15751904Y43570904D01*
X15680476Y43320904D02*
X15680476Y43570904D01*
%TO.C,Osc_Select1*%
D11*
X44101261Y39092119D02*
X44291738Y39092119D01*
X44386976Y39044500D01*
X44482214Y38949261D01*
X44529833Y38758785D01*
X44529833Y38425452D01*
X44482214Y38234976D01*
X44386976Y38139738D01*
X44291738Y38092119D01*
X44101261Y38092119D01*
X44006023Y38139738D01*
X43910785Y38234976D01*
X43863166Y38425452D01*
X43863166Y38758785D01*
X43910785Y38949261D01*
X44006023Y39044500D01*
X44101261Y39092119D01*
X44910785Y38139738D02*
X45006023Y38092119D01*
X45196500Y38092119D01*
X45291738Y38139738D01*
X45339357Y38234976D01*
X45339357Y38282595D01*
X45291738Y38377833D01*
X45196500Y38425452D01*
X45053642Y38425452D01*
X44958404Y38473071D01*
X44910785Y38568309D01*
X44910785Y38615928D01*
X44958404Y38711166D01*
X45053642Y38758785D01*
X45196500Y38758785D01*
X45291738Y38711166D01*
X46196500Y38139738D02*
X46101261Y38092119D01*
X45910785Y38092119D01*
X45815547Y38139738D01*
X45767928Y38187357D01*
X45720309Y38282595D01*
X45720309Y38568309D01*
X45767928Y38663547D01*
X45815547Y38711166D01*
X45910785Y38758785D01*
X46101261Y38758785D01*
X46196500Y38711166D01*
X46386976Y37996880D02*
X47148880Y37996880D01*
X47339357Y38139738D02*
X47482214Y38092119D01*
X47720309Y38092119D01*
X47815547Y38139738D01*
X47863166Y38187357D01*
X47910785Y38282595D01*
X47910785Y38377833D01*
X47863166Y38473071D01*
X47815547Y38520690D01*
X47720309Y38568309D01*
X47529833Y38615928D01*
X47434595Y38663547D01*
X47386976Y38711166D01*
X47339357Y38806404D01*
X47339357Y38901642D01*
X47386976Y38996880D01*
X47434595Y39044500D01*
X47529833Y39092119D01*
X47767928Y39092119D01*
X47910785Y39044500D01*
X48720309Y38139738D02*
X48625071Y38092119D01*
X48434595Y38092119D01*
X48339357Y38139738D01*
X48291738Y38234976D01*
X48291738Y38615928D01*
X48339357Y38711166D01*
X48434595Y38758785D01*
X48625071Y38758785D01*
X48720309Y38711166D01*
X48767928Y38615928D01*
X48767928Y38520690D01*
X48291738Y38425452D01*
X49339357Y38092119D02*
X49244119Y38139738D01*
X49196500Y38234976D01*
X49196500Y39092119D01*
X50101261Y38139738D02*
X50006023Y38092119D01*
X49815547Y38092119D01*
X49720309Y38139738D01*
X49672690Y38234976D01*
X49672690Y38615928D01*
X49720309Y38711166D01*
X49815547Y38758785D01*
X50006023Y38758785D01*
X50101261Y38711166D01*
X50148880Y38615928D01*
X50148880Y38520690D01*
X49672690Y38425452D01*
X51006023Y38139738D02*
X50910785Y38092119D01*
X50720309Y38092119D01*
X50625071Y38139738D01*
X50577452Y38187357D01*
X50529833Y38282595D01*
X50529833Y38568309D01*
X50577452Y38663547D01*
X50625071Y38711166D01*
X50720309Y38758785D01*
X50910785Y38758785D01*
X51006023Y38711166D01*
X51291738Y38758785D02*
X51672690Y38758785D01*
X51434595Y39092119D02*
X51434595Y38234976D01*
X51482214Y38139738D01*
X51577452Y38092119D01*
X51672690Y38092119D01*
X52529833Y38092119D02*
X51958404Y38092119D01*
X52244119Y38092119D02*
X52244119Y39092119D01*
X52148880Y38949261D01*
X52053642Y38854023D01*
X51958404Y38806404D01*
D12*
X46148880Y44184119D02*
X46220309Y44160309D01*
X46339357Y44160309D01*
X46386976Y44184119D01*
X46410785Y44207928D01*
X46434595Y44255547D01*
X46434595Y44303166D01*
X46410785Y44350785D01*
X46386976Y44374595D01*
X46339357Y44398404D01*
X46244119Y44422214D01*
X46196500Y44446023D01*
X46172690Y44469833D01*
X46148880Y44517452D01*
X46148880Y44565071D01*
X46172690Y44612690D01*
X46196500Y44636500D01*
X46244119Y44660309D01*
X46363166Y44660309D01*
X46434595Y44636500D01*
X46648880Y44160309D02*
X46648880Y44660309D01*
X46839357Y44660309D01*
X46886976Y44636500D01*
X46910785Y44612690D01*
X46934595Y44565071D01*
X46934595Y44493642D01*
X46910785Y44446023D01*
X46886976Y44422214D01*
X46839357Y44398404D01*
X46648880Y44398404D01*
X47148880Y44160309D02*
X47148880Y44660309D01*
X47267928Y44660309D01*
X47339357Y44636500D01*
X47386976Y44588880D01*
X47410785Y44541261D01*
X47434595Y44446023D01*
X47434595Y44374595D01*
X47410785Y44279357D01*
X47386976Y44231738D01*
X47339357Y44184119D01*
X47267928Y44160309D01*
X47148880Y44160309D01*
X47577452Y44660309D02*
X47863166Y44660309D01*
X47720309Y44160309D02*
X47720309Y44660309D01*
X47910785Y44112690D02*
X48291738Y44112690D01*
X48386976Y44184119D02*
X48434595Y44160309D01*
X48529833Y44160309D01*
X48577452Y44184119D01*
X48601261Y44231738D01*
X48601261Y44255547D01*
X48577452Y44303166D01*
X48529833Y44326976D01*
X48458404Y44326976D01*
X48410785Y44350785D01*
X48386976Y44398404D01*
X48386976Y44422214D01*
X48410785Y44469833D01*
X48458404Y44493642D01*
X48529833Y44493642D01*
X48577452Y44469833D01*
X48815547Y44160309D02*
X48815547Y44493642D01*
X48815547Y44446023D02*
X48839357Y44469833D01*
X48886976Y44493642D01*
X48958404Y44493642D01*
X49006023Y44469833D01*
X49029833Y44422214D01*
X49029833Y44160309D01*
X49029833Y44422214D02*
X49053642Y44469833D01*
X49101261Y44493642D01*
X49172690Y44493642D01*
X49220309Y44469833D01*
X49244119Y44422214D01*
X49244119Y44160309D01*
X49696500Y44160309D02*
X49696500Y44422214D01*
X49672690Y44469833D01*
X49625071Y44493642D01*
X49529833Y44493642D01*
X49482214Y44469833D01*
X49696500Y44184119D02*
X49648880Y44160309D01*
X49529833Y44160309D01*
X49482214Y44184119D01*
X49458404Y44231738D01*
X49458404Y44279357D01*
X49482214Y44326976D01*
X49529833Y44350785D01*
X49648880Y44350785D01*
X49696500Y44374595D01*
X50006023Y44160309D02*
X49958404Y44184119D01*
X49934595Y44231738D01*
X49934595Y44660309D01*
X50267928Y44160309D02*
X50220309Y44184119D01*
X50196500Y44231738D01*
X50196500Y44660309D01*
D15*
X46337214Y43332809D02*
X46372928Y43320904D01*
X46432452Y43320904D01*
X46456261Y43332809D01*
X46468166Y43344714D01*
X46480071Y43368523D01*
X46480071Y43392333D01*
X46468166Y43416142D01*
X46456261Y43428047D01*
X46432452Y43439952D01*
X46384833Y43451857D01*
X46361023Y43463761D01*
X46349119Y43475666D01*
X46337214Y43499476D01*
X46337214Y43523285D01*
X46349119Y43547095D01*
X46361023Y43559000D01*
X46384833Y43570904D01*
X46444357Y43570904D01*
X46480071Y43559000D01*
X46551500Y43570904D02*
X46694357Y43570904D01*
X46622928Y43320904D02*
X46622928Y43570904D01*
X46920547Y43320904D02*
X46837214Y43439952D01*
X46777690Y43320904D02*
X46777690Y43570904D01*
X46872928Y43570904D01*
X46896738Y43559000D01*
X46908642Y43547095D01*
X46920547Y43523285D01*
X46920547Y43487571D01*
X46908642Y43463761D01*
X46896738Y43451857D01*
X46872928Y43439952D01*
X46777690Y43439952D01*
X47015785Y43392333D02*
X47134833Y43392333D01*
X46991976Y43320904D02*
X47075309Y43570904D01*
X47158642Y43320904D01*
X47241976Y43320904D02*
X47241976Y43570904D01*
X47361023Y43320904D02*
X47361023Y43570904D01*
X47503880Y43320904D01*
X47503880Y43570904D01*
D12*
X51529833Y40063809D02*
X51839357Y40063809D01*
X51672690Y39873333D01*
X51744119Y39873333D01*
X51791738Y39849523D01*
X51815547Y39825714D01*
X51839357Y39778095D01*
X51839357Y39659047D01*
X51815547Y39611428D01*
X51791738Y39587619D01*
X51744119Y39563809D01*
X51601261Y39563809D01*
X51553642Y39587619D01*
X51529833Y39611428D01*
X44839357Y39538809D02*
X44553642Y39538809D01*
X44696500Y39538809D02*
X44696500Y40038809D01*
X44648880Y39967380D01*
X44601261Y39919761D01*
X44553642Y39895952D01*
X47328642Y39991190D02*
X47352452Y40015000D01*
X47400071Y40038809D01*
X47519119Y40038809D01*
X47566738Y40015000D01*
X47590547Y39991190D01*
X47614357Y39943571D01*
X47614357Y39895952D01*
X47590547Y39824523D01*
X47304833Y39538809D01*
X47614357Y39538809D01*
D15*
X48877214Y43332809D02*
X48912928Y43320904D01*
X48972452Y43320904D01*
X48996261Y43332809D01*
X49008166Y43344714D01*
X49020071Y43368523D01*
X49020071Y43392333D01*
X49008166Y43416142D01*
X48996261Y43428047D01*
X48972452Y43439952D01*
X48924833Y43451857D01*
X48901023Y43463761D01*
X48889119Y43475666D01*
X48877214Y43499476D01*
X48877214Y43523285D01*
X48889119Y43547095D01*
X48901023Y43559000D01*
X48924833Y43570904D01*
X48984357Y43570904D01*
X49020071Y43559000D01*
X49091500Y43570904D02*
X49234357Y43570904D01*
X49162928Y43320904D02*
X49162928Y43570904D01*
X49460547Y43320904D02*
X49377214Y43439952D01*
X49317690Y43320904D02*
X49317690Y43570904D01*
X49412928Y43570904D01*
X49436738Y43559000D01*
X49448642Y43547095D01*
X49460547Y43523285D01*
X49460547Y43487571D01*
X49448642Y43463761D01*
X49436738Y43451857D01*
X49412928Y43439952D01*
X49317690Y43439952D01*
X49555785Y43392333D02*
X49674833Y43392333D01*
X49531976Y43320904D02*
X49615309Y43570904D01*
X49698642Y43320904D01*
X49781976Y43320904D02*
X49781976Y43570904D01*
X49901023Y43320904D02*
X49901023Y43570904D01*
X50043880Y43320904D01*
X50043880Y43570904D01*
%TO.C,Button_ON1*%
D11*
X6307142Y1552857D02*
X6335714Y1638571D01*
X6364285Y1667142D01*
X6421428Y1695714D01*
X6507142Y1695714D01*
X6564285Y1667142D01*
X6592857Y1638571D01*
X6621428Y1581428D01*
X6621428Y1352857D01*
X6021428Y1352857D01*
X6021428Y1552857D01*
X6050000Y1610000D01*
X6078571Y1638571D01*
X6135714Y1667142D01*
X6192857Y1667142D01*
X6250000Y1638571D01*
X6278571Y1610000D01*
X6307142Y1552857D01*
X6307142Y1352857D01*
X6221428Y2210000D02*
X6621428Y2210000D01*
X6221428Y1952857D02*
X6535714Y1952857D01*
X6592857Y1981428D01*
X6621428Y2038571D01*
X6621428Y2124285D01*
X6592857Y2181428D01*
X6564285Y2210000D01*
X6221428Y2410000D02*
X6221428Y2638571D01*
X6021428Y2495714D02*
X6535714Y2495714D01*
X6592857Y2524285D01*
X6621428Y2581428D01*
X6621428Y2638571D01*
X6221428Y2752857D02*
X6221428Y2981428D01*
X6021428Y2838571D02*
X6535714Y2838571D01*
X6592857Y2867142D01*
X6621428Y2924285D01*
X6621428Y2981428D01*
X6621428Y3267142D02*
X6592857Y3210000D01*
X6564285Y3181428D01*
X6507142Y3152857D01*
X6335714Y3152857D01*
X6278571Y3181428D01*
X6250000Y3210000D01*
X6221428Y3267142D01*
X6221428Y3352857D01*
X6250000Y3410000D01*
X6278571Y3438571D01*
X6335714Y3467142D01*
X6507142Y3467142D01*
X6564285Y3438571D01*
X6592857Y3410000D01*
X6621428Y3352857D01*
X6621428Y3267142D01*
X6221428Y3724285D02*
X6621428Y3724285D01*
X6278571Y3724285D02*
X6250000Y3752857D01*
X6221428Y3810000D01*
X6221428Y3895714D01*
X6250000Y3952857D01*
X6307142Y3981428D01*
X6621428Y3981428D01*
X6678571Y4124285D02*
X6678571Y4581428D01*
X6021428Y4838571D02*
X6021428Y4952857D01*
X6050000Y5010000D01*
X6107142Y5067142D01*
X6221428Y5095714D01*
X6421428Y5095714D01*
X6535714Y5067142D01*
X6592857Y5010000D01*
X6621428Y4952857D01*
X6621428Y4838571D01*
X6592857Y4781428D01*
X6535714Y4724285D01*
X6421428Y4695714D01*
X6221428Y4695714D01*
X6107142Y4724285D01*
X6050000Y4781428D01*
X6021428Y4838571D01*
X6621428Y5352857D02*
X6021428Y5352857D01*
X6621428Y5695714D01*
X6021428Y5695714D01*
X6621428Y6295714D02*
X6621428Y5952857D01*
X6621428Y6124285D02*
X6021428Y6124285D01*
X6107142Y6067142D01*
X6164285Y6010000D01*
X6192857Y5952857D01*
D12*
X504285Y6782619D02*
X575714Y6758809D01*
X694761Y6758809D01*
X742380Y6782619D01*
X766190Y6806428D01*
X790000Y6854047D01*
X790000Y6901666D01*
X766190Y6949285D01*
X742380Y6973095D01*
X694761Y6996904D01*
X599523Y7020714D01*
X551904Y7044523D01*
X528095Y7068333D01*
X504285Y7115952D01*
X504285Y7163571D01*
X528095Y7211190D01*
X551904Y7235000D01*
X599523Y7258809D01*
X718571Y7258809D01*
X790000Y7235000D01*
X1004285Y6758809D02*
X1004285Y7258809D01*
X1194761Y7258809D01*
X1242380Y7235000D01*
X1266190Y7211190D01*
X1290000Y7163571D01*
X1290000Y7092142D01*
X1266190Y7044523D01*
X1242380Y7020714D01*
X1194761Y6996904D01*
X1004285Y6996904D01*
X1480476Y6782619D02*
X1551904Y6758809D01*
X1670952Y6758809D01*
X1718571Y6782619D01*
X1742380Y6806428D01*
X1766190Y6854047D01*
X1766190Y6901666D01*
X1742380Y6949285D01*
X1718571Y6973095D01*
X1670952Y6996904D01*
X1575714Y7020714D01*
X1528095Y7044523D01*
X1504285Y7068333D01*
X1480476Y7115952D01*
X1480476Y7163571D01*
X1504285Y7211190D01*
X1528095Y7235000D01*
X1575714Y7258809D01*
X1694761Y7258809D01*
X1766190Y7235000D01*
X1909047Y7258809D02*
X2194761Y7258809D01*
X2051904Y6758809D02*
X2051904Y7258809D01*
X2242380Y6711190D02*
X2623333Y6711190D01*
X2718571Y6782619D02*
X2766190Y6758809D01*
X2861428Y6758809D01*
X2909047Y6782619D01*
X2932857Y6830238D01*
X2932857Y6854047D01*
X2909047Y6901666D01*
X2861428Y6925476D01*
X2790000Y6925476D01*
X2742380Y6949285D01*
X2718571Y6996904D01*
X2718571Y7020714D01*
X2742380Y7068333D01*
X2790000Y7092142D01*
X2861428Y7092142D01*
X2909047Y7068333D01*
X3147142Y6758809D02*
X3147142Y7092142D01*
X3147142Y7044523D02*
X3170952Y7068333D01*
X3218571Y7092142D01*
X3290000Y7092142D01*
X3337619Y7068333D01*
X3361428Y7020714D01*
X3361428Y6758809D01*
X3361428Y7020714D02*
X3385238Y7068333D01*
X3432857Y7092142D01*
X3504285Y7092142D01*
X3551904Y7068333D01*
X3575714Y7020714D01*
X3575714Y6758809D01*
X4028095Y6758809D02*
X4028095Y7020714D01*
X4004285Y7068333D01*
X3956666Y7092142D01*
X3861428Y7092142D01*
X3813809Y7068333D01*
X4028095Y6782619D02*
X3980476Y6758809D01*
X3861428Y6758809D01*
X3813809Y6782619D01*
X3790000Y6830238D01*
X3790000Y6877857D01*
X3813809Y6925476D01*
X3861428Y6949285D01*
X3980476Y6949285D01*
X4028095Y6973095D01*
X4337619Y6758809D02*
X4290000Y6782619D01*
X4266190Y6830238D01*
X4266190Y7258809D01*
X4599523Y6758809D02*
X4551904Y6782619D01*
X4528095Y6830238D01*
X4528095Y7258809D01*
X4861690Y1793857D02*
X4861690Y1508142D01*
X4861690Y1651000D02*
X4361690Y1651000D01*
X4433119Y1603380D01*
X4480738Y1555761D01*
X4504547Y1508142D01*
X4409309Y5826142D02*
X4385500Y5849952D01*
X4361690Y5897571D01*
X4361690Y6016619D01*
X4385500Y6064238D01*
X4409309Y6088047D01*
X4456928Y6111857D01*
X4504547Y6111857D01*
X4575976Y6088047D01*
X4861690Y5802333D01*
X4861690Y6111857D01*
D15*
X1117190Y3220714D02*
X1129095Y3256428D01*
X1129095Y3315952D01*
X1117190Y3339761D01*
X1105285Y3351666D01*
X1081476Y3363571D01*
X1057666Y3363571D01*
X1033857Y3351666D01*
X1021952Y3339761D01*
X1010047Y3315952D01*
X998142Y3268333D01*
X986238Y3244523D01*
X974333Y3232619D01*
X950523Y3220714D01*
X926714Y3220714D01*
X902904Y3232619D01*
X891000Y3244523D01*
X879095Y3268333D01*
X879095Y3327857D01*
X891000Y3363571D01*
X879095Y3435000D02*
X879095Y3577857D01*
X1129095Y3506428D02*
X879095Y3506428D01*
X1129095Y3804047D02*
X1010047Y3720714D01*
X1129095Y3661190D02*
X879095Y3661190D01*
X879095Y3756428D01*
X891000Y3780238D01*
X902904Y3792142D01*
X926714Y3804047D01*
X962428Y3804047D01*
X986238Y3792142D01*
X998142Y3780238D01*
X1010047Y3756428D01*
X1010047Y3661190D01*
X1057666Y3899285D02*
X1057666Y4018333D01*
X1129095Y3875476D02*
X879095Y3958809D01*
X1129095Y4042142D01*
X1129095Y4125476D02*
X879095Y4125476D01*
X1129095Y4244523D02*
X879095Y4244523D01*
X1129095Y4387380D01*
X879095Y4387380D01*
%TO.C,PWR2*%
D11*
X56595928Y9137785D02*
X55995928Y9137785D01*
X55995928Y9366357D01*
X56024500Y9423500D01*
X56053071Y9452071D01*
X56110214Y9480642D01*
X56195928Y9480642D01*
X56253071Y9452071D01*
X56281642Y9423500D01*
X56310214Y9366357D01*
X56310214Y9137785D01*
X55995928Y9680642D02*
X56595928Y9823500D01*
X56167357Y9937785D01*
X56595928Y10052071D01*
X55995928Y10194928D01*
X56595928Y10766357D02*
X56310214Y10566357D01*
X56595928Y10423500D02*
X55995928Y10423500D01*
X55995928Y10652071D01*
X56024500Y10709214D01*
X56053071Y10737785D01*
X56110214Y10766357D01*
X56195928Y10766357D01*
X56253071Y10737785D01*
X56281642Y10709214D01*
X56310214Y10652071D01*
X56310214Y10423500D01*
X56053071Y10994928D02*
X56024500Y11023500D01*
X55995928Y11080642D01*
X55995928Y11223500D01*
X56024500Y11280642D01*
X56053071Y11309214D01*
X56110214Y11337785D01*
X56167357Y11337785D01*
X56253071Y11309214D01*
X56595928Y10966357D01*
X56595928Y11337785D01*
D12*
X57654285Y13132619D02*
X57725714Y13108809D01*
X57844761Y13108809D01*
X57892380Y13132619D01*
X57916190Y13156428D01*
X57940000Y13204047D01*
X57940000Y13251666D01*
X57916190Y13299285D01*
X57892380Y13323095D01*
X57844761Y13346904D01*
X57749523Y13370714D01*
X57701904Y13394523D01*
X57678095Y13418333D01*
X57654285Y13465952D01*
X57654285Y13513571D01*
X57678095Y13561190D01*
X57701904Y13585000D01*
X57749523Y13608809D01*
X57868571Y13608809D01*
X57940000Y13585000D01*
X58154285Y13108809D02*
X58154285Y13608809D01*
X58344761Y13608809D01*
X58392380Y13585000D01*
X58416190Y13561190D01*
X58440000Y13513571D01*
X58440000Y13442142D01*
X58416190Y13394523D01*
X58392380Y13370714D01*
X58344761Y13346904D01*
X58154285Y13346904D01*
X58630476Y13132619D02*
X58701904Y13108809D01*
X58820952Y13108809D01*
X58868571Y13132619D01*
X58892380Y13156428D01*
X58916190Y13204047D01*
X58916190Y13251666D01*
X58892380Y13299285D01*
X58868571Y13323095D01*
X58820952Y13346904D01*
X58725714Y13370714D01*
X58678095Y13394523D01*
X58654285Y13418333D01*
X58630476Y13465952D01*
X58630476Y13513571D01*
X58654285Y13561190D01*
X58678095Y13585000D01*
X58725714Y13608809D01*
X58844761Y13608809D01*
X58916190Y13585000D01*
X59059047Y13608809D02*
X59344761Y13608809D01*
X59201904Y13108809D02*
X59201904Y13608809D01*
X59392380Y13061190D02*
X59773333Y13061190D01*
X59868571Y13132619D02*
X59916190Y13108809D01*
X60011428Y13108809D01*
X60059047Y13132619D01*
X60082857Y13180238D01*
X60082857Y13204047D01*
X60059047Y13251666D01*
X60011428Y13275476D01*
X59940000Y13275476D01*
X59892380Y13299285D01*
X59868571Y13346904D01*
X59868571Y13370714D01*
X59892380Y13418333D01*
X59940000Y13442142D01*
X60011428Y13442142D01*
X60059047Y13418333D01*
X60297142Y13108809D02*
X60297142Y13442142D01*
X60297142Y13394523D02*
X60320952Y13418333D01*
X60368571Y13442142D01*
X60440000Y13442142D01*
X60487619Y13418333D01*
X60511428Y13370714D01*
X60511428Y13108809D01*
X60511428Y13370714D02*
X60535238Y13418333D01*
X60582857Y13442142D01*
X60654285Y13442142D01*
X60701904Y13418333D01*
X60725714Y13370714D01*
X60725714Y13108809D01*
X61178095Y13108809D02*
X61178095Y13370714D01*
X61154285Y13418333D01*
X61106666Y13442142D01*
X61011428Y13442142D01*
X60963809Y13418333D01*
X61178095Y13132619D02*
X61130476Y13108809D01*
X61011428Y13108809D01*
X60963809Y13132619D01*
X60940000Y13180238D01*
X60940000Y13227857D01*
X60963809Y13275476D01*
X61011428Y13299285D01*
X61130476Y13299285D01*
X61178095Y13323095D01*
X61487619Y13108809D02*
X61440000Y13132619D01*
X61416190Y13180238D01*
X61416190Y13608809D01*
X61749523Y13108809D02*
X61701904Y13132619D01*
X61678095Y13180238D01*
X61678095Y13608809D01*
D15*
X61315190Y9570714D02*
X61327095Y9606428D01*
X61327095Y9665952D01*
X61315190Y9689761D01*
X61303285Y9701666D01*
X61279476Y9713571D01*
X61255666Y9713571D01*
X61231857Y9701666D01*
X61219952Y9689761D01*
X61208047Y9665952D01*
X61196142Y9618333D01*
X61184238Y9594523D01*
X61172333Y9582619D01*
X61148523Y9570714D01*
X61124714Y9570714D01*
X61100904Y9582619D01*
X61089000Y9594523D01*
X61077095Y9618333D01*
X61077095Y9677857D01*
X61089000Y9713571D01*
X61077095Y9785000D02*
X61077095Y9927857D01*
X61327095Y9856428D02*
X61077095Y9856428D01*
X61327095Y10154047D02*
X61208047Y10070714D01*
X61327095Y10011190D02*
X61077095Y10011190D01*
X61077095Y10106428D01*
X61089000Y10130238D01*
X61100904Y10142142D01*
X61124714Y10154047D01*
X61160428Y10154047D01*
X61184238Y10142142D01*
X61196142Y10130238D01*
X61208047Y10106428D01*
X61208047Y10011190D01*
X61255666Y10249285D02*
X61255666Y10368333D01*
X61327095Y10225476D02*
X61077095Y10308809D01*
X61327095Y10392142D01*
X61327095Y10475476D02*
X61077095Y10475476D01*
X61327095Y10594523D02*
X61077095Y10594523D01*
X61327095Y10737380D01*
X61077095Y10737380D01*
D12*
X57368309Y7858142D02*
X57344500Y7881952D01*
X57320690Y7929571D01*
X57320690Y8048619D01*
X57344500Y8096238D01*
X57368309Y8120047D01*
X57415928Y8143857D01*
X57463547Y8143857D01*
X57534976Y8120047D01*
X57820690Y7834333D01*
X57820690Y8143857D01*
X57820690Y12461857D02*
X57820690Y12176142D01*
X57820690Y12319000D02*
X57320690Y12319000D01*
X57392119Y12271380D01*
X57439738Y12223761D01*
X57463547Y12176142D01*
%TO.C,Switch_On1*%
D11*
X6592857Y7731428D02*
X6621428Y7817142D01*
X6621428Y7960000D01*
X6592857Y8017142D01*
X6564285Y8045714D01*
X6507142Y8074285D01*
X6450000Y8074285D01*
X6392857Y8045714D01*
X6364285Y8017142D01*
X6335714Y7960000D01*
X6307142Y7845714D01*
X6278571Y7788571D01*
X6250000Y7760000D01*
X6192857Y7731428D01*
X6135714Y7731428D01*
X6078571Y7760000D01*
X6050000Y7788571D01*
X6021428Y7845714D01*
X6021428Y7988571D01*
X6050000Y8074285D01*
X6221428Y8274285D02*
X6621428Y8388571D01*
X6335714Y8502857D01*
X6621428Y8617142D01*
X6221428Y8731428D01*
X6621428Y8960000D02*
X6221428Y8960000D01*
X6021428Y8960000D02*
X6050000Y8931428D01*
X6078571Y8960000D01*
X6050000Y8988571D01*
X6021428Y8960000D01*
X6078571Y8960000D01*
X6221428Y9160000D02*
X6221428Y9388571D01*
X6021428Y9245714D02*
X6535714Y9245714D01*
X6592857Y9274285D01*
X6621428Y9331428D01*
X6621428Y9388571D01*
X6592857Y9845714D02*
X6621428Y9788571D01*
X6621428Y9674285D01*
X6592857Y9617142D01*
X6564285Y9588571D01*
X6507142Y9560000D01*
X6335714Y9560000D01*
X6278571Y9588571D01*
X6250000Y9617142D01*
X6221428Y9674285D01*
X6221428Y9788571D01*
X6250000Y9845714D01*
X6621428Y10102857D02*
X6021428Y10102857D01*
X6621428Y10360000D02*
X6307142Y10360000D01*
X6250000Y10331428D01*
X6221428Y10274285D01*
X6221428Y10188571D01*
X6250000Y10131428D01*
X6278571Y10102857D01*
X6678571Y10502857D02*
X6678571Y10960000D01*
X6021428Y11217142D02*
X6021428Y11331428D01*
X6050000Y11388571D01*
X6107142Y11445714D01*
X6221428Y11474285D01*
X6421428Y11474285D01*
X6535714Y11445714D01*
X6592857Y11388571D01*
X6621428Y11331428D01*
X6621428Y11217142D01*
X6592857Y11160000D01*
X6535714Y11102857D01*
X6421428Y11074285D01*
X6221428Y11074285D01*
X6107142Y11102857D01*
X6050000Y11160000D01*
X6021428Y11217142D01*
X6221428Y11731428D02*
X6621428Y11731428D01*
X6278571Y11731428D02*
X6250000Y11760000D01*
X6221428Y11817142D01*
X6221428Y11902857D01*
X6250000Y11960000D01*
X6307142Y11988571D01*
X6621428Y11988571D01*
X6621428Y12588571D02*
X6621428Y12245714D01*
X6621428Y12417142D02*
X6021428Y12417142D01*
X6107142Y12360000D01*
X6164285Y12302857D01*
X6192857Y12245714D01*
D12*
X504285Y13132619D02*
X575714Y13108809D01*
X694761Y13108809D01*
X742380Y13132619D01*
X766190Y13156428D01*
X790000Y13204047D01*
X790000Y13251666D01*
X766190Y13299285D01*
X742380Y13323095D01*
X694761Y13346904D01*
X599523Y13370714D01*
X551904Y13394523D01*
X528095Y13418333D01*
X504285Y13465952D01*
X504285Y13513571D01*
X528095Y13561190D01*
X551904Y13585000D01*
X599523Y13608809D01*
X718571Y13608809D01*
X790000Y13585000D01*
X1004285Y13108809D02*
X1004285Y13608809D01*
X1194761Y13608809D01*
X1242380Y13585000D01*
X1266190Y13561190D01*
X1290000Y13513571D01*
X1290000Y13442142D01*
X1266190Y13394523D01*
X1242380Y13370714D01*
X1194761Y13346904D01*
X1004285Y13346904D01*
X1480476Y13132619D02*
X1551904Y13108809D01*
X1670952Y13108809D01*
X1718571Y13132619D01*
X1742380Y13156428D01*
X1766190Y13204047D01*
X1766190Y13251666D01*
X1742380Y13299285D01*
X1718571Y13323095D01*
X1670952Y13346904D01*
X1575714Y13370714D01*
X1528095Y13394523D01*
X1504285Y13418333D01*
X1480476Y13465952D01*
X1480476Y13513571D01*
X1504285Y13561190D01*
X1528095Y13585000D01*
X1575714Y13608809D01*
X1694761Y13608809D01*
X1766190Y13585000D01*
X1909047Y13608809D02*
X2194761Y13608809D01*
X2051904Y13108809D02*
X2051904Y13608809D01*
X2242380Y13061190D02*
X2623333Y13061190D01*
X2718571Y13132619D02*
X2766190Y13108809D01*
X2861428Y13108809D01*
X2909047Y13132619D01*
X2932857Y13180238D01*
X2932857Y13204047D01*
X2909047Y13251666D01*
X2861428Y13275476D01*
X2790000Y13275476D01*
X2742380Y13299285D01*
X2718571Y13346904D01*
X2718571Y13370714D01*
X2742380Y13418333D01*
X2790000Y13442142D01*
X2861428Y13442142D01*
X2909047Y13418333D01*
X3147142Y13108809D02*
X3147142Y13442142D01*
X3147142Y13394523D02*
X3170952Y13418333D01*
X3218571Y13442142D01*
X3290000Y13442142D01*
X3337619Y13418333D01*
X3361428Y13370714D01*
X3361428Y13108809D01*
X3361428Y13370714D02*
X3385238Y13418333D01*
X3432857Y13442142D01*
X3504285Y13442142D01*
X3551904Y13418333D01*
X3575714Y13370714D01*
X3575714Y13108809D01*
X4028095Y13108809D02*
X4028095Y13370714D01*
X4004285Y13418333D01*
X3956666Y13442142D01*
X3861428Y13442142D01*
X3813809Y13418333D01*
X4028095Y13132619D02*
X3980476Y13108809D01*
X3861428Y13108809D01*
X3813809Y13132619D01*
X3790000Y13180238D01*
X3790000Y13227857D01*
X3813809Y13275476D01*
X3861428Y13299285D01*
X3980476Y13299285D01*
X4028095Y13323095D01*
X4337619Y13108809D02*
X4290000Y13132619D01*
X4266190Y13180238D01*
X4266190Y13608809D01*
X4599523Y13108809D02*
X4551904Y13132619D01*
X4528095Y13180238D01*
X4528095Y13608809D01*
X4861690Y8143857D02*
X4861690Y7858142D01*
X4861690Y8001000D02*
X4361690Y8001000D01*
X4433119Y7953380D01*
X4480738Y7905761D01*
X4504547Y7858142D01*
X4409309Y12176142D02*
X4385500Y12199952D01*
X4361690Y12247571D01*
X4361690Y12366619D01*
X4385500Y12414238D01*
X4409309Y12438047D01*
X4456928Y12461857D01*
X4504547Y12461857D01*
X4575976Y12438047D01*
X4861690Y12152333D01*
X4861690Y12461857D01*
D15*
X2641190Y9570714D02*
X2653095Y9606428D01*
X2653095Y9665952D01*
X2641190Y9689761D01*
X2629285Y9701666D01*
X2605476Y9713571D01*
X2581666Y9713571D01*
X2557857Y9701666D01*
X2545952Y9689761D01*
X2534047Y9665952D01*
X2522142Y9618333D01*
X2510238Y9594523D01*
X2498333Y9582619D01*
X2474523Y9570714D01*
X2450714Y9570714D01*
X2426904Y9582619D01*
X2415000Y9594523D01*
X2403095Y9618333D01*
X2403095Y9677857D01*
X2415000Y9713571D01*
X2403095Y9785000D02*
X2403095Y9927857D01*
X2653095Y9856428D02*
X2403095Y9856428D01*
X2653095Y10154047D02*
X2534047Y10070714D01*
X2653095Y10011190D02*
X2403095Y10011190D01*
X2403095Y10106428D01*
X2415000Y10130238D01*
X2426904Y10142142D01*
X2450714Y10154047D01*
X2486428Y10154047D01*
X2510238Y10142142D01*
X2522142Y10130238D01*
X2534047Y10106428D01*
X2534047Y10011190D01*
X2581666Y10249285D02*
X2581666Y10368333D01*
X2653095Y10225476D02*
X2403095Y10308809D01*
X2653095Y10392142D01*
X2653095Y10475476D02*
X2403095Y10475476D01*
X2653095Y10594523D02*
X2403095Y10594523D01*
X2653095Y10737380D01*
X2403095Y10737380D01*
%TO.C,U2*%
D11*
X23833980Y21082095D02*
X24643504Y21082095D01*
X24738742Y21129714D01*
X24786361Y21177333D01*
X24833980Y21272571D01*
X24833980Y21463047D01*
X24786361Y21558285D01*
X24738742Y21605904D01*
X24643504Y21653523D01*
X23833980Y21653523D01*
X23929219Y22082095D02*
X23881600Y22129714D01*
X23833980Y22224952D01*
X23833980Y22463047D01*
X23881600Y22558285D01*
X23929219Y22605904D01*
X24024457Y22653523D01*
X24119695Y22653523D01*
X24262552Y22605904D01*
X24833980Y22034476D01*
X24833980Y22653523D01*
%TO.C,U1*%
D14*
X17246666Y19687333D02*
X17246666Y19120666D01*
X17280000Y19054000D01*
X17313333Y19020666D01*
X17380000Y18987333D01*
X17513333Y18987333D01*
X17580000Y19020666D01*
X17613333Y19054000D01*
X17646666Y19120666D01*
X17646666Y19687333D01*
X18346666Y18987333D02*
X17946666Y18987333D01*
X18146666Y18987333D02*
X18146666Y19687333D01*
X18080000Y19587333D01*
X18013333Y19520666D01*
X17946666Y19487333D01*
X16596666Y17463333D02*
X16263333Y17463333D01*
X16263333Y18163333D01*
X16830000Y17463333D02*
X16830000Y18163333D01*
X17063333Y17663333D01*
X17296666Y18163333D01*
X17296666Y17463333D01*
X17563333Y18163333D02*
X17996666Y18163333D01*
X17763333Y17896666D01*
X17863333Y17896666D01*
X17930000Y17863333D01*
X17963333Y17830000D01*
X17996666Y17763333D01*
X17996666Y17596666D01*
X17963333Y17530000D01*
X17930000Y17496666D01*
X17863333Y17463333D01*
X17663333Y17463333D01*
X17596666Y17496666D01*
X17563333Y17530000D01*
X18630000Y18163333D02*
X18296666Y18163333D01*
X18263333Y17830000D01*
X18296666Y17863333D01*
X18363333Y17896666D01*
X18530000Y17896666D01*
X18596666Y17863333D01*
X18630000Y17830000D01*
X18663333Y17763333D01*
X18663333Y17596666D01*
X18630000Y17530000D01*
X18596666Y17496666D01*
X18530000Y17463333D01*
X18363333Y17463333D01*
X18296666Y17496666D01*
X18263333Y17530000D01*
X19063333Y17863333D02*
X18996666Y17896666D01*
X18963333Y17930000D01*
X18930000Y17996666D01*
X18930000Y18030000D01*
X18963333Y18096666D01*
X18996666Y18130000D01*
X19063333Y18163333D01*
X19196666Y18163333D01*
X19263333Y18130000D01*
X19296666Y18096666D01*
X19330000Y18030000D01*
X19330000Y17996666D01*
X19296666Y17930000D01*
X19263333Y17896666D01*
X19196666Y17863333D01*
X19063333Y17863333D01*
X18996666Y17830000D01*
X18963333Y17796666D01*
X18930000Y17730000D01*
X18930000Y17596666D01*
X18963333Y17530000D01*
X18996666Y17496666D01*
X19063333Y17463333D01*
X19196666Y17463333D01*
X19263333Y17496666D01*
X19296666Y17530000D01*
X19330000Y17596666D01*
X19330000Y17730000D01*
X19296666Y17796666D01*
X19263333Y17830000D01*
X19196666Y17863333D01*
%TD*%
M02*
